<svg id="SvgjsSvg1001" width="288" height="288" xmlns="http://www.w3.org/2000/svg" version="1.1" xmlns:xlink="http://www.w3.org/1999/xlink" xmlns:svgjs="http://svgjs.com/svgjs"><defs id="SvgjsDefs1002"></defs><g id="SvgjsG1008"><svg xmlns="http://www.w3.org/2000/svg" fill="none" viewBox="0 0 252 144" width="288" height="288"><path fill="#ffffff" d="M181.464 74.2H182.928V82.984C182.928 84.136 182.16 85.096 181.128 85.408V91H179.664V85.408C178.608 85.096 177.84 84.136 177.84 82.984V74.2H179.304V82.984C179.304 83.584 179.784 84.064 180.384 84.064C180.984 84.064 181.464 83.584 181.464 82.984V74.2ZM186.077 80.416V84.328C186.077 84.904 186.557 85.384 187.157 85.384C187.733 85.384 188.213 84.904 188.213 84.328V80.416C188.213 79.816 187.733 79.336 187.157 79.336C186.557 79.336 186.077 79.816 186.077 80.416ZM187.157 86.824C186.749 86.824 186.389 86.752 186.053 86.584V88.48C186.053 89.08 186.533 89.56 187.109 89.56C187.709 89.56 188.189 89.08 188.189 88.48V87.736H189.629V88.48C189.629 89.872 188.501 91 187.109 91C185.741 91 184.613 89.872 184.613 88.504V88.48L184.637 82.36V80.416C184.637 79.024 185.765 77.896 187.157 77.896C188.525 77.896 189.653 79.024 189.653 80.416V84.328C189.653 85.72 188.525 86.824 187.157 86.824ZM195.982 85.744V88.552C195.982 89.872 194.806 91 193.438 91C192.07 91 190.918 89.944 190.918 88.552V86.344H192.382V88.552C192.382 89.104 192.838 89.56 193.438 89.56C194.014 89.56 194.518 89.08 194.518 88.552V85.744C194.518 85.456 194.062 85.12 193.462 85.12C192.046 85.12 190.918 84.232 190.918 83.056V80.008C191.038 78.808 192.094 77.896 193.438 77.896C194.806 77.896 195.982 78.952 195.982 80.2V82.552H194.518V80.2C194.518 79.792 194.086 79.336 193.438 79.336C192.862 79.336 192.406 79.696 192.382 80.152V83.056C192.382 83.344 192.838 83.68 193.462 83.68C194.878 83.68 195.982 84.592 195.982 85.744ZM199.589 89.608L198.629 92.776L197.285 92.368L198.245 89.2L199.589 89.608ZM206.375 78.136V91H204.863V78.136H206.375ZM206.495 75.016C206.495 75.472 206.135 75.856 205.679 75.856C205.223 75.856 204.863 75.472 204.863 75.016C204.863 74.56 205.223 74.2 205.679 74.2C206.135 74.2 206.495 74.56 206.495 75.016ZM212.536 81.04L209.608 81.064V91H208.144V74.2H209.608V79.6L212.512 79.576L212.536 81.04ZM216.52 76.456L215.488 73.048L216.928 72.616L217.96 76L216.52 76.456ZM225.982 85.744V88.552C225.982 89.872 224.806 91 223.438 91C222.07 91 220.918 89.944 220.918 88.552V86.344H222.382V88.552C222.382 89.104 222.838 89.56 223.438 89.56C224.014 89.56 224.518 89.08 224.518 88.552V85.744C224.518 85.456 224.062 85.12 223.462 85.12C222.046 85.12 220.918 84.232 220.918 83.056V80.008C221.038 78.808 222.094 77.896 223.438 77.896C224.806 77.896 225.982 78.952 225.982 80.2V82.552H224.518V80.2C224.518 79.792 224.086 79.336 223.438 79.336C222.862 79.336 222.406 79.696 222.382 80.152V83.056C222.382 83.344 222.838 83.68 223.462 83.68C224.878 83.68 225.982 84.592 225.982 85.744ZM237.486 78.472C238.806 78.472 239.886 79.552 239.886 80.896V91H238.494V80.896C238.494 80.32 238.038 79.864 237.486 79.864C236.91 79.864 236.454 80.32 236.454 80.896V91H235.062V80.896C235.062 80.32 234.606 79.864 234.03 79.864C233.478 79.864 232.998 80.32 232.998 80.896V91H231.63L231.606 78.136H232.998V78.712C233.31 78.568 233.67 78.472 234.03 78.472C234.702 78.472 235.326 78.76 235.758 79.192C236.19 78.76 236.79 78.472 237.486 78.472ZM243.007 80.416V84.328C243.007 84.904 243.487 85.384 244.087 85.384C244.663 85.384 245.143 84.904 245.143 84.328V80.416C245.143 79.816 244.663 79.336 244.087 79.336C243.487 79.336 243.007 79.816 243.007 80.416ZM244.087 86.824C243.679 86.824 243.319 86.752 242.983 86.584V88.48C242.983 89.08 243.463 89.56 244.039 89.56C244.639 89.56 245.119 89.08 245.119 88.48V87.736H246.559V88.48C246.559 89.872 245.431 91 244.039 91C242.671 91 241.543 89.872 241.543 88.504V88.48L241.567 82.36V80.416C241.567 79.024 242.695 77.896 244.087 77.896C245.455 77.896 246.583 79.024 246.583 80.416V84.328C246.583 85.72 245.455 86.824 244.087 86.824ZM250.07 73V87.52H248.51V73H250.07ZM250.334 89.968C250.334 90.544 249.854 91 249.278 91C248.726 91 248.246 90.544 248.246 89.968C248.246 89.392 248.726 88.936 249.278 88.936C249.854 88.936 250.334 89.392 250.334 89.968Z" class="colorfff svgShape"></path><path fill="#4fabff" d="M139.652 77.8365C139.652 85.5629 139.683 93.2894 139.652 101.016C139.53 119.583 131.225 130.864 112.532 137.592C92.0317 144.995 70.7342 144.848 49.3448 142.733C37.2098 141.528 25.6877 138.267 15.5446 131.569C6.22886 125.429 1.17262 117.027 0.498455 106.363C0.253304 102.397 0.498457 98.5775 6.07564 97.9899C11.4996 97.4317 13.7979 100.164 14.0737 104.923C14.564 114.265 20.4783 119.994 28.844 124.078C36.6582 127.868 45.1466 129.483 53.7881 130.247C69.9375 131.716 85.9948 131.599 101.776 127.486C119.856 122.785 126.138 114.941 126.077 97.4611C126.046 81.45 126.046 26.4833 126.077 10.4722C126.077 4.39091 128.283 1.51185 132.911 1.83501C138.672 2.2463 139.805 5.94796 139.744 10.6191C139.591 20.0495 139.683 68.4061 139.683 77.8071L139.652 77.8365Z" class="color4FABFF svgShape"></path><path fill="#4fabff" d="M70.4371 0.0377439C90.3862 0.0377439 110.335 0.0377439 130.315 0.0377439C134.238 0.0377439 138.16 0.125878 139.324 4.91453C140.52 9.90882 137.67 13.3167 131.725 13.3755C115.392 13.4636 99.0584 13.5811 82.7559 13.3167C78.1593 13.2286 61.5503 13.1992 56.6473 13.3167C40.7432 13.6399 24.8083 13.4636 8.87353 13.4048C5.38013 13.4048 1.88673 13.1992 0.630333 9.11561C-0.932504 4.03318 1.61094 0.419661 7.61714 0.184635C15.2475 -0.138526 22.9391 0.0671222 30.6 0.0377439C43.8995 0.0377439 57.1989 0.0377439 70.4983 0.0377439H70.4371Z" class="color4FABFF svgShape"></path><path fill="#4fabff" d="M14.0483 37.3802C14.0483 47.927 14.0483 58.5031 14.0483 69.0499 14.0483 71.1358 13.9563 73.1923 8.96138 73.8092 3.75192 74.4555.197234 72.9278.135946 69.7844.0440148 61.1472-.0785593 52.51.197236 43.8728.289167 41.4344.319811 32.6503.197236 30.065-.139847 21.6335.0440141 13.2313.105302 4.79976.105302 2.94893.319812 1.0981 4.57931.422405 9.8807-.400185 13.6499.951212 13.895 4.12406 14.2321 8.17825 14.0176 12.2324 14.0483 16.2866 14.0483 23.3374 14.0483 30.3588 14.0483 37.4096V37.3802zM27.8443 61.8465C27.9056 66.312 30.9087 69.1617 35.444 69.103 39.6728 69.0442 42.7372 65.9301 42.6759 61.6703 42.6146 57.5573 39.397 54.4726 35.1375 54.502 30.878 54.502 27.783 57.6455 27.8443 61.8465zM23.8606 62.1697C23.6154 55.9709 28.3959 51.0354 34.9537 50.8297 39.8567 50.6828 46.4145 54.1201 46.537 61.6996 46.629 67.5753 41.9405 72.599 35.8117 72.8634 30.6635 73.0984 23.6154 69.3086 23.8606 62.1697z" class="color4FABFF svgShape"></path><path fill="#4fabff" d="M38.2351 67.8401C41.9245 67.8401 44.9154 64.9728 44.9154 61.4357 44.9154 57.8986 41.9245 55.0312 38.2351 55.0312 34.5456 55.0312 31.5547 57.8986 31.5547 61.4357 31.5547 64.9728 34.5456 67.8401 38.2351 67.8401zM102.524 61.8436C102.585 66.3091 105.588 69.1588 110.124 69.1 114.353 69.0413 117.417 65.9272 117.356 61.6673 117.294 57.5544 114.077 54.4697 109.817 54.4991 105.558 54.4991 102.463 57.6425 102.524 61.8436zM98.5403 62.1668C98.2951 55.968 103.076 51.0324 109.633 50.8268 114.536 50.6799 121.094 54.1171 121.217 61.6967 121.309 67.5724 116.62 72.596 110.491 72.8604 105.343 73.0955 98.2951 69.3057 98.5403 62.1668z" class="color4FABFF svgShape"></path><path fill="#4fabff" d="M112.907 68.2542C116.596 68.2542 119.587 65.3868 119.587 61.8498C119.587 58.3127 116.596 55.4453 112.907 55.4453C109.217 55.4453 106.227 58.3127 106.227 61.8498C106.227 65.3868 109.217 68.2542 112.907 68.2542Z" class="color4FABFF svgShape"></path><path stroke="#ffffff" d="M148 117C161 117.5 188.6 114.7 195 99.5" class="colorStrokefff svgStroke"></path></svg></g></svg>