<svg width="37" height="48" viewBox="0 0 37 48" fill="none" xmlns="http://www.w3.org/2000/svg">
<path d="M3.65528 9.64031e-05C1.64605 9.64031e-05 0 1.64625 0 3.65538V43.8635C0 45.8728 1.64605 47.5187 3.65528 47.5187H32.8975C34.9067 47.5187 36.5528 45.8728 36.5528 43.8635V10.0521C36.5528 10.0474 36.5528 10.0426 36.5528 10.0378C36.5528 10.0331 36.5528 10.0283 36.5528 10.0236C36.5524 10.0021 36.5512 9.98067 36.5492 9.95931C36.5482 9.94977 36.547 9.94025 36.5457 9.93075C36.5311 9.80852 36.4919 9.69049 36.4306 9.58376C36.3692 9.47703 36.287 9.38379 36.1887 9.30964L27.2611 0.385614C27.2564 0.379606 27.2517 0.373656 27.2468 0.367766C27.1604 0.251836 27.0477 0.15806 26.9181 0.0941446C26.7884 0.0302288 26.6454 -0.00200348 26.5008 9.64031e-05H3.65528ZM3.65528 1.82774H25.587V7.31066C25.587 9.31996 27.233 10.9659 29.2422 10.9659H34.7252V43.8635C34.7252 44.8919 33.9259 45.6911 32.8975 45.6911H3.65528C2.62694 45.6911 1.82764 44.8919 1.82764 43.8635V3.65538C1.82764 2.62715 2.62694 1.82774 3.65528 1.82774ZM27.4146 3.11993L33.433 9.1383H29.2422C28.2139 9.1383 27.4146 8.33907 27.4146 7.31066V3.11993ZM8.14585 20.1041C7.90349 20.1164 7.67594 20.2245 7.51327 20.4046C7.3506 20.5847 7.26613 20.822 7.27843 21.0644C7.29074 21.3067 7.39882 21.5343 7.5789 21.6969C7.75897 21.8596 7.9963 21.9441 8.23866 21.9318H20.3468H28.3284C28.4495 21.9335 28.5697 21.9111 28.6821 21.866C28.7945 21.8208 28.8968 21.7538 28.983 21.6687C29.0692 21.5837 29.1377 21.4824 29.1844 21.3707C29.2312 21.259 29.2553 21.1391 29.2553 21.018C29.2553 20.8968 29.2312 20.777 29.1844 20.6652C29.1377 20.5535 29.0692 20.4522 28.983 20.3672C28.8968 20.2821 28.7945 20.2151 28.6821 20.1699C28.5697 20.1248 28.4495 20.1024 28.3284 20.1041H20.3468H8.23866C8.20774 20.1026 8.17676 20.1026 8.14585 20.1041ZM8.14585 23.7594C7.90349 23.7717 7.67594 23.8798 7.51327 24.0599C7.3506 24.24 7.26613 24.4773 7.27843 24.7196C7.29074 24.962 7.39882 25.1895 7.5789 25.3522C7.75897 25.5149 7.9963 25.5994 8.23866 25.5871H20.3468H28.3284C28.4495 25.5888 28.5697 25.5664 28.6821 25.5212C28.7945 25.4761 28.8968 25.409 28.983 25.324C29.0692 25.239 29.1377 25.1377 29.1844 25.026C29.2312 24.9142 29.2553 24.7943 29.2553 24.6732C29.2553 24.5521 29.2312 24.4322 29.1844 24.3205C29.1377 24.2088 29.0692 24.1075 28.983 24.0224C28.8968 23.9374 28.7945 23.8704 28.6821 23.8252C28.5697 23.7801 28.4495 23.7577 28.3284 23.7594H20.3468H8.23866C8.20774 23.7578 8.17676 23.7578 8.14585 23.7594ZM8.14585 27.4147C7.90349 27.427 7.67594 27.5351 7.51327 27.7152C7.3506 27.8952 7.26613 28.1326 7.27843 28.3749C7.29074 28.6173 7.39882 28.8448 7.5789 29.0075C7.75897 29.1702 7.9963 29.2546 8.23866 29.2423H20.3468H28.3284C28.4495 29.244 28.5697 29.2217 28.6821 29.1765C28.7945 29.1314 28.8968 29.0643 28.983 28.9793C29.0692 28.8943 29.1377 28.793 29.1844 28.6812C29.2312 28.5695 29.2553 28.4496 29.2553 28.3285C29.2553 28.2074 29.2312 28.0875 29.1844 27.9758C29.1377 27.8641 29.0692 27.7628 28.983 27.6777C28.8968 27.5927 28.7945 27.5257 28.6821 27.4805C28.5697 27.4354 28.4495 27.413 28.3284 27.4147H20.3468H8.23866C8.20774 27.4131 8.17676 27.4131 8.14585 27.4147ZM8.14585 31.07C7.90349 31.0823 7.67594 31.1904 7.51327 31.3704C7.3506 31.5505 7.26613 31.7878 7.27843 32.0302C7.29074 32.2726 7.39882 32.5001 7.5789 32.6628C7.75897 32.8254 7.9963 32.9099 8.23866 32.8976H16.2203H21.0179C21.139 32.8993 21.2592 32.877 21.3715 32.8318C21.4839 32.7866 21.5862 32.7196 21.6724 32.6346C21.7587 32.5496 21.8271 32.4482 21.8739 32.3365C21.9206 32.2248 21.9447 32.1049 21.9447 31.9838C21.9447 31.8627 21.9206 31.7428 21.8739 31.6311C21.8271 31.5194 21.7587 31.418 21.6724 31.333C21.5862 31.248 21.4839 31.1809 21.3715 31.1358C21.2592 31.0906 21.139 31.0683 21.0179 31.07H16.2203H8.23866C8.20774 31.0684 8.17676 31.0684 8.14585 31.07ZM24.5803 31.07C24.338 31.0823 24.1104 31.1904 23.9478 31.3704C23.7851 31.5505 23.7006 31.7878 23.7129 32.0302C23.7252 32.2726 23.8333 32.5001 24.0134 32.6628C24.1935 32.8254 24.4308 32.9099 24.6731 32.8976C24.7942 32.8993 24.9145 32.877 25.0268 32.8318C25.1392 32.7866 25.2415 32.7196 25.3277 32.6346C25.4139 32.5496 25.4824 32.4482 25.5292 32.3365C25.5759 32.2248 25.6 32.1049 25.6 31.9838C25.6 31.8627 25.5759 31.7428 25.5292 31.6311C25.4824 31.5194 25.4139 31.418 25.3277 31.333C25.2415 31.248 25.1392 31.1809 25.0268 31.1358C24.9145 31.0906 24.7942 31.0683 24.6731 31.07C24.6422 31.0684 24.6112 31.0684 24.5803 31.07Z" fill="url(#paint0_linear_1_39)"/>
<defs>
<linearGradient id="paint0_linear_1_39" x1="18.2764" y1="0" x2="18.2764" y2="47.5187" gradientUnits="userSpaceOnUse">
<stop stop-color="#01A1FE"/>
<stop offset="0.77"/>
</linearGradient>
</defs>
</svg>
