<svg width="57" height="43" viewBox="0 0 57 43" fill="none" xmlns="http://www.w3.org/2000/svg">
<path d="M28.4283 25.9861C27.6413 25.9861 26.877 25.8538 26.1543 25.5915L3.43509 17.3597C1.31697 16.5926 0 14.919 0 12.9925C0 11.0653 1.31697 9.39172 3.43509 8.62383L26.1543 0.392807C27.5988 -0.130936 29.2578 -0.130936 30.7023 0.392807L53.4224 8.62383C55.5405 9.39172 56.8565 11.0653 56.8565 12.9925C56.8565 14.919 55.5405 16.5926 53.4224 17.3597L30.7023 25.5915C29.9805 25.8538 29.2152 25.9861 28.4283 25.9861ZM28.4283 2.36255C28.0315 2.36255 27.647 2.42949 27.2832 2.56102L4.56406 10.7928C3.48138 11.185 2.83423 12.0073 2.83423 12.9918C2.83423 13.977 3.48138 14.7993 4.56406 15.1915L27.2832 23.4233C28.0107 23.6863 28.8459 23.6863 29.5733 23.4233L52.2934 15.1915C53.3761 14.7993 54.0223 13.977 54.0223 12.9918C54.0223 12.0073 53.3761 11.185 52.2934 10.7928L29.5733 2.56102C29.2096 2.42949 28.8251 2.36255 28.4283 2.36255Z" fill="url(#paint0_linear_1_41)"/>
<path d="M28.4292 42.8127C27.6583 42.8127 26.8864 42.6827 26.1684 42.422L3.62024 34.2524C1.5144 33.4893 0.205933 31.8251 0.205933 29.9097C0.205933 27.9935 1.5144 26.3294 3.62024 25.5662C4.33918 25.3063 5.17245 25.5812 5.48516 26.1797C5.79692 26.7791 5.46721 27.4753 4.75015 27.7352C3.67975 28.1227 3.04016 28.9355 3.04016 29.9097C3.04016 30.8832 3.67881 31.6959 4.75015 32.0834L27.2974 40.253C28.0173 40.5137 28.842 40.5137 29.561 40.253L52.1092 32.0834C53.1805 31.6959 53.8192 30.8832 53.8192 29.9097C53.8192 28.9355 53.1796 28.1227 52.1092 27.7352C51.3921 27.4753 51.0624 26.7791 51.3742 26.1797C51.685 25.5812 52.5211 25.3063 53.2391 25.5662C55.3449 26.3294 56.6534 27.9935 56.6534 29.9097C56.6534 31.8251 55.3449 33.4893 53.2391 34.2524L30.6909 42.422C29.972 42.6827 29.2001 42.8127 28.4292 42.8127Z" fill="url(#paint1_linear_1_41)"/>
<path d="M28.4268 32.2942C27.7409 32.2942 27.055 32.1784 26.4145 31.9469L7.17476 24.9752C6.45676 24.7153 6.12799 24.0191 6.43975 23.4205C6.75246 22.8212 7.58667 22.5463 8.30373 22.807L27.5444 29.7779C28.1056 29.9819 28.7499 29.9811 29.3101 29.7779L48.5507 22.807C49.2688 22.5471 50.103 22.8212 50.4147 23.4205C50.7274 24.0191 50.3977 24.7153 49.6797 24.9752L30.4391 31.9469C29.7995 32.1784 29.1136 32.2942 28.4268 32.2942Z" fill="url(#paint2_linear_1_41)"/>
<defs>
<linearGradient id="paint0_linear_1_41" x1="-3.68694" y1="20.6024" x2="46.2405" y2="-11.287" gradientUnits="userSpaceOnUse">
<stop stop-color="#01A1FE"/>
<stop offset="1"/>
</linearGradient>
<linearGradient id="paint1_linear_1_41" x1="-3.45448" y1="39.2193" x2="33.2266" y2="4.37013" gradientUnits="userSpaceOnUse">
<stop stop-color="#01A1FE"/>
<stop offset="1"/>
</linearGradient>
<linearGradient id="paint2_linear_1_41" x1="3.45512" y1="30.3083" x2="22.8881" y2="4.14375" gradientUnits="userSpaceOnUse">
<stop stop-color="#01A1FE"/>
<stop offset="1"/>
</linearGradient>
</defs>
</svg>
