<svg width="43" height="43" viewBox="0 0 43 43" fill="none" xmlns="http://www.w3.org/2000/svg">
<path d="M38.5346 0H3.98634C1.78854 0 0 1.78854 0 3.98634V38.5346C0 40.7324 1.78854 42.5209 3.98634 42.5209H38.5346C40.7324 42.5209 42.5209 40.7324 42.5209 38.5346V3.98634C42.5209 1.78854 40.7324 0 38.5346 0ZM39.8634 38.5346C39.8634 39.2681 39.2681 39.8634 38.5346 39.8634H3.98634C3.25285 39.8634 2.65756 39.2681 2.65756 38.5346V3.98634C2.65756 3.25418 3.25285 2.65756 3.98634 2.65756H38.5346C39.2681 2.65756 39.8634 3.25418 39.8634 3.98634V38.5346ZM34.5483 5.31512H7.97267C6.50703 5.31512 5.31512 6.5057 5.31512 7.97267V13.2878C5.31512 14.7534 6.50703 15.9453 7.97267 15.9453H34.5483C36.0152 15.9453 37.2058 14.7534 37.2058 13.2878V7.97267C37.2058 6.5057 36.0152 5.31512 34.5483 5.31512ZM7.97267 13.2878V7.97267H34.5483L34.5496 13.2878H7.97267ZM13.2878 18.6029H7.97267C6.50703 18.6029 5.31512 19.7948 5.31512 21.2605V34.5483C5.31512 36.0152 6.50703 37.2058 7.97267 37.2058H13.2878C14.7534 37.2058 15.9453 36.0152 15.9453 34.5483V21.2605C15.9453 19.7948 14.7534 18.6029 13.2878 18.6029ZM7.97267 34.5483V21.2605H13.2878L13.2891 34.5483H7.97267ZM34.5483 18.6029H21.2605C19.7948 18.6029 18.6029 19.7948 18.6029 21.2605V34.5483C18.6029 36.0152 19.7948 37.2058 21.2605 37.2058H34.5483C36.0152 37.2058 37.2058 36.0152 37.2058 34.5483V21.2605C37.2058 19.7948 36.0152 18.6029 34.5483 18.6029ZM21.2605 34.5483V21.2605H34.5483L34.5496 34.5483H21.2605Z" fill="url(#paint0_linear_1_45)"/>
<defs>
<linearGradient id="paint0_linear_1_45" x1="21.2605" y1="0" x2="21.2605" y2="42.5209" gradientUnits="userSpaceOnUse">
<stop stop-color="#01A1FE"/>
<stop offset="1"/>
</linearGradient>
</defs>
</svg>
