<svg id="SvgjsSvg1001" width="288" height="288" xmlns="http://www.w3.org/2000/svg" version="1.1" xmlns:xlink="http://www.w3.org/1999/xlink" xmlns:svgjs="http://svgjs.com/svgjs"><defs id="SvgjsDefs1002"></defs><g id="SvgjsG1008"><svg xmlns="http://www.w3.org/2000/svg" fill="none" viewBox="0 0 196 137" width="288" height="288"><rect width="194.427" height="135.799" x=".5" y=".5" stroke="#000000" rx="11.5" class="colorStrokefff svgStroke"></rect><rect width="11.726" height="15.634" x="29.313" y="41.039" fill="#000000" class="colorfff svgShape"></rect><rect width="11.726" height="7.817" x="29.313" y="60.582" fill="#000000" class="colorfff svgShape"></rect><path fill="#000000" d="M17.5859 46.0386C17.5859 43.2771 19.8245 41.0386 22.5859 41.0386H25.403V48.8557H17.5859V46.0386zM52.7656 46.0386C52.7656 43.2771 50.527 41.0386 47.7656 41.0386H44.9485V48.8557H52.7656V46.0386zM44.9453 52.7656H52.7624V65.3998C52.7624 67.0566 51.4192 68.3998 49.7624 68.3998H44.9453V52.7656zM25.4062 52.7656H17.5892V65.3998C17.5892 67.0566 18.9323 68.3998 20.5892 68.3998H25.4062V52.7656z" class="colorfff svgShape"></path><circle cx="25.409" cy="113.347" r="3.909" fill="#000000" class="colorfff svgShape"></circle><circle cx="64.495" cy="113.347" r="3.909" fill="#000000" class="colorfff svgShape"></circle><circle cx="103.573" cy="113.347" r="3.909" fill="#000000" class="colorfff svgShape"></circle><circle cx="142.659" cy="113.347" r="3.909" fill="#000000" class="colorfff svgShape"></circle><circle cx="37.127" cy="113.347" r="3.909" fill="#000000" class="colorfff svgShape"></circle><circle cx="76.221" cy="113.347" r="3.909" fill="#000000" class="colorfff svgShape"></circle><circle cx="115.307" cy="113.347" r="3.909" fill="#000000" class="colorfff svgShape"></circle><circle cx="154.385" cy="113.347" r="3.909" fill="#000000" class="colorfff svgShape"></circle><circle cx="48.854" cy="113.347" r="3.909" fill="#000000" class="colorfff svgShape"></circle><circle cx="87.94" cy="113.347" r="3.909" fill="#000000" class="colorfff svgShape"></circle><circle cx="127.026" cy="113.347" r="3.909" fill="#000000" class="colorfff svgShape"></circle><circle cx="166.112" cy="113.347" r="3.909" fill="#000000" class="colorfff svgShape"></circle></svg></g></svg>