<?xml version="1.0" encoding="UTF-8"?>
<svg version="1.1" xmlns="http://www.w3.org/2000/svg" width="327" height="554">
<path d="M0 0 C107.91 0 215.82 0 327 0 C327 182.82 327 365.64 327 554 C219.09 554 111.18 554 0 554 C0 371.18 0 188.36 0 0 Z " fill="#000000" transform="translate(0,0)"/>
<path d="M0 0 C0.90938828 -0.00540298 1.81877655 -0.01080597 2.75572205 -0.01637268 C5.7620396 -0.02888053 8.76740325 -0.01235381 11.77368164 0.00561523 C13.8634903 0.00546028 15.95329925 0.00397191 18.04310608 0.00120544 C22.42372334 -0.00017952 26.80401357 0.01239494 31.18457031 0.03515625 C36.79811335 0.0635234 42.41111221 0.06080951 48.0246954 0.04806614 C52.34070985 0.04110838 56.6565987 0.0488997 60.97259712 0.06132317 C63.04223715 0.06583794 65.11189066 0.06617424 67.18153191 0.06225777 C70.07572904 0.0593451 72.96917861 0.07585615 75.86328125 0.09765625 C76.71799011 0.0931546 77.57269897 0.08865295 78.45330811 0.08401489 C83.0815433 0.14189321 86.28999811 0.40842149 89.99633789 3.50170898 C91.76786113 8.81627869 91.22194079 14.55918511 91.23657227 20.12524414 C91.24627317 22.36178852 91.27730561 24.5974116 91.30883789 26.83374023 C91.31536905 28.26212022 91.32061908 29.69050674 91.32446289 31.11889648 C91.33380859 32.41424316 91.3431543 33.70958984 91.3527832 35.04418945 C90.97261166 38.73185337 90.28727455 40.61421617 87.99633789 43.50170898 C85.11670955 44.4615851 83.33006349 44.62324712 80.34130859 44.61523438 C79.38744263 44.61511353 78.43357666 44.61499268 77.45080566 44.61486816 C76.45133911 44.6097522 75.45187256 44.60463623 74.42211914 44.59936523 C73.04074768 44.59785461 73.04074768 44.59785461 71.63146973 44.59631348 C68.19057979 44.59108051 64.74970759 44.57711924 61.30883789 44.56420898 C53.61571289 44.54358398 45.92258789 44.52295898 37.99633789 44.50170898 C37.99633789 63.97170898 37.99633789 83.44170898 37.99633789 103.50170898 C38.98633789 103.50170898 39.97633789 103.50170898 40.99633789 103.50170898 C40.33633789 105.48170898 39.67633789 107.46170898 38.99633789 109.50170898 C56.81633789 109.83170898 74.63633789 110.16170898 92.99633789 110.50170898 C92.99633789 126.01170898 92.99633789 141.52170898 92.99633789 157.50170898 C73.85633789 157.50170898 54.71633789 157.50170898 34.99633789 157.50170898 C34.99633789 164.10170898 34.99633789 170.70170898 34.99633789 177.50170898 C35.98633789 177.50170898 36.97633789 177.50170898 37.99633789 177.50170898 C36.24633789 183.25170898 36.24633789 183.25170898 33.99633789 185.50170898 C30.99633789 179.75170898 30.99633789 179.75170898 30.99633789 177.50170898 C31.98633789 177.50170898 32.97633789 177.50170898 33.99633789 177.50170898 C33.99633789 170.90170898 33.99633789 164.30170898 33.99633789 157.50170898 C17.16633789 157.50170898 0.33633789 157.50170898 -17.00366211 157.50170898 C-17.00366211 149.58170898 -17.00366211 141.66170898 -17.00366211 133.50170898 C-50.33366211 133.50170898 -83.66366211 133.50170898 -118.00366211 133.50170898 C-118.00366211 149.34170898 -118.00366211 165.18170898 -118.00366211 181.50170898 C-117.01366211 181.83170898 -116.02366211 182.16170898 -115.00366211 182.50170898 C-115.35428711 183.45045898 -115.70491211 184.39920898 -116.06616211 185.37670898 C-116.42809876 188.17754181 -116.17133425 189.24857514 -114.59350586 191.63061523 C-112.64475281 193.78334991 -110.64189945 195.86322815 -108.58276367 197.91040039 C-106.11586189 200.39637223 -103.73572123 202.96206054 -101.34545898 205.52148438 C-100.06676759 206.89017304 -98.78440583 208.25544508 -97.49780273 209.61669922 C-93.21924327 214.14936889 -89.07712092 218.78400257 -85.00366211 223.50170898 C-89.03656521 229.26455588 -93.53696928 234.14767815 -98.56225586 239.06811523 C-101.22526213 241.72259988 -103.6885592 244.48727824 -106.13256836 247.34155273 C-108.52403499 250.1024735 -110.98031162 252.80280923 -113.44116211 255.50170898 C-114.73860352 256.92483398 -114.73860352 256.92483398 -116.06225586 258.37670898 C-116.70291992 259.07795898 -117.34358398 259.77920898 -118.00366211 260.50170898 C-121.46761526 259.04239391 -123.37846541 257.21347634 -125.81616211 254.37670898 C-130.59187055 248.92780781 -135.53065124 243.65033676 -140.51074219 238.38793945 C-144.78637905 233.85253855 -148.9301777 229.21944506 -153.00366211 224.50170898 C-149.16603997 219.06367744 -145.00082087 214.37519541 -140.23413086 209.72827148 C-137.57436719 207.07316589 -135.14238777 204.26831429 -132.69897461 201.41577148 C-130.95396272 199.44559677 -129.13002918 197.59667243 -127.25366211 195.75170898 C-126.68131836 195.17936523 -126.10897461 194.60702148 -125.51928711 194.01733398 C-124.34741211 192.84545898 -123.17553711 191.67358398 -122.00366211 190.50170898 C-120.44553638 187.38545752 -121.30414016 184.80854 -122.00366211 181.50170898 C-121.01366211 181.50170898 -120.02366211 181.50170898 -119.00366211 181.50170898 C-119.00366211 165.33170898 -119.00366211 149.16170898 -119.00366211 132.50170898 C-85.34366211 132.50170898 -51.68366211 132.50170898 -17.00366211 132.50170898 C-17.00366211 125.24170898 -17.00366211 117.98170898 -17.00366211 110.50170898 C0.48633789 110.17170898 17.97633789 109.84170898 35.99633789 109.50170898 C35.33633789 107.52170898 34.67633789 105.54170898 33.99633789 103.50170898 C34.98633789 103.50170898 35.97633789 103.50170898 36.99633789 103.50170898 C36.99633789 84.03170898 36.99633789 64.56170898 36.99633789 44.50170898 C22.36677653 44.62035247 22.36677653 44.62035247 7.73754883 44.77197266 C5.90194216 44.78073544 4.06632967 44.78837987 2.23071289 44.79467773 C0.8039624 44.81769958 0.8039624 44.81769958 -0.65161133 44.84118652 C-1.56475098 44.84154907 -2.47789062 44.84191162 -3.41870117 44.84228516 C-4.60450775 44.85227791 -4.60450775 44.85227791 -5.81427002 44.86247253 C-8.60217343 44.40308751 -9.95620962 43.42266019 -12.00366211 41.50170898 C-13.19483132 37.92820137 -13.20352002 34.63447665 -13.24194336 30.91186523 C-13.25405098 29.80046425 -13.25405098 29.80046425 -13.2664032 28.66661072 C-13.28021923 27.10068079 -13.29095246 25.53472107 -13.29882812 23.96875 C-13.31607593 21.57616329 -13.35998484 19.18494675 -13.40405273 16.79272461 C-13.4141774 15.26994829 -13.42269422 13.74716026 -13.42944336 12.22436523 C-13.44695145 11.51071304 -13.46445953 10.79706085 -13.48249817 10.06178284 C-13.46900139 6.96748847 -13.27697169 4.90965164 -11.53701782 2.31259155 C-7.78709885 -0.36790959 -4.50516286 -0.05083937 0 0 Z " fill="#FDFDFD" transform="translate(206.003662109375,35.498291015625)"/>
<path d="M0 0 C36.63 0 73.26 0 111 0 C111 15.18 111 30.36 111 46 C92.19 46 73.38 46 54 46 C54.495 53.425 54.495 53.425 55 61 C55.06318555 65.48617395 55.09772359 69.95326577 55.0625 74.4375 C55.05798828 75.56220703 55.05347656 76.68691406 55.04882812 77.84570312 C55.03726149 80.56386319 55.02097051 83.28189912 55 86 C55.99 86 56.98 86 58 86 C56.125 91.75 56.125 91.75 55 94 C55.99 94.33 56.98 94.66 58 95 C59.47265625 96.49609375 59.47265625 96.49609375 61.0625 98.4375 C63.90056782 101.79158015 66.86924344 104.91689575 70 108 C73.64049017 111.59636301 77.06889194 115.28537965 80.39453125 119.171875 C82.80390291 121.9153931 85.38712209 124.45085082 88 127 C86.45872649 130.71268094 84.19156766 132.98115698 81.3125 135.75 C78.22909896 138.76713884 75.23858474 141.78141718 72.4375 145.0625 C69.18106576 148.87322092 65.65690553 152.3606248 62.08984375 155.87890625 C59.54300035 158.46383329 57.25674199 161.16087298 55 164 C51.34924186 162.49867699 49.36723727 160.41104665 46.8125 157.4375 C43.76700486 153.96193494 40.67074641 150.61440886 37.375 147.375 C33.9546844 144.0022714 30.76670875 140.50794432 27.640625 136.86328125 C25.21664291 134.11033016 22.62490074 131.56087877 20 129 C21.4841373 125.51345524 23.46214052 123.35808928 26.1875 120.75 C29.06501117 117.9412192 31.82989001 115.12333744 34.4375 112.0625 C37.96161699 107.9455409 41.78905138 104.17571212 45.66796875 100.39453125 C47.98482276 98.015584 50.11135199 95.7343767 52 93 C51.86013727 89.26276567 51.86013727 89.26276567 51 86 C51.99 86 52.98 86 54 86 C53.9278125 85.1234375 53.855625 84.246875 53.78125 83.34375 C52.86266972 70.78981951 53 58.71184131 53 46 C35.51 46 18.02 46 0 46 C0 30.82 0 15.64 0 0 Z " fill="#FEFEFE" transform="translate(185,324)"/>
<path d="M0 0 C0.33 0 0.66 0 1 0 C1 40.92 1 81.84 1 124 C1.66 124 2.32 124 3 124 C2.34 125.98 1.68 127.96 1 130 C1.56518845 129.99333817 2.13037689 129.98667633 2.71269226 129.97981262 C8.60129095 129.91338276 14.48978297 129.86816768 20.37866211 129.83520508 C22.57564621 129.82012948 24.77260026 129.79966574 26.96948242 129.77368164 C30.12947 129.73724498 33.28905924 129.72026116 36.44921875 129.70703125 C37.91979988 129.68380547 37.91979988 129.68380547 39.42008972 129.66011047 C48.18966435 129.65795191 48.18966435 129.65795191 52 133 C53.77152324 138.31456971 53.22560289 144.05747612 53.24023438 149.62353516 C53.24993528 151.86007953 53.28096772 154.09570261 53.3125 156.33203125 C53.31903116 157.76041123 53.32428119 159.18879776 53.328125 160.6171875 C53.3374707 161.91253418 53.34681641 163.20788086 53.35644531 164.54248047 C52.97627377 168.23014439 52.29093666 170.11250719 50 173 C46.05965067 174.31344978 42.29396814 174.15574618 38.18579102 174.16113281 C37.28469604 174.16609772 36.38360107 174.17106262 35.4552002 174.17617798 C32.47142781 174.19079507 29.48770857 174.19760016 26.50390625 174.203125 C24.43269346 174.20887595 22.36148069 174.21463369 20.29026794 174.22039795 C15.94668326 174.23090604 11.60311709 174.23675026 7.25952148 174.24023438 C1.6896315 174.24572476 -3.88001472 174.26976527 -9.44982815 174.29820633 C-13.72801941 174.31681307 -18.00615165 174.32203722 -22.28437996 174.32357025 C-24.33811847 174.32660074 -26.39185585 174.33464257 -28.44555473 174.34775543 C-31.31602528 174.364778 -34.18589618 174.36294516 -37.05639648 174.35644531 C-37.90692093 174.3656601 -38.75744537 174.37487488 -39.63374329 174.3843689 C-43.11360362 174.35963956 -45.39118876 174.32551004 -48.49647522 172.66522217 C-51.67338443 169.14665053 -51.19217957 164.87667702 -51.23828125 160.41015625 C-51.246353 159.66922226 -51.25442474 158.92828827 -51.26274109 158.16490173 C-51.27655712 156.59897181 -51.28729035 155.03301208 -51.29516602 153.46704102 C-51.31241382 151.0744543 -51.35632273 148.68323776 -51.40039062 146.29101562 C-51.41051529 144.76823931 -51.41903211 143.24545127 -51.42578125 141.72265625 C-51.44328934 141.00900406 -51.46079742 140.29535187 -51.47883606 139.56007385 C-51.46521298 136.43682401 -51.15563175 134.27584159 -49.61303711 131.54174805 C-45.47869981 129.10240019 -41.47477152 129.50848932 -36.765625 129.609375 C-35.77246277 129.61503479 -34.77930054 129.62069458 -33.75604248 129.62652588 C-30.58686941 129.64889974 -27.4188308 129.69909894 -24.25 129.75 C-22.10027676 129.77006365 -19.95053577 129.78831466 -17.80078125 129.8046875 C-12.53346771 129.84876761 -7.26681491 129.91568967 -2 130 C-2.99 127.03 -2.99 127.03 -4 124 C-3.01 124 -2.02 124 -1 124 C-1.00523682 122.76628662 -1.01047363 121.53257324 -1.01586914 120.26147461 C-1.12802301 90.89735847 -0.93703996 61.54792306 -0.5 32.1875 C-0.48804218 31.38386395 -0.47608437 30.58022789 -0.46376419 29.75223923 C-0.31560656 19.83472237 -0.1609805 9.91731729 0 0 Z " fill="#FAFAFA" transform="translate(87,298)"/>
<path d="M0 0 C3.46395315 1.45931507 5.3748033 3.28823264 7.8125 6.125 C12.58820844 11.57390117 17.52698913 16.85137223 22.50708008 22.11376953 C26.78271694 26.64917043 30.92651559 31.28226393 35 36 C30.9670969 41.7628469 26.46669283 46.64596916 21.44140625 51.56640625 C18.75996577 54.23926612 16.27185505 56.99945607 13.8671875 59.921875 C12 62 12 62 9.3828125 64.203125 C3.32157532 69.66338966 1.47417183 73.19014141 0.95458984 81.2668457 C0.83875767 85.51746014 0.83786783 89.75083528 1 94 C1.99 94 2.98 94 4 94 C3.34 95.98 2.68 97.96 2 100 C1.01 100 0.02 100 -1 100 C-1.99 97.03 -1.99 97.03 -3 94 C-2.01 94 -1.02 94 0 94 C1.06281315 80.64719092 1.06281315 80.64719092 -3.0234375 68.39453125 C-5.3560169 65.91488306 -7.70660531 63.68602385 -10.30419922 61.49853516 C-13.52522957 58.65219419 -16.35074091 55.41748616 -19.25 52.25 C-20.43402513 50.98225915 -21.61889177 49.7153036 -22.8046875 48.44921875 C-26.28784195 44.70589899 -29.68867416 40.89640973 -33 37 C-29.20339208 31.53586233 -24.99086533 26.86735112 -20.23046875 22.2265625 C-17.56941989 19.57017397 -15.13646676 16.76367235 -12.69140625 13.91015625 C-10.43217847 11.35874197 -8.00864465 8.9961015 -5.578125 6.609375 C-3.54491458 4.53590299 -1.7524026 2.31317144 0 0 Z " fill="#FBFBFB" transform="translate(238,221)"/>
<path d="M0 0 C0.33 0 0.66 0 1 0 C2.40618519 12.63055626 2.09640239 25.31196243 2 38 C2.99 38 3.98 38 5 38 C4.1875 40.9375 4.1875 40.9375 3 44 C1.515 44.495 1.515 44.495 0 45 C-0.99 41.535 -0.99 41.535 -2 38 C-1.01 38 -0.02 38 1 38 C0.9278125 37.10023438 0.855625 36.20046875 0.78125 35.2734375 C-0.06758524 23.50763796 -0.10598816 11.79240549 0 0 Z " fill="#C4C4C4" transform="translate(238,372)"/>
<path d="M0 0 C-0.66 1.98 -1.32 3.96 -2 6 C-2.99 6 -3.98 6 -5 6 C-5.66 4.02 -6.32 2.04 -7 0 C-3.86650268 -1.04449911 -3.01031744 -0.93423645 0 0 Z " fill="#F0F0F0" transform="translate(242,315)"/>
<path d="M0 0 C2.31 0 4.62 0 7 0 C5.25 5.75 5.25 5.75 3 8 C0 2.25 0 2.25 0 0 Z " fill="#EDEDED" transform="translate(237,213)"/>
<path d="M0 0 C-0.66 1.98 -1.32 3.96 -2 6 C-2.99 6 -3.98 6 -5 6 C-5.66 4.02 -6.32 2.04 -7 0 C-3.86650268 -1.04449911 -3.01031744 -0.93423645 0 0 Z " fill="#EDEDED" transform="translate(247,139)"/>
</svg>
