<svg width="1235" height="458" viewBox="0 0 1235 458" fill="none" xmlns="http://www.w3.org/2000/svg">
<rect y="188" width="242" height="76" rx="14" fill="#586DE1"/>
<rect x="654" y="357" width="242" height="76" rx="14" fill="#586DE1"/>
<rect x="317" y="25" width="242" height="76" fill="#586DE1"/>
<rect x="993" y="25" width="242" height="76" fill="#586DE1"/>
<path fill-rule="evenodd" clip-rule="evenodd" d="M791.514 125.305L900.031 62.6523L791.514 -4.74343e-06L682.997 62.6523L791.514 125.305Z" fill="#586DE1"/>
<path fill-rule="evenodd" clip-rule="evenodd" d="M437.514 457.305L546.031 394.652L437.514 332L328.997 394.652L437.514 457.305Z" fill="#586DE1"/>
<path d="M118.5 59V58H117.5V59H118.5ZM291 59L281 53.2265V64.7735L291 59ZM119.5 181V59H117.5V181H119.5ZM118.5 60H282V58H118.5V60Z" fill="#586DE1"/>
<path d="M120 393V394H119V393H120ZM292.5 393L282.5 398.774V387.226L292.5 393ZM121 271V393H119V271H121ZM120 392H283.5V394H120V392Z" fill="#586DE1"/>
<path d="M640 393L630 387.226V398.774L640 393ZM561 394H631V392H561V394Z" fill="#586DE1"/>
<path d="M661 63L651 57.2265L651 68.7735L661 63ZM581 64L652 64L652 62L581 62L581 64Z" fill="#586DE1"/>
<path d="M975 63L965 57.2265V68.7735L975 63ZM918 64L966 64V62L918 62V64Z" fill="#586DE1"/>
</svg>
