<svg id="SvgjsSvg1001" width="288" height="288" xmlns="http://www.w3.org/2000/svg" version="1.1" xmlns:xlink="http://www.w3.org/1999/xlink" xmlns:svgjs="http://svgjs.com/svgjs"><defs id="SvgjsDefs1002"></defs><g id="SvgjsG1008"><svg xmlns="http://www.w3.org/2000/svg" fill="none" viewBox="0 0 163 163" width="288" height="288"><path fill="#000000" d="M86.6656 162.574C84.7131 162.574 82.7622 161.83 81.2765 160.345C81.1585 160.227 81.0649 160.087 81.001 159.933C80.9371 159.779 80.9043 159.613 80.9043 159.446C80.9043 159.28 80.9371 159.114 81.001 158.96C81.0649 158.806 81.1585 158.666 81.2765 158.548C81.3944 158.43 81.5345 158.336 81.6885 158.272C81.8426 158.208 82.0078 158.176 82.1746 158.176C82.3414 158.176 82.5066 158.208 82.6607 158.272C82.8148 158.336 82.9548 158.43 83.0727 158.548C85.0569 160.531 88.2819 160.528 90.2613 158.545C92.2398 156.563 92.2386 153.339 90.2562 151.357C90.1382 151.239 90.0446 151.099 89.9807 150.945C89.9169 150.791 89.884 150.626 89.884 150.459C89.884 150.292 89.9169 150.127 89.9807 149.973C90.0446 149.818 90.1382 149.678 90.2562 149.56C90.3741 149.442 90.5141 149.349 90.6681 149.285C90.8222 149.221 90.9874 149.188 91.1542 149.188C91.3209 149.188 91.4861 149.221 91.6402 149.285C91.7942 149.349 91.9342 149.442 92.0521 149.56C95.0238 152.531 95.026 157.368 92.0571 160.343C90.5711 161.829 88.6174 162.574 86.6656 162.574ZM99.2429 149.997C97.205 149.997 95.2901 149.202 93.8501 147.76C93.7321 147.642 93.6385 147.502 93.5746 147.348C93.5107 147.194 93.4778 147.029 93.4778 146.862C93.4778 146.695 93.5107 146.53 93.5746 146.376C93.6385 146.221 93.7321 146.081 93.8501 145.963C93.968 145.845 94.1079 145.752 94.262 145.688C94.4161 145.624 94.5812 145.591 94.748 145.591C94.9148 145.591 95.0799 145.624 95.234 145.688C95.3881 145.752 95.5281 145.845 95.6459 145.963C97.5634 147.883 100.911 147.888 102.829 145.968C104.81 143.987 104.809 140.761 102.827 138.778L92.9493 128.889C92.8314 128.771 92.7379 128.631 92.6741 128.477C92.6103 128.323 92.5774 128.157 92.5774 127.991C92.5774 127.824 92.6103 127.658 92.6741 127.504C92.7379 127.35 92.8314 127.21 92.9493 127.092C93.0672 126.974 93.2072 126.88 93.3613 126.817C93.5154 126.753 93.6805 126.72 93.8472 126.72C94.014 126.72 94.1791 126.753 94.3332 126.817C94.4872 126.88 94.6272 126.974 94.7451 127.092L104.623 136.981C107.596 139.955 107.596 144.793 104.625 147.766C103.189 149.204 101.277 149.997 99.2429 149.997ZM111.811 137.414C109.858 137.414 107.908 136.67 106.422 135.183L96.5441 125.299C96.4262 125.181 96.3327 125.041 96.2689 124.887C96.2051 124.733 96.1722 124.568 96.1722 124.401C96.1722 124.234 96.2051 124.069 96.2689 123.915C96.3327 123.76 96.4262 123.62 96.5441 123.502C96.6621 123.384 96.802 123.291 96.9561 123.227C97.1102 123.163 97.2753 123.13 97.442 123.13C97.6088 123.13 97.7739 123.163 97.928 123.227C98.0821 123.291 98.222 123.384 98.34 123.502L108.218 133.386C110.2 135.369 113.422 135.369 115.404 133.386C117.386 131.403 117.386 128.176 115.404 126.193L105.524 116.312C105.027 115.815 105.027 115.011 105.524 114.515C106.02 114.018 106.824 114.018 107.319 114.515L117.2 124.396C120.173 127.37 120.173 132.21 117.2 135.184C115.714 136.67 113.763 137.414 111.811 137.414ZM124.385 124.832C122.434 124.832 120.483 124.09 118.997 122.605L109.115 112.715C108.998 112.597 108.904 112.457 108.84 112.303C108.776 112.149 108.743 111.984 108.743 111.817C108.743 111.65 108.776 111.485 108.84 111.331C108.904 111.176 108.998 111.036 109.115 110.918C109.233 110.8 109.373 110.707 109.527 110.643C109.681 110.579 109.847 110.546 110.013 110.546C110.18 110.546 110.345 110.579 110.499 110.643C110.653 110.707 110.793 110.8 110.911 110.918L120.791 120.807C122.773 122.786 125.996 122.788 127.975 120.807C129.957 118.824 129.957 115.597 127.975 113.614L94.7483 80.3679C94.6303 80.2499 94.5367 80.1099 94.4728 79.9557C94.4089 79.8015 94.3761 79.6363 94.3761 79.4694C94.3761 79.3025 94.4089 79.1372 94.4728 78.9831C94.5367 78.8289 94.6303 78.6889 94.7483 78.5709C94.8662 78.4528 95.0062 78.3592 95.1602 78.2952C95.3143 78.2313 95.4794 78.1984 95.6462 78.1984C95.813 78.1984 95.9782 78.2313 96.1322 78.2952C96.2863 78.3592 96.4263 78.4528 96.5441 78.5709L129.771 111.816C132.744 114.79 132.744 119.63 129.771 122.604C128.288 124.09 126.337 124.832 124.385 124.832ZM31.0655 105.822C30.8311 105.822 30.6012 105.758 30.4014 105.635C30.2015 105.513 30.0394 105.337 29.9331 105.128C24.4326 94.3323 22.6228 83.7188 22.5484 83.2718C22.4933 82.9396 22.5722 82.599 22.7677 82.325C22.9633 82.0509 23.2596 81.8657 23.5915 81.81C24.2899 81.7057 24.9371 82.1635 25.0537 82.8537C25.0712 82.9606 26.8807 93.5416 32.1954 103.974C32.2943 104.168 32.3418 104.384 32.3335 104.601C32.3252 104.818 32.2613 105.03 32.1479 105.215C32.0345 105.401 31.8755 105.554 31.6859 105.66C31.4964 105.766 31.2828 105.822 31.0655 105.822ZM69.0966 60.5704C68.9284 60.5706 68.7619 60.5372 68.6067 60.4722C59.7884 56.7775 53.8062 53.6662 53.7467 53.6351C53.4483 53.4788 53.224 53.2104 53.123 52.8889C53.0221 52.5673 53.0529 52.2188 53.2085 51.9198C53.2854 51.7715 53.3907 51.6399 53.5186 51.5324C53.6465 51.425 53.7944 51.3439 53.9537 51.2939C54.113 51.2438 54.2806 51.2258 54.4469 51.2408C54.6132 51.2558 54.7749 51.3035 54.9227 51.3813C54.9811 51.4124 60.8747 54.4779 69.5866 58.1265C69.8568 58.2402 70.0794 58.444 70.2167 58.7032C70.354 58.9624 70.3975 59.2612 70.3398 59.5488C70.2822 59.8364 70.1269 60.0953 69.9003 60.2815C69.6738 60.4676 69.3898 60.5697 69.0966 60.5704ZM129.463 107.381C129.23 107.381 129.001 107.317 128.801 107.195C128.602 107.074 128.44 106.9 128.334 106.692C128.227 106.484 128.179 106.251 128.196 106.018C128.213 105.785 128.294 105.562 128.43 105.372C136.011 94.7348 137.473 79.5069 137.486 79.3543C137.551 78.6568 138.15 78.1331 138.867 78.2037C139.202 78.2345 139.512 78.3973 139.727 78.6564C139.943 78.9154 140.047 79.2494 140.016 79.5851C139.957 80.2353 138.475 95.6571 130.499 106.849C130.381 107.014 130.226 107.148 130.045 107.241C129.865 107.333 129.666 107.381 129.463 107.381ZM75.8885 158.982H75.8872C73.8531 158.982 71.9394 158.188 70.5007 156.749C67.5315 153.778 67.5315 148.94 70.4994 145.965L75.8885 140.572C78.7709 137.691 83.7892 137.693 86.6643 140.575C89.6348 143.547 89.6348 148.385 86.6643 151.357L81.2788 156.746C79.8375 158.188 77.9235 158.982 75.8885 158.982ZM81.2775 140.882C80.6098 140.881 79.9484 141.011 79.3315 141.267C78.7146 141.522 78.1543 141.897 77.683 142.37L72.2965 147.76C70.3183 149.745 70.317 152.971 72.2965 154.951C72.7669 155.425 73.3264 155.8 73.9428 156.056C74.5591 156.311 75.22 156.442 75.8872 156.44H75.8885C77.2455 156.44 78.5218 155.911 79.4826 154.949L84.8682 149.56C86.8486 147.578 86.8486 144.354 84.8682 142.372C84.398 141.898 83.8386 141.523 83.2222 141.267C82.6058 141.011 81.9448 140.88 81.2775 140.882ZM63.3143 146.401C61.2801 146.401 59.3677 145.609 57.929 144.169C54.9598 141.194 54.9598 136.357 57.929 133.382L65.1129 126.193C67.9928 123.315 73.0162 123.313 75.8885 126.193C78.8602 129.167 78.8602 134.005 75.8885 136.978L68.7049 144.166C67.2646 145.607 65.3496 146.401 63.3143 146.401ZM70.5029 126.504C69.8354 126.501 69.174 126.632 68.5571 126.887C67.9402 127.142 67.3799 127.517 66.9087 127.99L59.7248 135.179C57.7454 137.162 57.7454 140.389 59.7248 142.372C60.1951 142.845 60.7545 143.22 61.3706 143.476C61.9867 143.731 62.6473 143.862 63.3143 143.86C63.9821 143.861 64.6436 143.73 65.2605 143.475C65.8775 143.219 66.4377 142.843 66.9087 142.37L74.0923 135.181C76.0731 133.199 76.0731 129.972 74.0923 127.991C73.6222 127.517 73.0629 127.142 72.4467 126.887C71.8305 126.632 71.1698 126.501 70.5029 126.504ZM50.7426 133.818C48.7059 133.818 46.7935 133.027 45.357 131.586C43.9171 130.148 43.1234 128.233 43.1221 126.196C43.1188 125.194 43.3143 124.201 43.6971 123.275C44.0799 122.349 44.6425 121.508 45.3523 120.801L50.7426 115.41C53.6212 112.527 58.6446 112.53 61.5207 115.413C62.9606 116.85 63.7534 118.764 63.7534 120.801C63.7534 122.837 62.9606 124.752 61.5207 126.193L56.1304 131.586C54.6904 133.027 52.7767 133.818 50.7426 133.818ZM56.1307 115.719C55.4633 115.717 54.8021 115.848 54.1856 116.103C53.569 116.359 53.0092 116.734 52.5387 117.208L47.1484 122.599C46.6754 123.07 46.3005 123.631 46.0455 124.248C45.7904 124.866 45.6603 125.527 45.6627 126.195C45.6616 126.863 45.7928 127.525 46.0487 128.142C46.3046 128.759 46.6801 129.319 47.1535 129.79C49.0685 131.708 52.4148 131.708 54.3349 129.79L59.7252 124.396C60.1984 123.925 60.5737 123.365 60.8292 122.748C61.0847 122.131 61.2154 121.47 61.2137 120.802C61.2137 119.444 60.6853 118.17 59.7264 117.211C59.2556 116.737 58.6954 116.361 58.0781 116.104C57.4609 115.848 56.7989 115.717 56.1307 115.719ZM38.17 121.239H38.1687C36.1333 121.239 34.2209 120.447 32.7835 119.007C29.8127 116.033 29.8127 111.195 32.7835 108.222L36.3754 104.628C39.2541 101.746 44.2698 101.751 47.1484 104.631C48.5884 106.071 49.3811 107.985 49.3824 110.021C49.3837 112.056 48.5909 113.97 47.151 115.41L43.559 119.005C42.1187 120.446 40.205 121.239 38.17 121.239ZM41.7594 104.937C41.0927 104.936 40.4323 105.067 39.8164 105.322C39.2005 105.577 38.6413 105.953 38.1713 106.426L34.5793 110.02C32.5998 112.002 32.5998 115.227 34.5793 117.21C35.0496 117.684 35.609 118.059 36.2251 118.314C36.8412 118.569 37.5019 118.699 38.1687 118.697H38.17C39.527 118.697 40.803 118.169 41.7632 117.208L45.3551 113.614C46.315 112.653 46.8424 111.377 46.8424 110.021C46.8424 108.664 46.3128 107.389 45.3529 106.428C44.3911 105.467 43.1161 104.937 41.7594 104.937ZM65.1152 87.0895C63.1627 87.0895 61.2106 86.3449 59.7248 84.858C56.7544 81.8857 56.7544 77.0506 59.7248 74.0783L71.3986 62.3924C82.3479 51.4363 106.997 47.8062 108.04 47.6561C108.728 47.5455 109.378 48.0382 109.478 48.7345C109.526 49.0683 109.439 49.4073 109.237 49.6771C109.034 49.9468 108.734 50.1251 108.4 50.1728C108.152 50.2075 83.5432 53.8338 73.1941 64.1894L61.5207 75.8752C59.5412 77.8559 59.5412 81.0803 61.5207 83.061C63.5014 85.0443 66.7235 85.0443 68.7046 83.0636C69.3645 82.4032 84.9609 66.9868 92.9522 74.9745C93.0701 75.0925 93.1637 75.2325 93.2275 75.3867C93.2913 75.5409 93.3242 75.7061 93.3242 75.873C93.3242 76.0398 93.2913 76.2051 93.2275 76.3592C93.1637 76.5134 93.0701 76.6535 92.9522 76.7714C92.8343 76.8895 92.6944 76.9832 92.5403 77.0471C92.3862 77.111 92.2211 77.1439 92.0543 77.1439C91.8875 77.1439 91.7224 77.111 91.5683 77.0471C91.4142 76.9832 91.2742 76.8895 91.1564 76.7714C86.0041 71.6235 74.499 80.8619 70.5004 84.8605C69.0159 86.3462 67.0651 87.0895 65.1152 87.0895ZM144.142 78.9432C143.975 78.9435 143.81 78.9107 143.656 78.8468C143.502 78.7829 143.362 78.6892 143.244 78.5709L109.118 44.4218C109 44.3038 108.907 44.1638 108.843 44.0096C108.779 43.8554 108.746 43.6902 108.746 43.5233C108.746 43.3565 108.779 43.1912 108.843 43.0371C108.907 42.8829 109 42.7428 109.118 42.6249C109.236 42.5068 109.376 42.4131 109.53 42.3492C109.684 42.2853 109.849 42.2524 110.016 42.2524C110.183 42.2524 110.348 42.2853 110.502 42.3492C110.656 42.4131 110.796 42.5068 110.914 42.6249L145.04 76.774C145.217 76.9516 145.339 77.1781 145.388 77.4246C145.437 77.6711 145.412 77.9267 145.315 78.1589C145.219 78.3912 145.056 78.5896 144.848 78.7293C144.639 78.8689 144.393 78.9433 144.142 78.9432ZM156.716 73.5495C156.549 73.5498 156.384 73.5171 156.23 73.4532C156.075 73.3893 155.936 73.2955 155.818 73.1773L114.506 31.8423C114.388 31.7243 114.295 31.5842 114.231 31.4301C114.167 31.2759 114.134 31.1107 114.134 30.9438C114.134 30.7769 114.167 30.6117 114.231 30.4576C114.295 30.3034 114.388 30.1633 114.506 30.0453C114.624 29.9273 114.764 29.8336 114.918 29.7697C115.072 29.7057 115.237 29.6729 115.404 29.6729C115.571 29.6729 115.736 29.7057 115.89 29.7697C116.044 29.8336 116.184 29.9273 116.302 30.0453L157.614 71.3803C157.791 71.558 157.912 71.7844 157.961 72.0309C158.011 72.2775 157.985 72.533 157.889 72.7652C157.793 72.9975 157.63 73.196 157.421 73.3356C157.213 73.4752 156.967 73.5497 156.716 73.5495Z" class="colorfff svgShape"></path><path fill="#000000" d="M110.015 44.7949C109.764 44.795 109.518 44.7205 109.309 44.5809C109.1 44.4413 108.937 44.2428 108.841 44.0106C108.745 43.7783 108.72 43.5228 108.769 43.2762C108.818 43.0297 108.939 42.8033 109.117 42.6256L114.505 37.2342C114.623 37.1162 114.763 37.0226 114.917 36.9587C115.071 36.8949 115.236 36.862 115.403 36.862C115.569 36.862 115.735 36.8949 115.889 36.9587C116.043 37.0226 116.183 37.1162 116.301 37.2342C116.419 37.3522 116.512 37.4922 116.576 37.6464C116.64 37.8006 116.673 37.9658 116.673 38.1326C116.673 38.2995 116.64 38.4647 116.576 38.6189C116.512 38.7731 116.419 38.9131 116.301 39.0311L110.913 44.4226C110.795 44.5408 110.655 44.6346 110.501 44.6985C110.347 44.7624 110.182 44.7951 110.015 44.7949ZM144.141 78.944C143.974 78.9443 143.808 78.9115 143.654 78.8476C143.5 78.7837 143.36 78.6899 143.243 78.5717C143.125 78.4538 143.031 78.3137 142.967 78.1595C142.903 78.0054 142.87 77.8401 142.87 77.6732C142.87 77.5063 142.903 77.3411 142.967 77.1869C143.031 77.0327 143.125 76.8927 143.243 76.7748L148.63 71.3833C148.748 71.2653 148.888 71.1717 149.042 71.1079C149.196 71.044 149.362 71.0112 149.528 71.0112C149.695 71.0112 149.86 71.0441 150.014 71.108C150.168 71.1718 150.308 71.2655 150.426 71.3835C150.544 71.5015 150.638 71.6416 150.702 71.7957C150.765 71.9499 150.798 72.1152 150.798 72.282C150.798 72.4489 150.765 72.6142 150.702 72.7683C150.638 72.9225 150.544 73.0626 150.426 73.1806L145.038 78.5717C144.921 78.6899 144.781 78.7836 144.627 78.8475C144.473 78.9114 144.307 78.9442 144.141 78.944ZM115.403 32.2153C115.151 32.2155 114.906 32.141 114.697 32.0014C114.488 31.8618 114.325 31.6633 114.229 31.431C114.133 31.1988 114.108 30.9433 114.157 30.6967C114.206 30.4502 114.327 30.2238 114.505 30.0461L144.161 0.372158C144.278 0.254169 144.418 0.160576 144.572 0.0967207C144.727 0.0328657 144.892 2.15331e-09 145.058 0C145.225 -2.15331e-09 145.39 0.0328657 145.544 0.0967207C145.698 0.160576 145.838 0.254169 145.956 0.372158C146.074 0.490147 146.168 0.630219 146.232 0.784379C146.295 0.938538 146.328 1.10377 146.328 1.27063C146.328 1.43749 146.295 1.60272 146.232 1.75687C146.168 1.91103 146.074 2.05111 145.956 2.1691L116.301 31.843C116.183 31.9613 116.043 32.0551 115.889 32.119C115.735 32.1829 115.57 32.2156 115.403 32.2153ZM156.714 73.5503C156.548 73.5506 156.382 73.5178 156.228 73.4539C156.074 73.39 155.934 73.2963 155.816 73.178C155.698 73.0601 155.605 72.92 155.541 72.7659C155.477 72.6117 155.444 72.4464 155.444 72.2795C155.444 72.1127 155.477 71.9474 155.541 71.7932C155.605 71.6391 155.698 71.499 155.816 71.3811L160.507 66.6923C160.625 66.5743 160.765 66.4807 160.919 66.4168C161.074 66.353 161.239 66.3201 161.405 66.3201C161.572 66.3201 161.737 66.353 161.891 66.4168C162.045 66.4807 162.185 66.5743 162.303 66.6923C162.421 66.8102 162.515 66.9503 162.579 67.1045C162.642 67.2586 162.675 67.4239 162.675 67.5907C162.675 67.7576 162.642 67.9228 162.579 68.077C162.515 68.2311 162.421 68.3712 162.303 68.4892L157.612 73.178C157.495 73.2962 157.355 73.39 157.201 73.4539C157.046 73.5178 156.881 73.5505 156.714 73.5503ZM18.4121 82.5331C18.1609 82.5333 17.9153 82.4589 17.7063 82.3193C17.4973 82.1797 17.3345 81.9812 17.2383 81.7489C17.1421 81.5167 17.117 81.2611 17.166 81.0145C17.2151 80.768 17.3362 80.5415 17.5139 80.3639L51.6417 46.2195C52.1377 45.7229 52.9416 45.7229 53.4375 46.2195C53.9335 46.7161 53.9338 47.5202 53.4375 48.0164L19.3101 82.1608C19.1922 82.2789 19.0523 82.3726 18.8982 82.4365C18.7441 82.5004 18.5789 82.5332 18.4121 82.5331ZM5.84048 77.1445C5.67368 77.1447 5.50848 77.1119 5.35439 77.048C5.20029 76.9842 5.06034 76.8904 4.94258 76.7722C4.82456 76.6543 4.73094 76.5142 4.66707 76.3601C4.60319 76.2059 4.57031 76.0406 4.57031 75.8737C4.57031 75.7069 4.60319 75.5416 4.66707 75.3874C4.73094 75.2333 4.82456 75.0932 4.94258 74.9753L46.2543 33.6403C46.3721 33.5222 46.5121 33.4285 46.6662 33.3646C46.8202 33.3007 46.9854 33.2678 47.1522 33.2678C47.319 33.2678 47.4841 33.3007 47.6382 33.3646C47.7923 33.4285 47.9322 33.5222 48.0501 33.6403C48.1681 33.7582 48.2617 33.8983 48.3256 34.0525C48.3895 34.2066 48.4224 34.3719 48.4224 34.5388C48.4224 34.7057 48.3895 34.8709 48.3256 35.0251C48.2617 35.1792 48.1681 35.3193 48.0501 35.4372L6.73839 76.7722C6.62062 76.8904 6.48066 76.9841 6.32657 77.048C6.17248 77.1119 6.00728 77.1447 5.84048 77.1445Z" class="colorfff svgShape"></path><path fill="#000000" d="M18.4153 82.5317C18.2485 82.5319 18.0832 82.499 17.9291 82.4351C17.775 82.3713 17.6349 82.2776 17.5171 82.1594L12.1293 76.7708C11.633 76.2742 11.633 75.4702 12.1293 74.9739C12.6256 74.4776 13.4291 74.4773 13.9251 74.9739L19.3132 80.3625C19.4909 80.5401 19.612 80.7666 19.6611 81.0131C19.7101 81.2596 19.685 81.5152 19.5889 81.7474C19.4928 81.9797 19.3299 82.1781 19.121 82.3178C18.9121 82.4574 18.6665 82.5318 18.4153 82.5317ZM52.5431 48.3874C52.3763 48.3876 52.2111 48.3548 52.057 48.2909C51.9029 48.227 51.7629 48.1333 51.6452 48.0151L46.2571 42.6239C46.1391 42.506 46.0455 42.3659 45.9816 42.2118C45.9177 42.0576 45.8848 41.8923 45.8848 41.7255C45.8848 41.5586 45.9177 41.3933 45.9816 41.2391C46.0455 41.085 46.1391 40.9449 46.2571 40.827C46.375 40.7089 46.5149 40.6152 46.669 40.5513C46.8231 40.4874 46.9882 40.4545 47.155 40.4545C47.3218 40.4545 47.4869 40.4874 47.641 40.5513C47.7951 40.6152 47.9351 40.7089 48.0529 40.827L53.441 46.2181C53.559 46.3361 53.6526 46.4761 53.7165 46.6303C53.7804 46.7844 53.8133 46.9497 53.8133 47.1166C53.8133 47.2835 53.7804 47.4487 53.7165 47.6029C53.6526 47.7571 53.559 47.8971 53.441 48.0151C53.3232 48.1333 53.1833 48.227 53.0292 48.2909C52.8751 48.3548 52.7099 48.3876 52.5431 48.3874ZM5.84363 77.1431C5.67683 77.1433 5.51163 77.1106 5.35753 77.0467C5.20344 76.9828 5.06348 76.889 4.94572 76.7708L0.465715 72.288C0.230001 72.0492 0.0982768 71.7268 0.099301 71.3912C0.100325 71.0555 0.234014 70.7339 0.471181 70.4966C0.708349 70.2592 1.02973 70.1254 1.36516 70.1243C1.7006 70.1232 2.02284 70.255 2.26153 70.4908L6.74154 74.9736C6.85955 75.0915 6.95317 75.2316 7.01705 75.3857C7.08092 75.5399 7.1138 75.7051 7.1138 75.872C7.1138 76.0389 7.08092 76.2042 7.01705 76.3584C6.95317 76.5125 6.85955 76.6526 6.74154 76.7705C6.62382 76.8888 6.48389 76.9826 6.32978 77.0466C6.17568 77.1105 6.01046 77.1433 5.84363 77.1431ZM47.155 35.8082C46.9882 35.8083 46.8231 35.7754 46.669 35.7116C46.5149 35.6477 46.3749 35.554 46.2571 35.4359L13.0199 2.17757C12.5236 1.68097 12.5236 0.876924 13.0199 0.380636C13.5162 -0.115652 14.3197 -0.11597 14.8157 0.380636L48.0529 33.6386C48.1709 33.7565 48.2646 33.8966 48.3284 34.0508C48.3923 34.2049 48.4252 34.3702 48.4252 34.5371C48.4252 34.704 48.3923 34.8692 48.3284 35.0234C48.2646 35.1776 48.1709 35.3176 48.0529 35.4355C47.9352 35.5538 47.7953 35.6476 47.6412 35.7116C47.4871 35.7755 47.3218 35.8083 47.155 35.8082ZM3.80697 65.9908C3.30602 65.9923 2.80976 65.8943 2.34689 65.7026C1.88403 65.5109 1.46375 65.2292 1.11039 64.8739C-0.371824 63.3835 -0.369282 60.9659 1.11293 59.4828C2.54685 58.0432 5.06582 58.0419 6.50197 59.484C6.85649 59.8369 7.13748 60.2566 7.32865 60.7189C7.51981 61.1812 7.61736 61.6769 7.61562 62.1772C7.6175 62.6782 7.51991 63.1746 7.32851 63.6375C7.13712 64.1004 6.85574 64.5207 6.5007 64.8739C6.14804 65.2294 5.72829 65.5111 5.26586 65.7029C4.80343 65.8946 4.30753 65.9925 3.80697 65.9908ZM3.80697 60.9074C3.467 60.9074 3.14832 61.039 2.91034 61.2784C2.67206 61.5174 2.53814 61.841 2.5379 62.1786C2.53766 62.5161 2.67113 62.8399 2.90907 63.0792C3.3828 63.552 4.22511 63.5558 4.70361 63.0779C4.82205 62.9601 4.91593 62.8198 4.97979 62.6654C5.04366 62.5109 5.07625 62.3453 5.07567 62.1782C5.07567 61.838 4.94413 61.5191 4.70488 61.2797C4.58741 61.1611 4.44751 61.0671 4.29335 61.0032C4.13918 60.9393 3.97385 60.9067 3.80697 60.9074Z" class="colorfff svgShape"></path></svg></g></svg>