<svg width="629" height="444" viewBox="0 0 629 444" fill="none" xmlns="http://www.w3.org/2000/svg">
<path d="M625.504 160.754C625.504 170.438 617.496 178.282 607.592 178.282H21.4274C11.5279 178.282 3.49243 170.438 3.49243 160.754V20.9783C3.49243 11.2993 11.5279 3.42792 21.4274 3.42792H607.587C617.496 3.42792 625.499 11.2993 625.499 20.9783L625.504 160.754Z" fill="black"/>
<path d="M605.704 3.63998C616.49 3.63998 625.267 12.1974 625.267 22.714V158.997C625.267 169.514 616.49 178.071 605.704 178.071H23.2963C12.5101 178.071 3.73323 169.514 3.73323 158.997V22.714C3.73323 12.1974 12.5101 3.63998 23.2963 3.63998H605.704ZM605.704 8.82689e-05H23.2963C10.4892 8.82689e-05 0 10.227 0 22.714V158.997C0 171.484 10.4892 181.711 23.2963 181.711H605.704C618.511 181.711 629 171.484 629 158.997V22.714C629 10.227 618.511 8.82689e-05 605.704 8.82689e-05Z" fill="#A6A6A6"/>
<path d="M140.362 89.8739C140.227 75.2326 152.658 68.1095 153.226 67.7779C146.186 57.7701 135.274 56.4027 131.439 56.2937C122.274 55.3534 113.385 61.6406 108.716 61.6406C103.954 61.6406 96.7651 56.3846 89.0167 56.539C79.0459 56.6889 69.7181 62.3174 64.6022 71.0577C54.0443 88.8791 61.9185 115.068 72.0337 129.473C77.0937 136.528 83.0063 144.405 90.7453 144.128C98.3166 143.824 101.145 139.422 110.282 139.422C119.335 139.422 121.99 144.128 129.883 143.951C138.009 143.824 143.125 136.864 148.008 129.746C153.855 121.66 156.203 113.696 156.296 113.287C156.105 113.224 140.516 107.423 140.362 89.8739Z" fill="white"/>
<path d="M125.452 46.8175C129.524 41.8522 132.311 35.0971 131.537 28.2421C125.643 28.4965 118.272 32.217 114.028 37.0732C110.272 41.3525 106.918 48.3666 107.784 54.9627C114.405 55.4442 121.203 51.7055 125.452 46.8175Z" fill="white"/>
<path d="M249.947 143.116H239.366L233.57 125.358H213.423L207.902 143.116H197.601L217.561 82.6608H229.889L249.947 143.116ZM231.823 117.908L226.581 102.122C226.027 100.509 224.988 96.7116 223.455 90.7333H223.268C222.658 93.3045 221.675 97.1023 220.324 102.122L215.175 117.908H231.823V117.908Z" fill="white"/>
<path d="M301.294 120.785C301.294 128.198 299.239 134.059 295.13 138.361C291.449 142.19 286.878 144.103 281.422 144.103C275.533 144.103 271.302 142.04 268.726 137.915H268.539V160.879H258.606V113.875C258.606 109.214 258.48 104.431 258.238 99.5244H266.974L267.528 106.434H267.715C271.027 101.228 276.055 98.6295 282.801 98.6295C288.076 98.6295 292.479 100.66 296.001 104.726C299.533 108.796 301.294 114.148 301.294 120.785ZM291.174 121.139C291.174 116.896 290.196 113.398 288.229 110.645C286.082 107.774 283.197 106.339 279.582 106.339C277.131 106.339 274.904 107.138 272.914 108.714C270.92 110.304 269.616 112.38 269.005 114.952C268.698 116.151 268.544 117.132 268.544 117.904V125.173C268.544 128.344 269.541 131.019 271.535 133.205C273.529 135.39 276.12 136.48 279.307 136.48C283.048 136.48 285.96 135.072 288.043 132.264C290.13 129.452 291.174 125.745 291.174 121.139Z" fill="white"/>
<path d="M352.696 120.785C352.696 128.198 350.641 134.059 346.527 138.361C342.851 142.19 338.28 144.103 332.824 144.103C326.935 144.103 322.704 142.04 320.132 137.915H319.946V160.879H310.012V113.875C310.012 109.214 309.886 104.431 309.644 99.5244H318.38L318.935 106.434H319.121C322.429 101.228 327.456 98.6295 334.208 98.6295C339.477 98.6295 343.88 100.66 347.412 104.726C350.93 108.796 352.696 114.148 352.696 120.785ZM342.576 121.139C342.576 116.896 341.593 113.398 339.626 110.645C337.478 107.774 334.604 106.339 330.983 106.339C328.528 106.339 326.306 107.138 324.311 108.714C322.317 110.304 321.017 112.38 320.407 114.952C320.104 116.151 319.946 117.132 319.946 117.904V125.173C319.946 128.344 320.943 131.019 322.928 133.205C324.922 135.385 327.512 136.48 330.709 136.48C334.45 136.48 337.362 135.072 339.445 132.264C341.532 129.452 342.576 125.745 342.576 121.139Z" fill="white"/>
<path d="M410.189 126.163C410.189 131.305 408.358 135.489 404.682 138.719C400.642 142.249 395.018 144.011 387.792 144.011C381.12 144.011 375.771 142.757 371.722 140.245L374.024 132.173C378.385 134.744 383.17 136.034 388.384 136.034C392.125 136.034 395.037 135.207 397.129 133.563C399.212 131.918 400.251 129.71 400.251 126.958C400.251 124.504 399.393 122.437 397.674 120.761C395.964 119.085 393.108 117.527 389.12 116.087C378.264 112.139 372.84 106.356 372.84 98.7515C372.84 93.7817 374.741 89.7068 378.548 86.5359C382.341 83.3605 387.401 81.7751 393.728 81.7751C399.37 81.7751 404.057 82.7336 407.799 84.6461L405.315 92.5415C401.821 90.688 397.87 89.7613 393.448 89.7613C389.954 89.7613 387.224 90.6017 385.267 92.2734C383.613 93.768 382.783 95.5897 382.783 97.7475C382.783 100.137 383.729 102.113 385.63 103.667C387.284 105.102 390.289 106.656 394.65 108.332C399.985 110.426 403.904 112.875 406.424 115.682C408.936 118.481 410.189 121.983 410.189 126.163Z" fill="white"/>
<path d="M443.041 106.792H432.091V127.957C432.091 133.34 434.02 136.029 437.888 136.029C439.663 136.029 441.135 135.879 442.3 135.58L442.575 142.934C440.618 143.648 438.041 144.006 434.85 144.006C430.927 144.006 427.861 142.839 425.648 140.508C423.444 138.173 422.335 134.258 422.335 128.756V106.783H415.812V99.5144H422.335V91.5328L432.091 88.6617V99.5144H443.041V106.792Z" fill="white"/>
<path d="M492.445 120.961C492.445 127.661 490.479 133.163 486.556 137.465C482.442 141.894 476.981 144.102 470.174 144.102C463.614 144.102 458.391 141.98 454.496 137.737C450.6 133.494 448.653 128.138 448.653 121.683C448.653 114.928 450.656 109.395 454.677 105.093C458.689 100.786 464.103 98.6331 470.91 98.6331C477.47 98.6331 482.749 100.755 486.733 105.002C490.544 109.122 492.445 114.442 492.445 120.961ZM482.139 121.274C482.139 117.254 481.258 113.806 479.474 110.93C477.391 107.451 474.414 105.715 470.556 105.715C466.563 105.715 463.53 107.455 461.447 110.93C459.663 113.811 458.782 117.313 458.782 121.456C458.782 125.476 459.663 128.924 461.447 131.795C463.595 135.275 466.596 137.01 470.467 137.01C474.26 137.01 477.237 135.239 479.385 131.705C481.216 128.774 482.139 125.29 482.139 121.274Z" fill="white"/>
<path d="M524.72 108.042C523.736 107.865 522.688 107.774 521.589 107.774C518.094 107.774 515.392 109.06 513.491 111.635C511.837 113.907 511.007 116.778 511.007 120.244V143.117H501.078L501.172 113.253C501.172 108.228 501.046 103.654 500.799 99.5289H509.451L509.815 107.869H510.089C511.138 105.003 512.792 102.695 515.056 100.964C517.269 99.4063 519.66 98.6295 522.236 98.6295C523.154 98.6295 523.983 98.6931 524.72 98.8066V108.042Z" fill="white"/>
<path d="M569.174 119.258C569.174 120.994 569.057 122.457 568.81 123.651H539.01C539.126 127.958 540.566 131.251 543.333 133.523C545.845 135.553 549.092 136.571 553.081 136.571C557.493 136.571 561.518 135.885 565.139 134.509L566.695 141.232C562.464 143.031 557.47 143.926 551.706 143.926C544.773 143.926 539.331 141.936 535.371 137.961C531.42 133.986 529.439 128.648 529.439 121.952C529.439 115.379 531.28 109.905 534.965 105.539C538.823 100.878 544.037 98.5479 550.597 98.5479C557.041 98.5479 561.919 100.878 565.232 105.539C567.855 109.242 569.174 113.821 569.174 119.258ZM559.701 116.746C559.767 113.875 559.119 111.395 557.772 109.301C556.053 106.607 553.411 105.262 549.856 105.262C546.609 105.262 543.967 106.575 541.95 109.21C540.296 111.304 539.312 113.816 539.01 116.742H559.701V116.746Z" fill="white"/>
<path d="M228.544 45.4687C228.544 50.8156 226.9 54.8405 223.615 57.5434C220.573 60.0374 216.249 61.2867 210.648 61.2867C207.871 61.2867 205.495 61.1686 203.506 60.9323V31.7177C206.101 31.3089 208.896 31.0999 211.916 31.0999C217.25 31.0999 221.271 32.2311 223.983 34.4934C227.021 37.051 228.544 40.7079 228.544 45.4687ZM223.396 45.6005C223.396 42.1343 222.455 39.4768 220.573 37.6233C218.69 35.7744 215.941 34.8477 212.321 34.8477C210.783 34.8477 209.474 34.9476 208.389 35.1566V57.3663C208.99 57.4571 210.089 57.498 211.687 57.498C215.424 57.498 218.308 56.485 220.34 54.4589C222.371 52.4328 223.396 49.48 223.396 45.6005Z" fill="white"/>
<path d="M255.839 50.1383C255.839 53.4319 254.874 56.1303 252.946 58.2472C250.923 60.4232 248.244 61.5089 244.899 61.5089C241.675 61.5089 239.108 60.4686 237.193 58.3789C235.282 56.2938 234.327 53.6635 234.327 50.4927C234.327 47.1765 235.31 44.4553 237.286 42.3429C239.261 40.2306 241.917 39.1721 245.262 39.1721C248.487 39.1721 251.077 40.2124 253.039 42.2975C254.902 44.3236 255.839 46.9402 255.839 50.1383ZM250.774 50.2928C250.774 48.3167 250.336 46.6222 249.465 45.2094C248.44 43.5014 246.982 42.6473 245.085 42.6473C243.124 42.6473 241.633 43.5014 240.608 45.2094C239.732 46.6222 239.299 48.344 239.299 50.3791C239.299 52.3552 239.737 54.0497 240.608 55.4625C241.665 57.1706 243.138 58.0246 245.039 58.0246C246.902 58.0246 248.366 57.1569 249.418 55.4171C250.322 53.977 250.774 52.2689 250.774 50.2928Z" fill="white"/>
<path d="M292.44 39.609L285.568 61.0237H281.095L278.248 51.7246C277.526 49.4033 276.939 47.0955 276.482 44.806H276.394C275.97 47.1591 275.383 49.4623 274.628 51.7246L271.604 61.0237H267.08L260.618 39.609H265.636L268.119 49.7894C268.72 52.1971 269.214 54.4912 269.61 56.6626H269.699C270.062 54.8728 270.663 52.5923 271.511 49.8348L274.628 39.6136H278.607L281.594 49.6168C282.316 52.0563 282.903 54.4049 283.355 56.6672H283.49C283.821 54.4639 284.319 52.1153 284.981 49.6168L287.646 39.6136H292.44V39.609Z" fill="white"/>
<path d="M317.761 61.0231H312.878V48.7576C312.878 44.978 311.406 43.0882 308.452 43.0882C307.003 43.0882 305.833 43.6061 304.925 44.6464C304.025 45.6867 303.569 46.9132 303.569 48.3169V61.0185H298.686V45.7276C298.686 43.8468 298.625 41.8071 298.509 39.5993H302.8L303.028 42.9474H303.163C303.732 41.9071 304.58 41.0485 305.693 40.3625C307.017 39.563 308.498 39.1587 310.12 39.1587C312.17 39.1587 313.875 39.8038 315.231 41.0985C316.917 42.6839 317.761 45.0507 317.761 48.1943V61.0231V61.0231Z" fill="white"/>
<path d="M331.236 61.0232H326.357V29.7825H331.236V61.0232Z" fill="white"/>
<path d="M359.963 50.1383C359.963 53.4319 358.998 56.1303 357.069 58.2472C355.047 60.4232 352.363 61.5089 349.023 61.5089C345.794 61.5089 343.226 60.4686 341.316 58.3789C339.406 56.2938 338.451 53.6635 338.451 50.4927C338.451 47.1765 339.434 44.4553 341.409 42.3429C343.385 40.2306 346.041 39.1721 349.381 39.1721C352.61 39.1721 355.196 40.2124 357.162 42.2975C359.026 44.3236 359.963 46.9402 359.963 50.1383ZM354.893 50.2928C354.893 48.3167 354.455 46.6222 353.584 45.2094C352.564 43.5014 351.101 42.6473 349.209 42.6473C347.243 42.6473 345.752 43.5014 344.731 45.2094C343.855 46.6222 343.422 48.344 343.422 50.3791C343.422 52.3552 343.86 54.0497 344.731 55.4625C345.789 57.1706 347.261 58.0246 349.162 58.0246C351.026 58.0246 352.484 57.1569 353.537 55.4171C354.446 53.977 354.893 52.2689 354.893 50.2928Z" fill="white"/>
<path d="M383.591 61.0228H379.207L378.843 58.5561H378.708C377.208 60.5231 375.069 61.5089 372.292 61.5089C370.219 61.5089 368.542 60.8593 367.279 59.5692C366.133 58.3971 365.56 56.9389 365.56 55.2081C365.56 52.5914 366.678 50.5972 368.928 49.2162C371.174 47.8352 374.333 47.1583 378.4 47.1901V46.7903C378.4 43.9693 376.882 42.561 373.839 42.561C371.673 42.561 369.762 43.0925 368.113 44.1464L367.12 41.021C369.161 39.7899 371.682 39.1721 374.654 39.1721C380.395 39.1721 383.274 42.1249 383.274 48.0305V55.9168C383.274 58.0564 383.381 59.7599 383.591 61.0228ZM378.522 53.6635V50.3609C373.136 50.2701 370.442 51.7102 370.442 54.6766C370.442 55.7941 370.75 56.63 371.379 57.1887C372.008 57.7475 372.809 58.0246 373.765 58.0246C374.836 58.0246 375.838 57.693 376.751 57.0343C377.669 56.371 378.233 55.5306 378.442 54.4994C378.494 54.2677 378.522 53.9861 378.522 53.6635Z" fill="white"/>
<path d="M411.343 61.0232H407.01L406.782 57.5843H406.647C405.263 60.201 402.905 61.5093 399.592 61.5093C396.946 61.5093 394.742 60.4963 392.995 58.4702C391.248 56.4441 390.376 53.8138 390.376 50.5839C390.376 47.1178 391.322 44.3103 393.223 42.1661C395.064 40.1673 397.319 39.1679 400.002 39.1679C402.952 39.1679 405.016 40.1355 406.19 42.0753H406.283V29.7825H411.171V55.2539C411.171 57.339 411.227 59.2606 411.343 61.0232ZM406.283 51.9922V48.4216C406.283 47.8037 406.237 47.304 406.148 46.9224C405.873 45.7777 405.281 44.8146 404.382 44.0378C403.474 43.261 402.379 42.8703 401.116 42.8703C399.294 42.8703 397.869 43.5744 396.82 44.9872C395.781 46.4 395.255 48.2035 395.255 50.4067C395.255 52.5237 395.753 54.2408 396.755 55.5628C397.813 56.9711 399.238 57.6752 401.023 57.6752C402.626 57.6752 403.907 57.0892 404.881 55.9126C405.822 54.8269 406.283 53.5185 406.283 51.9922Z" fill="white"/>
<path d="M453.109 50.1383C453.109 53.4319 452.144 56.1303 450.216 58.2472C448.193 60.4232 445.519 61.5089 442.169 61.5089C438.949 61.5089 436.382 60.4686 434.463 58.3789C432.552 56.2938 431.597 53.6635 431.597 50.4927C431.597 47.1765 432.58 44.4553 434.556 42.3429C436.531 40.2306 439.187 39.1721 442.537 39.1721C445.757 39.1721 448.352 40.2124 450.309 42.2975C452.172 44.3236 453.109 46.9402 453.109 50.1383ZM448.049 50.2928C448.049 48.3167 447.611 46.6222 446.74 45.2094C445.71 43.5014 444.256 42.6473 442.355 42.6473C440.399 42.6473 438.908 43.5014 437.878 45.2094C437.002 46.6222 436.569 48.344 436.569 50.3791C436.569 52.3552 437.007 54.0497 437.878 55.4625C438.935 57.1706 440.408 58.0246 442.309 58.0246C444.173 58.0246 445.64 57.1569 446.693 55.4171C447.592 53.977 448.049 52.2689 448.049 50.2928Z" fill="white"/>
<path d="M479.375 61.0231H474.497V48.7576C474.497 44.978 473.024 43.0882 470.066 43.0882C468.617 43.0882 467.447 43.6061 466.543 44.6464C465.639 45.6867 465.187 46.9132 465.187 48.3169V61.0185H460.3V45.7276C460.3 43.8468 460.244 41.8071 460.127 39.5993H464.414L464.642 42.9474H464.777C465.35 41.9071 466.198 41.0485 467.307 40.3625C468.635 39.563 470.112 39.1587 471.738 39.1587C473.784 39.1587 475.489 39.8038 476.845 41.0985C478.536 42.6839 479.375 45.0507 479.375 48.1943V61.0231V61.0231Z" fill="white"/>
<path d="M512.219 43.1744H506.843V53.5773C506.843 56.2212 507.798 57.5432 509.689 57.5432C510.565 57.5432 511.292 57.4705 511.865 57.3206L511.991 60.9321C511.027 61.2864 509.759 61.4636 508.199 61.4636C506.27 61.4636 504.769 60.8912 503.684 59.7464C502.593 58.6016 502.053 56.6755 502.053 53.9725V43.1744H498.843V39.6083H502.053V35.6833L506.838 34.2751V39.6037H512.215V43.1744H512.219Z" fill="white"/>
<path d="M538.093 61.0232H533.206V48.8486C533.206 45.0099 531.733 43.0883 528.784 43.0883C526.52 43.0883 524.973 44.2013 524.125 46.4273C523.98 46.8952 523.896 47.4676 523.896 48.1399V61.0187H519.018V29.7825H523.896V42.6886H523.99C525.527 40.3399 527.731 39.1679 530.587 39.1679C532.609 39.1679 534.282 39.813 535.61 41.1077C537.264 42.7204 538.093 45.1189 538.093 48.2898V61.0232V61.0232Z" fill="white"/>
<path d="M564.752 49.3024C564.752 50.1564 564.686 50.8742 564.57 51.4602H549.926C549.991 53.5771 550.69 55.1898 552.046 56.3073C553.285 57.3068 554.883 57.8065 556.84 57.8065C559.007 57.8065 560.982 57.4703 562.762 56.7934L563.526 60.1006C561.443 60.9819 558.993 61.4225 556.155 61.4225C552.754 61.4225 550.075 60.4458 548.137 58.4924C546.189 56.539 545.225 53.9178 545.225 50.6289C545.225 47.399 546.124 44.7096 547.936 42.5654C549.828 40.2759 552.386 39.1311 555.615 39.1311C558.774 39.1311 561.173 40.2759 562.795 42.5654C564.104 44.3826 564.752 46.6312 564.752 49.3024ZM560.092 48.0713C560.13 46.6585 559.808 45.441 559.146 44.4144C558.298 43.0924 557.008 42.4292 555.261 42.4292C553.667 42.4292 552.367 43.0742 551.375 44.3689C550.564 45.4001 550.084 46.6312 549.926 48.0713H560.092Z" fill="white"/>
<path d="M604.871 443.794H23.2643C10.4747 443.794 0 433.568 0 421.081V284.797C0 272.31 10.4747 262.083 23.2643 262.083H604.871C617.661 262.083 628.135 272.31 628.135 284.797V421.081C628.135 433.568 617.661 443.794 604.871 443.794Z" fill="black"/>
<path d="M604.871 265.723C615.642 265.723 624.407 274.281 624.407 284.797V421.081C624.407 431.597 615.642 440.155 604.871 440.155H23.2643C12.4929 440.155 3.7281 431.597 3.7281 421.081V284.797C3.7281 274.281 12.4929 265.723 23.2643 265.723H604.871ZM604.871 262.083H23.2643C10.4747 262.083 0 272.31 0 284.797V421.081C0 433.568 10.4747 443.794 23.2643 443.794H604.871C617.661 443.794 628.135 433.568 628.135 421.081V284.797C628.135 272.31 617.661 262.083 604.871 262.083Z" fill="#A6A6A6"/>
<path d="M220.634 308.618C220.634 312.411 219.471 315.449 217.18 317.715C214.545 320.401 211.113 321.752 206.908 321.752C202.89 321.752 199.458 320.378 196.643 317.669C193.822 314.921 192.415 311.548 192.415 307.511C192.415 303.473 193.822 300.1 196.643 297.375C199.458 294.643 202.89 293.269 206.908 293.269C208.909 293.269 210.817 293.672 212.637 294.422C214.452 295.177 215.929 296.199 216.999 297.46L214.568 299.856C212.701 297.704 210.16 296.642 206.908 296.642C203.977 296.642 201.436 297.641 199.278 299.657C197.143 301.679 196.073 304.297 196.073 307.511C196.073 310.725 197.143 313.365 199.278 315.387C201.436 317.38 203.977 318.402 206.908 318.402C210.02 318.402 212.637 317.38 214.702 315.364C216.063 314.029 216.836 312.19 217.04 309.839H206.908V306.557H220.425C220.588 307.266 220.634 307.954 220.634 308.618V308.618Z" fill="white" stroke="white" stroke-width="0.16" stroke-miterlimit="10"/>
<path d="M242.066 297.238H229.369V305.869H240.815V309.151H229.369V317.783H242.066V321.127H225.775V293.893H242.066V297.238Z" fill="white" stroke="white" stroke-width="0.16" stroke-miterlimit="10"/>
<path d="M257.196 321.127H253.602V297.238H245.814V293.893H264.99V297.238H257.196V321.127V321.127Z" fill="white" stroke="white" stroke-width="0.16" stroke-miterlimit="10"/>
<path d="M278.875 321.127V293.893H282.463V321.127H278.875Z" fill="white" stroke="white" stroke-width="0.16" stroke-miterlimit="10"/>
<path d="M298.363 321.127H294.798V297.238H286.981V293.893H306.18V297.238H298.363V321.127Z" fill="white" stroke="white" stroke-width="0.16" stroke-miterlimit="10"/>
<path d="M342.494 317.624C339.743 320.378 336.335 321.752 332.27 321.752C328.181 321.752 324.773 320.378 322.022 317.624C319.276 314.876 317.91 311.503 317.91 307.511C317.91 303.519 319.276 300.146 322.022 297.397C324.773 294.643 328.181 293.269 332.27 293.269C336.312 293.269 339.72 294.643 342.471 297.42C345.239 300.191 346.606 303.541 346.606 307.511C346.606 311.503 345.239 314.876 342.494 317.624ZM324.68 315.341C326.75 317.38 329.268 318.402 332.27 318.402C335.247 318.402 337.789 317.38 339.836 315.341C341.901 313.303 342.948 310.685 342.948 307.511C342.948 304.336 341.901 301.719 339.836 299.68C337.789 297.641 335.247 296.619 332.27 296.619C329.268 296.619 326.75 297.641 324.68 299.68C322.615 301.719 321.568 304.336 321.568 307.511C321.568 310.685 322.615 313.303 324.68 315.341V315.341Z" fill="white" stroke="white" stroke-width="0.16" stroke-miterlimit="10"/>
<path d="M351.658 321.127V293.893H356.02L369.583 315.074H369.74L369.583 309.838V293.893H373.172V321.127H369.426L355.223 298.902H355.066L355.223 304.16V321.127H351.658V321.127Z" fill="white" stroke="white" stroke-width="0.16" stroke-miterlimit="10"/>
<path d="M317.036 360.9C306.107 360.9 297.18 369.021 297.18 380.224C297.18 391.337 306.107 399.542 317.036 399.542C327.988 399.542 336.915 391.337 336.915 380.224C336.915 369.021 327.988 360.9 317.036 360.9ZM317.036 391.933C311.039 391.933 305.881 387.101 305.881 380.224C305.881 373.257 311.039 368.509 317.036 368.509C323.032 368.509 328.214 373.257 328.214 380.224C328.214 387.101 323.032 391.933 317.036 391.933V391.933ZM273.712 360.9C262.76 360.9 253.856 369.021 253.856 380.224C253.856 391.337 262.76 399.542 273.712 399.542C284.658 399.542 293.568 391.337 293.568 380.224C293.568 369.021 284.658 360.9 273.712 360.9ZM273.712 391.933C267.71 391.933 262.533 387.101 262.533 380.224C262.533 373.257 267.71 368.509 273.712 368.509C279.708 368.509 284.867 373.257 284.867 380.224C284.867 387.101 279.708 391.933 273.712 391.933ZM222.158 366.823V375.034H242.241C241.654 379.622 240.083 382.995 237.676 385.346C234.744 388.185 230.179 391.337 222.158 391.337C209.799 391.337 200.121 381.598 200.121 369.532C200.121 357.465 209.799 347.726 222.158 347.726C228.841 347.726 233.703 350.276 237.292 353.581L243.218 347.794C238.199 343.115 231.522 339.521 222.158 339.521C205.21 339.521 190.967 352.985 190.967 369.532C190.967 386.079 205.21 399.542 222.158 399.542C231.319 399.542 238.199 396.612 243.608 391.115C249.151 385.704 250.878 378.095 250.878 371.951C250.878 370.043 250.715 368.288 250.424 366.823H222.158ZM432.968 373.189C431.333 368.867 426.291 360.9 416.019 360.9C405.841 360.9 397.367 368.731 397.367 380.224C397.367 391.047 405.754 399.542 416.997 399.542C426.087 399.542 431.333 394.131 433.491 390.979L426.744 386.59C424.494 389.804 421.428 391.933 416.997 391.933C412.594 391.933 409.436 389.963 407.412 386.079L433.881 375.386L432.968 373.189V373.189ZM405.981 379.622C405.754 372.172 411.908 368.356 416.316 368.356C419.771 368.356 422.702 370.043 423.679 372.456L405.981 379.622V379.622ZM384.467 398.367H393.168V341.582H384.467V398.367ZM370.218 365.205H369.927C367.973 362.945 364.245 360.9 359.522 360.9C349.612 360.9 340.55 369.395 340.55 380.287C340.55 391.115 349.612 399.542 359.522 399.542C364.245 399.542 367.973 397.481 369.927 395.153H370.218V397.924C370.218 405.312 366.176 409.281 359.656 409.281C354.34 409.281 351.042 405.533 349.681 402.382L342.115 405.465C344.296 410.587 350.071 416.89 359.656 416.89C369.857 416.89 378.465 411.03 378.465 396.771V362.076H370.218V365.205V365.205ZM360.267 391.933C354.27 391.933 349.251 387.033 349.251 380.287C349.251 373.478 354.27 368.509 360.267 368.509C366.176 368.509 370.834 373.478 370.834 380.287C370.834 387.033 366.176 391.933 360.267 391.933V391.933ZM473.703 341.582H452.893V398.367H461.571V376.851H473.703C483.34 376.851 492.792 370.043 492.792 359.214C492.792 348.391 483.317 341.582 473.703 341.582V341.582ZM473.93 368.952H461.571V349.481H473.93C480.409 349.481 484.108 354.733 484.108 359.214C484.108 363.609 480.409 368.952 473.93 368.952ZM527.572 360.792C521.302 360.792 514.782 363.495 512.101 369.486L519.801 372.638C521.459 369.486 524.507 368.464 527.729 368.464C532.23 368.464 536.796 371.105 536.866 375.767V376.363C535.295 375.477 531.934 374.165 527.798 374.165C519.505 374.165 511.054 378.623 511.054 386.942C511.054 394.551 517.847 399.451 525.484 399.451C531.323 399.451 534.545 396.879 536.569 393.887H536.866V398.276H545.247V376.493C545.247 366.425 537.546 360.792 527.572 360.792ZM526.525 391.91C523.687 391.91 519.732 390.536 519.732 387.101C519.732 382.706 524.664 381.019 528.933 381.019C532.754 381.019 534.545 381.843 536.866 382.927C536.185 388.185 531.55 391.91 526.525 391.91V391.91ZM575.781 362.036L565.806 386.652H565.51L555.198 362.036H545.84L561.334 396.436L552.493 415.578H561.561L585.436 362.036H575.781V362.036ZM497.561 398.367H506.262V341.582H497.561V398.367Z" fill="white"/>
<path d="M48.5384 296.331C47.1716 297.728 46.3806 299.902 46.3806 302.719V403.182C46.3806 405.999 47.1716 408.174 48.5384 409.571L48.8757 409.877L106.536 353.604V352.275L48.8757 296.001L48.5384 296.331Z" fill="url(#paint0_linear_2_114)"/>
<path d="M125.76 372.37L106.561 353.602V352.274L125.783 333.506L126.214 333.75L148.978 346.396C155.474 349.985 155.474 355.891 148.978 359.502L126.214 372.126L125.76 372.37V372.37Z" fill="url(#paint1_linear_2_114)"/>
<path d="M126.19 372.126L106.538 352.938L48.54 409.57C50.6978 411.784 54.2165 412.051 58.218 409.837L126.19 372.126" fill="url(#paint2_linear_2_114)"/>
<path d="M126.19 333.751L58.218 296.04C54.2165 293.849 50.6978 294.115 48.54 296.33L106.538 352.939L126.19 333.751Z" fill="url(#paint3_linear_2_114)"/>
<defs>
<linearGradient id="paint0_linear_2_114" x1="101.417" y1="404.229" x2="25.1998" y2="326.165" gradientUnits="userSpaceOnUse">
<stop stop-color="#00A0FF"/>
<stop offset="0.0066" stop-color="#00A1FF"/>
<stop offset="0.2601" stop-color="#00BEFF"/>
<stop offset="0.5122" stop-color="#00D2FF"/>
<stop offset="0.7604" stop-color="#00DFFF"/>
<stop offset="1" stop-color="#00E3FF"/>
</linearGradient>
<linearGradient id="paint1_linear_2_114" x1="157.437" y1="352.932" x2="44.8526" y2="352.932" gradientUnits="userSpaceOnUse">
<stop stop-color="#FFE000"/>
<stop offset="0.4087" stop-color="#FFBD00"/>
<stop offset="0.7754" stop-color="#FFA500"/>
<stop offset="1" stop-color="#FF9C00"/>
</linearGradient>
<linearGradient id="paint2_linear_2_114" x1="115.504" y1="342.508" x2="12.1477" y2="236.647" gradientUnits="userSpaceOnUse">
<stop stop-color="#FF3A44"/>
<stop offset="1" stop-color="#C31162"/>
</linearGradient>
<linearGradient id="paint3_linear_2_114" x1="33.9408" y1="442.994" x2="80.094" y2="395.723" gradientUnits="userSpaceOnUse">
<stop stop-color="#32A071"/>
<stop offset="0.0685" stop-color="#2DA771"/>
<stop offset="0.4762" stop-color="#15CF74"/>
<stop offset="0.8009" stop-color="#06E775"/>
<stop offset="1" stop-color="#00F076"/>
</linearGradient>
</defs>
</svg>
