<svg width="552" height="465" viewBox="0 0 552 465" fill="none" xmlns="http://www.w3.org/2000/svg">
<path fill-rule="evenodd" clip-rule="evenodd" d="M221.416 362.602L364.399 460.469C372.776 466.203 383.854 466.046 392.065 460.078L526.039 362.705C542.349 350.851 552 331.906 552 311.743V99.0827C552 78.8388 539.551 60.6789 520.669 53.3792L386.771 1.61461C381.355 -0.479336 375.363 -0.538468 369.906 1.44816L226.237 53.7551C206.882 60.8018 194 79.2006 194 99.7985V310.614C194 331.405 204.258 350.858 221.416 362.602ZM389.103 236.867C400.735 231.463 408.8 219.677 408.8 206.007C408.8 187.224 393.573 171.997 374.79 171.997C356.007 171.997 340.78 187.224 340.78 206.007C340.78 218.985 348.049 230.265 358.738 235.998C358.699 236.437 358.68 236.882 358.68 237.332V280.292C358.68 288.695 365.492 295.507 373.895 295.507C382.298 295.507 389.11 288.695 389.11 280.292V237.332C389.11 237.176 389.108 237.022 389.103 236.867Z" fill="#01A1FE"/>
<rect y="184" width="270" height="95" rx="29" fill="#01A1FE"/>
<rect x="12.5" y="195.5" width="280" height="73" rx="28.5" fill="white" stroke="white"/>
<path d="M48.736 209.56H57.088L56.608 225.4L71.488 219.736L74.08 227.704L58.816 232.312L68.992 244.984L62.272 249.88L52.96 236.632L43.552 249.88L36.832 244.984L47.008 232.312L31.84 227.704L34.336 219.736L49.312 225.4L48.736 209.56ZM98.5173 209.56H106.869L106.389 225.4L121.269 219.736L123.861 227.704L108.597 232.312L118.773 244.984L112.053 249.88L102.741 236.632L93.3333 249.88L86.6133 244.984L96.7893 232.312L81.6213 227.704L84.1172 219.736L99.0933 225.4L98.5173 209.56ZM148.299 209.56H156.651L156.171 225.4L171.051 219.736L173.643 227.704L158.379 232.312L168.555 244.984L161.835 249.88L152.523 236.632L143.115 249.88L136.395 244.984L146.571 232.312L131.403 227.704L133.898 219.736L148.875 225.4L148.299 209.56ZM198.08 209.56H206.432L205.952 225.4L220.832 219.736L223.424 227.704L208.16 232.312L218.336 244.984L211.616 249.88L202.304 236.632L192.896 249.88L186.176 244.984L196.352 232.312L181.184 227.704L183.68 219.736L198.656 225.4L198.08 209.56ZM247.861 209.56H256.213L255.733 225.4L270.613 219.736L273.205 227.704L257.941 232.312L268.117 244.984L261.397 249.88L252.085 236.632L242.677 249.88L235.957 244.984L246.133 232.312L230.965 227.704L233.461 219.736L248.437 225.4L247.861 209.56Z" fill="#030612"/>
</svg>
