<svg width="428" height="927" viewBox="0 0 428 927" fill="none" xmlns="http://www.w3.org/2000/svg">
<g clip-path="url(#clip0_1829_57810)">
<rect y="0.248047" width="428" height="926" rx="40" fill="#E9E9E9"/>
<g filter="url(#filter0_d_1829_57810)">
<rect y="0.248047" width="428" height="30" fill="white"/>
</g>
<path d="M0 47C0 13.8629 26.8629 -13 60 -13H368C401.137 -13 428 13.8629 428 47V348H0V47Z" fill="white"/>
<line x1="13" y1="64.5" x2="409" y2="64.5" stroke="#B2B2B2"/>
<path d="M29.1 47V33H31.1V47H29.1ZM40.6714 36.3C41.5381 36.3 42.2981 36.4667 42.9514 36.8C43.6181 37.1333 44.1381 37.64 44.5114 38.32C44.8847 39 45.0714 39.86 45.0714 40.9V47H43.1514V41.12C43.1514 40.0933 42.8981 39.32 42.3914 38.8C41.8981 38.28 41.1981 38.02 40.2914 38.02C39.6114 38.02 39.0181 38.1533 38.5114 38.42C38.0047 38.6867 37.6114 39.08 37.3314 39.6C37.0647 40.12 36.9314 40.7667 36.9314 41.54V47H35.0114V36.4H36.8514V39.26L36.5514 38.5C36.8981 37.8067 37.4314 37.2667 38.1514 36.88C38.8714 36.4933 39.7114 36.3 40.6714 36.3ZM51.2094 47L46.5694 36.4H48.5694L52.6894 46H51.7294L55.9294 36.4H57.8094L53.1694 47H51.2094ZM59.6013 47V36.4H61.5213V47H59.6013ZM60.5613 34.36C60.1879 34.36 59.8746 34.24 59.6213 34C59.3813 33.76 59.2613 33.4667 59.2613 33.12C59.2613 32.76 59.3813 32.46 59.6213 32.22C59.8746 31.98 60.1879 31.86 60.5613 31.86C60.9346 31.86 61.2413 31.98 61.4813 32.22C61.7346 32.4467 61.8613 32.7333 61.8613 33.08C61.8613 33.44 61.7413 33.7467 61.5013 34C61.2613 34.24 60.9479 34.36 60.5613 34.36ZM68.8272 47.12C67.7605 47.12 66.9339 46.8333 66.3472 46.26C65.7605 45.6867 65.4672 44.8667 65.4672 43.8V34.08H67.3872V43.72C67.3872 44.2933 67.5272 44.7333 67.8072 45.04C68.1005 45.3467 68.5139 45.5 69.0472 45.5C69.6472 45.5 70.1472 45.3333 70.5472 45L71.1472 46.38C70.8539 46.6333 70.5005 46.82 70.0872 46.94C69.6872 47.06 69.2672 47.12 68.8272 47.12ZM63.6672 37.98V36.4H70.4272V37.98H63.6672ZM77.8369 47.12C76.7035 47.12 75.7035 46.8867 74.8369 46.42C73.9835 45.9533 73.3169 45.3133 72.8369 44.5C72.3702 43.6867 72.1369 42.7533 72.1369 41.7C72.1369 40.6467 72.3635 39.7133 72.8169 38.9C73.2835 38.0867 73.9169 37.4533 74.7169 37C75.5302 36.5333 76.4435 36.3 77.4569 36.3C78.4835 36.3 79.3902 36.5267 80.1769 36.98C80.9635 37.4333 81.5769 38.0733 82.0169 38.9C82.4702 39.7133 82.6969 40.6667 82.6969 41.76C82.6969 41.84 82.6902 41.9333 82.6769 42.04C82.6769 42.1467 82.6702 42.2467 82.6569 42.34H73.6369V40.96H81.6569L80.8769 41.44C80.8902 40.76 80.7502 40.1533 80.4569 39.62C80.1635 39.0867 79.7569 38.6733 79.2369 38.38C78.7302 38.0733 78.1369 37.92 77.4569 37.92C76.7902 37.92 76.1969 38.0733 75.6769 38.38C75.1569 38.6733 74.7502 39.0933 74.4569 39.64C74.1635 40.1733 74.0169 40.7867 74.0169 41.48V41.8C74.0169 42.5067 74.1769 43.14 74.4969 43.7C74.8302 44.2467 75.2902 44.6733 75.8769 44.98C76.4635 45.2867 77.1369 45.44 77.8969 45.44C78.5235 45.44 79.0902 45.3333 79.5969 45.12C80.1169 44.9067 80.5702 44.5867 80.9569 44.16L82.0169 45.4C81.5369 45.96 80.9369 46.3867 80.2169 46.68C79.5102 46.9733 78.7169 47.12 77.8369 47.12Z" fill="#1C1C1C"/>
<path d="M28.596 102V92.2H29.632V102H28.596ZM36.3626 94.58C36.9599 94.58 37.4826 94.6967 37.9306 94.93C38.3879 95.154 38.7426 95.4993 38.9946 95.966C39.2559 96.4327 39.3866 97.0207 39.3866 97.73V102H38.3926V97.828C38.3926 97.0533 38.1966 96.47 37.8046 96.078C37.4219 95.6767 36.8806 95.476 36.1806 95.476C35.6579 95.476 35.2006 95.5833 34.8086 95.798C34.4259 96.0033 34.1273 96.3067 33.9126 96.708C33.7073 97.1 33.6046 97.576 33.6046 98.136V102H32.6106V94.65H33.5626V96.666L33.4086 96.288C33.6419 95.756 34.0153 95.3407 34.5286 95.042C35.0419 94.734 35.6533 94.58 36.3626 94.58ZM43.8248 102L40.5628 94.65H41.5988L44.5948 101.468H44.1048L47.1428 94.65H48.1228L44.8468 102H43.8248ZM49.5227 102V94.65H50.5167V102H49.5227ZM50.0267 93.026C49.8214 93.026 49.6487 92.956 49.5087 92.816C49.3687 92.676 49.2987 92.508 49.2987 92.312C49.2987 92.116 49.3687 91.9527 49.5087 91.822C49.6487 91.682 49.8214 91.612 50.0267 91.612C50.2321 91.612 50.4047 91.6773 50.5447 91.808C50.6847 91.9387 50.7547 92.102 50.7547 92.298C50.7547 92.5033 50.6847 92.676 50.5447 92.816C50.4141 92.956 50.2414 93.026 50.0267 93.026ZM55.6065 102.07C54.9158 102.07 54.3838 101.883 54.0105 101.51C53.6372 101.137 53.4505 100.609 53.4505 99.928V93.026H54.4445V99.872C54.4445 100.301 54.5518 100.633 54.7665 100.866C54.9905 101.099 55.3078 101.216 55.7185 101.216C56.1572 101.216 56.5212 101.09 56.8105 100.838L57.1605 101.552C56.9645 101.729 56.7265 101.86 56.4465 101.944C56.1758 102.028 55.8958 102.07 55.6065 102.07ZM52.1345 95.476V94.65H56.6845V95.476H52.1345ZM61.8322 102.07C61.0669 102.07 60.3949 101.911 59.8162 101.594C59.2376 101.267 58.7849 100.824 58.4582 100.264C58.1316 99.6947 57.9682 99.046 57.9682 98.318C57.9682 97.59 58.1222 96.946 58.4302 96.386C58.7476 95.826 59.1769 95.3873 59.7182 95.07C60.2689 94.7433 60.8849 94.58 61.5662 94.58C62.2569 94.58 62.8682 94.7387 63.4002 95.056C63.9416 95.364 64.3662 95.8027 64.6742 96.372C64.9822 96.932 65.1362 97.5807 65.1362 98.318C65.1362 98.3647 65.1316 98.416 65.1222 98.472C65.1222 98.5187 65.1222 98.57 65.1222 98.626H58.7242V97.884H64.5902L64.1982 98.178C64.1982 97.646 64.0816 97.1747 63.8482 96.764C63.6242 96.344 63.3162 96.0173 62.9242 95.784C62.5322 95.5507 62.0796 95.434 61.5662 95.434C61.0622 95.434 60.6096 95.5507 60.2082 95.784C59.8069 96.0173 59.4942 96.344 59.2702 96.764C59.0462 97.184 58.9342 97.6647 58.9342 98.206V98.36C58.9342 98.92 59.0556 99.4147 59.2982 99.844C59.5502 100.264 59.8956 100.595 60.3342 100.838C60.7822 101.071 61.2909 101.188 61.8602 101.188C62.3082 101.188 62.7236 101.109 63.1062 100.95C63.4982 100.791 63.8342 100.549 64.1142 100.222L64.6742 100.866C64.3476 101.258 63.9369 101.557 63.4422 101.762C62.9569 101.967 62.4202 102.07 61.8322 102.07ZM80.0075 94.58C80.6048 94.58 81.1228 94.6967 81.5615 94.93C82.0095 95.154 82.3548 95.4993 82.5975 95.966C82.8495 96.4327 82.9755 97.0207 82.9755 97.73V102H81.9815V97.828C81.9815 97.0533 81.7948 96.47 81.4215 96.078C81.0575 95.6767 80.5395 95.476 79.8675 95.476C79.3635 95.476 78.9248 95.5833 78.5515 95.798C78.1875 96.0033 77.9028 96.3067 77.6975 96.708C77.5015 97.1 77.4035 97.576 77.4035 98.136V102H76.4095V97.828C76.4095 97.0533 76.2228 96.47 75.8495 96.078C75.4762 95.6767 74.9535 95.476 74.2815 95.476C73.7868 95.476 73.3528 95.5833 72.9795 95.798C72.6062 96.0033 72.3168 96.3067 72.1115 96.708C71.9155 97.1 71.8175 97.576 71.8175 98.136V102H70.8235V94.65H71.7755V96.638L71.6215 96.288C71.8455 95.756 72.2048 95.3407 72.6995 95.042C73.2035 94.734 73.7962 94.58 74.4775 94.58C75.1962 94.58 75.8075 94.762 76.3115 95.126C76.8155 95.4807 77.1422 96.0173 77.2915 96.736L76.8995 96.582C77.1142 95.9847 77.4922 95.504 78.0335 95.14C78.5842 94.7667 79.2422 94.58 80.0075 94.58ZM88.7932 102.07C88.0278 102.07 87.3558 101.911 86.7772 101.594C86.1985 101.267 85.7458 100.824 85.4192 100.264C85.0925 99.6947 84.9292 99.046 84.9292 98.318C84.9292 97.59 85.0832 96.946 85.3912 96.386C85.7085 95.826 86.1378 95.3873 86.6792 95.07C87.2298 94.7433 87.8458 94.58 88.5272 94.58C89.2178 94.58 89.8292 94.7387 90.3612 95.056C90.9025 95.364 91.3272 95.8027 91.6352 96.372C91.9432 96.932 92.0972 97.5807 92.0972 98.318C92.0972 98.3647 92.0925 98.416 92.0832 98.472C92.0832 98.5187 92.0832 98.57 92.0832 98.626H85.6852V97.884H91.5512L91.1592 98.178C91.1592 97.646 91.0425 97.1747 90.8092 96.764C90.5852 96.344 90.2772 96.0173 89.8852 95.784C89.4932 95.5507 89.0405 95.434 88.5272 95.434C88.0232 95.434 87.5705 95.5507 87.1692 95.784C86.7678 96.0173 86.4552 96.344 86.2312 96.764C86.0072 97.184 85.8952 97.6647 85.8952 98.206V98.36C85.8952 98.92 86.0165 99.4147 86.2592 99.844C86.5112 100.264 86.8565 100.595 87.2952 100.838C87.7432 101.071 88.2518 101.188 88.8212 101.188C89.2692 101.188 89.6845 101.109 90.0672 100.95C90.4592 100.791 90.7952 100.549 91.0752 100.222L91.6352 100.866C91.3085 101.258 90.8978 101.557 90.4032 101.762C89.9178 101.967 89.3812 102.07 88.7932 102.07ZM103.304 94.58C103.902 94.58 104.42 94.6967 104.858 94.93C105.306 95.154 105.652 95.4993 105.894 95.966C106.146 96.4327 106.272 97.0207 106.272 97.73V102H105.278V97.828C105.278 97.0533 105.092 96.47 104.718 96.078C104.354 95.6767 103.836 95.476 103.164 95.476C102.66 95.476 102.222 95.5833 101.848 95.798C101.484 96.0033 101.2 96.3067 100.994 96.708C100.798 97.1 100.7 97.576 100.7 98.136V102H99.7064V97.828C99.7064 97.0533 99.5197 96.47 99.1464 96.078C98.773 95.6767 98.2504 95.476 97.5784 95.476C97.0837 95.476 96.6497 95.5833 96.2764 95.798C95.903 96.0033 95.6137 96.3067 95.4084 96.708C95.2124 97.1 95.1144 97.576 95.1144 98.136V102H94.1204V94.65H95.0724V96.638L94.9184 96.288C95.1424 95.756 95.5017 95.3407 95.9964 95.042C96.5004 94.734 97.093 94.58 97.7744 94.58C98.493 94.58 99.1044 94.762 99.6084 95.126C100.112 95.4807 100.439 96.0173 100.588 96.736L100.196 96.582C100.411 95.9847 100.789 95.504 101.33 95.14C101.881 94.7667 102.539 94.58 103.304 94.58ZM112.762 102.07C112.118 102.07 111.539 101.925 111.026 101.636C110.513 101.337 110.107 100.908 109.808 100.348C109.509 99.788 109.36 99.1113 109.36 98.318C109.36 97.5153 109.509 96.8387 109.808 96.288C110.116 95.728 110.527 95.3033 111.04 95.014C111.553 94.7247 112.127 94.58 112.762 94.58C113.462 94.58 114.087 94.7387 114.638 95.056C115.198 95.364 115.637 95.798 115.954 96.358C116.271 96.918 116.43 97.5713 116.43 98.318C116.43 99.0553 116.271 99.7087 115.954 100.278C115.637 100.838 115.198 101.277 114.638 101.594C114.087 101.911 113.462 102.07 112.762 102.07ZM108.968 102V91.612H109.962V96.82L109.822 98.304L109.92 99.788V102H108.968ZM112.692 101.188C113.215 101.188 113.681 101.071 114.092 100.838C114.503 100.595 114.829 100.259 115.072 99.83C115.315 99.3913 115.436 98.8873 115.436 98.318C115.436 97.7393 115.315 97.2353 115.072 96.806C114.829 96.3767 114.503 96.0453 114.092 95.812C113.681 95.5693 113.215 95.448 112.692 95.448C112.169 95.448 111.698 95.5693 111.278 95.812C110.867 96.0453 110.541 96.3767 110.298 96.806C110.065 97.2353 109.948 97.7393 109.948 98.318C109.948 98.8873 110.065 99.3913 110.298 99.83C110.541 100.259 110.867 100.595 111.278 100.838C111.698 101.071 112.169 101.188 112.692 101.188ZM121.578 102.07C120.813 102.07 120.141 101.911 119.562 101.594C118.984 101.267 118.531 100.824 118.204 100.264C117.878 99.6947 117.714 99.046 117.714 98.318C117.714 97.59 117.868 96.946 118.176 96.386C118.494 95.826 118.923 95.3873 119.464 95.07C120.015 94.7433 120.631 94.58 121.312 94.58C122.003 94.58 122.614 94.7387 123.146 95.056C123.688 95.364 124.112 95.8027 124.42 96.372C124.728 96.932 124.882 97.5807 124.882 98.318C124.882 98.3647 124.878 98.416 124.868 98.472C124.868 98.5187 124.868 98.57 124.868 98.626H118.47V97.884H124.336L123.944 98.178C123.944 97.646 123.828 97.1747 123.594 96.764C123.37 96.344 123.062 96.0173 122.67 95.784C122.278 95.5507 121.826 95.434 121.312 95.434C120.808 95.434 120.356 95.5507 119.954 95.784C119.553 96.0173 119.24 96.344 119.016 96.764C118.792 97.184 118.68 97.6647 118.68 98.206V98.36C118.68 98.92 118.802 99.4147 119.044 99.844C119.296 100.264 119.642 100.595 120.08 100.838C120.528 101.071 121.037 101.188 121.606 101.188C122.054 101.188 122.47 101.109 122.852 100.95C123.244 100.791 123.58 100.549 123.86 100.222L124.42 100.866C124.094 101.258 123.683 101.557 123.188 101.762C122.703 101.967 122.166 102.07 121.578 102.07ZM126.906 102V94.65H127.858V96.652L127.76 96.302C127.965 95.742 128.31 95.3173 128.796 95.028C129.281 94.7293 129.883 94.58 130.602 94.58V95.546C130.564 95.546 130.527 95.546 130.49 95.546C130.452 95.5367 130.415 95.532 130.378 95.532C129.603 95.532 128.996 95.77 128.558 96.246C128.119 96.7127 127.9 97.38 127.9 98.248V102H126.906Z" fill="#1C1C1C"/>
<rect x="83" y="285" width="255" height="33" rx="10" fill="#45A8FF"/>
<path d="M192.852 269.084C192.115 269.084 191.433 268.963 190.808 268.72C190.183 268.468 189.641 268.118 189.184 267.67C188.727 267.222 188.367 266.695 188.106 266.088C187.854 265.481 187.728 264.819 187.728 264.1C187.728 263.381 187.854 262.719 188.106 262.112C188.367 261.505 188.727 260.978 189.184 260.53C189.651 260.082 190.197 259.737 190.822 259.494C191.447 259.242 192.129 259.116 192.866 259.116C193.575 259.116 194.243 259.237 194.868 259.48C195.493 259.713 196.021 260.068 196.45 260.544L195.792 261.202C195.391 260.791 194.947 260.497 194.462 260.32C193.977 260.133 193.454 260.04 192.894 260.04C192.306 260.04 191.76 260.143 191.256 260.348C190.752 260.544 190.313 260.829 189.94 261.202C189.567 261.566 189.273 261.995 189.058 262.49C188.853 262.975 188.75 263.512 188.75 264.1C188.75 264.688 188.853 265.229 189.058 265.724C189.273 266.209 189.567 266.639 189.94 267.012C190.313 267.376 190.752 267.661 191.256 267.866C191.76 268.062 192.306 268.16 192.894 268.16C193.454 268.16 193.977 268.067 194.462 267.88C194.947 267.693 195.391 267.395 195.792 266.984L196.45 267.642C196.021 268.118 195.493 268.477 194.868 268.72C194.243 268.963 193.571 269.084 192.852 269.084ZM202.945 269V267.376L202.903 267.11V264.394C202.903 263.769 202.726 263.288 202.371 262.952C202.026 262.616 201.508 262.448 200.817 262.448C200.341 262.448 199.888 262.527 199.459 262.686C199.03 262.845 198.666 263.055 198.367 263.316L197.919 262.574C198.292 262.257 198.74 262.014 199.263 261.846C199.786 261.669 200.336 261.58 200.915 261.58C201.867 261.58 202.6 261.818 203.113 262.294C203.636 262.761 203.897 263.475 203.897 264.436V269H202.945ZM200.411 269.07C199.86 269.07 199.38 268.981 198.969 268.804C198.568 268.617 198.26 268.365 198.045 268.048C197.83 267.721 197.723 267.348 197.723 266.928C197.723 266.545 197.812 266.2 197.989 265.892C198.176 265.575 198.474 265.323 198.885 265.136C199.305 264.94 199.865 264.842 200.565 264.842H203.099V265.584H200.593C199.884 265.584 199.389 265.71 199.109 265.962C198.838 266.214 198.703 266.527 198.703 266.9C198.703 267.32 198.866 267.656 199.193 267.908C199.52 268.16 199.977 268.286 200.565 268.286C201.125 268.286 201.606 268.16 202.007 267.908C202.418 267.647 202.716 267.273 202.903 266.788L203.127 267.474C202.94 267.959 202.614 268.347 202.147 268.636C201.69 268.925 201.111 269.07 200.411 269.07ZM210.349 261.58C210.946 261.58 211.469 261.697 211.917 261.93C212.374 262.154 212.729 262.499 212.981 262.966C213.242 263.433 213.373 264.021 213.373 264.73V269H212.379V264.828C212.379 264.053 212.183 263.47 211.791 263.078C211.408 262.677 210.867 262.476 210.167 262.476C209.644 262.476 209.187 262.583 208.795 262.798C208.412 263.003 208.114 263.307 207.899 263.708C207.694 264.1 207.591 264.576 207.591 265.136V269H206.597V261.65H207.549V263.666L207.395 263.288C207.628 262.756 208.002 262.341 208.515 262.042C209.028 261.734 209.64 261.58 210.349 261.58ZM219.11 269.07C218.382 269.07 217.729 268.911 217.15 268.594C216.581 268.267 216.133 267.824 215.806 267.264C215.479 266.695 215.316 266.046 215.316 265.318C215.316 264.581 215.479 263.932 215.806 263.372C216.133 262.812 216.581 262.373 217.15 262.056C217.729 261.739 218.382 261.58 219.11 261.58C219.735 261.58 220.3 261.701 220.804 261.944C221.308 262.187 221.705 262.551 221.994 263.036L221.252 263.54C221 263.167 220.687 262.891 220.314 262.714C219.941 262.537 219.535 262.448 219.096 262.448C218.573 262.448 218.102 262.569 217.682 262.812C217.262 263.045 216.931 263.377 216.688 263.806C216.445 264.235 216.324 264.739 216.324 265.318C216.324 265.897 216.445 266.401 216.688 266.83C216.931 267.259 217.262 267.595 217.682 267.838C218.102 268.071 218.573 268.188 219.096 268.188C219.535 268.188 219.941 268.099 220.314 267.922C220.687 267.745 221 267.474 221.252 267.11L221.994 267.614C221.705 268.09 221.308 268.454 220.804 268.706C220.3 268.949 219.735 269.07 219.11 269.07ZM226.946 269.07C226.18 269.07 225.508 268.911 224.93 268.594C224.351 268.267 223.898 267.824 223.572 267.264C223.245 266.695 223.082 266.046 223.082 265.318C223.082 264.59 223.236 263.946 223.544 263.386C223.861 262.826 224.29 262.387 224.832 262.07C225.382 261.743 225.998 261.58 226.68 261.58C227.37 261.58 227.982 261.739 228.514 262.056C229.055 262.364 229.48 262.803 229.788 263.372C230.096 263.932 230.25 264.581 230.25 265.318C230.25 265.365 230.245 265.416 230.236 265.472C230.236 265.519 230.236 265.57 230.236 265.626H223.838V264.884H229.704L229.312 265.178C229.312 264.646 229.195 264.175 228.962 263.764C228.738 263.344 228.43 263.017 228.038 262.784C227.646 262.551 227.193 262.434 226.68 262.434C226.176 262.434 225.723 262.551 225.322 262.784C224.92 263.017 224.608 263.344 224.384 263.764C224.16 264.184 224.048 264.665 224.048 265.206V265.36C224.048 265.92 224.169 266.415 224.412 266.844C224.664 267.264 225.009 267.595 225.448 267.838C225.896 268.071 226.404 268.188 226.974 268.188C227.422 268.188 227.837 268.109 228.22 267.95C228.612 267.791 228.948 267.549 229.228 267.222L229.788 267.866C229.461 268.258 229.05 268.557 228.556 268.762C228.07 268.967 227.534 269.07 226.946 269.07ZM232.273 269V258.612H233.267V269H232.273Z" fill="#004480"/>
<path d="M179.298 307.084C178.57 307.084 177.87 306.967 177.198 306.734C176.535 306.491 176.022 306.183 175.658 305.81L176.064 305.012C176.409 305.348 176.871 305.633 177.45 305.866C178.038 306.09 178.654 306.202 179.298 306.202C179.914 306.202 180.413 306.127 180.796 305.978C181.188 305.819 181.473 305.609 181.65 305.348C181.837 305.087 181.93 304.797 181.93 304.48C181.93 304.097 181.818 303.789 181.594 303.556C181.379 303.323 181.095 303.141 180.74 303.01C180.385 302.87 179.993 302.749 179.564 302.646C179.135 302.543 178.705 302.436 178.276 302.324C177.847 302.203 177.45 302.044 177.086 301.848C176.731 301.652 176.442 301.395 176.218 301.078C176.003 300.751 175.896 300.327 175.896 299.804C175.896 299.319 176.022 298.875 176.274 298.474C176.535 298.063 176.932 297.737 177.464 297.494C177.996 297.242 178.677 297.116 179.508 297.116C180.059 297.116 180.605 297.195 181.146 297.354C181.687 297.503 182.154 297.713 182.546 297.984L182.196 298.81C181.776 298.53 181.328 298.325 180.852 298.194C180.385 298.063 179.933 297.998 179.494 297.998C178.906 297.998 178.421 298.077 178.038 298.236C177.655 298.395 177.371 298.609 177.184 298.88C177.007 299.141 176.918 299.44 176.918 299.776C176.918 300.159 177.025 300.467 177.24 300.7C177.464 300.933 177.753 301.115 178.108 301.246C178.472 301.377 178.869 301.493 179.298 301.596C179.727 301.699 180.152 301.811 180.572 301.932C181.001 302.053 181.393 302.212 181.748 302.408C182.112 302.595 182.401 302.847 182.616 303.164C182.84 303.481 182.952 303.897 182.952 304.41C182.952 304.886 182.821 305.329 182.56 305.74C182.299 306.141 181.897 306.468 181.356 306.72C180.824 306.963 180.138 307.084 179.298 307.084ZM188.121 307.07C187.356 307.07 186.684 306.911 186.105 306.594C185.527 306.267 185.074 305.824 184.747 305.264C184.421 304.695 184.257 304.046 184.257 303.318C184.257 302.59 184.411 301.946 184.719 301.386C185.037 300.826 185.466 300.387 186.007 300.07C186.558 299.743 187.174 299.58 187.855 299.58C188.546 299.58 189.157 299.739 189.689 300.056C190.231 300.364 190.655 300.803 190.963 301.372C191.271 301.932 191.425 302.581 191.425 303.318C191.425 303.365 191.421 303.416 191.411 303.472C191.411 303.519 191.411 303.57 191.411 303.626H185.013V302.884H190.879L190.487 303.178C190.487 302.646 190.371 302.175 190.137 301.764C189.913 301.344 189.605 301.017 189.213 300.784C188.821 300.551 188.369 300.434 187.855 300.434C187.351 300.434 186.899 300.551 186.497 300.784C186.096 301.017 185.783 301.344 185.559 301.764C185.335 302.184 185.223 302.665 185.223 303.206V303.36C185.223 303.92 185.345 304.415 185.587 304.844C185.839 305.264 186.185 305.595 186.623 305.838C187.071 306.071 187.58 306.188 188.149 306.188C188.597 306.188 189.013 306.109 189.395 305.95C189.787 305.791 190.123 305.549 190.403 305.222L190.963 305.866C190.637 306.258 190.226 306.557 189.731 306.762C189.246 306.967 188.709 307.07 188.121 307.07ZM197.201 299.58C197.798 299.58 198.321 299.697 198.769 299.93C199.226 300.154 199.581 300.499 199.833 300.966C200.094 301.433 200.225 302.021 200.225 302.73V307H199.231V302.828C199.231 302.053 199.035 301.47 198.643 301.078C198.26 300.677 197.719 300.476 197.019 300.476C196.496 300.476 196.039 300.583 195.647 300.798C195.264 301.003 194.965 301.307 194.751 301.708C194.545 302.1 194.443 302.576 194.443 303.136V307H193.449V299.65H194.401V301.666L194.247 301.288C194.48 300.756 194.853 300.341 195.367 300.042C195.88 299.734 196.491 299.58 197.201 299.58ZM205.835 307.07C205.135 307.07 204.505 306.911 203.945 306.594C203.395 306.277 202.961 305.838 202.643 305.278C202.326 304.709 202.167 304.055 202.167 303.318C202.167 302.571 202.326 301.918 202.643 301.358C202.961 300.798 203.395 300.364 203.945 300.056C204.505 299.739 205.135 299.58 205.835 299.58C206.479 299.58 207.053 299.725 207.557 300.014C208.071 300.303 208.477 300.728 208.775 301.288C209.083 301.839 209.237 302.515 209.237 303.318C209.237 304.111 209.088 304.788 208.789 305.348C208.491 305.908 208.085 306.337 207.571 306.636C207.067 306.925 206.489 307.07 205.835 307.07ZM205.905 306.188C206.428 306.188 206.895 306.071 207.305 305.838C207.725 305.595 208.052 305.259 208.285 304.83C208.528 304.391 208.649 303.887 208.649 303.318C208.649 302.739 208.528 302.235 208.285 301.806C208.052 301.377 207.725 301.045 207.305 300.812C206.895 300.569 206.428 300.448 205.905 300.448C205.392 300.448 204.93 300.569 204.519 300.812C204.109 301.045 203.782 301.377 203.539 301.806C203.297 302.235 203.175 302.739 203.175 303.318C203.175 303.887 203.297 304.391 203.539 304.83C203.782 305.259 204.109 305.595 204.519 305.838C204.93 306.071 205.392 306.188 205.905 306.188ZM208.677 307V304.788L208.775 303.304L208.635 301.82V296.612H209.629V307H208.677ZM216.062 307V299.65H217.056V307H216.062ZM216.566 298.026C216.36 298.026 216.188 297.956 216.048 297.816C215.908 297.676 215.838 297.508 215.838 297.312C215.838 297.116 215.908 296.953 216.048 296.822C216.188 296.682 216.36 296.612 216.566 296.612C216.771 296.612 216.944 296.677 217.084 296.808C217.224 296.939 217.294 297.102 217.294 297.298C217.294 297.503 217.224 297.676 217.084 297.816C216.953 297.956 216.78 298.026 216.566 298.026ZM223.574 299.58C224.171 299.58 224.694 299.697 225.142 299.93C225.599 300.154 225.954 300.499 226.206 300.966C226.467 301.433 226.598 302.021 226.598 302.73V307H225.604V302.828C225.604 302.053 225.408 301.47 225.016 301.078C224.633 300.677 224.092 300.476 223.392 300.476C222.869 300.476 222.412 300.583 222.02 300.798C221.637 301.003 221.338 301.307 221.124 301.708C220.918 302.1 220.816 302.576 220.816 303.136V307H219.822V299.65H220.774V301.666L220.62 301.288C220.853 300.756 221.226 300.341 221.74 300.042C222.253 299.734 222.864 299.58 223.574 299.58ZM231.036 307L227.774 299.65H228.81L231.806 306.468H231.316L234.354 299.65H235.334L232.058 307H231.036ZM236.734 307V299.65H237.728V307H236.734ZM237.238 298.026C237.032 298.026 236.86 297.956 236.72 297.816C236.58 297.676 236.51 297.508 236.51 297.312C236.51 297.116 236.58 296.953 236.72 296.822C236.86 296.682 237.032 296.612 237.238 296.612C237.443 296.612 237.616 296.677 237.756 296.808C237.896 296.939 237.966 297.102 237.966 297.298C237.966 297.503 237.896 297.676 237.756 297.816C237.625 297.956 237.452 298.026 237.238 298.026ZM242.817 307.07C242.127 307.07 241.595 306.883 241.221 306.51C240.848 306.137 240.661 305.609 240.661 304.928V298.026H241.655V304.872C241.655 305.301 241.763 305.633 241.977 305.866C242.201 306.099 242.519 306.216 242.929 306.216C243.368 306.216 243.732 306.09 244.021 305.838L244.371 306.552C244.175 306.729 243.937 306.86 243.657 306.944C243.387 307.028 243.107 307.07 242.817 307.07ZM239.345 300.476V299.65H243.895V300.476H239.345ZM249.043 307.07C248.278 307.07 247.606 306.911 247.027 306.594C246.448 306.267 245.996 305.824 245.669 305.264C245.342 304.695 245.179 304.046 245.179 303.318C245.179 302.59 245.333 301.946 245.641 301.386C245.958 300.826 246.388 300.387 246.929 300.07C247.48 299.743 248.096 299.58 248.777 299.58C249.468 299.58 250.079 299.739 250.611 300.056C251.152 300.364 251.577 300.803 251.885 301.372C252.193 301.932 252.347 302.581 252.347 303.318C252.347 303.365 252.342 303.416 252.333 303.472C252.333 303.519 252.333 303.57 252.333 303.626H245.935V302.884H251.801L251.409 303.178C251.409 302.646 251.292 302.175 251.059 301.764C250.835 301.344 250.527 301.017 250.135 300.784C249.743 300.551 249.29 300.434 248.777 300.434C248.273 300.434 247.82 300.551 247.419 300.784C247.018 301.017 246.705 301.344 246.481 301.764C246.257 302.184 246.145 302.665 246.145 303.206V303.36C246.145 303.92 246.266 304.415 246.509 304.844C246.761 305.264 247.106 305.595 247.545 305.838C247.993 306.071 248.502 306.188 249.071 306.188C249.519 306.188 249.934 306.109 250.317 305.95C250.709 305.791 251.045 305.549 251.325 305.222L251.885 305.866C251.558 306.258 251.148 306.557 250.653 306.762C250.168 306.967 249.631 307.07 249.043 307.07Z" fill="white"/>
<path opacity="0.5" d="M40.52 127.582H45.7V128.464H40.52V127.582ZM40.632 132.104H46.526V133H39.596V123.2H46.316V124.096H40.632V132.104ZM57.9352 125.58C58.5326 125.58 59.0506 125.697 59.4892 125.93C59.9372 126.154 60.2826 126.499 60.5252 126.966C60.7772 127.433 60.9032 128.021 60.9032 128.73V133H59.9092V128.828C59.9092 128.053 59.7226 127.47 59.3492 127.078C58.9852 126.677 58.4672 126.476 57.7952 126.476C57.2912 126.476 56.8526 126.583 56.4792 126.798C56.1152 127.003 55.8306 127.307 55.6252 127.708C55.4292 128.1 55.3312 128.576 55.3312 129.136V133H54.3372V128.828C54.3372 128.053 54.1506 127.47 53.7772 127.078C53.4039 126.677 52.8812 126.476 52.2092 126.476C51.7146 126.476 51.2806 126.583 50.9072 126.798C50.5339 127.003 50.2446 127.307 50.0392 127.708C49.8432 128.1 49.7452 128.576 49.7452 129.136V133H48.7512V125.65H49.7032V127.638L49.5492 127.288C49.7732 126.756 50.1326 126.341 50.6272 126.042C51.1312 125.734 51.7239 125.58 52.4052 125.58C53.1239 125.58 53.7352 125.762 54.2392 126.126C54.7432 126.481 55.0699 127.017 55.2192 127.736L54.8272 127.582C55.0419 126.985 55.4199 126.504 55.9612 126.14C56.5119 125.767 57.1699 125.58 57.9352 125.58ZM68.2049 133V131.376L68.1629 131.11V128.394C68.1629 127.769 67.9856 127.288 67.6309 126.952C67.2856 126.616 66.7676 126.448 66.0769 126.448C65.6009 126.448 65.1482 126.527 64.7189 126.686C64.2896 126.845 63.9256 127.055 63.6269 127.316L63.1789 126.574C63.5522 126.257 64.0002 126.014 64.5229 125.846C65.0456 125.669 65.5962 125.58 66.1749 125.58C67.1269 125.58 67.8596 125.818 68.3729 126.294C68.8956 126.761 69.1569 127.475 69.1569 128.436V133H68.2049ZM65.6709 133.07C65.1202 133.07 64.6396 132.981 64.2289 132.804C63.8276 132.617 63.5196 132.365 63.3049 132.048C63.0902 131.721 62.9829 131.348 62.9829 130.928C62.9829 130.545 63.0716 130.2 63.2489 129.892C63.4356 129.575 63.7342 129.323 64.1449 129.136C64.5649 128.94 65.1249 128.842 65.8249 128.842H68.3589V129.584H65.8529C65.1436 129.584 64.6489 129.71 64.3689 129.962C64.0982 130.214 63.9629 130.527 63.9629 130.9C63.9629 131.32 64.1262 131.656 64.4529 131.908C64.7796 132.16 65.2369 132.286 65.8249 132.286C66.3849 132.286 66.8656 132.16 67.2669 131.908C67.6776 131.647 67.9762 131.273 68.1629 130.788L68.3869 131.474C68.2002 131.959 67.8736 132.347 67.4069 132.636C66.9496 132.925 66.3709 133.07 65.6709 133.07ZM71.8567 133V125.65H72.8507V133H71.8567ZM72.3607 124.026C72.1554 124.026 71.9827 123.956 71.8427 123.816C71.7027 123.676 71.6327 123.508 71.6327 123.312C71.6327 123.116 71.7027 122.953 71.8427 122.822C71.9827 122.682 72.1554 122.612 72.3607 122.612C72.566 122.612 72.7387 122.677 72.8787 122.808C73.0187 122.939 73.0887 123.102 73.0887 123.298C73.0887 123.503 73.0187 123.676 72.8787 123.816C72.748 123.956 72.5754 124.026 72.3607 124.026ZM75.6165 133V122.612H76.6105V133H75.6165Z" fill="#1C1C1C"/>
<path d="M389.28 47L393.84 41.08L393.82 42.06L389.48 36.4H391.62L394.94 40.76H394.12L397.44 36.4H399.54L395.14 42.1L395.16 41.08L399.76 47H397.58L394.08 42.36L394.86 42.48L391.42 47H389.28Z" fill="#1C1C1C"/>
<rect x="26.5" y="110.5" width="383" height="34" stroke="#ACACAC"/>
</g>
<defs>
<filter id="filter0_d_1829_57810" x="-4" y="0.248047" width="436" height="38" filterUnits="userSpaceOnUse" color-interpolation-filters="sRGB">
<feFlood flood-opacity="0" result="BackgroundImageFix"/>
<feColorMatrix in="SourceAlpha" type="matrix" values="0 0 0 0 0 0 0 0 0 0 0 0 0 0 0 0 0 0 127 0" result="hardAlpha"/>
<feOffset dy="4"/>
<feGaussianBlur stdDeviation="2"/>
<feComposite in2="hardAlpha" operator="out"/>
<feColorMatrix type="matrix" values="0 0 0 0 0 0 0 0 0 0 0 0 0 0 0 0 0 0 0.25 0"/>
<feBlend mode="normal" in2="BackgroundImageFix" result="effect1_dropShadow_1829_57810"/>
<feBlend mode="normal" in="SourceGraphic" in2="effect1_dropShadow_1829_57810" result="shape"/>
</filter>
<clipPath id="clip0_1829_57810">
<rect y="0.248047" width="428" height="926" rx="40" fill="white"/>
</clipPath>
</defs>
</svg>
