<svg width="428" height="927" viewBox="0 0 428 927" fill="none" xmlns="http://www.w3.org/2000/svg">
<g clip-path="url(#clip0_1642_4433)">
<rect y="0.248047" width="428" height="926" rx="40" fill="#E9E9E9"/>
<g filter="url(#filter0_d_1642_4433)">
<rect y="30.248" width="428" height="108" fill="white"/>
</g>
<rect y="144.248" width="428" height="706" fill="white"/>
<path d="M22.256 78.248V61.448H29.6C31.424 61.448 33.024 61.8 34.4 62.504C35.776 63.208 36.848 64.184 37.616 65.432C38.384 66.68 38.768 68.152 38.768 69.848C38.768 71.528 38.384 73 37.616 74.264C36.848 75.512 35.776 76.488 34.4 77.192C33.024 77.896 31.424 78.248 29.6 78.248H22.256ZM25.376 75.608H29.456C30.72 75.608 31.808 75.368 32.72 74.888C33.648 74.408 34.36 73.736 34.856 72.872C35.368 72.008 35.624 71 35.624 69.848C35.624 68.68 35.368 67.672 34.856 66.824C34.36 65.96 33.648 65.288 32.72 64.808C31.808 64.328 30.72 64.088 29.456 64.088H25.376V75.608ZM49.6921 78.248V75.656L49.5241 75.104V70.568C49.5241 69.688 49.2601 69.008 48.7321 68.528C48.2041 68.032 47.4041 67.784 46.3321 67.784C45.6121 67.784 44.9001 67.896 44.1961 68.12C43.5081 68.344 42.9241 68.656 42.4441 69.056L41.2681 66.872C41.9561 66.344 42.7721 65.952 43.7161 65.696C44.6761 65.424 45.6681 65.288 46.6921 65.288C48.5481 65.288 49.9801 65.736 50.9881 66.632C52.0121 67.512 52.5241 68.88 52.5241 70.736V78.248H49.6921ZM45.6601 78.416C44.7001 78.416 43.8601 78.256 43.1401 77.936C42.4201 77.6 41.8601 77.144 41.4601 76.568C41.0761 75.976 40.8841 75.312 40.8841 74.576C40.8841 73.856 41.0521 73.208 41.3881 72.632C41.7401 72.056 42.3081 71.6 43.0921 71.264C43.8761 70.928 44.9161 70.76 46.2121 70.76H49.9321V72.752H46.4281C45.4041 72.752 44.7161 72.92 44.3641 73.256C44.0121 73.576 43.8361 73.976 43.8361 74.456C43.8361 75 44.0521 75.432 44.4841 75.752C44.9161 76.072 45.5161 76.232 46.2841 76.232C47.0201 76.232 47.6761 76.064 48.2521 75.728C48.8441 75.392 49.2681 74.896 49.5241 74.24L50.0281 76.04C49.7401 76.792 49.2201 77.376 48.4681 77.792C47.7321 78.208 46.7961 78.416 45.6601 78.416ZM60.3343 78.416C59.2623 78.416 58.2303 78.28 57.2383 78.008C56.2623 77.72 55.4863 77.376 54.9103 76.976L56.0623 74.696C56.6383 75.064 57.3263 75.368 58.1263 75.608C58.9263 75.848 59.7263 75.968 60.5263 75.968C61.4703 75.968 62.1503 75.84 62.5663 75.584C62.9983 75.328 63.2143 74.984 63.2143 74.552C63.2143 74.2 63.0703 73.936 62.7823 73.76C62.4943 73.568 62.1183 73.424 61.6543 73.328C61.1903 73.232 60.6703 73.144 60.0943 73.064C59.5343 72.984 58.9663 72.88 58.3903 72.752C57.8303 72.608 57.3183 72.408 56.8543 72.152C56.3903 71.88 56.0143 71.52 55.7263 71.072C55.4383 70.624 55.2943 70.032 55.2943 69.296C55.2943 68.48 55.5263 67.776 55.9902 67.184C56.4543 66.576 57.1023 66.112 57.9342 65.792C58.7823 65.456 59.7823 65.288 60.9343 65.288C61.7983 65.288 62.6703 65.384 63.5503 65.576C64.4303 65.768 65.1583 66.04 65.7343 66.392L64.5823 68.672C63.9743 68.304 63.3583 68.056 62.7343 67.928C62.1263 67.784 61.5183 67.712 60.9103 67.712C59.9983 67.712 59.3183 67.848 58.8703 68.12C58.4383 68.392 58.2223 68.736 58.2223 69.152C58.2223 69.536 58.3663 69.824 58.6543 70.016C58.9423 70.208 59.3183 70.36 59.7823 70.472C60.2463 70.584 60.7583 70.68 61.3183 70.76C61.8943 70.824 62.4623 70.928 63.0223 71.072C63.5823 71.216 64.0943 71.416 64.5583 71.672C65.0383 71.912 65.4223 72.256 65.7103 72.704C65.9983 73.152 66.1423 73.736 66.1423 74.456C66.1423 75.256 65.9023 75.952 65.4223 76.544C64.9583 77.136 64.2943 77.6 63.4303 77.936C62.5663 78.256 61.5343 78.416 60.3343 78.416ZM75.9978 65.288C77.0218 65.288 77.9338 65.488 78.7338 65.888C79.5498 66.288 80.1898 66.904 80.6538 67.736C81.1178 68.552 81.3498 69.608 81.3498 70.904V78.248H78.3498V71.288C78.3498 70.152 78.0778 69.304 77.5338 68.744C77.0058 68.184 76.2618 67.904 75.3018 67.904C74.5978 67.904 73.9738 68.048 73.4298 68.336C72.8858 68.624 72.4618 69.056 72.1578 69.632C71.8698 70.192 71.7258 70.904 71.7258 71.768V78.248H68.7258V60.44H71.7258V68.888L71.0778 67.832C71.5258 67.016 72.1738 66.392 73.0218 65.96C73.8858 65.512 74.8778 65.288 75.9978 65.288ZM92.2595 78.416C91.1715 78.416 90.2035 78.176 89.3555 77.696C88.5075 77.216 87.8355 76.496 87.3395 75.536C86.8595 74.56 86.6195 73.328 86.6195 71.84C86.6195 70.336 86.8675 69.104 87.3635 68.144C87.8755 67.184 88.5555 66.472 89.4035 66.008C90.2675 65.528 91.2195 65.288 92.2595 65.288C93.5235 65.288 94.6355 65.56 95.5955 66.104C96.5715 66.648 97.3395 67.408 97.8995 68.384C98.4755 69.36 98.7635 70.512 98.7635 71.84C98.7635 73.168 98.4755 74.32 97.8995 75.296C97.3395 76.272 96.5715 77.04 95.5955 77.6C94.6355 78.144 93.5235 78.416 92.2595 78.416ZM85.1555 78.248V60.44H88.1555V68.408L87.9155 71.816L88.0115 75.224V78.248H85.1555ZM91.9235 75.848C92.6435 75.848 93.2835 75.688 93.8435 75.368C94.4195 75.048 94.8755 74.584 95.2115 73.976C95.5475 73.368 95.7155 72.656 95.7155 71.84C95.7155 71.008 95.5475 70.296 95.2115 69.704C94.8755 69.096 94.4195 68.632 93.8435 68.312C93.2835 67.992 92.6435 67.832 91.9235 67.832C91.2035 67.832 90.5555 67.992 89.9795 68.312C89.4035 68.632 88.9475 69.096 88.6115 69.704C88.2755 70.296 88.1075 71.008 88.1075 71.84C88.1075 72.656 88.2755 73.368 88.6115 73.976C88.9475 74.584 89.4035 75.048 89.9795 75.368C90.5555 75.688 91.2035 75.848 91.9235 75.848ZM107.369 78.416C106.057 78.416 104.889 78.136 103.865 77.576C102.841 77 102.033 76.216 101.441 75.224C100.849 74.232 100.553 73.104 100.553 71.84C100.553 70.56 100.849 69.432 101.441 68.456C102.033 67.464 102.841 66.688 103.865 66.128C104.889 65.568 106.057 65.288 107.369 65.288C108.697 65.288 109.873 65.568 110.897 66.128C111.937 66.688 112.745 67.456 113.321 68.432C113.913 69.408 114.209 70.544 114.209 71.84C114.209 73.104 113.913 74.232 113.321 75.224C112.745 76.216 111.937 77 110.897 77.576C109.873 78.136 108.697 78.416 107.369 78.416ZM107.369 75.848C108.105 75.848 108.761 75.688 109.337 75.368C109.913 75.048 110.361 74.584 110.681 73.976C111.017 73.368 111.185 72.656 111.185 71.84C111.185 71.008 111.017 70.296 110.681 69.704C110.361 69.096 109.913 68.632 109.337 68.312C108.761 67.992 108.113 67.832 107.393 67.832C106.657 67.832 106.001 67.992 105.425 68.312C104.865 68.632 104.417 69.096 104.081 69.704C103.745 70.296 103.577 71.008 103.577 71.84C103.577 72.656 103.745 73.368 104.081 73.976C104.417 74.584 104.865 75.048 105.425 75.368C106.001 75.688 106.649 75.848 107.369 75.848ZM124.809 78.248V75.656L124.641 75.104V70.568C124.641 69.688 124.377 69.008 123.849 68.528C123.321 68.032 122.521 67.784 121.449 67.784C120.729 67.784 120.017 67.896 119.313 68.12C118.625 68.344 118.041 68.656 117.561 69.056L116.385 66.872C117.073 66.344 117.889 65.952 118.833 65.696C119.793 65.424 120.785 65.288 121.809 65.288C123.665 65.288 125.097 65.736 126.105 66.632C127.129 67.512 127.641 68.88 127.641 70.736V78.248H124.809ZM120.777 78.416C119.817 78.416 118.977 78.256 118.257 77.936C117.537 77.6 116.977 77.144 116.577 76.568C116.193 75.976 116.001 75.312 116.001 74.576C116.001 73.856 116.169 73.208 116.505 72.632C116.857 72.056 117.425 71.6 118.209 71.264C118.993 70.928 120.033 70.76 121.329 70.76H125.049V72.752H121.545C120.521 72.752 119.833 72.92 119.481 73.256C119.129 73.576 118.953 73.976 118.953 74.456C118.953 75 119.169 75.432 119.601 75.752C120.033 76.072 120.633 76.232 121.401 76.232C122.137 76.232 122.793 76.064 123.369 75.728C123.961 75.392 124.385 74.896 124.641 74.24L125.145 76.04C124.857 76.792 124.337 77.376 123.585 77.792C122.849 78.208 121.913 78.416 120.777 78.416ZM131.491 78.248V65.432H134.347V68.96L134.011 67.928C134.395 67.064 134.995 66.408 135.811 65.96C136.643 65.512 137.675 65.288 138.907 65.288V68.144C138.779 68.112 138.659 68.096 138.547 68.096C138.435 68.08 138.323 68.072 138.211 68.072C137.075 68.072 136.171 68.408 135.499 69.08C134.827 69.736 134.491 70.72 134.491 72.032V78.248H131.491ZM146.759 78.416C145.527 78.416 144.415 78.144 143.423 77.6C142.447 77.04 141.679 76.272 141.119 75.296C140.559 74.32 140.279 73.168 140.279 71.84C140.279 70.512 140.559 69.36 141.119 68.384C141.679 67.408 142.447 66.648 143.423 66.104C144.415 65.56 145.527 65.288 146.759 65.288C147.831 65.288 148.791 65.528 149.639 66.008C150.487 66.472 151.159 67.184 151.655 68.144C152.151 69.104 152.399 70.336 152.399 71.84C152.399 73.328 152.159 74.56 151.679 75.536C151.199 76.496 150.535 77.216 149.687 77.696C148.839 78.176 147.863 78.416 146.759 78.416ZM147.119 75.848C147.839 75.848 148.479 75.688 149.039 75.368C149.615 75.048 150.071 74.584 150.407 73.976C150.759 73.368 150.935 72.656 150.935 71.84C150.935 71.008 150.759 70.296 150.407 69.704C150.071 69.096 149.615 68.632 149.039 68.312C148.479 67.992 147.839 67.832 147.119 67.832C146.399 67.832 145.751 67.992 145.175 68.312C144.615 68.632 144.159 69.096 143.807 69.704C143.471 70.296 143.303 71.008 143.303 71.84C143.303 72.656 143.471 73.368 143.807 73.976C144.159 74.584 144.615 75.048 145.175 75.368C145.751 75.688 146.399 75.848 147.119 75.848ZM151.007 78.248V75.224L151.127 71.816L150.887 68.408V60.44H153.863V78.248H151.007Z" fill="#3C3C3C"/>
<path d="M24.284 112.318C23.556 112.318 22.8653 112.197 22.212 111.954C21.568 111.702 21.0687 111.38 20.714 110.988L21.036 110.456C21.372 110.801 21.8293 111.095 22.408 111.338C22.996 111.571 23.6167 111.688 24.27 111.688C24.9233 111.688 25.4553 111.604 25.866 111.436C26.286 111.259 26.594 111.025 26.79 110.736C26.9953 110.447 27.098 110.125 27.098 109.77C27.098 109.35 26.986 109.014 26.762 108.762C26.538 108.51 26.244 108.309 25.88 108.16C25.516 108.011 25.1193 107.885 24.69 107.782C24.2607 107.679 23.8267 107.572 23.388 107.46C22.9493 107.339 22.548 107.185 22.184 106.998C21.82 106.811 21.526 106.559 21.302 106.242C21.0873 105.915 20.98 105.495 20.98 104.982C20.98 104.515 21.1013 104.086 21.344 103.694C21.5867 103.302 21.9647 102.985 22.478 102.742C22.9913 102.499 23.6493 102.378 24.452 102.378C24.9933 102.378 25.5253 102.457 26.048 102.616C26.58 102.775 27.0327 102.989 27.406 103.26L27.14 103.834C26.7293 103.554 26.286 103.349 25.81 103.218C25.3433 103.078 24.8907 103.008 24.452 103.008C23.8267 103.008 23.3087 103.097 22.898 103.274C22.4873 103.451 22.184 103.689 21.988 103.988C21.792 104.277 21.694 104.604 21.694 104.968C21.694 105.388 21.8013 105.724 22.016 105.976C22.24 106.228 22.534 106.429 22.898 106.578C23.262 106.727 23.6633 106.853 24.102 106.956C24.5407 107.059 24.9747 107.171 25.404 107.292C25.8333 107.404 26.23 107.553 26.594 107.74C26.958 107.927 27.252 108.179 27.476 108.496C27.7 108.813 27.812 109.224 27.812 109.728C27.812 110.185 27.686 110.615 27.434 111.016C27.182 111.408 26.7947 111.725 26.272 111.968C25.7587 112.201 25.096 112.318 24.284 112.318ZM32.9833 112.304C32.2459 112.304 31.5926 112.145 31.0233 111.828C30.4633 111.511 30.0199 111.072 29.6933 110.512C29.3759 109.952 29.2173 109.313 29.2173 108.594C29.2173 107.866 29.3666 107.227 29.6653 106.676C29.9733 106.116 30.3933 105.677 30.9253 105.36C31.4573 105.043 32.0546 104.884 32.7173 104.884C33.3799 104.884 33.9726 105.038 34.4953 105.346C35.0273 105.654 35.4426 106.088 35.7413 106.648C36.0493 107.199 36.2033 107.838 36.2033 108.566C36.2033 108.594 36.1986 108.627 36.1893 108.664C36.1893 108.692 36.1893 108.725 36.1893 108.762H29.7353V108.216H35.8113L35.5312 108.482C35.5406 107.913 35.4193 107.404 35.1673 106.956C34.9246 106.499 34.5933 106.144 34.1733 105.892C33.7533 105.631 33.2679 105.5 32.7173 105.5C32.1759 105.5 31.6906 105.631 31.2613 105.892C30.8413 106.144 30.5099 106.499 30.2673 106.956C30.0246 107.404 29.9033 107.917 29.9033 108.496V108.622C29.9033 109.219 30.0339 109.751 30.2953 110.218C30.5659 110.675 30.9346 111.035 31.4013 111.296C31.8679 111.548 32.3999 111.674 32.9973 111.674C33.4639 111.674 33.8979 111.59 34.2993 111.422C34.7099 111.254 35.0553 110.997 35.3353 110.652L35.7413 111.114C35.4239 111.506 35.0226 111.805 34.5373 112.01C34.0613 112.206 33.5433 112.304 32.9833 112.304ZM42.0368 112.304C41.3928 112.304 40.8094 112.155 40.2868 111.856C39.7734 111.557 39.3628 111.133 39.0548 110.582C38.7561 110.022 38.6068 109.359 38.6068 108.594C38.6068 107.829 38.7561 107.171 39.0548 106.62C39.3628 106.06 39.7734 105.631 40.2868 105.332C40.8094 105.033 41.3928 104.884 42.0368 104.884C42.7274 104.884 43.3434 105.043 43.8848 105.36C44.4354 105.668 44.8648 106.102 45.1728 106.662C45.4901 107.222 45.6488 107.866 45.6488 108.594C45.6488 109.322 45.4901 109.966 45.1728 110.526C44.8648 111.086 44.4354 111.525 43.8848 111.842C43.3434 112.15 42.7274 112.304 42.0368 112.304ZM38.3688 114.964V104.94H39.0408V107.334L38.9288 108.608L39.0688 109.882V114.964H38.3688ZM41.9948 111.674C42.5548 111.674 43.0588 111.548 43.5068 111.296C43.9548 111.035 44.3048 110.671 44.5568 110.204C44.8181 109.737 44.9488 109.201 44.9488 108.594C44.9488 107.978 44.8181 107.441 44.5568 106.984C44.3048 106.517 43.9548 106.158 43.5068 105.906C43.0588 105.645 42.5548 105.514 41.9948 105.514C41.4348 105.514 40.9308 105.645 40.4828 105.906C40.0441 106.158 39.6941 106.517 39.4328 106.984C39.1808 107.441 39.0548 107.978 39.0548 108.594C39.0548 109.201 39.1808 109.737 39.4328 110.204C39.6941 110.671 40.0441 111.035 40.4828 111.296C40.9308 111.548 41.4348 111.674 41.9948 111.674ZM49.944 112.304C49.3 112.304 48.8054 112.127 48.46 111.772C48.124 111.417 47.956 110.932 47.956 110.316V103.344H48.656V110.246C48.656 110.713 48.7727 111.072 49.006 111.324C49.2394 111.576 49.5754 111.702 50.014 111.702C50.4714 111.702 50.8494 111.567 51.148 111.296L51.442 111.786C51.2554 111.963 51.0267 112.094 50.756 112.178C50.4947 112.262 50.224 112.304 49.944 112.304ZM46.612 105.542V104.94H50.98V105.542H46.612ZM58.0259 112.248V102.756L58.3479 103.092H55.6319V102.448H58.7399V112.248H58.0259ZM65.0474 112.318C64.3007 112.318 63.6381 112.117 63.0594 111.716C62.4807 111.315 62.0281 110.745 61.7014 110.008C61.3747 109.261 61.2114 108.375 61.2114 107.348C61.2114 106.321 61.3747 105.439 61.7014 104.702C62.0281 103.955 62.4807 103.381 63.0594 102.98C63.6381 102.579 64.3007 102.378 65.0474 102.378C65.8034 102.378 66.4661 102.579 67.0354 102.98C67.6141 103.381 68.0667 103.955 68.3934 104.702C68.7201 105.439 68.8834 106.321 68.8834 107.348C68.8834 108.375 68.7201 109.261 68.3934 110.008C68.0667 110.745 67.6141 111.315 67.0354 111.716C66.4661 112.117 65.8034 112.318 65.0474 112.318ZM65.0474 111.66C65.6727 111.66 66.2187 111.492 66.6854 111.156C67.1521 110.811 67.5161 110.316 67.7774 109.672C68.0387 109.028 68.1694 108.253 68.1694 107.348C68.1694 106.433 68.0387 105.659 67.7774 105.024C67.5161 104.38 67.1521 103.89 66.6854 103.554C66.2187 103.209 65.6727 103.036 65.0474 103.036C64.4314 103.036 63.8854 103.209 63.4094 103.554C62.9427 103.89 62.5787 104.38 62.3174 105.024C62.0561 105.659 61.9254 106.433 61.9254 107.348C61.9254 108.253 62.0561 109.028 62.3174 109.672C62.5787 110.316 62.9427 110.811 63.4094 111.156C63.8854 111.492 64.4314 111.66 65.0474 111.66ZM74.12 108.804V108.174H77.718V108.804H74.12ZM86.4637 112.318C85.7357 112.318 85.045 112.197 84.3917 111.954C83.7477 111.702 83.2484 111.38 82.8937 110.988L83.2157 110.456C83.5517 110.801 84.009 111.095 84.5877 111.338C85.1757 111.571 85.7964 111.688 86.4497 111.688C87.103 111.688 87.635 111.604 88.0457 111.436C88.4657 111.259 88.7737 111.025 88.9697 110.736C89.175 110.447 89.2777 110.125 89.2777 109.77C89.2777 109.35 89.1657 109.014 88.9417 108.762C88.7177 108.51 88.4237 108.309 88.0597 108.16C87.6957 108.011 87.299 107.885 86.8697 107.782C86.4404 107.679 86.0064 107.572 85.5677 107.46C85.129 107.339 84.7277 107.185 84.3637 106.998C83.9997 106.811 83.7057 106.559 83.4817 106.242C83.267 105.915 83.1597 105.495 83.1597 104.982C83.1597 104.515 83.281 104.086 83.5237 103.694C83.7664 103.302 84.1444 102.985 84.6577 102.742C85.171 102.499 85.829 102.378 86.6317 102.378C87.173 102.378 87.705 102.457 88.2277 102.616C88.7597 102.775 89.2124 102.989 89.5857 103.26L89.3197 103.834C88.909 103.554 88.4657 103.349 87.9897 103.218C87.523 103.078 87.0704 103.008 86.6317 103.008C86.0064 103.008 85.4884 103.097 85.0777 103.274C84.667 103.451 84.3637 103.689 84.1677 103.988C83.9717 104.277 83.8737 104.604 83.8737 104.968C83.8737 105.388 83.981 105.724 84.1957 105.976C84.4197 106.228 84.7137 106.429 85.0777 106.578C85.4417 106.727 85.843 106.853 86.2817 106.956C86.7204 107.059 87.1544 107.171 87.5837 107.292C88.013 107.404 88.4097 107.553 88.7737 107.74C89.1377 107.927 89.4317 108.179 89.6557 108.496C89.8797 108.813 89.9917 109.224 89.9917 109.728C89.9917 110.185 89.8657 110.615 89.6137 111.016C89.3617 111.408 88.9744 111.725 88.4517 111.968C87.9384 112.201 87.2757 112.318 86.4637 112.318ZM95.1629 112.304C94.4256 112.304 93.7723 112.145 93.2029 111.828C92.6429 111.511 92.1996 111.072 91.8729 110.512C91.5556 109.952 91.3969 109.313 91.3969 108.594C91.3969 107.866 91.5463 107.227 91.8449 106.676C92.1529 106.116 92.5729 105.677 93.1049 105.36C93.6369 105.043 94.2343 104.884 94.8969 104.884C95.5596 104.884 96.1523 105.038 96.6749 105.346C97.2069 105.654 97.6223 106.088 97.9209 106.648C98.2289 107.199 98.3829 107.838 98.3829 108.566C98.3829 108.594 98.3783 108.627 98.3689 108.664C98.3689 108.692 98.3689 108.725 98.3689 108.762H91.9149V108.216H97.9909L97.7109 108.482C97.7203 107.913 97.5989 107.404 97.3469 106.956C97.1043 106.499 96.7729 106.144 96.3529 105.892C95.9329 105.631 95.4476 105.5 94.8969 105.5C94.3556 105.5 93.8703 105.631 93.4409 105.892C93.0209 106.144 92.6896 106.499 92.4469 106.956C92.2043 107.404 92.0829 107.917 92.0829 108.496V108.622C92.0829 109.219 92.2136 109.751 92.4749 110.218C92.7456 110.675 93.1143 111.035 93.5809 111.296C94.0476 111.548 94.5796 111.674 95.1769 111.674C95.6436 111.674 96.0776 111.59 96.4789 111.422C96.8896 111.254 97.2349 110.997 97.5149 110.652L97.9209 111.114C97.6036 111.506 97.2023 111.805 96.7169 112.01C96.2409 112.206 95.7229 112.304 95.1629 112.304ZM104.216 112.304C103.572 112.304 102.989 112.155 102.466 111.856C101.953 111.557 101.542 111.133 101.234 110.582C100.936 110.022 100.786 109.359 100.786 108.594C100.786 107.829 100.936 107.171 101.234 106.62C101.542 106.06 101.953 105.631 102.466 105.332C102.989 105.033 103.572 104.884 104.216 104.884C104.907 104.884 105.523 105.043 106.064 105.36C106.615 105.668 107.044 106.102 107.352 106.662C107.67 107.222 107.828 107.866 107.828 108.594C107.828 109.322 107.67 109.966 107.352 110.526C107.044 111.086 106.615 111.525 106.064 111.842C105.523 112.15 104.907 112.304 104.216 112.304ZM100.548 114.964V104.94H101.22V107.334L101.108 108.608L101.248 109.882V114.964H100.548ZM104.174 111.674C104.734 111.674 105.238 111.548 105.686 111.296C106.134 111.035 106.484 110.671 106.736 110.204C106.998 109.737 107.128 109.201 107.128 108.594C107.128 107.978 106.998 107.441 106.736 106.984C106.484 106.517 106.134 106.158 105.686 105.906C105.238 105.645 104.734 105.514 104.174 105.514C103.614 105.514 103.11 105.645 102.662 105.906C102.224 106.158 101.874 106.517 101.612 106.984C101.36 107.441 101.234 107.978 101.234 108.594C101.234 109.201 101.36 109.737 101.612 110.204C101.874 110.671 102.224 111.035 102.662 111.296C103.11 111.548 103.614 111.674 104.174 111.674ZM112.124 112.304C111.48 112.304 110.985 112.127 110.64 111.772C110.304 111.417 110.136 110.932 110.136 110.316V103.344H110.836V110.246C110.836 110.713 110.952 111.072 111.186 111.324C111.419 111.576 111.755 111.702 112.194 111.702C112.651 111.702 113.029 111.567 113.328 111.296L113.622 111.786C113.435 111.963 113.206 112.094 112.936 112.178C112.674 112.262 112.404 112.304 112.124 112.304ZM108.792 105.542V104.94H113.16V105.542H108.792ZM120.206 112.248V102.756L120.528 103.092H117.812V102.448H120.92V112.248H120.206ZM127.325 112.318C126.466 112.318 125.743 112.122 125.155 111.73C124.576 111.338 124.138 110.773 123.839 110.036C123.54 109.299 123.391 108.421 123.391 107.404C123.391 106.293 123.573 105.369 123.937 104.632C124.301 103.885 124.81 103.325 125.463 102.952C126.116 102.569 126.877 102.378 127.745 102.378C128.165 102.378 128.566 102.415 128.949 102.49C129.332 102.565 129.672 102.695 129.971 102.882L129.677 103.456C129.425 103.297 129.131 103.185 128.795 103.12C128.468 103.045 128.118 103.008 127.745 103.008C126.644 103.008 125.762 103.367 125.099 104.086C124.436 104.795 124.105 105.864 124.105 107.292C124.105 107.507 124.119 107.782 124.147 108.118C124.175 108.445 124.236 108.767 124.329 109.084L124.077 109.014C124.142 108.473 124.324 108.011 124.623 107.628C124.922 107.245 125.304 106.956 125.771 106.76C126.238 106.555 126.751 106.452 127.311 106.452C127.964 106.452 128.534 106.573 129.019 106.816C129.514 107.049 129.896 107.385 130.167 107.824C130.447 108.263 130.587 108.776 130.587 109.364C130.587 109.961 130.442 110.484 130.153 110.932C129.873 111.371 129.486 111.711 128.991 111.954C128.506 112.197 127.95 112.318 127.325 112.318ZM127.297 111.702C127.81 111.702 128.258 111.609 128.641 111.422C129.024 111.226 129.322 110.955 129.537 110.61C129.761 110.255 129.873 109.845 129.873 109.378C129.873 108.678 129.635 108.118 129.159 107.698C128.692 107.278 128.044 107.068 127.213 107.068C126.681 107.068 126.21 107.171 125.799 107.376C125.388 107.581 125.066 107.861 124.833 108.216C124.609 108.571 124.497 108.967 124.497 109.406C124.497 109.789 124.604 110.157 124.819 110.512C125.034 110.857 125.346 111.142 125.757 111.366C126.177 111.59 126.69 111.702 127.297 111.702Z" fill="#3C3C3C"/>
<path d="M24.298 186.332C23.57 186.332 22.87 186.215 22.198 185.982C21.5353 185.739 21.022 185.431 20.658 185.058L21.064 184.26C21.4093 184.596 21.8713 184.881 22.45 185.114C23.038 185.338 23.654 185.45 24.298 185.45C24.914 185.45 25.4133 185.375 25.796 185.226C26.188 185.067 26.4727 184.857 26.65 184.596C26.8367 184.335 26.93 184.045 26.93 183.728C26.93 183.345 26.818 183.037 26.594 182.804C26.3793 182.571 26.0947 182.389 25.74 182.258C25.3853 182.118 24.9933 181.997 24.564 181.894C24.1347 181.791 23.7053 181.684 23.276 181.572C22.8467 181.451 22.45 181.292 22.086 181.096C21.7313 180.9 21.442 180.643 21.218 180.326C21.0033 179.999 20.896 179.575 20.896 179.052C20.896 178.567 21.022 178.123 21.274 177.722C21.5353 177.311 21.932 176.985 22.464 176.742C22.996 176.49 23.6773 176.364 24.508 176.364C25.0587 176.364 25.6047 176.443 26.146 176.602C26.6873 176.751 27.154 176.961 27.546 177.232L27.196 178.058C26.776 177.778 26.328 177.573 25.852 177.442C25.3853 177.311 24.9327 177.246 24.494 177.246C23.906 177.246 23.4207 177.325 23.038 177.484C22.6553 177.643 22.3707 177.857 22.184 178.128C22.0067 178.389 21.918 178.688 21.918 179.024C21.918 179.407 22.0253 179.715 22.24 179.948C22.464 180.181 22.7533 180.363 23.108 180.494C23.472 180.625 23.8687 180.741 24.298 180.844C24.7273 180.947 25.152 181.059 25.572 181.18C26.0013 181.301 26.3933 181.46 26.748 181.656C27.112 181.843 27.4013 182.095 27.616 182.412C27.84 182.729 27.952 183.145 27.952 183.658C27.952 184.134 27.8213 184.577 27.56 184.988C27.2987 185.389 26.8973 185.716 26.356 185.968C25.824 186.211 25.138 186.332 24.298 186.332ZM34.6053 186.248V184.624L34.5633 184.358V181.642C34.5633 181.017 34.3859 180.536 34.0313 180.2C33.6859 179.864 33.1679 179.696 32.4773 179.696C32.0013 179.696 31.5486 179.775 31.1193 179.934C30.6899 180.093 30.3259 180.303 30.0273 180.564L29.5793 179.822C29.9526 179.505 30.4006 179.262 30.9233 179.094C31.4459 178.917 31.9966 178.828 32.5753 178.828C33.5273 178.828 34.2599 179.066 34.7733 179.542C35.2959 180.009 35.5573 180.723 35.5573 181.684V186.248H34.6053ZM32.0713 186.318C31.5206 186.318 31.0399 186.229 30.6293 186.052C30.2279 185.865 29.9199 185.613 29.7053 185.296C29.4906 184.969 29.3833 184.596 29.3833 184.176C29.3833 183.793 29.4719 183.448 29.6493 183.14C29.8359 182.823 30.1346 182.571 30.5453 182.384C30.9653 182.188 31.5253 182.09 32.2253 182.09H34.7593V182.832H32.2533C31.5439 182.832 31.0493 182.958 30.7693 183.21C30.4986 183.462 30.3633 183.775 30.3633 184.148C30.3633 184.568 30.5266 184.904 30.8533 185.156C31.1799 185.408 31.6373 185.534 32.2253 185.534C32.7853 185.534 33.2659 185.408 33.6673 185.156C34.0779 184.895 34.3766 184.521 34.5633 184.036L34.7873 184.722C34.6006 185.207 34.2739 185.595 33.8073 185.884C33.3499 186.173 32.7713 186.318 32.0713 186.318ZM38.2571 186.248V175.86H39.2511V186.248H38.2571ZM45.1389 186.318C44.3735 186.318 43.7015 186.159 43.1229 185.842C42.5442 185.515 42.0915 185.072 41.7649 184.512C41.4382 183.943 41.2749 183.294 41.2749 182.566C41.2749 181.838 41.4289 181.194 41.7369 180.634C42.0542 180.074 42.4835 179.635 43.0249 179.318C43.5755 178.991 44.1915 178.828 44.8729 178.828C45.5635 178.828 46.1749 178.987 46.7069 179.304C47.2482 179.612 47.6729 180.051 47.9809 180.62C48.2889 181.18 48.4429 181.829 48.4429 182.566C48.4429 182.613 48.4382 182.664 48.4289 182.72C48.4289 182.767 48.4289 182.818 48.4289 182.874H42.0309V182.132H47.8969L47.5049 182.426C47.5049 181.894 47.3882 181.423 47.1549 181.012C46.9309 180.592 46.6229 180.265 46.2309 180.032C45.8389 179.799 45.3862 179.682 44.8729 179.682C44.3689 179.682 43.9162 179.799 43.5149 180.032C43.1135 180.265 42.8009 180.592 42.5769 181.012C42.3529 181.432 42.2409 181.913 42.2409 182.454V182.608C42.2409 183.168 42.3622 183.663 42.6049 184.092C42.8569 184.512 43.2022 184.843 43.6409 185.086C44.0889 185.319 44.5975 185.436 45.1669 185.436C45.6149 185.436 46.0302 185.357 46.4129 185.198C46.8049 185.039 47.1409 184.797 47.4209 184.47L47.9809 185.114C47.6542 185.506 47.2435 185.805 46.7489 186.01C46.2635 186.215 45.7269 186.318 45.1389 186.318ZM52.4401 186.318C51.8334 186.318 51.2594 186.234 50.7181 186.066C50.1767 185.889 49.7521 185.669 49.4441 185.408L49.8921 184.624C50.1907 184.848 50.5734 185.044 51.0401 185.212C51.5067 185.371 51.9967 185.45 52.5101 185.45C53.2101 185.45 53.7141 185.343 54.0221 185.128C54.3301 184.904 54.4841 184.61 54.4841 184.246C54.4841 183.975 54.3954 183.765 54.2181 183.616C54.0501 183.457 53.8261 183.341 53.5461 183.266C53.2661 183.182 52.9534 183.112 52.6081 183.056C52.2627 183 51.9174 182.935 51.5721 182.86C51.2361 182.785 50.9281 182.678 50.6481 182.538C50.3681 182.389 50.1394 182.188 49.9621 181.936C49.7941 181.684 49.7101 181.348 49.7101 180.928C49.7101 180.527 49.8221 180.167 50.0461 179.85C50.2701 179.533 50.5967 179.285 51.0261 179.108C51.4647 178.921 51.9967 178.828 52.6221 178.828C53.0981 178.828 53.5741 178.893 54.0501 179.024C54.5261 179.145 54.9181 179.309 55.2261 179.514L54.7921 180.312C54.4654 180.088 54.1154 179.929 53.7421 179.836C53.3687 179.733 52.9954 179.682 52.6221 179.682C51.9594 179.682 51.4694 179.799 51.1521 180.032C50.8441 180.256 50.6901 180.545 50.6901 180.9C50.6901 181.18 50.7741 181.399 50.9421 181.558C51.1194 181.717 51.3481 181.843 51.6281 181.936C51.9174 182.02 52.2301 182.09 52.5661 182.146C52.9114 182.202 53.2521 182.272 53.5881 182.356C53.9334 182.431 54.2461 182.538 54.5261 182.678C54.8154 182.809 55.0441 183 55.2121 183.252C55.3894 183.495 55.4781 183.817 55.4781 184.218C55.4781 184.647 55.3567 185.021 55.1141 185.338C54.8807 185.646 54.5354 185.889 54.0781 186.066C53.6301 186.234 53.0841 186.318 52.4401 186.318ZM64.7601 186.318C64.1161 186.318 63.5374 186.173 63.0241 185.884C62.5107 185.585 62.1047 185.156 61.8061 184.596C61.5074 184.036 61.3581 183.359 61.3581 182.566C61.3581 181.763 61.5074 181.087 61.8061 180.536C62.1141 179.976 62.5247 179.551 63.0381 179.262C63.5514 178.973 64.1254 178.828 64.7601 178.828C65.4601 178.828 66.0854 178.987 66.6361 179.304C67.1961 179.612 67.6347 180.046 67.9521 180.606C68.2694 181.166 68.4281 181.819 68.4281 182.566C68.4281 183.303 68.2694 183.957 67.9521 184.526C67.6347 185.086 67.1961 185.525 66.6361 185.842C66.0854 186.159 65.4601 186.318 64.7601 186.318ZM60.9661 186.248V175.86H61.9601V181.068L61.8201 182.552L61.9181 184.036V186.248H60.9661ZM64.6901 185.436C65.2127 185.436 65.6794 185.319 66.0901 185.086C66.5007 184.843 66.8274 184.507 67.0701 184.078C67.3127 183.639 67.4341 183.135 67.4341 182.566C67.4341 181.987 67.3127 181.483 67.0701 181.054C66.8274 180.625 66.5007 180.293 66.0901 180.06C65.6794 179.817 65.2127 179.696 64.6901 179.696C64.1674 179.696 63.6961 179.817 63.2761 180.06C62.8654 180.293 62.5387 180.625 62.2961 181.054C62.0627 181.483 61.9461 181.987 61.9461 182.566C61.9461 183.135 62.0627 183.639 62.2961 184.078C62.5387 184.507 62.8654 184.843 63.2761 185.086C63.6961 185.319 64.1674 185.436 64.6901 185.436ZM70.3053 189.034C69.9599 189.034 69.6286 188.978 69.3113 188.866C69.0033 188.754 68.7373 188.586 68.5133 188.362L68.9753 187.62C69.1619 187.797 69.3626 187.933 69.5773 188.026C69.8013 188.129 70.0486 188.18 70.3193 188.18C70.6459 188.18 70.9259 188.087 71.1593 187.9C71.4019 187.723 71.6306 187.405 71.8453 186.948L72.3213 185.87L72.4333 185.716L75.4573 178.898H76.4373L72.7553 187.13C72.5499 187.606 72.3213 187.984 72.0693 188.264C71.8266 188.544 71.5606 188.74 71.2713 188.852C70.9819 188.973 70.6599 189.034 70.3053 189.034ZM72.2653 186.458L68.8773 178.898H69.9133L72.9093 185.646L72.2653 186.458ZM81.5012 186.248V178.898H82.4532V180.9L82.3552 180.55C82.5606 179.99 82.9059 179.565 83.3912 179.276C83.8766 178.977 84.4786 178.828 85.1972 178.828V179.794C85.1599 179.794 85.1226 179.794 85.0852 179.794C85.0479 179.785 85.0106 179.78 84.9732 179.78C84.1986 179.78 83.5919 180.018 83.1532 180.494C82.7146 180.961 82.4952 181.628 82.4952 182.496V186.248H81.5012ZM90.0646 186.318C89.2993 186.318 88.6273 186.159 88.0486 185.842C87.47 185.515 87.0173 185.072 86.6906 184.512C86.364 183.943 86.2006 183.294 86.2006 182.566C86.2006 181.838 86.3546 181.194 86.6626 180.634C86.98 180.074 87.4093 179.635 87.9506 179.318C88.5013 178.991 89.1173 178.828 89.7986 178.828C90.4893 178.828 91.1006 178.987 91.6326 179.304C92.174 179.612 92.5986 180.051 92.9066 180.62C93.2146 181.18 93.3686 181.829 93.3686 182.566C93.3686 182.613 93.364 182.664 93.3546 182.72C93.3546 182.767 93.3546 182.818 93.3546 182.874H86.9566V182.132H92.8226L92.4306 182.426C92.4306 181.894 92.314 181.423 92.0806 181.012C91.8566 180.592 91.5486 180.265 91.1566 180.032C90.7646 179.799 90.312 179.682 89.7986 179.682C89.2946 179.682 88.842 179.799 88.4406 180.032C88.0393 180.265 87.7266 180.592 87.5026 181.012C87.2786 181.432 87.1666 181.913 87.1666 182.454V182.608C87.1666 183.168 87.288 183.663 87.5306 184.092C87.7826 184.512 88.128 184.843 88.5666 185.086C89.0146 185.319 89.5233 185.436 90.0926 185.436C90.5406 185.436 90.956 185.357 91.3386 185.198C91.7306 185.039 92.0666 184.797 92.3466 184.47L92.9066 185.114C92.58 185.506 92.1693 185.805 91.6746 186.01C91.1893 186.215 90.6526 186.318 90.0646 186.318ZM98.5279 189.034C97.8559 189.034 97.2119 188.936 96.5959 188.74C95.9799 188.544 95.4805 188.264 95.0979 187.9L95.6019 187.144C95.9472 187.452 96.3719 187.695 96.8759 187.872C97.3892 188.059 97.9305 188.152 98.4999 188.152C99.4332 188.152 100.119 187.933 100.558 187.494C100.997 187.065 101.216 186.393 101.216 185.478V183.644L101.356 182.384L101.258 181.124V178.898H102.21V185.352C102.21 186.621 101.897 187.55 101.272 188.138C100.656 188.735 99.7412 189.034 98.5279 189.034ZM98.3459 185.968C97.6459 185.968 97.0159 185.819 96.4559 185.52C95.8959 185.212 95.4525 184.787 95.1259 184.246C94.8085 183.705 94.6499 183.084 94.6499 182.384C94.6499 181.684 94.8085 181.068 95.1259 180.536C95.4525 179.995 95.8959 179.575 96.4559 179.276C97.0159 178.977 97.6459 178.828 98.3459 178.828C98.9992 178.828 99.5872 178.963 100.11 179.234C100.633 179.505 101.048 179.906 101.356 180.438C101.664 180.97 101.818 181.619 101.818 182.384C101.818 183.149 101.664 183.798 101.356 184.33C101.048 184.862 100.633 185.268 100.11 185.548C99.5872 185.828 98.9992 185.968 98.3459 185.968ZM98.4439 185.086C98.9852 185.086 99.4659 184.974 99.8859 184.75C100.306 184.517 100.637 184.199 100.88 183.798C101.123 183.387 101.244 182.916 101.244 182.384C101.244 181.852 101.123 181.385 100.88 180.984C100.637 180.583 100.306 180.27 99.8859 180.046C99.4659 179.813 98.9852 179.696 98.4439 179.696C97.9119 179.696 97.4312 179.813 97.0019 180.046C96.5819 180.27 96.2505 180.583 96.0079 180.984C95.7745 181.385 95.6579 181.852 95.6579 182.384C95.6579 182.916 95.7745 183.387 96.0079 183.798C96.2505 184.199 96.5819 184.517 97.0019 184.75C97.4312 184.974 97.9119 185.086 98.4439 185.086ZM104.976 186.248V178.898H105.97V186.248H104.976ZM105.48 177.274C105.275 177.274 105.102 177.204 104.962 177.064C104.822 176.924 104.752 176.756 104.752 176.56C104.752 176.364 104.822 176.201 104.962 176.07C105.102 175.93 105.275 175.86 105.48 175.86C105.685 175.86 105.858 175.925 105.998 176.056C106.138 176.187 106.208 176.35 106.208 176.546C106.208 176.751 106.138 176.924 105.998 177.064C105.867 177.204 105.695 177.274 105.48 177.274ZM111.732 186.318C111.022 186.318 110.383 186.159 109.814 185.842C109.254 185.515 108.81 185.072 108.484 184.512C108.157 183.943 107.994 183.294 107.994 182.566C107.994 181.829 108.157 181.18 108.484 180.62C108.81 180.06 109.254 179.621 109.814 179.304C110.374 178.987 111.013 178.828 111.732 178.828C112.46 178.828 113.104 178.987 113.664 179.304C114.233 179.621 114.676 180.06 114.994 180.62C115.32 181.18 115.484 181.829 115.484 182.566C115.484 183.294 115.32 183.943 114.994 184.512C114.676 185.072 114.233 185.515 113.664 185.842C113.094 186.159 112.45 186.318 111.732 186.318ZM111.732 185.436C112.264 185.436 112.735 185.319 113.146 185.086C113.556 184.843 113.878 184.507 114.112 184.078C114.354 183.639 114.476 183.135 114.476 182.566C114.476 181.987 114.354 181.483 114.112 181.054C113.878 180.625 113.556 180.293 113.146 180.06C112.735 179.817 112.268 179.696 111.746 179.696C111.223 179.696 110.756 179.817 110.346 180.06C109.935 180.293 109.608 180.625 109.366 181.054C109.123 181.483 109.002 181.987 109.002 182.566C109.002 183.135 109.123 183.639 109.366 184.078C109.608 184.507 109.935 184.843 110.346 185.086C110.756 185.319 111.218 185.436 111.732 185.436ZM121.265 178.828C121.862 178.828 122.385 178.945 122.833 179.178C123.29 179.402 123.645 179.747 123.897 180.214C124.158 180.681 124.289 181.269 124.289 181.978V186.248H123.295V182.076C123.295 181.301 123.099 180.718 122.707 180.326C122.324 179.925 121.783 179.724 121.083 179.724C120.56 179.724 120.103 179.831 119.711 180.046C119.328 180.251 119.03 180.555 118.815 180.956C118.61 181.348 118.507 181.824 118.507 182.384V186.248H117.513V178.898H118.465V180.914L118.311 180.536C118.544 180.004 118.918 179.589 119.431 179.29C119.944 178.982 120.556 178.828 121.265 178.828Z" fill="#7B7B7B"/>
<path d="M23.584 260.316V254.38H24.466V260.316H23.584ZM20.98 257.768V256.942H27.07V257.768H20.98ZM32.2628 262.248V261.534L36.3368 257.544C36.7101 257.18 36.9901 256.863 37.1768 256.592C37.3635 256.312 37.4895 256.051 37.5548 255.808C37.6201 255.565 37.6528 255.337 37.6528 255.122C37.6528 254.553 37.4568 254.105 37.0648 253.778C36.6821 253.451 36.1128 253.288 35.3568 253.288C34.7781 253.288 34.2648 253.377 33.8168 253.554C33.3781 253.731 33.0001 254.007 32.6828 254.38L31.9688 253.764C32.3515 253.316 32.8415 252.971 33.4388 252.728C34.0361 252.485 34.7035 252.364 35.4408 252.364C36.1035 252.364 36.6775 252.471 37.1628 252.686C37.6481 252.891 38.0215 253.195 38.2828 253.596C38.5535 253.997 38.6888 254.469 38.6888 255.01C38.6888 255.327 38.6421 255.64 38.5488 255.948C38.4648 256.256 38.3061 256.583 38.0728 256.928C37.8488 257.264 37.5175 257.647 37.0788 258.076L33.3408 261.744L33.0608 261.352H39.1368V262.248H32.2628ZM44.2805 262.332C43.5245 262.332 42.8525 262.136 42.2645 261.744C41.6765 261.343 41.2145 260.773 40.8785 260.036C40.5425 259.289 40.3745 258.393 40.3745 257.348C40.3745 256.303 40.5425 255.411 40.8785 254.674C41.2145 253.927 41.6765 253.358 42.2645 252.966C42.8525 252.565 43.5245 252.364 44.2805 252.364C45.0365 252.364 45.7085 252.565 46.2965 252.966C46.8845 253.358 47.3465 253.927 47.6825 254.674C48.0278 255.411 48.2005 256.303 48.2005 257.348C48.2005 258.393 48.0278 259.289 47.6825 260.036C47.3465 260.773 46.8845 261.343 46.2965 261.744C45.7085 262.136 45.0365 262.332 44.2805 262.332ZM44.2805 261.408C44.8592 261.408 45.3632 261.254 45.7925 260.946C46.2218 260.629 46.5578 260.171 46.8005 259.574C47.0432 258.967 47.1645 258.225 47.1645 257.348C47.1645 256.471 47.0432 255.733 46.8005 255.136C46.5578 254.529 46.2218 254.072 45.7925 253.764C45.3632 253.447 44.8592 253.288 44.2805 253.288C43.7205 253.288 43.2212 253.447 42.7825 253.764C42.3438 254.072 42.0032 254.529 41.7605 255.136C41.5178 255.733 41.3965 256.471 41.3965 257.348C41.3965 258.225 41.5178 258.967 41.7605 259.574C42.0032 260.171 42.3438 260.629 42.7825 260.946C43.2212 261.254 43.7205 261.408 44.2805 261.408ZM50.2496 262.318C50.0443 262.318 49.867 262.243 49.7176 262.094C49.5776 261.945 49.5076 261.763 49.5076 261.548C49.5076 261.324 49.5776 261.142 49.7176 261.002C49.867 260.862 50.0443 260.792 50.2496 260.792C50.455 260.792 50.6276 260.862 50.7676 261.002C50.917 261.142 50.9916 261.324 50.9916 261.548C50.9916 261.763 50.917 261.945 50.7676 262.094C50.6276 262.243 50.455 262.318 50.2496 262.318ZM56.216 262.332C55.46 262.332 54.788 262.136 54.2 261.744C53.612 261.343 53.15 260.773 52.814 260.036C52.478 259.289 52.31 258.393 52.31 257.348C52.31 256.303 52.478 255.411 52.814 254.674C53.15 253.927 53.612 253.358 54.2 252.966C54.788 252.565 55.46 252.364 56.216 252.364C56.972 252.364 57.644 252.565 58.232 252.966C58.82 253.358 59.282 253.927 59.618 254.674C59.9634 255.411 60.136 256.303 60.136 257.348C60.136 258.393 59.9634 259.289 59.618 260.036C59.282 260.773 58.82 261.343 58.232 261.744C57.644 262.136 56.972 262.332 56.216 262.332ZM56.216 261.408C56.7947 261.408 57.2987 261.254 57.728 260.946C58.1574 260.629 58.4934 260.171 58.736 259.574C58.9787 258.967 59.1 258.225 59.1 257.348C59.1 256.471 58.9787 255.733 58.736 255.136C58.4934 254.529 58.1574 254.072 57.728 253.764C57.2987 253.447 56.7947 253.288 56.216 253.288C55.656 253.288 55.1567 253.447 54.718 253.764C54.2794 254.072 53.9387 254.529 53.696 255.136C53.4534 255.733 53.332 256.471 53.332 257.348C53.332 258.225 53.4534 258.967 53.696 259.574C53.9387 260.171 54.2794 260.629 54.718 260.946C55.1567 261.254 55.656 261.408 56.216 261.408ZM65.3036 262.332C64.5196 262.332 63.8429 262.22 63.2736 261.996C62.7136 261.772 62.2796 261.45 61.9716 261.03C61.6729 260.601 61.5236 260.097 61.5236 259.518C61.5236 258.958 61.6682 258.482 61.9576 258.09C62.2562 257.689 62.6856 257.381 63.2456 257.166C63.8149 256.951 64.5009 256.844 65.3036 256.844C66.0969 256.844 66.7782 256.951 67.3476 257.166C67.9169 257.381 68.3509 257.689 68.6496 258.09C68.9576 258.482 69.1116 258.958 69.1116 259.518C69.1116 260.097 68.9576 260.601 68.6496 261.03C68.3416 261.45 67.9029 261.772 67.3336 261.996C66.7642 262.22 66.0876 262.332 65.3036 262.332ZM65.3036 261.478C66.1716 261.478 66.8482 261.301 67.3336 260.946C67.8282 260.591 68.0756 260.111 68.0756 259.504C68.0756 258.897 67.8282 258.421 67.3336 258.076C66.8482 257.721 66.1716 257.544 65.3036 257.544C64.4356 257.544 63.7589 257.721 63.2736 258.076C62.7882 258.421 62.5456 258.897 62.5456 259.504C62.5456 260.111 62.7882 260.591 63.2736 260.946C63.7589 261.301 64.4356 261.478 65.3036 261.478ZM65.3036 257.418C64.5756 257.418 63.9549 257.32 63.4416 257.124C62.9376 256.928 62.5502 256.648 62.2796 256.284C62.0089 255.911 61.8736 255.467 61.8736 254.954C61.8736 254.413 62.0136 253.951 62.2936 253.568C62.5829 253.176 62.9842 252.877 63.4976 252.672C64.0109 252.467 64.6129 252.364 65.3036 252.364C65.9942 252.364 66.5962 252.467 67.1096 252.672C67.6322 252.877 68.0382 253.176 68.3276 253.568C68.6169 253.951 68.7616 254.413 68.7616 254.954C68.7616 255.467 68.6262 255.911 68.3556 256.284C68.0849 256.648 67.6882 256.928 67.1656 257.124C66.6522 257.32 66.0316 257.418 65.3036 257.418ZM65.3036 256.746C66.0689 256.746 66.6662 256.587 67.0956 256.27C67.5249 255.953 67.7396 255.528 67.7396 254.996C67.7396 254.436 67.5156 254.002 67.0676 253.694C66.6289 253.377 66.0409 253.218 65.3036 253.218C64.5662 253.218 63.9782 253.377 63.5396 253.694C63.1009 254.002 62.8816 254.431 62.8816 254.982C62.8816 255.523 63.0916 255.953 63.5116 256.27C63.9409 256.587 64.5382 256.746 65.3036 256.746ZM75.4874 262.248L82.1794 252.448H83.0054L76.3134 262.248H75.4874ZM76.2434 257.698C75.8047 257.698 75.4174 257.591 75.0814 257.376C74.7454 257.152 74.484 256.839 74.2974 256.438C74.12 256.037 74.0314 255.57 74.0314 255.038C74.0314 254.506 74.12 254.039 74.2974 253.638C74.484 253.237 74.7454 252.929 75.0814 252.714C75.4174 252.49 75.8047 252.378 76.2434 252.378C76.682 252.378 77.0647 252.49 77.3914 252.714C77.7274 252.929 77.9887 253.237 78.1754 253.638C78.362 254.039 78.4554 254.506 78.4554 255.038C78.4554 255.57 78.362 256.037 78.1754 256.438C77.9887 256.839 77.7274 257.152 77.3914 257.376C77.0647 257.591 76.682 257.698 76.2434 257.698ZM76.2434 257.068C76.7007 257.068 77.0647 256.891 77.3354 256.536C77.6154 256.172 77.7554 255.673 77.7554 255.038C77.7554 254.403 77.6154 253.909 77.3354 253.554C77.0647 253.19 76.7007 253.008 76.2434 253.008C75.7767 253.008 75.408 253.19 75.1374 253.554C74.8667 253.909 74.7314 254.403 74.7314 255.038C74.7314 255.673 74.8667 256.172 75.1374 256.536C75.408 256.891 75.7767 257.068 76.2434 257.068ZM82.2494 262.318C81.82 262.318 81.4374 262.211 81.1014 261.996C80.7654 261.772 80.504 261.459 80.3174 261.058C80.1307 260.657 80.0374 260.19 80.0374 259.658C80.0374 259.126 80.1307 258.659 80.3174 258.258C80.504 257.857 80.7654 257.549 81.1014 257.334C81.4374 257.11 81.82 256.998 82.2494 256.998C82.6974 256.998 83.0847 257.11 83.4114 257.334C83.7474 257.549 84.004 257.857 84.1814 258.258C84.368 258.659 84.4614 259.126 84.4614 259.658C84.4614 260.19 84.368 260.657 84.1814 261.058C84.004 261.459 83.7474 261.772 83.4114 261.996C83.0847 262.211 82.6974 262.318 82.2494 262.318ZM82.2494 261.688C82.7067 261.688 83.0707 261.511 83.3414 261.156C83.6214 260.792 83.7614 260.293 83.7614 259.658C83.7614 259.023 83.6214 258.529 83.3414 258.174C83.0707 257.81 82.7067 257.628 82.2494 257.628C81.792 257.628 81.4234 257.81 81.1434 258.174C80.8727 258.529 80.7374 259.023 80.7374 259.658C80.7374 260.293 80.8727 260.792 81.1434 261.156C81.4234 261.511 81.792 261.688 82.2494 261.688Z" fill="#00AE3A"/>
<path d="M22.088 300.248V292.208L22.472 292.616H20.108V291.848H22.952V300.248H22.088ZM28.3079 300.32C27.6599 300.32 27.0839 300.152 26.5799 299.816C26.0759 299.472 25.6799 298.984 25.3919 298.352C25.1039 297.712 24.9599 296.944 24.9599 296.048C24.9599 295.152 25.1039 294.388 25.3919 293.756C25.6799 293.116 26.0759 292.628 26.5799 292.292C27.0839 291.948 27.6599 291.776 28.3079 291.776C28.9559 291.776 29.5319 291.948 30.0359 292.292C30.5399 292.628 30.9359 293.116 31.2239 293.756C31.5199 294.388 31.6679 295.152 31.6679 296.048C31.6679 296.944 31.5199 297.712 31.2239 298.352C30.9359 298.984 30.5399 299.472 30.0359 299.816C29.5319 300.152 28.9559 300.32 28.3079 300.32ZM28.3079 299.528C28.8039 299.528 29.2359 299.396 29.6039 299.132C29.9719 298.86 30.2599 298.468 30.4679 297.956C30.6759 297.436 30.7799 296.8 30.7799 296.048C30.7799 295.296 30.6759 294.664 30.4679 294.152C30.2599 293.632 29.9719 293.24 29.6039 292.976C29.2359 292.704 28.8039 292.568 28.3079 292.568C27.8279 292.568 27.3999 292.704 27.0239 292.976C26.6479 293.24 26.3559 293.632 26.1479 294.152C25.9399 294.664 25.8359 295.296 25.8359 296.048C25.8359 296.8 25.9399 297.436 26.1479 297.956C26.3559 298.468 26.6479 298.86 27.0239 299.132C27.3999 299.396 27.8279 299.528 28.3079 299.528ZM34.1413 298.616L34.1653 297.524L38.0893 293.948H39.1333L36.3613 296.6L35.8813 297.008L34.1413 298.616ZM33.4693 300.248V291.344H34.3213V300.248H33.4693ZM38.3533 300.248L35.7253 296.972L36.2773 296.312L39.3973 300.248H38.3533ZM42.3025 298.592V293.504H43.0585V298.592H42.3025ZM40.0705 296.408V295.7H45.2905V296.408H40.0705Z" fill="#737373"/>
<path d="M23.276 340.32C22.676 340.32 22.104 340.224 21.56 340.032C21.016 339.832 20.584 339.568 20.264 339.24L20.684 338.556C20.948 338.836 21.308 339.068 21.764 339.252C22.228 339.436 22.728 339.528 23.264 339.528C23.976 339.528 24.516 339.372 24.884 339.06C25.26 338.74 25.448 338.324 25.448 337.812C25.448 337.452 25.36 337.144 25.184 336.888C25.016 336.624 24.728 336.42 24.32 336.276C23.912 336.132 23.352 336.06 22.64 336.06H20.852L21.284 331.848H25.88V332.616H21.632L22.076 332.196L21.704 335.724L21.26 335.292H22.832C23.68 335.292 24.36 335.396 24.872 335.604C25.384 335.812 25.752 336.104 25.976 336.48C26.208 336.848 26.324 337.28 26.324 337.776C26.324 338.248 26.212 338.68 25.988 339.072C25.764 339.456 25.428 339.76 24.98 339.984C24.532 340.208 23.964 340.32 23.276 340.32ZM28.6569 338.616L28.6809 337.524L32.6049 333.948H33.6489L30.8769 336.6L30.3969 337.008L28.6569 338.616ZM27.9849 340.248V331.344H28.8369V340.248H27.9849ZM32.8689 340.248L30.2409 336.972L30.7929 336.312L33.9129 340.248H32.8689ZM36.8181 338.592V333.504H37.5741V338.592H36.8181ZM34.5861 336.408V335.7H39.8061V336.408H34.5861Z" fill="#737373"/>
<path d="M20.468 380.248V379.636L23.96 376.216C24.28 375.904 24.52 375.632 24.68 375.4C24.84 375.16 24.948 374.936 25.004 374.728C25.06 374.52 25.088 374.324 25.088 374.14C25.088 373.652 24.92 373.268 24.584 372.988C24.256 372.708 23.768 372.568 23.12 372.568C22.624 372.568 22.184 372.644 21.8 372.796C21.424 372.948 21.1 373.184 20.828 373.504L20.216 372.976C20.544 372.592 20.964 372.296 21.476 372.088C21.988 371.88 22.56 371.776 23.192 371.776C23.76 371.776 24.252 371.868 24.668 372.052C25.084 372.228 25.404 372.488 25.628 372.832C25.86 373.176 25.976 373.58 25.976 374.044C25.976 374.316 25.936 374.584 25.856 374.848C25.784 375.112 25.648 375.392 25.448 375.688C25.256 375.976 24.972 376.304 24.596 376.672L21.392 379.816L21.152 379.48H26.36V380.248H20.468ZM27.4466 377.368V376.624H30.5906V377.368H27.4466ZM34.2062 380.32C33.5982 380.32 33.0222 380.224 32.4782 380.032C31.9422 379.832 31.5102 379.568 31.1822 379.24L31.6022 378.556C31.8742 378.836 32.2382 379.068 32.6942 379.252C33.1582 379.436 33.6622 379.528 34.2062 379.528C34.9022 379.528 35.4342 379.376 35.8022 379.072C36.1782 378.768 36.3662 378.36 36.3662 377.848C36.3662 377.336 36.1822 376.928 35.8142 376.624C35.4542 376.32 34.8822 376.168 34.0982 376.168H33.4982V375.532L36.0902 372.28L36.2102 372.616H31.5302V371.848H36.9302V372.46L34.3382 375.712L33.9182 375.436H34.2422C35.2502 375.436 36.0022 375.66 36.4982 376.108C37.0022 376.556 37.2542 377.132 37.2542 377.836C37.2542 378.308 37.1422 378.732 36.9182 379.108C36.6942 379.484 36.3542 379.78 35.8982 379.996C35.4502 380.212 34.8862 380.32 34.2062 380.32ZM39.7077 378.616L39.7317 377.524L43.6557 373.948H44.6997L41.9277 376.6L41.4477 377.008L39.7077 378.616ZM39.0357 380.248V371.344H39.8877V380.248H39.0357ZM43.9197 380.248L41.2917 376.972L41.8437 376.312L44.9637 380.248H43.9197ZM47.8689 378.592V373.504H48.6249V378.592H47.8689ZM45.6369 376.408V375.7H50.8569V376.408H45.6369Z" fill="#737373"/>
<path d="M22.088 420.248V412.208L22.472 412.616H20.108V411.848H22.952V420.248H22.088ZM26.1959 418.616L26.2199 417.524L30.1439 413.948H31.1879L28.4159 416.6L27.9359 417.008L26.1959 418.616ZM25.5239 420.248V411.344H26.3759V420.248H25.5239ZM30.4079 420.248L27.7799 416.972L28.3319 416.312L31.4519 420.248H30.4079ZM34.3572 418.592V413.504H35.1132V418.592H34.3572ZM32.1252 416.408V415.7H37.3452V416.408H32.1252Z" fill="#737373"/>
<path d="M23.276 460.32C22.676 460.32 22.104 460.224 21.56 460.032C21.016 459.832 20.584 459.568 20.264 459.24L20.684 458.556C20.948 458.836 21.308 459.068 21.764 459.252C22.228 459.436 22.728 459.528 23.264 459.528C23.976 459.528 24.516 459.372 24.884 459.06C25.26 458.74 25.448 458.324 25.448 457.812C25.448 457.452 25.36 457.144 25.184 456.888C25.016 456.624 24.728 456.42 24.32 456.276C23.912 456.132 23.352 456.06 22.64 456.06H20.852L21.284 451.848H25.88V452.616H21.632L22.076 452.196L21.704 455.724L21.26 455.292H22.832C23.68 455.292 24.36 455.396 24.872 455.604C25.384 455.812 25.752 456.104 25.976 456.48C26.208 456.848 26.324 457.28 26.324 457.776C26.324 458.248 26.212 458.68 25.988 459.072C25.764 459.456 25.428 459.76 24.98 459.984C24.532 460.208 23.964 460.32 23.276 460.32ZM30.7689 460.32C30.1209 460.32 29.5449 460.152 29.0409 459.816C28.5369 459.472 28.1409 458.984 27.8529 458.352C27.5649 457.712 27.4209 456.944 27.4209 456.048C27.4209 455.152 27.5649 454.388 27.8529 453.756C28.1409 453.116 28.5369 452.628 29.0409 452.292C29.5449 451.948 30.1209 451.776 30.7689 451.776C31.4169 451.776 31.9929 451.948 32.4969 452.292C33.0009 452.628 33.3969 453.116 33.6849 453.756C33.9809 454.388 34.1289 455.152 34.1289 456.048C34.1289 456.944 33.9809 457.712 33.6849 458.352C33.3969 458.984 33.0009 459.472 32.4969 459.816C31.9929 460.152 31.4169 460.32 30.7689 460.32ZM30.7689 459.528C31.2649 459.528 31.6969 459.396 32.0649 459.132C32.4329 458.86 32.7209 458.468 32.9289 457.956C33.1369 457.436 33.2409 456.8 33.2409 456.048C33.2409 455.296 33.1369 454.664 32.9289 454.152C32.7209 453.632 32.4329 453.24 32.0649 452.976C31.6969 452.704 31.2649 452.568 30.7689 452.568C30.2889 452.568 29.8609 452.704 29.4849 452.976C29.1089 453.24 28.8169 453.632 28.6089 454.152C28.4009 454.664 28.2969 455.296 28.2969 456.048C28.2969 456.8 28.4009 457.436 28.6089 457.956C28.8169 458.468 29.1089 458.86 29.4849 459.132C29.8609 459.396 30.2889 459.528 30.7689 459.528ZM38.7142 460.32C38.0662 460.32 37.4902 460.152 36.9862 459.816C36.4822 459.472 36.0862 458.984 35.7982 458.352C35.5102 457.712 35.3662 456.944 35.3662 456.048C35.3662 455.152 35.5102 454.388 35.7982 453.756C36.0862 453.116 36.4822 452.628 36.9862 452.292C37.4902 451.948 38.0662 451.776 38.7142 451.776C39.3622 451.776 39.9382 451.948 40.4422 452.292C40.9462 452.628 41.3422 453.116 41.6302 453.756C41.9262 454.388 42.0742 455.152 42.0742 456.048C42.0742 456.944 41.9262 457.712 41.6302 458.352C41.3422 458.984 40.9462 459.472 40.4422 459.816C39.9382 460.152 39.3622 460.32 38.7142 460.32ZM38.7142 459.528C39.2102 459.528 39.6422 459.396 40.0102 459.132C40.3782 458.86 40.6662 458.468 40.8742 457.956C41.0822 457.436 41.1862 456.8 41.1862 456.048C41.1862 455.296 41.0822 454.664 40.8742 454.152C40.6662 453.632 40.3782 453.24 40.0102 452.976C39.6422 452.704 39.2102 452.568 38.7142 452.568C38.2342 452.568 37.8062 452.704 37.4302 452.976C37.0542 453.24 36.7622 453.632 36.5542 454.152C36.3462 454.664 36.2422 455.296 36.2422 456.048C36.2422 456.8 36.3462 457.436 36.5542 457.956C36.7622 458.468 37.0542 458.86 37.4302 459.132C37.8062 459.396 38.2342 459.528 38.7142 459.528ZM45.8533 458.592V453.504H46.6093V458.592H45.8533ZM43.6213 456.408V455.7H48.8412V456.408H43.6213Z" fill="#737373"/>
<path d="M22.088 500.248V492.208L22.472 492.616H20.108V491.848H22.952V500.248H22.088ZM28.3079 500.32C27.6599 500.32 27.0839 500.152 26.5799 499.816C26.0759 499.472 25.6799 498.984 25.3919 498.352C25.1039 497.712 24.9599 496.944 24.9599 496.048C24.9599 495.152 25.1039 494.388 25.3919 493.756C25.6799 493.116 26.0759 492.628 26.5799 492.292C27.0839 491.948 27.6599 491.776 28.3079 491.776C28.9559 491.776 29.5319 491.948 30.0359 492.292C30.5399 492.628 30.9359 493.116 31.2239 493.756C31.5199 494.388 31.6679 495.152 31.6679 496.048C31.6679 496.944 31.5199 497.712 31.2239 498.352C30.9359 498.984 30.5399 499.472 30.0359 499.816C29.5319 500.152 28.9559 500.32 28.3079 500.32ZM28.3079 499.528C28.8039 499.528 29.2359 499.396 29.6039 499.132C29.9719 498.86 30.2599 498.468 30.4679 497.956C30.6759 497.436 30.7799 496.8 30.7799 496.048C30.7799 495.296 30.6759 494.664 30.4679 494.152C30.2599 493.632 29.9719 493.24 29.6039 492.976C29.2359 492.704 28.8039 492.568 28.3079 492.568C27.8279 492.568 27.3999 492.704 27.0239 492.976C26.6479 493.24 26.3559 493.632 26.1479 494.152C25.9399 494.664 25.8359 495.296 25.8359 496.048C25.8359 496.8 25.9399 497.436 26.1479 497.956C26.3559 498.468 26.6479 498.86 27.0239 499.132C27.3999 499.396 27.8279 499.528 28.3079 499.528ZM36.2533 500.32C35.6053 500.32 35.0293 500.152 34.5253 499.816C34.0213 499.472 33.6253 498.984 33.3373 498.352C33.0493 497.712 32.9053 496.944 32.9053 496.048C32.9053 495.152 33.0493 494.388 33.3373 493.756C33.6253 493.116 34.0213 492.628 34.5253 492.292C35.0293 491.948 35.6053 491.776 36.2533 491.776C36.9013 491.776 37.4773 491.948 37.9813 492.292C38.4853 492.628 38.8813 493.116 39.1693 493.756C39.4653 494.388 39.6133 495.152 39.6133 496.048C39.6133 496.944 39.4653 497.712 39.1693 498.352C38.8813 498.984 38.4853 499.472 37.9813 499.816C37.4773 500.152 36.9013 500.32 36.2533 500.32ZM36.2533 499.528C36.7493 499.528 37.1813 499.396 37.5493 499.132C37.9173 498.86 38.2053 498.468 38.4133 497.956C38.6213 497.436 38.7253 496.8 38.7253 496.048C38.7253 495.296 38.6213 494.664 38.4133 494.152C38.2053 493.632 37.9173 493.24 37.5493 492.976C37.1813 492.704 36.7493 492.568 36.2533 492.568C35.7733 492.568 35.3453 492.704 34.9693 492.976C34.5933 493.24 34.3013 493.632 34.0933 494.152C33.8853 494.664 33.7812 495.296 33.7812 496.048C33.7812 496.8 33.8853 497.436 34.0933 497.956C34.3013 498.468 34.5933 498.86 34.9693 499.132C35.3453 499.396 35.7733 499.528 36.2533 499.528ZM43.3923 498.592V493.504H44.1483V498.592H43.3923ZM41.1603 496.408V495.7H46.3803V496.408H41.1603Z" fill="#737373"/>
<path d="M68.684 523.32C68.06 523.32 67.46 523.22 66.884 523.02C66.316 522.812 65.876 522.548 65.564 522.228L65.912 521.544C66.208 521.832 66.604 522.076 67.1 522.276C67.604 522.468 68.132 522.564 68.684 522.564C69.212 522.564 69.64 522.5 69.968 522.372C70.304 522.236 70.548 522.056 70.7 521.832C70.86 521.608 70.94 521.36 70.94 521.088C70.94 520.76 70.844 520.496 70.652 520.296C70.468 520.096 70.224 519.94 69.92 519.828C69.616 519.708 69.28 519.604 68.912 519.516C68.544 519.428 68.176 519.336 67.808 519.24C67.44 519.136 67.1 519 66.788 518.832C66.484 518.664 66.236 518.444 66.044 518.172C65.86 517.892 65.768 517.528 65.768 517.08C65.768 516.664 65.876 516.284 66.092 515.94C66.316 515.588 66.656 515.308 67.112 515.1C67.568 514.884 68.152 514.776 68.864 514.776C69.336 514.776 69.804 514.844 70.268 514.98C70.732 515.108 71.132 515.288 71.468 515.52L71.168 516.228C70.808 515.988 70.424 515.812 70.016 515.7C69.616 515.588 69.228 515.532 68.852 515.532C68.348 515.532 67.932 515.6 67.604 515.736C67.276 515.872 67.032 516.056 66.872 516.288C66.72 516.512 66.644 516.768 66.644 517.056C66.644 517.384 66.736 517.648 66.92 517.848C67.112 518.048 67.36 518.204 67.664 518.316C67.976 518.428 68.316 518.528 68.684 518.616C69.052 518.704 69.416 518.8 69.776 518.904C70.144 519.008 70.48 519.144 70.784 519.312C71.096 519.472 71.344 519.688 71.528 519.96C71.72 520.232 71.816 520.588 71.816 521.028C71.816 521.436 71.704 521.816 71.48 522.168C71.256 522.512 70.912 522.792 70.448 523.008C69.992 523.216 69.404 523.32 68.684 523.32ZM76.1748 523.308C75.6388 523.308 75.1708 523.208 74.7708 523.008C74.3708 522.808 74.0588 522.508 73.8348 522.108C73.6188 521.708 73.5108 521.208 73.5108 520.608V516.948H74.3628V520.512C74.3628 521.184 74.5268 521.692 74.8548 522.036C75.1908 522.372 75.6588 522.54 76.2588 522.54C76.6988 522.54 77.0788 522.452 77.3988 522.276C77.7268 522.092 77.9748 521.828 78.1428 521.484C78.3188 521.14 78.4068 520.728 78.4068 520.248V516.948H79.2588V523.248H78.4428V521.52L78.5748 521.832C78.3748 522.296 78.0628 522.66 77.6388 522.924C77.2228 523.18 76.7348 523.308 76.1748 523.308ZM84.8493 516.888C85.3613 516.888 85.8093 516.988 86.1933 517.188C86.5853 517.38 86.8893 517.676 87.1053 518.076C87.3293 518.476 87.4413 518.98 87.4413 519.588V523.248H86.5893V519.672C86.5893 519.008 86.4213 518.508 86.0853 518.172C85.7573 517.828 85.2933 517.656 84.6933 517.656C84.2453 517.656 83.8533 517.748 83.5173 517.932C83.1893 518.108 82.9333 518.368 82.7493 518.712C82.5733 519.048 82.4853 519.456 82.4853 519.936V523.248H81.6333V516.948H82.4493V518.676L82.3173 518.352C82.5173 517.896 82.8373 517.54 83.2773 517.284C83.7173 517.02 84.2413 516.888 84.8493 516.888Z" fill="#737373"/>
<path d="M112.368 523.248V514.848H113.1L116.94 521.4H116.556L120.36 514.848H121.092V523.248H120.24V516.18H120.444L116.94 522.18H116.52L112.992 516.18H113.22V523.248H112.368ZM126.217 523.308C125.609 523.308 125.061 523.172 124.573 522.9C124.093 522.62 123.713 522.24 123.433 521.76C123.153 521.272 123.013 520.716 123.013 520.092C123.013 519.46 123.153 518.904 123.433 518.424C123.713 517.944 124.093 517.568 124.573 517.296C125.053 517.024 125.601 516.888 126.217 516.888C126.841 516.888 127.393 517.024 127.873 517.296C128.361 517.568 128.741 517.944 129.013 518.424C129.293 518.904 129.433 519.46 129.433 520.092C129.433 520.716 129.293 521.272 129.013 521.76C128.741 522.24 128.361 522.62 127.873 522.9C127.385 523.172 126.833 523.308 126.217 523.308ZM126.217 522.552C126.673 522.552 127.077 522.452 127.429 522.252C127.781 522.044 128.057 521.756 128.257 521.388C128.465 521.012 128.569 520.58 128.569 520.092C128.569 519.596 128.465 519.164 128.257 518.796C128.057 518.428 127.781 518.144 127.429 517.944C127.077 517.736 126.677 517.632 126.229 517.632C125.781 517.632 125.381 517.736 125.029 517.944C124.677 518.144 124.397 518.428 124.189 518.796C123.981 519.164 123.877 519.596 123.877 520.092C123.877 520.58 123.981 521.012 124.189 521.388C124.397 521.756 124.677 522.044 125.029 522.252C125.381 522.452 125.777 522.552 126.217 522.552ZM134.388 516.888C134.9 516.888 135.348 516.988 135.732 517.188C136.124 517.38 136.428 517.676 136.644 518.076C136.868 518.476 136.98 518.98 136.98 519.588V523.248H136.128V519.672C136.128 519.008 135.96 518.508 135.624 518.172C135.296 517.828 134.832 517.656 134.232 517.656C133.784 517.656 133.392 517.748 133.056 517.932C132.728 518.108 132.472 518.368 132.288 518.712C132.112 519.048 132.024 519.456 132.024 519.936V523.248H131.172V516.948H131.988V518.676L131.856 518.352C132.056 517.896 132.376 517.54 132.816 517.284C133.256 517.02 133.78 516.888 134.388 516.888Z" fill="#737373"/>
<path d="M164 523.248V515.616H161.048V514.848H167.84V515.616H164.888V523.248H164ZM171.519 523.308C170.983 523.308 170.515 523.208 170.115 523.008C169.715 522.808 169.403 522.508 169.179 522.108C168.963 521.708 168.855 521.208 168.855 520.608V516.948H169.707V520.512C169.707 521.184 169.871 521.692 170.199 522.036C170.535 522.372 171.003 522.54 171.603 522.54C172.043 522.54 172.423 522.452 172.743 522.276C173.071 522.092 173.319 521.828 173.487 521.484C173.663 521.14 173.751 520.728 173.751 520.248V516.948H174.603V523.248H173.787V521.52L173.919 521.832C173.719 522.296 173.407 522.66 172.983 522.924C172.567 523.18 172.079 523.308 171.519 523.308ZM178.669 523.308C178.149 523.308 177.657 523.236 177.193 523.092C176.729 522.94 176.365 522.752 176.101 522.528L176.485 521.856C176.741 522.048 177.069 522.216 177.469 522.36C177.869 522.496 178.289 522.564 178.729 522.564C179.329 522.564 179.761 522.472 180.025 522.288C180.289 522.096 180.421 521.844 180.421 521.532C180.421 521.3 180.345 521.12 180.193 520.992C180.049 520.856 179.857 520.756 179.617 520.692C179.377 520.62 179.109 520.56 178.813 520.512C178.517 520.464 178.221 520.408 177.925 520.344C177.637 520.28 177.373 520.188 177.133 520.068C176.893 519.94 176.697 519.768 176.545 519.552C176.401 519.336 176.329 519.048 176.329 518.688C176.329 518.344 176.425 518.036 176.617 517.764C176.809 517.492 177.089 517.28 177.457 517.128C177.833 516.968 178.289 516.888 178.825 516.888C179.233 516.888 179.641 516.944 180.049 517.056C180.457 517.16 180.793 517.3 181.057 517.476L180.685 518.16C180.405 517.968 180.105 517.832 179.785 517.752C179.465 517.664 179.145 517.62 178.825 517.62C178.257 517.62 177.837 517.72 177.565 517.92C177.301 518.112 177.169 518.36 177.169 518.664C177.169 518.904 177.241 519.092 177.385 519.228C177.537 519.364 177.733 519.472 177.973 519.552C178.221 519.624 178.489 519.684 178.777 519.732C179.073 519.78 179.365 519.84 179.653 519.912C179.949 519.976 180.217 520.068 180.457 520.188C180.705 520.3 180.901 520.464 181.045 520.68C181.197 520.888 181.273 521.164 181.273 521.508C181.273 521.876 181.169 522.196 180.961 522.468C180.761 522.732 180.465 522.94 180.073 523.092C179.689 523.236 179.221 523.308 178.669 523.308Z" fill="#737373"/>
<path d="M207.276 523.248L204.444 514.848H205.356L208.008 522.756H207.552L210.288 514.848H211.104L213.804 522.756H213.372L216.048 514.848H216.9L214.068 523.248H213.132L210.552 515.748H210.792L208.2 523.248H207.276ZM220.544 523.308C219.888 523.308 219.312 523.172 218.816 522.9C218.32 522.62 217.932 522.24 217.652 521.76C217.372 521.272 217.232 520.716 217.232 520.092C217.232 519.468 217.364 518.916 217.628 518.436C217.9 517.956 218.268 517.58 218.732 517.308C219.204 517.028 219.732 516.888 220.316 516.888C220.908 516.888 221.432 517.024 221.888 517.296C222.352 517.56 222.716 517.936 222.98 518.424C223.244 518.904 223.376 519.46 223.376 520.092C223.376 520.132 223.372 520.176 223.364 520.224C223.364 520.264 223.364 520.308 223.364 520.356H217.88V519.72H222.908L222.572 519.972C222.572 519.516 222.472 519.112 222.272 518.76C222.08 518.4 221.816 518.12 221.48 517.92C221.144 517.72 220.756 517.62 220.316 517.62C219.884 517.62 219.496 517.72 219.152 517.92C218.808 518.12 218.54 518.4 218.348 518.76C218.156 519.12 218.06 519.532 218.06 519.996V520.128C218.06 520.608 218.164 521.032 218.372 521.4C218.588 521.76 218.884 522.044 219.26 522.252C219.644 522.452 220.08 522.552 220.568 522.552C220.952 522.552 221.308 522.484 221.636 522.348C221.972 522.212 222.26 522.004 222.5 521.724L222.98 522.276C222.7 522.612 222.348 522.868 221.924 523.044C221.508 523.22 221.048 523.308 220.544 523.308ZM227.618 523.308C227.018 523.308 226.478 523.172 225.998 522.9C225.526 522.628 225.154 522.252 224.882 521.772C224.61 521.284 224.474 520.724 224.474 520.092C224.474 519.452 224.61 518.892 224.882 518.412C225.154 517.932 225.526 517.56 225.998 517.296C226.478 517.024 227.018 516.888 227.618 516.888C228.17 516.888 228.662 517.012 229.094 517.26C229.534 517.508 229.882 517.872 230.138 518.352C230.402 518.824 230.534 519.404 230.534 520.092C230.534 520.772 230.406 521.352 230.15 521.832C229.894 522.312 229.546 522.68 229.106 522.936C228.674 523.184 228.178 523.308 227.618 523.308ZM227.678 522.552C228.126 522.552 228.526 522.452 228.878 522.252C229.238 522.044 229.518 521.756 229.718 521.388C229.926 521.012 230.03 520.58 230.03 520.092C230.03 519.596 229.926 519.164 229.718 518.796C229.518 518.428 229.238 518.144 228.878 517.944C228.526 517.736 228.126 517.632 227.678 517.632C227.238 517.632 226.842 517.736 226.49 517.944C226.138 518.144 225.858 518.428 225.65 518.796C225.442 519.164 225.338 519.596 225.338 520.092C225.338 520.58 225.442 521.012 225.65 521.388C225.858 521.756 226.138 522.044 226.49 522.252C226.842 522.452 227.238 522.552 227.678 522.552ZM230.054 523.248V521.352L230.138 520.08L230.018 518.808V514.344H230.87V523.248H230.054Z" fill="#737373"/>
<path d="M258 523.248V515.616H255.048V514.848H261.84V515.616H258.888V523.248H258ZM266.295 516.888C266.807 516.888 267.255 516.988 267.639 517.188C268.031 517.38 268.335 517.676 268.551 518.076C268.775 518.476 268.887 518.98 268.887 519.588V523.248H268.035V519.672C268.035 519.008 267.867 518.508 267.531 518.172C267.203 517.828 266.739 517.656 266.139 517.656C265.691 517.656 265.299 517.748 264.963 517.932C264.635 518.108 264.379 518.368 264.195 518.712C264.019 519.048 263.931 519.456 263.931 519.936V523.248H263.079V514.344H263.931V518.676L263.763 518.352C263.963 517.896 264.283 517.54 264.723 517.284C265.163 517.02 265.687 516.888 266.295 516.888ZM273.792 523.308C273.256 523.308 272.788 523.208 272.388 523.008C271.988 522.808 271.676 522.508 271.452 522.108C271.236 521.708 271.128 521.208 271.128 520.608V516.948H271.98V520.512C271.98 521.184 272.144 521.692 272.472 522.036C272.808 522.372 273.276 522.54 273.876 522.54C274.316 522.54 274.696 522.452 275.016 522.276C275.344 522.092 275.592 521.828 275.76 521.484C275.936 521.14 276.024 520.728 276.024 520.248V516.948H276.876V523.248H276.06V521.52L276.192 521.832C275.992 522.296 275.68 522.66 275.256 522.924C274.84 523.18 274.352 523.308 273.792 523.308ZM279.251 523.248V516.948H280.067V518.664L279.983 518.364C280.159 517.884 280.455 517.52 280.871 517.272C281.287 517.016 281.803 516.888 282.419 516.888V517.716C282.387 517.716 282.355 517.716 282.323 517.716C282.291 517.708 282.259 517.704 282.227 517.704C281.562 517.704 281.043 517.908 280.667 518.316C280.291 518.716 280.103 519.288 280.103 520.032V523.248H279.251Z" fill="#737373"/>
<path d="M307.16 518.916H311.6V519.684H307.16V518.916ZM307.256 523.248H306.368V514.848H312.128V515.616H307.256V523.248ZM313.665 523.248V516.948H314.481V518.664L314.397 518.364C314.573 517.884 314.869 517.52 315.285 517.272C315.701 517.016 316.217 516.888 316.833 516.888V517.716C316.801 517.716 316.769 517.716 316.737 517.716C316.705 517.708 316.673 517.704 316.641 517.704C315.977 517.704 315.457 517.908 315.081 518.316C314.705 518.716 314.517 519.288 314.517 520.032V523.248H313.665ZM318.387 523.248V516.948H319.239V523.248H318.387ZM318.819 515.556C318.643 515.556 318.495 515.496 318.375 515.376C318.255 515.256 318.195 515.112 318.195 514.944C318.195 514.776 318.255 514.636 318.375 514.524C318.495 514.404 318.643 514.344 318.819 514.344C318.995 514.344 319.143 514.4 319.263 514.512C319.383 514.624 319.443 514.764 319.443 514.932C319.443 515.108 319.383 515.256 319.263 515.376C319.151 515.496 319.003 515.556 318.819 515.556Z" fill="#737373"/>
<path d="M346.684 523.32C346.06 523.32 345.46 523.22 344.884 523.02C344.316 522.812 343.876 522.548 343.564 522.228L343.912 521.544C344.208 521.832 344.604 522.076 345.1 522.276C345.604 522.468 346.132 522.564 346.684 522.564C347.212 522.564 347.64 522.5 347.968 522.372C348.304 522.236 348.548 522.056 348.7 521.832C348.86 521.608 348.94 521.36 348.94 521.088C348.94 520.76 348.844 520.496 348.652 520.296C348.468 520.096 348.224 519.94 347.92 519.828C347.616 519.708 347.28 519.604 346.912 519.516C346.544 519.428 346.176 519.336 345.808 519.24C345.44 519.136 345.1 519 344.788 518.832C344.484 518.664 344.236 518.444 344.044 518.172C343.86 517.892 343.768 517.528 343.768 517.08C343.768 516.664 343.876 516.284 344.092 515.94C344.316 515.588 344.656 515.308 345.112 515.1C345.568 514.884 346.152 514.776 346.864 514.776C347.336 514.776 347.804 514.844 348.268 514.98C348.732 515.108 349.132 515.288 349.468 515.52L349.168 516.228C348.808 515.988 348.424 515.812 348.016 515.7C347.616 515.588 347.228 515.532 346.852 515.532C346.348 515.532 345.932 515.6 345.604 515.736C345.276 515.872 345.032 516.056 344.872 516.288C344.72 516.512 344.644 516.768 344.644 517.056C344.644 517.384 344.736 517.648 344.92 517.848C345.112 518.048 345.36 518.204 345.664 518.316C345.976 518.428 346.316 518.528 346.684 518.616C347.052 518.704 347.416 518.8 347.776 518.904C348.144 519.008 348.48 519.144 348.784 519.312C349.096 519.472 349.344 519.688 349.528 519.96C349.72 520.232 349.816 520.588 349.816 521.028C349.816 521.436 349.704 521.816 349.48 522.168C349.256 522.512 348.912 522.792 348.448 523.008C347.992 523.216 347.404 523.32 346.684 523.32ZM355.519 523.248V521.856L355.483 521.628V519.3C355.483 518.764 355.331 518.352 355.027 518.064C354.731 517.776 354.287 517.632 353.695 517.632C353.287 517.632 352.899 517.7 352.531 517.836C352.163 517.972 351.851 518.152 351.595 518.376L351.211 517.74C351.531 517.468 351.915 517.26 352.363 517.116C352.811 516.964 353.283 516.888 353.779 516.888C354.595 516.888 355.223 517.092 355.663 517.5C356.111 517.9 356.335 518.512 356.335 519.336V523.248H355.519ZM353.347 523.308C352.875 523.308 352.463 523.232 352.111 523.08C351.767 522.92 351.503 522.704 351.319 522.432C351.135 522.152 351.043 521.832 351.043 521.472C351.043 521.144 351.119 520.848 351.271 520.584C351.431 520.312 351.687 520.096 352.039 519.936C352.399 519.768 352.879 519.684 353.479 519.684H355.651V520.32H353.503C352.895 520.32 352.471 520.428 352.231 520.644C351.999 520.86 351.883 521.128 351.883 521.448C351.883 521.808 352.023 522.096 352.303 522.312C352.583 522.528 352.975 522.636 353.479 522.636C353.959 522.636 354.371 522.528 354.715 522.312C355.067 522.088 355.323 521.768 355.483 521.352L355.675 521.94C355.515 522.356 355.235 522.688 354.835 522.936C354.443 523.184 353.947 523.308 353.347 523.308ZM360.641 523.308C360.049 523.308 359.593 523.148 359.273 522.828C358.953 522.508 358.793 522.056 358.793 521.472V515.556H359.645V521.424C359.645 521.792 359.737 522.076 359.921 522.276C360.113 522.476 360.385 522.576 360.737 522.576C361.113 522.576 361.425 522.468 361.673 522.252L361.973 522.864C361.805 523.016 361.601 523.128 361.361 523.2C361.129 523.272 360.889 523.308 360.641 523.308ZM357.665 517.656V516.948H361.565V517.656H357.665Z" fill="#737373"/>
<path d="M29.088 234.088V204.008H31.136V234.088H29.088ZM29.888 230.504C28.1813 230.504 26.5493 230.248 24.992 229.736C23.4347 229.203 22.208 228.52 21.312 227.688L22.496 225.192C23.3493 225.939 24.4373 226.557 25.76 227.048C27.0827 227.539 28.4587 227.784 29.888 227.784C31.1893 227.784 32.2453 227.635 33.056 227.336C33.8667 227.037 34.464 226.632 34.848 226.12C35.232 225.587 35.424 224.989 35.424 224.328C35.424 223.56 35.168 222.941 34.656 222.472C34.1653 222.003 33.5147 221.629 32.704 221.352C31.9147 221.053 31.04 220.797 30.08 220.584C29.12 220.371 28.1493 220.125 27.168 219.848C26.208 219.549 25.3227 219.176 24.512 218.728C23.7227 218.28 23.0827 217.683 22.592 216.936C22.1013 216.168 21.856 215.187 21.856 213.992C21.856 212.84 22.1547 211.784 22.752 210.824C23.3707 209.843 24.3093 209.064 25.568 208.488C26.848 207.891 28.4693 207.592 30.432 207.592C31.7333 207.592 33.024 207.763 34.304 208.104C35.584 208.445 36.6933 208.936 37.632 209.576L36.576 212.136C35.616 211.496 34.6027 211.037 33.536 210.76C32.4693 210.461 31.4347 210.312 30.432 210.312C29.1733 210.312 28.1387 210.472 27.328 210.792C26.5173 211.112 25.92 211.539 25.536 212.072C25.1733 212.605 24.992 213.203 24.992 213.864C24.992 214.653 25.2373 215.283 25.728 215.752C26.24 216.221 26.8907 216.595 27.68 216.872C28.4907 217.149 29.376 217.405 30.336 217.64C31.296 217.853 32.256 218.099 33.216 218.376C34.1973 218.653 35.0827 219.016 35.872 219.464C36.6827 219.912 37.3333 220.509 37.824 221.256C38.3147 222.003 38.56 222.963 38.56 224.136C38.56 225.267 38.2507 226.323 37.632 227.304C37.0133 228.264 36.0533 229.043 34.752 229.64C33.472 230.216 31.8507 230.504 29.888 230.504ZM48.643 230.504C47.0643 230.504 45.5283 230.259 44.035 229.768C42.563 229.277 41.3577 228.616 40.419 227.784L41.891 225.256C42.6377 225.96 43.6083 226.536 44.803 226.984C45.9977 227.432 47.267 227.656 48.611 227.656C50.3177 227.656 51.6297 227.293 52.547 226.568C53.4643 225.843 53.923 224.872 53.923 223.656C53.923 222.824 53.7203 222.099 53.315 221.48C52.9097 220.861 52.2057 220.392 51.203 220.072C50.2217 219.731 48.867 219.56 47.139 219.56H42.051L43.235 207.848H55.875V210.632H44.419L46.083 209.064L45.155 218.312L43.491 216.776H47.811C50.051 216.776 51.8537 217.064 53.219 217.64C54.5843 218.216 55.5763 219.016 56.195 220.04C56.8137 221.043 57.123 222.205 57.123 223.528C57.123 224.808 56.8137 225.981 56.195 227.048C55.5763 228.093 54.6377 228.936 53.379 229.576C52.1417 230.195 50.563 230.504 48.643 230.504ZM59.946 234.984L61.546 228.52L61.962 230.376C61.3433 230.376 60.8207 230.184 60.394 229.8C59.9887 229.416 59.786 228.893 59.786 228.232C59.786 227.592 59.9887 227.069 60.394 226.664C60.8207 226.259 61.3327 226.056 61.93 226.056C62.5487 226.056 63.05 226.269 63.434 226.696C63.818 227.101 64.01 227.613 64.01 228.232C64.01 228.445 63.9887 228.659 63.946 228.872C63.9247 229.064 63.8713 229.299 63.786 229.576C63.722 229.832 63.6153 230.152 63.466 230.536L61.962 234.984H59.946ZM75.813 230.504C74.0637 230.504 72.4957 230.056 71.109 229.16C69.7437 228.264 68.6557 226.963 67.845 225.256C67.0557 223.549 66.661 221.48 66.661 219.048C66.661 216.616 67.0557 214.547 67.845 212.84C68.6557 211.133 69.7437 209.832 71.109 208.936C72.4957 208.04 74.0637 207.592 75.813 207.592C77.541 207.592 79.0983 208.04 80.485 208.936C81.8717 209.832 82.9597 211.133 83.749 212.84C84.5383 214.547 84.933 216.616 84.933 219.048C84.933 221.48 84.5383 223.549 83.749 225.256C82.9597 226.963 81.8717 228.264 80.485 229.16C79.0983 230.056 77.541 230.504 75.813 230.504ZM75.813 227.656C76.9863 227.656 78.0103 227.336 78.885 226.696C79.781 226.056 80.4743 225.096 80.965 223.816C81.477 222.536 81.733 220.947 81.733 219.048C81.733 217.149 81.477 215.56 80.965 214.28C80.4743 213 79.781 212.04 78.885 211.4C78.0103 210.76 76.9863 210.44 75.813 210.44C74.6397 210.44 73.605 210.76 72.709 211.4C71.813 212.04 71.109 213 70.597 214.28C70.1063 215.56 69.861 217.149 69.861 219.048C69.861 220.947 70.1063 222.536 70.597 223.816C71.109 225.096 71.813 226.056 72.709 226.696C73.605 227.336 74.6397 227.656 75.813 227.656ZM97.1568 230.504C95.4074 230.504 93.8394 230.056 92.4528 229.16C91.0874 228.264 89.9994 226.963 89.1888 225.256C88.3994 223.549 88.0048 221.48 88.0048 219.048C88.0048 216.616 88.3994 214.547 89.1888 212.84C89.9994 211.133 91.0874 209.832 92.4528 208.936C93.8394 208.04 95.4074 207.592 97.1568 207.592C98.8848 207.592 100.442 208.04 101.829 208.936C103.215 209.832 104.303 211.133 105.093 212.84C105.882 214.547 106.277 216.616 106.277 219.048C106.277 221.48 105.882 223.549 105.093 225.256C104.303 226.963 103.215 228.264 101.829 229.16C100.442 230.056 98.8848 230.504 97.1568 230.504ZM97.1568 227.656C98.3301 227.656 99.3541 227.336 100.229 226.696C101.125 226.056 101.818 225.096 102.309 223.816C102.821 222.536 103.077 220.947 103.077 219.048C103.077 217.149 102.821 215.56 102.309 214.28C101.818 213 101.125 212.04 100.229 211.4C99.3541 210.76 98.3301 210.44 97.1568 210.44C95.9834 210.44 94.9488 210.76 94.0528 211.4C93.1568 212.04 92.4528 213 91.9408 214.28C91.4501 215.56 91.2048 217.149 91.2048 219.048C91.2048 220.947 91.4501 222.536 91.9408 223.816C92.4528 225.096 93.1568 226.056 94.0528 226.696C94.9488 227.336 95.9834 227.656 97.1568 227.656ZM118.501 230.504C116.751 230.504 115.183 230.056 113.797 229.16C112.431 228.264 111.343 226.963 110.533 225.256C109.743 223.549 109.349 221.48 109.349 219.048C109.349 216.616 109.743 214.547 110.533 212.84C111.343 211.133 112.431 209.832 113.797 208.936C115.183 208.04 116.751 207.592 118.501 207.592C120.229 207.592 121.786 208.04 123.173 208.936C124.559 209.832 125.647 211.133 126.437 212.84C127.226 214.547 127.621 216.616 127.621 219.048C127.621 221.48 127.226 223.549 126.437 225.256C125.647 226.963 124.559 228.264 123.173 229.16C121.786 230.056 120.229 230.504 118.501 230.504ZM118.501 227.656C119.674 227.656 120.698 227.336 121.573 226.696C122.469 226.056 123.162 225.096 123.653 223.816C124.165 222.536 124.421 220.947 124.421 219.048C124.421 217.149 124.165 215.56 123.653 214.28C123.162 213 122.469 212.04 121.573 211.4C120.698 210.76 119.674 210.44 118.501 210.44C117.327 210.44 116.293 210.76 115.397 211.4C114.501 212.04 113.797 213 113.285 214.28C112.794 215.56 112.549 217.149 112.549 219.048C112.549 220.947 112.794 222.536 113.285 223.816C113.797 225.096 114.501 226.056 115.397 226.696C116.293 227.336 117.327 227.656 118.501 227.656Z" fill="#3C3C3C"/>
<line x1="363" y1="463.748" x2="65" y2="463.748" stroke="#A7A7A7" stroke-dasharray="2 2"/>
<line x1="363" y1="423.748" x2="65" y2="423.748" stroke="#A7A7A7" stroke-dasharray="2 2"/>
<line x1="363" y1="383.748" x2="65" y2="383.748" stroke="#A7A7A7" stroke-dasharray="2 2"/>
<line x1="363" y1="343.748" x2="65" y2="343.748" stroke="#A7A7A7" stroke-dasharray="2 2"/>
<line x1="363" y1="303.748" x2="65" y2="303.748" stroke="#A7A7A7" stroke-dasharray="2 2"/>
<line x1="363" y1="503.748" x2="65" y2="503.748" stroke="#A7A7A7" stroke-dasharray="2 2"/>
<path d="M65 365.248C65 363.039 66.7909 361.248 69 361.248H85C87.2091 361.248 89 363.039 89 365.248V504.248H65V365.248Z" fill="#45A8FF"/>
<path d="M113 307.248C113 305.039 114.791 303.248 117 303.248H133C135.209 303.248 137 305.039 137 307.248V504.248H113V307.248Z" fill="#45A8FF"/>
<path d="M161 347.248C161 345.039 162.791 343.248 165 343.248H181C183.209 343.248 185 345.039 185 347.248V504.248H161V347.248Z" fill="#45A8FF"/>
<path d="M209 467.248C209 465.039 210.791 463.248 213 463.248H229C231.209 463.248 233 465.039 233 467.248V504.248H209V467.248Z" fill="#45A8FF"/>
<path d="M257 427.248C257 425.039 258.791 423.248 261 423.248H277C279.209 423.248 281 425.039 281 427.248V504.248H257V427.248Z" fill="#45A8FF"/>
<path d="M301 412.248C301 410.039 302.791 408.248 305 408.248H321C323.209 408.248 325 410.039 325 412.248V504.248H301V412.248Z" fill="#45A8FF"/>
<path d="M341 304.248C341 302.039 342.791 300.248 345 300.248H361C363.209 300.248 365 302.039 365 304.248V504.248H341V304.248Z" fill="#45A8FF"/>
</g>
<defs>
<filter id="filter0_d_1642_4433" x="-4" y="30.248" width="436" height="116" filterUnits="userSpaceOnUse" color-interpolation-filters="sRGB">
<feFlood flood-opacity="0" result="BackgroundImageFix"/>
<feColorMatrix in="SourceAlpha" type="matrix" values="0 0 0 0 0 0 0 0 0 0 0 0 0 0 0 0 0 0 127 0" result="hardAlpha"/>
<feOffset dy="4"/>
<feGaussianBlur stdDeviation="2"/>
<feComposite in2="hardAlpha" operator="out"/>
<feColorMatrix type="matrix" values="0 0 0 0 0 0 0 0 0 0 0 0 0 0 0 0 0 0 0.25 0"/>
<feBlend mode="normal" in2="BackgroundImageFix" result="effect1_dropShadow_1642_4433"/>
<feBlend mode="normal" in="SourceGraphic" in2="effect1_dropShadow_1642_4433" result="shape"/>
</filter>
<clipPath id="clip0_1642_4433">
<rect y="0.248047" width="428" height="926" rx="40" fill="white"/>
</clipPath>
</defs>
</svg>
