<svg width="390" height="844" viewBox="0 0 390 844" fill="none" xmlns="http://www.w3.org/2000/svg">
<rect width="390" height="844" fill="white"/>
<path d="M28.7215 56.5787C29.0928 56.2175 29.0928 55.632 28.7215 55.2709C28.3503 54.9097 27.7483 54.9097 27.3771 55.2709L21.2785 61.2032C20.9072 61.5644 20.9072 62.1499 21.2785 62.5111L27.3771 68.4434C27.7483 68.8046 28.3503 68.8046 28.7215 68.4434C29.0928 68.0823 29.0928 67.4967 28.7215 67.1356L23.2952 61.8571L28.7215 56.5787Z" fill="black"/>
<path d="M59.8145 67.2324C62.3369 67.2324 64.0049 65.6191 64.0049 63.1855V61.9824H60.0059V63.0625H62.7744V63.3018C62.7744 64.9697 61.585 66.0977 59.8213 66.0977C57.8389 66.0977 56.6016 64.5527 56.6016 62.0713V62.0576C56.6016 59.6104 57.8594 58.0381 59.8145 58.0381C61.2842 58.0381 62.2754 58.7354 62.6787 60.0068L62.6992 60.0752H63.9434L63.9297 60.0068C63.54 58.1338 62.002 56.9033 59.8145 56.9033C57.1143 56.9033 55.3438 58.9473 55.3438 62.0576V62.0713C55.3438 65.2227 57.0869 67.2324 59.8145 67.2324ZM68.543 67.1299C70.2793 67.1299 71.332 66.1455 71.585 65.1475L71.5986 65.0928H70.4092L70.3818 65.1543C70.1836 65.5986 69.5684 66.0703 68.5703 66.0703C67.2578 66.0703 66.417 65.1816 66.3828 63.6572H71.6875V63.1924C71.6875 60.9912 70.4707 59.501 68.4678 59.501C66.4648 59.501 65.166 61.0596 65.166 63.3359V63.3428C65.166 65.6533 66.4375 67.1299 68.543 67.1299ZM68.4609 60.5605C69.5479 60.5605 70.3545 61.251 70.4775 62.707H66.4033C66.5332 61.3057 67.3672 60.5605 68.4609 60.5605ZM73.0332 67H74.2227V62.6387C74.2227 61.3467 74.9678 60.5537 76.1436 60.5537C77.3193 60.5537 77.8662 61.1895 77.8662 62.5156V67H79.0557V62.2285C79.0557 60.4785 78.1328 59.501 76.4785 59.501C75.3916 59.501 74.7012 59.959 74.332 60.7383H74.2227V59.6309H73.0332V67ZM83.4297 67.1299C84.4551 67.1299 85.2754 66.6445 85.7266 65.8242H85.8359V67H87.0254V56.7051H85.8359V60.793H85.7266C85.3232 60.0068 84.4414 59.501 83.4297 59.501C81.5566 59.501 80.3398 60.998 80.3398 63.3086V63.3223C80.3398 65.6191 81.5635 67.1299 83.4297 67.1299ZM83.7031 66.0771C82.3564 66.0771 81.5566 65.0381 81.5566 63.3223V63.3086C81.5566 61.5928 82.3564 60.5537 83.7031 60.5537C85.043 60.5537 85.8633 61.6064 85.8633 63.3086V63.3223C85.8633 65.0244 85.043 66.0771 83.7031 66.0771ZM91.8164 67.1299C93.5527 67.1299 94.6055 66.1455 94.8584 65.1475L94.8721 65.0928H93.6826L93.6553 65.1543C93.457 65.5986 92.8418 66.0703 91.8438 66.0703C90.5312 66.0703 89.6904 65.1816 89.6562 63.6572H94.9609V63.1924C94.9609 60.9912 93.7441 59.501 91.7412 59.501C89.7383 59.501 88.4395 61.0596 88.4395 63.3359V63.3428C88.4395 65.6533 89.7109 67.1299 91.8164 67.1299ZM91.7344 60.5605C92.8213 60.5605 93.6279 61.251 93.751 62.707H89.6768C89.8066 61.3057 90.6406 60.5605 91.7344 60.5605ZM96.3066 67H97.4961V62.4336C97.4961 61.3535 98.3027 60.6357 99.4375 60.6357C99.6973 60.6357 99.9229 60.6631 100.169 60.7041V59.5488C100.053 59.5283 99.7998 59.501 99.5742 59.501C98.5762 59.501 97.8857 59.9521 97.6055 60.7246H97.4961V59.6309H96.3066V67Z" fill="black"/>
<line y1="81.5" x2="390" y2="81.5" stroke="#AAAAAA"/>
<g filter="url(#filter0_d_1668_64310)">
<rect x="45" y="568" width="300" height="40" rx="15" fill="url(#paint0_linear_1668_64310)"/>
</g>
<path d="M180.82 593H182.878V586.54H182.919L187.39 593H189.181V583.136H187.123V589.548H187.082L182.625 583.136H180.82V593ZM193.993 593.15C196.085 593.15 197.097 591.913 197.322 590.833L197.343 590.758H195.511L195.497 590.799C195.354 591.209 194.854 591.66 194.034 591.66C193.016 591.66 192.38 590.977 192.359 589.808H197.404V589.192C197.404 586.978 196.058 585.521 193.911 585.521C191.765 585.521 190.391 587.012 190.391 589.343V589.35C190.391 591.694 191.751 593.15 193.993 593.15ZM193.945 587.012C194.772 587.012 195.367 587.538 195.49 588.55H192.38C192.51 587.559 193.125 587.012 193.945 587.012ZM197.828 593H199.927L201.301 590.457H201.342L202.736 593H204.903L202.634 589.295L204.924 585.672H202.75L201.451 588.146H201.41L200.091 585.672H197.842L200.125 589.35L197.828 593ZM208.636 593.15C209.053 593.15 209.374 593.109 209.6 593.075V591.612C209.477 591.626 209.347 591.646 209.169 591.646C208.567 591.646 208.26 591.414 208.26 590.73V587.176H209.6V585.672H208.26V583.881H206.243V585.672H205.225V587.176H206.243V590.949C206.243 592.521 207.009 593.15 208.636 593.15Z" fill="white"/>
<path d="M117.439 138H119.575L122.142 128.921H122.273L124.857 138H126.984L130.386 125.317H128.039L125.868 134.836H125.745L123.214 125.317H121.201L118.705 134.836H118.573L116.402 125.317H114.038L117.439 138ZM132.083 138H134.271V132.401C134.271 130.96 135.08 130.046 136.381 130.046C137.708 130.046 138.314 130.802 138.314 132.296V138H140.503V131.786C140.503 129.501 139.334 128.209 137.189 128.209C135.801 128.209 134.878 128.833 134.421 129.861H134.271V124.676H132.083V138ZM145.206 138.158C146.472 138.158 147.491 137.613 148.019 136.682H148.168V138H150.33V131.435C150.33 129.404 148.941 128.209 146.472 128.209C144.187 128.209 142.64 129.281 142.429 130.898L142.42 130.978H144.485L144.494 130.942C144.714 130.31 145.364 129.949 146.366 129.949C147.544 129.949 148.168 130.477 148.168 131.435V132.261L145.698 132.41C143.36 132.551 142.051 133.553 142.051 135.267V135.284C142.051 137.033 143.378 138.158 145.206 138.158ZM144.213 135.179V135.161C144.213 134.37 144.784 133.922 146.006 133.843L148.168 133.702V134.476C148.168 135.618 147.192 136.479 145.874 136.479C144.907 136.479 144.213 135.996 144.213 135.179ZM156.237 138.044C156.659 138.044 157.063 138.009 157.38 137.947V136.26C157.116 136.286 156.949 136.295 156.642 136.295C155.728 136.295 155.35 135.891 155.35 134.933V130.09H157.38V128.394H155.35V126.038H153.126V128.394H151.632V130.09H153.126V135.451C153.126 137.306 154.031 138.044 156.237 138.044ZM158.77 141.349H160.264L161.793 136.066H159.534L158.77 141.349ZM168.113 138.193C170.478 138.193 172.191 136.972 172.191 135.144V135.126C172.191 133.729 171.304 132.929 169.423 132.507L167.867 132.164C166.83 131.927 166.426 131.584 166.426 131.021V131.013C166.426 130.292 167.129 129.817 168.104 129.817C169.133 129.817 169.766 130.31 169.924 130.916L169.933 130.942H171.989V130.925C171.849 129.369 170.451 128.209 168.113 128.209C165.846 128.209 164.264 129.404 164.264 131.136V131.145C164.264 132.56 165.134 133.421 166.962 133.825L168.518 134.177C169.572 134.414 169.994 134.783 169.994 135.346V135.363C169.994 136.084 169.238 136.576 168.148 136.576C167.059 136.576 166.417 136.11 166.188 135.442L166.18 135.425H164.009V135.442C164.193 137.068 165.67 138.193 168.113 138.193ZM179.225 141.375C181.352 141.375 182.45 140.61 183.276 138.202L186.722 128.394H184.419L182.187 135.899H182.02L179.778 128.394H177.388L180.824 138.009L180.71 138.448C180.473 139.318 179.937 139.688 179.04 139.688C178.812 139.688 178.565 139.679 178.39 139.661V141.34C178.653 141.366 178.961 141.375 179.225 141.375ZM191.864 138.193C194.738 138.193 196.487 136.312 196.487 133.201V133.184C196.487 130.09 194.729 128.209 191.864 128.209C189.008 128.209 187.241 130.099 187.241 133.184V133.201C187.241 136.312 188.981 138.193 191.864 138.193ZM191.864 136.418C190.344 136.418 189.474 135.231 189.474 133.21V133.192C189.474 131.171 190.344 129.976 191.864 129.976C193.376 129.976 194.246 131.171 194.246 133.192V133.21C194.246 135.231 193.385 136.418 191.864 136.418ZM201.366 138.193C202.755 138.193 203.73 137.569 204.179 136.541H204.328V138H206.517V128.394H204.328V133.992C204.328 135.434 203.572 136.348 202.157 136.348C200.839 136.348 200.285 135.592 200.285 134.106V128.394H198.097V134.607C198.097 136.893 199.204 138.193 201.366 138.193ZM208.688 138H210.877V132.419C210.877 131.048 211.835 130.178 213.294 130.178C213.672 130.178 214.032 130.23 214.384 130.301V128.341C214.173 128.279 213.83 128.235 213.496 128.235C212.23 128.235 211.352 128.842 211.026 129.87H210.877V128.394H208.688V138ZM224.106 141.375C226.91 141.375 228.686 139.978 228.686 137.763V128.394H226.497V129.976H226.383C225.838 128.886 224.801 128.235 223.474 128.235C220.995 128.235 219.483 130.151 219.483 132.929V132.946C219.483 135.671 220.995 137.552 223.43 137.552C224.757 137.552 225.803 136.989 226.356 135.961H226.506V137.798C226.506 139.028 225.636 139.723 224.142 139.723C222.92 139.723 222.19 139.292 222.041 138.677L222.032 138.65H219.844L219.835 138.677C220.055 140.294 221.575 141.375 224.106 141.375ZM224.106 135.812C222.586 135.812 221.725 134.643 221.725 132.946V132.929C221.725 131.232 222.586 130.055 224.106 130.055C225.618 130.055 226.541 131.232 226.541 132.929V132.946C226.541 134.643 225.627 135.812 224.106 135.812ZM234.979 138.193C237.59 138.193 238.873 136.69 239.181 135.451L239.207 135.372H237.124L237.098 135.434C236.887 135.873 236.21 136.471 235.023 136.471C233.538 136.471 232.606 135.469 232.58 133.746H239.295V133.025C239.295 130.125 237.607 128.209 234.874 128.209C232.141 128.209 230.392 130.187 230.392 133.21V133.219C230.392 136.277 232.123 138.193 234.979 138.193ZM234.9 129.923C236.122 129.923 237.01 130.705 237.159 132.278H232.598C232.765 130.749 233.679 129.923 234.9 129.923ZM240.983 138H243.172V132.401C243.172 130.96 243.98 130.046 245.281 130.046C246.608 130.046 247.215 130.802 247.215 132.296V138H249.403V131.786C249.403 129.501 248.234 128.209 246.09 128.209C244.701 128.209 243.778 128.833 243.321 129.861H243.172V128.394H240.983V138ZM254.95 138.158C256.304 138.158 257.341 137.543 257.868 136.497H258.018V138H260.215V124.676H258.018V129.923H257.868C257.367 128.886 256.269 128.235 254.95 128.235C252.516 128.235 251.013 130.134 251.013 133.192V133.21C251.013 136.251 252.542 138.158 254.95 138.158ZM255.636 136.312C254.142 136.312 253.236 135.144 253.236 133.21V133.192C253.236 131.259 254.15 130.081 255.636 130.081C257.121 130.081 258.053 131.268 258.053 133.192V133.21C258.053 135.135 257.13 136.312 255.636 136.312ZM266.579 138.193C269.189 138.193 270.473 136.69 270.78 135.451L270.807 135.372H268.724L268.697 135.434C268.486 135.873 267.81 136.471 266.623 136.471C265.138 136.471 264.206 135.469 264.18 133.746H270.895V133.025C270.895 130.125 269.207 128.209 266.474 128.209C263.74 128.209 261.991 130.187 261.991 133.21V133.219C261.991 136.277 263.723 138.193 266.579 138.193ZM266.5 129.923C267.722 129.923 268.609 130.705 268.759 132.278H264.197C264.364 130.749 265.278 129.923 266.5 129.923ZM272.583 138H274.771V132.419C274.771 131.048 275.729 130.178 277.188 130.178C277.566 130.178 277.927 130.23 278.278 130.301V128.341C278.067 128.279 277.725 128.235 277.391 128.235C276.125 128.235 275.246 128.842 274.921 129.87H274.771V128.394H272.583V138Z" fill="black"/>
<path d="M42.6562 166H43.7109V162.361L46.7109 157.545H45.5098L43.2305 161.301H43.1367L40.8574 157.545H39.6562L42.6562 162.361V166ZM49.1641 166.111C50.9629 166.111 52.0762 164.869 52.0762 162.848V162.836C52.0762 160.809 50.9629 159.572 49.1641 159.572C47.3652 159.572 46.252 160.809 46.252 162.836V162.848C46.252 164.869 47.3652 166.111 49.1641 166.111ZM49.1641 165.209C47.9688 165.209 47.2949 164.336 47.2949 162.848V162.836C47.2949 161.342 47.9688 160.475 49.1641 160.475C50.3594 160.475 51.0332 161.342 51.0332 162.836V162.848C51.0332 164.336 50.3594 165.209 49.1641 165.209ZM55.2734 166.111C56.1992 166.111 56.8379 165.73 57.1484 165.057H57.2422V166H58.2617V159.684H57.2422V163.422C57.2422 164.529 56.6504 165.209 55.5371 165.209C54.5293 165.209 54.1191 164.664 54.1191 163.527V159.684H53.0996V163.773C53.0996 165.268 53.8379 166.111 55.2734 166.111ZM65.125 166.111C66.6426 166.111 67.4922 165.297 67.75 164.154L67.7617 164.09L66.7539 164.096L66.7422 164.131C66.5078 164.834 65.9688 165.209 65.1191 165.209C63.9941 165.209 63.2676 164.277 63.2676 162.824V162.812C63.2676 161.389 63.9824 160.475 65.1191 160.475C66.0273 160.475 66.5898 160.979 66.748 161.6L66.7539 161.617H67.7676L67.7617 161.582C67.5742 160.457 66.6543 159.572 65.1191 159.572C63.3496 159.572 62.2246 160.85 62.2246 162.812V162.824C62.2246 164.828 63.3555 166.111 65.125 166.111ZM70.4902 166.111C71.3398 166.111 72.002 165.742 72.4004 165.068H72.4941V166H73.5137V161.676C73.5137 160.363 72.6523 159.572 71.1113 159.572C69.7637 159.572 68.8027 160.24 68.6387 161.23L68.6328 161.266H69.6523L69.6582 161.248C69.8223 160.756 70.3203 160.475 71.0762 160.475C72.0195 160.475 72.4941 160.896 72.4941 161.676V162.25L70.6836 162.361C69.2129 162.449 68.3809 163.1 68.3809 164.225V164.236C68.3809 165.385 69.2891 166.111 70.4902 166.111ZM69.4238 164.213V164.201C69.4238 163.574 69.8457 163.234 70.8066 163.176L72.4941 163.07V163.645C72.4941 164.547 71.7383 165.227 70.7012 165.227C69.9688 165.227 69.4238 164.852 69.4238 164.213ZM74.877 166H75.8965V162.262C75.8965 161.154 76.5352 160.475 77.543 160.475C78.5508 160.475 79.0195 161.02 79.0195 162.156V166H80.0391V161.91C80.0391 160.41 79.248 159.572 77.8301 159.572C76.8984 159.572 76.3066 159.965 75.9902 160.633H75.8965V159.684H74.877V166ZM86.8438 166.111C88.3613 166.111 89.2109 165.297 89.4688 164.154L89.4805 164.09L88.4727 164.096L88.4609 164.131C88.2266 164.834 87.6875 165.209 86.8379 165.209C85.7129 165.209 84.9863 164.277 84.9863 162.824V162.812C84.9863 161.389 85.7012 160.475 86.8379 160.475C87.7461 160.475 88.3086 160.979 88.4668 161.6L88.4727 161.617H89.4863L89.4805 161.582C89.293 160.457 88.373 159.572 86.8379 159.572C85.0684 159.572 83.9434 160.85 83.9434 162.812V162.824C83.9434 164.828 85.0742 166.111 86.8438 166.111ZM90.5332 166H91.5527V162.262C91.5527 161.154 92.1914 160.475 93.1992 160.475C94.207 160.475 94.6758 161.02 94.6758 162.156V166H95.6953V161.91C95.6953 160.41 94.9043 159.572 93.4863 159.572C92.5547 159.572 91.9629 159.965 91.6465 160.633H91.5527V157.176H90.5332V166ZM98.7754 166.111C99.625 166.111 100.287 165.742 100.686 165.068H100.779V166H101.799V161.676C101.799 160.363 100.938 159.572 99.3965 159.572C98.0488 159.572 97.0879 160.24 96.9238 161.23L96.918 161.266H97.9375L97.9434 161.248C98.1074 160.756 98.6055 160.475 99.3613 160.475C100.305 160.475 100.779 160.896 100.779 161.676V162.25L98.9688 162.361C97.498 162.449 96.666 163.1 96.666 164.225V164.236C96.666 165.385 97.5742 166.111 98.7754 166.111ZM97.709 164.213V164.201C97.709 163.574 98.1309 163.234 99.0918 163.176L100.779 163.07V163.645C100.779 164.547 100.023 165.227 98.9863 165.227C98.2539 165.227 97.709 164.852 97.709 164.213ZM103.162 166H104.182V162.262C104.182 161.154 104.82 160.475 105.828 160.475C106.836 160.475 107.305 161.02 107.305 162.156V166H108.324V161.91C108.324 160.41 107.533 159.572 106.115 159.572C105.184 159.572 104.592 159.965 104.275 160.633H104.182V159.684H103.162V166ZM112.271 168.227C113.994 168.227 115.084 167.324 115.084 165.912V159.684H114.064V160.727H113.994C113.607 160.012 112.916 159.572 112.025 159.572C110.373 159.572 109.354 160.855 109.354 162.625V162.637C109.354 164.406 110.367 165.672 112.002 165.672C112.869 165.672 113.584 165.279 113.982 164.582H114.076V165.859C114.076 166.791 113.402 167.324 112.271 167.324C111.363 167.324 110.801 166.984 110.689 166.504L110.684 166.498H109.629L109.617 166.504C109.775 167.541 110.748 168.227 112.271 168.227ZM112.225 164.77C111.053 164.77 110.396 163.891 110.396 162.637V162.625C110.396 161.371 111.053 160.475 112.225 160.475C113.391 160.475 114.1 161.371 114.1 162.625V162.637C114.1 163.891 113.396 164.77 112.225 164.77ZM119.061 166.111C120.549 166.111 121.451 165.268 121.668 164.412L121.68 164.365H120.66L120.637 164.418C120.467 164.799 119.939 165.203 119.084 165.203C117.959 165.203 117.238 164.441 117.209 163.135H121.756V162.736C121.756 160.85 120.713 159.572 118.996 159.572C117.279 159.572 116.166 160.908 116.166 162.859V162.865C116.166 164.846 117.256 166.111 119.061 166.111ZM118.99 160.48C119.922 160.48 120.613 161.072 120.719 162.32H117.227C117.338 161.119 118.053 160.48 118.99 160.48ZM126.932 166H127.951L129.357 161.113H129.451L130.863 166H131.889L133.658 159.684H132.645L131.402 164.734H131.309L129.896 159.684H128.93L127.518 164.734H127.424L126.182 159.684H125.162L126.932 166ZM134.564 166H135.584V162.262C135.584 161.154 136.223 160.475 137.23 160.475C138.238 160.475 138.707 161.02 138.707 162.156V166H139.727V161.91C139.727 160.41 138.936 159.572 137.518 159.572C136.586 159.572 135.994 159.965 135.678 160.633H135.584V157.176H134.564V166ZM143.668 166.111C145.467 166.111 146.58 164.869 146.58 162.848V162.836C146.58 160.809 145.467 159.572 143.668 159.572C141.869 159.572 140.756 160.809 140.756 162.836V162.848C140.756 164.869 141.869 166.111 143.668 166.111ZM143.668 165.209C142.473 165.209 141.799 164.336 141.799 162.848V162.836C141.799 161.342 142.473 160.475 143.668 160.475C144.863 160.475 145.537 161.342 145.537 162.836V162.848C145.537 164.336 144.863 165.209 143.668 165.209ZM152.705 166.111C154.141 166.111 155.236 165.332 155.236 164.207V164.195C155.236 163.293 154.662 162.777 153.473 162.49L152.5 162.256C151.756 162.074 151.439 161.805 151.439 161.377V161.365C151.439 160.809 151.99 160.422 152.74 160.422C153.502 160.422 153.994 160.768 154.129 161.266H155.131C154.99 160.234 154.07 159.572 152.746 159.572C151.404 159.572 150.396 160.363 150.396 161.412V161.418C150.396 162.326 150.93 162.842 152.113 163.123L153.092 163.357C153.871 163.545 154.193 163.844 154.193 164.271V164.283C154.193 164.857 153.59 165.262 152.74 165.262C151.932 165.262 151.428 164.916 151.258 164.389H150.215C150.332 165.432 151.299 166.111 152.705 166.111ZM158.896 166.111C160.385 166.111 161.287 165.268 161.504 164.412L161.516 164.365H160.496L160.473 164.418C160.303 164.799 159.775 165.203 158.92 165.203C157.795 165.203 157.074 164.441 157.045 163.135H161.592V162.736C161.592 160.85 160.549 159.572 158.832 159.572C157.115 159.572 156.002 160.908 156.002 162.859V162.865C156.002 164.846 157.092 166.111 158.896 166.111ZM158.826 160.48C159.758 160.48 160.449 161.072 160.555 162.32H157.062C157.174 161.119 157.889 160.48 158.826 160.48ZM165.252 166.111C166.74 166.111 167.643 165.268 167.859 164.412L167.871 164.365H166.852L166.828 164.418C166.658 164.799 166.131 165.203 165.275 165.203C164.15 165.203 163.43 164.441 163.4 163.135H167.947V162.736C167.947 160.85 166.904 159.572 165.188 159.572C163.471 159.572 162.357 160.908 162.357 162.859V162.865C162.357 164.846 163.447 166.111 165.252 166.111ZM165.182 160.48C166.113 160.48 166.805 161.072 166.91 162.32H163.418C163.529 161.119 164.244 160.48 165.182 160.48ZM171.197 166.111C172.633 166.111 173.729 165.332 173.729 164.207V164.195C173.729 163.293 173.154 162.777 171.965 162.49L170.992 162.256C170.248 162.074 169.932 161.805 169.932 161.377V161.365C169.932 160.809 170.482 160.422 171.232 160.422C171.994 160.422 172.486 160.768 172.621 161.266H173.623C173.482 160.234 172.562 159.572 171.238 159.572C169.896 159.572 168.889 160.363 168.889 161.412V161.418C168.889 162.326 169.422 162.842 170.605 163.123L171.584 163.357C172.363 163.545 172.686 163.844 172.686 164.271V164.283C172.686 164.857 172.082 165.262 171.232 165.262C170.424 165.262 169.92 164.916 169.75 164.389H168.707C168.824 165.432 169.791 166.111 171.197 166.111ZM178.225 168.215C179.344 168.215 179.865 167.805 180.387 166.387L182.854 159.684H181.781L180.053 164.881H179.959L178.225 159.684H177.135L179.473 166.006L179.355 166.381C179.127 167.107 178.775 167.371 178.195 167.371C178.055 167.371 177.896 167.365 177.773 167.342V168.18C177.914 168.203 178.09 168.215 178.225 168.215ZM186.062 166.111C187.861 166.111 188.975 164.869 188.975 162.848V162.836C188.975 160.809 187.861 159.572 186.062 159.572C184.264 159.572 183.15 160.809 183.15 162.836V162.848C183.15 164.869 184.264 166.111 186.062 166.111ZM186.062 165.209C184.867 165.209 184.193 164.336 184.193 162.848V162.836C184.193 161.342 184.867 160.475 186.062 160.475C187.258 160.475 187.932 161.342 187.932 162.836V162.848C187.932 164.336 187.258 165.209 186.062 165.209ZM192.172 166.111C193.098 166.111 193.736 165.73 194.047 165.057H194.141V166H195.16V159.684H194.141V163.422C194.141 164.529 193.549 165.209 192.436 165.209C191.428 165.209 191.018 164.664 191.018 163.527V159.684H189.998V163.773C189.998 165.268 190.736 166.111 192.172 166.111ZM196.564 166H197.584V162.086C197.584 161.16 198.275 160.545 199.248 160.545C199.471 160.545 199.664 160.568 199.875 160.604V159.613C199.775 159.596 199.559 159.572 199.365 159.572C198.51 159.572 197.918 159.959 197.678 160.621H197.584V159.684H196.564V166ZM206.111 168.227C207.834 168.227 208.924 167.324 208.924 165.912V159.684H207.904V160.727H207.834C207.447 160.012 206.756 159.572 205.865 159.572C204.213 159.572 203.193 160.855 203.193 162.625V162.637C203.193 164.406 204.207 165.672 205.842 165.672C206.709 165.672 207.424 165.279 207.822 164.582H207.916V165.859C207.916 166.791 207.242 167.324 206.111 167.324C205.203 167.324 204.641 166.984 204.529 166.504L204.523 166.498H203.469L203.457 166.504C203.615 167.541 204.588 168.227 206.111 168.227ZM206.064 164.77C204.893 164.77 204.236 163.891 204.236 162.637V162.625C204.236 161.371 204.893 160.475 206.064 160.475C207.23 160.475 207.939 161.371 207.939 162.625V162.637C207.939 163.891 207.236 164.77 206.064 164.77ZM212.9 166.111C214.389 166.111 215.291 165.268 215.508 164.412L215.52 164.365H214.5L214.477 164.418C214.307 164.799 213.779 165.203 212.924 165.203C211.799 165.203 211.078 164.441 211.049 163.135H215.596V162.736C215.596 160.85 214.553 159.572 212.836 159.572C211.119 159.572 210.006 160.908 210.006 162.859V162.865C210.006 164.846 211.096 166.111 212.9 166.111ZM212.83 160.48C213.762 160.48 214.453 161.072 214.559 162.32H211.066C211.178 161.119 211.893 160.48 212.83 160.48ZM216.678 166H217.697V162.262C217.697 161.154 218.336 160.475 219.344 160.475C220.352 160.475 220.82 161.02 220.82 162.156V166H221.84V161.91C221.84 160.41 221.049 159.572 219.631 159.572C218.699 159.572 218.107 159.965 217.791 160.633H217.697V159.684H216.678V166ZM223.186 166H224.205V162.262C224.205 161.154 224.844 160.475 225.852 160.475C226.859 160.475 227.328 161.02 227.328 162.156V166H228.348V161.91C228.348 160.41 227.557 159.572 226.139 159.572C225.207 159.572 224.615 159.965 224.299 160.633H224.205V159.684H223.186V166ZM232.025 166.111C232.904 166.111 233.607 165.695 233.994 164.992H234.088V166H235.107V157.176H234.088V160.68H233.994C233.648 160.006 232.893 159.572 232.025 159.572C230.42 159.572 229.377 160.855 229.377 162.836V162.848C229.377 164.816 230.426 166.111 232.025 166.111ZM232.26 165.209C231.105 165.209 230.42 164.318 230.42 162.848V162.836C230.42 161.365 231.105 160.475 232.26 160.475C233.408 160.475 234.111 161.377 234.111 162.836V162.848C234.111 164.307 233.408 165.209 232.26 165.209ZM239.143 166.111C240.631 166.111 241.533 165.268 241.75 164.412L241.762 164.365H240.742L240.719 164.418C240.549 164.799 240.021 165.203 239.166 165.203C238.041 165.203 237.32 164.441 237.291 163.135H241.838V162.736C241.838 160.85 240.795 159.572 239.078 159.572C237.361 159.572 236.248 160.908 236.248 162.859V162.865C236.248 164.846 237.338 166.111 239.143 166.111ZM239.072 160.48C240.004 160.48 240.695 161.072 240.801 162.32H237.309C237.42 161.119 238.135 160.48 239.072 160.48ZM242.92 166H243.939V162.086C243.939 161.16 244.631 160.545 245.604 160.545C245.826 160.545 246.02 160.568 246.23 160.604V159.613C246.131 159.596 245.914 159.572 245.721 159.572C244.865 159.572 244.273 159.959 244.033 160.621H243.939V159.684H242.92V166ZM252.461 166.111C254.26 166.111 255.373 164.869 255.373 162.848V162.836C255.373 160.809 254.26 159.572 252.461 159.572C250.662 159.572 249.549 160.809 249.549 162.836V162.848C249.549 164.869 250.662 166.111 252.461 166.111ZM252.461 165.209C251.266 165.209 250.592 164.336 250.592 162.848V162.836C250.592 161.342 251.266 160.475 252.461 160.475C253.656 160.475 254.33 161.342 254.33 162.836V162.848C254.33 164.336 253.656 165.209 252.461 165.209ZM256.455 166H257.475V162.262C257.475 161.154 258.113 160.475 259.121 160.475C260.129 160.475 260.598 161.02 260.598 162.156V166H261.617V161.91C261.617 160.41 260.826 159.572 259.408 159.572C258.477 159.572 257.885 159.965 257.568 160.633H257.475V159.684H256.455V166ZM266.377 168.215C267.496 168.215 268.018 167.805 268.539 166.387L271.006 159.684H269.934L268.205 164.881H268.111L266.377 159.684H265.287L267.625 166.006L267.508 166.381C267.279 167.107 266.928 167.371 266.348 167.371C266.207 167.371 266.049 167.365 265.926 167.342V168.18C266.066 168.203 266.242 168.215 266.377 168.215ZM274.215 166.111C276.014 166.111 277.127 164.869 277.127 162.848V162.836C277.127 160.809 276.014 159.572 274.215 159.572C272.416 159.572 271.303 160.809 271.303 162.836V162.848C271.303 164.869 272.416 166.111 274.215 166.111ZM274.215 165.209C273.02 165.209 272.346 164.336 272.346 162.848V162.836C272.346 161.342 273.02 160.475 274.215 160.475C275.41 160.475 276.084 161.342 276.084 162.836V162.848C276.084 164.336 275.41 165.209 274.215 165.209ZM280.324 166.111C281.25 166.111 281.889 165.73 282.199 165.057H282.293V166H283.312V159.684H282.293V163.422C282.293 164.529 281.701 165.209 280.588 165.209C279.58 165.209 279.17 164.664 279.17 163.527V159.684H278.15V163.773C278.15 165.268 278.889 166.111 280.324 166.111ZM284.717 166H285.736V162.086C285.736 161.16 286.428 160.545 287.4 160.545C287.623 160.545 287.816 160.568 288.027 160.604V159.613C287.928 159.596 287.711 159.572 287.518 159.572C286.662 159.572 286.07 159.959 285.83 160.621H285.736V159.684H284.717V166ZM291.662 168.109H292.682V165.004H292.775C293.121 165.678 293.877 166.111 294.744 166.111C296.35 166.111 297.393 164.828 297.393 162.848V162.836C297.393 160.867 296.344 159.572 294.744 159.572C293.865 159.572 293.162 159.988 292.775 160.691H292.682V159.684H291.662V168.109ZM294.51 165.209C293.361 165.209 292.658 164.307 292.658 162.848V162.836C292.658 161.377 293.361 160.475 294.51 160.475C295.664 160.475 296.35 161.365 296.35 162.836V162.848C296.35 164.318 295.664 165.209 294.51 165.209ZM298.486 166H299.506V162.086C299.506 161.16 300.197 160.545 301.17 160.545C301.393 160.545 301.586 160.568 301.797 160.604V159.613C301.697 159.596 301.48 159.572 301.287 159.572C300.432 159.572 299.84 159.959 299.6 160.621H299.506V159.684H298.486V166ZM304.977 166.111C306.775 166.111 307.889 164.869 307.889 162.848V162.836C307.889 160.809 306.775 159.572 304.977 159.572C303.178 159.572 302.064 160.809 302.064 162.836V162.848C302.064 164.869 303.178 166.111 304.977 166.111ZM304.977 165.209C303.781 165.209 303.107 164.336 303.107 162.848V162.836C303.107 161.342 303.781 160.475 304.977 160.475C306.172 160.475 306.846 161.342 306.846 162.836V162.848C306.846 164.336 306.172 165.209 304.977 165.209ZM309.393 166H310.412V160.527H311.848V159.684H310.412V159.01C310.412 158.318 310.705 157.961 311.432 157.961C311.613 157.961 311.783 157.967 311.906 157.99V157.176C311.695 157.135 311.473 157.117 311.227 157.117C310.025 157.117 309.393 157.721 309.393 158.98V159.684H308.344V160.527H309.393V166ZM313.357 158.465C313.744 158.465 314.061 158.148 314.061 157.762C314.061 157.375 313.744 157.059 313.357 157.059C312.971 157.059 312.654 157.375 312.654 157.762C312.654 158.148 312.971 158.465 313.357 158.465ZM312.842 166H313.861V159.684H312.842V166ZM315.342 166H316.361V157.176H315.342V166ZM320.396 166.111C321.885 166.111 322.787 165.268 323.004 164.412L323.016 164.365H321.996L321.973 164.418C321.803 164.799 321.275 165.203 320.42 165.203C319.295 165.203 318.574 164.441 318.545 163.135H323.092V162.736C323.092 160.85 322.049 159.572 320.332 159.572C318.615 159.572 317.502 160.908 317.502 162.859V162.865C317.502 164.846 318.592 166.111 320.396 166.111ZM320.326 160.48C321.258 160.48 321.949 161.072 322.055 162.32H318.562C318.674 161.119 319.389 160.48 320.326 160.48ZM327.107 166H328.127V157.176H327.107V166ZM331.318 166.111C332.168 166.111 332.83 165.742 333.229 165.068H333.322V166H334.342V161.676C334.342 160.363 333.48 159.572 331.939 159.572C330.592 159.572 329.631 160.24 329.467 161.23L329.461 161.266H330.48L330.486 161.248C330.65 160.756 331.148 160.475 331.904 160.475C332.848 160.475 333.322 160.896 333.322 161.676V162.25L331.512 162.361C330.041 162.449 329.209 163.1 329.209 164.225V164.236C329.209 165.385 330.117 166.111 331.318 166.111ZM330.252 164.213V164.201C330.252 163.574 330.674 163.234 331.635 163.176L333.322 163.07V163.645C333.322 164.547 332.566 165.227 331.529 165.227C330.797 165.227 330.252 164.852 330.252 164.213ZM337.949 166.047C338.148 166.047 338.342 166.023 338.541 165.988V165.121C338.354 165.139 338.254 165.145 338.072 165.145C337.416 165.145 337.158 164.846 337.158 164.102V160.527H338.541V159.684H337.158V158.049H336.104V159.684H335.107V160.527H336.104V164.359C336.104 165.566 336.648 166.047 337.949 166.047ZM342.049 166.111C343.537 166.111 344.439 165.268 344.656 164.412L344.668 164.365H343.648L343.625 164.418C343.455 164.799 342.928 165.203 342.072 165.203C340.947 165.203 340.227 164.441 340.197 163.135H344.744V162.736C344.744 160.85 343.701 159.572 341.984 159.572C340.268 159.572 339.154 160.908 339.154 162.859V162.865C339.154 164.846 340.244 166.111 342.049 166.111ZM341.979 160.48C342.91 160.48 343.602 161.072 343.707 162.32H340.215C340.326 161.119 341.041 160.48 341.979 160.48ZM345.826 166H346.846V162.086C346.846 161.16 347.537 160.545 348.51 160.545C348.732 160.545 348.926 160.568 349.137 160.604V159.613C349.037 159.596 348.82 159.572 348.627 159.572C347.771 159.572 347.18 159.959 346.939 160.621H346.846V159.684H345.826V166ZM349.967 166.059C350.389 166.059 350.729 165.713 350.729 165.297C350.729 164.875 350.389 164.535 349.967 164.535C349.551 164.535 349.205 164.875 349.205 165.297C349.205 165.713 349.551 166.059 349.967 166.059Z" fill="#999999"/>
<path d="M41.2168 255H42.9805V250.974H47.1162V249.538H42.9805V246.619H47.5059V245.136H41.2168V255ZM52.4824 255.15C54.5127 255.15 55.5107 253.981 55.75 253.018L55.7705 252.956H54.1504L54.1299 253.004C53.9658 253.346 53.4395 253.811 52.5166 253.811C51.3613 253.811 50.6367 253.031 50.6162 251.691H55.8389V251.131C55.8389 248.875 54.5264 247.385 52.4004 247.385C50.2744 247.385 48.9141 248.923 48.9141 251.274V251.281C48.9141 253.66 50.2607 255.15 52.4824 255.15ZM52.4209 248.718C53.3711 248.718 54.0615 249.326 54.1777 250.55H50.6299C50.7598 249.36 51.4707 248.718 52.4209 248.718ZM57.541 255H59.2432V250.454C59.2432 249.524 59.8584 248.813 60.6992 248.813C61.5332 248.813 62.0459 249.326 62.0459 250.153V255H63.748V250.331C63.748 249.477 64.3223 248.813 65.2109 248.813C66.1201 248.813 66.5645 249.306 66.5645 250.276V255H68.2666V249.859C68.2666 248.308 67.3643 247.385 65.8604 247.385C64.8213 247.385 63.96 247.918 63.5977 248.731H63.4814C63.1602 247.904 62.4219 247.385 61.4102 247.385C60.4326 247.385 59.6807 247.856 59.3594 248.69H59.2432V247.528H57.541V255ZM72.3203 255.123C73.3047 255.123 74.0977 254.699 74.5078 253.975H74.624V255H76.3057V249.894C76.3057 248.314 75.2256 247.385 73.3047 247.385C71.5273 247.385 70.3242 248.219 70.1602 249.477L70.1533 249.538H71.7598L71.7666 249.511C71.9375 249.019 72.4434 248.738 73.2227 248.738C74.1387 248.738 74.624 249.148 74.624 249.894V250.536L72.7031 250.652C70.8848 250.762 69.8662 251.541 69.8662 252.874V252.888C69.8662 254.248 70.8984 255.123 72.3203 255.123ZM71.5479 252.806V252.792C71.5479 252.177 71.9922 251.828 72.9424 251.767L74.624 251.657V252.259C74.624 253.147 73.8652 253.817 72.8398 253.817C72.0879 253.817 71.5479 253.441 71.5479 252.806ZM78.418 255H80.1201V244.637H78.418V255ZM85.4727 255.15C87.5029 255.15 88.501 253.981 88.7402 253.018L88.7607 252.956H87.1406L87.1201 253.004C86.9561 253.346 86.4297 253.811 85.5068 253.811C84.3516 253.811 83.627 253.031 83.6064 251.691H88.8291V251.131C88.8291 248.875 87.5166 247.385 85.3906 247.385C83.2646 247.385 81.9043 248.923 81.9043 251.274V251.281C81.9043 253.66 83.251 255.15 85.4727 255.15ZM85.4111 248.718C86.3613 248.718 87.0518 249.326 87.168 250.55H83.6201C83.75 249.36 84.4609 248.718 85.4111 248.718Z" fill="black"/>
<line x1="40" y1="268.5" x2="350" y2="268.5" stroke="#AAAAAA"/>
<circle cx="342" cy="251" r="7.5" stroke="black"/>
<path d="M40.2168 302H41.8096V294.986H41.9258L44.6602 302H45.8633L48.5977 294.986H48.7207V302H50.3066V292.136H48.2832L45.3232 299.724H45.207L42.2402 292.136H40.2168V302ZM54.5996 302.123C55.584 302.123 56.377 301.699 56.7871 300.975H56.9033V302H58.585V296.894C58.585 295.314 57.5049 294.385 55.584 294.385C53.8066 294.385 52.6035 295.219 52.4395 296.477L52.4326 296.538H54.0391L54.0459 296.511C54.2168 296.019 54.7227 295.738 55.502 295.738C56.418 295.738 56.9033 296.148 56.9033 296.894V297.536L54.9824 297.652C53.1641 297.762 52.1455 298.541 52.1455 299.874V299.888C52.1455 301.248 53.1777 302.123 54.5996 302.123ZM53.8271 299.806V299.792C53.8271 299.177 54.2715 298.828 55.2217 298.767L56.9033 298.657V299.259C56.9033 300.147 56.1445 300.817 55.1191 300.817C54.3672 300.817 53.8271 300.441 53.8271 299.806ZM60.6973 302H62.3994V291.637H60.6973V302ZM67.752 302.15C69.7822 302.15 70.7803 300.981 71.0195 300.018L71.04 299.956H69.4199L69.3994 300.004C69.2354 300.346 68.709 300.811 67.7861 300.811C66.6309 300.811 65.9062 300.031 65.8857 298.691H71.1084V298.131C71.1084 295.875 69.7959 294.385 67.6699 294.385C65.5439 294.385 64.1836 295.923 64.1836 298.274V298.281C64.1836 300.66 65.5303 302.15 67.752 302.15ZM67.6904 295.718C68.6406 295.718 69.3311 296.326 69.4473 297.55H65.8994C66.0293 296.36 66.7402 295.718 67.6904 295.718Z" fill="black"/>
<line x1="39" y1="315.5" x2="349" y2="315.5" stroke="#AAAAAA"/>
<circle cx="343" cy="298" r="7.5" stroke="#384CFF"/>
<circle cx="343" cy="298" r="4.5" fill="#384CFF" stroke="#384CFF"/>
<path d="M45.332 349.246C47.6084 349.246 49.2422 347.927 49.502 345.951V345.903H47.7725L47.7656 345.938C47.5127 347.024 46.583 347.722 45.332 347.722C43.6504 347.722 42.6045 346.32 42.6045 344.071V344.058C42.6045 341.815 43.6504 340.414 45.3252 340.414C46.5693 340.414 47.5127 341.187 47.7656 342.355L47.7725 342.383H49.502V342.328C49.2695 340.312 47.5674 338.89 45.3252 338.89C42.5293 338.89 40.7998 340.865 40.7998 344.064V344.078C40.7998 347.264 42.5361 349.246 45.332 349.246ZM53.7676 349.15C54.8477 349.15 55.6064 348.665 55.9551 347.865H56.0713V349H57.7734V341.528H56.0713V345.883C56.0713 347.004 55.4834 347.715 54.3828 347.715C53.3574 347.715 52.9268 347.127 52.9268 345.972V341.528H51.2246V346.361C51.2246 348.139 52.0859 349.15 53.7676 349.15ZM62.6748 349.15C64.5137 349.15 65.8467 348.2 65.8467 346.778V346.765C65.8467 345.678 65.1562 345.056 63.6934 344.728L62.4834 344.461C61.6768 344.276 61.3623 344.01 61.3623 343.572V343.565C61.3623 343.005 61.9092 342.636 62.668 342.636C63.4678 342.636 63.96 343.019 64.083 343.49L64.0898 343.511H65.6895V343.497C65.5801 342.287 64.4932 341.385 62.6748 341.385C60.9111 341.385 59.6807 342.314 59.6807 343.661V343.668C59.6807 344.769 60.3574 345.438 61.7793 345.753L62.9893 346.026C63.8096 346.211 64.1377 346.498 64.1377 346.936V346.949C64.1377 347.51 63.5498 347.893 62.7021 347.893C61.8545 347.893 61.3555 347.53 61.1777 347.011L61.1709 346.997H59.4824V347.011C59.626 348.275 60.7744 349.15 62.6748 349.15ZM70.4473 349.034C70.7754 349.034 71.0898 349.007 71.3359 348.959V347.646C71.1309 347.667 71.001 347.674 70.7617 347.674C70.0508 347.674 69.7568 347.359 69.7568 346.614V342.848H71.3359V341.528H69.7568V339.696H68.0273V341.528H66.8652V342.848H68.0273V347.018C68.0273 348.46 68.7314 349.034 70.4473 349.034ZM76.1895 349.15C78.4248 349.15 79.7852 347.688 79.7852 345.268V345.254C79.7852 342.848 78.418 341.385 76.1895 341.385C73.9678 341.385 72.5938 342.854 72.5938 345.254V345.268C72.5938 347.688 73.9473 349.15 76.1895 349.15ZM76.1895 347.77C75.0068 347.77 74.3301 346.847 74.3301 345.274V345.261C74.3301 343.688 75.0068 342.759 76.1895 342.759C77.3652 342.759 78.042 343.688 78.042 345.261V345.274C78.042 346.847 77.3721 347.77 76.1895 347.77ZM81.4941 349H83.1963V344.454C83.1963 343.524 83.8115 342.813 84.6523 342.813C85.4863 342.813 85.999 343.326 85.999 344.153V349H87.7012V344.331C87.7012 343.477 88.2754 342.813 89.1641 342.813C90.0732 342.813 90.5176 343.306 90.5176 344.276V349H92.2197V343.859C92.2197 342.308 91.3174 341.385 89.8135 341.385C88.7744 341.385 87.9131 341.918 87.5508 342.731H87.4346C87.1133 341.904 86.375 341.385 85.3633 341.385C84.3857 341.385 83.6338 341.856 83.3125 342.69H83.1963V341.528H81.4941V349Z" fill="black"/>
<line x1="40" y1="391.5" x2="350" y2="391.5" stroke="#AAAAAA"/>
<path d="M43.208 368.166C44.7803 368.166 45.8105 367.346 45.8105 366.027V366.022C45.8105 365.007 45.2295 364.416 43.7598 364.089L42.9785 363.913C42.0215 363.703 41.6357 363.322 41.6357 362.761V362.756C41.6357 362.019 42.3145 361.604 43.1934 361.599C44.1113 361.594 44.6973 362.053 44.7949 362.673L44.8047 362.736H45.6836L45.6787 362.668C45.6055 361.618 44.624 360.788 43.2178 360.788C41.7627 360.788 40.7422 361.613 40.7373 362.78V362.785C40.7373 363.806 41.3477 364.455 42.7588 364.768L43.54 364.938C44.5068 365.153 44.9121 365.554 44.9121 366.14V366.145C44.9121 366.862 44.2139 367.355 43.2568 367.355C42.2412 367.355 41.5088 366.911 41.4453 366.208L41.4404 366.154H40.5615L40.5664 366.208C40.6689 367.355 41.665 368.166 43.208 368.166ZM49.3164 368.093C50.5566 368.093 51.3086 367.39 51.4893 366.677L51.499 366.638H50.6494L50.6299 366.682C50.4883 366.999 50.0488 367.336 49.3359 367.336C48.3984 367.336 47.7979 366.701 47.7734 365.612H51.5625V365.28C51.5625 363.708 50.6934 362.644 49.2627 362.644C47.832 362.644 46.9043 363.757 46.9043 365.383V365.388C46.9043 367.038 47.8125 368.093 49.3164 368.093ZM49.2578 363.4C50.0342 363.4 50.6104 363.894 50.6982 364.934H47.7881C47.8809 363.933 48.4766 363.4 49.2578 363.4ZM52.9297 368H53.7793V360.646H52.9297V368ZM57.5586 368.093C58.7988 368.093 59.5508 367.39 59.7314 366.677L59.7412 366.638H58.8916L58.8721 366.682C58.7305 366.999 58.291 367.336 57.5781 367.336C56.6406 367.336 56.04 366.701 56.0156 365.612H59.8047V365.28C59.8047 363.708 58.9355 362.644 57.5049 362.644C56.0742 362.644 55.1465 363.757 55.1465 365.383V365.388C55.1465 367.038 56.0547 368.093 57.5586 368.093ZM57.5 363.4C58.2764 363.4 58.8525 363.894 58.9404 364.934H56.0303C56.123 363.933 56.7188 363.4 57.5 363.4ZM63.2764 368.093C64.541 368.093 65.249 367.414 65.4639 366.462L65.4736 366.408L64.6338 366.413L64.624 366.442C64.4287 367.028 63.9795 367.341 63.2715 367.341C62.334 367.341 61.7285 366.564 61.7285 365.354V365.344C61.7285 364.157 62.3242 363.396 63.2715 363.396C64.0283 363.396 64.4971 363.815 64.6289 364.333L64.6338 364.348H65.4785L65.4736 364.318C65.3174 363.381 64.5508 362.644 63.2715 362.644C61.7969 362.644 60.8594 363.708 60.8594 365.344V365.354C60.8594 367.023 61.8018 368.093 63.2764 368.093ZM68.6865 368.039C68.8525 368.039 69.0137 368.02 69.1797 367.99V367.268C69.0234 367.282 68.9404 367.287 68.7891 367.287C68.2422 367.287 68.0273 367.038 68.0273 366.418V363.439H69.1797V362.736H68.0273V361.374H67.1484V362.736H66.3184V363.439H67.1484V366.633C67.1484 367.639 67.6025 368.039 68.6865 368.039ZM75.415 368.093C76.6797 368.093 77.3877 367.414 77.6025 366.462L77.6123 366.408L76.7725 366.413L76.7627 366.442C76.5674 367.028 76.1182 367.341 75.4102 367.341C74.4727 367.341 73.8672 366.564 73.8672 365.354V365.344C73.8672 364.157 74.4629 363.396 75.4102 363.396C76.167 363.396 76.6357 363.815 76.7676 364.333L76.7725 364.348H77.6172L77.6123 364.318C77.4561 363.381 76.6895 362.644 75.4102 362.644C73.9355 362.644 72.998 363.708 72.998 365.344V365.354C72.998 367.023 73.9404 368.093 75.415 368.093ZM80.6201 368.093C81.3916 368.093 81.9238 367.775 82.1826 367.214H82.2607V368H83.1104V362.736H82.2607V365.852C82.2607 366.774 81.7676 367.341 80.8398 367.341C80 367.341 79.6582 366.887 79.6582 365.939V362.736H78.8086V366.145C78.8086 367.39 79.4238 368.093 80.6201 368.093ZM86.5039 368.093C87.7002 368.093 88.6133 367.443 88.6133 366.506V366.496C88.6133 365.744 88.1348 365.314 87.1436 365.075L86.333 364.88C85.7129 364.729 85.4492 364.504 85.4492 364.147V364.138C85.4492 363.674 85.9082 363.352 86.5332 363.352C87.168 363.352 87.5781 363.64 87.6904 364.055H88.5254C88.4082 363.195 87.6416 362.644 86.5381 362.644C85.4199 362.644 84.5801 363.303 84.5801 364.177V364.182C84.5801 364.938 85.0244 365.368 86.0107 365.603L86.8262 365.798C87.4756 365.954 87.7441 366.203 87.7441 366.56V366.569C87.7441 367.048 87.2412 367.385 86.5332 367.385C85.8594 367.385 85.4395 367.097 85.2979 366.657H84.4287C84.5264 367.526 85.332 368.093 86.5039 368.093ZM91.7529 368.039C91.9189 368.039 92.0801 368.02 92.2461 367.99V367.268C92.0898 367.282 92.0068 367.287 91.8555 367.287C91.3086 367.287 91.0938 367.038 91.0938 366.418V363.439H92.2461V362.736H91.0938V361.374H90.2148V362.736H89.3848V363.439H90.2148V366.633C90.2148 367.639 90.6689 368.039 91.7529 368.039ZM95.6006 368.093C97.0996 368.093 98.0273 367.058 98.0273 365.373V365.363C98.0273 363.674 97.0996 362.644 95.6006 362.644C94.1016 362.644 93.1738 363.674 93.1738 365.363V365.373C93.1738 367.058 94.1016 368.093 95.6006 368.093ZM95.6006 367.341C94.6045 367.341 94.043 366.613 94.043 365.373V365.363C94.043 364.118 94.6045 363.396 95.6006 363.396C96.5967 363.396 97.1582 364.118 97.1582 365.363V365.373C97.1582 366.613 96.5967 367.341 95.6006 367.341ZM99.3457 368H100.195V364.738C100.195 363.996 100.718 363.396 101.406 363.396C102.07 363.396 102.5 363.801 102.5 364.426V368H103.35V364.616C103.35 363.947 103.833 363.396 104.565 363.396C105.308 363.396 105.664 363.781 105.664 364.558V368H106.514V364.362C106.514 363.259 105.913 362.644 104.839 362.644C104.111 362.644 103.511 363.01 103.228 363.566H103.149C102.905 363.02 102.407 362.644 101.694 362.644C101.006 362.644 100.508 362.971 100.273 363.537H100.195V362.736H99.3457V368ZM110.195 368.093C111.436 368.093 112.188 367.39 112.368 366.677L112.378 366.638H111.528L111.509 366.682C111.367 366.999 110.928 367.336 110.215 367.336C109.277 367.336 108.677 366.701 108.652 365.612H112.441V365.28C112.441 363.708 111.572 362.644 110.142 362.644C108.711 362.644 107.783 363.757 107.783 365.383V365.388C107.783 367.038 108.691 368.093 110.195 368.093ZM110.137 363.4C110.913 363.4 111.489 363.894 111.577 364.934H108.667C108.76 363.933 109.355 363.4 110.137 363.4ZM118.442 368.039C118.608 368.039 118.77 368.02 118.936 367.99V367.268C118.779 367.282 118.696 367.287 118.545 367.287C117.998 367.287 117.783 367.038 117.783 366.418V363.439H118.936V362.736H117.783V361.374H116.904V362.736H116.074V363.439H116.904V366.633C116.904 367.639 117.358 368.039 118.442 368.039ZM122.29 368.093C123.789 368.093 124.717 367.058 124.717 365.373V365.363C124.717 363.674 123.789 362.644 122.29 362.644C120.791 362.644 119.863 363.674 119.863 365.363V365.373C119.863 367.058 120.791 368.093 122.29 368.093ZM122.29 367.341C121.294 367.341 120.732 366.613 120.732 365.373V365.363C120.732 364.118 121.294 363.396 122.29 363.396C123.286 363.396 123.848 364.118 123.848 365.363V365.373C123.848 366.613 123.286 367.341 122.29 367.341ZM131.001 368.093C132.266 368.093 132.974 367.414 133.188 366.462L133.198 366.408L132.358 366.413L132.349 366.442C132.153 367.028 131.704 367.341 130.996 367.341C130.059 367.341 129.453 366.564 129.453 365.354V365.344C129.453 364.157 130.049 363.396 130.996 363.396C131.753 363.396 132.222 363.815 132.354 364.333L132.358 364.348H133.203L133.198 364.318C133.042 363.381 132.275 362.644 130.996 362.644C129.521 362.644 128.584 363.708 128.584 365.344V365.354C128.584 367.023 129.526 368.093 131.001 368.093ZM134.492 368H135.342V364.885C135.342 363.962 135.874 363.396 136.714 363.396C137.554 363.396 137.944 363.85 137.944 364.797V368H138.794V364.592C138.794 363.342 138.135 362.644 136.953 362.644C136.177 362.644 135.684 362.971 135.42 363.527H135.342V360.646H134.492V368ZM142.495 368.093C143.994 368.093 144.922 367.058 144.922 365.373V365.363C144.922 363.674 143.994 362.644 142.495 362.644C140.996 362.644 140.068 363.674 140.068 365.363V365.373C140.068 367.058 140.996 368.093 142.495 368.093ZM142.495 367.341C141.499 367.341 140.938 366.613 140.938 365.373V365.363C140.938 364.118 141.499 363.396 142.495 363.396C143.491 363.396 144.053 364.118 144.053 365.363V365.373C144.053 366.613 143.491 367.341 142.495 367.341ZM148.403 368.093C149.902 368.093 150.83 367.058 150.83 365.373V365.363C150.83 363.674 149.902 362.644 148.403 362.644C146.904 362.644 145.977 363.674 145.977 365.363V365.373C145.977 367.058 146.904 368.093 148.403 368.093ZM148.403 367.341C147.407 367.341 146.846 366.613 146.846 365.373V365.363C146.846 364.118 147.407 363.396 148.403 363.396C149.399 363.396 149.961 364.118 149.961 365.363V365.373C149.961 366.613 149.399 367.341 148.403 367.341ZM153.955 368.093C155.151 368.093 156.064 367.443 156.064 366.506V366.496C156.064 365.744 155.586 365.314 154.595 365.075L153.784 364.88C153.164 364.729 152.9 364.504 152.9 364.147V364.138C152.9 363.674 153.359 363.352 153.984 363.352C154.619 363.352 155.029 363.64 155.142 364.055H155.977C155.859 363.195 155.093 362.644 153.989 362.644C152.871 362.644 152.031 363.303 152.031 364.177V364.182C152.031 364.938 152.476 365.368 153.462 365.603L154.277 365.798C154.927 365.954 155.195 366.203 155.195 366.56V366.569C155.195 367.048 154.692 367.385 153.984 367.385C153.311 367.385 152.891 367.097 152.749 366.657H151.88C151.978 367.526 152.783 368.093 153.955 368.093ZM159.531 368.093C160.771 368.093 161.523 367.39 161.704 366.677L161.714 366.638H160.864L160.845 366.682C160.703 366.999 160.264 367.336 159.551 367.336C158.613 367.336 158.013 366.701 157.988 365.612H161.777V365.28C161.777 363.708 160.908 362.644 159.478 362.644C158.047 362.644 157.119 363.757 157.119 365.383V365.388C157.119 367.038 158.027 368.093 159.531 368.093ZM159.473 363.4C160.249 363.4 160.825 363.894 160.913 364.934H158.003C158.096 363.933 158.691 363.4 159.473 363.4ZM167.354 368.093C168.062 368.093 168.613 367.785 168.945 367.224H169.023V368H169.873V364.396C169.873 363.303 169.155 362.644 167.871 362.644C166.748 362.644 165.947 363.2 165.811 364.025L165.806 364.055H166.655L166.66 364.04C166.797 363.63 167.212 363.396 167.842 363.396C168.628 363.396 169.023 363.747 169.023 364.396V364.875L167.515 364.968C166.289 365.041 165.596 365.583 165.596 366.521V366.53C165.596 367.487 166.353 368.093 167.354 368.093ZM166.465 366.511V366.501C166.465 365.979 166.816 365.695 167.617 365.646L169.023 365.559V366.037C169.023 366.789 168.394 367.355 167.529 367.355C166.919 367.355 166.465 367.043 166.465 366.511ZM171.426 368H172.275V364.885C172.275 363.962 172.808 363.396 173.647 363.396C174.487 363.396 174.878 363.85 174.878 364.797V368H175.728V364.592C175.728 363.342 175.068 362.644 173.887 362.644C173.11 362.644 172.617 362.971 172.354 363.527H172.275V362.736H171.426V368ZM179.429 368.093C180.928 368.093 181.855 367.058 181.855 365.373V365.363C181.855 363.674 180.928 362.644 179.429 362.644C177.93 362.644 177.002 363.674 177.002 365.363V365.373C177.002 367.058 177.93 368.093 179.429 368.093ZM179.429 367.341C178.433 367.341 177.871 366.613 177.871 365.373V365.363C177.871 364.118 178.433 363.396 179.429 363.396C180.425 363.396 180.986 364.118 180.986 365.363V365.373C180.986 366.613 180.425 367.341 179.429 367.341ZM185.044 368.039C185.21 368.039 185.371 368.02 185.537 367.99V367.268C185.381 367.282 185.298 367.287 185.146 367.287C184.6 367.287 184.385 367.038 184.385 366.418V363.439H185.537V362.736H184.385V361.374H183.506V362.736H182.676V363.439H183.506V366.633C183.506 367.639 183.96 368.039 185.044 368.039ZM186.855 368H187.705V364.885C187.705 363.962 188.237 363.396 189.077 363.396C189.917 363.396 190.308 363.85 190.308 364.797V368H191.157V364.592C191.157 363.342 190.498 362.644 189.316 362.644C188.54 362.644 188.047 362.971 187.783 363.527H187.705V360.646H186.855V368ZM194.844 368.093C196.084 368.093 196.836 367.39 197.017 366.677L197.026 366.638H196.177L196.157 366.682C196.016 366.999 195.576 367.336 194.863 367.336C193.926 367.336 193.325 366.701 193.301 365.612H197.09V365.28C197.09 363.708 196.221 362.644 194.79 362.644C193.359 362.644 192.432 363.757 192.432 365.383V365.388C192.432 367.038 193.34 368.093 194.844 368.093ZM194.785 363.4C195.562 363.4 196.138 363.894 196.226 364.934H193.315C193.408 363.933 194.004 363.4 194.785 363.4ZM198.408 368H199.258V364.738C199.258 363.967 199.834 363.454 200.645 363.454C200.83 363.454 200.991 363.474 201.167 363.503V362.678C201.084 362.663 200.903 362.644 200.742 362.644C200.029 362.644 199.536 362.966 199.336 363.518H199.258V362.736H198.408V368ZM207.197 369.855C208.633 369.855 209.541 369.104 209.541 367.927V362.736H208.691V363.605H208.633C208.311 363.01 207.734 362.644 206.992 362.644C205.615 362.644 204.766 363.713 204.766 365.188V365.197C204.766 366.672 205.61 367.727 206.973 367.727C207.695 367.727 208.291 367.399 208.623 366.818H208.701V367.883C208.701 368.659 208.14 369.104 207.197 369.104C206.44 369.104 205.972 368.82 205.879 368.42L205.874 368.415H204.995L204.985 368.42C205.117 369.284 205.928 369.855 207.197 369.855ZM207.158 366.975C206.182 366.975 205.635 366.242 205.635 365.197V365.188C205.635 364.143 206.182 363.396 207.158 363.396C208.13 363.396 208.721 364.143 208.721 365.188V365.197C208.721 366.242 208.135 366.975 207.158 366.975ZM213.271 368.093C214.512 368.093 215.264 367.39 215.444 366.677L215.454 366.638H214.604L214.585 366.682C214.443 366.999 214.004 367.336 213.291 367.336C212.354 367.336 211.753 366.701 211.729 365.612H215.518V365.28C215.518 363.708 214.648 362.644 213.218 362.644C211.787 362.644 210.859 363.757 210.859 365.383V365.388C210.859 367.038 211.768 368.093 213.271 368.093ZM213.213 363.4C213.989 363.4 214.565 363.894 214.653 364.934H211.743C211.836 363.933 212.432 363.4 213.213 363.4ZM216.836 368H217.686V364.885C217.686 363.962 218.218 363.396 219.058 363.396C219.897 363.396 220.288 363.85 220.288 364.797V368H221.138V364.592C221.138 363.342 220.479 362.644 219.297 362.644C218.521 362.644 218.027 362.971 217.764 363.527H217.686V362.736H216.836V368ZM224.619 368.093C225.352 368.093 225.938 367.746 226.26 367.16H226.338V368H227.188V360.646H226.338V363.566H226.26C225.972 363.005 225.342 362.644 224.619 362.644C223.281 362.644 222.412 363.713 222.412 365.363V365.373C222.412 367.014 223.286 368.093 224.619 368.093ZM224.814 367.341C223.853 367.341 223.281 366.599 223.281 365.373V365.363C223.281 364.138 223.853 363.396 224.814 363.396C225.771 363.396 226.357 364.147 226.357 365.363V365.373C226.357 366.589 225.771 367.341 224.814 367.341ZM230.967 368.093C232.207 368.093 232.959 367.39 233.14 366.677L233.149 366.638H232.3L232.28 366.682C232.139 366.999 231.699 367.336 230.986 367.336C230.049 367.336 229.448 366.701 229.424 365.612H233.213V365.28C233.213 363.708 232.344 362.644 230.913 362.644C229.482 362.644 228.555 363.757 228.555 365.383V365.388C228.555 367.038 229.463 368.093 230.967 368.093ZM230.908 363.4C231.685 363.4 232.261 363.894 232.349 364.934H229.438C229.531 363.933 230.127 363.4 230.908 363.4ZM234.531 368H235.381V364.738C235.381 363.967 235.957 363.454 236.768 363.454C236.953 363.454 237.114 363.474 237.29 363.503V362.678C237.207 362.663 237.026 362.644 236.865 362.644C236.152 362.644 235.659 362.966 235.459 363.518H235.381V362.736H234.531V368ZM237.49 369.792H238.12L238.887 367.014H237.915L237.49 369.792ZM45.7666 380.093C47.2656 380.093 48.1934 379.058 48.1934 377.373V377.363C48.1934 375.674 47.2656 374.644 45.7666 374.644C44.2676 374.644 43.3398 375.674 43.3398 377.363V377.373C43.3398 379.058 44.2676 380.093 45.7666 380.093ZM45.7666 379.341C44.7705 379.341 44.209 378.613 44.209 377.373V377.363C44.209 376.118 44.7705 375.396 45.7666 375.396C46.7627 375.396 47.3242 376.118 47.3242 377.363V377.373C47.3242 378.613 46.7627 379.341 45.7666 379.341ZM49.5117 380H50.3613V376.738C50.3613 375.967 50.9375 375.454 51.748 375.454C51.9336 375.454 52.0947 375.474 52.2705 375.503V374.678C52.1875 374.663 52.0068 374.644 51.8457 374.644C51.1328 374.644 50.6396 374.966 50.4395 375.518H50.3613V374.736H49.5117V380ZM56.582 373.721C56.9043 373.721 57.168 373.457 57.168 373.135C57.168 372.812 56.9043 372.549 56.582 372.549C56.2598 372.549 55.9961 372.812 55.9961 373.135C55.9961 373.457 56.2598 373.721 56.582 373.721ZM56.1523 380H57.002V374.736H56.1523V380ZM58.9551 380H59.8047V375.439H61.001V374.736H59.8047V374.175C59.8047 373.599 60.0488 373.301 60.6543 373.301C60.8057 373.301 60.9473 373.306 61.0498 373.325V372.646C60.874 372.612 60.6885 372.598 60.4834 372.598C59.4824 372.598 58.9551 373.101 58.9551 374.15V374.736H58.0811V375.439H58.9551V380ZM65.4883 381.846C66.4209 381.846 66.8555 381.504 67.29 380.322L69.3457 374.736H68.4521L67.0117 379.067H66.9336L65.4883 374.736H64.5801L66.5283 380.005L66.4307 380.317C66.2402 380.923 65.9473 381.143 65.4639 381.143C65.3467 381.143 65.2148 381.138 65.1123 381.118V381.816C65.2295 381.836 65.376 381.846 65.4883 381.846ZM72.4365 380.093C73.9355 380.093 74.8633 379.058 74.8633 377.373V377.363C74.8633 375.674 73.9355 374.644 72.4365 374.644C70.9375 374.644 70.0098 375.674 70.0098 377.363V377.373C70.0098 379.058 70.9375 380.093 72.4365 380.093ZM72.4365 379.341C71.4404 379.341 70.8789 378.613 70.8789 377.373V377.363C70.8789 376.118 71.4404 375.396 72.4365 375.396C73.4326 375.396 73.9941 376.118 73.9941 377.363V377.373C73.9941 378.613 73.4326 379.341 72.4365 379.341ZM77.9443 380.093C78.7158 380.093 79.248 379.775 79.5068 379.214H79.585V380H80.4346V374.736H79.585V377.852C79.585 378.774 79.0918 379.341 78.1641 379.341C77.3242 379.341 76.9824 378.887 76.9824 377.939V374.736H76.1328V378.145C76.1328 379.39 76.748 380.093 77.9443 380.093ZM82.0166 375.732H82.6465L83.4131 372.954H82.4414L82.0166 375.732ZM86.2988 380.093C87.0312 380.093 87.6172 379.746 87.9395 379.16H88.0176V380H88.8672V372.646H88.0176V375.566H87.9395C87.6514 375.005 87.0215 374.644 86.2988 374.644C84.9609 374.644 84.0918 375.713 84.0918 377.363V377.373C84.0918 379.014 84.9658 380.093 86.2988 380.093ZM86.4941 379.341C85.5322 379.341 84.9609 378.599 84.9609 377.373V377.363C84.9609 376.138 85.5322 375.396 86.4941 375.396C87.4512 375.396 88.0371 376.147 88.0371 377.363V377.373C88.0371 378.589 87.4512 379.341 86.4941 379.341ZM93.3105 380H94.1602V376.738C94.1602 375.967 94.7363 375.454 95.5469 375.454C95.7324 375.454 95.8936 375.474 96.0693 375.503V374.678C95.9863 374.663 95.8057 374.644 95.6445 374.644C94.9316 374.644 94.4385 374.966 94.2383 375.518H94.1602V374.736H93.3105V380ZM98.5645 380.093C99.2725 380.093 99.8242 379.785 100.156 379.224H100.234V380H101.084V376.396C101.084 375.303 100.366 374.644 99.082 374.644C97.959 374.644 97.1582 375.2 97.0215 376.025L97.0166 376.055H97.8662L97.8711 376.04C98.0078 375.63 98.4229 375.396 99.0527 375.396C99.8389 375.396 100.234 375.747 100.234 376.396V376.875L98.7256 376.968C97.5 377.041 96.8066 377.583 96.8066 378.521V378.53C96.8066 379.487 97.5635 380.093 98.5645 380.093ZM97.6758 378.511V378.501C97.6758 377.979 98.0273 377.695 98.8281 377.646L100.234 377.559V378.037C100.234 378.789 99.6045 379.355 98.7402 379.355C98.1299 379.355 97.6758 379.043 97.6758 378.511ZM104.507 380.039C104.673 380.039 104.834 380.02 105 379.99V379.268C104.844 379.282 104.761 379.287 104.609 379.287C104.062 379.287 103.848 379.038 103.848 378.418V375.439H105V374.736H103.848V373.374H102.969V374.736H102.139V375.439H102.969V378.633C102.969 379.639 103.423 380.039 104.507 380.039ZM106.318 380H107.168V376.885C107.168 375.962 107.7 375.396 108.54 375.396C109.38 375.396 109.771 375.85 109.771 376.797V380H110.62V376.592C110.62 375.342 109.961 374.644 108.779 374.644C108.003 374.644 107.51 374.971 107.246 375.527H107.168V372.646H106.318V380ZM114.307 380.093C115.547 380.093 116.299 379.39 116.479 378.677L116.489 378.638H115.64L115.62 378.682C115.479 378.999 115.039 379.336 114.326 379.336C113.389 379.336 112.788 378.701 112.764 377.612H116.553V377.28C116.553 375.708 115.684 374.644 114.253 374.644C112.822 374.644 111.895 375.757 111.895 377.383V377.388C111.895 379.038 112.803 380.093 114.307 380.093ZM114.248 375.4C115.024 375.4 115.601 375.894 115.688 376.934H112.778C112.871 375.933 113.467 375.4 114.248 375.4ZM117.871 380H118.721V376.738C118.721 375.967 119.297 375.454 120.107 375.454C120.293 375.454 120.454 375.474 120.63 375.503V374.678C120.547 374.663 120.366 374.644 120.205 374.644C119.492 374.644 118.999 374.966 118.799 375.518H118.721V374.736H117.871V380ZM124.492 380H125.342V376.885C125.342 375.962 125.874 375.396 126.714 375.396C127.554 375.396 127.944 375.85 127.944 376.797V380H128.794V376.592C128.794 375.342 128.135 374.644 126.953 374.644C126.177 374.644 125.684 374.971 125.42 375.527H125.342V374.736H124.492V380ZM132.495 380.093C133.994 380.093 134.922 379.058 134.922 377.373V377.363C134.922 375.674 133.994 374.644 132.495 374.644C130.996 374.644 130.068 375.674 130.068 377.363V377.373C130.068 379.058 130.996 380.093 132.495 380.093ZM132.495 379.341C131.499 379.341 130.938 378.613 130.938 377.373V377.363C130.938 376.118 131.499 375.396 132.495 375.396C133.491 375.396 134.053 376.118 134.053 377.363V377.373C134.053 378.613 133.491 379.341 132.495 379.341ZM138.11 380.039C138.276 380.039 138.438 380.02 138.604 379.99V379.268C138.447 379.282 138.364 379.287 138.213 379.287C137.666 379.287 137.451 379.038 137.451 378.418V375.439H138.604V374.736H137.451V373.374H136.572V374.736H135.742V375.439H136.572V378.633C136.572 379.639 137.026 380.039 138.11 380.039ZM144.492 380.093C145.688 380.093 146.602 379.443 146.602 378.506V378.496C146.602 377.744 146.123 377.314 145.132 377.075L144.321 376.88C143.701 376.729 143.438 376.504 143.438 376.147V376.138C143.438 375.674 143.896 375.352 144.521 375.352C145.156 375.352 145.566 375.64 145.679 376.055H146.514C146.396 375.195 145.63 374.644 144.526 374.644C143.408 374.644 142.568 375.303 142.568 376.177V376.182C142.568 376.938 143.013 377.368 143.999 377.603L144.814 377.798C145.464 377.954 145.732 378.203 145.732 378.56V378.569C145.732 379.048 145.229 379.385 144.521 379.385C143.848 379.385 143.428 379.097 143.286 378.657H142.417C142.515 379.526 143.32 380.093 144.492 380.093ZM149.365 380.093C150.073 380.093 150.625 379.785 150.957 379.224H151.035V380H151.885V376.396C151.885 375.303 151.167 374.644 149.883 374.644C148.76 374.644 147.959 375.2 147.822 376.025L147.817 376.055H148.667L148.672 376.04C148.809 375.63 149.224 375.396 149.854 375.396C150.64 375.396 151.035 375.747 151.035 376.396V376.875L149.526 376.968C148.301 377.041 147.607 377.583 147.607 378.521V378.53C147.607 379.487 148.364 380.093 149.365 380.093ZM148.477 378.511V378.501C148.477 377.979 148.828 377.695 149.629 377.646L151.035 377.559V378.037C151.035 378.789 150.405 379.355 149.541 379.355C148.931 379.355 148.477 379.043 148.477 378.511ZM153.691 381.846C154.624 381.846 155.059 381.504 155.493 380.322L157.549 374.736H156.655L155.215 379.067H155.137L153.691 374.736H152.783L154.731 380.005L154.634 380.317C154.443 380.923 154.15 381.143 153.667 381.143C153.55 381.143 153.418 381.138 153.315 381.118V381.816C153.433 381.836 153.579 381.846 153.691 381.846Z" fill="#999999"/>
<circle cx="342" cy="345" r="7.5" stroke="black"/>
<g clip-path="url(#clip0_1668_64310)">
<path d="M113 -2H277C275.396 -1.36663 274.327 0.165139 274.286 1.88899L274.242 3.74719C274.242 17.6939 262.936 29 248.989 29H141.011C127.064 29 115.758 17.6939 115.758 3.74719L115.714 1.88899C115.673 0.165139 114.604 -1.36663 113 -2Z" fill="black"/>
<path opacity="0.35" d="M344.5 19.9997C344.5 18.8031 345.47 17.833 346.667 17.833H363.333C364.53 17.833 365.5 18.8031 365.5 19.9997V25.9997C365.5 27.1963 364.53 28.1663 363.333 28.1663H346.667C345.47 28.1663 344.5 27.1963 344.5 25.9997V19.9997Z" stroke="black"/>
<path opacity="0.4" d="M367 21V25C367.805 24.6612 368.328 23.8731 368.328 23C368.328 22.1269 367.805 21.3388 367 21Z" fill="black"/>
<path d="M346 20.433C346 19.8255 346.492 19.333 347.1 19.333H362.9C363.508 19.333 364 19.8255 364 20.433V25.5663C364 26.1739 363.508 26.6663 362.9 26.6663H347.1C346.492 26.6663 346 26.1739 346 25.5663V20.433Z" fill="black"/>
<path fill-rule="evenodd" clip-rule="evenodd" d="M331.33 19.6074C333.546 19.6075 335.678 20.4589 337.283 21.9857C337.404 22.1036 337.598 22.1021 337.717 21.9824L338.873 20.8157C338.933 20.755 338.967 20.6728 338.966 20.5872C338.966 20.5016 338.931 20.4198 338.87 20.3597C334.655 16.3202 328.005 16.3202 323.79 20.3597C323.729 20.4197 323.694 20.5015 323.694 20.5871C323.693 20.6727 323.727 20.755 323.787 20.8157L324.943 21.9824C325.062 22.1023 325.256 22.1038 325.377 21.9857C326.983 20.4588 329.114 19.6074 331.33 19.6074ZM331.33 23.4031C332.548 23.403 333.722 23.8555 334.624 24.6727C334.747 24.7887 334.939 24.7862 335.058 24.6671L336.212 23.5004C336.273 23.4392 336.307 23.3562 336.306 23.2699C336.305 23.1837 336.27 23.1014 336.208 23.0414C333.46 20.485 329.204 20.485 326.455 23.0414C326.393 23.1014 326.358 23.1837 326.357 23.27C326.356 23.3563 326.39 23.4393 326.451 23.5004L327.605 24.6671C327.724 24.7862 327.917 24.7887 328.039 24.6727C328.941 23.8561 330.114 23.4036 331.33 23.4031ZM333.643 25.9569C333.645 26.0434 333.611 26.1268 333.549 26.1874L331.552 28.2031C331.494 28.2623 331.414 28.2957 331.33 28.2957C331.247 28.2957 331.167 28.2623 331.109 28.2031L329.111 26.1874C329.049 26.1268 329.015 26.0433 329.017 25.9568C329.019 25.8703 329.057 25.7884 329.121 25.7304C330.396 24.6515 332.265 24.6515 333.54 25.7304C333.604 25.7884 333.642 25.8704 333.643 25.9569Z" fill="black"/>
<path fill-rule="evenodd" clip-rule="evenodd" d="M317.667 17.666H316.667C316.115 17.666 315.667 18.1137 315.667 18.666V27.3327C315.667 27.885 316.115 28.3327 316.667 28.3327H317.667C318.219 28.3327 318.667 27.885 318.667 27.3327V18.666C318.667 18.1137 318.219 17.666 317.667 17.666ZM312 19.9993H313C313.553 19.9993 314 20.4471 314 20.9993V27.3327C314 27.885 313.553 28.3327 313 28.3327H312C311.448 28.3327 311 27.885 311 27.3327V20.9993C311 20.4471 311.448 19.9993 312 19.9993ZM308.334 22.3327H307.334C306.781 22.3327 306.334 22.7804 306.334 23.3327V27.3327C306.334 27.885 306.781 28.3327 307.334 28.3327H308.334C308.886 28.3327 309.334 27.885 309.334 27.3327V23.3327C309.334 22.7804 308.886 22.3327 308.334 22.3327ZM303.667 24.3327H302.667C302.115 24.3327 301.667 24.7804 301.667 25.3327V27.3327C301.667 27.885 302.115 28.3327 302.667 28.3327H303.667C304.219 28.3327 304.667 27.885 304.667 27.3327V25.3327C304.667 24.7804 304.219 24.3327 303.667 24.3327Z" fill="black"/>
<path d="M42.5146 17.1675C40.2222 17.1675 38.5889 18.7349 38.5889 20.8809V20.8955C38.5889 22.9023 40.0098 24.3818 42.0386 24.3818C43.4888 24.3818 44.4116 23.6421 44.7998 22.8071H44.9463C44.9463 22.8877 44.939 22.9683 44.939 23.0488C44.8584 25.0703 44.1479 26.7109 42.4707 26.7109C41.5405 26.7109 40.8887 26.2275 40.6104 25.4878L40.5884 25.4146H38.728L38.7427 25.4951C39.0796 27.1138 40.5298 28.2637 42.4707 28.2637C45.1294 28.2637 46.7334 26.1543 46.7334 22.5947V22.5801C46.7334 18.7715 44.7705 17.1675 42.5146 17.1675ZM42.5073 22.9316C41.3062 22.9316 40.4346 22.0527 40.4346 20.8296V20.8149C40.4346 19.6357 41.3647 18.7056 42.5293 18.7056C43.7012 18.7056 44.6167 19.6504 44.6167 20.8589V20.8735C44.6167 22.0674 43.7012 22.9316 42.5073 22.9316ZM49.5586 21.1519C50.2324 21.1519 50.7231 20.6392 50.7231 19.9946C50.7231 19.3428 50.2324 18.8374 49.5586 18.8374C48.8921 18.8374 48.394 19.3428 48.394 19.9946C48.394 20.6392 48.8921 21.1519 49.5586 21.1519ZM49.5586 26.5864C50.2324 26.5864 50.7231 26.0811 50.7231 25.4292C50.7231 24.7773 50.2324 24.272 49.5586 24.272C48.8921 24.272 48.394 24.7773 48.394 25.4292C48.394 26.0811 48.8921 26.5864 49.5586 26.5864ZM57.5107 28H59.3198V25.9712H60.7407V24.4111H59.3198V17.4312H56.6465C55.2109 19.6138 53.7095 22.0454 52.3398 24.4258V25.9712H57.5107V28ZM54.0977 24.4551V24.3452C55.123 22.5508 56.3462 20.5952 57.4302 18.9399H57.54V24.4551H54.0977ZM64.6206 28H66.5103V17.4312H64.6279L61.8667 19.3721V21.1519L64.4961 19.2915H64.6206V28Z" fill="black"/>
</g>
<path d="M128 833.5C128 832.119 129.119 831 130.5 831H259.5C260.881 831 262 832.119 262 833.5C262 834.881 260.881 836 259.5 836H130.5C129.119 836 128 834.881 128 833.5Z" fill="black"/>
<defs>
<filter id="filter0_d_1668_64310" x="36" y="563" width="318" height="58" filterUnits="userSpaceOnUse" color-interpolation-filters="sRGB">
<feFlood flood-opacity="0" result="BackgroundImageFix"/>
<feColorMatrix in="SourceAlpha" type="matrix" values="0 0 0 0 0 0 0 0 0 0 0 0 0 0 0 0 0 0 127 0" result="hardAlpha"/>
<feOffset dy="4"/>
<feGaussianBlur stdDeviation="4.5"/>
<feComposite in2="hardAlpha" operator="out"/>
<feColorMatrix type="matrix" values="0 0 0 0 0.109804 0 0 0 0 0.470588 0 0 0 0 1 0 0 0 0.5 0"/>
<feBlend mode="normal" in2="BackgroundImageFix" result="effect1_dropShadow_1668_64310"/>
<feBlend mode="normal" in="SourceGraphic" in2="effect1_dropShadow_1668_64310" result="shape"/>
</filter>
<linearGradient id="paint0_linear_1668_64310" x1="51.5" y1="559.364" x2="341.936" y2="632.838" gradientUnits="userSpaceOnUse">
<stop stop-color="#384CFF"/>
<stop offset="1" stop-color="#00A3FF"/>
</linearGradient>
<clipPath id="clip0_1668_64310">
<rect width="390" height="44" fill="white"/>
</clipPath>
</defs>
</svg>
