<svg width="390" height="844" viewBox="0 0 390 844" fill="none" xmlns="http://www.w3.org/2000/svg">
<g clip-path="url(#clip0_1668_64291)">
<rect width="390" height="844" fill="white"/>
<path d="M28.7215 56.5787C29.0928 56.2175 29.0928 55.632 28.7215 55.2709C28.3503 54.9097 27.7483 54.9097 27.3771 55.2709L21.2785 61.2032C20.9072 61.5644 20.9072 62.1499 21.2785 62.5111L27.3771 68.4434C27.7483 68.8046 28.3503 68.8046 28.7215 68.4434C29.0928 68.0823 29.0928 67.4967 28.7215 67.1356L23.2952 61.8571L28.7215 56.5787Z" fill="black"/>
<path d="M55.5049 67H56.6533V59.4668H56.7285L59.8457 67H60.8848L64.002 59.4668H64.0771V67H65.2256V57.1357H63.7969L60.4199 65.3662H60.3105L56.9336 57.1357H55.5049V67ZM70.1191 67.1299C72.2178 67.1299 73.5166 65.6807 73.5166 63.3223V63.3086C73.5166 60.9434 72.2178 59.501 70.1191 59.501C68.0205 59.501 66.7217 60.9434 66.7217 63.3086V63.3223C66.7217 65.6807 68.0205 67.1299 70.1191 67.1299ZM70.1191 66.0771C68.7246 66.0771 67.9385 65.0586 67.9385 63.3223V63.3086C67.9385 61.5654 68.7246 60.5537 70.1191 60.5537C71.5137 60.5537 72.2998 61.5654 72.2998 63.3086V63.3223C72.2998 65.0586 71.5137 66.0771 70.1191 66.0771ZM78.5264 67.1299C80.3926 67.1299 81.6162 65.6191 81.6162 63.3223V63.3086C81.6162 60.998 80.3994 59.501 78.5264 59.501C77.5146 59.501 76.6328 60.0068 76.2295 60.793H76.1201V56.7051H74.9307V67H76.1201V65.8242H76.2295C76.6807 66.6445 77.501 67.1299 78.5264 67.1299ZM78.2529 66.0771C76.9131 66.0771 76.0928 65.0244 76.0928 63.3223V63.3086C76.0928 61.6064 76.9131 60.5537 78.2529 60.5537C79.5996 60.5537 80.3994 61.5928 80.3994 63.3086V63.3223C80.3994 65.0381 79.5996 66.0771 78.2529 66.0771ZM83.5908 58.209C84.042 58.209 84.4111 57.8398 84.4111 57.3887C84.4111 56.9375 84.042 56.5684 83.5908 56.5684C83.1396 56.5684 82.7705 56.9375 82.7705 57.3887C82.7705 57.8398 83.1396 58.209 83.5908 58.209ZM82.9893 67H84.1787V59.6309H82.9893V67ZM85.9893 67H87.1787V56.7051H85.9893V67ZM91.9697 67.1299C93.7061 67.1299 94.7588 66.1455 95.0117 65.1475L95.0254 65.0928H93.8359L93.8086 65.1543C93.6104 65.5986 92.9951 66.0703 91.9971 66.0703C90.6846 66.0703 89.8438 65.1816 89.8096 63.6572H95.1143V63.1924C95.1143 60.9912 93.8975 59.501 91.8945 59.501C89.8916 59.501 88.5928 61.0596 88.5928 63.3359V63.3428C88.5928 65.6533 89.8643 67.1299 91.9697 67.1299ZM91.8877 60.5605C92.9746 60.5605 93.7812 61.251 93.9043 62.707H89.8301C89.96 61.3057 90.7939 60.5605 91.8877 60.5605ZM99.8975 67H101.087V62.6387C101.087 61.3467 101.832 60.5537 103.008 60.5537C104.184 60.5537 104.73 61.1895 104.73 62.5156V67H105.92V62.2285C105.92 60.4785 104.997 59.501 103.343 59.501C102.256 59.501 101.565 59.959 101.196 60.7383H101.087V59.6309H99.8975V67ZM110.041 67.1299C111.121 67.1299 111.866 66.6855 112.229 65.8994H112.338V67H113.527V59.6309H112.338V63.9922C112.338 65.2842 111.647 66.0771 110.349 66.0771C109.173 66.0771 108.694 65.4414 108.694 64.1152V59.6309H107.505V64.4023C107.505 66.1455 108.366 67.1299 110.041 67.1299ZM115.249 67H116.438V62.4336C116.438 61.3945 117.17 60.5537 118.134 60.5537C119.063 60.5537 119.665 61.1211 119.665 61.9961V67H120.854V62.2627C120.854 61.3262 121.531 60.5537 122.557 60.5537C123.596 60.5537 124.095 61.0938 124.095 62.1807V67H125.284V61.9072C125.284 60.3623 124.443 59.501 122.939 59.501C121.921 59.501 121.08 60.0137 120.684 60.793H120.574C120.232 60.0273 119.535 59.501 118.537 59.501C117.573 59.501 116.876 59.959 116.548 60.752H116.438V59.6309H115.249V67ZM130.595 67.1299C132.461 67.1299 133.685 65.6191 133.685 63.3223V63.3086C133.685 60.998 132.468 59.501 130.595 59.501C129.583 59.501 128.701 60.0068 128.298 60.793H128.188V56.7051H126.999V67H128.188V65.8242H128.298C128.749 66.6445 129.569 67.1299 130.595 67.1299ZM130.321 66.0771C128.981 66.0771 128.161 65.0244 128.161 63.3223V63.3086C128.161 61.6064 128.981 60.5537 130.321 60.5537C131.668 60.5537 132.468 61.5928 132.468 63.3086V63.3223C132.468 65.0381 131.668 66.0771 130.321 66.0771ZM138.038 67.1299C139.774 67.1299 140.827 66.1455 141.08 65.1475L141.094 65.0928H139.904L139.877 65.1543C139.679 65.5986 139.063 66.0703 138.065 66.0703C136.753 66.0703 135.912 65.1816 135.878 63.6572H141.183V63.1924C141.183 60.9912 139.966 59.501 137.963 59.501C135.96 59.501 134.661 61.0596 134.661 63.3359V63.3428C134.661 65.6533 135.933 67.1299 138.038 67.1299ZM137.956 60.5605C139.043 60.5605 139.85 61.251 139.973 62.707H135.898C136.028 61.3057 136.862 60.5605 137.956 60.5605ZM142.528 67H143.718V62.4336C143.718 61.3535 144.524 60.6357 145.659 60.6357C145.919 60.6357 146.145 60.6631 146.391 60.7041V59.5488C146.274 59.5283 146.021 59.501 145.796 59.501C144.798 59.501 144.107 59.9521 143.827 60.7246H143.718V59.6309H142.528V67Z" fill="black"/>
<line y1="81.5" x2="390" y2="81.5" stroke="#AAAAAA"/>
<g filter="url(#filter0_d_1668_64291)">
<rect x="45" y="350" width="300" height="40" rx="15" fill="url(#paint0_linear_1668_64291)"/>
</g>
<path d="M180.82 375H182.878V368.54H182.919L187.39 375H189.181V365.136H187.123V371.548H187.082L182.625 365.136H180.82V375ZM193.993 375.15C196.085 375.15 197.097 373.913 197.322 372.833L197.343 372.758H195.511L195.497 372.799C195.354 373.209 194.854 373.66 194.034 373.66C193.016 373.66 192.38 372.977 192.359 371.808H197.404V371.192C197.404 368.978 196.058 367.521 193.911 367.521C191.765 367.521 190.391 369.012 190.391 371.343V371.35C190.391 373.694 191.751 375.15 193.993 375.15ZM193.945 369.012C194.772 369.012 195.367 369.538 195.49 370.55H192.38C192.51 369.559 193.125 369.012 193.945 369.012ZM197.828 375H199.927L201.301 372.457H201.342L202.736 375H204.903L202.634 371.295L204.924 367.672H202.75L201.451 370.146H201.41L200.091 367.672H197.842L200.125 371.35L197.828 375ZM208.636 375.15C209.053 375.15 209.374 375.109 209.6 375.075V373.612C209.477 373.626 209.347 373.646 209.169 373.646C208.567 373.646 208.26 373.414 208.26 372.73V369.176H209.6V367.672H208.26V365.881H206.243V367.672H205.225V369.176H206.243V372.949C206.243 374.521 207.009 375.15 208.636 375.15Z" fill="white"/>
<path d="M88.6182 138H96.8271V136.093H90.8857V132.463H96.502V130.661H90.8857V127.225H96.8271V125.317H88.6182V138ZM98.9111 138H101.1V132.401C101.1 130.96 101.908 130.046 103.209 130.046C104.536 130.046 105.143 130.802 105.143 132.296V138H107.331V131.786C107.331 129.501 106.162 128.209 104.018 128.209C102.629 128.209 101.706 128.833 101.249 129.861H101.1V128.394H98.9111V138ZM113.194 138.044C113.616 138.044 114.021 138.009 114.337 137.947V136.26C114.073 136.286 113.906 136.295 113.599 136.295C112.685 136.295 112.307 135.891 112.307 134.933V130.09H114.337V128.394H112.307V126.038H110.083V128.394H108.589V130.09H110.083V135.451C110.083 137.306 110.988 138.044 113.194 138.044ZM120.042 138.193C122.652 138.193 123.936 136.69 124.243 135.451L124.27 135.372H122.187L122.16 135.434C121.949 135.873 121.272 136.471 120.086 136.471C118.601 136.471 117.669 135.469 117.643 133.746H124.357V133.025C124.357 130.125 122.67 128.209 119.937 128.209C117.203 128.209 115.454 130.187 115.454 133.21V133.219C115.454 136.277 117.186 138.193 120.042 138.193ZM119.963 129.923C121.185 129.923 122.072 130.705 122.222 132.278H117.66C117.827 130.749 118.741 129.923 119.963 129.923ZM126.046 138H128.234V132.419C128.234 131.048 129.192 130.178 130.651 130.178C131.029 130.178 131.39 130.23 131.741 130.301V128.341C131.53 128.279 131.188 128.235 130.854 128.235C129.588 128.235 128.709 128.842 128.384 129.87H128.234V128.394H126.046V138ZM138.361 141.375C140.488 141.375 141.587 140.61 142.413 138.202L145.858 128.394H143.556L141.323 135.899H141.156L138.915 128.394H136.524L139.961 138.009L139.847 138.448C139.609 139.318 139.073 139.688 138.177 139.688C137.948 139.688 137.702 139.679 137.526 139.661V141.34C137.79 141.366 138.098 141.375 138.361 141.375ZM151.001 138.193C153.875 138.193 155.624 136.312 155.624 133.201V133.184C155.624 130.09 153.866 128.209 151.001 128.209C148.145 128.209 146.378 130.099 146.378 133.184V133.201C146.378 136.312 148.118 138.193 151.001 138.193ZM151.001 136.418C149.48 136.418 148.61 135.231 148.61 133.21V133.192C148.61 131.171 149.48 129.976 151.001 129.976C152.513 129.976 153.383 131.171 153.383 133.192V133.21C153.383 135.231 152.521 136.418 151.001 136.418ZM160.503 138.193C161.892 138.193 162.867 137.569 163.315 136.541H163.465V138H165.653V128.394H163.465V133.992C163.465 135.434 162.709 136.348 161.294 136.348C159.976 136.348 159.422 135.592 159.422 134.106V128.394H157.233V134.607C157.233 136.893 158.341 138.193 160.503 138.193ZM167.825 138H170.014V132.419C170.014 131.048 170.972 130.178 172.431 130.178C172.809 130.178 173.169 130.23 173.521 130.301V128.341C173.31 128.279 172.967 128.235 172.633 128.235C171.367 128.235 170.488 128.842 170.163 129.87H170.014V128.394H167.825V138ZM179.112 138H181.301V132.155C181.301 130.96 182.092 130.046 183.173 130.046C184.245 130.046 184.904 130.705 184.904 131.769V138H187.093V131.997C187.093 130.898 187.831 130.046 188.974 130.046C190.143 130.046 190.714 130.679 190.714 131.927V138H192.902V131.391C192.902 129.396 191.742 128.209 189.809 128.209C188.473 128.209 187.365 128.895 186.899 129.94H186.75C186.337 128.877 185.388 128.209 184.087 128.209C182.83 128.209 181.863 128.815 181.45 129.888H181.301V128.394H179.112V138ZM199.144 138.193C202.018 138.193 203.767 136.312 203.767 133.201V133.184C203.767 130.09 202.009 128.209 199.144 128.209C196.287 128.209 194.521 130.099 194.521 133.184V133.201C194.521 136.312 196.261 138.193 199.144 138.193ZM199.144 136.418C197.623 136.418 196.753 135.231 196.753 133.21V133.192C196.753 131.171 197.623 129.976 199.144 129.976C200.655 129.976 201.525 131.171 201.525 133.192V133.21C201.525 135.231 200.664 136.418 199.144 136.418ZM210.808 138.158C213.216 138.158 214.754 136.251 214.754 133.21V133.192C214.754 130.134 213.242 128.235 210.808 128.235C209.489 128.235 208.391 128.886 207.89 129.923H207.74V124.676H205.552V138H207.74V136.497H207.89C208.417 137.543 209.463 138.158 210.808 138.158ZM210.122 136.312C208.637 136.312 207.714 135.135 207.714 133.21V133.192C207.714 131.268 208.637 130.081 210.122 130.081C211.616 130.081 212.521 131.259 212.521 133.192V133.21C212.521 135.144 211.616 136.312 210.122 136.312ZM217.567 126.785C218.279 126.785 218.868 126.214 218.868 125.493C218.868 124.781 218.279 124.201 217.567 124.201C216.847 124.201 216.258 124.781 216.258 125.493C216.258 126.214 216.847 126.785 217.567 126.785ZM216.469 138H218.657V128.394H216.469V138ZM220.935 138H223.123V124.676H220.935V138ZM229.505 138.193C232.115 138.193 233.398 136.69 233.706 135.451L233.732 135.372H231.649L231.623 135.434C231.412 135.873 230.735 136.471 229.549 136.471C228.063 136.471 227.132 135.469 227.105 133.746H233.82V133.025C233.82 130.125 232.133 128.209 229.399 128.209C226.666 128.209 224.917 130.187 224.917 133.21V133.219C224.917 136.277 226.648 138.193 229.505 138.193ZM229.426 129.923C230.647 129.923 231.535 130.705 231.685 132.278H227.123C227.29 130.749 228.204 129.923 229.426 129.923ZM239.808 138H241.996V132.401C241.996 130.96 242.805 130.046 244.105 130.046C245.433 130.046 246.039 130.802 246.039 132.296V138H248.228V131.786C248.228 129.501 247.059 128.209 244.914 128.209C243.525 128.209 242.603 128.833 242.146 129.861H241.996V128.394H239.808V138ZM253.493 138.193C254.882 138.193 255.857 137.569 256.306 136.541H256.455V138H258.644V128.394H256.455V133.992C256.455 135.434 255.699 136.348 254.284 136.348C252.966 136.348 252.412 135.592 252.412 134.106V128.394H250.224V134.607C250.224 136.893 251.331 138.193 253.493 138.193ZM260.815 138H263.004V132.155C263.004 130.96 263.795 130.046 264.876 130.046C265.948 130.046 266.607 130.705 266.607 131.769V138H268.796V131.997C268.796 130.898 269.534 130.046 270.677 130.046C271.846 130.046 272.417 130.679 272.417 131.927V138H274.605V131.391C274.605 129.396 273.445 128.209 271.512 128.209C270.176 128.209 269.068 128.895 268.603 129.94H268.453C268.04 128.877 267.091 128.209 265.79 128.209C264.533 128.209 263.566 128.815 263.153 129.888H263.004V128.394H260.815V138ZM282.042 138.158C284.45 138.158 285.988 136.251 285.988 133.21V133.192C285.988 130.134 284.477 128.235 282.042 128.235C280.724 128.235 279.625 128.886 279.124 129.923H278.975V124.676H276.786V138H278.975V136.497H279.124C279.651 137.543 280.697 138.158 282.042 138.158ZM281.356 136.312C279.871 136.312 278.948 135.135 278.948 133.21V133.192C278.948 131.268 279.871 130.081 281.356 130.081C282.851 130.081 283.756 131.259 283.756 133.192V133.21C283.756 135.144 282.851 136.312 281.356 136.312ZM291.79 138.193C294.4 138.193 295.684 136.69 295.991 135.451L296.018 135.372H293.935L293.908 135.434C293.697 135.873 293.021 136.471 291.834 136.471C290.349 136.471 289.417 135.469 289.391 133.746H296.105V133.025C296.105 130.125 294.418 128.209 291.685 128.209C288.951 128.209 287.202 130.187 287.202 133.21V133.219C287.202 136.277 288.934 138.193 291.79 138.193ZM291.711 129.923C292.933 129.923 293.82 130.705 293.97 132.278H289.408C289.575 130.749 290.489 129.923 291.711 129.923ZM297.794 138H299.982V132.419C299.982 131.048 300.94 130.178 302.399 130.178C302.777 130.178 303.138 130.23 303.489 130.301V128.341C303.278 128.279 302.936 128.235 302.602 128.235C301.336 128.235 300.457 128.842 300.132 129.87H299.982V128.394H297.794V138Z" fill="black"/>
<path d="M59.1426 166H64.3809V165.051H60.1973V162.145H64.1641V161.207H60.1973V158.494H64.3809V157.545H59.1426V166ZM65.6621 166H66.6816V162.262C66.6816 161.154 67.3203 160.475 68.3281 160.475C69.3359 160.475 69.8047 161.02 69.8047 162.156V166H70.8242V161.91C70.8242 160.41 70.0332 159.572 68.6152 159.572C67.6836 159.572 67.0918 159.965 66.7754 160.633H66.6816V159.684H65.6621V166ZM74.4141 166.047C74.6133 166.047 74.8066 166.023 75.0059 165.988V165.121C74.8184 165.139 74.7188 165.145 74.5371 165.145C73.8809 165.145 73.623 164.846 73.623 164.102V160.527H75.0059V159.684H73.623V158.049H72.5684V159.684H71.5723V160.527H72.5684V164.359C72.5684 165.566 73.1133 166.047 74.4141 166.047ZM78.5137 166.111C80.002 166.111 80.9043 165.268 81.1211 164.412L81.1328 164.365H80.1133L80.0898 164.418C79.9199 164.799 79.3926 165.203 78.5371 165.203C77.4121 165.203 76.6914 164.441 76.6621 163.135H81.209V162.736C81.209 160.85 80.166 159.572 78.4492 159.572C76.7324 159.572 75.6191 160.908 75.6191 162.859V162.865C75.6191 164.846 76.709 166.111 78.5137 166.111ZM78.4434 160.48C79.375 160.48 80.0664 161.072 80.1719 162.32H76.6797C76.791 161.119 77.5059 160.48 78.4434 160.48ZM82.291 166H83.3105V162.086C83.3105 161.16 84.002 160.545 84.9746 160.545C85.1973 160.545 85.3906 160.568 85.6016 160.604V159.613C85.502 159.596 85.2852 159.572 85.0918 159.572C84.2363 159.572 83.6445 159.959 83.4043 160.621H83.3105V159.684H82.291V166ZM91.4805 166.047C91.6797 166.047 91.873 166.023 92.0723 165.988V165.121C91.8848 165.139 91.7852 165.145 91.6035 165.145C90.9473 165.145 90.6895 164.846 90.6895 164.102V160.527H92.0723V159.684H90.6895V158.049H89.6348V159.684H88.6387V160.527H89.6348V164.359C89.6348 165.566 90.1797 166.047 91.4805 166.047ZM93.1543 166H94.1738V162.262C94.1738 161.154 94.8125 160.475 95.8203 160.475C96.8281 160.475 97.2969 161.02 97.2969 162.156V166H98.3164V161.91C98.3164 160.41 97.5254 159.572 96.1074 159.572C95.1758 159.572 94.584 159.965 94.2676 160.633H94.1738V157.176H93.1543V166ZM102.24 166.111C103.729 166.111 104.631 165.268 104.848 164.412L104.859 164.365H103.84L103.816 164.418C103.646 164.799 103.119 165.203 102.264 165.203C101.139 165.203 100.418 164.441 100.389 163.135H104.936V162.736C104.936 160.85 103.893 159.572 102.176 159.572C100.459 159.572 99.3457 160.908 99.3457 162.859V162.865C99.3457 164.846 100.436 166.111 102.24 166.111ZM102.17 160.48C103.102 160.48 103.793 161.072 103.898 162.32H100.406C100.518 161.119 101.232 160.48 102.17 160.48ZM108.893 166H109.912V162.086C109.912 161.195 110.539 160.475 111.365 160.475C112.162 160.475 112.678 160.961 112.678 161.711V166H113.697V161.939C113.697 161.137 114.277 160.475 115.156 160.475C116.047 160.475 116.475 160.938 116.475 161.869V166H117.494V161.635C117.494 160.311 116.773 159.572 115.484 159.572C114.611 159.572 113.891 160.012 113.551 160.68H113.457C113.164 160.023 112.566 159.572 111.711 159.572C110.885 159.572 110.287 159.965 110.006 160.645H109.912V159.684H108.893V166ZM121.43 166.111C123.229 166.111 124.342 164.869 124.342 162.848V162.836C124.342 160.809 123.229 159.572 121.43 159.572C119.631 159.572 118.518 160.809 118.518 162.836V162.848C118.518 164.869 119.631 166.111 121.43 166.111ZM121.43 165.209C120.234 165.209 119.561 164.336 119.561 162.848V162.836C119.561 161.342 120.234 160.475 121.43 160.475C122.625 160.475 123.299 161.342 123.299 162.836V162.848C123.299 164.336 122.625 165.209 121.43 165.209ZM128.564 166.111C130.164 166.111 131.213 164.816 131.213 162.848V162.836C131.213 160.855 130.17 159.572 128.564 159.572C127.697 159.572 126.941 160.006 126.596 160.68H126.502V157.176H125.482V166H126.502V164.992H126.596C126.982 165.695 127.686 166.111 128.564 166.111ZM128.33 165.209C127.182 165.209 126.479 164.307 126.479 162.848V162.836C126.479 161.377 127.182 160.475 128.33 160.475C129.484 160.475 130.17 161.365 130.17 162.836V162.848C130.17 164.318 129.484 165.209 128.33 165.209ZM132.834 158.465C133.221 158.465 133.537 158.148 133.537 157.762C133.537 157.375 133.221 157.059 132.834 157.059C132.447 157.059 132.131 157.375 132.131 157.762C132.131 158.148 132.447 158.465 132.834 158.465ZM132.318 166H133.338V159.684H132.318V166ZM134.818 166H135.838V157.176H134.818V166ZM139.873 166.111C141.361 166.111 142.264 165.268 142.48 164.412L142.492 164.365H141.473L141.449 164.418C141.279 164.799 140.752 165.203 139.896 165.203C138.771 165.203 138.051 164.441 138.021 163.135H142.568V162.736C142.568 160.85 141.525 159.572 139.809 159.572C138.092 159.572 136.979 160.908 136.979 162.859V162.865C136.979 164.846 138.068 166.111 139.873 166.111ZM139.803 160.48C140.734 160.48 141.426 161.072 141.531 162.32H138.039C138.15 161.119 138.865 160.48 139.803 160.48ZM146.525 166H147.545V162.262C147.545 161.154 148.184 160.475 149.191 160.475C150.199 160.475 150.668 161.02 150.668 162.156V166H151.688V161.91C151.688 160.41 150.896 159.572 149.479 159.572C148.547 159.572 147.955 159.965 147.639 160.633H147.545V159.684H146.525V166ZM155.148 166.111C156.074 166.111 156.713 165.73 157.023 165.057H157.117V166H158.137V159.684H157.117V163.422C157.117 164.529 156.525 165.209 155.412 165.209C154.404 165.209 153.994 164.664 153.994 163.527V159.684H152.975V163.773C152.975 165.268 153.713 166.111 155.148 166.111ZM159.541 166H160.561V162.086C160.561 161.195 161.188 160.475 162.014 160.475C162.811 160.475 163.326 160.961 163.326 161.711V166H164.346V161.939C164.346 161.137 164.926 160.475 165.805 160.475C166.695 160.475 167.123 160.938 167.123 161.869V166H168.143V161.635C168.143 160.311 167.422 159.572 166.133 159.572C165.26 159.572 164.539 160.012 164.199 160.68H164.105C163.812 160.023 163.215 159.572 162.359 159.572C161.533 159.572 160.936 159.965 160.654 160.645H160.561V159.684H159.541V166ZM172.623 166.111C174.223 166.111 175.271 164.816 175.271 162.848V162.836C175.271 160.855 174.229 159.572 172.623 159.572C171.756 159.572 171 160.006 170.654 160.68H170.561V157.176H169.541V166H170.561V164.992H170.654C171.041 165.695 171.744 166.111 172.623 166.111ZM172.389 165.209C171.24 165.209 170.537 164.307 170.537 162.848V162.836C170.537 161.377 171.24 160.475 172.389 160.475C173.543 160.475 174.229 161.365 174.229 162.836V162.848C174.229 164.318 173.543 165.209 172.389 165.209ZM178.932 166.111C180.42 166.111 181.322 165.268 181.539 164.412L181.551 164.365H180.531L180.508 164.418C180.338 164.799 179.811 165.203 178.955 165.203C177.83 165.203 177.109 164.441 177.08 163.135H181.627V162.736C181.627 160.85 180.584 159.572 178.867 159.572C177.15 159.572 176.037 160.908 176.037 162.859V162.865C176.037 164.846 177.127 166.111 178.932 166.111ZM178.861 160.48C179.793 160.48 180.484 161.072 180.59 162.32H177.098C177.209 161.119 177.924 160.48 178.861 160.48ZM182.709 166H183.729V162.086C183.729 161.16 184.42 160.545 185.393 160.545C185.615 160.545 185.809 160.568 186.02 160.604V159.613C185.92 159.596 185.703 159.572 185.51 159.572C184.654 159.572 184.062 159.959 183.822 160.621H183.729V159.684H182.709V166ZM190.873 166H191.893L193.299 161.113H193.393L194.805 166H195.83L197.6 159.684H196.586L195.344 164.734H195.25L193.838 159.684H192.871L191.459 164.734H191.365L190.123 159.684H189.104L190.873 166ZM198.506 166H199.525V162.262C199.525 161.154 200.164 160.475 201.172 160.475C202.18 160.475 202.648 161.02 202.648 162.156V166H203.668V161.91C203.668 160.41 202.877 159.572 201.459 159.572C200.527 159.572 199.936 159.965 199.619 160.633H199.525V157.176H198.506V166ZM207.592 166.111C209.08 166.111 209.982 165.268 210.199 164.412L210.211 164.365H209.191L209.168 164.418C208.998 164.799 208.471 165.203 207.615 165.203C206.49 165.203 205.77 164.441 205.74 163.135H210.287V162.736C210.287 160.85 209.244 159.572 207.527 159.572C205.811 159.572 204.697 160.908 204.697 162.859V162.865C204.697 164.846 205.787 166.111 207.592 166.111ZM207.521 160.48C208.453 160.48 209.145 161.072 209.25 162.32H205.758C205.869 161.119 206.584 160.48 207.521 160.48ZM211.369 166H212.389V162.086C212.389 161.16 213.08 160.545 214.053 160.545C214.275 160.545 214.469 160.568 214.68 160.604V159.613C214.58 159.596 214.363 159.572 214.17 159.572C213.314 159.572 212.723 159.959 212.482 160.621H212.389V159.684H211.369V166ZM217.842 166.111C219.33 166.111 220.232 165.268 220.449 164.412L220.461 164.365H219.441L219.418 164.418C219.248 164.799 218.721 165.203 217.865 165.203C216.74 165.203 216.02 164.441 215.99 163.135H220.537V162.736C220.537 160.85 219.494 159.572 217.777 159.572C216.061 159.572 214.947 160.908 214.947 162.859V162.865C214.947 164.846 216.037 166.111 217.842 166.111ZM217.771 160.48C218.703 160.48 219.395 161.072 219.5 162.32H216.008C216.119 161.119 216.834 160.48 217.771 160.48ZM225.033 168.215C226.152 168.215 226.674 167.805 227.195 166.387L229.662 159.684H228.59L226.861 164.881H226.768L225.033 159.684H223.943L226.281 166.006L226.164 166.381C225.936 167.107 225.584 167.371 225.004 167.371C224.863 167.371 224.705 167.365 224.582 167.342V168.18C224.723 168.203 224.898 168.215 225.033 168.215ZM232.871 166.111C234.67 166.111 235.783 164.869 235.783 162.848V162.836C235.783 160.809 234.67 159.572 232.871 159.572C231.072 159.572 229.959 160.809 229.959 162.836V162.848C229.959 164.869 231.072 166.111 232.871 166.111ZM232.871 165.209C231.676 165.209 231.002 164.336 231.002 162.848V162.836C231.002 161.342 231.676 160.475 232.871 160.475C234.066 160.475 234.74 161.342 234.74 162.836V162.848C234.74 164.336 234.066 165.209 232.871 165.209ZM238.98 166.111C239.906 166.111 240.545 165.73 240.855 165.057H240.949V166H241.969V159.684H240.949V163.422C240.949 164.529 240.357 165.209 239.244 165.209C238.236 165.209 237.826 164.664 237.826 163.527V159.684H236.807V163.773C236.807 165.268 237.545 166.111 238.98 166.111ZM248.832 166.111C250.35 166.111 251.199 165.297 251.457 164.154L251.469 164.09L250.461 164.096L250.449 164.131C250.215 164.834 249.676 165.209 248.826 165.209C247.701 165.209 246.975 164.277 246.975 162.824V162.812C246.975 161.389 247.689 160.475 248.826 160.475C249.734 160.475 250.297 160.979 250.455 161.6L250.461 161.617H251.475L251.469 161.582C251.281 160.457 250.361 159.572 248.826 159.572C247.057 159.572 245.932 160.85 245.932 162.812V162.824C245.932 164.828 247.062 166.111 248.832 166.111ZM254.197 166.111C255.047 166.111 255.709 165.742 256.107 165.068H256.201V166H257.221V161.676C257.221 160.363 256.359 159.572 254.818 159.572C253.471 159.572 252.51 160.24 252.346 161.23L252.34 161.266H253.359L253.365 161.248C253.529 160.756 254.027 160.475 254.783 160.475C255.727 160.475 256.201 160.896 256.201 161.676V162.25L254.391 162.361C252.92 162.449 252.088 163.1 252.088 164.225V164.236C252.088 165.385 252.996 166.111 254.197 166.111ZM253.131 164.213V164.201C253.131 163.574 253.553 163.234 254.514 163.176L256.201 163.07V163.645C256.201 164.547 255.445 165.227 254.408 165.227C253.676 165.227 253.131 164.852 253.131 164.213ZM258.584 166H259.604V162.262C259.604 161.154 260.242 160.475 261.25 160.475C262.258 160.475 262.727 161.02 262.727 162.156V166H263.746V161.91C263.746 160.41 262.955 159.572 261.537 159.572C260.605 159.572 260.014 159.965 259.697 160.633H259.604V159.684H258.584V166ZM271.107 166.111C272.707 166.111 273.756 164.816 273.756 162.848V162.836C273.756 160.855 272.713 159.572 271.107 159.572C270.24 159.572 269.484 160.006 269.139 160.68H269.045V157.176H268.025V166H269.045V164.992H269.139C269.525 165.695 270.229 166.111 271.107 166.111ZM270.873 165.209C269.725 165.209 269.021 164.307 269.021 162.848V162.836C269.021 161.377 269.725 160.475 270.873 160.475C272.027 160.475 272.713 161.365 272.713 162.836V162.848C272.713 164.318 272.027 165.209 270.873 165.209ZM277.416 166.111C278.904 166.111 279.807 165.268 280.023 164.412L280.035 164.365H279.016L278.992 164.418C278.822 164.799 278.295 165.203 277.439 165.203C276.314 165.203 275.594 164.441 275.564 163.135H280.111V162.736C280.111 160.85 279.068 159.572 277.352 159.572C275.635 159.572 274.521 160.908 274.521 162.859V162.865C274.521 164.846 275.611 166.111 277.416 166.111ZM277.346 160.48C278.277 160.48 278.969 161.072 279.074 162.32H275.582C275.693 161.119 276.408 160.48 277.346 160.48ZM284.068 166H285.088V162.086C285.088 161.16 285.779 160.545 286.752 160.545C286.975 160.545 287.168 160.568 287.379 160.604V159.613C287.279 159.596 287.062 159.572 286.869 159.572C286.014 159.572 285.422 159.959 285.182 160.621H285.088V159.684H284.068V166ZM290.541 166.111C292.029 166.111 292.932 165.268 293.148 164.412L293.16 164.365H292.141L292.117 164.418C291.947 164.799 291.42 165.203 290.564 165.203C289.439 165.203 288.719 164.441 288.689 163.135H293.236V162.736C293.236 160.85 292.193 159.572 290.477 159.572C288.76 159.572 287.646 160.908 287.646 162.859V162.865C287.646 164.846 288.736 166.111 290.541 166.111ZM290.471 160.48C291.402 160.48 292.094 161.072 292.199 162.32H288.707C288.818 161.119 289.533 160.48 290.471 160.48ZM296.053 166.111C296.902 166.111 297.564 165.742 297.963 165.068H298.057V166H299.076V161.676C299.076 160.363 298.215 159.572 296.674 159.572C295.326 159.572 294.365 160.24 294.201 161.23L294.195 161.266H295.215L295.221 161.248C295.385 160.756 295.883 160.475 296.639 160.475C297.582 160.475 298.057 160.896 298.057 161.676V162.25L296.246 162.361C294.775 162.449 293.943 163.1 293.943 164.225V164.236C293.943 165.385 294.852 166.111 296.053 166.111ZM294.986 164.213V164.201C294.986 163.574 295.408 163.234 296.369 163.176L298.057 163.07V163.645C298.057 164.547 297.301 165.227 296.264 165.227C295.531 165.227 294.986 164.852 294.986 164.213ZM303.023 166.111C304.541 166.111 305.391 165.297 305.648 164.154L305.66 164.09L304.652 164.096L304.641 164.131C304.406 164.834 303.867 165.209 303.018 165.209C301.893 165.209 301.166 164.277 301.166 162.824V162.812C301.166 161.389 301.881 160.475 303.018 160.475C303.926 160.475 304.488 160.979 304.646 161.6L304.652 161.617H305.666L305.66 161.582C305.473 160.457 304.553 159.572 303.018 159.572C301.248 159.572 300.123 160.85 300.123 162.812V162.824C300.123 164.828 301.254 166.111 303.023 166.111ZM306.713 166H307.732V162.262C307.732 161.154 308.371 160.475 309.379 160.475C310.387 160.475 310.855 161.02 310.855 162.156V166H311.875V161.91C311.875 160.41 311.084 159.572 309.666 159.572C308.734 159.572 308.143 159.965 307.826 160.633H307.732V157.176H306.713V166ZM315.799 166.111C317.287 166.111 318.189 165.268 318.406 164.412L318.418 164.365H317.398L317.375 164.418C317.205 164.799 316.678 165.203 315.822 165.203C314.697 165.203 313.977 164.441 313.947 163.135H318.494V162.736C318.494 160.85 317.451 159.572 315.734 159.572C314.018 159.572 312.904 160.908 312.904 162.859V162.865C312.904 164.846 313.994 166.111 315.799 166.111ZM315.729 160.48C316.66 160.48 317.352 161.072 317.457 162.32H313.965C314.076 161.119 314.791 160.48 315.729 160.48ZM321.908 166.111C322.787 166.111 323.49 165.695 323.877 164.992H323.971V166H324.99V157.176H323.971V160.68H323.877C323.531 160.006 322.775 159.572 321.908 159.572C320.303 159.572 319.26 160.855 319.26 162.836V162.848C319.26 164.816 320.309 166.111 321.908 166.111ZM322.143 165.209C320.988 165.209 320.303 164.318 320.303 162.848V162.836C320.303 161.365 320.988 160.475 322.143 160.475C323.291 160.475 323.994 161.377 323.994 162.836V162.848C323.994 164.307 323.291 165.209 322.143 165.209ZM327.279 166.059C327.701 166.059 328.041 165.713 328.041 165.297C328.041 164.875 327.701 164.535 327.279 164.535C326.863 164.535 326.518 164.875 326.518 165.297C326.518 165.713 326.863 166.059 327.279 166.059ZM95.5645 186H96.6074V179.443H96.7012L101.289 186H102.314V177.545H101.271V184.125H101.178L96.5898 177.545H95.5645V186ZM106.438 186.111C108.236 186.111 109.35 184.869 109.35 182.848V182.836C109.35 180.809 108.236 179.572 106.438 179.572C104.639 179.572 103.525 180.809 103.525 182.836V182.848C103.525 184.869 104.639 186.111 106.438 186.111ZM106.438 185.209C105.242 185.209 104.568 184.336 104.568 182.848V182.836C104.568 181.342 105.242 180.475 106.438 180.475C107.633 180.475 108.307 181.342 108.307 182.836V182.848C108.307 184.336 107.633 185.209 106.438 185.209ZM115.902 186.111C117.701 186.111 118.814 184.869 118.814 182.848V182.836C118.814 180.809 117.701 179.572 115.902 179.572C114.104 179.572 112.99 180.809 112.99 182.836V182.848C112.99 184.869 114.104 186.111 115.902 186.111ZM115.902 185.209C114.707 185.209 114.033 184.336 114.033 182.848V182.836C114.033 181.342 114.707 180.475 115.902 180.475C117.098 180.475 117.771 181.342 117.771 182.836V182.848C117.771 184.336 117.098 185.209 115.902 185.209ZM119.896 186H120.916V182.262C120.916 181.154 121.555 180.475 122.562 180.475C123.57 180.475 124.039 181.02 124.039 182.156V186H125.059V181.91C125.059 180.41 124.268 179.572 122.85 179.572C121.918 179.572 121.326 179.965 121.01 180.633H120.916V179.684H119.896V186ZM128.982 186.111C130.471 186.111 131.373 185.268 131.59 184.412L131.602 184.365H130.582L130.559 184.418C130.389 184.799 129.861 185.203 129.006 185.203C127.881 185.203 127.16 184.441 127.131 183.135H131.678V182.736C131.678 180.85 130.635 179.572 128.918 179.572C127.201 179.572 126.088 180.908 126.088 182.859V182.865C126.088 184.846 127.178 186.111 128.982 186.111ZM128.912 180.48C129.844 180.48 130.535 181.072 130.641 182.32H127.148C127.26 181.119 127.975 180.48 128.912 180.48ZM138.213 186.111C139.701 186.111 140.604 185.268 140.82 184.412L140.832 184.365H139.812L139.789 184.418C139.619 184.799 139.092 185.203 138.236 185.203C137.111 185.203 136.391 184.441 136.361 183.135H140.908V182.736C140.908 180.85 139.865 179.572 138.148 179.572C136.432 179.572 135.318 180.908 135.318 182.859V182.865C135.318 184.846 136.408 186.111 138.213 186.111ZM138.143 180.48C139.074 180.48 139.766 181.072 139.871 182.32H136.379C136.49 181.119 137.205 180.48 138.143 180.48ZM142.049 186H143.068V177.176H142.049V186ZM146.693 186.111C148.129 186.111 149.225 185.332 149.225 184.207V184.195C149.225 183.293 148.65 182.777 147.461 182.49L146.488 182.256C145.744 182.074 145.428 181.805 145.428 181.377V181.365C145.428 180.809 145.979 180.422 146.729 180.422C147.49 180.422 147.982 180.768 148.117 181.266H149.119C148.979 180.234 148.059 179.572 146.734 179.572C145.393 179.572 144.385 180.363 144.385 181.412V181.418C144.385 182.326 144.918 182.842 146.102 183.123L147.08 183.357C147.859 183.545 148.182 183.844 148.182 184.271V184.283C148.182 184.857 147.578 185.262 146.729 185.262C145.92 185.262 145.416 184.916 145.246 184.389H144.203C144.32 185.432 145.287 186.111 146.693 186.111ZM152.885 186.111C154.373 186.111 155.275 185.268 155.492 184.412L155.504 184.365H154.484L154.461 184.418C154.291 184.799 153.764 185.203 152.908 185.203C151.783 185.203 151.062 184.441 151.033 183.135H155.58V182.736C155.58 180.85 154.537 179.572 152.82 179.572C151.104 179.572 149.99 180.908 149.99 182.859V182.865C149.99 184.846 151.08 186.111 152.885 186.111ZM152.814 180.48C153.746 180.48 154.438 181.072 154.543 182.32H151.051C151.162 181.119 151.877 180.48 152.814 180.48ZM160.756 186H161.775L163.182 181.113H163.275L164.688 186H165.713L167.482 179.684H166.469L165.227 184.734H165.133L163.721 179.684H162.754L161.342 184.734H161.248L160.006 179.684H158.986L160.756 186ZM168.869 178.465C169.256 178.465 169.572 178.148 169.572 177.762C169.572 177.375 169.256 177.059 168.869 177.059C168.482 177.059 168.166 177.375 168.166 177.762C168.166 178.148 168.482 178.465 168.869 178.465ZM168.354 186H169.373V179.684H168.354V186ZM170.854 186H171.873V177.176H170.854V186ZM173.389 186H174.408V177.176H173.389V186ZM180.908 186.111C182.344 186.111 183.439 185.332 183.439 184.207V184.195C183.439 183.293 182.865 182.777 181.676 182.49L180.703 182.256C179.959 182.074 179.643 181.805 179.643 181.377V181.365C179.643 180.809 180.193 180.422 180.943 180.422C181.705 180.422 182.197 180.768 182.332 181.266H183.334C183.193 180.234 182.273 179.572 180.949 179.572C179.607 179.572 178.6 180.363 178.6 181.412V181.418C178.6 182.326 179.133 182.842 180.316 183.123L181.295 183.357C182.074 183.545 182.396 183.844 182.396 184.271V184.283C182.396 184.857 181.793 185.262 180.943 185.262C180.135 185.262 179.631 184.916 179.461 184.389H178.418C178.535 185.432 179.502 186.111 180.908 186.111ZM187.1 186.111C188.588 186.111 189.49 185.268 189.707 184.412L189.719 184.365H188.699L188.676 184.418C188.506 184.799 187.979 185.203 187.123 185.203C185.998 185.203 185.277 184.441 185.248 183.135H189.795V182.736C189.795 180.85 188.752 179.572 187.035 179.572C185.318 179.572 184.205 180.908 184.205 182.859V182.865C184.205 184.846 185.295 186.111 187.1 186.111ZM187.029 180.48C187.961 180.48 188.652 181.072 188.758 182.32H185.266C185.377 181.119 186.092 180.48 187.029 180.48ZM193.455 186.111C194.943 186.111 195.846 185.268 196.062 184.412L196.074 184.365H195.055L195.031 184.418C194.861 184.799 194.334 185.203 193.479 185.203C192.354 185.203 191.633 184.441 191.604 183.135H196.15V182.736C196.15 180.85 195.107 179.572 193.391 179.572C191.674 179.572 190.561 180.908 190.561 182.859V182.865C190.561 184.846 191.65 186.111 193.455 186.111ZM193.385 180.48C194.316 180.48 195.008 181.072 195.113 182.32H191.621C191.732 181.119 192.447 180.48 193.385 180.48ZM202.352 186.047C202.551 186.047 202.744 186.023 202.943 185.988V185.121C202.756 185.139 202.656 185.145 202.475 185.145C201.818 185.145 201.561 184.846 201.561 184.102V180.527H202.943V179.684H201.561V178.049H200.506V179.684H199.51V180.527H200.506V184.359C200.506 185.566 201.051 186.047 202.352 186.047ZM204.025 186H205.045V182.262C205.045 181.154 205.684 180.475 206.691 180.475C207.699 180.475 208.168 181.02 208.168 182.156V186H209.188V181.91C209.188 180.41 208.396 179.572 206.979 179.572C206.047 179.572 205.455 179.965 205.139 180.633H205.045V177.176H204.025V186ZM211.072 178.465C211.459 178.465 211.775 178.148 211.775 177.762C211.775 177.375 211.459 177.059 211.072 177.059C210.686 177.059 210.369 177.375 210.369 177.762C210.369 178.148 210.686 178.465 211.072 178.465ZM210.557 186H211.576V179.684H210.557V186ZM215.166 186.111C216.602 186.111 217.697 185.332 217.697 184.207V184.195C217.697 183.293 217.123 182.777 215.934 182.49L214.961 182.256C214.217 182.074 213.9 181.805 213.9 181.377V181.365C213.9 180.809 214.451 180.422 215.201 180.422C215.963 180.422 216.455 180.768 216.59 181.266H217.592C217.451 180.234 216.531 179.572 215.207 179.572C213.865 179.572 212.857 180.363 212.857 181.412V181.418C212.857 182.326 213.391 182.842 214.574 183.123L215.553 183.357C216.332 183.545 216.654 183.844 216.654 184.271V184.283C216.654 184.857 216.051 185.262 215.201 185.262C214.393 185.262 213.889 184.916 213.719 184.389H212.676C212.793 185.432 213.76 186.111 215.166 186.111ZM224.25 186.111C226.049 186.111 227.162 184.869 227.162 182.848V182.836C227.162 180.809 226.049 179.572 224.25 179.572C222.451 179.572 221.338 180.809 221.338 182.836V182.848C221.338 184.869 222.451 186.111 224.25 186.111ZM224.25 185.209C223.055 185.209 222.381 184.336 222.381 182.848V182.836C222.381 181.342 223.055 180.475 224.25 180.475C225.445 180.475 226.119 181.342 226.119 182.836V182.848C226.119 184.336 225.445 185.209 224.25 185.209ZM228.244 186H229.264V182.262C229.264 181.154 229.902 180.475 230.91 180.475C231.918 180.475 232.387 181.02 232.387 182.156V186H233.406V181.91C233.406 180.41 232.615 179.572 231.197 179.572C230.266 179.572 229.674 179.965 229.357 180.633H229.264V179.684H228.244V186ZM238.166 188.215C239.285 188.215 239.807 187.805 240.328 186.387L242.795 179.684H241.723L239.994 184.881H239.9L238.166 179.684H237.076L239.414 186.006L239.297 186.381C239.068 187.107 238.717 187.371 238.137 187.371C237.996 187.371 237.838 187.365 237.715 187.342V188.18C237.855 188.203 238.031 188.215 238.166 188.215ZM246.004 186.111C247.803 186.111 248.916 184.869 248.916 182.848V182.836C248.916 180.809 247.803 179.572 246.004 179.572C244.205 179.572 243.092 180.809 243.092 182.836V182.848C243.092 184.869 244.205 186.111 246.004 186.111ZM246.004 185.209C244.809 185.209 244.135 184.336 244.135 182.848V182.836C244.135 181.342 244.809 180.475 246.004 180.475C247.199 180.475 247.873 181.342 247.873 182.836V182.848C247.873 184.336 247.199 185.209 246.004 185.209ZM252.113 186.111C253.039 186.111 253.678 185.73 253.988 185.057H254.082V186H255.102V179.684H254.082V183.422C254.082 184.529 253.49 185.209 252.377 185.209C251.369 185.209 250.959 184.664 250.959 183.527V179.684H249.939V183.773C249.939 185.268 250.678 186.111 252.113 186.111ZM256.506 186H257.525V182.086C257.525 181.16 258.217 180.545 259.189 180.545C259.412 180.545 259.605 180.568 259.816 180.604V179.613C259.717 179.596 259.5 179.572 259.307 179.572C258.451 179.572 257.859 179.959 257.619 180.621H257.525V179.684H256.506V186ZM263.451 188.109H264.471V185.004H264.564C264.91 185.678 265.666 186.111 266.533 186.111C268.139 186.111 269.182 184.828 269.182 182.848V182.836C269.182 180.867 268.133 179.572 266.533 179.572C265.654 179.572 264.951 179.988 264.564 180.691H264.471V179.684H263.451V188.109ZM266.299 185.209C265.15 185.209 264.447 184.307 264.447 182.848V182.836C264.447 181.377 265.15 180.475 266.299 180.475C267.453 180.475 268.139 181.365 268.139 182.836V182.848C268.139 184.318 267.453 185.209 266.299 185.209ZM270.275 186H271.295V182.086C271.295 181.16 271.986 180.545 272.959 180.545C273.182 180.545 273.375 180.568 273.586 180.604V179.613C273.486 179.596 273.27 179.572 273.076 179.572C272.221 179.572 271.629 179.959 271.389 180.621H271.295V179.684H270.275V186ZM276.766 186.111C278.564 186.111 279.678 184.869 279.678 182.848V182.836C279.678 180.809 278.564 179.572 276.766 179.572C274.967 179.572 273.854 180.809 273.854 182.836V182.848C273.854 184.869 274.967 186.111 276.766 186.111ZM276.766 185.209C275.57 185.209 274.896 184.336 274.896 182.848V182.836C274.896 181.342 275.57 180.475 276.766 180.475C277.961 180.475 278.635 181.342 278.635 182.836V182.848C278.635 184.336 277.961 185.209 276.766 185.209ZM281.182 186H282.201V180.527H283.637V179.684H282.201V179.01C282.201 178.318 282.494 177.961 283.221 177.961C283.402 177.961 283.572 177.967 283.695 177.99V177.176C283.484 177.135 283.262 177.117 283.016 177.117C281.814 177.117 281.182 177.721 281.182 178.98V179.684H280.133V180.527H281.182V186ZM285.146 178.465C285.533 178.465 285.85 178.148 285.85 177.762C285.85 177.375 285.533 177.059 285.146 177.059C284.76 177.059 284.443 177.375 284.443 177.762C284.443 178.148 284.76 178.465 285.146 178.465ZM284.631 186H285.65V179.684H284.631V186ZM287.131 186H288.15V177.176H287.131V186ZM292.186 186.111C293.674 186.111 294.576 185.268 294.793 184.412L294.805 184.365H293.785L293.762 184.418C293.592 184.799 293.064 185.203 292.209 185.203C291.084 185.203 290.363 184.441 290.334 183.135H294.881V182.736C294.881 180.85 293.838 179.572 292.121 179.572C290.404 179.572 289.291 180.908 289.291 182.859V182.865C289.291 184.846 290.381 186.111 292.186 186.111ZM292.115 180.48C293.047 180.48 293.738 181.072 293.844 182.32H290.352C290.463 181.119 291.178 180.48 292.115 180.48Z" fill="#999999"/>
<path d="M41.0781 253H42.0625V246.543H42.127L44.7988 253H45.6895L48.3613 246.543H48.4258V253H49.4102V244.545H48.1855L45.291 251.6H45.1973L42.3027 244.545H41.0781V253ZM54.0332 253.111C55.832 253.111 56.9453 251.869 56.9453 249.848V249.836C56.9453 247.809 55.832 246.572 54.0332 246.572C52.2344 246.572 51.1211 247.809 51.1211 249.836V249.848C51.1211 251.869 52.2344 253.111 54.0332 253.111ZM54.0332 252.209C52.8379 252.209 52.1641 251.336 52.1641 249.848V249.836C52.1641 248.342 52.8379 247.475 54.0332 247.475C55.2285 247.475 55.9023 248.342 55.9023 249.836V249.848C55.9023 251.336 55.2285 252.209 54.0332 252.209ZM61.668 253.111C63.2676 253.111 64.3164 251.816 64.3164 249.848V249.836C64.3164 247.855 63.2734 246.572 61.668 246.572C60.8008 246.572 60.0449 247.006 59.6992 247.68H59.6055V244.176H58.5859V253H59.6055V251.992H59.6992C60.0859 252.695 60.7891 253.111 61.668 253.111ZM61.4336 252.209C60.2852 252.209 59.582 251.307 59.582 249.848V249.836C59.582 248.377 60.2852 247.475 61.4336 247.475C62.5879 247.475 63.2734 248.365 63.2734 249.836V249.848C63.2734 251.318 62.5879 252.209 61.4336 252.209ZM66.4375 245.465C66.8242 245.465 67.1406 245.148 67.1406 244.762C67.1406 244.375 66.8242 244.059 66.4375 244.059C66.0508 244.059 65.7344 244.375 65.7344 244.762C65.7344 245.148 66.0508 245.465 66.4375 245.465ZM65.9219 253H66.9414V246.684H65.9219V253ZM68.9219 253H69.9414V244.176H68.9219V253ZM74.4766 253.111C75.9648 253.111 76.8672 252.268 77.084 251.412L77.0957 251.365H76.0762L76.0527 251.418C75.8828 251.799 75.3555 252.203 74.5 252.203C73.375 252.203 72.6543 251.441 72.625 250.135H77.1719V249.736C77.1719 247.85 76.1289 246.572 74.4121 246.572C72.6953 246.572 71.582 247.908 71.582 249.859V249.865C71.582 251.846 72.6719 253.111 74.4766 253.111ZM74.4062 247.48C75.3379 247.48 76.0293 248.072 76.1348 249.32H72.6426C72.7539 248.119 73.4688 247.48 74.4062 247.48ZM82.1289 253H83.1484V249.262C83.1484 248.154 83.7871 247.475 84.7949 247.475C85.8027 247.475 86.2715 248.02 86.2715 249.156V253H87.291V248.91C87.291 247.41 86.5 246.572 85.082 246.572C84.1504 246.572 83.5586 246.965 83.2422 247.633H83.1484V246.684H82.1289V253ZM91.252 253.111C92.1777 253.111 92.8164 252.73 93.127 252.057H93.2207V253H94.2402V246.684H93.2207V250.422C93.2207 251.529 92.6289 252.209 91.5156 252.209C90.5078 252.209 90.0977 251.664 90.0977 250.527V246.684H89.0781V250.773C89.0781 252.268 89.8164 253.111 91.252 253.111ZM96.1445 253H97.1641V249.086C97.1641 248.195 97.791 247.475 98.6172 247.475C99.4141 247.475 99.9297 247.961 99.9297 248.711V253H100.949V248.939C100.949 248.137 101.529 247.475 102.408 247.475C103.299 247.475 103.727 247.938 103.727 248.869V253H104.746V248.635C104.746 247.311 104.025 246.572 102.736 246.572C101.863 246.572 101.143 247.012 100.803 247.68H100.709C100.416 247.023 99.8184 246.572 98.9629 246.572C98.1367 246.572 97.5391 246.965 97.2578 247.645H97.1641V246.684H96.1445V253ZM109.727 253.111C111.326 253.111 112.375 251.816 112.375 249.848V249.836C112.375 247.855 111.332 246.572 109.727 246.572C108.859 246.572 108.104 247.006 107.758 247.68H107.664V244.176H106.645V253H107.664V251.992H107.758C108.145 252.695 108.848 253.111 109.727 253.111ZM109.492 252.209C108.344 252.209 107.641 251.307 107.641 249.848V249.836C107.641 248.377 108.344 247.475 109.492 247.475C110.646 247.475 111.332 248.365 111.332 249.836V249.848C111.332 251.318 110.646 252.209 109.492 252.209ZM116.535 253.111C118.023 253.111 118.926 252.268 119.143 251.412L119.154 251.365H118.135L118.111 251.418C117.941 251.799 117.414 252.203 116.559 252.203C115.434 252.203 114.713 251.441 114.684 250.135H119.23V249.736C119.23 247.85 118.188 246.572 116.471 246.572C114.754 246.572 113.641 247.908 113.641 249.859V249.865C113.641 251.846 114.73 253.111 116.535 253.111ZM116.465 247.48C117.396 247.48 118.088 248.072 118.193 249.32H114.701C114.812 248.119 115.527 247.48 116.465 247.48ZM120.812 253H121.832V249.086C121.832 248.16 122.523 247.545 123.496 247.545C123.719 247.545 123.912 247.568 124.123 247.604V246.613C124.023 246.596 123.807 246.572 123.613 246.572C122.758 246.572 122.166 246.959 121.926 247.621H121.832V246.684H120.812V253Z" fill="#999999"/>
<line x1="40" y1="282.5" x2="350" y2="282.5" stroke="#AAAAAA"/>
<path d="M44.3271 265.903C42.3379 265.903 40.875 267.332 40.875 269.301V269.314C40.875 271.208 42.2559 272.616 44.1084 272.616C45.4414 272.616 46.3711 271.898 46.7334 271.092H46.8633C46.8633 271.167 46.8633 271.249 46.8564 271.324C46.7812 273.382 46.0498 275.132 44.2588 275.132C43.2607 275.132 42.5703 274.619 42.2695 273.792L42.2422 273.717H41.0049L41.0254 273.806C41.3604 275.262 42.5908 276.232 44.2451 276.232C46.6377 276.232 48.0391 274.264 48.0391 270.9V270.887C48.0391 267.175 46.1318 265.903 44.3271 265.903ZM44.3203 271.543C43.042 271.543 42.1123 270.6 42.1123 269.287V269.273C42.1123 267.995 43.1035 266.99 44.3408 266.99C45.5918 266.99 46.5693 268.016 46.5693 269.314V269.321C46.5693 270.606 45.5986 271.543 44.3203 271.543ZM52.7412 265.903C50.752 265.903 49.2891 267.332 49.2891 269.301V269.314C49.2891 271.208 50.6699 272.616 52.5225 272.616C53.8555 272.616 54.7852 271.898 55.1475 271.092H55.2773C55.2773 271.167 55.2773 271.249 55.2705 271.324C55.1953 273.382 54.4639 275.132 52.6729 275.132C51.6748 275.132 50.9844 274.619 50.6836 273.792L50.6562 273.717H49.4189L49.4395 273.806C49.7744 275.262 51.0049 276.232 52.6592 276.232C55.0518 276.232 56.4531 274.264 56.4531 270.9V270.887C56.4531 267.175 54.5459 265.903 52.7412 265.903ZM52.7344 271.543C51.4561 271.543 50.5264 270.6 50.5264 269.287V269.273C50.5264 267.995 51.5176 266.99 52.7549 266.99C54.0059 266.99 54.9834 268.016 54.9834 269.314V269.321C54.9834 270.606 54.0127 271.543 52.7344 271.543ZM61.1553 265.903C59.166 265.903 57.7031 267.332 57.7031 269.301V269.314C57.7031 271.208 59.084 272.616 60.9365 272.616C62.2695 272.616 63.1992 271.898 63.5615 271.092H63.6914C63.6914 271.167 63.6914 271.249 63.6846 271.324C63.6094 273.382 62.8779 275.132 61.0869 275.132C60.0889 275.132 59.3984 274.619 59.0977 273.792L59.0703 273.717H57.833L57.8535 273.806C58.1885 275.262 59.4189 276.232 61.0732 276.232C63.4658 276.232 64.8672 274.264 64.8672 270.9V270.887C64.8672 267.175 62.96 265.903 61.1553 265.903ZM61.1484 271.543C59.8701 271.543 58.9404 270.6 58.9404 269.287V269.273C58.9404 267.995 59.9316 266.99 61.1689 266.99C62.4199 266.99 63.3975 268.016 63.3975 269.314V269.321C63.3975 270.606 62.4268 271.543 61.1484 271.543ZM69.5693 265.903C67.5801 265.903 66.1172 267.332 66.1172 269.301V269.314C66.1172 271.208 67.498 272.616 69.3506 272.616C70.6836 272.616 71.6133 271.898 71.9756 271.092H72.1055C72.1055 271.167 72.1055 271.249 72.0986 271.324C72.0234 273.382 71.292 275.132 69.501 275.132C68.5029 275.132 67.8125 274.619 67.5117 273.792L67.4844 273.717H66.2471L66.2676 273.806C66.6025 275.262 67.833 276.232 69.4873 276.232C71.8799 276.232 73.2812 274.264 73.2812 270.9V270.887C73.2812 267.175 71.374 265.903 69.5693 265.903ZM69.5625 271.543C68.2842 271.543 67.3545 270.6 67.3545 269.287V269.273C67.3545 267.995 68.3457 266.99 69.583 266.99C70.834 266.99 71.8115 268.016 71.8115 269.314V269.321C71.8115 270.606 70.8408 271.543 69.5625 271.543ZM77.9834 265.903C75.9941 265.903 74.5312 267.332 74.5312 269.301V269.314C74.5312 271.208 75.9121 272.616 77.7646 272.616C79.0977 272.616 80.0273 271.898 80.3896 271.092H80.5195C80.5195 271.167 80.5195 271.249 80.5127 271.324C80.4375 273.382 79.7061 275.132 77.915 275.132C76.917 275.132 76.2266 274.619 75.9258 273.792L75.8984 273.717H74.6611L74.6816 273.806C75.0166 275.262 76.2471 276.232 77.9014 276.232C80.2939 276.232 81.6953 274.264 81.6953 270.9V270.887C81.6953 267.175 79.7881 265.903 77.9834 265.903ZM77.9766 271.543C76.6982 271.543 75.7686 270.6 75.7686 269.287V269.273C75.7686 267.995 76.7598 266.99 77.9971 266.99C79.248 266.99 80.2256 268.016 80.2256 269.314V269.321C80.2256 270.606 79.2549 271.543 77.9766 271.543ZM89.835 265.903C87.8457 265.903 86.3828 267.332 86.3828 269.301V269.314C86.3828 271.208 87.7637 272.616 89.6162 272.616C90.9492 272.616 91.8789 271.898 92.2412 271.092H92.3711C92.3711 271.167 92.3711 271.249 92.3643 271.324C92.2891 273.382 91.5576 275.132 89.7666 275.132C88.7686 275.132 88.0781 274.619 87.7773 273.792L87.75 273.717H86.5127L86.5332 273.806C86.8682 275.262 88.0986 276.232 89.7529 276.232C92.1455 276.232 93.5469 274.264 93.5469 270.9V270.887C93.5469 267.175 91.6396 265.903 89.835 265.903ZM89.8281 271.543C88.5498 271.543 87.6201 270.6 87.6201 269.287V269.273C87.6201 267.995 88.6113 266.99 89.8486 266.99C91.0996 266.99 92.0771 268.016 92.0771 269.314V269.321C92.0771 270.606 91.1064 271.543 89.8281 271.543ZM98.249 265.903C96.2598 265.903 94.7969 267.332 94.7969 269.301V269.314C94.7969 271.208 96.1777 272.616 98.0303 272.616C99.3633 272.616 100.293 271.898 100.655 271.092H100.785C100.785 271.167 100.785 271.249 100.778 271.324C100.703 273.382 99.9717 275.132 98.1807 275.132C97.1826 275.132 96.4922 274.619 96.1914 273.792L96.1641 273.717H94.9268L94.9473 273.806C95.2822 275.262 96.5127 276.232 98.167 276.232C100.56 276.232 101.961 274.264 101.961 270.9V270.887C101.961 267.175 100.054 265.903 98.249 265.903ZM98.2422 271.543C96.9639 271.543 96.0342 270.6 96.0342 269.287V269.273C96.0342 267.995 97.0254 266.99 98.2627 266.99C99.5137 266.99 100.491 268.016 100.491 269.314V269.321C100.491 270.606 99.5205 271.543 98.2422 271.543ZM106.663 265.903C104.674 265.903 103.211 267.332 103.211 269.301V269.314C103.211 271.208 104.592 272.616 106.444 272.616C107.777 272.616 108.707 271.898 109.069 271.092H109.199C109.199 271.167 109.199 271.249 109.192 271.324C109.117 273.382 108.386 275.132 106.595 275.132C105.597 275.132 104.906 274.619 104.605 273.792L104.578 273.717H103.341L103.361 273.806C103.696 275.262 104.927 276.232 106.581 276.232C108.974 276.232 110.375 274.264 110.375 270.9V270.887C110.375 267.175 108.468 265.903 106.663 265.903ZM106.656 271.543C105.378 271.543 104.448 270.6 104.448 269.287V269.273C104.448 267.995 105.439 266.99 106.677 266.99C107.928 266.99 108.905 268.016 108.905 269.314V269.321C108.905 270.606 107.935 271.543 106.656 271.543ZM115.077 265.903C113.088 265.903 111.625 267.332 111.625 269.301V269.314C111.625 271.208 113.006 272.616 114.858 272.616C116.191 272.616 117.121 271.898 117.483 271.092H117.613C117.613 271.167 117.613 271.249 117.606 271.324C117.531 273.382 116.8 275.132 115.009 275.132C114.011 275.132 113.32 274.619 113.02 273.792L112.992 273.717H111.755L111.775 273.806C112.11 275.262 113.341 276.232 114.995 276.232C117.388 276.232 118.789 274.264 118.789 270.9V270.887C118.789 267.175 116.882 265.903 115.077 265.903ZM115.07 271.543C113.792 271.543 112.862 270.6 112.862 269.287V269.273C112.862 267.995 113.854 266.99 115.091 266.99C116.342 266.99 117.319 268.016 117.319 269.314V269.321C117.319 270.606 116.349 271.543 115.07 271.543ZM123.491 265.903C121.502 265.903 120.039 267.332 120.039 269.301V269.314C120.039 271.208 121.42 272.616 123.272 272.616C124.605 272.616 125.535 271.898 125.897 271.092H126.027C126.027 271.167 126.027 271.249 126.021 271.324C125.945 273.382 125.214 275.132 123.423 275.132C122.425 275.132 121.734 274.619 121.434 273.792L121.406 273.717H120.169L120.189 273.806C120.524 275.262 121.755 276.232 123.409 276.232C125.802 276.232 127.203 274.264 127.203 270.9V270.887C127.203 267.175 125.296 265.903 123.491 265.903ZM123.484 271.543C122.206 271.543 121.276 270.6 121.276 269.287V269.273C121.276 267.995 122.268 266.99 123.505 266.99C124.756 266.99 125.733 268.016 125.733 269.314V269.321C125.733 270.606 124.763 271.543 123.484 271.543Z" fill="black"/>
<path d="M342 275L350 267M342 267L350 275" stroke="#AAAAAA" stroke-width="1.5" stroke-linecap="round"/>
<g filter="url(#filter1_b_1668_64291)">
<rect width="390" height="251" transform="translate(0 605)" fill="#D1D5DB" fill-opacity="0.9"/>
<g filter="url(#filter2_d_1668_64291)">
<rect x="6" y="611" width="122.667" height="46" rx="4.6" fill="white"/>
</g>
<path d="M67.8784 635H70.0024V617.385H67.854L63.1665 620.754V622.964L67.8296 619.717H67.8784V635Z" fill="black"/>
<g filter="url(#filter3_d_1668_64291)">
<rect x="133.667" y="611" width="122.667" height="46" rx="4.6" fill="white"/>
</g>
<path d="M182.683 649.477H184.231L184.753 647.768H187.239L187.761 649.477H189.314L186.863 642.431H185.129L182.683 649.477ZM185.955 643.837H186.042L186.902 646.664H185.09L185.955 643.837ZM192.51 649.477H195.674C197.178 649.477 198.111 648.7 198.111 647.465V647.455C198.111 646.552 197.432 645.854 196.5 645.78V645.692C197.222 645.585 197.774 644.936 197.774 644.193V644.184C197.774 643.1 196.958 642.431 195.591 642.431H192.51V649.477ZM195.215 643.524C195.918 643.524 196.324 643.866 196.324 644.438V644.447C196.324 645.028 195.889 645.36 195.093 645.36H193.985V643.524H195.215ZM195.264 646.332C196.133 646.332 196.607 646.684 196.607 647.338V647.348C196.607 648.017 196.148 648.378 195.298 648.378H193.985V646.332H195.264ZM204.437 649.657C206.136 649.657 207.342 648.651 207.494 647.177L207.499 647.123H206.063L206.053 647.162C205.897 647.914 205.287 648.407 204.442 648.407C203.329 648.407 202.64 647.47 202.64 645.956V645.946C202.64 644.433 203.329 643.5 204.437 643.5C205.277 643.5 205.907 644.037 206.058 644.828V644.862H207.494V644.804C207.357 643.314 206.107 642.25 204.437 642.25C202.391 642.25 201.131 643.661 201.131 645.946V645.956C201.131 648.241 202.396 649.657 204.437 649.657Z" fill="black"/>
<path d="M189.515 635H201.136V633.047H192.53V632.998L196.717 628.701C199.952 625.393 200.843 623.94 200.843 622.012V621.987C200.843 619.229 198.511 617.092 195.325 617.092C192.042 617.092 189.405 619.351 189.405 622.402V622.476H191.529V622.415C191.529 620.522 193.165 619.009 195.362 619.009C197.278 619.009 198.633 620.303 198.646 622.097V622.122C198.646 623.586 198.096 624.539 195.716 627.017L189.515 633.486V635Z" fill="black"/>
<g filter="url(#filter4_d_1668_64291)">
<rect x="261.333" y="611" width="122.667" height="46" rx="4.6" fill="white"/>
</g>
<path d="M311.849 649.477H314.623C316.732 649.477 317.928 648.188 317.928 645.912V645.902C317.928 643.695 316.717 642.431 314.623 642.431H311.849V649.477ZM313.324 648.261V643.646H314.388C315.667 643.646 316.424 644.477 316.424 645.927V645.937C316.424 647.44 315.692 648.261 314.388 648.261H313.324ZM321.33 649.477H325.998V648.261H322.804V646.479H325.817V645.346H322.804V643.646H325.998V642.431H321.33V649.477ZM329.55 649.477H331.025V646.703H333.891V645.536H331.025V643.646H334.165V642.431H329.55V649.477Z" fill="black"/>
<path d="M322.797 635.293C326.325 635.293 328.913 633.12 328.913 630.178V630.154C328.913 627.651 327.167 626.052 324.604 625.833V625.784C326.801 625.32 328.339 623.831 328.339 621.658V621.633C328.339 618.96 326.129 617.092 322.772 617.092C319.477 617.092 317.206 619.009 316.925 621.877L316.913 622H319.025L319.037 621.877C319.22 620.095 320.697 618.997 322.772 618.997C324.921 618.997 326.129 620.059 326.129 621.902V621.926C326.129 623.684 324.665 624.978 322.565 624.978H320.453V626.833H322.663C325.128 626.833 326.679 628.042 326.679 630.203V630.227C326.679 632.095 325.104 633.389 322.797 633.389C320.453 633.389 318.866 632.192 318.683 630.459L318.671 630.337H316.559L316.571 630.483C316.803 633.267 319.159 635.293 322.797 635.293Z" fill="black"/>
<g filter="url(#filter5_d_1668_64291)">
<rect x="6" y="664" width="122.667" height="46" rx="4.6" fill="white"/>
</g>
<path d="M60.1094 702.657C62.0332 702.657 63.2344 701.485 63.2344 699.615V698.721H60.2754V699.795H61.7988L61.7939 699.927C61.7646 700.816 61.1006 701.407 60.1338 701.407C58.9717 701.407 58.2344 700.464 58.2344 698.936V698.926C58.2344 697.427 58.9375 696.5 60.0752 696.5C60.9004 696.5 61.501 696.915 61.7012 697.613L61.7109 697.662H63.1758L63.166 697.613C62.9561 696.207 61.7402 695.25 60.0752 695.25C58.0244 695.25 56.7305 696.68 56.7305 698.941V698.951C56.7305 701.246 58.0146 702.657 60.1094 702.657ZM66.6504 702.476H68.125V699.507H71.2988V702.476H72.7734V695.43H71.2988V698.292H68.125V695.43H66.6504V702.476ZM76.4824 702.476H77.957V695.43H76.4824V702.476Z" fill="black"/>
<path d="M69.7461 688H71.8701V684.338H74.3604V682.409H71.8701V670.385H68.623L60.896 682.348V684.338H69.7461V688ZM63.0688 682.409V682.36L69.6729 672.265H69.7461V682.409H63.0688Z" fill="black"/>
<g filter="url(#filter6_d_1668_64291)">
<rect x="133.667" y="664" width="122.667" height="46" rx="4.6" fill="white"/>
</g>
<path d="M186.384 702.657C187.908 702.657 188.792 701.792 188.792 700.308V695.43H187.317V700.298C187.317 701.006 186.99 701.382 186.365 701.382C185.789 701.382 185.466 701.001 185.437 700.459V700.43H184.006V700.469C184.045 701.792 184.929 702.657 186.384 702.657ZM192.505 702.476H193.98V700.323L194.678 699.483L196.724 702.476H198.492L195.743 698.516L198.311 695.43H196.67L194.068 698.594H193.98V695.43H192.505V702.476ZM201.605 702.476H206.214V701.26H203.08V695.43H201.605V702.476Z" fill="black"/>
<path d="M195.337 688.293C199 688.293 201.6 685.827 201.612 682.299V682.275C201.612 678.894 199.17 676.44 195.789 676.44C194.08 676.44 192.615 677.075 191.785 678.259H191.736L192.334 672.338H200.611V670.385H190.528L189.625 680.432H191.565C191.797 680.029 192.078 679.687 192.396 679.394C193.177 678.686 194.202 678.332 195.398 678.332C197.73 678.332 199.402 679.992 199.415 682.312V682.336C199.415 684.704 197.754 686.364 195.362 686.364C193.25 686.364 191.688 685.034 191.468 683.288L191.456 683.19H189.295L189.307 683.325C189.563 686.193 191.968 688.293 195.337 688.293Z" fill="black"/>
<g filter="url(#filter7_d_1668_64291)">
<rect x="261.333" y="664" width="122.667" height="46" rx="4.6" fill="white"/>
</g>
<path d="M309.374 702.476H310.687V697.681H310.785L312.591 702.476H313.514L315.321 697.681H315.418V702.476H316.732V695.43H315.042L313.099 700.586H313.011L311.063 695.43H309.374V702.476ZM320.446 702.476H321.857V697.969H321.935L325.197 702.476H326.417V695.43H325.006V699.917H324.928L321.676 695.43H320.446V702.476ZM333.212 702.657C335.292 702.657 336.601 701.231 336.601 698.956V698.946C336.601 696.67 335.288 695.25 333.212 695.25C331.137 695.25 329.819 696.666 329.819 698.946V698.956C329.819 701.231 331.118 702.657 333.212 702.657ZM333.212 701.407C332.05 701.407 331.323 700.445 331.323 698.956V698.946C331.323 697.452 332.065 696.5 333.212 696.5C334.355 696.5 335.097 697.452 335.097 698.946V698.956C335.097 700.445 334.36 701.407 333.212 701.407Z" fill="black"/>
<path d="M322.919 688.293C326.52 688.293 329.157 685.778 329.157 682.312V682.287C329.157 678.942 326.667 676.464 323.31 676.464C320.917 676.464 319.11 677.734 318.402 679.296H318.354C318.354 679.162 318.354 679.04 318.366 678.918C318.463 675.219 319.757 672.033 323.041 672.033C324.848 672.033 326.105 672.937 326.63 674.389L326.679 674.523H328.913L328.876 674.365C328.29 671.801 326.056 670.092 323.065 670.092C318.756 670.092 316.229 673.559 316.229 679.492V679.516C316.229 686.047 319.672 688.293 322.919 688.293ZM318.878 682.287V682.275C318.878 680.029 320.624 678.393 322.931 678.393C325.25 678.393 326.923 680.041 326.923 682.336V682.36C326.923 684.582 325.141 686.34 322.895 686.34C320.636 686.34 318.878 684.545 318.878 682.287Z" fill="black"/>
<g filter="url(#filter8_d_1668_64291)">
<rect x="6" y="717" width="122.667" height="46" rx="4.6" fill="white"/>
</g>
<path d="M51.1992 755.476H52.6738V753.254H54.1045C55.5889 753.254 56.5801 752.297 56.5801 750.847V750.837C56.5801 749.387 55.5889 748.43 54.1045 748.43H51.1992V755.476ZM53.7432 749.597C54.5879 749.597 55.0859 750.042 55.0859 750.842V750.852C55.0859 751.653 54.5879 752.102 53.7432 752.102H52.6738V749.597H53.7432ZM63.0186 755.657C63.4727 755.657 63.8926 755.588 64.2686 755.457L64.8057 756.174H66.1777L65.2305 754.91C65.9824 754.275 66.4072 753.254 66.4072 751.956V751.946C66.4072 749.67 65.0938 748.25 63.0186 748.25C60.9434 748.25 59.625 749.666 59.625 751.946V751.956C59.625 754.231 60.9238 755.657 63.0186 755.657ZM63.0186 754.407C61.8564 754.407 61.1289 753.445 61.1289 751.956V751.946C61.1289 750.452 61.8711 749.5 63.0186 749.5C64.1611 749.5 64.9033 750.452 64.9033 751.946V751.956C64.9033 752.717 64.708 753.337 64.3662 753.767L63.9121 753.157H62.54L63.4434 754.358C63.3066 754.392 63.165 754.407 63.0186 754.407ZM69.8086 755.476H71.2832V752.898H72.4893L73.8027 755.476H75.4727L73.9883 752.678C74.7939 752.361 75.2627 751.584 75.2627 750.681V750.671C75.2627 749.285 74.3447 748.43 72.7432 748.43H69.8086V755.476ZM71.2832 751.824V749.583H72.5625C73.2998 749.583 73.7539 750.022 73.7539 750.701V750.71C73.7539 751.404 73.3193 751.824 72.582 751.824H71.2832ZM81.2715 755.657C83.0293 755.657 84.1133 754.773 84.1133 753.376V753.372C84.1133 752.273 83.4639 751.677 81.9746 751.37L81.2275 751.218C80.3975 751.047 80.0557 750.774 80.0557 750.315V750.31C80.0557 749.783 80.5391 749.451 81.2666 749.446C82.0088 749.446 82.4971 749.797 82.5801 750.3L82.5898 750.359H83.9766L83.9717 750.295C83.8789 749.119 82.9121 748.25 81.2666 748.25C79.7041 748.25 78.5811 749.114 78.5811 750.422V750.427C78.5811 751.497 79.2109 752.18 80.6758 752.478L81.418 752.629C82.292 752.81 82.6387 753.069 82.6387 753.533V753.538C82.6387 754.08 82.0967 754.456 81.3105 754.456C80.4854 754.456 79.9141 754.099 79.8604 753.572L79.8555 753.523H78.4346L78.4395 753.601C78.5225 754.851 79.5869 755.657 81.2715 755.657Z" fill="black"/>
<path d="M63.1055 741H65.4126L73.2495 725.424V723.385H61.5918V725.338H71.0767V725.387L63.1055 741Z" fill="black"/>
<g filter="url(#filter9_d_1668_64291)">
<rect x="133.667" y="717" width="122.667" height="46" rx="4.6" fill="white"/>
</g>
<path d="M185.017 755.476H186.492V749.646H188.606V748.43H182.903V749.646H185.017V755.476ZM194.859 755.657C196.675 755.657 197.808 754.607 197.808 753.044V748.43H196.333V752.913C196.333 753.826 195.806 754.407 194.859 754.407C193.912 754.407 193.379 753.826 193.379 752.913V748.43H191.905V753.044C191.905 754.612 193.052 755.657 194.859 755.657ZM203.363 755.476H205.179L207.528 748.43H205.868L204.315 753.835H204.227L202.669 748.43H201.014L203.363 755.476Z" fill="black"/>
<path d="M195.167 741.293C198.902 741.293 201.563 739.193 201.563 736.239V736.215C201.563 734.042 200.037 732.235 197.779 731.71V731.662C199.708 731.063 200.928 729.599 200.928 727.743V727.719C200.928 725.058 198.499 723.092 195.167 723.092C191.834 723.092 189.405 725.058 189.405 727.719V727.743C189.405 729.599 190.625 731.063 192.554 731.662V731.71C190.296 732.235 188.77 734.042 188.77 736.215V736.239C188.77 739.193 191.431 741.293 195.167 741.293ZM195.167 730.844C193.042 730.844 191.59 729.635 191.59 727.926V727.902C191.59 726.193 193.042 724.984 195.167 724.984C197.291 724.984 198.743 726.193 198.743 727.902V727.926C198.743 729.635 197.291 730.844 195.167 730.844ZM195.167 739.376C192.737 739.376 191.004 738.009 191.004 736.105V736.081C191.004 734.152 192.725 732.772 195.167 732.772C197.608 732.772 199.329 734.152 199.329 736.081V736.105C199.329 738.009 197.596 739.376 195.167 739.376Z" fill="black"/>
<g filter="url(#filter10_d_1668_64291)">
<rect x="261.333" y="717" width="122.667" height="46" rx="4.6" fill="white"/>
</g>
<path d="M306.513 755.476H307.905L309.223 750.73H309.301L310.634 755.476H312.016L313.886 748.43H312.363L311.274 753.464H311.196L309.887 748.43H308.642L307.358 753.464H307.28L306.181 748.43H304.648L306.513 755.476ZM316.746 755.476H318.337L319.875 753.005H319.924L321.467 755.476H323.147L320.872 751.956V751.936L323.181 748.43H321.531L320.046 750.969H319.988L318.494 748.43H316.755L318.982 751.912V751.926L316.746 755.476ZM328.414 755.476H329.888V752.844L332.344 748.43H330.748L329.2 751.394H329.112L327.559 748.43H325.962L328.414 752.844V755.476ZM335.35 755.476H340.79V754.26H337.157V754.172L340.692 749.387V748.43H335.433V749.646H338.895V749.734L335.35 754.514V755.476Z" fill="black"/>
<path d="M322.748 723.092C319.147 723.092 316.51 725.607 316.51 729.074V729.098C316.51 732.443 319 734.921 322.357 734.921C324.75 734.921 326.557 733.651 327.265 732.089H327.313C327.313 732.223 327.313 732.345 327.301 732.467C327.204 736.166 325.91 739.352 322.626 739.352C320.819 739.352 319.562 738.449 319.037 736.996L318.988 736.862H316.754L316.791 737.021C317.377 739.584 319.611 741.293 322.602 741.293C326.911 741.293 329.438 737.826 329.438 731.894V731.869C329.438 725.338 325.995 723.092 322.748 723.092ZM322.736 732.992C320.417 732.992 318.744 731.344 318.744 729.049V729.025C318.744 726.803 320.526 725.045 322.772 725.045C325.031 725.045 326.789 726.84 326.789 729.098V729.11C326.789 731.356 325.043 732.992 322.736 732.992Z" fill="black"/>
<g filter="url(#filter11_d_1668_64291)">
<rect x="133.667" y="770" width="122.667" height="46" rx="4.6" fill="white"/>
</g>
<path d="M195.154 802.293C199.207 802.293 201.636 798.79 201.636 793.199V793.174C201.636 787.583 199.207 784.092 195.154 784.092C191.102 784.092 188.697 787.583 188.697 793.174V793.199C188.697 798.79 191.102 802.293 195.154 802.293ZM195.154 800.376C192.469 800.376 190.906 797.618 190.906 793.199V793.174C190.906 788.755 192.469 786.021 195.154 786.021C197.84 786.021 199.427 788.755 199.427 793.174V793.199C199.427 797.618 197.84 800.376 195.154 800.376Z" fill="black"/>
<path d="M321.048 790.025C320.755 789.732 320.755 789.257 321.048 788.964C321.341 788.672 321.816 788.672 322.109 788.964L324.583 791.439L327.058 788.964C327.351 788.672 327.826 788.672 328.119 788.964C328.412 789.257 328.412 789.732 328.119 790.025L325.644 792.5L328.119 794.975C328.412 795.268 328.412 795.743 328.119 796.036C327.826 796.328 327.351 796.328 327.058 796.036L324.583 793.561L322.109 796.036C321.816 796.328 321.341 796.328 321.048 796.036C320.755 795.743 320.755 795.268 321.048 794.975L323.523 792.5L321.048 790.025Z" fill="black"/>
<path fill-rule="evenodd" clip-rule="evenodd" d="M317.955 784.879L310.333 792.5L317.955 800.121C318.517 800.684 319.281 801 320.076 801H330.333C331.99 801 333.333 799.657 333.333 798V787C333.333 785.343 331.99 784 330.333 784H320.076C319.281 784 318.517 784.316 317.955 784.879ZM330.333 799.7H320.076C319.625 799.7 319.193 799.521 318.874 799.202L312.172 792.5L318.874 785.798C319.193 785.479 319.625 785.3 320.076 785.3H330.333C331.272 785.3 332.033 786.061 332.033 787V798C332.033 798.939 331.272 799.7 330.333 799.7Z" fill="black"/>
</g>
<g clip-path="url(#clip1_1668_64291)">
<path d="M113 -2H277C275.396 -1.36663 274.327 0.165139 274.286 1.88899L274.242 3.74719C274.242 17.6939 262.936 29 248.989 29H141.011C127.064 29 115.758 17.6939 115.758 3.74719L115.714 1.88899C115.673 0.165139 114.604 -1.36663 113 -2Z" fill="black"/>
<path opacity="0.35" d="M344.5 19.9997C344.5 18.8031 345.47 17.833 346.667 17.833H363.333C364.53 17.833 365.5 18.8031 365.5 19.9997V25.9997C365.5 27.1963 364.53 28.1663 363.333 28.1663H346.667C345.47 28.1663 344.5 27.1963 344.5 25.9997V19.9997Z" stroke="black"/>
<path opacity="0.4" d="M367 21V25C367.805 24.6612 368.328 23.8731 368.328 23C368.328 22.1269 367.805 21.3388 367 21Z" fill="black"/>
<path d="M346 20.433C346 19.8255 346.492 19.333 347.1 19.333H362.9C363.508 19.333 364 19.8255 364 20.433V25.5663C364 26.1739 363.508 26.6663 362.9 26.6663H347.1C346.492 26.6663 346 26.1739 346 25.5663V20.433Z" fill="black"/>
<path fill-rule="evenodd" clip-rule="evenodd" d="M331.33 19.6074C333.546 19.6075 335.678 20.4589 337.283 21.9857C337.404 22.1036 337.598 22.1021 337.717 21.9824L338.873 20.8157C338.933 20.755 338.967 20.6728 338.966 20.5872C338.966 20.5016 338.931 20.4198 338.87 20.3597C334.655 16.3202 328.005 16.3202 323.79 20.3597C323.729 20.4197 323.694 20.5015 323.694 20.5871C323.693 20.6727 323.727 20.755 323.787 20.8157L324.943 21.9824C325.062 22.1023 325.256 22.1038 325.377 21.9857C326.983 20.4588 329.114 19.6074 331.33 19.6074ZM331.33 23.4031C332.548 23.403 333.722 23.8555 334.624 24.6727C334.747 24.7887 334.939 24.7862 335.058 24.6671L336.212 23.5004C336.273 23.4392 336.307 23.3562 336.306 23.2699C336.305 23.1837 336.27 23.1014 336.208 23.0414C333.46 20.485 329.204 20.485 326.455 23.0414C326.393 23.1014 326.358 23.1837 326.357 23.27C326.356 23.3563 326.39 23.4393 326.451 23.5004L327.605 24.6671C327.724 24.7862 327.917 24.7887 328.039 24.6727C328.941 23.8561 330.114 23.4036 331.33 23.4031ZM333.643 25.9569C333.645 26.0434 333.611 26.1268 333.549 26.1874L331.552 28.2031C331.494 28.2623 331.414 28.2957 331.33 28.2957C331.247 28.2957 331.167 28.2623 331.109 28.2031L329.111 26.1874C329.049 26.1268 329.015 26.0433 329.017 25.9568C329.019 25.8703 329.057 25.7884 329.121 25.7304C330.396 24.6515 332.265 24.6515 333.54 25.7304C333.604 25.7884 333.642 25.8704 333.643 25.9569Z" fill="black"/>
<path fill-rule="evenodd" clip-rule="evenodd" d="M317.667 17.666H316.667C316.115 17.666 315.667 18.1137 315.667 18.666V27.3327C315.667 27.885 316.115 28.3327 316.667 28.3327H317.667C318.219 28.3327 318.667 27.885 318.667 27.3327V18.666C318.667 18.1137 318.219 17.666 317.667 17.666ZM312 19.9993H313C313.553 19.9993 314 20.4471 314 20.9993V27.3327C314 27.885 313.553 28.3327 313 28.3327H312C311.448 28.3327 311 27.885 311 27.3327V20.9993C311 20.4471 311.448 19.9993 312 19.9993ZM308.334 22.3327H307.334C306.781 22.3327 306.334 22.7804 306.334 23.3327V27.3327C306.334 27.885 306.781 28.3327 307.334 28.3327H308.334C308.886 28.3327 309.334 27.885 309.334 27.3327V23.3327C309.334 22.7804 308.886 22.3327 308.334 22.3327ZM303.667 24.3327H302.667C302.115 24.3327 301.667 24.7804 301.667 25.3327V27.3327C301.667 27.885 302.115 28.3327 302.667 28.3327H303.667C304.219 28.3327 304.667 27.885 304.667 27.3327V25.3327C304.667 24.7804 304.219 24.3327 303.667 24.3327Z" fill="black"/>
<path d="M42.5146 17.1675C40.2222 17.1675 38.5889 18.7349 38.5889 20.8809V20.8955C38.5889 22.9023 40.0098 24.3818 42.0386 24.3818C43.4888 24.3818 44.4116 23.6421 44.7998 22.8071H44.9463C44.9463 22.8877 44.939 22.9683 44.939 23.0488C44.8584 25.0703 44.1479 26.7109 42.4707 26.7109C41.5405 26.7109 40.8887 26.2275 40.6104 25.4878L40.5884 25.4146H38.728L38.7427 25.4951C39.0796 27.1138 40.5298 28.2637 42.4707 28.2637C45.1294 28.2637 46.7334 26.1543 46.7334 22.5947V22.5801C46.7334 18.7715 44.7705 17.1675 42.5146 17.1675ZM42.5073 22.9316C41.3062 22.9316 40.4346 22.0527 40.4346 20.8296V20.8149C40.4346 19.6357 41.3647 18.7056 42.5293 18.7056C43.7012 18.7056 44.6167 19.6504 44.6167 20.8589V20.8735C44.6167 22.0674 43.7012 22.9316 42.5073 22.9316ZM49.5586 21.1519C50.2324 21.1519 50.7231 20.6392 50.7231 19.9946C50.7231 19.3428 50.2324 18.8374 49.5586 18.8374C48.8921 18.8374 48.394 19.3428 48.394 19.9946C48.394 20.6392 48.8921 21.1519 49.5586 21.1519ZM49.5586 26.5864C50.2324 26.5864 50.7231 26.0811 50.7231 25.4292C50.7231 24.7773 50.2324 24.272 49.5586 24.272C48.8921 24.272 48.394 24.7773 48.394 25.4292C48.394 26.0811 48.8921 26.5864 49.5586 26.5864ZM57.5107 28H59.3198V25.9712H60.7407V24.4111H59.3198V17.4312H56.6465C55.2109 19.6138 53.7095 22.0454 52.3398 24.4258V25.9712H57.5107V28ZM54.0977 24.4551V24.3452C55.123 22.5508 56.3462 20.5952 57.4302 18.9399H57.54V24.4551H54.0977ZM64.6206 28H66.5103V17.4312H64.6279L61.8667 19.3721V21.1519L64.4961 19.2915H64.6206V28Z" fill="black"/>
</g>
<path d="M128 833.5C128 832.119 129.119 831 130.5 831H259.5C260.881 831 262 832.119 262 833.5C262 834.881 260.881 836 259.5 836H130.5C129.119 836 128 834.881 128 833.5Z" fill="black"/>
<path d="M128 277V257" stroke="#384CFF"/>
</g>
<defs>
<filter id="filter0_d_1668_64291" x="36" y="345" width="318" height="58" filterUnits="userSpaceOnUse" color-interpolation-filters="sRGB">
<feFlood flood-opacity="0" result="BackgroundImageFix"/>
<feColorMatrix in="SourceAlpha" type="matrix" values="0 0 0 0 0 0 0 0 0 0 0 0 0 0 0 0 0 0 127 0" result="hardAlpha"/>
<feOffset dy="4"/>
<feGaussianBlur stdDeviation="4.5"/>
<feComposite in2="hardAlpha" operator="out"/>
<feColorMatrix type="matrix" values="0 0 0 0 0.109804 0 0 0 0 0.470588 0 0 0 0 1 0 0 0 0.5 0"/>
<feBlend mode="normal" in2="BackgroundImageFix" result="effect1_dropShadow_1668_64291"/>
<feBlend mode="normal" in="SourceGraphic" in2="effect1_dropShadow_1668_64291" result="shape"/>
</filter>
<filter id="filter1_b_1668_64291" x="-108.731" y="496.269" width="607.463" height="468.463" filterUnits="userSpaceOnUse" color-interpolation-filters="sRGB">
<feFlood flood-opacity="0" result="BackgroundImageFix"/>
<feGaussianBlur in="BackgroundImageFix" stdDeviation="54.3656"/>
<feComposite in2="SourceAlpha" operator="in" result="effect1_backgroundBlur_1668_64291"/>
<feBlend mode="normal" in="SourceGraphic" in2="effect1_backgroundBlur_1668_64291" result="shape"/>
</filter>
<filter id="filter2_d_1668_64291" x="6" y="611" width="122.667" height="47" filterUnits="userSpaceOnUse" color-interpolation-filters="sRGB">
<feFlood flood-opacity="0" result="BackgroundImageFix"/>
<feColorMatrix in="SourceAlpha" type="matrix" values="0 0 0 0 0 0 0 0 0 0 0 0 0 0 0 0 0 0 127 0" result="hardAlpha"/>
<feOffset dy="1"/>
<feColorMatrix type="matrix" values="0 0 0 0 0 0 0 0 0 0 0 0 0 0 0 0 0 0 0.3 0"/>
<feBlend mode="normal" in2="BackgroundImageFix" result="effect1_dropShadow_1668_64291"/>
<feBlend mode="normal" in="SourceGraphic" in2="effect1_dropShadow_1668_64291" result="shape"/>
</filter>
<filter id="filter3_d_1668_64291" x="133.667" y="611" width="122.667" height="47" filterUnits="userSpaceOnUse" color-interpolation-filters="sRGB">
<feFlood flood-opacity="0" result="BackgroundImageFix"/>
<feColorMatrix in="SourceAlpha" type="matrix" values="0 0 0 0 0 0 0 0 0 0 0 0 0 0 0 0 0 0 127 0" result="hardAlpha"/>
<feOffset dy="1"/>
<feColorMatrix type="matrix" values="0 0 0 0 0 0 0 0 0 0 0 0 0 0 0 0 0 0 0.3 0"/>
<feBlend mode="normal" in2="BackgroundImageFix" result="effect1_dropShadow_1668_64291"/>
<feBlend mode="normal" in="SourceGraphic" in2="effect1_dropShadow_1668_64291" result="shape"/>
</filter>
<filter id="filter4_d_1668_64291" x="261.333" y="611" width="122.667" height="47" filterUnits="userSpaceOnUse" color-interpolation-filters="sRGB">
<feFlood flood-opacity="0" result="BackgroundImageFix"/>
<feColorMatrix in="SourceAlpha" type="matrix" values="0 0 0 0 0 0 0 0 0 0 0 0 0 0 0 0 0 0 127 0" result="hardAlpha"/>
<feOffset dy="1"/>
<feColorMatrix type="matrix" values="0 0 0 0 0 0 0 0 0 0 0 0 0 0 0 0 0 0 0.3 0"/>
<feBlend mode="normal" in2="BackgroundImageFix" result="effect1_dropShadow_1668_64291"/>
<feBlend mode="normal" in="SourceGraphic" in2="effect1_dropShadow_1668_64291" result="shape"/>
</filter>
<filter id="filter5_d_1668_64291" x="6" y="664" width="122.667" height="47" filterUnits="userSpaceOnUse" color-interpolation-filters="sRGB">
<feFlood flood-opacity="0" result="BackgroundImageFix"/>
<feColorMatrix in="SourceAlpha" type="matrix" values="0 0 0 0 0 0 0 0 0 0 0 0 0 0 0 0 0 0 127 0" result="hardAlpha"/>
<feOffset dy="1"/>
<feColorMatrix type="matrix" values="0 0 0 0 0 0 0 0 0 0 0 0 0 0 0 0 0 0 0.3 0"/>
<feBlend mode="normal" in2="BackgroundImageFix" result="effect1_dropShadow_1668_64291"/>
<feBlend mode="normal" in="SourceGraphic" in2="effect1_dropShadow_1668_64291" result="shape"/>
</filter>
<filter id="filter6_d_1668_64291" x="133.667" y="664" width="122.667" height="47" filterUnits="userSpaceOnUse" color-interpolation-filters="sRGB">
<feFlood flood-opacity="0" result="BackgroundImageFix"/>
<feColorMatrix in="SourceAlpha" type="matrix" values="0 0 0 0 0 0 0 0 0 0 0 0 0 0 0 0 0 0 127 0" result="hardAlpha"/>
<feOffset dy="1"/>
<feColorMatrix type="matrix" values="0 0 0 0 0 0 0 0 0 0 0 0 0 0 0 0 0 0 0.3 0"/>
<feBlend mode="normal" in2="BackgroundImageFix" result="effect1_dropShadow_1668_64291"/>
<feBlend mode="normal" in="SourceGraphic" in2="effect1_dropShadow_1668_64291" result="shape"/>
</filter>
<filter id="filter7_d_1668_64291" x="261.333" y="664" width="122.667" height="47" filterUnits="userSpaceOnUse" color-interpolation-filters="sRGB">
<feFlood flood-opacity="0" result="BackgroundImageFix"/>
<feColorMatrix in="SourceAlpha" type="matrix" values="0 0 0 0 0 0 0 0 0 0 0 0 0 0 0 0 0 0 127 0" result="hardAlpha"/>
<feOffset dy="1"/>
<feColorMatrix type="matrix" values="0 0 0 0 0 0 0 0 0 0 0 0 0 0 0 0 0 0 0.3 0"/>
<feBlend mode="normal" in2="BackgroundImageFix" result="effect1_dropShadow_1668_64291"/>
<feBlend mode="normal" in="SourceGraphic" in2="effect1_dropShadow_1668_64291" result="shape"/>
</filter>
<filter id="filter8_d_1668_64291" x="6" y="717" width="122.667" height="47" filterUnits="userSpaceOnUse" color-interpolation-filters="sRGB">
<feFlood flood-opacity="0" result="BackgroundImageFix"/>
<feColorMatrix in="SourceAlpha" type="matrix" values="0 0 0 0 0 0 0 0 0 0 0 0 0 0 0 0 0 0 127 0" result="hardAlpha"/>
<feOffset dy="1"/>
<feColorMatrix type="matrix" values="0 0 0 0 0 0 0 0 0 0 0 0 0 0 0 0 0 0 0.3 0"/>
<feBlend mode="normal" in2="BackgroundImageFix" result="effect1_dropShadow_1668_64291"/>
<feBlend mode="normal" in="SourceGraphic" in2="effect1_dropShadow_1668_64291" result="shape"/>
</filter>
<filter id="filter9_d_1668_64291" x="133.667" y="717" width="122.667" height="47" filterUnits="userSpaceOnUse" color-interpolation-filters="sRGB">
<feFlood flood-opacity="0" result="BackgroundImageFix"/>
<feColorMatrix in="SourceAlpha" type="matrix" values="0 0 0 0 0 0 0 0 0 0 0 0 0 0 0 0 0 0 127 0" result="hardAlpha"/>
<feOffset dy="1"/>
<feColorMatrix type="matrix" values="0 0 0 0 0 0 0 0 0 0 0 0 0 0 0 0 0 0 0.3 0"/>
<feBlend mode="normal" in2="BackgroundImageFix" result="effect1_dropShadow_1668_64291"/>
<feBlend mode="normal" in="SourceGraphic" in2="effect1_dropShadow_1668_64291" result="shape"/>
</filter>
<filter id="filter10_d_1668_64291" x="261.333" y="717" width="122.667" height="47" filterUnits="userSpaceOnUse" color-interpolation-filters="sRGB">
<feFlood flood-opacity="0" result="BackgroundImageFix"/>
<feColorMatrix in="SourceAlpha" type="matrix" values="0 0 0 0 0 0 0 0 0 0 0 0 0 0 0 0 0 0 127 0" result="hardAlpha"/>
<feOffset dy="1"/>
<feColorMatrix type="matrix" values="0 0 0 0 0 0 0 0 0 0 0 0 0 0 0 0 0 0 0.3 0"/>
<feBlend mode="normal" in2="BackgroundImageFix" result="effect1_dropShadow_1668_64291"/>
<feBlend mode="normal" in="SourceGraphic" in2="effect1_dropShadow_1668_64291" result="shape"/>
</filter>
<filter id="filter11_d_1668_64291" x="133.667" y="770" width="122.667" height="47" filterUnits="userSpaceOnUse" color-interpolation-filters="sRGB">
<feFlood flood-opacity="0" result="BackgroundImageFix"/>
<feColorMatrix in="SourceAlpha" type="matrix" values="0 0 0 0 0 0 0 0 0 0 0 0 0 0 0 0 0 0 127 0" result="hardAlpha"/>
<feOffset dy="1"/>
<feColorMatrix type="matrix" values="0 0 0 0 0 0 0 0 0 0 0 0 0 0 0 0 0 0 0.3 0"/>
<feBlend mode="normal" in2="BackgroundImageFix" result="effect1_dropShadow_1668_64291"/>
<feBlend mode="normal" in="SourceGraphic" in2="effect1_dropShadow_1668_64291" result="shape"/>
</filter>
<linearGradient id="paint0_linear_1668_64291" x1="51.5" y1="341.364" x2="341.936" y2="414.838" gradientUnits="userSpaceOnUse">
<stop stop-color="#384CFF"/>
<stop offset="1" stop-color="#00A3FF"/>
</linearGradient>
<clipPath id="clip0_1668_64291">
<rect width="390" height="844" fill="white"/>
</clipPath>
<clipPath id="clip1_1668_64291">
<rect width="390" height="44" fill="white"/>
</clipPath>
</defs>
</svg>
