<svg width="390" height="844" viewBox="0 0 390 844" fill="none" xmlns="http://www.w3.org/2000/svg">
<rect width="390" height="844" fill="white"/>
<path d="M28.7215 56.5787C29.0928 56.2175 29.0928 55.632 28.7215 55.2709C28.3503 54.9097 27.7483 54.9097 27.3771 55.2709L21.2785 61.2032C20.9072 61.5644 20.9072 62.1499 21.2785 62.5111L27.3771 68.4434C27.7483 68.8046 28.3503 68.8046 28.7215 68.4434C29.0928 68.0823 29.0928 67.4967 28.7215 67.1356L23.2952 61.8571L28.7215 56.5787Z" fill="black"/>
<path d="M55.3154 67H59.1641C61.2627 67 62.5068 65.9678 62.5068 64.2383V64.2246C62.5068 62.9258 61.6523 62.0029 60.3057 61.832V61.7227C61.2559 61.5518 62.0078 60.6221 62.0078 59.6035V59.5898C62.0078 58.0859 60.9004 57.1357 59.0889 57.1357H55.3154V67ZM58.8291 58.2227C60.0527 58.2227 60.7637 58.8037 60.7637 59.8018V59.8154C60.7637 60.8545 60.0049 61.3877 58.5146 61.3877H56.5459V58.2227H58.8291ZM58.8633 62.4473C60.4355 62.4473 61.2422 63.0283 61.2422 64.1631V64.1768C61.2422 65.3115 60.4629 65.9131 58.9795 65.9131H56.5459V62.4473H58.8633ZM64.4951 58.209C64.9463 58.209 65.3154 57.8398 65.3154 57.3887C65.3154 56.9375 64.9463 56.5684 64.4951 56.5684C64.0439 56.5684 63.6748 56.9375 63.6748 57.3887C63.6748 57.8398 64.0439 58.209 64.4951 58.209ZM63.8936 67H65.083V59.6309H63.8936V67ZM66.8252 67H68.0146V62.4336C68.0146 61.3535 68.8213 60.6357 69.9561 60.6357C70.2158 60.6357 70.4414 60.6631 70.6875 60.7041V59.5488C70.5713 59.5283 70.3184 59.501 70.0928 59.501C69.0947 59.501 68.4043 59.9521 68.124 60.7246H68.0146V59.6309H66.8252V67ZM74.6855 67.0547C74.918 67.0547 75.1436 67.0273 75.376 66.9863V65.9746C75.1572 65.9951 75.041 66.002 74.8291 66.002C74.0635 66.002 73.7627 65.6533 73.7627 64.7852V60.6152H75.376V59.6309H73.7627V57.7236H72.5322V59.6309H71.3701V60.6152H72.5322V65.0859C72.5322 66.4941 73.168 67.0547 74.6855 67.0547ZM76.7217 67H77.9111V62.6387C77.9111 61.3467 78.6562 60.5537 79.832 60.5537C81.0078 60.5537 81.5547 61.1895 81.5547 62.5156V67H82.7441V62.2285C82.7441 60.4785 81.8213 59.501 80.167 59.501C79.0801 59.501 78.3896 59.959 78.0205 60.7383H77.9111V56.7051H76.7217V67ZM87.1182 67.1299C88.1436 67.1299 88.9639 66.6445 89.415 65.8242H89.5244V67H90.7139V56.7051H89.5244V60.793H89.415C89.0117 60.0068 88.1299 59.501 87.1182 59.501C85.2451 59.501 84.0283 60.998 84.0283 63.3086V63.3223C84.0283 65.6191 85.252 67.1299 87.1182 67.1299ZM87.3916 66.0771C86.0449 66.0771 85.2451 65.0381 85.2451 63.3223V63.3086C85.2451 61.5928 86.0449 60.5537 87.3916 60.5537C88.7314 60.5537 89.5518 61.6064 89.5518 63.3086V63.3223C89.5518 65.0244 88.7314 66.0771 87.3916 66.0771ZM94.5205 67.1299C95.5117 67.1299 96.2842 66.6992 96.749 65.9131H96.8584V67H98.0479V61.9551C98.0479 60.4238 97.043 59.501 95.2451 59.501C93.6729 59.501 92.5518 60.2803 92.3604 61.4355L92.3535 61.4766H93.543L93.5498 61.4561C93.7412 60.8818 94.3223 60.5537 95.2041 60.5537C96.3047 60.5537 96.8584 61.0459 96.8584 61.9551V62.625L94.7461 62.7549C93.0303 62.8574 92.0596 63.6162 92.0596 64.9287V64.9424C92.0596 66.2822 93.1191 67.1299 94.5205 67.1299ZM93.2764 64.915V64.9014C93.2764 64.1699 93.7686 63.7734 94.8896 63.7051L96.8584 63.582V64.252C96.8584 65.3047 95.9766 66.0977 94.7666 66.0977C93.9121 66.0977 93.2764 65.6602 93.2764 64.915ZM100.077 69.584C101.383 69.584 101.991 69.1055 102.6 67.4512L105.478 59.6309H104.227L102.21 65.6943H102.101L100.077 59.6309H98.8057L101.533 67.0068L101.396 67.4443C101.13 68.292 100.72 68.5996 100.043 68.5996C99.8789 68.5996 99.6943 68.5928 99.5508 68.5654V69.543C99.7148 69.5703 99.9199 69.584 100.077 69.584Z" fill="black"/>
<line y1="81.5" x2="390" y2="81.5" stroke="#AAAAAA"/>
<g filter="url(#filter0_d_1668_64336)">
<rect x="45" y="568" width="300" height="40" rx="15" fill="url(#paint0_linear_1668_64336)"/>
</g>
<path d="M180.82 593H182.878V586.54H182.919L187.39 593H189.181V583.136H187.123V589.548H187.082L182.625 583.136H180.82V593ZM193.993 593.15C196.085 593.15 197.097 591.913 197.322 590.833L197.343 590.758H195.511L195.497 590.799C195.354 591.209 194.854 591.66 194.034 591.66C193.016 591.66 192.38 590.977 192.359 589.808H197.404V589.192C197.404 586.978 196.058 585.521 193.911 585.521C191.765 585.521 190.391 587.012 190.391 589.343V589.35C190.391 591.694 191.751 593.15 193.993 593.15ZM193.945 587.012C194.772 587.012 195.367 587.538 195.49 588.55H192.38C192.51 587.559 193.125 587.012 193.945 587.012ZM197.828 593H199.927L201.301 590.457H201.342L202.736 593H204.903L202.634 589.295L204.924 585.672H202.75L201.451 588.146H201.41L200.091 585.672H197.842L200.125 589.35L197.828 593ZM208.636 593.15C209.053 593.15 209.374 593.109 209.6 593.075V591.612C209.477 591.626 209.347 591.646 209.169 591.646C208.567 591.646 208.26 591.414 208.26 590.73V587.176H209.6V585.672H208.26V583.881H206.243V585.672H205.225V587.176H206.243V590.949C206.243 592.521 207.009 593.15 208.636 593.15Z" fill="white"/>
<path d="M120.22 344H121.949V334.136H120.206L117.629 335.947V337.567L120.179 335.817H120.22V344ZM127.896 333.965C125.771 333.965 124.205 335.394 124.205 337.383V337.396C124.205 339.249 125.545 340.616 127.445 340.616C128.778 340.616 129.763 339.933 130.152 339.03H130.193C130.193 339.14 130.187 339.242 130.18 339.345C130.111 341.211 129.448 342.729 127.862 342.729C126.98 342.729 126.379 342.291 126.112 341.614L126.092 341.553H124.342L124.355 341.628C124.663 343.118 126.03 344.171 127.855 344.171C130.371 344.171 131.882 342.223 131.882 338.962V338.948C131.882 335.489 130.07 333.965 127.896 333.965ZM127.896 339.256C126.775 339.256 125.941 338.456 125.941 337.335V337.321C125.941 336.255 126.823 335.407 127.917 335.407C129.024 335.407 129.886 336.262 129.886 337.355V337.362C129.886 338.463 129.024 339.256 127.896 339.256Z" fill="black"/>
<path d="M182.868 344H184.625V337.062H184.659L189.479 344H191.051V334.136H189.301V341.047H189.26L184.454 334.136H182.868V344ZM195.829 344.144C197.955 344.144 199.336 342.729 199.336 340.377V340.363C199.336 338.025 197.935 336.604 195.822 336.604C193.717 336.604 192.322 338.039 192.322 340.363V340.377C192.322 342.722 193.696 344.144 195.829 344.144ZM195.836 342.77C194.749 342.77 194.059 341.901 194.059 340.377V340.363C194.059 338.859 194.763 337.984 195.822 337.984C196.902 337.984 197.6 338.853 197.6 340.363V340.377C197.6 341.895 196.909 342.77 195.836 342.77ZM202.125 344H203.998L206.548 336.754H204.771L203.096 342.421H203.055L201.373 336.754H199.562L202.125 344Z" fill="black"/>
<path d="M251.22 344H252.949V334.136H251.206L248.629 335.947V337.567L251.179 335.817H251.22V344ZM258.896 333.965C256.771 333.965 255.205 335.394 255.205 337.383V337.396C255.205 339.249 256.545 340.616 258.445 340.616C259.778 340.616 260.763 339.933 261.152 339.03H261.193C261.193 339.14 261.187 339.242 261.18 339.345C261.111 341.211 260.448 342.729 258.862 342.729C257.98 342.729 257.379 342.291 257.112 341.614L257.092 341.553H255.342L255.355 341.628C255.663 343.118 257.03 344.171 258.855 344.171C261.371 344.171 262.882 342.223 262.882 338.962V338.948C262.882 335.489 261.07 333.965 258.896 333.965ZM258.896 339.256C257.775 339.256 256.941 338.456 256.941 337.335V337.321C256.941 336.255 257.823 335.407 258.917 335.407C260.024 335.407 260.886 336.262 260.886 337.355V337.362C260.886 338.463 260.024 339.256 258.896 339.256ZM267.852 333.965C265.726 333.965 264.16 335.394 264.16 337.383V337.396C264.16 339.249 265.5 340.616 267.4 340.616C268.733 340.616 269.718 339.933 270.107 339.03H270.148C270.148 339.14 270.142 339.242 270.135 339.345C270.066 341.211 269.403 342.729 267.817 342.729C266.936 342.729 266.334 342.291 266.067 341.614L266.047 341.553H264.297L264.311 341.628C264.618 343.118 265.985 344.171 267.811 344.171C270.326 344.171 271.837 342.223 271.837 338.962V338.948C271.837 335.489 270.025 333.965 267.852 333.965ZM267.852 339.256C266.73 339.256 265.896 338.456 265.896 337.335V337.321C265.896 336.255 266.778 335.407 267.872 335.407C268.979 335.407 269.841 336.262 269.841 337.355V337.362C269.841 338.463 268.979 339.256 267.852 339.256ZM276.984 344.171C279.11 344.171 280.669 342.742 280.669 340.753V340.739C280.669 338.887 279.336 337.52 277.436 337.52C276.096 337.52 275.111 338.203 274.722 339.105H274.688C274.688 338.996 274.688 338.894 274.694 338.791C274.763 336.925 275.426 335.407 277.012 335.407C277.894 335.407 278.502 335.845 278.762 336.521L278.789 336.583H280.539L280.525 336.508C280.211 335.018 278.851 333.965 277.025 333.965C274.51 333.965 272.999 335.913 272.999 339.174V339.188C272.999 342.646 274.804 344.171 276.984 344.171ZM274.988 340.78V340.773C274.988 339.673 275.85 338.88 276.978 338.88C278.105 338.88 278.933 339.68 278.933 340.801V340.814C278.933 341.881 278.058 342.729 276.957 342.729C275.856 342.729 274.988 341.874 274.988 340.78Z" fill="black"/>
<path d="M117.8 391H124.308V389.906H119.488V389.879L121.833 387.473C123.645 385.62 124.144 384.807 124.144 383.727V383.713C124.144 382.168 122.838 380.972 121.054 380.972C119.215 380.972 117.738 382.236 117.738 383.945V383.986H118.928V383.952C118.928 382.893 119.844 382.045 121.074 382.045C122.147 382.045 122.906 382.77 122.913 383.774V383.788C122.913 384.608 122.605 385.142 121.272 386.529L117.8 390.152V391ZM129.168 391.164C131.438 391.164 132.798 389.202 132.798 386.071V386.058C132.798 382.927 131.438 380.972 129.168 380.972C126.898 380.972 125.552 382.927 125.552 386.058V386.071C125.552 389.202 126.898 391.164 129.168 391.164ZM129.168 390.091C127.664 390.091 126.789 388.546 126.789 386.071V386.058C126.789 383.583 127.664 382.052 129.168 382.052C130.672 382.052 131.561 383.583 131.561 386.058V386.071C131.561 388.546 130.672 390.091 129.168 390.091Z" fill="url(#paint1_linear_1668_64336)"/>
<path d="M182.957 391H186.272C189.205 391 190.928 389.175 190.928 386.064V386.051C190.928 382.954 189.191 381.136 186.272 381.136H182.957V391ZM184.188 389.893V382.243H186.19C188.426 382.243 189.67 383.604 189.67 386.064V386.078C189.67 388.525 188.426 389.893 186.19 389.893H184.188ZM195.2 391.137C196.752 391.137 197.914 390.207 198.146 389.031L198.16 388.963H196.991L196.971 389.024C196.766 389.633 196.13 390.084 195.228 390.084C193.963 390.084 193.156 389.229 193.129 387.767H198.249V387.329C198.249 385.196 197.066 383.754 195.125 383.754C193.184 383.754 191.926 385.265 191.926 387.466V387.473C191.926 389.708 193.156 391.137 195.2 391.137ZM195.118 384.807C196.157 384.807 196.923 385.456 197.039 386.837H193.149C193.279 385.511 194.086 384.807 195.118 384.807ZM202.398 391.137C204.005 391.137 205.174 390.091 205.365 388.737L205.372 388.689H204.203L204.189 388.744C203.991 389.537 203.369 390.084 202.398 390.084C201.168 390.084 200.32 389.106 200.32 387.452V387.445C200.32 385.832 201.147 384.807 202.385 384.807C203.431 384.807 204.005 385.436 204.183 386.146L204.196 386.201H205.358L205.352 386.146C205.201 384.93 204.155 383.754 202.385 383.754C200.409 383.754 199.104 385.189 199.104 387.432V387.438C199.104 389.701 200.382 391.137 202.398 391.137Z" fill="url(#paint2_linear_1668_64336)"/>
<path d="M251.315 391H252.505V381.136H251.302L248.677 383.022V384.26L251.288 382.441H251.315V391ZM258.479 380.972C256.463 380.972 254.986 382.38 254.986 384.321V384.335C254.986 386.208 256.381 387.596 258.261 387.596C259.601 387.596 260.612 386.885 261.009 386.01H261.036C261.036 386.085 261.036 386.153 261.029 386.222C260.975 388.293 260.25 390.077 258.411 390.077C257.399 390.077 256.695 389.571 256.401 388.758L256.374 388.683H255.123L255.144 388.771C255.472 390.207 256.723 391.164 258.397 391.164C260.811 391.164 262.226 389.223 262.226 385.9V385.887C262.226 382.229 260.298 380.972 258.479 380.972ZM258.473 386.516C257.174 386.516 256.237 385.593 256.237 384.308V384.294C256.237 383.05 257.235 382.065 258.493 382.065C259.758 382.065 260.742 383.07 260.742 384.335V384.342C260.742 385.6 259.765 386.516 258.473 386.516ZM267.12 380.972C265.104 380.972 263.627 382.38 263.627 384.321V384.335C263.627 386.208 265.021 387.596 266.901 387.596C268.241 387.596 269.253 386.885 269.649 386.01H269.677C269.677 386.085 269.677 386.153 269.67 386.222C269.615 388.293 268.891 390.077 267.052 390.077C266.04 390.077 265.336 389.571 265.042 388.758L265.015 388.683H263.764L263.784 388.771C264.112 390.207 265.363 391.164 267.038 391.164C269.451 391.164 270.866 389.223 270.866 385.9V385.887C270.866 382.229 268.938 380.972 267.12 380.972ZM267.113 386.516C265.814 386.516 264.878 385.593 264.878 384.308V384.294C264.878 383.05 265.876 382.065 267.134 382.065C268.398 382.065 269.383 383.07 269.383 384.335V384.342C269.383 385.6 268.405 386.516 267.113 386.516ZM272.582 391H273.874L278.263 382.277V381.136H271.734V382.229H277.046V382.257L272.582 391Z" fill="url(#paint3_linear_1668_64336)"/>
<path d="M120.315 297H121.505V287.136H120.302L117.677 289.022V290.26L120.288 288.441H120.315V297ZM127.404 297.164C129.496 297.164 130.986 295.988 130.986 294.334V294.32C130.986 293.104 130.132 292.092 128.867 291.798V291.771C129.947 291.436 130.631 290.615 130.631 289.576V289.562C130.631 288.072 129.271 286.972 127.404 286.972C125.538 286.972 124.178 288.072 124.178 289.562V289.576C124.178 290.615 124.861 291.436 125.941 291.771V291.798C124.677 292.092 123.822 293.104 123.822 294.32V294.334C123.822 295.988 125.312 297.164 127.404 297.164ZM127.404 291.312C126.215 291.312 125.401 290.636 125.401 289.679V289.665C125.401 288.708 126.215 288.031 127.404 288.031C128.594 288.031 129.407 288.708 129.407 289.665V289.679C129.407 290.636 128.594 291.312 127.404 291.312ZM127.404 296.091C126.044 296.091 125.073 295.325 125.073 294.259V294.245C125.073 293.165 126.037 292.393 127.404 292.393C128.771 292.393 129.735 293.165 129.735 294.245V294.259C129.735 295.325 128.765 296.091 127.404 296.091Z" fill="url(#paint4_linear_1668_64336)"/>
<path d="M187.127 297.164C189.923 297.164 191.666 295.202 191.666 292.071V292.058C191.666 288.934 189.916 286.972 187.127 286.972C184.331 286.972 182.574 288.934 182.574 292.058V292.071C182.574 295.202 184.324 297.164 187.127 297.164ZM187.127 296.029C185.104 296.029 183.832 294.498 183.832 292.071V292.058C183.832 289.631 185.11 288.106 187.127 288.106C189.137 288.106 190.408 289.638 190.408 292.058V292.071C190.408 294.478 189.157 296.029 187.127 296.029ZM195.959 297.137C197.565 297.137 198.734 296.091 198.926 294.737L198.933 294.689H197.764L197.75 294.744C197.552 295.537 196.93 296.084 195.959 296.084C194.729 296.084 193.881 295.106 193.881 293.452V293.445C193.881 291.832 194.708 290.807 195.945 290.807C196.991 290.807 197.565 291.436 197.743 292.146L197.757 292.201H198.919L198.912 292.146C198.762 290.93 197.716 289.754 195.945 289.754C193.97 289.754 192.664 291.189 192.664 293.432V293.438C192.664 295.701 193.942 297.137 195.959 297.137ZM202.337 297.137C202.569 297.137 202.822 297.109 202.973 297.089V296.125C202.87 296.132 202.733 296.152 202.59 296.152C201.954 296.152 201.619 295.94 201.619 295.182V290.875H202.973V289.891H201.619V287.97H200.389V289.891H199.35V290.875H200.389V295.188C200.389 296.549 201.031 297.137 202.337 297.137Z" fill="url(#paint5_linear_1668_64336)"/>
<path d="M251.315 297H252.505V287.136H251.302L248.677 289.022V290.26L251.288 288.441H251.315V297ZM258.479 286.972C256.463 286.972 254.986 288.38 254.986 290.321V290.335C254.986 292.208 256.381 293.596 258.261 293.596C259.601 293.596 260.612 292.885 261.009 292.01H261.036C261.036 292.085 261.036 292.153 261.029 292.222C260.975 294.293 260.25 296.077 258.411 296.077C257.399 296.077 256.695 295.571 256.401 294.758L256.374 294.683H255.123L255.144 294.771C255.472 296.207 256.723 297.164 258.397 297.164C260.811 297.164 262.226 295.223 262.226 291.9V291.887C262.226 288.229 260.298 286.972 258.479 286.972ZM258.473 292.516C257.174 292.516 256.237 291.593 256.237 290.308V290.294C256.237 289.05 257.235 288.065 258.493 288.065C259.758 288.065 260.742 289.07 260.742 290.335V290.342C260.742 291.6 259.765 292.516 258.473 292.516ZM267.12 286.972C265.104 286.972 263.627 288.38 263.627 290.321V290.335C263.627 292.208 265.021 293.596 266.901 293.596C268.241 293.596 269.253 292.885 269.649 292.01H269.677C269.677 292.085 269.677 292.153 269.67 292.222C269.615 294.293 268.891 296.077 267.052 296.077C266.04 296.077 265.336 295.571 265.042 294.758L265.015 294.683H263.764L263.784 294.771C264.112 296.207 265.363 297.164 267.038 297.164C269.451 297.164 270.866 295.223 270.866 291.9V291.887C270.866 288.229 268.938 286.972 267.12 286.972ZM267.113 292.516C265.814 292.516 264.878 291.593 264.878 290.308V290.294C264.878 289.05 265.876 288.065 267.134 288.065C268.398 288.065 269.383 289.07 269.383 290.335V290.342C269.383 291.6 268.405 292.516 267.113 292.516ZM275.679 297.164C277.729 297.164 279.186 295.783 279.192 293.808V293.794C279.192 291.9 277.825 290.526 275.932 290.526C274.975 290.526 274.154 290.882 273.689 291.545H273.662L273.997 288.229H278.632V287.136H272.985L272.479 292.762H273.566C273.696 292.536 273.854 292.345 274.031 292.181C274.469 291.784 275.043 291.586 275.713 291.586C277.019 291.586 277.955 292.516 277.962 293.814V293.828C277.962 295.154 277.032 296.084 275.692 296.084C274.51 296.084 273.635 295.339 273.512 294.361L273.505 294.307H272.295L272.302 294.382C272.445 295.988 273.792 297.164 275.679 297.164Z" fill="url(#paint6_linear_1668_64336)"/>
<line x1="235" y1="357.5" x2="295" y2="357.5" stroke="black"/>
<line x1="235" y1="320.5" x2="295" y2="320.5" stroke="black"/>
<line x1="165" y1="357.5" x2="225" y2="357.5" stroke="black"/>
<line x1="165" y1="320.5" x2="225" y2="320.5" stroke="black"/>
<line x1="95" y1="357.5" x2="155" y2="357.5" stroke="black"/>
<line x1="95" y1="320.5" x2="155" y2="320.5" stroke="black"/>
<path d="M154.032 474H160.882V472.537H156.418V472.394L158.394 470.479C160.191 468.75 160.731 467.861 160.731 466.74V466.72C160.731 465.059 159.351 463.89 157.43 463.89C155.372 463.89 153.937 465.175 153.937 467.014L153.943 467.034L155.584 467.041L155.591 467.014C155.591 465.995 156.295 465.305 157.341 465.305C158.366 465.305 158.988 465.961 158.988 466.87V466.891C158.988 467.649 158.612 468.148 157.272 469.502L154.032 472.811V474ZM166.398 474.246C168.531 474.246 170.028 472.845 170.028 470.794V470.78C170.028 468.894 168.695 467.526 166.856 467.526C165.927 467.526 165.161 467.923 164.751 468.586H164.635L164.908 465.585H169.454V464.136H163.534L163.056 469.912H164.566C164.683 469.693 164.847 469.502 165.024 469.352C165.387 469.023 165.865 468.859 166.419 468.859C167.547 468.859 168.354 469.666 168.354 470.814V470.828C168.354 471.99 167.561 472.804 166.405 472.804C165.394 472.804 164.648 472.161 164.519 471.354L164.512 471.307H162.885L162.892 471.396C163.021 473.016 164.382 474.246 166.398 474.246ZM178.546 474H180.303V470.11L183.762 464.136H181.834L179.482 468.367H179.366L177.015 464.136H175.087L178.546 470.11V474ZM187.221 474.15C189.251 474.15 190.249 472.981 190.488 472.018L190.509 471.956H188.889L188.868 472.004C188.704 472.346 188.178 472.811 187.255 472.811C186.1 472.811 185.375 472.031 185.354 470.691H190.577V470.131C190.577 467.875 189.265 466.385 187.139 466.385C185.013 466.385 183.652 467.923 183.652 470.274V470.281C183.652 472.66 184.999 474.15 187.221 474.15ZM187.159 467.718C188.109 467.718 188.8 468.326 188.916 469.55H185.368C185.498 468.36 186.209 467.718 187.159 467.718ZM194.316 474.123C195.301 474.123 196.094 473.699 196.504 472.975H196.62V474H198.302V468.894C198.302 467.314 197.222 466.385 195.301 466.385C193.523 466.385 192.32 467.219 192.156 468.477L192.149 468.538H193.756L193.763 468.511C193.934 468.019 194.439 467.738 195.219 467.738C196.135 467.738 196.62 468.148 196.62 468.894V469.536L194.699 469.652C192.881 469.762 191.862 470.541 191.862 471.874V471.888C191.862 473.248 192.895 474.123 194.316 474.123ZM193.544 471.806V471.792C193.544 471.177 193.988 470.828 194.938 470.767L196.62 470.657V471.259C196.62 472.147 195.861 472.817 194.836 472.817C194.084 472.817 193.544 472.441 193.544 471.806ZM200.346 474H202.048V469.659C202.048 468.593 202.793 467.916 203.928 467.916C204.222 467.916 204.502 467.957 204.775 468.012V466.487C204.611 466.439 204.345 466.405 204.085 466.405C203.101 466.405 202.417 466.877 202.164 467.677H202.048V466.528H200.346V474ZM208.829 474.15C210.668 474.15 212.001 473.2 212.001 471.778V471.765C212.001 470.678 211.311 470.056 209.848 469.728L208.638 469.461C207.831 469.276 207.517 469.01 207.517 468.572V468.565C207.517 468.005 208.063 467.636 208.822 467.636C209.622 467.636 210.114 468.019 210.237 468.49L210.244 468.511H211.844V468.497C211.734 467.287 210.647 466.385 208.829 466.385C207.065 466.385 205.835 467.314 205.835 468.661V468.668C205.835 469.769 206.512 470.438 207.934 470.753L209.144 471.026C209.964 471.211 210.292 471.498 210.292 471.936V471.949C210.292 472.51 209.704 472.893 208.856 472.893C208.009 472.893 207.51 472.53 207.332 472.011L207.325 471.997H205.637V472.011C205.78 473.275 206.929 474.15 208.829 474.15ZM220.676 474.15C222.911 474.15 224.271 472.688 224.271 470.268V470.254C224.271 467.848 222.904 466.385 220.676 466.385C218.454 466.385 217.08 467.854 217.08 470.254V470.268C217.08 472.688 218.434 474.15 220.676 474.15ZM220.676 472.77C219.493 472.77 218.816 471.847 218.816 470.274V470.261C218.816 468.688 219.493 467.759 220.676 467.759C221.852 467.759 222.528 468.688 222.528 470.261V470.274C222.528 471.847 221.858 472.77 220.676 472.77ZM226.049 474H227.751V463.637H226.049V474ZM232.598 474.123C233.65 474.123 234.457 473.645 234.867 472.831H234.983V474H236.692V463.637H234.983V467.718H234.867C234.478 466.911 233.623 466.405 232.598 466.405C230.704 466.405 229.535 467.882 229.535 470.261V470.274C229.535 472.64 230.725 474.123 232.598 474.123ZM233.131 472.688C231.969 472.688 231.265 471.778 231.265 470.274V470.261C231.265 468.757 231.976 467.841 233.131 467.841C234.286 467.841 235.011 468.764 235.011 470.261V470.274C235.011 471.771 234.293 472.688 233.131 472.688Z" fill="black"/>
<path d="M107.266 138H109.401L111.968 128.921H112.1L114.684 138H116.811L120.212 125.317H117.865L115.694 134.836H115.571L113.04 125.317H111.027L108.531 134.836H108.399L106.229 125.317H103.864L107.266 138ZM121.909 138H124.098V132.401C124.098 130.96 124.906 130.046 126.207 130.046C127.534 130.046 128.141 130.802 128.141 132.296V138H130.329V131.786C130.329 129.501 129.16 128.209 127.016 128.209C125.627 128.209 124.704 128.833 124.247 129.861H124.098V124.676H121.909V138ZM135.032 138.158C136.298 138.158 137.317 137.613 137.845 136.682H137.994V138H140.156V131.435C140.156 129.404 138.768 128.209 136.298 128.209C134.013 128.209 132.466 129.281 132.255 130.898L132.246 130.978H134.312L134.32 130.942C134.54 130.31 135.19 129.949 136.192 129.949C137.37 129.949 137.994 130.477 137.994 131.435V132.261L135.524 132.41C133.187 132.551 131.877 133.553 131.877 135.267V135.284C131.877 137.033 133.204 138.158 135.032 138.158ZM134.039 135.179V135.161C134.039 134.37 134.61 133.922 135.832 133.843L137.994 133.702V134.476C137.994 135.618 137.019 136.479 135.7 136.479C134.733 136.479 134.039 135.996 134.039 135.179ZM146.063 138.044C146.485 138.044 146.89 138.009 147.206 137.947V136.26C146.942 136.286 146.775 136.295 146.468 136.295C145.554 136.295 145.176 135.891 145.176 134.933V130.09H147.206V128.394H145.176V126.038H142.952V128.394H141.458V130.09H142.952V135.451C142.952 137.306 143.857 138.044 146.063 138.044ZM149.246 130.6H150.749L152.27 125.317H150.011L149.246 130.6ZM157.184 138.193C159.548 138.193 161.262 136.972 161.262 135.144V135.126C161.262 133.729 160.374 132.929 158.493 132.507L156.938 132.164C155.9 131.927 155.496 131.584 155.496 131.021V131.013C155.496 130.292 156.199 129.817 157.175 129.817C158.203 129.817 158.836 130.31 158.994 130.916L159.003 130.942H161.06V130.925C160.919 129.369 159.521 128.209 157.184 128.209C154.916 128.209 153.334 129.404 153.334 131.136V131.145C153.334 132.56 154.204 133.421 156.032 133.825L157.588 134.177C158.643 134.414 159.064 134.783 159.064 135.346V135.363C159.064 136.084 158.309 136.576 157.219 136.576C156.129 136.576 155.487 136.11 155.259 135.442L155.25 135.425H153.079V135.442C153.264 137.068 154.74 138.193 157.184 138.193ZM168.295 141.375C170.422 141.375 171.521 140.61 172.347 138.202L175.792 128.394H173.489L171.257 135.899H171.09L168.849 128.394H166.458L169.895 138.009L169.78 138.448C169.543 139.318 169.007 139.688 168.11 139.688C167.882 139.688 167.636 139.679 167.46 139.661V141.34C167.724 141.366 168.031 141.375 168.295 141.375ZM180.935 138.193C183.809 138.193 185.558 136.312 185.558 133.201V133.184C185.558 130.09 183.8 128.209 180.935 128.209C178.078 128.209 176.312 130.099 176.312 133.184V133.201C176.312 136.312 178.052 138.193 180.935 138.193ZM180.935 136.418C179.414 136.418 178.544 135.231 178.544 133.21V133.192C178.544 131.171 179.414 129.976 180.935 129.976C182.446 129.976 183.316 131.171 183.316 133.192V133.21C183.316 135.231 182.455 136.418 180.935 136.418ZM190.437 138.193C191.825 138.193 192.801 137.569 193.249 136.541H193.398V138H195.587V128.394H193.398V133.992C193.398 135.434 192.643 136.348 191.228 136.348C189.909 136.348 189.355 135.592 189.355 134.106V128.394H187.167V134.607C187.167 136.893 188.274 138.193 190.437 138.193ZM197.759 138H199.947V132.419C199.947 131.048 200.905 130.178 202.364 130.178C202.742 130.178 203.103 130.23 203.454 130.301V128.341C203.243 128.279 202.9 128.235 202.566 128.235C201.301 128.235 200.422 128.842 200.097 129.87H199.947V128.394H197.759V138ZM214.39 138.158C216.798 138.158 218.336 136.251 218.336 133.21V133.192C218.336 130.134 216.824 128.235 214.39 128.235C213.071 128.235 211.973 128.886 211.472 129.923H211.322V124.676H209.134V138H211.322V136.497H211.472C211.999 137.543 213.045 138.158 214.39 138.158ZM213.704 136.312C212.219 136.312 211.296 135.135 211.296 133.21V133.192C211.296 131.268 212.219 130.081 213.704 130.081C215.198 130.081 216.104 131.259 216.104 133.192V133.21C216.104 135.144 215.198 136.312 213.704 136.312ZM221.149 126.785C221.861 126.785 222.45 126.214 222.45 125.493C222.45 124.781 221.861 124.201 221.149 124.201C220.429 124.201 219.84 124.781 219.84 125.493C219.84 126.214 220.429 126.785 221.149 126.785ZM220.051 138H222.239V128.394H220.051V138ZM224.429 138H226.617V132.419C226.617 131.048 227.575 130.178 229.034 130.178C229.412 130.178 229.772 130.23 230.124 130.301V128.341C229.913 128.279 229.57 128.235 229.236 128.235C227.971 128.235 227.092 128.842 226.767 129.87H226.617V128.394H224.429V138ZM235.636 138.044C236.058 138.044 236.462 138.009 236.778 137.947V136.26C236.515 136.286 236.348 136.295 236.04 136.295C235.126 136.295 234.748 135.891 234.748 134.933V130.09H236.778V128.394H234.748V126.038H232.524V128.394H231.03V130.09H232.524V135.451C232.524 137.306 233.43 138.044 235.636 138.044ZM238.546 138H240.734V132.401C240.734 130.96 241.543 130.046 242.844 130.046C244.171 130.046 244.777 130.802 244.777 132.296V138H246.966V131.786C246.966 129.501 245.797 128.209 243.652 128.209C242.264 128.209 241.341 128.833 240.884 129.861H240.734V124.676H238.546V138ZM252.513 138.158C253.866 138.158 254.903 137.543 255.431 136.497H255.58V138H257.777V124.676H255.58V129.923H255.431C254.93 128.886 253.831 128.235 252.513 128.235C250.078 128.235 248.575 130.134 248.575 133.192V133.21C248.575 136.251 250.104 138.158 252.513 138.158ZM253.198 136.312C251.704 136.312 250.799 135.144 250.799 133.21V133.192C250.799 131.259 251.713 130.081 253.198 130.081C254.684 130.081 255.615 131.268 255.615 133.192V133.21C255.615 135.135 254.692 136.312 253.198 136.312ZM262.647 138.158C263.913 138.158 264.933 137.613 265.46 136.682H265.609V138H267.771V131.435C267.771 129.404 266.383 128.209 263.913 128.209C261.628 128.209 260.081 129.281 259.87 130.898L259.861 130.978H261.927L261.936 130.942C262.155 130.31 262.806 129.949 263.808 129.949C264.985 129.949 265.609 130.477 265.609 131.435V132.261L263.14 132.41C260.802 132.551 259.492 133.553 259.492 135.267V135.284C259.492 137.033 260.819 138.158 262.647 138.158ZM261.654 135.179V135.161C261.654 134.37 262.226 133.922 263.447 133.843L265.609 133.702V134.476C265.609 135.618 264.634 136.479 263.315 136.479C262.349 136.479 261.654 135.996 261.654 135.179ZM270.629 141.375C272.756 141.375 273.854 140.61 274.681 138.202L278.126 128.394H275.823L273.591 135.899H273.424L271.183 128.394H268.792L272.229 138.009L272.114 138.448C271.877 139.318 271.341 139.688 270.444 139.688C270.216 139.688 269.97 139.679 269.794 139.661V141.34C270.058 141.366 270.365 141.375 270.629 141.375ZM281.607 134.045H283.646V133.535C283.646 132.656 283.972 132.199 285.123 131.531C286.318 130.819 286.986 129.879 286.986 128.543V128.525C286.986 126.601 285.378 125.212 282.97 125.212C280.359 125.212 278.927 126.724 278.865 128.78V128.798L280.913 128.789L280.931 128.78C280.992 127.699 281.722 127.005 282.855 127.005C283.963 127.005 284.701 127.682 284.701 128.604V128.622C284.701 129.483 284.332 129.958 283.242 130.617C282.029 131.329 281.52 132.12 281.599 133.421L281.607 134.045ZM282.724 138.22C283.62 138.22 284.183 137.675 284.183 136.84C284.183 135.996 283.62 135.451 282.724 135.451C281.845 135.451 281.265 135.996 281.265 136.84C281.265 137.675 281.845 138.22 282.724 138.22Z" fill="black"/>
<path d="M130.686 166.199C132.484 166.199 133.82 165.197 134.102 163.65V163.639H133.035L133.023 163.65C132.76 164.623 131.863 165.227 130.686 165.227C129.057 165.227 128.037 163.896 128.037 161.781V161.77C128.037 159.654 129.057 158.318 130.68 158.318C131.846 158.318 132.748 159.004 133.029 160.088L133.035 160.1H134.096L134.102 160.088C133.85 158.465 132.461 157.346 130.68 157.346C128.383 157.346 126.953 159.045 126.953 161.77V161.781C126.953 164.5 128.389 166.199 130.686 166.199ZM135.301 166H136.32V162.262C136.32 161.154 136.959 160.475 137.967 160.475C138.975 160.475 139.443 161.02 139.443 162.156V166H140.463V161.91C140.463 160.41 139.672 159.572 138.254 159.572C137.322 159.572 136.73 159.965 136.414 160.633H136.32V157.176H135.301V166ZM144.404 166.111C146.203 166.111 147.316 164.869 147.316 162.848V162.836C147.316 160.809 146.203 159.572 144.404 159.572C142.605 159.572 141.492 160.809 141.492 162.836V162.848C141.492 164.869 142.605 166.111 144.404 166.111ZM144.404 165.209C143.209 165.209 142.535 164.336 142.535 162.848V162.836C142.535 161.342 143.209 160.475 144.404 160.475C145.6 160.475 146.273 161.342 146.273 162.836V162.848C146.273 164.336 145.6 165.209 144.404 165.209ZM150.994 166.111C152.793 166.111 153.906 164.869 153.906 162.848V162.836C153.906 160.809 152.793 159.572 150.994 159.572C149.195 159.572 148.082 160.809 148.082 162.836V162.848C148.082 164.869 149.195 166.111 150.994 166.111ZM150.994 165.209C149.799 165.209 149.125 164.336 149.125 162.848V162.836C149.125 161.342 149.799 160.475 150.994 160.475C152.189 160.475 152.863 161.342 152.863 162.836V162.848C152.863 164.336 152.189 165.209 150.994 165.209ZM157.156 166.111C158.592 166.111 159.688 165.332 159.688 164.207V164.195C159.688 163.293 159.113 162.777 157.924 162.49L156.951 162.256C156.207 162.074 155.891 161.805 155.891 161.377V161.365C155.891 160.809 156.441 160.422 157.191 160.422C157.953 160.422 158.445 160.768 158.58 161.266H159.582C159.441 160.234 158.521 159.572 157.197 159.572C155.855 159.572 154.848 160.363 154.848 161.412V161.418C154.848 162.326 155.381 162.842 156.564 163.123L157.543 163.357C158.322 163.545 158.645 163.844 158.645 164.271V164.283C158.645 164.857 158.041 165.262 157.191 165.262C156.383 165.262 155.879 164.916 155.709 164.389H154.666C154.783 165.432 155.75 166.111 157.156 166.111ZM163.348 166.111C164.836 166.111 165.738 165.268 165.955 164.412L165.967 164.365H164.947L164.924 164.418C164.754 164.799 164.227 165.203 163.371 165.203C162.246 165.203 161.525 164.441 161.496 163.135H166.043V162.736C166.043 160.85 165 159.572 163.283 159.572C161.566 159.572 160.453 160.908 160.453 162.859V162.865C160.453 164.846 161.543 166.111 163.348 166.111ZM163.277 160.48C164.209 160.48 164.9 161.072 165.006 162.32H161.514C161.625 161.119 162.34 160.48 163.277 160.48ZM170.539 168.215C171.658 168.215 172.18 167.805 172.701 166.387L175.168 159.684H174.096L172.367 164.881H172.273L170.539 159.684H169.449L171.787 166.006L171.67 166.381C171.441 167.107 171.09 167.371 170.51 167.371C170.369 167.371 170.211 167.365 170.088 167.342V168.18C170.229 168.203 170.404 168.215 170.539 168.215ZM178.377 166.111C180.176 166.111 181.289 164.869 181.289 162.848V162.836C181.289 160.809 180.176 159.572 178.377 159.572C176.578 159.572 175.465 160.809 175.465 162.836V162.848C175.465 164.869 176.578 166.111 178.377 166.111ZM178.377 165.209C177.182 165.209 176.508 164.336 176.508 162.848V162.836C176.508 161.342 177.182 160.475 178.377 160.475C179.572 160.475 180.246 161.342 180.246 162.836V162.848C180.246 164.336 179.572 165.209 178.377 165.209ZM184.486 166.111C185.412 166.111 186.051 165.73 186.361 165.057H186.455V166H187.475V159.684H186.455V163.422C186.455 164.529 185.863 165.209 184.75 165.209C183.742 165.209 183.332 164.664 183.332 163.527V159.684H182.312V163.773C182.312 165.268 183.051 166.111 184.486 166.111ZM188.879 166H189.898V162.086C189.898 161.16 190.59 160.545 191.562 160.545C191.785 160.545 191.979 160.568 192.189 160.604V159.613C192.09 159.596 191.873 159.572 191.68 159.572C190.824 159.572 190.232 159.959 189.992 160.621H189.898V159.684H188.879V166ZM198.156 166.111C199.035 166.111 199.738 165.695 200.125 164.992H200.219V166H201.238V157.176H200.219V160.68H200.125C199.779 160.006 199.023 159.572 198.156 159.572C196.551 159.572 195.508 160.855 195.508 162.836V162.848C195.508 164.816 196.557 166.111 198.156 166.111ZM198.391 165.209C197.236 165.209 196.551 164.318 196.551 162.848V162.836C196.551 161.365 197.236 160.475 198.391 160.475C199.539 160.475 200.242 161.377 200.242 162.836V162.848C200.242 164.307 199.539 165.209 198.391 165.209ZM204.43 166.111C205.279 166.111 205.941 165.742 206.34 165.068H206.434V166H207.453V161.676C207.453 160.363 206.592 159.572 205.051 159.572C203.703 159.572 202.742 160.24 202.578 161.23L202.572 161.266H203.592L203.598 161.248C203.762 160.756 204.26 160.475 205.016 160.475C205.959 160.475 206.434 160.896 206.434 161.676V162.25L204.623 162.361C203.152 162.449 202.32 163.1 202.32 164.225V164.236C202.32 165.385 203.229 166.111 204.43 166.111ZM203.363 164.213V164.201C203.363 163.574 203.785 163.234 204.746 163.176L206.434 163.07V163.645C206.434 164.547 205.678 165.227 204.641 165.227C203.908 165.227 203.363 164.852 203.363 164.213ZM211.061 166.047C211.26 166.047 211.453 166.023 211.652 165.988V165.121C211.465 165.139 211.365 165.145 211.184 165.145C210.527 165.145 210.27 164.846 210.27 164.102V160.527H211.652V159.684H210.27V158.049H209.215V159.684H208.219V160.527H209.215V164.359C209.215 165.566 209.76 166.047 211.061 166.047ZM215.16 166.111C216.648 166.111 217.551 165.268 217.768 164.412L217.779 164.365H216.76L216.736 164.418C216.566 164.799 216.039 165.203 215.184 165.203C214.059 165.203 213.338 164.441 213.309 163.135H217.855V162.736C217.855 160.85 216.812 159.572 215.096 159.572C213.379 159.572 212.266 160.908 212.266 162.859V162.865C212.266 164.846 213.355 166.111 215.16 166.111ZM215.09 160.48C216.021 160.48 216.713 161.072 216.818 162.32H213.326C213.438 161.119 214.152 160.48 215.09 160.48ZM224.408 166.111C226.207 166.111 227.32 164.869 227.32 162.848V162.836C227.32 160.809 226.207 159.572 224.408 159.572C222.609 159.572 221.496 160.809 221.496 162.836V162.848C221.496 164.869 222.609 166.111 224.408 166.111ZM224.408 165.209C223.213 165.209 222.539 164.336 222.539 162.848V162.836C222.539 161.342 223.213 160.475 224.408 160.475C225.604 160.475 226.277 161.342 226.277 162.836V162.848C226.277 164.336 225.604 165.209 224.408 165.209ZM228.824 166H229.844V160.527H231.279V159.684H229.844V159.01C229.844 158.318 230.137 157.961 230.863 157.961C231.045 157.961 231.215 157.967 231.338 157.99V157.176C231.127 157.135 230.904 157.117 230.658 157.117C229.457 157.117 228.824 157.721 228.824 158.98V159.684H227.775V160.527H228.824V166ZM238.266 166.111C239.865 166.111 240.914 164.816 240.914 162.848V162.836C240.914 160.855 239.871 159.572 238.266 159.572C237.398 159.572 236.643 160.006 236.297 160.68H236.203V157.176H235.184V166H236.203V164.992H236.297C236.684 165.695 237.387 166.111 238.266 166.111ZM238.031 165.209C236.883 165.209 236.18 164.307 236.18 162.848V162.836C236.18 161.377 236.883 160.475 238.031 160.475C239.186 160.475 239.871 161.365 239.871 162.836V162.848C239.871 164.318 239.186 165.209 238.031 165.209ZM242.535 158.465C242.922 158.465 243.238 158.148 243.238 157.762C243.238 157.375 242.922 157.059 242.535 157.059C242.148 157.059 241.832 157.375 241.832 157.762C241.832 158.148 242.148 158.465 242.535 158.465ZM242.02 166H243.039V159.684H242.02V166ZM244.461 166H245.48V162.086C245.48 161.16 246.172 160.545 247.145 160.545C247.367 160.545 247.561 160.568 247.771 160.604V159.613C247.672 159.596 247.455 159.572 247.262 159.572C246.406 159.572 245.814 159.959 245.574 160.621H245.48V159.684H244.461V166ZM251.127 166.047C251.326 166.047 251.52 166.023 251.719 165.988V165.121C251.531 165.139 251.432 165.145 251.25 165.145C250.594 165.145 250.336 164.846 250.336 164.102V160.527H251.719V159.684H250.336V158.049H249.281V159.684H248.285V160.527H249.281V164.359C249.281 165.566 249.826 166.047 251.127 166.047ZM252.801 166H253.82V162.262C253.82 161.154 254.459 160.475 255.467 160.475C256.475 160.475 256.943 161.02 256.943 162.156V166H257.963V161.91C257.963 160.41 257.172 159.572 255.754 159.572C254.822 159.572 254.23 159.965 253.914 160.633H253.82V157.176H252.801V166ZM260.141 166.059C260.562 166.059 260.902 165.713 260.902 165.297C260.902 164.875 260.562 164.535 260.141 164.535C259.725 164.535 259.379 164.875 259.379 165.297C259.379 165.713 259.725 166.059 260.141 166.059ZM99.8184 186H100.873V182.361L103.873 177.545H102.672L100.393 181.301H100.299L98.0195 177.545H96.8184L99.8184 182.361V186ZM106.326 186.111C108.125 186.111 109.238 184.869 109.238 182.848V182.836C109.238 180.809 108.125 179.572 106.326 179.572C104.527 179.572 103.414 180.809 103.414 182.836V182.848C103.414 184.869 104.527 186.111 106.326 186.111ZM106.326 185.209C105.131 185.209 104.457 184.336 104.457 182.848V182.836C104.457 181.342 105.131 180.475 106.326 180.475C107.521 180.475 108.195 181.342 108.195 182.836V182.848C108.195 184.336 107.521 185.209 106.326 185.209ZM112.436 186.111C113.361 186.111 114 185.73 114.311 185.057H114.404V186H115.424V179.684H114.404V183.422C114.404 184.529 113.812 185.209 112.699 185.209C111.691 185.209 111.281 184.664 111.281 183.527V179.684H110.262V183.773C110.262 185.268 111 186.111 112.436 186.111ZM122.287 186.111C123.805 186.111 124.654 185.297 124.912 184.154L124.924 184.09L123.916 184.096L123.904 184.131C123.67 184.834 123.131 185.209 122.281 185.209C121.156 185.209 120.43 184.277 120.43 182.824V182.812C120.43 181.389 121.145 180.475 122.281 180.475C123.189 180.475 123.752 180.979 123.91 181.6L123.916 181.617H124.93L124.924 181.582C124.736 180.457 123.816 179.572 122.281 179.572C120.512 179.572 119.387 180.85 119.387 182.812V182.824C119.387 184.828 120.518 186.111 122.287 186.111ZM127.652 186.111C128.502 186.111 129.164 185.742 129.562 185.068H129.656V186H130.676V181.676C130.676 180.363 129.814 179.572 128.273 179.572C126.926 179.572 125.965 180.24 125.801 181.23L125.795 181.266H126.814L126.82 181.248C126.984 180.756 127.482 180.475 128.238 180.475C129.182 180.475 129.656 180.896 129.656 181.676V182.25L127.846 182.361C126.375 182.449 125.543 183.1 125.543 184.225V184.236C125.543 185.385 126.451 186.111 127.652 186.111ZM126.586 184.213V184.201C126.586 183.574 127.008 183.234 127.969 183.176L129.656 183.07V183.645C129.656 184.547 128.9 185.227 127.863 185.227C127.131 185.227 126.586 184.852 126.586 184.213ZM132.039 186H133.059V182.262C133.059 181.154 133.697 180.475 134.705 180.475C135.713 180.475 136.182 181.02 136.182 182.156V186H137.201V181.91C137.201 180.41 136.41 179.572 134.992 179.572C134.061 179.572 133.469 179.965 133.152 180.633H133.059V179.684H132.039V186ZM143.156 186.111C144.006 186.111 144.668 185.742 145.066 185.068H145.16V186H146.18V181.676C146.18 180.363 145.318 179.572 143.777 179.572C142.43 179.572 141.469 180.24 141.305 181.23L141.299 181.266H142.318L142.324 181.248C142.488 180.756 142.986 180.475 143.742 180.475C144.686 180.475 145.16 180.896 145.16 181.676V182.25L143.35 182.361C141.879 182.449 141.047 183.1 141.047 184.225V184.236C141.047 185.385 141.955 186.111 143.156 186.111ZM142.09 184.213V184.201C142.09 183.574 142.512 183.234 143.473 183.176L145.16 183.07V183.645C145.16 184.547 144.404 185.227 143.367 185.227C142.635 185.227 142.09 184.852 142.09 184.213ZM147.602 186H148.621V177.176H147.602V186ZM151.297 186H152.316L153.723 181.113H153.816L155.229 186H156.254L158.023 179.684H157.01L155.768 184.734H155.674L154.262 179.684H153.295L151.883 184.734H151.789L150.547 179.684H149.527L151.297 186ZM160.43 186.111C161.279 186.111 161.941 185.742 162.34 185.068H162.434V186H163.453V181.676C163.453 180.363 162.592 179.572 161.051 179.572C159.703 179.572 158.742 180.24 158.578 181.23L158.572 181.266H159.592L159.598 181.248C159.762 180.756 160.26 180.475 161.016 180.475C161.959 180.475 162.434 180.896 162.434 181.676V182.25L160.623 182.361C159.152 182.449 158.32 183.1 158.32 184.225V184.236C158.32 185.385 159.229 186.111 160.43 186.111ZM159.363 184.213V184.201C159.363 183.574 159.785 183.234 160.746 183.176L162.434 183.07V183.645C162.434 184.547 161.678 185.227 160.641 185.227C159.908 185.227 159.363 184.852 159.363 184.213ZM165.121 188.215C166.24 188.215 166.762 187.805 167.283 186.387L169.75 179.684H168.678L166.949 184.881H166.855L165.121 179.684H164.031L166.369 186.006L166.252 186.381C166.023 187.107 165.672 187.371 165.092 187.371C164.951 187.371 164.793 187.365 164.67 187.342V188.18C164.811 188.203 164.986 188.215 165.121 188.215ZM172.59 186.111C174.025 186.111 175.121 185.332 175.121 184.207V184.195C175.121 183.293 174.547 182.777 173.357 182.49L172.385 182.256C171.641 182.074 171.324 181.805 171.324 181.377V181.365C171.324 180.809 171.875 180.422 172.625 180.422C173.387 180.422 173.879 180.768 174.014 181.266H175.016C174.875 180.234 173.955 179.572 172.631 179.572C171.289 179.572 170.281 180.363 170.281 181.412V181.418C170.281 182.326 170.814 182.842 171.998 183.123L172.977 183.357C173.756 183.545 174.078 183.844 174.078 184.271V184.283C174.078 184.857 173.475 185.262 172.625 185.262C171.816 185.262 171.312 184.916 171.143 184.389H170.1C170.217 185.432 171.184 186.111 172.59 186.111ZM179.078 186H180.098V182.086C180.098 181.195 180.725 180.475 181.551 180.475C182.348 180.475 182.863 180.961 182.863 181.711V186H183.883V181.939C183.883 181.137 184.463 180.475 185.342 180.475C186.232 180.475 186.66 180.938 186.66 181.869V186H187.68V181.635C187.68 180.311 186.959 179.572 185.67 179.572C184.797 179.572 184.076 180.012 183.736 180.68H183.643C183.35 180.023 182.752 179.572 181.896 179.572C181.07 179.572 180.473 179.965 180.191 180.645H180.098V179.684H179.078V186ZM190.754 186.111C191.604 186.111 192.266 185.742 192.664 185.068H192.758V186H193.777V181.676C193.777 180.363 192.916 179.572 191.375 179.572C190.027 179.572 189.066 180.24 188.902 181.23L188.896 181.266H189.916L189.922 181.248C190.086 180.756 190.584 180.475 191.34 180.475C192.283 180.475 192.758 180.896 192.758 181.676V182.25L190.947 182.361C189.477 182.449 188.645 183.1 188.645 184.225V184.236C188.645 185.385 189.553 186.111 190.754 186.111ZM189.688 184.213V184.201C189.688 183.574 190.109 183.234 191.07 183.176L192.758 183.07V183.645C192.758 184.547 192.002 185.227 190.965 185.227C190.232 185.227 189.688 184.852 189.688 184.213ZM195.199 186H196.219V183.604L196.811 183.029L199.178 186H200.461L197.525 182.338L200.279 179.684H199.043L196.312 182.443H196.219V177.176H195.199V186ZM203.441 186.111C204.93 186.111 205.832 185.268 206.049 184.412L206.061 184.365H205.041L205.018 184.418C204.848 184.799 204.32 185.203 203.465 185.203C202.34 185.203 201.619 184.441 201.59 183.135H206.137V182.736C206.137 180.85 205.094 179.572 203.377 179.572C201.66 179.572 200.547 180.908 200.547 182.859V182.865C200.547 184.846 201.637 186.111 203.441 186.111ZM203.371 180.48C204.303 180.48 204.994 181.072 205.1 182.32H201.607C201.719 181.119 202.434 180.48 203.371 180.48ZM212.338 186.047C212.537 186.047 212.73 186.023 212.93 185.988V185.121C212.742 185.139 212.643 185.145 212.461 185.145C211.805 185.145 211.547 184.846 211.547 184.102V180.527H212.93V179.684H211.547V178.049H210.492V179.684H209.496V180.527H210.492V184.359C210.492 185.566 211.037 186.047 212.338 186.047ZM214.012 186H215.031V182.262C215.031 181.154 215.67 180.475 216.678 180.475C217.686 180.475 218.154 181.02 218.154 182.156V186H219.174V181.91C219.174 180.41 218.383 179.572 216.965 179.572C216.033 179.572 215.441 179.965 215.125 180.633H215.031V177.176H214.012V186ZM221.059 178.465C221.445 178.465 221.762 178.148 221.762 177.762C221.762 177.375 221.445 177.059 221.059 177.059C220.672 177.059 220.355 177.375 220.355 177.762C220.355 178.148 220.672 178.465 221.059 178.465ZM220.543 186H221.562V179.684H220.543V186ZM225.152 186.111C226.588 186.111 227.684 185.332 227.684 184.207V184.195C227.684 183.293 227.109 182.777 225.92 182.49L224.947 182.256C224.203 182.074 223.887 181.805 223.887 181.377V181.365C223.887 180.809 224.438 180.422 225.188 180.422C225.949 180.422 226.441 180.768 226.576 181.266H227.578C227.438 180.234 226.518 179.572 225.193 179.572C223.852 179.572 222.844 180.363 222.844 181.412V181.418C222.844 182.326 223.377 182.842 224.561 183.123L225.539 183.357C226.318 183.545 226.641 183.844 226.641 184.271V184.283C226.641 184.857 226.037 185.262 225.188 185.262C224.379 185.262 223.875 184.916 223.705 184.389H222.662C222.779 185.432 223.746 186.111 225.152 186.111ZM231.641 188.109H232.66V185.004H232.754C233.1 185.678 233.855 186.111 234.723 186.111C236.328 186.111 237.371 184.828 237.371 182.848V182.836C237.371 180.867 236.322 179.572 234.723 179.572C233.844 179.572 233.141 179.988 232.754 180.691H232.66V179.684H231.641V188.109ZM234.488 185.209C233.34 185.209 232.637 184.307 232.637 182.848V182.836C232.637 181.377 233.34 180.475 234.488 180.475C235.643 180.475 236.328 181.365 236.328 182.836V182.848C236.328 184.318 235.643 185.209 234.488 185.209ZM238.465 186H239.484V182.086C239.484 181.16 240.176 180.545 241.148 180.545C241.371 180.545 241.564 180.568 241.775 180.604V179.613C241.676 179.596 241.459 179.572 241.266 179.572C240.41 179.572 239.818 179.959 239.578 180.621H239.484V179.684H238.465V186ZM243.074 178.465C243.461 178.465 243.777 178.148 243.777 177.762C243.777 177.375 243.461 177.059 243.074 177.059C242.688 177.059 242.371 177.375 242.371 177.762C242.371 178.148 242.688 178.465 243.074 178.465ZM242.559 186H243.578V179.684H242.559V186ZM246.787 186H247.818L250.156 179.684H249.078L247.35 184.887H247.256L245.527 179.684H244.449L246.787 186ZM252.504 186.111C253.354 186.111 254.016 185.742 254.414 185.068H254.508V186H255.527V181.676C255.527 180.363 254.666 179.572 253.125 179.572C251.777 179.572 250.816 180.24 250.652 181.23L250.646 181.266H251.666L251.672 181.248C251.836 180.756 252.334 180.475 253.09 180.475C254.033 180.475 254.508 180.896 254.508 181.676V182.25L252.697 182.361C251.227 182.449 250.395 183.1 250.395 184.225V184.236C250.395 185.385 251.303 186.111 252.504 186.111ZM251.438 184.213V184.201C251.438 183.574 251.859 183.234 252.82 183.176L254.508 183.07V183.645C254.508 184.547 253.752 185.227 252.715 185.227C251.982 185.227 251.438 184.852 251.438 184.213ZM259.135 186.047C259.334 186.047 259.527 186.023 259.727 185.988V185.121C259.539 185.139 259.439 185.145 259.258 185.145C258.602 185.145 258.344 184.846 258.344 184.102V180.527H259.727V179.684H258.344V178.049H257.289V179.684H256.293V180.527H257.289V184.359C257.289 185.566 257.834 186.047 259.135 186.047ZM263.234 186.111C264.723 186.111 265.625 185.268 265.842 184.412L265.854 184.365H264.834L264.811 184.418C264.641 184.799 264.113 185.203 263.258 185.203C262.133 185.203 261.412 184.441 261.383 183.135H265.93V182.736C265.93 180.85 264.887 179.572 263.17 179.572C261.453 179.572 260.34 180.908 260.34 182.859V182.865C260.34 184.846 261.43 186.111 263.234 186.111ZM263.164 180.48C264.096 180.48 264.787 181.072 264.893 182.32H261.4C261.512 181.119 262.227 180.48 263.164 180.48ZM269.945 186H270.965V177.176H269.945V186ZM274.156 186.111C275.006 186.111 275.668 185.742 276.066 185.068H276.16V186H277.18V181.676C277.18 180.363 276.318 179.572 274.777 179.572C273.43 179.572 272.469 180.24 272.305 181.23L272.299 181.266H273.318L273.324 181.248C273.488 180.756 273.986 180.475 274.742 180.475C275.686 180.475 276.16 180.896 276.16 181.676V182.25L274.35 182.361C272.879 182.449 272.047 183.1 272.047 184.225V184.236C272.047 185.385 272.955 186.111 274.156 186.111ZM273.09 184.213V184.201C273.09 183.574 273.512 183.234 274.473 183.176L276.16 183.07V183.645C276.16 184.547 275.404 185.227 274.367 185.227C273.635 185.227 273.09 184.852 273.09 184.213ZM280.787 186.047C280.986 186.047 281.18 186.023 281.379 185.988V185.121C281.191 185.139 281.092 185.145 280.91 185.145C280.254 185.145 279.996 184.846 279.996 184.102V180.527H281.379V179.684H279.996V178.049H278.941V179.684H277.945V180.527H278.941V184.359C278.941 185.566 279.486 186.047 280.787 186.047ZM284.887 186.111C286.375 186.111 287.277 185.268 287.494 184.412L287.506 184.365H286.486L286.463 184.418C286.293 184.799 285.766 185.203 284.91 185.203C283.785 185.203 283.064 184.441 283.035 183.135H287.582V182.736C287.582 180.85 286.539 179.572 284.822 179.572C283.105 179.572 281.992 180.908 281.992 182.859V182.865C281.992 184.846 283.082 186.111 284.887 186.111ZM284.816 180.48C285.748 180.48 286.439 181.072 286.545 182.32H283.053C283.164 181.119 283.879 180.48 284.816 180.48ZM288.664 186H289.684V182.086C289.684 181.16 290.375 180.545 291.348 180.545C291.57 180.545 291.764 180.568 291.975 180.604V179.613C291.875 179.596 291.658 179.572 291.465 179.572C290.609 179.572 290.018 179.959 289.777 180.621H289.684V179.684H288.664V186ZM292.805 186.059C293.227 186.059 293.566 185.713 293.566 185.297C293.566 184.875 293.227 184.535 292.805 184.535C292.389 184.535 292.043 184.875 292.043 185.297C292.043 185.713 292.389 186.059 292.805 186.059Z" fill="#999999"/>
<g clip-path="url(#clip0_1668_64336)">
<path d="M113 -2H277C275.396 -1.36663 274.327 0.165139 274.286 1.88899L274.242 3.74719C274.242 17.6939 262.936 29 248.989 29H141.011C127.064 29 115.758 17.6939 115.758 3.74719L115.714 1.88899C115.673 0.165139 114.604 -1.36663 113 -2Z" fill="black"/>
<path opacity="0.35" d="M344.5 19.9997C344.5 18.8031 345.47 17.833 346.667 17.833H363.333C364.53 17.833 365.5 18.8031 365.5 19.9997V25.9997C365.5 27.1963 364.53 28.1663 363.333 28.1663H346.667C345.47 28.1663 344.5 27.1963 344.5 25.9997V19.9997Z" stroke="black"/>
<path opacity="0.4" d="M367 21V25C367.805 24.6612 368.328 23.8731 368.328 23C368.328 22.1269 367.805 21.3388 367 21Z" fill="black"/>
<path d="M346 20.433C346 19.8255 346.492 19.333 347.1 19.333H362.9C363.508 19.333 364 19.8255 364 20.433V25.5663C364 26.1739 363.508 26.6663 362.9 26.6663H347.1C346.492 26.6663 346 26.1739 346 25.5663V20.433Z" fill="black"/>
<path fill-rule="evenodd" clip-rule="evenodd" d="M331.33 19.6074C333.546 19.6075 335.678 20.4589 337.283 21.9857C337.404 22.1036 337.598 22.1021 337.717 21.9824L338.873 20.8157C338.933 20.755 338.967 20.6728 338.966 20.5872C338.966 20.5016 338.931 20.4198 338.87 20.3597C334.655 16.3202 328.005 16.3202 323.79 20.3597C323.729 20.4197 323.694 20.5015 323.694 20.5871C323.693 20.6727 323.727 20.755 323.787 20.8157L324.943 21.9824C325.062 22.1023 325.256 22.1038 325.377 21.9857C326.983 20.4588 329.114 19.6074 331.33 19.6074ZM331.33 23.4031C332.548 23.403 333.722 23.8555 334.624 24.6727C334.747 24.7887 334.939 24.7862 335.058 24.6671L336.212 23.5004C336.273 23.4392 336.307 23.3562 336.306 23.2699C336.305 23.1837 336.27 23.1014 336.208 23.0414C333.46 20.485 329.204 20.485 326.455 23.0414C326.393 23.1014 326.358 23.1837 326.357 23.27C326.356 23.3563 326.39 23.4393 326.451 23.5004L327.605 24.6671C327.724 24.7862 327.917 24.7887 328.039 24.6727C328.941 23.8561 330.114 23.4036 331.33 23.4031ZM333.643 25.9569C333.645 26.0434 333.611 26.1268 333.549 26.1874L331.552 28.2031C331.494 28.2623 331.414 28.2957 331.33 28.2957C331.247 28.2957 331.167 28.2623 331.109 28.2031L329.111 26.1874C329.049 26.1268 329.015 26.0433 329.017 25.9568C329.019 25.8703 329.057 25.7884 329.121 25.7304C330.396 24.6515 332.265 24.6515 333.54 25.7304C333.604 25.7884 333.642 25.8704 333.643 25.9569Z" fill="black"/>
<path fill-rule="evenodd" clip-rule="evenodd" d="M317.667 17.666H316.667C316.115 17.666 315.667 18.1137 315.667 18.666V27.3327C315.667 27.885 316.115 28.3327 316.667 28.3327H317.667C318.219 28.3327 318.667 27.885 318.667 27.3327V18.666C318.667 18.1137 318.219 17.666 317.667 17.666ZM312 19.9993H313C313.553 19.9993 314 20.4471 314 20.9993V27.3327C314 27.885 313.553 28.3327 313 28.3327H312C311.448 28.3327 311 27.885 311 27.3327V20.9993C311 20.4471 311.448 19.9993 312 19.9993ZM308.334 22.3327H307.334C306.781 22.3327 306.334 22.7804 306.334 23.3327V27.3327C306.334 27.885 306.781 28.3327 307.334 28.3327H308.334C308.886 28.3327 309.334 27.885 309.334 27.3327V23.3327C309.334 22.7804 308.886 22.3327 308.334 22.3327ZM303.667 24.3327H302.667C302.115 24.3327 301.667 24.7804 301.667 25.3327V27.3327C301.667 27.885 302.115 28.3327 302.667 28.3327H303.667C304.219 28.3327 304.667 27.885 304.667 27.3327V25.3327C304.667 24.7804 304.219 24.3327 303.667 24.3327Z" fill="black"/>
<path d="M42.5146 17.1675C40.2222 17.1675 38.5889 18.7349 38.5889 20.8809V20.8955C38.5889 22.9023 40.0098 24.3818 42.0386 24.3818C43.4888 24.3818 44.4116 23.6421 44.7998 22.8071H44.9463C44.9463 22.8877 44.939 22.9683 44.939 23.0488C44.8584 25.0703 44.1479 26.7109 42.4707 26.7109C41.5405 26.7109 40.8887 26.2275 40.6104 25.4878L40.5884 25.4146H38.728L38.7427 25.4951C39.0796 27.1138 40.5298 28.2637 42.4707 28.2637C45.1294 28.2637 46.7334 26.1543 46.7334 22.5947V22.5801C46.7334 18.7715 44.7705 17.1675 42.5146 17.1675ZM42.5073 22.9316C41.3062 22.9316 40.4346 22.0527 40.4346 20.8296V20.8149C40.4346 19.6357 41.3647 18.7056 42.5293 18.7056C43.7012 18.7056 44.6167 19.6504 44.6167 20.8589V20.8735C44.6167 22.0674 43.7012 22.9316 42.5073 22.9316ZM49.5586 21.1519C50.2324 21.1519 50.7231 20.6392 50.7231 19.9946C50.7231 19.3428 50.2324 18.8374 49.5586 18.8374C48.8921 18.8374 48.394 19.3428 48.394 19.9946C48.394 20.6392 48.8921 21.1519 49.5586 21.1519ZM49.5586 26.5864C50.2324 26.5864 50.7231 26.0811 50.7231 25.4292C50.7231 24.7773 50.2324 24.272 49.5586 24.272C48.8921 24.272 48.394 24.7773 48.394 25.4292C48.394 26.0811 48.8921 26.5864 49.5586 26.5864ZM57.5107 28H59.3198V25.9712H60.7407V24.4111H59.3198V17.4312H56.6465C55.2109 19.6138 53.7095 22.0454 52.3398 24.4258V25.9712H57.5107V28ZM54.0977 24.4551V24.3452C55.123 22.5508 56.3462 20.5952 57.4302 18.9399H57.54V24.4551H54.0977ZM64.6206 28H66.5103V17.4312H64.6279L61.8667 19.3721V21.1519L64.4961 19.2915H64.6206V28Z" fill="black"/>
</g>
<path d="M128 833.5C128 832.119 129.119 831 130.5 831H259.5C260.881 831 262 832.119 262 833.5C262 834.881 260.881 836 259.5 836H130.5C129.119 836 128 834.881 128 833.5Z" fill="black"/>
<defs>
<filter id="filter0_d_1668_64336" x="36" y="563" width="318" height="58" filterUnits="userSpaceOnUse" color-interpolation-filters="sRGB">
<feFlood flood-opacity="0" result="BackgroundImageFix"/>
<feColorMatrix in="SourceAlpha" type="matrix" values="0 0 0 0 0 0 0 0 0 0 0 0 0 0 0 0 0 0 127 0" result="hardAlpha"/>
<feOffset dy="4"/>
<feGaussianBlur stdDeviation="4.5"/>
<feComposite in2="hardAlpha" operator="out"/>
<feColorMatrix type="matrix" values="0 0 0 0 0.109804 0 0 0 0 0.470588 0 0 0 0 1 0 0 0 0.5 0"/>
<feBlend mode="normal" in2="BackgroundImageFix" result="effect1_dropShadow_1668_64336"/>
<feBlend mode="normal" in="SourceGraphic" in2="effect1_dropShadow_1668_64336" result="shape"/>
</filter>
<linearGradient id="paint0_linear_1668_64336" x1="51.5" y1="559.364" x2="341.936" y2="632.838" gradientUnits="userSpaceOnUse">
<stop stop-color="#384CFF"/>
<stop offset="1" stop-color="#00A3FF"/>
</linearGradient>
<linearGradient id="paint1_linear_1668_64336" x1="125.5" y1="378" x2="125.5" y2="395" gradientUnits="userSpaceOnUse">
<stop stop-color="#999999"/>
<stop offset="1" stop-color="#999999" stop-opacity="0.28"/>
</linearGradient>
<linearGradient id="paint2_linear_1668_64336" x1="194" y1="378" x2="194" y2="395" gradientUnits="userSpaceOnUse">
<stop stop-color="#999999"/>
<stop offset="1" stop-color="#999999" stop-opacity="0.28"/>
</linearGradient>
<linearGradient id="paint3_linear_1668_64336" x1="263.5" y1="378" x2="263.5" y2="395" gradientUnits="userSpaceOnUse">
<stop stop-color="#999999"/>
<stop offset="1" stop-color="#999999" stop-opacity="0.28"/>
</linearGradient>
<linearGradient id="paint4_linear_1668_64336" x1="124.5" y1="284" x2="124.5" y2="301" gradientUnits="userSpaceOnUse">
<stop stop-color="#999999" stop-opacity="0.35"/>
<stop offset="1" stop-color="#999999"/>
</linearGradient>
<linearGradient id="paint5_linear_1668_64336" x1="193" y1="284" x2="193" y2="301" gradientUnits="userSpaceOnUse">
<stop stop-color="#999999" stop-opacity="0.35"/>
<stop offset="1" stop-color="#999999"/>
</linearGradient>
<linearGradient id="paint6_linear_1668_64336" x1="264" y1="284" x2="264" y2="301" gradientUnits="userSpaceOnUse">
<stop stop-color="#999999" stop-opacity="0.35"/>
<stop offset="1" stop-color="#999999"/>
</linearGradient>
<clipPath id="clip0_1668_64336">
<rect width="390" height="44" fill="white"/>
</clipPath>
</defs>
</svg>
