<svg width="390" height="844" viewBox="0 0 390 844" fill="none" xmlns="http://www.w3.org/2000/svg">
<g clip-path="url(#clip0_1668_64367)">
<rect width="390" height="844" fill="white"/>
<path d="M28.7215 56.5787C29.0928 56.2175 29.0928 55.632 28.7215 55.2709C28.3503 54.9097 27.7483 54.9097 27.3771 55.2709L21.2785 61.2032C20.9072 61.5644 20.9072 62.1499 21.2785 62.5111L27.3771 68.4434C27.7483 68.8046 28.3503 68.8046 28.7215 68.4434C29.0928 68.0823 29.0928 67.4967 28.7215 67.1356L23.2952 61.8571L28.7215 56.5787Z" fill="black"/>
<path d="M59.5371 67.2324C61.6357 67.2324 63.1943 66.0635 63.5225 64.2588V64.2451H62.2783L62.2646 64.2588C61.957 65.3936 60.9111 66.0977 59.5371 66.0977C57.6367 66.0977 56.4473 64.5459 56.4473 62.0781V62.0645C56.4473 59.5967 57.6367 58.0381 59.5303 58.0381C60.8906 58.0381 61.9434 58.8379 62.2715 60.1025L62.2783 60.1162H63.5156L63.5225 60.1025C63.2285 58.209 61.6084 56.9033 59.5303 56.9033C56.8506 56.9033 55.1826 58.8857 55.1826 62.0645V62.0781C55.1826 65.25 56.8574 67.2324 59.5371 67.2324ZM64.9365 67H66.126V62.4336C66.126 61.3535 66.9326 60.6357 68.0674 60.6357C68.3271 60.6357 68.5527 60.6631 68.7988 60.7041V59.5488C68.6826 59.5283 68.4297 59.501 68.2041 59.501C67.2061 59.501 66.5156 59.9521 66.2354 60.7246H66.126V59.6309H64.9365V67ZM72.5713 67.1299C74.3076 67.1299 75.3604 66.1455 75.6133 65.1475L75.627 65.0928H74.4375L74.4102 65.1543C74.2119 65.5986 73.5967 66.0703 72.5986 66.0703C71.2861 66.0703 70.4453 65.1816 70.4111 63.6572H75.7158V63.1924C75.7158 60.9912 74.499 59.501 72.4961 59.501C70.4932 59.501 69.1943 61.0596 69.1943 63.3359V63.3428C69.1943 65.6533 70.4658 67.1299 72.5713 67.1299ZM72.4893 60.5605C73.5762 60.5605 74.3828 61.251 74.5059 62.707H70.4316C70.5615 61.3057 71.3955 60.5605 72.4893 60.5605ZM79.085 67.1299C80.0762 67.1299 80.8486 66.6992 81.3135 65.9131H81.4229V67H82.6123V61.9551C82.6123 60.4238 81.6074 59.501 79.8096 59.501C78.2373 59.501 77.1162 60.2803 76.9248 61.4355L76.918 61.4766H78.1074L78.1143 61.4561C78.3057 60.8818 78.8867 60.5537 79.7686 60.5537C80.8691 60.5537 81.4229 61.0459 81.4229 61.9551V62.625L79.3105 62.7549C77.5947 62.8574 76.624 63.6162 76.624 64.9287V64.9424C76.624 66.2822 77.6836 67.1299 79.085 67.1299ZM77.8408 64.915V64.9014C77.8408 64.1699 78.333 63.7734 79.4541 63.7051L81.4229 63.582V64.252C81.4229 65.3047 80.541 66.0977 79.3311 66.0977C78.4766 66.0977 77.8408 65.6602 77.8408 64.915ZM86.9043 67.0547C87.1367 67.0547 87.3623 67.0273 87.5947 66.9863V65.9746C87.376 65.9951 87.2598 66.002 87.0479 66.002C86.2822 66.002 85.9814 65.6533 85.9814 64.7852V60.6152H87.5947V59.6309H85.9814V57.7236H84.751V59.6309H83.5889V60.6152H84.751V65.0859C84.751 66.4941 85.3867 67.0547 86.9043 67.0547ZM91.7705 67.1299C93.5068 67.1299 94.5596 66.1455 94.8125 65.1475L94.8262 65.0928H93.6367L93.6094 65.1543C93.4111 65.5986 92.7959 66.0703 91.7979 66.0703C90.4854 66.0703 89.6445 65.1816 89.6104 63.6572H94.915V63.1924C94.915 60.9912 93.6982 59.501 91.6953 59.501C89.6924 59.501 88.3936 61.0596 88.3936 63.3359V63.3428C88.3936 65.6533 89.665 67.1299 91.7705 67.1299ZM91.6885 60.5605C92.7754 60.5605 93.582 61.251 93.7051 62.707H89.6309C89.7607 61.3057 90.5947 60.5605 91.6885 60.5605ZM101.722 67.1299C102.713 67.1299 103.485 66.6992 103.95 65.9131H104.06V67H105.249V61.9551C105.249 60.4238 104.244 59.501 102.446 59.501C100.874 59.501 99.7529 60.2803 99.5615 61.4355L99.5547 61.4766H100.744L100.751 61.4561C100.942 60.8818 101.523 60.5537 102.405 60.5537C103.506 60.5537 104.06 61.0459 104.06 61.9551V62.625L101.947 62.7549C100.231 62.8574 99.2607 63.6162 99.2607 64.9287V64.9424C99.2607 66.2822 100.32 67.1299 101.722 67.1299ZM100.478 64.915V64.9014C100.478 64.1699 100.97 63.7734 102.091 63.7051L104.06 63.582V64.252C104.06 65.3047 103.178 66.0977 101.968 66.0977C101.113 66.0977 100.478 65.6602 100.478 64.915ZM109.938 67.1299C111.708 67.1299 112.699 66.1797 113 64.8467L113.014 64.7715L111.838 64.7783L111.824 64.8193C111.551 65.6396 110.922 66.0771 109.931 66.0771C108.618 66.0771 107.771 64.9902 107.771 63.2949V63.2812C107.771 61.6201 108.604 60.5537 109.931 60.5537C110.99 60.5537 111.646 61.1416 111.831 61.8662L111.838 61.8867H113.021L113.014 61.8457C112.795 60.5332 111.722 59.501 109.931 59.501C107.866 59.501 106.554 60.9912 106.554 63.2812V63.2949C106.554 65.6328 107.873 67.1299 109.938 67.1299ZM117.271 67.1299C119.042 67.1299 120.033 66.1797 120.334 64.8467L120.348 64.7715L119.172 64.7783L119.158 64.8193C118.885 65.6396 118.256 66.0771 117.265 66.0771C115.952 66.0771 115.104 64.9902 115.104 63.2949V63.2812C115.104 61.6201 115.938 60.5537 117.265 60.5537C118.324 60.5537 118.98 61.1416 119.165 61.8662L119.172 61.8867H120.354L120.348 61.8457C120.129 60.5332 119.056 59.501 117.265 59.501C115.2 59.501 113.888 60.9912 113.888 63.2812V63.2949C113.888 65.6328 115.207 67.1299 117.271 67.1299ZM124.619 67.1299C126.718 67.1299 128.017 65.6807 128.017 63.3223V63.3086C128.017 60.9434 126.718 59.501 124.619 59.501C122.521 59.501 121.222 60.9434 121.222 63.3086V63.3223C121.222 65.6807 122.521 67.1299 124.619 67.1299ZM124.619 66.0771C123.225 66.0771 122.438 65.0586 122.438 63.3223V63.3086C122.438 61.5654 123.225 60.5537 124.619 60.5537C126.014 60.5537 126.8 61.5654 126.8 63.3086V63.3223C126.8 65.0586 126.014 66.0771 124.619 66.0771ZM131.83 67.1299C132.91 67.1299 133.655 66.6855 134.018 65.8994H134.127V67H135.316V59.6309H134.127V63.9922C134.127 65.2842 133.437 66.0771 132.138 66.0771C130.962 66.0771 130.483 65.4414 130.483 64.1152V59.6309H129.294V64.4023C129.294 66.1455 130.155 67.1299 131.83 67.1299ZM137.038 67H138.228V62.6387C138.228 61.3467 138.973 60.5537 140.148 60.5537C141.324 60.5537 141.871 61.1895 141.871 62.5156V67H143.061V62.2285C143.061 60.4785 142.138 59.501 140.483 59.501C139.396 59.501 138.706 59.959 138.337 60.7383H138.228V59.6309H137.038V67ZM147.332 67.0547C147.564 67.0547 147.79 67.0273 148.022 66.9863V65.9746C147.804 65.9951 147.688 66.002 147.476 66.002C146.71 66.002 146.409 65.6533 146.409 64.7852V60.6152H148.022V59.6309H146.409V57.7236H145.179V59.6309H144.017V60.6152H145.179V65.0859C145.179 66.4941 145.814 67.0547 147.332 67.0547Z" fill="black"/>
<line y1="81.5" x2="390" y2="81.5" stroke="#AAAAAA"/>
<g filter="url(#filter0_d_1668_64367)">
<rect x="39" y="350" width="300" height="40" rx="15" fill="url(#paint0_linear_1668_64367)"/>
</g>
<path d="M174.82 375H176.878V368.54H176.919L181.39 375H183.181V365.136H181.123V371.548H181.082L176.625 365.136H174.82V375ZM187.993 375.15C190.085 375.15 191.097 373.913 191.322 372.833L191.343 372.758H189.511L189.497 372.799C189.354 373.209 188.854 373.66 188.034 373.66C187.016 373.66 186.38 372.977 186.359 371.808H191.404V371.192C191.404 368.978 190.058 367.521 187.911 367.521C185.765 367.521 184.391 369.012 184.391 371.343V371.35C184.391 373.694 185.751 375.15 187.993 375.15ZM187.945 369.012C188.772 369.012 189.367 369.538 189.49 370.55H186.38C186.51 369.559 187.125 369.012 187.945 369.012ZM191.828 375H193.927L195.301 372.457H195.342L196.736 375H198.903L196.634 371.295L198.924 367.672H196.75L195.451 370.146H195.41L194.091 367.672H191.842L194.125 371.35L191.828 375ZM202.636 375.15C203.053 375.15 203.374 375.109 203.6 375.075V373.612C203.477 373.626 203.347 373.646 203.169 373.646C202.567 373.646 202.26 373.414 202.26 372.73V369.176H203.6V367.672H202.26V365.881H200.243V367.672H199.225V369.176H200.243V372.949C200.243 374.521 201.009 375.15 202.636 375.15Z" fill="white"/>
<path d="M117.429 138H119.564L122.131 128.921H122.263L124.847 138H126.974L130.375 125.317H128.028L125.857 134.836H125.734L123.203 125.317H121.19L118.694 134.836H118.562L116.392 125.317H114.027L117.429 138ZM132.072 138H134.261V132.401C134.261 130.96 135.069 130.046 136.37 130.046C137.697 130.046 138.304 130.802 138.304 132.296V138H140.492V131.786C140.492 129.501 139.323 128.209 137.179 128.209C135.79 128.209 134.867 128.833 134.41 129.861H134.261V124.676H132.072V138ZM145.195 138.158C146.461 138.158 147.48 137.613 148.008 136.682H148.157V138H150.319V131.435C150.319 129.404 148.931 128.209 146.461 128.209C144.176 128.209 142.629 129.281 142.418 130.898L142.409 130.978H144.475L144.483 130.942C144.703 130.31 145.354 129.949 146.355 129.949C147.533 129.949 148.157 130.477 148.157 131.435V132.261L145.688 132.41C143.35 132.551 142.04 133.553 142.04 135.267V135.284C142.04 137.033 143.367 138.158 145.195 138.158ZM144.202 135.179V135.161C144.202 134.37 144.773 133.922 145.995 133.843L148.157 133.702V134.476C148.157 135.618 147.182 136.479 145.863 136.479C144.896 136.479 144.202 135.996 144.202 135.179ZM153.177 141.375C155.304 141.375 156.402 140.61 157.229 138.202L160.674 128.394H158.371L156.139 135.899H155.972L153.73 128.394H151.34L154.776 138.009L154.662 138.448C154.425 139.318 153.889 139.688 152.992 139.688C152.764 139.688 152.518 139.679 152.342 139.661V141.34C152.605 141.366 152.913 141.375 153.177 141.375ZM162.169 130.6H163.672L165.192 125.317H162.934L162.169 130.6ZM170.106 138.193C172.471 138.193 174.185 136.972 174.185 135.144V135.126C174.185 133.729 173.297 132.929 171.416 132.507L169.86 132.164C168.823 131.927 168.419 131.584 168.419 131.021V131.013C168.419 130.292 169.122 129.817 170.098 129.817C171.126 129.817 171.759 130.31 171.917 130.916L171.926 130.942H173.982V130.925C173.842 129.369 172.444 128.209 170.106 128.209C167.839 128.209 166.257 129.404 166.257 131.136V131.145C166.257 132.56 167.127 133.421 168.955 133.825L170.511 134.177C171.565 134.414 171.987 134.783 171.987 135.346V135.363C171.987 136.084 171.231 136.576 170.142 136.576C169.052 136.576 168.41 136.11 168.182 135.442L168.173 135.425H166.002V135.442C166.187 137.068 167.663 138.193 170.106 138.193ZM181.218 141.375C183.345 141.375 184.443 140.61 185.27 138.202L188.715 128.394H186.412L184.18 135.899H184.013L181.771 128.394H179.381L182.817 138.009L182.703 138.448C182.466 139.318 181.93 139.688 181.033 139.688C180.805 139.688 180.559 139.679 180.383 139.661V141.34C180.646 141.366 180.954 141.375 181.218 141.375ZM193.857 138.193C196.731 138.193 198.48 136.312 198.48 133.201V133.184C198.48 130.09 196.723 128.209 193.857 128.209C191.001 128.209 189.234 130.099 189.234 133.184V133.201C189.234 136.312 190.975 138.193 193.857 138.193ZM193.857 136.418C192.337 136.418 191.467 135.231 191.467 133.21V133.192C191.467 131.171 192.337 129.976 193.857 129.976C195.369 129.976 196.239 131.171 196.239 133.192V133.21C196.239 135.231 195.378 136.418 193.857 136.418ZM203.359 138.193C204.748 138.193 205.724 137.569 206.172 136.541H206.321V138H208.51V128.394H206.321V133.992C206.321 135.434 205.565 136.348 204.15 136.348C202.832 136.348 202.278 135.592 202.278 134.106V128.394H200.09V134.607C200.09 136.893 201.197 138.193 203.359 138.193ZM210.682 138H212.87V132.419C212.87 131.048 213.828 130.178 215.287 130.178C215.665 130.178 216.025 130.23 216.377 130.301V128.341C216.166 128.279 215.823 128.235 215.489 128.235C214.224 128.235 213.345 128.842 213.02 129.87H212.87V128.394H210.682V138ZM221.969 138H224.157V132.401C224.157 130.96 224.966 130.046 226.267 130.046C227.594 130.046 228.2 130.802 228.2 132.296V138H230.389V131.786C230.389 129.501 229.22 128.209 227.075 128.209C225.687 128.209 224.764 128.833 224.307 129.861H224.157V128.394H221.969V138ZM235.092 138.158C236.357 138.158 237.377 137.613 237.904 136.682H238.054V138H240.216V131.435C240.216 129.404 238.827 128.209 236.357 128.209C234.072 128.209 232.525 129.281 232.314 130.898L232.306 130.978H234.371L234.38 130.942C234.6 130.31 235.25 129.949 236.252 129.949C237.43 129.949 238.054 130.477 238.054 131.435V132.261L235.584 132.41C233.246 132.551 231.937 133.553 231.937 135.267V135.284C231.937 137.033 233.264 138.158 235.092 138.158ZM234.099 135.179V135.161C234.099 134.37 234.67 133.922 235.892 133.843L238.054 133.702V134.476C238.054 135.618 237.078 136.479 235.76 136.479C234.793 136.479 234.099 135.996 234.099 135.179ZM242.344 138H244.532V132.155C244.532 130.96 245.323 130.046 246.404 130.046C247.477 130.046 248.136 130.705 248.136 131.769V138H250.324V131.997C250.324 130.898 251.062 130.046 252.205 130.046C253.374 130.046 253.945 130.679 253.945 131.927V138H256.134V131.391C256.134 129.396 254.974 128.209 253.04 128.209C251.704 128.209 250.597 128.895 250.131 129.94H249.981C249.568 128.877 248.619 128.209 247.318 128.209C246.062 128.209 245.095 128.815 244.682 129.888H244.532V128.394H242.344V138ZM262.34 138.193C264.95 138.193 266.233 136.69 266.541 135.451L266.567 135.372H264.484L264.458 135.434C264.247 135.873 263.57 136.471 262.384 136.471C260.898 136.471 259.967 135.469 259.94 133.746H266.655V133.025C266.655 130.125 264.968 128.209 262.234 128.209C259.501 128.209 257.752 130.187 257.752 133.21V133.219C257.752 136.277 259.483 138.193 262.34 138.193ZM262.261 129.923C263.482 129.923 264.37 130.705 264.52 132.278H259.958C260.125 130.749 261.039 129.923 262.261 129.923ZM270.444 134.045H272.483V133.535C272.483 132.656 272.809 132.199 273.96 131.531C275.155 130.819 275.823 129.879 275.823 128.543V128.525C275.823 126.601 274.215 125.212 271.807 125.212C269.196 125.212 267.764 126.724 267.702 128.78V128.798L269.75 128.789L269.768 128.78C269.829 127.699 270.559 127.005 271.692 127.005C272.8 127.005 273.538 127.682 273.538 128.604V128.622C273.538 129.483 273.169 129.958 272.079 130.617C270.866 131.329 270.356 132.12 270.436 133.421L270.444 134.045ZM271.561 138.22C272.457 138.22 273.02 137.675 273.02 136.84C273.02 135.996 272.457 135.451 271.561 135.451C270.682 135.451 270.102 135.996 270.102 136.84C270.102 137.675 270.682 138.22 271.561 138.22Z" fill="black"/>
<path d="M107.078 166H112.316V165.051H108.133V162.145H112.1V161.207H108.133V158.494H112.316V157.545H107.078V166ZM113.598 166H114.617V162.262C114.617 161.154 115.256 160.475 116.264 160.475C117.271 160.475 117.74 161.02 117.74 162.156V166H118.76V161.91C118.76 160.41 117.969 159.572 116.551 159.572C115.619 159.572 115.027 159.965 114.711 160.633H114.617V159.684H113.598V166ZM122.35 166.047C122.549 166.047 122.742 166.023 122.941 165.988V165.121C122.754 165.139 122.654 165.145 122.473 165.145C121.816 165.145 121.559 164.846 121.559 164.102V160.527H122.941V159.684H121.559V158.049H120.504V159.684H119.508V160.527H120.504V164.359C120.504 165.566 121.049 166.047 122.35 166.047ZM126.449 166.111C127.938 166.111 128.84 165.268 129.057 164.412L129.068 164.365H128.049L128.025 164.418C127.855 164.799 127.328 165.203 126.473 165.203C125.348 165.203 124.627 164.441 124.598 163.135H129.145V162.736C129.145 160.85 128.102 159.572 126.385 159.572C124.668 159.572 123.555 160.908 123.555 162.859V162.865C123.555 164.846 124.645 166.111 126.449 166.111ZM126.379 160.48C127.311 160.48 128.002 161.072 128.107 162.32H124.615C124.727 161.119 125.441 160.48 126.379 160.48ZM130.227 166H131.246V162.086C131.246 161.16 131.938 160.545 132.91 160.545C133.133 160.545 133.326 160.568 133.537 160.604V159.613C133.438 159.596 133.221 159.572 133.027 159.572C132.172 159.572 131.58 159.959 131.34 160.621H131.246V159.684H130.227V166ZM139.416 166.047C139.615 166.047 139.809 166.023 140.008 165.988V165.121C139.82 165.139 139.721 165.145 139.539 165.145C138.883 165.145 138.625 164.846 138.625 164.102V160.527H140.008V159.684H138.625V158.049H137.57V159.684H136.574V160.527H137.57V164.359C137.57 165.566 138.115 166.047 139.416 166.047ZM141.09 166H142.109V162.262C142.109 161.154 142.748 160.475 143.756 160.475C144.764 160.475 145.232 161.02 145.232 162.156V166H146.252V161.91C146.252 160.41 145.461 159.572 144.043 159.572C143.111 159.572 142.52 159.965 142.203 160.633H142.109V157.176H141.09V166ZM150.176 166.111C151.664 166.111 152.566 165.268 152.783 164.412L152.795 164.365H151.775L151.752 164.418C151.582 164.799 151.055 165.203 150.199 165.203C149.074 165.203 148.354 164.441 148.324 163.135H152.871V162.736C152.871 160.85 151.828 159.572 150.111 159.572C148.395 159.572 147.281 160.908 147.281 162.859V162.865C147.281 164.846 148.371 166.111 150.176 166.111ZM150.105 160.48C151.037 160.48 151.729 161.072 151.834 162.32H148.342C148.453 161.119 149.168 160.48 150.105 160.48ZM156.828 166H157.848V162.262C157.848 161.154 158.486 160.475 159.494 160.475C160.502 160.475 160.971 161.02 160.971 162.156V166H161.99V161.91C161.99 160.41 161.199 159.572 159.781 159.572C158.85 159.572 158.258 159.965 157.941 160.633H157.848V159.684H156.828V166ZM165.07 166.111C165.92 166.111 166.582 165.742 166.98 165.068H167.074V166H168.094V161.676C168.094 160.363 167.232 159.572 165.691 159.572C164.344 159.572 163.383 160.24 163.219 161.23L163.213 161.266H164.232L164.238 161.248C164.402 160.756 164.9 160.475 165.656 160.475C166.6 160.475 167.074 160.896 167.074 161.676V162.25L165.264 162.361C163.793 162.449 162.961 163.1 162.961 164.225V164.236C162.961 165.385 163.869 166.111 165.07 166.111ZM164.004 164.213V164.201C164.004 163.574 164.426 163.234 165.387 163.176L167.074 163.07V163.645C167.074 164.547 166.318 165.227 165.281 165.227C164.549 165.227 164.004 164.852 164.004 164.213ZM169.457 166H170.477V162.086C170.477 161.195 171.104 160.475 171.93 160.475C172.727 160.475 173.242 160.961 173.242 161.711V166H174.262V161.939C174.262 161.137 174.842 160.475 175.721 160.475C176.611 160.475 177.039 160.938 177.039 161.869V166H178.059V161.635C178.059 160.311 177.338 159.572 176.049 159.572C175.176 159.572 174.455 160.012 174.115 160.68H174.021C173.729 160.023 173.131 159.572 172.275 159.572C171.449 159.572 170.852 159.965 170.57 160.645H170.477V159.684H169.457V166ZM181.977 166.111C183.465 166.111 184.367 165.268 184.584 164.412L184.596 164.365H183.576L183.553 164.418C183.383 164.799 182.855 165.203 182 165.203C180.875 165.203 180.154 164.441 180.125 163.135H184.672V162.736C184.672 160.85 183.629 159.572 181.912 159.572C180.195 159.572 179.082 160.908 179.082 162.859V162.865C179.082 164.846 180.172 166.111 181.977 166.111ZM181.906 160.48C182.838 160.48 183.529 161.072 183.635 162.32H180.143C180.254 161.119 180.969 160.48 181.906 160.48ZM189.168 168.215C190.287 168.215 190.809 167.805 191.33 166.387L193.797 159.684H192.725L190.996 164.881H190.902L189.168 159.684H188.078L190.416 166.006L190.299 166.381C190.07 167.107 189.719 167.371 189.139 167.371C188.998 167.371 188.84 167.365 188.717 167.342V168.18C188.857 168.203 189.033 168.215 189.168 168.215ZM197.006 166.111C198.805 166.111 199.918 164.869 199.918 162.848V162.836C199.918 160.809 198.805 159.572 197.006 159.572C195.207 159.572 194.094 160.809 194.094 162.836V162.848C194.094 164.869 195.207 166.111 197.006 166.111ZM197.006 165.209C195.811 165.209 195.137 164.336 195.137 162.848V162.836C195.137 161.342 195.811 160.475 197.006 160.475C198.201 160.475 198.875 161.342 198.875 162.836V162.848C198.875 164.336 198.201 165.209 197.006 165.209ZM203.115 166.111C204.041 166.111 204.68 165.73 204.99 165.057H205.084V166H206.104V159.684H205.084V163.422C205.084 164.529 204.492 165.209 203.379 165.209C202.371 165.209 201.961 164.664 201.961 163.527V159.684H200.941V163.773C200.941 165.268 201.68 166.111 203.115 166.111ZM212.498 166.111C213.424 166.111 214.062 165.73 214.373 165.057H214.467V166H215.486V159.684H214.467V163.422C214.467 164.529 213.875 165.209 212.762 165.209C211.754 165.209 211.344 164.664 211.344 163.527V159.684H210.324V163.773C210.324 165.268 211.062 166.111 212.498 166.111ZM219.059 166.111C220.494 166.111 221.59 165.332 221.59 164.207V164.195C221.59 163.293 221.016 162.777 219.826 162.49L218.854 162.256C218.109 162.074 217.793 161.805 217.793 161.377V161.365C217.793 160.809 218.344 160.422 219.094 160.422C219.855 160.422 220.348 160.768 220.482 161.266H221.484C221.344 160.234 220.424 159.572 219.1 159.572C217.758 159.572 216.75 160.363 216.75 161.412V161.418C216.75 162.326 217.283 162.842 218.467 163.123L219.445 163.357C220.225 163.545 220.547 163.844 220.547 164.271V164.283C220.547 164.857 219.943 165.262 219.094 165.262C218.285 165.262 217.781 164.916 217.611 164.389H216.568C216.686 165.432 217.652 166.111 219.059 166.111ZM225.25 166.111C226.738 166.111 227.641 165.268 227.857 164.412L227.869 164.365H226.85L226.826 164.418C226.656 164.799 226.129 165.203 225.273 165.203C224.148 165.203 223.428 164.441 223.398 163.135H227.945V162.736C227.945 160.85 226.902 159.572 225.186 159.572C223.469 159.572 222.355 160.908 222.355 162.859V162.865C222.355 164.846 223.445 166.111 225.25 166.111ZM225.18 160.48C226.111 160.48 226.803 161.072 226.908 162.32H223.416C223.527 161.119 224.242 160.48 225.18 160.48ZM232.441 158.465C232.828 158.465 233.145 158.148 233.145 157.762C233.145 157.375 232.828 157.059 232.441 157.059C232.055 157.059 231.738 157.375 231.738 157.762C231.738 158.148 232.055 158.465 232.441 158.465ZM231.926 166H232.945V159.684H231.926V166ZM234.367 166H235.387V162.262C235.387 161.154 236.025 160.475 237.033 160.475C238.041 160.475 238.51 161.02 238.51 162.156V166H239.529V161.91C239.529 160.41 238.738 159.572 237.32 159.572C236.389 159.572 235.797 159.965 235.48 160.633H235.387V159.684H234.367V166ZM243.75 166H244.77V162.086C244.77 161.16 245.461 160.545 246.434 160.545C246.656 160.545 246.85 160.568 247.061 160.604V159.613C246.961 159.596 246.744 159.572 246.551 159.572C245.695 159.572 245.104 159.959 244.863 160.621H244.77V159.684H243.75V166ZM250.223 166.111C251.711 166.111 252.613 165.268 252.83 164.412L252.842 164.365H251.822L251.799 164.418C251.629 164.799 251.102 165.203 250.246 165.203C249.121 165.203 248.4 164.441 248.371 163.135H252.918V162.736C252.918 160.85 251.875 159.572 250.158 159.572C248.441 159.572 247.328 160.908 247.328 162.859V162.865C247.328 164.846 248.418 166.111 250.223 166.111ZM250.152 160.48C251.084 160.48 251.775 161.072 251.881 162.32H248.389C248.5 161.119 249.215 160.48 250.152 160.48ZM255.734 166.111C256.584 166.111 257.246 165.742 257.645 165.068H257.738V166H258.758V161.676C258.758 160.363 257.896 159.572 256.355 159.572C255.008 159.572 254.047 160.24 253.883 161.23L253.877 161.266H254.896L254.902 161.248C255.066 160.756 255.564 160.475 256.32 160.475C257.264 160.475 257.738 160.896 257.738 161.676V162.25L255.928 162.361C254.457 162.449 253.625 163.1 253.625 164.225V164.236C253.625 165.385 254.533 166.111 255.734 166.111ZM254.668 164.213V164.201C254.668 163.574 255.09 163.234 256.051 163.176L257.738 163.07V163.645C257.738 164.547 256.982 165.227 255.945 165.227C255.213 165.227 254.668 164.852 254.668 164.213ZM260.18 166H261.199V157.176H260.18V166ZM265.59 166H266.609V157.176H265.59V166ZM268.605 158.465C268.992 158.465 269.309 158.148 269.309 157.762C269.309 157.375 268.992 157.059 268.605 157.059C268.219 157.059 267.902 157.375 267.902 157.762C267.902 158.148 268.219 158.465 268.605 158.465ZM268.09 166H269.109V159.684H268.09V166ZM270.953 166H271.973V160.527H273.408V159.684H271.973V159.01C271.973 158.318 272.266 157.961 272.992 157.961C273.174 157.961 273.344 157.967 273.467 157.99V157.176C273.256 157.135 273.033 157.117 272.787 157.117C271.586 157.117 270.953 157.721 270.953 158.98V159.684H269.904V160.527H270.953V166ZM276.688 166.111C278.176 166.111 279.078 165.268 279.295 164.412L279.307 164.365H278.287L278.264 164.418C278.094 164.799 277.566 165.203 276.711 165.203C275.586 165.203 274.865 164.441 274.836 163.135H279.383V162.736C279.383 160.85 278.34 159.572 276.623 159.572C274.906 159.572 273.793 160.908 273.793 162.859V162.865C273.793 164.846 274.883 166.111 276.688 166.111ZM276.617 160.48C277.549 160.48 278.24 161.072 278.346 162.32H274.854C274.965 161.119 275.68 160.48 276.617 160.48ZM281.297 166.059C281.719 166.059 282.059 165.713 282.059 165.297C282.059 164.875 281.719 164.535 281.297 164.535C280.881 164.535 280.535 164.875 280.535 165.297C280.535 165.713 280.881 166.059 281.297 166.059Z" fill="#999999"/>
<path d="M211.078 236H216.211V235.051H212.133V227.545H211.078V236ZM219.004 236.111C219.854 236.111 220.516 235.742 220.914 235.068H221.008V236H222.027V231.676C222.027 230.363 221.166 229.572 219.625 229.572C218.277 229.572 217.316 230.24 217.152 231.23L217.146 231.266H218.166L218.172 231.248C218.336 230.756 218.834 230.475 219.59 230.475C220.533 230.475 221.008 230.896 221.008 231.676V232.25L219.197 232.361C217.727 232.449 216.895 233.1 216.895 234.225V234.236C216.895 235.385 217.803 236.111 219.004 236.111ZM217.938 234.213V234.201C217.938 233.574 218.359 233.234 219.32 233.176L221.008 233.07V233.645C221.008 234.547 220.252 235.227 219.215 235.227C218.482 235.227 217.938 234.852 217.938 234.213ZM225.559 236.111C226.994 236.111 228.09 235.332 228.09 234.207V234.195C228.09 233.293 227.516 232.777 226.326 232.49L225.354 232.256C224.609 232.074 224.293 231.805 224.293 231.377V231.365C224.293 230.809 224.844 230.422 225.594 230.422C226.355 230.422 226.848 230.768 226.982 231.266H227.984C227.844 230.234 226.924 229.572 225.6 229.572C224.258 229.572 223.25 230.363 223.25 231.412V231.418C223.25 232.326 223.783 232.842 224.967 233.123L225.945 233.357C226.725 233.545 227.047 233.844 227.047 234.271V234.283C227.047 234.857 226.443 235.262 225.594 235.262C224.785 235.262 224.281 234.916 224.111 234.389H223.068C223.186 235.432 224.152 236.111 225.559 236.111ZM231.357 236.047C231.557 236.047 231.75 236.023 231.949 235.988V235.121C231.762 235.139 231.662 235.145 231.48 235.145C230.824 235.145 230.566 234.846 230.566 234.102V230.527H231.949V229.684H230.566V228.049H229.512V229.684H228.516V230.527H229.512V234.359C229.512 235.566 230.057 236.047 231.357 236.047ZM235.977 236H237.02V229.443H237.113L241.701 236H242.727V227.545H241.684V234.125H241.59L237.002 227.545H235.977V236ZM245.988 236.111C246.838 236.111 247.5 235.742 247.898 235.068H247.992V236H249.012V231.676C249.012 230.363 248.15 229.572 246.609 229.572C245.262 229.572 244.301 230.24 244.137 231.23L244.131 231.266H245.15L245.156 231.248C245.32 230.756 245.818 230.475 246.574 230.475C247.518 230.475 247.992 230.896 247.992 231.676V232.25L246.182 232.361C244.711 232.449 243.879 233.1 243.879 234.225V234.236C243.879 235.385 244.787 236.111 245.988 236.111ZM244.922 234.213V234.201C244.922 233.574 245.344 233.234 246.305 233.176L247.992 233.07V233.645C247.992 234.547 247.236 235.227 246.199 235.227C245.467 235.227 244.922 234.852 244.922 234.213ZM250.375 236H251.395V232.086C251.395 231.195 252.021 230.475 252.848 230.475C253.645 230.475 254.16 230.961 254.16 231.711V236H255.18V231.939C255.18 231.137 255.76 230.475 256.639 230.475C257.529 230.475 257.957 230.938 257.957 231.869V236H258.977V231.635C258.977 230.311 258.256 229.572 256.967 229.572C256.094 229.572 255.373 230.012 255.033 230.68H254.939C254.646 230.023 254.049 229.572 253.193 229.572C252.367 229.572 251.77 229.965 251.488 230.645H251.395V229.684H250.375V236ZM262.895 236.111C264.383 236.111 265.285 235.268 265.502 234.412L265.514 234.365H264.494L264.471 234.418C264.301 234.799 263.773 235.203 262.918 235.203C261.793 235.203 261.072 234.441 261.043 233.135H265.59V232.736C265.59 230.85 264.547 229.572 262.83 229.572C261.113 229.572 260 230.908 260 232.859V232.865C260 234.846 261.09 236.111 262.895 236.111ZM262.824 230.48C263.756 230.48 264.447 231.072 264.553 232.32H261.061C261.172 231.119 261.887 230.48 262.824 230.48Z" fill="#384CFF"/>
<path d="M215.133 262.266C217.648 262.266 219.297 260.953 219.297 258.844V258.836C219.297 257.211 218.367 256.266 216.016 255.742L214.766 255.461C213.234 255.125 212.617 254.516 212.617 253.617V253.609C212.617 252.43 213.703 251.766 215.109 251.758C216.578 251.75 217.516 252.484 217.672 253.477L217.688 253.578H219.094L219.086 253.469C218.969 251.789 217.398 250.461 215.148 250.461C212.82 250.461 211.188 251.781 211.18 253.648V253.656C211.18 255.289 212.156 256.328 214.414 256.828L215.664 257.102C217.211 257.445 217.859 258.086 217.859 259.023V259.031C217.859 260.18 216.742 260.969 215.211 260.969C213.586 260.969 212.414 260.258 212.312 259.133L212.305 259.047H210.898L210.906 259.133C211.07 260.969 212.664 262.266 215.133 262.266ZM221.047 262H222.406V257.016C222.406 255.539 223.258 254.633 224.602 254.633C225.945 254.633 226.57 255.359 226.57 256.875V262H227.93V256.547C227.93 254.547 226.875 253.43 224.984 253.43C223.742 253.43 222.953 253.953 222.531 254.844H222.406V250.234H221.047V262ZM233.328 262.148C235.312 262.148 236.516 261.023 236.805 259.883L236.82 259.82H235.461L235.43 259.891C235.203 260.398 234.5 260.938 233.359 260.938C231.859 260.938 230.898 259.922 230.859 258.18H236.922V257.648C236.922 255.133 235.531 253.43 233.242 253.43C230.953 253.43 229.469 255.211 229.469 257.812V257.82C229.469 260.461 230.922 262.148 233.328 262.148ZM233.234 254.641C234.477 254.641 235.398 255.43 235.539 257.094H230.883C231.031 255.492 231.984 254.641 233.234 254.641ZM238.531 262H239.891V257.016C239.891 255.539 240.742 254.633 242.086 254.633C243.43 254.633 244.055 255.359 244.055 256.875V262H245.414V256.547C245.414 254.547 244.359 253.43 242.469 253.43C241.227 253.43 240.438 253.953 240.016 254.844H239.891V253.578H238.531V262ZM250.484 262.148C251.656 262.148 252.594 261.594 253.109 260.656H253.234V262H254.594V250.234H253.234V254.906H253.109C252.648 254.008 251.641 253.43 250.484 253.43C248.344 253.43 246.953 255.141 246.953 257.781V257.797C246.953 260.422 248.352 262.148 250.484 262.148ZM250.797 260.945C249.258 260.945 248.344 259.758 248.344 257.797V257.781C248.344 255.82 249.258 254.633 250.797 254.633C252.328 254.633 253.266 255.836 253.266 257.781V257.797C253.266 259.742 252.328 260.945 250.797 260.945ZM257.422 264.953C258.914 264.953 259.609 264.406 260.305 262.516L263.594 253.578H262.164L259.859 260.508H259.734L257.422 253.578H255.969L259.086 262.008L258.93 262.508C258.625 263.477 258.156 263.828 257.383 263.828C257.195 263.828 256.984 263.82 256.82 263.789V264.906C257.008 264.938 257.242 264.953 257.422 264.953Z" fill="black"/>
<line x1="210" y1="267.5" x2="350" y2="267.5" stroke="#384CFF"/>
<path d="M342 254L350 246M342 246L350 254" stroke="#AAAAAA" stroke-width="1.5" stroke-linecap="round"/>
<path d="M265.5 264V244" stroke="#384CFF"/>
<line x1="40" y1="267.5" x2="180" y2="267.5" stroke="#999999"/>
<path d="M45.1328 261.266C47.6484 261.266 49.2969 259.953 49.2969 257.844V257.836C49.2969 256.211 48.3672 255.266 46.0156 254.742L44.7656 254.461C43.2344 254.125 42.6172 253.516 42.6172 252.617V252.609C42.6172 251.43 43.7031 250.766 45.1094 250.758C46.5781 250.75 47.5156 251.484 47.6719 252.477L47.6875 252.578H49.0938L49.0859 252.469C48.9688 250.789 47.3984 249.461 45.1484 249.461C42.8203 249.461 41.1875 250.781 41.1797 252.648V252.656C41.1797 254.289 42.1562 255.328 44.4141 255.828L45.6641 256.102C47.2109 256.445 47.8594 257.086 47.8594 258.023V258.031C47.8594 259.18 46.7422 259.969 45.2109 259.969C43.5859 259.969 42.4141 259.258 42.3125 258.133L42.3047 258.047H40.8984L40.9062 258.133C41.0703 259.969 42.6641 261.266 45.1328 261.266ZM53.2812 261.148C54.4141 261.148 55.2969 260.656 55.8281 259.758H55.9531V261H57.3125V255.234C57.3125 253.484 56.1641 252.43 54.1094 252.43C52.3125 252.43 51.0312 253.32 50.8125 254.641L50.8047 254.688H52.1641L52.1719 254.664C52.3906 254.008 53.0547 253.633 54.0625 253.633C55.3203 253.633 55.9531 254.195 55.9531 255.234V256L53.5391 256.148C51.5781 256.266 50.4688 257.133 50.4688 258.633V258.648C50.4688 260.18 51.6797 261.148 53.2812 261.148ZM51.8594 258.617V258.602C51.8594 257.766 52.4219 257.312 53.7031 257.234L55.9531 257.094V257.859C55.9531 259.062 54.9453 259.969 53.5625 259.969C52.5859 259.969 51.8594 259.469 51.8594 258.617ZM59.2969 261H60.6562V256.016C60.6562 254.539 61.5078 253.633 62.8516 253.633C64.1953 253.633 64.8203 254.359 64.8203 255.875V261H66.1797V255.547C66.1797 253.547 65.125 252.43 63.2344 252.43C61.9922 252.43 61.2031 252.953 60.7812 253.844H60.6562V252.578H59.2969V261ZM68.8438 250.953C69.3594 250.953 69.7812 250.531 69.7812 250.016C69.7812 249.5 69.3594 249.078 68.8438 249.078C68.3281 249.078 67.9062 249.5 67.9062 250.016C67.9062 250.531 68.3281 250.953 68.8438 250.953ZM66.9375 263.891C68.7031 263.891 69.5234 263.148 69.5234 261.414V252.578H68.1641V261.438C68.1641 262.367 67.8203 262.688 66.9062 262.688H66.7031V263.891H66.9375ZM73.9062 261.148C75.0391 261.148 75.9219 260.656 76.4531 259.758H76.5781V261H77.9375V255.234C77.9375 253.484 76.7891 252.43 74.7344 252.43C72.9375 252.43 71.6562 253.32 71.4375 254.641L71.4297 254.688H72.7891L72.7969 254.664C73.0156 254.008 73.6797 253.633 74.6875 253.633C75.9453 253.633 76.5781 254.195 76.5781 255.234V256L74.1641 256.148C72.2031 256.266 71.0938 257.133 71.0938 258.633V258.648C71.0938 260.18 72.3047 261.148 73.9062 261.148ZM72.4844 258.617V258.602C72.4844 257.766 73.0469 257.312 74.3281 257.234L76.5781 257.094V257.859C76.5781 259.062 75.5703 259.969 74.1875 259.969C73.2109 259.969 72.4844 259.469 72.4844 258.617ZM80.3281 263.953C81.8203 263.953 82.5156 263.406 83.2109 261.516L86.5 252.578H85.0703L82.7656 259.508H82.6406L80.3281 252.578H78.875L81.9922 261.008L81.8359 261.508C81.5312 262.477 81.0625 262.828 80.2891 262.828C80.1016 262.828 79.8906 262.82 79.7266 262.789V263.906C79.9141 263.938 80.1484 263.953 80.3281 263.953Z" fill="black"/>
<path d="M172 254L180 246M172 246L180 254" stroke="#AAAAAA" stroke-width="1.5" stroke-linecap="round"/>
<path d="M41.0781 236H42.1328V232.338H45.877V231.4H42.1328V228.494H46.2109V227.545H41.0781V236ZM47.8555 228.465C48.2422 228.465 48.5586 228.148 48.5586 227.762C48.5586 227.375 48.2422 227.059 47.8555 227.059C47.4688 227.059 47.1523 227.375 47.1523 227.762C47.1523 228.148 47.4688 228.465 47.8555 228.465ZM47.3398 236H48.3594V229.684H47.3398V236ZM49.7812 236H50.8008V232.086C50.8008 231.16 51.4922 230.545 52.4648 230.545C52.6875 230.545 52.8809 230.568 53.0918 230.604V229.613C52.9922 229.596 52.7754 229.572 52.582 229.572C51.7266 229.572 51.1348 229.959 50.8945 230.621H50.8008V229.684H49.7812V236ZM55.9023 236.111C57.3379 236.111 58.4336 235.332 58.4336 234.207V234.195C58.4336 233.293 57.8594 232.777 56.6699 232.49L55.6973 232.256C54.9531 232.074 54.6367 231.805 54.6367 231.377V231.365C54.6367 230.809 55.1875 230.422 55.9375 230.422C56.6992 230.422 57.1914 230.768 57.3262 231.266H58.3281C58.1875 230.234 57.2676 229.572 55.9434 229.572C54.6016 229.572 53.5938 230.363 53.5938 231.412V231.418C53.5938 232.326 54.127 232.842 55.3105 233.123L56.2891 233.357C57.0684 233.545 57.3906 233.844 57.3906 234.271V234.283C57.3906 234.857 56.7871 235.262 55.9375 235.262C55.1289 235.262 54.625 234.916 54.4551 234.389H53.4121C53.5293 235.432 54.4961 236.111 55.9023 236.111ZM61.7012 236.047C61.9004 236.047 62.0938 236.023 62.293 235.988V235.121C62.1055 235.139 62.0059 235.145 61.8242 235.145C61.168 235.145 60.9102 234.846 60.9102 234.102V230.527H62.293V229.684H60.9102V228.049H59.8555V229.684H58.8594V230.527H59.8555V234.359C59.8555 235.566 60.4004 236.047 61.7012 236.047ZM66.3203 236H67.3633V229.443H67.457L72.0449 236H73.0703V227.545H72.0273V234.125H71.9336L67.3457 227.545H66.3203V236ZM76.332 236.111C77.1816 236.111 77.8438 235.742 78.2422 235.068H78.3359V236H79.3555V231.676C79.3555 230.363 78.4941 229.572 76.9531 229.572C75.6055 229.572 74.6445 230.24 74.4805 231.23L74.4746 231.266H75.4941L75.5 231.248C75.6641 230.756 76.1621 230.475 76.918 230.475C77.8613 230.475 78.3359 230.896 78.3359 231.676V232.25L76.5254 232.361C75.0547 232.449 74.2227 233.1 74.2227 234.225V234.236C74.2227 235.385 75.1309 236.111 76.332 236.111ZM75.2656 234.213V234.201C75.2656 233.574 75.6875 233.234 76.6484 233.176L78.3359 233.07V233.645C78.3359 234.547 77.5801 235.227 76.543 235.227C75.8105 235.227 75.2656 234.852 75.2656 234.213ZM80.7188 236H81.7383V232.086C81.7383 231.195 82.3652 230.475 83.1914 230.475C83.9883 230.475 84.5039 230.961 84.5039 231.711V236H85.5234V231.939C85.5234 231.137 86.1035 230.475 86.9824 230.475C87.873 230.475 88.3008 230.938 88.3008 231.869V236H89.3203V231.635C89.3203 230.311 88.5996 229.572 87.3105 229.572C86.4375 229.572 85.7168 230.012 85.377 230.68H85.2832C84.9902 230.023 84.3926 229.572 83.5371 229.572C82.7109 229.572 82.1133 229.965 81.832 230.645H81.7383V229.684H80.7188V236ZM93.2383 236.111C94.7266 236.111 95.6289 235.268 95.8457 234.412L95.8574 234.365H94.8379L94.8145 234.418C94.6445 234.799 94.1172 235.203 93.2617 235.203C92.1367 235.203 91.416 234.441 91.3867 233.135H95.9336V232.736C95.9336 230.85 94.8906 229.572 93.1738 229.572C91.457 229.572 90.3438 230.908 90.3438 232.859V232.865C90.3438 234.846 91.4336 236.111 93.2383 236.111ZM93.168 230.48C94.0996 230.48 94.791 231.072 94.8965 232.32H91.4043C91.5156 231.119 92.2305 230.48 93.168 230.48Z" fill="#999999"/>
<g filter="url(#filter1_b_1668_64367)">
<rect width="390" height="291" transform="translate(0 583)" fill="#D1D5DB"/>
<g filter="url(#filter2_d_1668_64367)">
<path fill-rule="evenodd" clip-rule="evenodd" d="M299.52 784.36C299.52 781.784 299.52 780.496 300.021 779.512C300.462 778.646 301.166 777.942 302.031 777.501C303.015 777 304.303 777 306.88 777H384.16C386.736 777 388.024 777 389.008 777.501C389.873 777.942 390.577 778.646 391.018 779.512C391.52 780.496 391.52 781.784 391.52 784.36V811.64C391.52 814.216 391.52 815.504 391.018 816.488C390.577 817.354 389.873 818.058 389.008 818.499C388.024 819 386.736 819 384.16 819H306.88C304.303 819 303.015 819 302.031 818.499C301.166 818.058 300.462 817.354 300.021 816.488C299.52 815.504 299.52 814.216 299.52 811.64V784.36Z" fill="#ADB3BC"/>
</g>
<path d="M341.086 804.266C343.969 804.266 345.875 802.422 345.875 799.641V798.266H341.305V799.5H344.469V799.773C344.469 801.68 343.109 802.969 341.094 802.969C338.828 802.969 337.414 801.203 337.414 798.367V798.352C337.414 795.555 338.851 793.758 341.086 793.758C342.765 793.758 343.898 794.555 344.359 796.008L344.383 796.086H345.805L345.789 796.008C345.344 793.867 343.586 792.461 341.086 792.461C338 792.461 335.976 794.797 335.976 798.352V798.367C335.976 801.969 337.969 804.266 341.086 804.266ZM351.336 804.148C353.735 804.148 355.219 802.492 355.219 799.797V799.781C355.219 797.078 353.735 795.43 351.336 795.43C348.938 795.43 347.453 797.078 347.453 799.781V799.797C347.453 802.492 348.938 804.148 351.336 804.148ZM351.336 802.945C349.742 802.945 348.844 801.781 348.844 799.797V799.781C348.844 797.789 349.742 796.633 351.336 796.633C352.93 796.633 353.828 797.789 353.828 799.781V799.797C353.828 801.781 352.93 802.945 351.336 802.945Z" fill="black"/>
<g filter="url(#filter3_d_1668_64367)">
<path fill-rule="evenodd" clip-rule="evenodd" d="M104 784.36C104 781.784 104 780.496 104.501 779.512C104.942 778.646 105.646 777.942 106.512 777.501C107.496 777 108.784 777 111.36 777H285.64C288.216 777 289.504 777 290.488 777.501C291.354 777.942 292.058 778.646 292.499 779.512C293 780.496 293 781.784 293 784.36V811.64C293 814.216 293 815.504 292.499 816.488C292.058 817.354 291.354 818.058 290.488 818.499C289.504 819 288.216 819 285.64 819H111.36C108.784 819 107.496 819 106.512 818.499C105.646 818.058 104.942 817.354 104.501 816.488C104 815.504 104 814.216 104 811.64V784.36Z" fill="#FCFCFE"/>
</g>
<path d="M180.765 804.148C182.679 804.148 184.14 803.109 184.14 801.609V801.594C184.14 800.391 183.374 799.703 181.788 799.32L180.492 799.008C179.499 798.766 179.077 798.406 179.077 797.836V797.82C179.077 797.078 179.812 796.562 180.812 796.562C181.827 796.562 182.484 797.023 182.663 797.688H183.999C183.812 796.312 182.585 795.43 180.82 795.43C179.031 795.43 177.687 796.484 177.687 797.883V797.891C177.687 799.102 178.398 799.789 179.976 800.164L181.281 800.477C182.32 800.727 182.749 801.125 182.749 801.695V801.711C182.749 802.477 181.945 803.016 180.812 803.016C179.734 803.016 179.062 802.555 178.835 801.852H177.445C177.601 803.242 178.89 804.148 180.765 804.148ZM185.929 806.812H187.289V802.672H187.414C187.875 803.57 188.882 804.148 190.039 804.148C192.179 804.148 193.57 802.438 193.57 799.797V799.781C193.57 797.156 192.172 795.43 190.039 795.43C188.867 795.43 187.929 795.984 187.414 796.922H187.289V795.578H185.929V806.812ZM189.726 802.945C188.195 802.945 187.257 801.742 187.257 799.797V799.781C187.257 797.836 188.195 796.633 189.726 796.633C191.265 796.633 192.179 797.82 192.179 799.781V799.797C192.179 801.758 191.265 802.945 189.726 802.945ZM197.688 804.148C198.82 804.148 199.703 803.656 200.234 802.758H200.359V804H201.719V798.234C201.719 796.484 200.57 795.43 198.516 795.43C196.719 795.43 195.438 796.32 195.219 797.641L195.211 797.688H196.57L196.578 797.664C196.797 797.008 197.461 796.633 198.469 796.633C199.727 796.633 200.359 797.195 200.359 798.234V799L197.945 799.148C195.984 799.266 194.875 800.133 194.875 801.633V801.648C194.875 803.18 196.086 804.148 197.688 804.148ZM196.266 801.617V801.602C196.266 800.766 196.828 800.312 198.109 800.234L200.359 800.094V800.859C200.359 802.062 199.352 802.969 197.969 802.969C196.992 802.969 196.266 802.469 196.266 801.617ZM207.328 804.148C209.352 804.148 210.485 803.062 210.828 801.539L210.844 801.453L209.5 801.461L209.485 801.508C209.172 802.445 208.453 802.945 207.321 802.945C205.821 802.945 204.852 801.703 204.852 799.766V799.75C204.852 797.852 205.805 796.633 207.321 796.633C208.532 796.633 209.282 797.305 209.493 798.133L209.5 798.156H210.852L210.844 798.109C210.594 796.609 209.368 795.43 207.321 795.43C204.961 795.43 203.461 797.133 203.461 799.75V799.766C203.461 802.438 204.969 804.148 207.328 804.148ZM215.954 804.148C217.938 804.148 219.141 803.023 219.43 801.883L219.446 801.82H218.087L218.055 801.891C217.829 802.398 217.126 802.938 215.985 802.938C214.485 802.938 213.524 801.922 213.485 800.18H219.548V799.648C219.548 797.133 218.157 795.43 215.868 795.43C213.579 795.43 212.094 797.211 212.094 799.812V799.82C212.094 802.461 213.548 804.148 215.954 804.148ZM215.86 796.641C217.102 796.641 218.024 797.43 218.165 799.094H213.508C213.657 797.492 214.61 796.641 215.86 796.641Z" fill="black"/>
<g filter="url(#filter4_d_1668_64367)">
<path fill-rule="evenodd" clip-rule="evenodd" d="M7.27979 784.36C7.27979 781.784 7.27979 780.496 7.78116 779.512C8.22217 778.646 8.92588 777.942 9.79143 777.501C10.7754 777 12.0635 777 14.6398 777H89.9198C92.496 777 93.7841 777 94.7681 777.501C95.6337 777.942 96.3374 778.646 96.7784 779.512C97.2798 780.496 97.2798 781.784 97.2798 784.36V811.64C97.2798 814.216 97.2798 815.504 96.7784 816.488C96.3374 817.354 95.6337 818.058 94.7681 818.499C93.7841 819 92.496 819 89.9198 819H14.6398C12.0635 819 10.7754 819 9.79143 818.499C8.92588 818.058 8.22217 817.354 7.78116 816.488C7.27979 815.504 7.27979 814.216 7.27979 811.64V784.36Z" fill="#ADB3BC"/>
</g>
<path d="M43.0607 804H44.467V792.727H43.0685L40.0685 794.883V796.367L42.9357 794.289H43.0607V804ZM47.4048 804H54.7017V802.734H49.3579V802.609L51.9204 799.961C53.9595 797.859 54.5142 796.922 54.5142 795.633V795.617C54.5142 793.797 53.0063 792.461 51.0376 792.461C48.8813 792.461 47.3345 793.898 47.3267 795.898L47.3423 795.906L48.686 795.914L48.6938 795.898C48.6938 794.57 49.5923 793.688 50.9438 793.688C52.272 793.688 53.0767 794.578 53.0767 795.766V795.781C53.0767 796.766 52.6548 797.352 51.2173 798.906L47.4048 803.031V804ZM60.577 804.188C62.8348 804.188 64.491 802.797 64.491 800.914V800.898C64.491 799.297 63.3738 798.273 61.7332 798.133V798.102C63.1395 797.805 64.1238 796.852 64.1238 795.461V795.445C64.1238 793.734 62.7098 792.539 60.5613 792.539C58.452 792.539 56.9988 793.766 56.8192 795.602L56.8113 795.68H58.1629L58.1707 795.602C58.2879 794.461 59.2332 793.758 60.5613 793.758C61.9363 793.758 62.7098 794.438 62.7098 795.617V795.633C62.7098 796.758 61.7723 797.586 60.4285 797.586H59.077V798.773H60.491C62.0692 798.773 63.0613 799.547 63.0613 800.93V800.945C63.0613 802.141 62.0535 802.969 60.577 802.969C59.077 802.969 58.0535 802.203 57.9442 801.094L57.9363 801.016H56.5848L56.5926 801.109C56.741 802.891 58.2488 804.188 60.577 804.188Z" fill="black"/>
<g filter="url(#filter5_d_1668_64367)">
<path fill-rule="evenodd" clip-rule="evenodd" d="M347.36 730.36C347.36 727.784 347.36 726.496 347.861 725.512C348.302 724.646 349.006 723.942 349.872 723.501C350.856 723 352.144 723 354.72 723H384C386.576 723 387.864 723 388.848 723.501C389.714 723.942 390.417 724.646 390.858 725.512C391.36 726.496 391.36 727.784 391.36 730.36V757.64C391.36 760.216 391.36 761.504 390.858 762.488C390.417 763.354 389.714 764.058 388.848 764.499C387.864 765 386.576 765 384 765H354.72C352.144 765 350.856 765 349.872 764.499C349.006 764.058 348.302 763.354 347.861 762.488C347.36 761.504 347.36 760.216 347.36 757.64V730.36Z" fill="#ADB3BC"/>
</g>
<path fill-rule="evenodd" clip-rule="evenodd" d="M361.101 739.778C361.086 739.792 361.055 739.82 361.022 739.852C360.997 739.875 360.978 739.894 360.938 739.933L358.709 742.076C358.65 742.134 358.61 742.174 358.516 742.265C358.463 742.315 358.424 742.354 358.341 742.439C358.187 742.582 358.024 742.754 357.872 742.935C357.728 743.081 357.613 743.252 357.533 743.438C357.367 743.922 357.367 744.393 357.514 744.83L357.534 744.88C357.615 745.065 357.729 745.234 357.872 745.379C358.024 745.559 358.187 745.731 358.359 745.893C358.424 745.961 358.463 745.999 358.516 746.05L358.709 746.236L360.741 748.193C360.836 748.284 360.882 748.329 360.937 748.378C360.994 748.437 361.055 748.494 361.115 748.549C361.126 748.559 363.716 751.048 363.716 751.048C363.796 751.124 363.861 751.185 364.006 751.32C364.021 751.334 364.045 751.357 364.052 751.364C364.089 751.402 364.111 751.424 364.125 751.438C364.427 751.729 364.775 751.973 365.155 752.162C365.544 752.348 365.949 752.477 366.367 752.547C366.761 752.609 367.152 752.643 367.544 752.648C367.612 752.649 367.668 752.65 367.792 752.651C367.913 752.652 367.966 752.653 368.031 752.654L375.749 752.654C375.829 752.653 375.882 752.652 376.004 752.651C376.13 752.65 376.187 752.649 376.259 752.648C376.653 752.641 377.047 752.607 377.436 752.545C377.863 752.476 378.274 752.345 378.657 752.158C379.044 751.969 379.396 751.723 379.702 751.427C380.006 751.134 380.261 750.796 380.458 750.427C380.653 750.053 380.787 749.66 380.859 749.254C380.924 748.875 380.959 748.495 380.963 748.113C380.966 748.035 380.968 747.96 380.97 747.794C380.971 747.715 380.972 747.68 380.973 747.638L380.973 740.648C380.972 740.594 380.971 740.559 380.97 740.482L380.969 740.401C380.967 740.3 380.965 740.224 380.962 740.148C380.958 739.789 380.925 739.413 380.863 739.042C380.788 738.63 380.655 738.241 380.466 737.875C380.267 737.502 380.013 737.168 379.711 736.877C379.409 736.584 379.058 736.338 378.674 736.15C378.293 735.967 377.889 735.838 377.473 735.767C377.074 735.706 376.683 735.674 376.29 735.67C376.161 735.664 376.046 735.663 375.792 735.663C375.708 735.662 375.611 735.661 375.501 735.661C375.419 735.66 375.354 735.66 375.206 735.66H368.63C368.335 735.66 368.202 735.661 368.034 735.663C367.79 735.663 367.675 735.664 367.527 735.67C367.154 735.674 366.763 735.706 366.376 735.766C365.949 735.838 365.544 735.966 365.164 736.148C364.775 736.342 364.427 736.586 364.125 736.877C364.111 736.891 364.089 736.912 364.053 736.949C364.045 736.958 364.006 736.995 364.006 736.995C363.861 737.13 363.796 737.19 363.716 737.267L363.382 737.588L361.162 739.726C361.143 739.741 361.122 739.759 361.101 739.778ZM375.206 736.919C375.352 736.919 375.416 736.919 375.496 736.919C375.6 736.92 375.692 736.921 375.781 736.922C376.028 736.922 376.132 736.923 376.256 736.928C376.603 736.932 376.932 736.959 377.257 737.009C377.537 737.057 377.819 737.147 378.084 737.274C378.34 737.4 378.578 737.566 378.783 737.765C378.991 737.965 379.164 738.193 379.297 738.443C379.426 738.693 379.52 738.967 379.572 739.25C379.622 739.551 379.65 739.866 379.654 740.181C379.657 740.262 379.658 740.328 379.66 740.42L379.661 740.498C379.662 740.579 379.663 740.615 379.664 740.661L379.663 747.625C379.663 747.659 379.662 747.696 379.661 747.778C379.659 747.933 379.658 748 379.654 748.082C379.65 748.417 379.621 748.733 379.568 749.046C379.518 749.326 379.424 749.601 379.291 749.859C379.159 750.106 378.983 750.337 378.774 750.539C378.566 750.74 378.327 750.908 378.064 751.036C377.799 751.166 377.514 751.256 377.221 751.304C376.897 751.355 376.566 751.384 376.235 751.389C376.167 751.391 376.113 751.391 375.991 751.392C375.865 751.394 375.809 751.394 375.736 751.396L368.044 751.396C367.986 751.394 367.93 751.394 367.806 751.392C367.685 751.391 367.632 751.391 367.567 751.389C367.235 751.385 366.909 751.357 366.586 751.306C366.299 751.258 366.014 751.168 365.747 751.04C365.496 750.915 365.258 750.747 365.051 750.548L365 750.496C364.949 750.445 364.927 750.423 364.902 750.402C364.772 750.281 364.712 750.225 364.642 750.157L362.047 747.662L362.046 747.661L362.046 747.661C362.022 747.641 362.008 747.628 361.999 747.62C361.952 747.577 361.913 747.539 361.877 747.502C361.802 747.433 361.761 747.394 361.667 747.303L359.635 745.346L359.441 745.16C359.401 745.121 359.369 745.089 359.295 745.013C359.133 744.86 358.998 744.717 358.872 744.567L358.832 744.524C358.799 744.491 358.772 744.454 358.751 744.413C358.701 744.245 358.701 744.067 358.751 743.899C358.771 743.86 358.797 743.825 358.829 743.794L358.874 743.745C358.998 743.596 359.132 743.455 359.275 743.321C359.369 743.226 359.401 743.193 359.441 743.155C359.543 743.056 359.589 743.012 359.646 742.954L361.667 741.012L361.863 740.823C361.902 740.785 361.919 740.769 361.94 740.749L361.984 740.712C362.015 740.684 362.032 740.669 362.05 740.653L364.308 738.478L364.642 738.157C364.712 738.089 364.772 738.034 364.902 737.913C364.927 737.891 364.949 737.869 364.999 737.82L365.051 737.767C365.258 737.567 365.496 737.4 365.757 737.27C366.014 737.147 366.299 737.057 366.593 737.007C366.907 736.959 367.234 736.932 367.561 736.928C367.704 736.923 367.808 736.922 368.044 736.922C368.214 736.92 368.343 736.919 368.63 736.919H375.206ZM369.005 747.489C368.952 747.539 368.889 747.579 368.818 747.608C368.597 747.695 368.344 747.646 368.175 747.484C367.947 747.263 367.947 746.905 368.175 746.684C368.209 746.652 368.245 746.624 368.285 746.601L370.826 744.155L368.175 741.608L368.183 741.6C368.131 741.549 368.089 741.489 368.06 741.42C367.969 741.208 368.019 740.964 368.189 740.802C368.418 740.582 368.79 740.582 369.02 740.802C369.053 740.835 369.082 740.87 369.106 740.907L371.656 743.356L374.231 740.878C374.25 740.851 374.272 740.826 374.296 740.802C374.463 740.641 374.716 740.592 374.936 740.679C375.155 740.766 375.299 740.972 375.299 741.201C375.299 741.353 375.235 741.495 375.127 741.599L375.134 741.605L372.487 744.153L375.07 746.633C375.093 746.649 375.116 746.667 375.137 746.687C375.305 746.849 375.356 747.092 375.265 747.303C375.175 747.514 374.961 747.652 374.723 747.652C374.565 747.652 374.417 747.59 374.309 747.487L374.302 747.493L371.657 744.952L369.013 747.496L369.005 747.489Z" fill="black"/>
<g filter="url(#filter6_d_1668_64367)">
<rect x="7.27979" y="723" width="44" height="42" rx="4.6" fill="#FCFCFE"/>
</g>
<path d="M38.2719 745.664H33.907V749.634C33.907 749.714 33.907 749.787 33.907 749.864C33.907 749.93 33.907 749.994 33.9042 750.06C33.9023 750.203 33.8894 750.346 33.8657 750.487C33.8399 750.627 33.7932 750.763 33.7271 750.89C33.6594 751.017 33.5709 751.133 33.4651 751.233C33.3587 751.333 33.2373 751.418 33.1049 751.483C32.9709 751.546 32.8285 751.591 32.6818 751.616C32.5346 751.639 32.386 751.651 32.2371 751.653C32.1678 751.653 32.1005 751.656 32.0326 751.656H26.4175C26.3482 751.656 26.2813 751.653 26.213 751.653C26.0641 751.651 25.9155 751.639 25.7684 751.616C25.6218 751.591 25.4795 751.546 25.3455 751.483C25.2131 751.418 25.0918 751.333 24.9854 751.233C24.8795 751.133 24.7911 751.017 24.7234 750.89C24.6573 750.763 24.6106 750.627 24.5848 750.487C24.5609 750.346 24.548 750.203 24.546 750.06C24.546 749.994 24.5432 749.93 24.5432 749.864C24.5432 749.787 24.5432 749.714 24.5432 749.634V745.664H20.1093C19.6608 745.664 19.0855 744.735 19.6241 744.218C20.0819 743.782 27.2778 736.883 28.7837 735.447C28.8943 735.316 29.0507 735.228 29.2235 735.2H29.2353C29.3848 735.208 29.5237 735.277 29.6165 735.39C31.1225 736.826 38.3429 743.782 38.8011 744.218C39.3401 744.735 38.8888 745.664 38.2719 745.664Z" fill="black"/>
<g filter="url(#filter7_d_1668_64367)">
<rect x="300.56" y="723" width="33" height="42" rx="4.6" fill="#FCFCFE"/>
</g>
<path d="M308.989 752H310.834V739.893H310.955L315.965 752H317.635L322.645 739.893H322.765V752H324.611V736.147H322.315L316.888 749.374H316.712L311.285 736.147H308.989V752Z" fill="black"/>
<g filter="url(#filter8_d_1668_64367)">
<rect x="261.04" y="723" width="33" height="42" rx="4.6" fill="#FCFCFE"/>
</g>
<path d="M271.532 752H273.487V739.706H273.663L282.265 752H284.188V736.147H282.232V748.484H282.057L273.454 736.147H271.532V752Z" fill="black"/>
<g filter="url(#filter9_d_1668_64367)">
<rect x="221.52" y="723" width="33" height="42" rx="4.6" fill="#FCFCFE"/>
</g>
<path d="M233.008 752H239.193C242.566 752 244.565 750.341 244.565 747.562V747.54C244.565 745.452 243.192 743.969 241.028 743.694V743.519C242.555 743.244 243.763 741.75 243.763 740.113V740.091C243.763 737.674 241.983 736.147 239.072 736.147H233.008V752ZM238.655 737.894C240.621 737.894 241.764 738.827 241.764 740.431V740.453C241.764 742.123 240.544 742.98 238.149 742.98H234.985V737.894H238.655ZM238.709 744.683C241.236 744.683 242.533 745.617 242.533 747.441V747.463C242.533 749.286 241.28 750.253 238.896 750.253H234.985V744.683H238.709Z" fill="black"/>
<g filter="url(#filter10_d_1668_64367)">
<rect x="183.04" y="723" width="33" height="42" rx="4.6" fill="#FCFCFE"/>
</g>
<path d="M198.382 752H200.337L206.182 736.147H204.105L199.447 749.44H199.271L194.613 736.147H192.537L198.382 752Z" fill="black"/>
<g filter="url(#filter11_d_1668_64367)">
<rect x="143.52" y="723" width="33" height="42" rx="4.6" fill="#FCFCFE"/>
</g>
<path d="M160.691 752.374C164.064 752.374 166.569 750.495 167.096 747.594V747.573H165.097L165.075 747.594C164.581 749.418 162.9 750.55 160.691 750.55C157.637 750.55 155.726 748.056 155.726 744.09V744.068C155.726 740.102 157.637 737.597 160.68 737.597C162.867 737.597 164.559 738.882 165.086 740.915L165.097 740.937H167.085L167.096 740.915C166.624 737.872 164.02 735.773 160.68 735.773C156.374 735.773 153.693 738.959 153.693 744.068V744.09C153.693 749.188 156.385 752.374 160.691 752.374Z" fill="black"/>
<g filter="url(#filter12_d_1668_64367)">
<rect x="105.04" y="723" width="33" height="42" rx="4.6" fill="#FCFCFE"/>
</g>
<path d="M114.702 752H116.943L121.217 745.672H121.282L125.501 752H127.874L122.513 744.134V744.09L127.995 736.147H125.743L121.458 742.53H121.392L117.152 736.147H114.768L120.107 743.991V744.035L114.702 752Z" fill="black"/>
<g filter="url(#filter13_d_1668_64367)">
<rect x="65.52" y="723" width="33" height="42" rx="4.6" fill="#FCFCFE"/>
</g>
<path d="M76.5132 752H88.2356V750.22H79.1169V750.044L88.0488 737.553V736.147H76.8208V737.927H85.489V738.102L76.5132 750.594V752Z" fill="black"/>
<g filter="url(#filter14_d_1668_64367)">
<rect x="339.04" y="669" width="33" height="42" rx="4.6" fill="#FCFCFE"/>
</g>
<path d="M351.567 698H361.191V696.22H353.545V682.147H351.567V698Z" fill="black"/>
<g filter="url(#filter15_d_1668_64367)">
<rect x="299.52" y="669" width="33" height="42" rx="4.6" fill="#FCFCFE"/>
</g>
<path d="M310.985 698H312.963V692.463L314.863 690.365L320.587 698H323.147L316.226 688.991L322.565 682.147H320.082L313.138 689.848H312.963V682.147H310.985V698Z" fill="black"/>
<g filter="url(#filter16_d_1668_64367)">
<rect x="261.04" y="669" width="33" height="42" rx="4.6" fill="#FCFCFE"/>
</g>
<path d="M277.303 698.374C280.236 698.374 281.972 696.594 281.972 693.594V682.147H279.994V693.573C279.994 695.506 279.05 696.55 277.292 696.55C275.721 696.55 274.941 695.55 274.82 694.353L274.809 694.243H272.831L272.842 694.396C273.007 696.671 274.556 698.374 277.303 698.374Z" fill="black"/>
<g filter="url(#filter17_d_1668_64367)">
<rect x="221.52" y="669" width="33" height="42" rx="4.6" fill="#FCFCFE"/>
</g>
<path d="M232.012 698H233.989V690.782H242.69V698H244.668V682.147H242.69V689.002H233.989V682.147H232.012V698Z" fill="black"/>
<g filter="url(#filter18_d_1668_64367)">
<rect x="183.04" y="669" width="33" height="42" rx="4.6" fill="#FCFCFE"/>
</g>
<path d="M200.046 698.374C204.1 698.374 206.781 695.781 206.781 691.87V689.936H200.354V691.672H204.803V692.056C204.803 694.737 202.892 696.55 200.057 696.55C196.871 696.55 194.883 694.067 194.883 690.079V690.057C194.883 686.124 196.904 683.597 200.046 683.597C202.408 683.597 204.001 684.718 204.649 686.761L204.682 686.871H206.682L206.66 686.761C206.034 683.751 203.562 681.773 200.046 681.773C195.707 681.773 192.861 685.058 192.861 690.057V690.079C192.861 695.144 195.663 698.374 200.046 698.374Z" fill="black"/>
<g filter="url(#filter19_d_1668_64367)">
<rect x="143.52" y="669" width="33" height="42" rx="4.6" fill="#FCFCFE"/>
</g>
<path d="M156.003 698H157.981V691.134H165.001V689.376H157.981V683.927H165.627V682.147H156.003V698Z" fill="black"/>
<g filter="url(#filter20_d_1668_64367)">
<rect x="105.04" y="669" width="33" height="42" rx="4.6" fill="#FCFCFE"/>
</g>
<path d="M115.707 698H121.145C125.858 698 128.627 695.067 128.627 690.079V690.057C128.627 685.08 125.847 682.147 121.145 682.147H115.707V698ZM117.685 696.22V683.927H121.013C124.529 683.927 126.605 686.212 126.605 690.079V690.101C126.605 693.957 124.551 696.22 121.013 696.22H117.685Z" fill="black"/>
<g filter="url(#filter21_d_1668_64367)">
<rect x="65.52" y="669" width="33" height="42" rx="4.6" fill="#FCFCFE"/>
</g>
<path d="M82.4238 698.374C85.9614 698.374 88.2795 696.528 88.2795 693.562V693.551C88.2795 691.265 86.9722 689.936 83.6653 689.2L81.9075 688.804C79.7542 688.332 78.8862 687.475 78.8862 686.212V686.201C78.8862 684.542 80.4133 683.608 82.3909 683.597C84.4563 683.586 85.7747 684.619 85.9944 686.014L86.0164 686.157H87.9939L87.9829 686.003C87.8181 683.641 85.6099 681.773 82.4458 681.773C79.1719 681.773 76.8757 683.63 76.8647 686.256V686.267C76.8647 688.563 78.238 690.024 81.4131 690.727L83.1709 691.112C85.3462 691.595 86.2581 692.496 86.2581 693.814V693.825C86.2581 695.44 84.687 696.55 82.5337 696.55C80.2485 696.55 78.6006 695.55 78.4578 693.968L78.4468 693.847H76.4692L76.4802 693.968C76.7109 696.55 78.9521 698.374 82.4238 698.374Z" fill="black"/>
<g filter="url(#filter22_d_1668_64367)">
<rect x="27.0396" y="669" width="33" height="42" rx="4.6" fill="#FCFCFE"/>
</g>
<path d="M36.5369 698H38.6133L40.2063 693.463H46.5125L48.1055 698H50.1819L44.3372 682.147H42.3816L36.5369 698ZM43.2715 684.707H43.4473L45.9302 691.782H40.7886L43.2715 684.707Z" fill="black"/>
<g filter="url(#filter23_d_1668_64367)">
<rect x="357.76" y="615" width="33" height="42" rx="4.6" fill="#FCFCFE"/>
</g>
<path d="M369.489 644H371.467V638.342H375.466C378.443 638.342 380.552 636.244 380.552 633.233V633.211C380.552 630.201 378.443 628.147 375.466 628.147H369.489V644ZM374.96 629.905C377.223 629.905 378.531 631.146 378.531 633.233V633.255C378.531 635.343 377.223 636.584 374.96 636.584H371.467V629.905H374.96Z" fill="black"/>
<g filter="url(#filter24_d_1668_64367)">
<rect x="319.28" y="615" width="33" height="42" rx="4.6" fill="#FCFCFE"/>
</g>
<path d="M335.56 644.374C340.086 644.374 342.833 641.133 342.833 636.079V636.057C342.833 630.981 340.064 627.773 335.56 627.773C331.077 627.773 328.287 630.97 328.287 636.057V636.079C328.287 641.144 331.011 644.374 335.56 644.374ZM335.56 642.55C332.264 642.55 330.308 640.001 330.308 636.079V636.057C330.308 632.102 332.33 629.597 335.56 629.597C338.801 629.597 340.811 632.102 340.811 636.057V636.079C340.811 640.001 338.812 642.55 335.56 642.55Z" fill="black"/>
<g filter="url(#filter25_d_1668_64367)">
<rect x="279.76" y="615" width="33" height="42" rx="4.6" fill="#FCFCFE"/>
</g>
<path d="M295.791 644H297.769V628.147H295.791V644Z" fill="black"/>
<g filter="url(#filter26_d_1668_64367)">
<rect x="241.28" y="615" width="33" height="42" rx="4.6" fill="#FCFCFE"/>
</g>
<path d="M258.111 644.374C262.044 644.374 264.395 642 264.395 638.551V628.147H262.417V638.419C262.417 640.858 260.857 642.55 258.111 642.55C255.364 642.55 253.782 640.858 253.782 638.419V628.147H251.804V638.551C251.804 642 254.177 644.374 258.111 644.374Z" fill="black"/>
<g filter="url(#filter27_d_1668_64367)">
<rect x="201.76" y="615" width="33" height="42" rx="4.6" fill="#FCFCFE"/>
</g>
<path d="M217.631 644H219.608V637.177L225.233 628.147H222.981L218.708 635.189H218.532L214.258 628.147H212.006L217.631 637.177V644Z" fill="black"/>
<g filter="url(#filter28_d_1668_64367)">
<rect x="163.28" y="615" width="33" height="42" rx="4.6" fill="#FCFCFE"/>
</g>
<path d="M179.151 644H181.128V629.927H186.237V628.147H174.042V629.927H179.151V644Z" fill="black"/>
<g filter="url(#filter29_d_1668_64367)">
<rect x="123.76" y="615" width="33" height="42" rx="4.6" fill="#FCFCFE"/>
</g>
<path d="M135.291 644H137.269V637.727H141.169L144.564 644H146.882L143.212 637.419C145.201 636.793 146.398 635.079 146.398 632.882V632.86C146.398 630.014 144.399 628.147 141.345 628.147H135.291V644ZM137.269 635.969V629.905H141.081C143.125 629.905 144.355 631.036 144.355 632.926V632.948C144.355 634.881 143.201 635.969 141.169 635.969H137.269Z" fill="black"/>
<g filter="url(#filter30_d_1668_64367)">
<rect x="85.2798" y="615" width="33" height="42" rx="4.6" fill="#FCFCFE"/>
</g>
<path d="M96.9595 644H106.781V642.22H98.937V636.771H106.375V635.013H98.937V629.927H106.781V628.147H96.9595V644Z" fill="black"/>
<g filter="url(#filter31_d_1668_64367)">
<rect x="45.7598" y="615" width="33" height="42" rx="4.6" fill="#FCFCFE"/>
</g>
<path d="M56.3789 644H58.2466L61.894 631.487H62.0259L65.6733 644H67.541L71.8586 628.147H69.7932L66.6401 641.034H66.5083L62.9597 628.147H60.9602L57.4116 641.034H57.2798L54.1267 628.147H52.0613L56.3789 644Z" fill="black"/>
<g filter="url(#filter32_d_1668_64367)">
<rect x="7.27979" y="615" width="33" height="42" rx="4.6" fill="#FCFCFE"/>
</g>
<path d="M23.5596 644.374C24.6252 644.374 25.592 644.198 26.46 643.846L27.8662 645.791H30.0854L28.02 642.956C29.8218 641.539 30.8325 639.144 30.8325 636.079V636.057C30.8325 630.981 28.064 627.773 23.5596 627.773C19.0771 627.773 16.2866 630.97 16.2866 636.057V636.079C16.2866 641.144 19.0112 644.374 23.5596 644.374ZM23.5596 642.55C20.2637 642.55 18.3081 640.001 18.3081 636.079V636.057C18.3081 632.102 20.3296 629.597 23.5596 629.597C26.8005 629.597 28.811 632.102 28.811 636.057V636.079C28.811 638.397 28.1079 640.243 26.8665 641.363L25.4822 639.463H23.2629L25.3064 642.275C24.7791 642.451 24.1858 642.55 23.5596 642.55Z" fill="black"/>
</g>
<g clip-path="url(#clip1_1668_64367)">
<path d="M113 -2H277C275.396 -1.36663 274.327 0.165139 274.286 1.88899L274.242 3.74719C274.242 17.6939 262.936 29 248.989 29H141.011C127.064 29 115.758 17.6939 115.758 3.74719L115.714 1.88899C115.673 0.165139 114.604 -1.36663 113 -2Z" fill="black"/>
<path opacity="0.35" d="M344.5 19.9997C344.5 18.8031 345.47 17.833 346.667 17.833H363.333C364.53 17.833 365.5 18.8031 365.5 19.9997V25.9997C365.5 27.1963 364.53 28.1663 363.333 28.1663H346.667C345.47 28.1663 344.5 27.1963 344.5 25.9997V19.9997Z" stroke="black"/>
<path opacity="0.4" d="M367 21V25C367.805 24.6612 368.328 23.8731 368.328 23C368.328 22.1269 367.805 21.3388 367 21Z" fill="black"/>
<path d="M346 20.433C346 19.8255 346.492 19.333 347.1 19.333H362.9C363.508 19.333 364 19.8255 364 20.433V25.5663C364 26.1739 363.508 26.6663 362.9 26.6663H347.1C346.492 26.6663 346 26.1739 346 25.5663V20.433Z" fill="black"/>
<path fill-rule="evenodd" clip-rule="evenodd" d="M331.33 19.6074C333.546 19.6075 335.678 20.4589 337.283 21.9857C337.404 22.1036 337.598 22.1021 337.717 21.9824L338.873 20.8157C338.933 20.755 338.967 20.6728 338.966 20.5872C338.966 20.5016 338.931 20.4198 338.87 20.3597C334.655 16.3202 328.005 16.3202 323.79 20.3597C323.729 20.4197 323.694 20.5015 323.694 20.5871C323.693 20.6727 323.727 20.755 323.787 20.8157L324.943 21.9824C325.062 22.1023 325.256 22.1038 325.377 21.9857C326.983 20.4588 329.114 19.6074 331.33 19.6074ZM331.33 23.4031C332.548 23.403 333.722 23.8555 334.624 24.6727C334.747 24.7887 334.939 24.7862 335.058 24.6671L336.212 23.5004C336.273 23.4392 336.307 23.3562 336.306 23.2699C336.305 23.1837 336.27 23.1014 336.208 23.0414C333.46 20.485 329.204 20.485 326.455 23.0414C326.393 23.1014 326.358 23.1837 326.357 23.27C326.356 23.3563 326.39 23.4393 326.451 23.5004L327.605 24.6671C327.724 24.7862 327.917 24.7887 328.039 24.6727C328.941 23.8561 330.114 23.4036 331.33 23.4031ZM333.643 25.9569C333.645 26.0434 333.611 26.1268 333.549 26.1874L331.552 28.2031C331.494 28.2623 331.414 28.2957 331.33 28.2957C331.247 28.2957 331.167 28.2623 331.109 28.2031L329.111 26.1874C329.049 26.1268 329.015 26.0433 329.017 25.9568C329.019 25.8703 329.057 25.7884 329.121 25.7304C330.396 24.6515 332.265 24.6515 333.54 25.7304C333.604 25.7884 333.642 25.8704 333.643 25.9569Z" fill="black"/>
<path fill-rule="evenodd" clip-rule="evenodd" d="M317.667 17.666H316.667C316.115 17.666 315.667 18.1137 315.667 18.666V27.3327C315.667 27.885 316.115 28.3327 316.667 28.3327H317.667C318.219 28.3327 318.667 27.885 318.667 27.3327V18.666C318.667 18.1137 318.219 17.666 317.667 17.666ZM312 19.9993H313C313.553 19.9993 314 20.4471 314 20.9993V27.3327C314 27.885 313.553 28.3327 313 28.3327H312C311.448 28.3327 311 27.885 311 27.3327V20.9993C311 20.4471 311.448 19.9993 312 19.9993ZM308.334 22.3327H307.334C306.781 22.3327 306.334 22.7804 306.334 23.3327V27.3327C306.334 27.885 306.781 28.3327 307.334 28.3327H308.334C308.886 28.3327 309.334 27.885 309.334 27.3327V23.3327C309.334 22.7804 308.886 22.3327 308.334 22.3327ZM303.667 24.3327H302.667C302.115 24.3327 301.667 24.7804 301.667 25.3327V27.3327C301.667 27.885 302.115 28.3327 302.667 28.3327H303.667C304.219 28.3327 304.667 27.885 304.667 27.3327V25.3327C304.667 24.7804 304.219 24.3327 303.667 24.3327Z" fill="black"/>
<path d="M42.5146 17.1675C40.2222 17.1675 38.5889 18.7349 38.5889 20.8809V20.8955C38.5889 22.9023 40.0098 24.3818 42.0386 24.3818C43.4888 24.3818 44.4116 23.6421 44.7998 22.8071H44.9463C44.9463 22.8877 44.939 22.9683 44.939 23.0488C44.8584 25.0703 44.1479 26.7109 42.4707 26.7109C41.5405 26.7109 40.8887 26.2275 40.6104 25.4878L40.5884 25.4146H38.728L38.7427 25.4951C39.0796 27.1138 40.5298 28.2637 42.4707 28.2637C45.1294 28.2637 46.7334 26.1543 46.7334 22.5947V22.5801C46.7334 18.7715 44.7705 17.1675 42.5146 17.1675ZM42.5073 22.9316C41.3062 22.9316 40.4346 22.0527 40.4346 20.8296V20.8149C40.4346 19.6357 41.3647 18.7056 42.5293 18.7056C43.7012 18.7056 44.6167 19.6504 44.6167 20.8589V20.8735C44.6167 22.0674 43.7012 22.9316 42.5073 22.9316ZM49.5586 21.1519C50.2324 21.1519 50.7231 20.6392 50.7231 19.9946C50.7231 19.3428 50.2324 18.8374 49.5586 18.8374C48.8921 18.8374 48.394 19.3428 48.394 19.9946C48.394 20.6392 48.8921 21.1519 49.5586 21.1519ZM49.5586 26.5864C50.2324 26.5864 50.7231 26.0811 50.7231 25.4292C50.7231 24.7773 50.2324 24.272 49.5586 24.272C48.8921 24.272 48.394 24.7773 48.394 25.4292C48.394 26.0811 48.8921 26.5864 49.5586 26.5864ZM57.5107 28H59.3198V25.9712H60.7407V24.4111H59.3198V17.4312H56.6465C55.2109 19.6138 53.7095 22.0454 52.3398 24.4258V25.9712H57.5107V28ZM54.0977 24.4551V24.3452C55.123 22.5508 56.3462 20.5952 57.4302 18.9399H57.54V24.4551H54.0977ZM64.6206 28H66.5103V17.4312H64.6279L61.8667 19.3721V21.1519L64.4961 19.2915H64.6206V28Z" fill="black"/>
</g>
<path d="M128 833.5C128 832.119 129.119 831 130.5 831H259.5C260.881 831 262 832.119 262 833.5C262 834.881 260.881 836 259.5 836H130.5C129.119 836 128 834.881 128 833.5Z" fill="black"/>
</g>
<defs>
<filter id="filter0_d_1668_64367" x="30" y="345" width="318" height="58" filterUnits="userSpaceOnUse" color-interpolation-filters="sRGB">
<feFlood flood-opacity="0" result="BackgroundImageFix"/>
<feColorMatrix in="SourceAlpha" type="matrix" values="0 0 0 0 0 0 0 0 0 0 0 0 0 0 0 0 0 0 127 0" result="hardAlpha"/>
<feOffset dy="4"/>
<feGaussianBlur stdDeviation="4.5"/>
<feComposite in2="hardAlpha" operator="out"/>
<feColorMatrix type="matrix" values="0 0 0 0 0.109804 0 0 0 0 0.470588 0 0 0 0 1 0 0 0 0.5 0"/>
<feBlend mode="normal" in2="BackgroundImageFix" result="effect1_dropShadow_1668_64367"/>
<feBlend mode="normal" in="SourceGraphic" in2="effect1_dropShadow_1668_64367" result="shape"/>
</filter>
<filter id="filter1_b_1668_64367" x="-108.731" y="474.269" width="608.982" height="508.463" filterUnits="userSpaceOnUse" color-interpolation-filters="sRGB">
<feFlood flood-opacity="0" result="BackgroundImageFix"/>
<feGaussianBlur in="BackgroundImageFix" stdDeviation="54.3656"/>
<feComposite in2="SourceAlpha" operator="in" result="effect1_backgroundBlur_1668_64367"/>
<feBlend mode="normal" in="SourceGraphic" in2="effect1_backgroundBlur_1668_64367" result="shape"/>
</filter>
<filter id="filter2_d_1668_64367" x="299.52" y="777" width="92" height="43" filterUnits="userSpaceOnUse" color-interpolation-filters="sRGB">
<feFlood flood-opacity="0" result="BackgroundImageFix"/>
<feColorMatrix in="SourceAlpha" type="matrix" values="0 0 0 0 0 0 0 0 0 0 0 0 0 0 0 0 0 0 127 0" result="hardAlpha"/>
<feOffset dy="1"/>
<feColorMatrix type="matrix" values="0 0 0 0 0.537255 0 0 0 0 0.541176 0 0 0 0 0.552941 0 0 0 1 0"/>
<feBlend mode="normal" in2="BackgroundImageFix" result="effect1_dropShadow_1668_64367"/>
<feBlend mode="normal" in="SourceGraphic" in2="effect1_dropShadow_1668_64367" result="shape"/>
</filter>
<filter id="filter3_d_1668_64367" x="104" y="777" width="189" height="43" filterUnits="userSpaceOnUse" color-interpolation-filters="sRGB">
<feFlood flood-opacity="0" result="BackgroundImageFix"/>
<feColorMatrix in="SourceAlpha" type="matrix" values="0 0 0 0 0 0 0 0 0 0 0 0 0 0 0 0 0 0 127 0" result="hardAlpha"/>
<feOffset dy="1"/>
<feColorMatrix type="matrix" values="0 0 0 0 0.537255 0 0 0 0 0.541176 0 0 0 0 0.552941 0 0 0 1 0"/>
<feBlend mode="normal" in2="BackgroundImageFix" result="effect1_dropShadow_1668_64367"/>
<feBlend mode="normal" in="SourceGraphic" in2="effect1_dropShadow_1668_64367" result="shape"/>
</filter>
<filter id="filter4_d_1668_64367" x="7.27979" y="777" width="90" height="43" filterUnits="userSpaceOnUse" color-interpolation-filters="sRGB">
<feFlood flood-opacity="0" result="BackgroundImageFix"/>
<feColorMatrix in="SourceAlpha" type="matrix" values="0 0 0 0 0 0 0 0 0 0 0 0 0 0 0 0 0 0 127 0" result="hardAlpha"/>
<feOffset dy="1"/>
<feColorMatrix type="matrix" values="0 0 0 0 0.537255 0 0 0 0 0.541176 0 0 0 0 0.552941 0 0 0 1 0"/>
<feBlend mode="normal" in2="BackgroundImageFix" result="effect1_dropShadow_1668_64367"/>
<feBlend mode="normal" in="SourceGraphic" in2="effect1_dropShadow_1668_64367" result="shape"/>
</filter>
<filter id="filter5_d_1668_64367" x="347.36" y="723" width="44" height="43" filterUnits="userSpaceOnUse" color-interpolation-filters="sRGB">
<feFlood flood-opacity="0" result="BackgroundImageFix"/>
<feColorMatrix in="SourceAlpha" type="matrix" values="0 0 0 0 0 0 0 0 0 0 0 0 0 0 0 0 0 0 127 0" result="hardAlpha"/>
<feOffset dy="1"/>
<feColorMatrix type="matrix" values="0 0 0 0 0.537255 0 0 0 0 0.541176 0 0 0 0 0.552941 0 0 0 1 0"/>
<feBlend mode="normal" in2="BackgroundImageFix" result="effect1_dropShadow_1668_64367"/>
<feBlend mode="normal" in="SourceGraphic" in2="effect1_dropShadow_1668_64367" result="shape"/>
</filter>
<filter id="filter6_d_1668_64367" x="7.27979" y="723" width="44" height="43" filterUnits="userSpaceOnUse" color-interpolation-filters="sRGB">
<feFlood flood-opacity="0" result="BackgroundImageFix"/>
<feColorMatrix in="SourceAlpha" type="matrix" values="0 0 0 0 0 0 0 0 0 0 0 0 0 0 0 0 0 0 127 0" result="hardAlpha"/>
<feOffset dy="1"/>
<feColorMatrix type="matrix" values="0 0 0 0 0.537255 0 0 0 0 0.541176 0 0 0 0 0.552941 0 0 0 1 0"/>
<feBlend mode="normal" in2="BackgroundImageFix" result="effect1_dropShadow_1668_64367"/>
<feBlend mode="normal" in="SourceGraphic" in2="effect1_dropShadow_1668_64367" result="shape"/>
</filter>
<filter id="filter7_d_1668_64367" x="300.56" y="723" width="33" height="43" filterUnits="userSpaceOnUse" color-interpolation-filters="sRGB">
<feFlood flood-opacity="0" result="BackgroundImageFix"/>
<feColorMatrix in="SourceAlpha" type="matrix" values="0 0 0 0 0 0 0 0 0 0 0 0 0 0 0 0 0 0 127 0" result="hardAlpha"/>
<feOffset dy="1"/>
<feColorMatrix type="matrix" values="0 0 0 0 0.537255 0 0 0 0 0.541176 0 0 0 0 0.552941 0 0 0 1 0"/>
<feBlend mode="normal" in2="BackgroundImageFix" result="effect1_dropShadow_1668_64367"/>
<feBlend mode="normal" in="SourceGraphic" in2="effect1_dropShadow_1668_64367" result="shape"/>
</filter>
<filter id="filter8_d_1668_64367" x="261.04" y="723" width="33" height="43" filterUnits="userSpaceOnUse" color-interpolation-filters="sRGB">
<feFlood flood-opacity="0" result="BackgroundImageFix"/>
<feColorMatrix in="SourceAlpha" type="matrix" values="0 0 0 0 0 0 0 0 0 0 0 0 0 0 0 0 0 0 127 0" result="hardAlpha"/>
<feOffset dy="1"/>
<feColorMatrix type="matrix" values="0 0 0 0 0.537255 0 0 0 0 0.541176 0 0 0 0 0.552941 0 0 0 1 0"/>
<feBlend mode="normal" in2="BackgroundImageFix" result="effect1_dropShadow_1668_64367"/>
<feBlend mode="normal" in="SourceGraphic" in2="effect1_dropShadow_1668_64367" result="shape"/>
</filter>
<filter id="filter9_d_1668_64367" x="221.52" y="723" width="33" height="43" filterUnits="userSpaceOnUse" color-interpolation-filters="sRGB">
<feFlood flood-opacity="0" result="BackgroundImageFix"/>
<feColorMatrix in="SourceAlpha" type="matrix" values="0 0 0 0 0 0 0 0 0 0 0 0 0 0 0 0 0 0 127 0" result="hardAlpha"/>
<feOffset dy="1"/>
<feColorMatrix type="matrix" values="0 0 0 0 0.537255 0 0 0 0 0.541176 0 0 0 0 0.552941 0 0 0 1 0"/>
<feBlend mode="normal" in2="BackgroundImageFix" result="effect1_dropShadow_1668_64367"/>
<feBlend mode="normal" in="SourceGraphic" in2="effect1_dropShadow_1668_64367" result="shape"/>
</filter>
<filter id="filter10_d_1668_64367" x="183.04" y="723" width="33" height="43" filterUnits="userSpaceOnUse" color-interpolation-filters="sRGB">
<feFlood flood-opacity="0" result="BackgroundImageFix"/>
<feColorMatrix in="SourceAlpha" type="matrix" values="0 0 0 0 0 0 0 0 0 0 0 0 0 0 0 0 0 0 127 0" result="hardAlpha"/>
<feOffset dy="1"/>
<feColorMatrix type="matrix" values="0 0 0 0 0.537255 0 0 0 0 0.541176 0 0 0 0 0.552941 0 0 0 1 0"/>
<feBlend mode="normal" in2="BackgroundImageFix" result="effect1_dropShadow_1668_64367"/>
<feBlend mode="normal" in="SourceGraphic" in2="effect1_dropShadow_1668_64367" result="shape"/>
</filter>
<filter id="filter11_d_1668_64367" x="143.52" y="723" width="33" height="43" filterUnits="userSpaceOnUse" color-interpolation-filters="sRGB">
<feFlood flood-opacity="0" result="BackgroundImageFix"/>
<feColorMatrix in="SourceAlpha" type="matrix" values="0 0 0 0 0 0 0 0 0 0 0 0 0 0 0 0 0 0 127 0" result="hardAlpha"/>
<feOffset dy="1"/>
<feColorMatrix type="matrix" values="0 0 0 0 0.537255 0 0 0 0 0.541176 0 0 0 0 0.552941 0 0 0 1 0"/>
<feBlend mode="normal" in2="BackgroundImageFix" result="effect1_dropShadow_1668_64367"/>
<feBlend mode="normal" in="SourceGraphic" in2="effect1_dropShadow_1668_64367" result="shape"/>
</filter>
<filter id="filter12_d_1668_64367" x="105.04" y="723" width="33" height="43" filterUnits="userSpaceOnUse" color-interpolation-filters="sRGB">
<feFlood flood-opacity="0" result="BackgroundImageFix"/>
<feColorMatrix in="SourceAlpha" type="matrix" values="0 0 0 0 0 0 0 0 0 0 0 0 0 0 0 0 0 0 127 0" result="hardAlpha"/>
<feOffset dy="1"/>
<feColorMatrix type="matrix" values="0 0 0 0 0.537255 0 0 0 0 0.541176 0 0 0 0 0.552941 0 0 0 1 0"/>
<feBlend mode="normal" in2="BackgroundImageFix" result="effect1_dropShadow_1668_64367"/>
<feBlend mode="normal" in="SourceGraphic" in2="effect1_dropShadow_1668_64367" result="shape"/>
</filter>
<filter id="filter13_d_1668_64367" x="65.52" y="723" width="33" height="43" filterUnits="userSpaceOnUse" color-interpolation-filters="sRGB">
<feFlood flood-opacity="0" result="BackgroundImageFix"/>
<feColorMatrix in="SourceAlpha" type="matrix" values="0 0 0 0 0 0 0 0 0 0 0 0 0 0 0 0 0 0 127 0" result="hardAlpha"/>
<feOffset dy="1"/>
<feColorMatrix type="matrix" values="0 0 0 0 0.537255 0 0 0 0 0.541176 0 0 0 0 0.552941 0 0 0 1 0"/>
<feBlend mode="normal" in2="BackgroundImageFix" result="effect1_dropShadow_1668_64367"/>
<feBlend mode="normal" in="SourceGraphic" in2="effect1_dropShadow_1668_64367" result="shape"/>
</filter>
<filter id="filter14_d_1668_64367" x="339.04" y="669" width="33" height="43" filterUnits="userSpaceOnUse" color-interpolation-filters="sRGB">
<feFlood flood-opacity="0" result="BackgroundImageFix"/>
<feColorMatrix in="SourceAlpha" type="matrix" values="0 0 0 0 0 0 0 0 0 0 0 0 0 0 0 0 0 0 127 0" result="hardAlpha"/>
<feOffset dy="1"/>
<feColorMatrix type="matrix" values="0 0 0 0 0.537255 0 0 0 0 0.541176 0 0 0 0 0.552941 0 0 0 1 0"/>
<feBlend mode="normal" in2="BackgroundImageFix" result="effect1_dropShadow_1668_64367"/>
<feBlend mode="normal" in="SourceGraphic" in2="effect1_dropShadow_1668_64367" result="shape"/>
</filter>
<filter id="filter15_d_1668_64367" x="299.52" y="669" width="33" height="43" filterUnits="userSpaceOnUse" color-interpolation-filters="sRGB">
<feFlood flood-opacity="0" result="BackgroundImageFix"/>
<feColorMatrix in="SourceAlpha" type="matrix" values="0 0 0 0 0 0 0 0 0 0 0 0 0 0 0 0 0 0 127 0" result="hardAlpha"/>
<feOffset dy="1"/>
<feColorMatrix type="matrix" values="0 0 0 0 0.537255 0 0 0 0 0.541176 0 0 0 0 0.552941 0 0 0 1 0"/>
<feBlend mode="normal" in2="BackgroundImageFix" result="effect1_dropShadow_1668_64367"/>
<feBlend mode="normal" in="SourceGraphic" in2="effect1_dropShadow_1668_64367" result="shape"/>
</filter>
<filter id="filter16_d_1668_64367" x="261.04" y="669" width="33" height="43" filterUnits="userSpaceOnUse" color-interpolation-filters="sRGB">
<feFlood flood-opacity="0" result="BackgroundImageFix"/>
<feColorMatrix in="SourceAlpha" type="matrix" values="0 0 0 0 0 0 0 0 0 0 0 0 0 0 0 0 0 0 127 0" result="hardAlpha"/>
<feOffset dy="1"/>
<feColorMatrix type="matrix" values="0 0 0 0 0.537255 0 0 0 0 0.541176 0 0 0 0 0.552941 0 0 0 1 0"/>
<feBlend mode="normal" in2="BackgroundImageFix" result="effect1_dropShadow_1668_64367"/>
<feBlend mode="normal" in="SourceGraphic" in2="effect1_dropShadow_1668_64367" result="shape"/>
</filter>
<filter id="filter17_d_1668_64367" x="221.52" y="669" width="33" height="43" filterUnits="userSpaceOnUse" color-interpolation-filters="sRGB">
<feFlood flood-opacity="0" result="BackgroundImageFix"/>
<feColorMatrix in="SourceAlpha" type="matrix" values="0 0 0 0 0 0 0 0 0 0 0 0 0 0 0 0 0 0 127 0" result="hardAlpha"/>
<feOffset dy="1"/>
<feColorMatrix type="matrix" values="0 0 0 0 0.537255 0 0 0 0 0.541176 0 0 0 0 0.552941 0 0 0 1 0"/>
<feBlend mode="normal" in2="BackgroundImageFix" result="effect1_dropShadow_1668_64367"/>
<feBlend mode="normal" in="SourceGraphic" in2="effect1_dropShadow_1668_64367" result="shape"/>
</filter>
<filter id="filter18_d_1668_64367" x="183.04" y="669" width="33" height="43" filterUnits="userSpaceOnUse" color-interpolation-filters="sRGB">
<feFlood flood-opacity="0" result="BackgroundImageFix"/>
<feColorMatrix in="SourceAlpha" type="matrix" values="0 0 0 0 0 0 0 0 0 0 0 0 0 0 0 0 0 0 127 0" result="hardAlpha"/>
<feOffset dy="1"/>
<feColorMatrix type="matrix" values="0 0 0 0 0.537255 0 0 0 0 0.541176 0 0 0 0 0.552941 0 0 0 1 0"/>
<feBlend mode="normal" in2="BackgroundImageFix" result="effect1_dropShadow_1668_64367"/>
<feBlend mode="normal" in="SourceGraphic" in2="effect1_dropShadow_1668_64367" result="shape"/>
</filter>
<filter id="filter19_d_1668_64367" x="143.52" y="669" width="33" height="43" filterUnits="userSpaceOnUse" color-interpolation-filters="sRGB">
<feFlood flood-opacity="0" result="BackgroundImageFix"/>
<feColorMatrix in="SourceAlpha" type="matrix" values="0 0 0 0 0 0 0 0 0 0 0 0 0 0 0 0 0 0 127 0" result="hardAlpha"/>
<feOffset dy="1"/>
<feColorMatrix type="matrix" values="0 0 0 0 0.537255 0 0 0 0 0.541176 0 0 0 0 0.552941 0 0 0 1 0"/>
<feBlend mode="normal" in2="BackgroundImageFix" result="effect1_dropShadow_1668_64367"/>
<feBlend mode="normal" in="SourceGraphic" in2="effect1_dropShadow_1668_64367" result="shape"/>
</filter>
<filter id="filter20_d_1668_64367" x="105.04" y="669" width="33" height="43" filterUnits="userSpaceOnUse" color-interpolation-filters="sRGB">
<feFlood flood-opacity="0" result="BackgroundImageFix"/>
<feColorMatrix in="SourceAlpha" type="matrix" values="0 0 0 0 0 0 0 0 0 0 0 0 0 0 0 0 0 0 127 0" result="hardAlpha"/>
<feOffset dy="1"/>
<feColorMatrix type="matrix" values="0 0 0 0 0.537255 0 0 0 0 0.541176 0 0 0 0 0.552941 0 0 0 1 0"/>
<feBlend mode="normal" in2="BackgroundImageFix" result="effect1_dropShadow_1668_64367"/>
<feBlend mode="normal" in="SourceGraphic" in2="effect1_dropShadow_1668_64367" result="shape"/>
</filter>
<filter id="filter21_d_1668_64367" x="65.52" y="669" width="33" height="43" filterUnits="userSpaceOnUse" color-interpolation-filters="sRGB">
<feFlood flood-opacity="0" result="BackgroundImageFix"/>
<feColorMatrix in="SourceAlpha" type="matrix" values="0 0 0 0 0 0 0 0 0 0 0 0 0 0 0 0 0 0 127 0" result="hardAlpha"/>
<feOffset dy="1"/>
<feColorMatrix type="matrix" values="0 0 0 0 0.537255 0 0 0 0 0.541176 0 0 0 0 0.552941 0 0 0 1 0"/>
<feBlend mode="normal" in2="BackgroundImageFix" result="effect1_dropShadow_1668_64367"/>
<feBlend mode="normal" in="SourceGraphic" in2="effect1_dropShadow_1668_64367" result="shape"/>
</filter>
<filter id="filter22_d_1668_64367" x="27.0396" y="669" width="33" height="43" filterUnits="userSpaceOnUse" color-interpolation-filters="sRGB">
<feFlood flood-opacity="0" result="BackgroundImageFix"/>
<feColorMatrix in="SourceAlpha" type="matrix" values="0 0 0 0 0 0 0 0 0 0 0 0 0 0 0 0 0 0 127 0" result="hardAlpha"/>
<feOffset dy="1"/>
<feColorMatrix type="matrix" values="0 0 0 0 0.537255 0 0 0 0 0.541176 0 0 0 0 0.552941 0 0 0 1 0"/>
<feBlend mode="normal" in2="BackgroundImageFix" result="effect1_dropShadow_1668_64367"/>
<feBlend mode="normal" in="SourceGraphic" in2="effect1_dropShadow_1668_64367" result="shape"/>
</filter>
<filter id="filter23_d_1668_64367" x="357.76" y="615" width="33" height="43" filterUnits="userSpaceOnUse" color-interpolation-filters="sRGB">
<feFlood flood-opacity="0" result="BackgroundImageFix"/>
<feColorMatrix in="SourceAlpha" type="matrix" values="0 0 0 0 0 0 0 0 0 0 0 0 0 0 0 0 0 0 127 0" result="hardAlpha"/>
<feOffset dy="1"/>
<feColorMatrix type="matrix" values="0 0 0 0 0.537255 0 0 0 0 0.541176 0 0 0 0 0.552941 0 0 0 1 0"/>
<feBlend mode="normal" in2="BackgroundImageFix" result="effect1_dropShadow_1668_64367"/>
<feBlend mode="normal" in="SourceGraphic" in2="effect1_dropShadow_1668_64367" result="shape"/>
</filter>
<filter id="filter24_d_1668_64367" x="319.28" y="615" width="33" height="43" filterUnits="userSpaceOnUse" color-interpolation-filters="sRGB">
<feFlood flood-opacity="0" result="BackgroundImageFix"/>
<feColorMatrix in="SourceAlpha" type="matrix" values="0 0 0 0 0 0 0 0 0 0 0 0 0 0 0 0 0 0 127 0" result="hardAlpha"/>
<feOffset dy="1"/>
<feColorMatrix type="matrix" values="0 0 0 0 0.537255 0 0 0 0 0.541176 0 0 0 0 0.552941 0 0 0 1 0"/>
<feBlend mode="normal" in2="BackgroundImageFix" result="effect1_dropShadow_1668_64367"/>
<feBlend mode="normal" in="SourceGraphic" in2="effect1_dropShadow_1668_64367" result="shape"/>
</filter>
<filter id="filter25_d_1668_64367" x="279.76" y="615" width="33" height="43" filterUnits="userSpaceOnUse" color-interpolation-filters="sRGB">
<feFlood flood-opacity="0" result="BackgroundImageFix"/>
<feColorMatrix in="SourceAlpha" type="matrix" values="0 0 0 0 0 0 0 0 0 0 0 0 0 0 0 0 0 0 127 0" result="hardAlpha"/>
<feOffset dy="1"/>
<feColorMatrix type="matrix" values="0 0 0 0 0.537255 0 0 0 0 0.541176 0 0 0 0 0.552941 0 0 0 1 0"/>
<feBlend mode="normal" in2="BackgroundImageFix" result="effect1_dropShadow_1668_64367"/>
<feBlend mode="normal" in="SourceGraphic" in2="effect1_dropShadow_1668_64367" result="shape"/>
</filter>
<filter id="filter26_d_1668_64367" x="241.28" y="615" width="33" height="43" filterUnits="userSpaceOnUse" color-interpolation-filters="sRGB">
<feFlood flood-opacity="0" result="BackgroundImageFix"/>
<feColorMatrix in="SourceAlpha" type="matrix" values="0 0 0 0 0 0 0 0 0 0 0 0 0 0 0 0 0 0 127 0" result="hardAlpha"/>
<feOffset dy="1"/>
<feColorMatrix type="matrix" values="0 0 0 0 0.537255 0 0 0 0 0.541176 0 0 0 0 0.552941 0 0 0 1 0"/>
<feBlend mode="normal" in2="BackgroundImageFix" result="effect1_dropShadow_1668_64367"/>
<feBlend mode="normal" in="SourceGraphic" in2="effect1_dropShadow_1668_64367" result="shape"/>
</filter>
<filter id="filter27_d_1668_64367" x="201.76" y="615" width="33" height="43" filterUnits="userSpaceOnUse" color-interpolation-filters="sRGB">
<feFlood flood-opacity="0" result="BackgroundImageFix"/>
<feColorMatrix in="SourceAlpha" type="matrix" values="0 0 0 0 0 0 0 0 0 0 0 0 0 0 0 0 0 0 127 0" result="hardAlpha"/>
<feOffset dy="1"/>
<feColorMatrix type="matrix" values="0 0 0 0 0.537255 0 0 0 0 0.541176 0 0 0 0 0.552941 0 0 0 1 0"/>
<feBlend mode="normal" in2="BackgroundImageFix" result="effect1_dropShadow_1668_64367"/>
<feBlend mode="normal" in="SourceGraphic" in2="effect1_dropShadow_1668_64367" result="shape"/>
</filter>
<filter id="filter28_d_1668_64367" x="163.28" y="615" width="33" height="43" filterUnits="userSpaceOnUse" color-interpolation-filters="sRGB">
<feFlood flood-opacity="0" result="BackgroundImageFix"/>
<feColorMatrix in="SourceAlpha" type="matrix" values="0 0 0 0 0 0 0 0 0 0 0 0 0 0 0 0 0 0 127 0" result="hardAlpha"/>
<feOffset dy="1"/>
<feColorMatrix type="matrix" values="0 0 0 0 0.537255 0 0 0 0 0.541176 0 0 0 0 0.552941 0 0 0 1 0"/>
<feBlend mode="normal" in2="BackgroundImageFix" result="effect1_dropShadow_1668_64367"/>
<feBlend mode="normal" in="SourceGraphic" in2="effect1_dropShadow_1668_64367" result="shape"/>
</filter>
<filter id="filter29_d_1668_64367" x="123.76" y="615" width="33" height="43" filterUnits="userSpaceOnUse" color-interpolation-filters="sRGB">
<feFlood flood-opacity="0" result="BackgroundImageFix"/>
<feColorMatrix in="SourceAlpha" type="matrix" values="0 0 0 0 0 0 0 0 0 0 0 0 0 0 0 0 0 0 127 0" result="hardAlpha"/>
<feOffset dy="1"/>
<feColorMatrix type="matrix" values="0 0 0 0 0.537255 0 0 0 0 0.541176 0 0 0 0 0.552941 0 0 0 1 0"/>
<feBlend mode="normal" in2="BackgroundImageFix" result="effect1_dropShadow_1668_64367"/>
<feBlend mode="normal" in="SourceGraphic" in2="effect1_dropShadow_1668_64367" result="shape"/>
</filter>
<filter id="filter30_d_1668_64367" x="85.2798" y="615" width="33" height="43" filterUnits="userSpaceOnUse" color-interpolation-filters="sRGB">
<feFlood flood-opacity="0" result="BackgroundImageFix"/>
<feColorMatrix in="SourceAlpha" type="matrix" values="0 0 0 0 0 0 0 0 0 0 0 0 0 0 0 0 0 0 127 0" result="hardAlpha"/>
<feOffset dy="1"/>
<feColorMatrix type="matrix" values="0 0 0 0 0.537255 0 0 0 0 0.541176 0 0 0 0 0.552941 0 0 0 1 0"/>
<feBlend mode="normal" in2="BackgroundImageFix" result="effect1_dropShadow_1668_64367"/>
<feBlend mode="normal" in="SourceGraphic" in2="effect1_dropShadow_1668_64367" result="shape"/>
</filter>
<filter id="filter31_d_1668_64367" x="45.7598" y="615" width="33" height="43" filterUnits="userSpaceOnUse" color-interpolation-filters="sRGB">
<feFlood flood-opacity="0" result="BackgroundImageFix"/>
<feColorMatrix in="SourceAlpha" type="matrix" values="0 0 0 0 0 0 0 0 0 0 0 0 0 0 0 0 0 0 127 0" result="hardAlpha"/>
<feOffset dy="1"/>
<feColorMatrix type="matrix" values="0 0 0 0 0.537255 0 0 0 0 0.541176 0 0 0 0 0.552941 0 0 0 1 0"/>
<feBlend mode="normal" in2="BackgroundImageFix" result="effect1_dropShadow_1668_64367"/>
<feBlend mode="normal" in="SourceGraphic" in2="effect1_dropShadow_1668_64367" result="shape"/>
</filter>
<filter id="filter32_d_1668_64367" x="7.27979" y="615" width="33" height="43" filterUnits="userSpaceOnUse" color-interpolation-filters="sRGB">
<feFlood flood-opacity="0" result="BackgroundImageFix"/>
<feColorMatrix in="SourceAlpha" type="matrix" values="0 0 0 0 0 0 0 0 0 0 0 0 0 0 0 0 0 0 127 0" result="hardAlpha"/>
<feOffset dy="1"/>
<feColorMatrix type="matrix" values="0 0 0 0 0.537255 0 0 0 0 0.541176 0 0 0 0 0.552941 0 0 0 1 0"/>
<feBlend mode="normal" in2="BackgroundImageFix" result="effect1_dropShadow_1668_64367"/>
<feBlend mode="normal" in="SourceGraphic" in2="effect1_dropShadow_1668_64367" result="shape"/>
</filter>
<linearGradient id="paint0_linear_1668_64367" x1="45.5" y1="341.364" x2="335.936" y2="414.838" gradientUnits="userSpaceOnUse">
<stop stop-color="#384CFF"/>
<stop offset="1" stop-color="#00A3FF"/>
</linearGradient>
<clipPath id="clip0_1668_64367">
<rect width="390" height="844" fill="white"/>
</clipPath>
<clipPath id="clip1_1668_64367">
<rect width="390" height="44" fill="white"/>
</clipPath>
</defs>
</svg>
