<svg width="375" height="812" viewBox="0 0 375 812" fill="none" xmlns="http://www.w3.org/2000/svg">
<g clip-path="url(#clip0_1642_3744)">
<rect width="375" height="812" fill="white"/>
<rect width="375" height="96" transform="translate(0 716.115)" fill="white"/>
<rect x="24" y="740.115" width="327" height="48" rx="12" fill="#006FFD"/>
<path d="M152.982 768.615H151.294L154.366 759.888H156.318L159.395 768.615H157.707L155.376 761.678H155.308L152.982 768.615ZM153.037 765.193H157.639V766.463H153.037V765.193ZM160.476 771.07V762.07H161.993V763.152H162.083C162.162 762.993 162.275 762.824 162.419 762.645C162.564 762.463 162.76 762.308 163.007 762.181C163.255 762.05 163.57 761.985 163.953 761.985C164.459 761.985 164.915 762.114 165.321 762.372C165.73 762.628 166.054 763.007 166.293 763.51C166.534 764.01 166.655 764.624 166.655 765.351C166.655 766.07 166.537 766.681 166.301 767.183C166.066 767.686 165.745 768.07 165.338 768.334C164.932 768.598 164.472 768.73 163.958 768.73C163.583 768.73 163.272 768.668 163.025 768.543C162.777 768.418 162.578 768.267 162.428 768.091C162.28 767.912 162.165 767.743 162.083 767.584H162.019V771.07H160.476ZM161.989 765.343C161.989 765.766 162.049 766.137 162.168 766.455C162.29 766.773 162.465 767.021 162.692 767.2C162.922 767.377 163.201 767.465 163.527 767.465C163.868 767.465 164.154 767.374 164.384 767.192C164.614 767.007 164.787 766.756 164.904 766.438C165.023 766.117 165.083 765.752 165.083 765.343C165.083 764.936 165.025 764.575 164.908 764.26C164.792 763.945 164.618 763.698 164.388 763.519C164.158 763.34 163.871 763.25 163.527 763.25C163.198 763.25 162.918 763.337 162.688 763.51C162.458 763.683 162.283 763.926 162.164 764.239C162.047 764.551 161.989 764.919 161.989 765.343ZM167.976 771.07V762.07H169.493V763.152H169.583C169.662 762.993 169.775 762.824 169.919 762.645C170.064 762.463 170.26 762.308 170.507 762.181C170.755 762.05 171.07 761.985 171.453 761.985C171.959 761.985 172.415 762.114 172.821 762.372C173.23 762.628 173.554 763.007 173.793 763.51C174.034 764.01 174.155 764.624 174.155 765.351C174.155 766.07 174.037 766.681 173.801 767.183C173.566 767.686 173.245 768.07 172.838 768.334C172.432 768.598 171.972 768.73 171.458 768.73C171.083 768.73 170.772 768.668 170.525 768.543C170.277 768.418 170.078 768.267 169.928 768.091C169.78 767.912 169.665 767.743 169.583 767.584H169.519V771.07H167.976ZM169.489 765.343C169.489 765.766 169.549 766.137 169.668 766.455C169.79 766.773 169.965 767.021 170.192 767.2C170.422 767.377 170.701 767.465 171.027 767.465C171.368 767.465 171.654 767.374 171.884 767.192C172.114 767.007 172.287 766.756 172.404 766.438C172.523 766.117 172.583 765.752 172.583 765.343C172.583 764.936 172.525 764.575 172.408 764.26C172.292 763.945 172.118 763.698 171.888 763.519C171.658 763.34 171.371 763.25 171.027 763.25C170.698 763.25 170.418 763.337 170.188 763.51C169.958 763.683 169.783 763.926 169.664 764.239C169.547 764.551 169.489 764.919 169.489 765.343ZM177.019 759.888V768.615H175.476V759.888H177.019ZM179.564 771.07C179.354 771.07 179.159 771.053 178.98 771.019C178.804 770.987 178.663 770.95 178.558 770.908L178.916 769.706C179.141 769.771 179.341 769.803 179.517 769.8C179.693 769.797 179.848 769.742 179.982 769.634C180.118 769.529 180.233 769.352 180.327 769.105L180.459 768.752L178.085 762.07H179.722L181.23 767.013H181.298L182.811 762.07H184.452L181.831 769.408C181.709 769.754 181.547 770.051 181.345 770.298C181.143 770.548 180.896 770.739 180.604 770.869C180.314 771.003 179.967 771.07 179.564 771.07ZM188.564 768.615V759.888H194.155V761.213H190.145V763.583H193.771V764.908H190.145V768.615H188.564ZM195.527 768.615V762.07H197.07V768.615H195.527ZM196.303 761.141C196.058 761.141 195.848 761.06 195.672 760.898C195.496 760.733 195.408 760.536 195.408 760.306C195.408 760.073 195.496 759.875 195.672 759.713C195.848 759.548 196.058 759.466 196.303 759.466C196.55 759.466 196.76 759.548 196.933 759.713C197.109 759.875 197.197 760.073 197.197 760.306C197.197 760.536 197.109 760.733 196.933 760.898C196.76 761.06 196.55 761.141 196.303 761.141ZM200.199 759.888V768.615H198.656V759.888H200.199ZM205.053 762.07V763.263H201.29V762.07H205.053ZM202.219 760.502H203.762V766.646C203.762 766.854 203.793 767.013 203.856 767.124C203.921 767.232 204.006 767.306 204.112 767.345C204.217 767.385 204.333 767.405 204.461 767.405C204.558 767.405 204.646 767.398 204.725 767.384C204.808 767.369 204.87 767.357 204.913 767.345L205.173 768.551C205.09 768.58 204.972 768.611 204.819 768.645C204.668 768.679 204.484 768.699 204.265 768.705C203.879 768.716 203.531 768.658 203.221 768.53C202.911 768.399 202.665 768.198 202.484 767.925C202.305 767.652 202.217 767.311 202.219 766.902V760.502ZM209.171 768.743C208.515 768.743 207.948 768.607 207.471 768.334C206.996 768.058 206.631 767.669 206.375 767.166C206.12 766.661 205.992 766.066 205.992 765.381C205.992 764.708 206.12 764.117 206.375 763.608C206.634 763.097 206.995 762.699 207.458 762.415C207.921 762.128 208.465 761.985 209.09 761.985C209.493 761.985 209.874 762.05 210.232 762.181C210.593 762.308 210.911 762.507 211.186 762.777C211.465 763.047 211.684 763.391 211.843 763.808C212.002 764.223 212.081 764.718 212.081 765.291V765.764H206.716V764.725H210.603C210.6 764.429 210.536 764.166 210.411 763.936C210.286 763.703 210.111 763.52 209.887 763.387C209.665 763.253 209.407 763.186 209.111 763.186C208.796 763.186 208.519 763.263 208.28 763.416C208.042 763.567 207.855 763.766 207.722 764.013C207.591 764.257 207.525 764.526 207.522 764.818V765.726C207.522 766.107 207.591 766.433 207.73 766.706C207.87 766.976 208.064 767.183 208.314 767.328C208.564 767.47 208.857 767.541 209.192 767.541C209.417 767.541 209.62 767.51 209.801 767.448C209.983 767.382 210.141 767.287 210.275 767.162C210.408 767.037 210.509 766.882 210.577 766.698L212.017 766.86C211.926 767.24 211.753 767.573 211.498 767.857C211.245 768.138 210.921 768.357 210.526 768.513C210.131 768.666 209.679 768.743 209.171 768.743ZM213.386 768.615V762.07H214.882V763.161H214.95C215.07 762.783 215.274 762.492 215.564 762.287C215.857 762.08 216.19 761.976 216.565 761.976C216.651 761.976 216.746 761.98 216.851 761.989C216.959 761.994 217.048 762.004 217.119 762.019V763.438C217.054 763.415 216.95 763.395 216.808 763.378C216.669 763.358 216.534 763.348 216.403 763.348C216.122 763.348 215.869 763.409 215.645 763.531C215.423 763.651 215.249 763.817 215.121 764.03C214.993 764.243 214.929 764.489 214.929 764.767V768.615H213.386ZM223.317 763.8L221.911 763.953C221.871 763.811 221.802 763.678 221.702 763.553C221.606 763.428 221.475 763.327 221.31 763.25C221.146 763.173 220.944 763.135 220.705 763.135C220.384 763.135 220.114 763.205 219.896 763.344C219.68 763.483 219.573 763.664 219.576 763.885C219.573 764.075 219.643 764.23 219.785 764.35C219.93 764.469 220.168 764.567 220.501 764.644L221.617 764.882C222.237 765.016 222.697 765.227 222.998 765.517C223.302 765.807 223.455 766.186 223.458 766.655C223.455 767.067 223.335 767.431 223.096 767.746C222.86 768.058 222.532 768.303 222.112 768.479C221.691 768.655 221.208 768.743 220.663 768.743C219.862 768.743 219.217 768.575 218.728 768.24C218.239 767.902 217.948 767.432 217.854 766.83L219.359 766.685C219.427 766.98 219.572 767.203 219.793 767.354C220.015 767.504 220.303 767.58 220.658 767.58C221.025 767.58 221.319 767.504 221.54 767.354C221.765 767.203 221.877 767.017 221.877 766.796C221.877 766.608 221.805 766.453 221.66 766.331C221.518 766.209 221.296 766.115 220.995 766.05L219.879 765.816C219.251 765.685 218.786 765.465 218.485 765.155C218.184 764.843 218.035 764.448 218.038 763.97C218.035 763.567 218.144 763.218 218.366 762.922C218.59 762.624 218.901 762.394 219.299 762.232C219.7 762.067 220.161 761.985 220.684 761.985C221.451 761.985 222.055 762.148 222.495 762.475C222.938 762.801 223.212 763.243 223.317 763.8Z" fill="white"/>
<path d="M41.4261 150.115H40.1932C40.1203 149.761 39.9927 149.449 39.8104 149.181C39.6314 148.912 39.4126 148.687 39.1541 148.504C38.8989 148.319 38.6155 148.18 38.304 148.087C37.9924 147.994 37.6676 147.948 37.3295 147.948C36.7131 147.948 36.1546 148.103 35.6541 148.415C35.157 148.727 34.7609 149.186 34.4659 149.792C34.1742 150.399 34.0284 151.143 34.0284 152.024C34.0284 152.906 34.1742 153.65 34.4659 154.257C34.7609 154.863 35.157 155.322 35.6541 155.634C36.1546 155.945 36.7131 156.101 37.3295 156.101C37.6676 156.101 37.9924 156.055 38.304 155.962C38.6155 155.869 38.8989 155.731 39.1541 155.549C39.4126 155.364 39.6314 155.137 39.8104 154.868C39.9927 154.596 40.1203 154.285 40.1932 153.933H41.4261C41.3333 154.454 41.1643 154.919 40.919 155.33C40.6738 155.741 40.3688 156.091 40.0043 156.379C39.6397 156.664 39.2304 156.882 38.7763 157.031C38.3255 157.18 37.8433 157.254 37.3295 157.254C36.4612 157.254 35.6889 157.042 35.0128 156.618C34.3366 156.194 33.8047 155.591 33.4169 154.808C33.0291 154.026 32.8352 153.098 32.8352 152.024C32.8352 150.95 33.0291 150.022 33.4169 149.24C33.8047 148.458 34.3366 147.855 35.0128 147.431C35.6889 147.006 36.4612 146.794 37.3295 146.794C37.8433 146.794 38.3255 146.869 38.7763 147.018C39.2304 147.167 39.6397 147.386 40.0043 147.674C40.3688 147.959 40.6738 148.307 40.919 148.718C41.1643 149.126 41.3333 149.592 41.4261 150.115ZM45.5066 157.294C45.0227 157.294 44.5835 157.203 44.1891 157.021C43.7947 156.835 43.4815 156.568 43.2495 156.22C43.0175 155.869 42.9015 155.445 42.9015 154.948C42.9015 154.51 42.9876 154.155 43.16 153.884C43.3323 153.609 43.5627 153.393 43.851 153.237C44.1394 153.082 44.4576 152.966 44.8056 152.889C45.1569 152.81 45.5099 152.747 45.8645 152.7C46.3285 152.641 46.7047 152.596 46.9931 152.566C47.2847 152.533 47.4969 152.478 47.6294 152.402C47.7653 152.326 47.8333 152.193 47.8333 152.004V151.965C47.8333 151.474 47.699 151.093 47.4306 150.821C47.1654 150.549 46.7627 150.414 46.2225 150.414C45.6623 150.414 45.2232 150.536 44.905 150.781C44.5868 151.027 44.3631 151.289 44.2338 151.567L43.1202 151.169C43.3191 150.705 43.5842 150.344 43.9157 150.085C44.2504 149.824 44.615 149.641 45.0094 149.539C45.4071 149.432 45.7982 149.379 46.1827 149.379C46.428 149.379 46.7097 149.409 47.0279 149.469C47.3494 149.525 47.6593 149.643 47.9576 149.822C48.2592 150.001 48.5094 150.271 48.7083 150.632C48.9071 150.994 49.0066 151.477 49.0066 152.084V157.115H47.8333V156.081H47.7736C47.6941 156.247 47.5615 156.424 47.3759 156.613C47.1903 156.802 46.9434 156.963 46.6351 157.095C46.3269 157.228 45.9507 157.294 45.5066 157.294ZM45.6855 156.24C46.1496 156.24 46.5407 156.149 46.8588 155.967C47.1803 155.785 47.4223 155.549 47.5847 155.261C47.7504 154.972 47.8333 154.669 47.8333 154.351V153.277C47.7836 153.337 47.6742 153.392 47.5051 153.441C47.3394 153.488 47.1472 153.529 46.9284 153.566C46.713 153.599 46.5025 153.628 46.2971 153.655C46.0949 153.678 45.9308 153.698 45.8049 153.715C45.4999 153.754 45.2149 153.819 44.9498 153.909C44.6879 153.995 44.4758 154.126 44.3134 154.301C44.1543 154.474 44.0748 154.709 44.0748 155.007C44.0748 155.415 44.2256 155.723 44.5272 155.932C44.8321 156.137 45.2182 156.24 45.6855 156.24ZM54.4691 149.479V150.473H50.5117V149.479H54.4691ZM51.6651 147.649H52.8384V154.928C52.8384 155.259 52.8865 155.508 52.9826 155.673C53.082 155.836 53.208 155.945 53.3604 156.002C53.5162 156.055 53.6803 156.081 53.8526 156.081C53.9819 156.081 54.088 156.075 54.1708 156.061C54.2537 156.045 54.32 156.031 54.3697 156.021L54.6083 157.075C54.5288 157.105 54.4177 157.135 54.2752 157.165C54.1327 157.198 53.9521 157.215 53.7333 157.215C53.4019 157.215 53.0771 157.143 52.7589 157.001C52.444 156.858 52.1822 156.641 51.9734 156.35C51.7679 156.058 51.6651 155.69 51.6651 155.246V147.649ZM59.3537 157.274C58.6179 157.274 57.9832 157.112 57.4496 156.787C56.9193 156.459 56.5099 156.002 56.2216 155.415C55.9366 154.825 55.794 154.139 55.794 153.357C55.794 152.575 55.9366 151.885 56.2216 151.289C56.5099 150.689 56.911 150.221 57.4247 149.887C57.9418 149.548 58.545 149.379 59.2344 149.379C59.6321 149.379 60.0249 149.446 60.4126 149.578C60.8004 149.711 61.1534 149.926 61.4716 150.225C61.7898 150.52 62.0433 150.911 62.2322 151.398C62.4212 151.885 62.5156 152.485 62.5156 153.198V153.695H56.6293V152.681H61.3224C61.3224 152.25 61.2363 151.865 61.0639 151.527C60.8949 151.189 60.6529 150.922 60.3381 150.727C60.0265 150.531 59.6586 150.433 59.2344 150.433C58.767 150.433 58.3627 150.549 58.0213 150.781C57.6832 151.01 57.4231 151.308 57.2408 151.676C57.0585 152.044 56.9673 152.439 56.9673 152.86V153.536C56.9673 154.112 57.0668 154.601 57.2656 155.002C57.4678 155.4 57.7479 155.703 58.1058 155.912C58.4638 156.118 58.8797 156.22 59.3537 156.22C59.6619 156.22 59.9403 156.177 60.1889 156.091C60.4408 156.002 60.6579 155.869 60.8402 155.693C61.0225 155.514 61.1634 155.292 61.2628 155.027L62.3963 155.345C62.277 155.73 62.0765 156.068 61.7947 156.36C61.513 156.648 61.165 156.873 60.7507 157.036C60.3364 157.195 59.8707 157.274 59.3537 157.274ZM67.3828 160.138C66.8161 160.138 66.3288 160.065 65.9212 159.919C65.5135 159.777 65.1738 159.588 64.902 159.352C64.6335 159.12 64.4197 158.872 64.2607 158.607L65.1953 157.95C65.3014 158.09 65.4356 158.249 65.598 158.428C65.7604 158.61 65.9825 158.767 66.2642 158.9C66.5492 159.036 66.9221 159.104 67.3828 159.104C67.9993 159.104 68.508 158.955 68.9091 158.656C69.3101 158.358 69.5107 157.891 69.5107 157.254V155.703H69.4112C69.325 155.843 69.2024 156.015 69.0433 156.22C68.8875 156.423 68.6622 156.603 68.3672 156.762C68.0755 156.918 67.6811 156.996 67.1839 156.996C66.5675 156.996 66.014 156.85 65.5234 156.558C65.0362 156.267 64.6501 155.843 64.3651 155.286C64.0833 154.729 63.9425 154.053 63.9425 153.257C63.9425 152.475 64.08 151.794 64.3551 151.214C64.6302 150.631 65.013 150.18 65.5036 149.862C65.9941 149.54 66.5608 149.379 67.2038 149.379C67.701 149.379 68.0954 149.462 68.3871 149.628C68.6821 149.79 68.9074 149.976 69.0632 150.185C69.2223 150.39 69.3449 150.559 69.4311 150.692H69.5504V149.479H70.6839V157.334C70.6839 157.99 70.5348 158.524 70.2365 158.935C69.9415 159.349 69.5438 159.652 69.0433 159.845C68.5462 160.04 67.9927 160.138 67.3828 160.138ZM67.343 155.942C67.8137 155.942 68.2114 155.834 68.5362 155.619C68.861 155.403 69.108 155.093 69.277 154.689C69.446 154.285 69.5305 153.801 69.5305 153.237C69.5305 152.687 69.4477 152.202 69.282 151.781C69.1162 151.36 68.871 151.03 68.5462 150.791C68.2214 150.553 67.8203 150.433 67.343 150.433C66.8459 150.433 66.4316 150.559 66.1001 150.811C65.772 151.063 65.5251 151.401 65.3594 151.825C65.197 152.25 65.1158 152.72 65.1158 153.237C65.1158 153.768 65.1986 154.237 65.3643 154.644C65.5334 155.049 65.782 155.367 66.1101 155.599C66.4415 155.828 66.8525 155.942 67.343 155.942ZM75.9339 157.274C75.2446 157.274 74.6397 157.11 74.1193 156.782C73.6023 156.454 73.1979 155.995 72.9062 155.405C72.6179 154.815 72.4737 154.126 72.4737 153.337C72.4737 152.541 72.6179 151.847 72.9062 151.254C73.1979 150.66 73.6023 150.2 74.1193 149.872C74.6397 149.544 75.2446 149.379 75.9339 149.379C76.6233 149.379 77.2266 149.544 77.7436 149.872C78.264 150.2 78.6683 150.66 78.9567 151.254C79.2483 151.847 79.3942 152.541 79.3942 153.337C79.3942 154.126 79.2483 154.815 78.9567 155.405C78.6683 155.995 78.264 156.454 77.7436 156.782C77.2266 157.11 76.6233 157.274 75.9339 157.274ZM75.9339 156.22C76.4576 156.22 76.8885 156.086 77.2266 155.818C77.5646 155.549 77.8149 155.196 77.9773 154.759C78.1397 154.321 78.2209 153.847 78.2209 153.337C78.2209 152.826 78.1397 152.351 77.9773 151.91C77.8149 151.469 77.5646 151.113 77.2266 150.841C76.8885 150.569 76.4576 150.433 75.9339 150.433C75.4103 150.433 74.9794 150.569 74.6413 150.841C74.3033 151.113 74.053 151.469 73.8906 151.91C73.7282 152.351 73.647 152.826 73.647 153.337C73.647 153.847 73.7282 154.321 73.8906 154.759C74.053 155.196 74.3033 155.549 74.6413 155.818C74.9794 156.086 75.4103 156.22 75.9339 156.22ZM81.1852 157.115V149.479H82.3187V150.632H82.3983C82.5375 150.254 82.7894 149.948 83.1539 149.713C83.5185 149.477 83.9295 149.36 84.3869 149.36C84.4731 149.36 84.5808 149.361 84.71 149.365C84.8393 149.368 84.9371 149.373 85.0034 149.379V150.573C84.9636 150.563 84.8725 150.548 84.7299 150.528C84.5907 150.505 84.4432 150.493 84.2875 150.493C83.9163 150.493 83.5848 150.571 83.2931 150.727C83.0048 150.879 82.7761 151.091 82.6071 151.363C82.4413 151.632 82.3585 151.938 82.3585 152.283V157.115H81.1852ZM87.3823 159.979C87.1834 159.979 87.0061 159.962 86.8503 159.929C86.6945 159.899 86.5868 159.869 86.5272 159.84L86.8255 158.806C87.1105 158.878 87.3624 158.905 87.5811 158.885C87.7999 158.865 87.9938 158.767 88.1628 158.592C88.3352 158.419 88.4926 158.139 88.6351 157.752L88.8539 157.155L86.03 149.479H87.3027L89.4107 155.564H89.4902L91.5982 149.479H92.8709L89.6294 158.229C89.4836 158.623 89.303 158.95 89.0875 159.208C88.8721 159.47 88.6219 159.664 88.3368 159.79C88.0551 159.916 87.7369 159.979 87.3823 159.979Z" fill="#1F2024"/>
<rect x="319" y="140.115" width="24" height="24" rx="12" fill="#006FFD"/>
<path d="M332.202 148.843V156.115H330.885V150.124H330.842L329.141 151.211V150.004L330.949 148.843H332.202Z" fill="white"/>
<path d="M16 182.115H359" stroke="#D4D6DD" stroke-width="0.5" stroke-linecap="round"/>
<path d="M33.233 215.115V204.933H36.6733C37.4721 204.933 38.125 205.078 38.6321 205.366C39.1425 205.651 39.5204 206.037 39.7656 206.524C40.0109 207.012 40.1335 207.555 40.1335 208.155C40.1335 208.755 40.0109 209.3 39.7656 209.791C39.5237 210.281 39.1491 210.672 38.642 210.964C38.1349 211.252 37.4853 211.396 36.6932 211.396H34.2273V210.303H36.6534C37.2003 210.303 37.6394 210.208 37.9709 210.019C38.3023 209.83 38.5426 209.575 38.6918 209.254C38.8442 208.929 38.9205 208.563 38.9205 208.155C38.9205 207.747 38.8442 207.383 38.6918 207.061C38.5426 206.74 38.3007 206.488 37.9659 206.306C37.6312 206.12 37.187 206.027 36.6335 206.027H34.4659V215.115H33.233ZM41.9606 215.115V207.479H43.0941V208.632H43.1737C43.3129 208.254 43.5647 207.948 43.9293 207.713C44.2939 207.477 44.7049 207.36 45.1623 207.36C45.2485 207.36 45.3562 207.361 45.4854 207.365C45.6147 207.368 45.7125 207.373 45.7788 207.379V208.573C45.739 208.563 45.6478 208.548 45.5053 208.528C45.3661 208.505 45.2186 208.493 45.0629 208.493C44.6916 208.493 44.3602 208.571 44.0685 208.727C43.7802 208.879 43.5515 209.091 43.3825 209.363C43.2167 209.632 43.1339 209.938 43.1339 210.283V215.115H41.9606ZM47.1696 215.115V207.479H48.3429V215.115H47.1696ZM47.7662 206.206C47.5375 206.206 47.3403 206.128 47.1745 205.972C47.0121 205.817 46.9309 205.629 46.9309 205.411C46.9309 205.192 47.0121 205.005 47.1745 204.849C47.3403 204.693 47.5375 204.615 47.7662 204.615C47.9949 204.615 48.1904 204.693 48.3528 204.849C48.5185 205.005 48.6014 205.192 48.6014 205.411C48.6014 205.629 48.5185 205.817 48.3528 205.972C48.1904 206.128 47.9949 206.206 47.7662 206.206ZM53.5941 215.274C52.8782 215.274 52.2617 215.105 51.7447 214.767C51.2276 214.429 50.8299 213.963 50.5515 213.37C50.2731 212.777 50.1339 212.099 50.1339 211.337C50.1339 210.561 50.2764 209.877 50.5614 209.284C50.8498 208.687 51.2508 208.221 51.7646 207.887C52.2816 207.548 52.8848 207.379 53.5742 207.379C54.1112 207.379 54.5951 207.479 55.0259 207.678C55.4568 207.877 55.8098 208.155 56.0849 208.513C56.36 208.871 56.5307 209.289 56.5969 209.766H55.4237C55.3342 209.418 55.1353 209.11 54.8271 208.841C54.5221 208.569 54.1112 208.433 53.5941 208.433C53.1367 208.433 52.7357 208.553 52.391 208.791C52.0496 209.027 51.7828 209.36 51.5906 209.791C51.4016 210.218 51.3072 210.72 51.3072 211.297C51.3072 211.887 51.4 212.401 51.5856 212.838C51.7745 213.276 52.0397 213.615 52.381 213.857C52.7257 214.099 53.1301 214.22 53.5941 214.22C53.899 214.22 54.1758 214.167 54.4244 214.061C54.6729 213.955 54.8834 213.803 55.0558 213.604C55.2281 213.405 55.3507 213.166 55.4237 212.888H56.5969C56.5307 213.339 56.3666 213.745 56.1048 214.106C55.8462 214.464 55.5032 214.749 55.0756 214.961C54.6514 215.17 54.1576 215.274 53.5941 215.274ZM61.5138 215.274C60.7781 215.274 60.1433 215.112 59.6097 214.787C59.0794 214.459 58.6701 214.002 58.3817 213.415C58.0967 212.825 57.9542 212.139 57.9542 211.357C57.9542 210.575 58.0967 209.885 58.3817 209.289C58.6701 208.689 59.0711 208.221 59.5849 207.887C60.1019 207.548 60.7051 207.379 61.3945 207.379C61.7923 207.379 62.185 207.446 62.5728 207.578C62.9606 207.711 63.3136 207.926 63.6317 208.225C63.9499 208.52 64.2035 208.911 64.3924 209.398C64.5813 209.885 64.6758 210.485 64.6758 211.198V211.695H58.7894V210.681H63.4826C63.4826 210.25 63.3964 209.865 63.2241 209.527C63.055 209.189 62.8131 208.922 62.4982 208.727C62.1867 208.531 61.8188 208.433 61.3945 208.433C60.9272 208.433 60.5228 208.549 60.1815 208.781C59.8434 209.01 59.5832 209.308 59.4009 209.676C59.2186 210.044 59.1275 210.439 59.1275 210.86V211.536C59.1275 212.112 59.2269 212.601 59.4258 213.002C59.628 213.4 59.908 213.703 60.266 213.912C60.6239 214.118 61.0399 214.22 61.5138 214.22C61.8221 214.22 62.1005 214.177 62.3491 214.091C62.601 214.002 62.8181 213.869 63.0004 213.693C63.1826 213.514 63.3235 213.292 63.4229 213.027L64.5565 213.345C64.4371 213.73 64.2366 214.068 63.9549 214.36C63.6732 214.648 63.3252 214.873 62.9109 215.036C62.4966 215.195 62.0309 215.274 61.5138 215.274ZM70.5572 215.115V204.933H73.9975C74.793 204.933 75.4459 205.069 75.9563 205.341C76.4667 205.61 76.8446 205.979 77.0898 206.45C77.3351 206.92 77.4577 207.456 77.4577 208.056C77.4577 208.655 77.3351 209.187 77.0898 209.651C76.8446 210.115 76.4684 210.48 75.9613 210.745C75.4542 211.007 74.8062 211.138 74.0174 211.138H71.2333V210.024H73.9776C74.5212 210.024 74.9587 209.945 75.2901 209.786C75.6249 209.627 75.8668 209.401 76.016 209.11C76.1684 208.815 76.2447 208.463 76.2447 208.056C76.2447 207.648 76.1684 207.292 76.016 206.987C75.8635 206.682 75.6199 206.446 75.2852 206.281C74.9504 206.112 74.5079 206.027 73.9577 206.027H71.7901V215.115H70.5572ZM75.3498 210.541L77.8555 215.115H76.4237L73.9577 210.541H75.3498ZM81.6003 215.294C81.1164 215.294 80.6773 215.203 80.2828 215.021C79.8884 214.835 79.5752 214.568 79.3432 214.22C79.1112 213.869 78.9952 213.445 78.9952 212.948C78.9952 212.51 79.0814 212.155 79.2537 211.884C79.4261 211.609 79.6564 211.393 79.9448 211.237C80.2331 211.082 80.5513 210.966 80.8993 210.889C81.2507 210.81 81.6036 210.747 81.9583 210.7C82.4223 210.641 82.7985 210.596 83.0868 210.566C83.3785 210.533 83.5906 210.478 83.7232 210.402C83.8591 210.326 83.927 210.193 83.927 210.004V209.965C83.927 209.474 83.7928 209.093 83.5243 208.821C83.2592 208.549 82.8565 208.414 82.3162 208.414C81.7561 208.414 81.3169 208.536 80.9988 208.781C80.6806 209.027 80.4569 209.289 80.3276 209.567L79.214 209.169C79.4128 208.705 79.678 208.344 80.0094 208.085C80.3442 207.824 80.7087 207.641 81.1032 207.539C81.5009 207.432 81.892 207.379 82.2765 207.379C82.5217 207.379 82.8034 207.409 83.1216 207.469C83.4431 207.525 83.753 207.643 84.0513 207.822C84.3529 208.001 84.6032 208.271 84.802 208.632C85.0009 208.994 85.1003 209.477 85.1003 210.084V215.115H83.927V214.081H83.8674C83.7878 214.247 83.6552 214.424 83.4696 214.613C83.284 214.802 83.0371 214.963 82.7289 215.095C82.4206 215.228 82.0444 215.294 81.6003 215.294ZM81.7793 214.24C82.2433 214.24 82.6344 214.149 82.9526 213.967C83.2741 213.785 83.516 213.549 83.6784 213.261C83.8442 212.972 83.927 212.669 83.927 212.351V211.277C83.8773 211.337 83.7679 211.392 83.5989 211.441C83.4332 211.488 83.2409 211.529 83.0222 211.566C82.8068 211.599 82.5963 211.628 82.3908 211.655C82.1886 211.678 82.0246 211.698 81.8986 211.715C81.5937 211.754 81.3087 211.819 81.0435 211.909C80.7817 211.995 80.5695 212.126 80.4071 212.301C80.248 212.474 80.1685 212.709 80.1685 213.007C80.1685 213.415 80.3193 213.723 80.6209 213.932C80.9258 214.137 81.312 214.24 81.7793 214.24ZM88.4151 210.521V215.115H87.2418V207.479H88.3754V208.672H88.4748C88.6538 208.284 88.9255 207.973 89.2901 207.737C89.6547 207.499 90.1254 207.379 90.7021 207.379C91.2191 207.379 91.6715 207.485 92.0593 207.698C92.4471 207.906 92.7487 208.225 92.9641 208.652C93.1796 209.076 93.2873 209.613 93.2873 210.263V215.115H92.114V210.343C92.114 209.743 91.9582 209.275 91.6467 208.941C91.3351 208.602 90.9076 208.433 90.364 208.433C89.9895 208.433 89.6547 208.515 89.3597 208.677C89.0681 208.839 88.8377 209.076 88.6687 209.388C88.4996 209.7 88.4151 210.077 88.4151 210.521ZM98.5137 218.138C97.9469 218.138 97.4597 218.065 97.052 217.919C96.6444 217.777 96.3046 217.588 96.0328 217.352C95.7644 217.12 95.5506 216.872 95.3915 216.607L96.3262 215.95C96.4322 216.09 96.5665 216.249 96.7289 216.428C96.8913 216.61 97.1133 216.767 97.3951 216.9C97.6801 217.036 98.053 217.104 98.5137 217.104C99.1301 217.104 99.6389 216.955 100.04 216.656C100.441 216.358 100.642 215.891 100.642 215.254V213.703H100.542C100.456 213.843 100.333 214.015 100.174 214.22C100.018 214.423 99.793 214.603 99.498 214.762C99.2064 214.918 98.812 214.996 98.3148 214.996C97.6983 214.996 97.1448 214.85 96.6543 214.558C96.1671 214.267 95.781 213.843 95.4959 213.286C95.2142 212.729 95.0733 212.053 95.0733 211.257C95.0733 210.475 95.2109 209.794 95.486 209.214C95.7611 208.631 96.1439 208.18 96.6344 207.862C97.1249 207.54 97.6917 207.379 98.3347 207.379C98.8319 207.379 99.2263 207.462 99.5179 207.628C99.8129 207.79 100.038 207.976 100.194 208.185C100.353 208.39 100.476 208.559 100.562 208.692H100.681V207.479H101.815V215.334C101.815 215.99 101.666 216.524 101.367 216.935C101.072 217.349 100.675 217.652 100.174 217.845C99.677 218.04 99.1235 218.138 98.5137 218.138ZM98.4739 213.942C98.9445 213.942 99.3423 213.834 99.6671 213.619C99.9919 213.403 100.239 213.093 100.408 212.689C100.577 212.285 100.661 211.801 100.661 211.237C100.661 210.687 100.579 210.202 100.413 209.781C100.247 209.36 100.002 209.03 99.677 208.791C99.3522 208.553 98.9512 208.433 98.4739 208.433C97.9767 208.433 97.5624 208.559 97.231 208.811C96.9029 209.063 96.656 209.401 96.4902 209.825C96.3278 210.25 96.2466 210.72 96.2466 211.237C96.2466 211.768 96.3295 212.237 96.4952 212.644C96.6642 213.049 96.9128 213.367 97.2409 213.599C97.5724 213.828 97.9834 213.942 98.4739 213.942ZM107.164 215.274C106.428 215.274 105.794 215.112 105.26 214.787C104.73 214.459 104.32 214.002 104.032 213.415C103.747 212.825 103.605 212.139 103.605 211.357C103.605 210.575 103.747 209.885 104.032 209.289C104.32 208.689 104.722 208.221 105.235 207.887C105.752 207.548 106.356 207.379 107.045 207.379C107.443 207.379 107.835 207.446 108.223 207.578C108.611 207.711 108.964 207.926 109.282 208.225C109.6 208.52 109.854 208.911 110.043 209.398C110.232 209.885 110.326 210.485 110.326 211.198V211.695H104.44V210.681H109.133C109.133 210.25 109.047 209.865 108.874 209.527C108.705 209.189 108.463 208.922 108.149 208.727C107.837 208.531 107.469 208.433 107.045 208.433C106.578 208.433 106.173 208.549 105.832 208.781C105.494 209.01 105.234 209.308 105.051 209.676C104.869 210.044 104.778 210.439 104.778 210.86V211.536C104.778 212.112 104.877 212.601 105.076 213.002C105.278 213.4 105.558 213.703 105.916 213.912C106.274 214.118 106.69 214.22 107.164 214.22C107.472 214.22 107.751 214.177 107.999 214.091C108.251 214.002 108.468 213.869 108.651 213.693C108.833 213.514 108.974 213.292 109.073 213.027L110.207 213.345C110.088 213.73 109.887 214.068 109.605 214.36C109.324 214.648 108.976 214.873 108.561 215.036C108.147 215.195 107.681 215.274 107.164 215.274Z" fill="#1F2024"/>
<mask id="mask0_1642_3744" style="mask-type:alpha" maskUnits="userSpaceOnUse" x="331" y="206" width="12" height="8">
<path fill-rule="evenodd" clip-rule="evenodd" d="M342.53 206.841C342.237 206.54 341.763 206.54 341.47 206.841L337 211.435L332.531 206.841C332.238 206.54 331.763 206.54 331.47 206.841C331.177 207.142 331.177 207.63 331.47 207.931L337 213.615L342.53 207.931C342.823 207.63 342.823 207.142 342.53 206.841Z" fill="#006FFD"/>
</mask>
<g mask="url(#mask0_1642_3744)">
<rect x="331" y="204.114" width="11.9995" height="11.9995" fill="#8F9098"/>
</g>
<path d="M16 238.115H359" stroke="#D4D6DD" stroke-width="0.5" stroke-linecap="round"/>
<path d="M41.4261 266.115H40.1932C40.1203 265.761 39.9927 265.449 39.8104 265.181C39.6314 264.912 39.4126 264.687 39.1541 264.504C38.8989 264.319 38.6155 264.18 38.304 264.087C37.9924 263.994 37.6676 263.948 37.3295 263.948C36.7131 263.948 36.1546 264.103 35.6541 264.415C35.157 264.727 34.7609 265.186 34.4659 265.792C34.1742 266.399 34.0284 267.143 34.0284 268.024C34.0284 268.906 34.1742 269.65 34.4659 270.257C34.7609 270.863 35.157 271.322 35.6541 271.634C36.1546 271.945 36.7131 272.101 37.3295 272.101C37.6676 272.101 37.9924 272.055 38.304 271.962C38.6155 271.869 38.8989 271.731 39.1541 271.549C39.4126 271.364 39.6314 271.137 39.8104 270.868C39.9927 270.596 40.1203 270.285 40.1932 269.933H41.4261C41.3333 270.454 41.1643 270.919 40.919 271.33C40.6738 271.741 40.3688 272.091 40.0043 272.379C39.6397 272.664 39.2304 272.882 38.7763 273.031C38.3255 273.18 37.8433 273.254 37.3295 273.254C36.4612 273.254 35.6889 273.042 35.0128 272.618C34.3366 272.194 33.8047 271.591 33.4169 270.808C33.0291 270.026 32.8352 269.098 32.8352 268.024C32.8352 266.95 33.0291 266.022 33.4169 265.24C33.8047 264.458 34.3366 263.855 35.0128 263.431C35.6889 263.006 36.4612 262.794 37.3295 262.794C37.8433 262.794 38.3255 262.869 38.7763 263.018C39.2304 263.167 39.6397 263.386 40.0043 263.674C40.3688 263.959 40.6738 264.307 40.919 264.718C41.1643 265.126 41.3333 265.592 41.4261 266.115ZM46.3617 273.274C45.6723 273.274 45.0674 273.11 44.5471 272.782C44.03 272.454 43.6257 271.995 43.334 271.405C43.0456 270.815 42.9015 270.126 42.9015 269.337C42.9015 268.541 43.0456 267.847 43.334 267.254C43.6257 266.66 44.03 266.2 44.5471 265.872C45.0674 265.544 45.6723 265.379 46.3617 265.379C47.0511 265.379 47.6543 265.544 48.1713 265.872C48.6917 266.2 49.0961 266.66 49.3844 267.254C49.6761 267.847 49.8219 268.541 49.8219 269.337C49.8219 270.126 49.6761 270.815 49.3844 271.405C49.0961 271.995 48.6917 272.454 48.1713 272.782C47.6543 273.11 47.0511 273.274 46.3617 273.274ZM46.3617 272.22C46.8854 272.22 47.3162 272.086 47.6543 271.818C47.9924 271.549 48.2426 271.196 48.405 270.759C48.5674 270.321 48.6486 269.847 48.6486 269.337C48.6486 268.826 48.5674 268.351 48.405 267.91C48.2426 267.469 47.9924 267.113 47.6543 266.841C47.3162 266.569 46.8854 266.433 46.3617 266.433C45.838 266.433 45.4071 266.569 45.0691 266.841C44.731 267.113 44.4808 267.469 44.3184 267.91C44.156 268.351 44.0748 268.826 44.0748 269.337C44.0748 269.847 44.156 270.321 44.3184 270.759C44.4808 271.196 44.731 271.549 45.0691 271.818C45.4071 272.086 45.838 272.22 46.3617 272.22ZM52.7862 262.933V273.115H51.6129V262.933H52.7862ZM58.0375 273.274C57.3481 273.274 56.7432 273.11 56.2228 272.782C55.7058 272.454 55.3014 271.995 55.0098 271.405C54.7214 270.815 54.5772 270.126 54.5772 269.337C54.5772 268.541 54.7214 267.847 55.0098 267.254C55.3014 266.66 55.7058 266.2 56.2228 265.872C56.7432 265.544 57.3481 265.379 58.0375 265.379C58.7269 265.379 59.3301 265.544 59.8471 265.872C60.3675 266.2 60.7718 266.66 61.0602 267.254C61.3519 267.847 61.4977 268.541 61.4977 269.337C61.4977 270.126 61.3519 270.815 61.0602 271.405C60.7718 271.995 60.3675 272.454 59.8471 272.782C59.3301 273.11 58.7269 273.274 58.0375 273.274ZM58.0375 272.22C58.5611 272.22 58.992 272.086 59.3301 271.818C59.6681 271.549 59.9184 271.196 60.0808 270.759C60.2432 270.321 60.3244 269.847 60.3244 269.337C60.3244 268.826 60.2432 268.351 60.0808 267.91C59.9184 267.469 59.6681 267.113 59.3301 266.841C58.992 266.569 58.5611 266.433 58.0375 266.433C57.5138 266.433 57.0829 266.569 56.7449 266.841C56.4068 267.113 56.1565 267.469 55.9941 267.91C55.8317 268.351 55.7505 268.826 55.7505 269.337C55.7505 269.847 55.8317 270.321 55.9941 270.759C56.1565 271.196 56.4068 271.549 56.7449 271.818C57.0829 272.086 57.5138 272.22 58.0375 272.22ZM63.2887 273.115V265.479H64.4222V266.632H64.5018C64.641 266.254 64.8929 265.948 65.2575 265.713C65.622 265.477 66.033 265.36 66.4904 265.36C66.5766 265.36 66.6843 265.361 66.8136 265.365C66.9428 265.368 67.0406 265.373 67.1069 265.379V266.573C67.0671 266.563 66.976 266.548 66.8335 266.528C66.6942 266.505 66.5468 266.493 66.391 266.493C66.0198 266.493 65.6883 266.571 65.3967 266.727C65.1083 266.879 64.8796 267.091 64.7106 267.363C64.5449 267.632 64.462 267.938 64.462 268.283V273.115H63.2887Z" fill="#1F2024"/>
<rect x="319" y="256.115" width="24" height="24" rx="12" fill="#006FFD"/>
<path d="M332.202 264.843V272.115H330.885V266.124H330.842L329.141 267.211V266.004L330.949 264.843H332.202Z" fill="white"/>
<rect x="32" y="298.115" width="60" height="24" rx="12" fill="#EAF2FF"/>
<path d="M44.9156 314.115V306.843H47.6997C48.2252 306.843 48.662 306.925 49.01 307.091C49.3604 307.254 49.622 307.478 49.7948 307.762C49.97 308.046 50.0576 308.368 50.0576 308.728C50.0576 309.024 50.0008 309.277 49.8872 309.488C49.7735 309.696 49.6208 309.866 49.4291 309.996C49.2373 310.126 49.0231 310.22 48.7863 310.276V310.347C49.0444 310.362 49.2918 310.441 49.5285 310.585C49.7676 310.727 49.9629 310.929 50.1144 311.189C50.266 311.45 50.3417 311.764 50.3417 312.134C50.3417 312.51 50.2506 312.849 50.0683 313.149C49.886 313.448 49.6114 313.683 49.2444 313.856C48.8775 314.029 48.4158 314.115 47.8595 314.115H44.9156ZM46.233 313.014H47.6499C48.1282 313.014 48.4726 312.923 48.6833 312.741C48.8964 312.556 49.0029 312.32 49.0029 312.031C49.0029 311.815 48.9497 311.621 48.8431 311.448C48.7366 311.273 48.5851 311.136 48.3886 311.036C48.1921 310.935 47.9577 310.884 47.6855 310.884H46.233V313.014ZM46.233 309.936H47.5363C47.7636 309.936 47.9684 309.894 48.1507 309.811C48.3329 309.726 48.4762 309.606 48.5803 309.453C48.6869 309.296 48.7401 309.112 48.7401 308.899C48.7401 308.617 48.6407 308.385 48.4419 308.203C48.2454 308.02 47.953 307.929 47.5647 307.929H46.233V309.936ZM51.9878 314.115V306.843H53.3053V313.011H56.5084V314.115H51.9878ZM59.3593 314.115H57.953L60.5134 306.843H62.1398L64.7037 314.115H63.2975L61.355 308.334H61.2982L59.3593 314.115ZM59.4055 311.264H63.2407V312.322H59.4055V311.264ZM72.045 309.296H70.7169C70.679 309.079 70.6092 308.886 70.5074 308.718C70.4056 308.547 70.2789 308.403 70.1274 308.284C69.9759 308.166 69.8031 308.077 69.6089 308.018C69.4172 307.956 69.21 307.926 68.9875 307.926C68.5921 307.926 68.2417 308.025 67.9363 308.224C67.6309 308.42 67.3918 308.709 67.219 309.09C67.0462 309.469 66.9598 309.932 66.9598 310.479C66.9598 311.035 67.0462 311.504 67.219 311.885C67.3942 312.264 67.6333 312.55 67.9363 312.744C68.2417 312.936 68.5909 313.032 68.9839 313.032C69.2017 313.032 69.4053 313.004 69.5947 312.947C69.7865 312.888 69.9581 312.801 70.1096 312.688C70.2635 312.574 70.3925 312.434 70.4967 312.269C70.6032 312.103 70.6766 311.914 70.7169 311.7L72.045 311.708C71.9953 312.053 71.8876 312.378 71.7219 312.681C71.5585 312.984 71.3443 313.251 71.0791 313.483C70.814 313.713 70.5038 313.893 70.1487 314.023C69.7936 314.151 69.3994 314.215 68.9662 314.215C68.327 314.215 67.7564 314.067 67.2545 313.771C66.7526 313.475 66.3573 313.048 66.0684 312.489C65.7796 311.93 65.6352 311.26 65.6352 310.479C65.6352 309.695 65.7808 309.025 66.072 308.469C66.3632 307.91 66.7597 307.483 67.2616 307.187C67.7635 306.891 68.3317 306.743 68.9662 306.743C69.371 306.743 69.7474 306.8 70.0954 306.914C70.4434 307.027 70.7536 307.194 71.0258 307.414C71.2981 307.632 71.5218 307.9 71.697 308.217C71.8746 308.532 71.9906 308.892 72.045 309.296ZM73.7515 314.115V306.843H75.069V310.184H75.1578L77.9951 306.843H79.6038L76.7913 310.106L79.6286 314.115H78.0448L75.8751 310.997L75.069 311.949V314.115H73.7515Z" fill="#006FFD"/>
<rect x="100" y="298.115" width="59" height="24" rx="12" fill="#EAF2FF"/>
<path d="M114.283 314.115L112.23 306.843H113.647L114.958 312.187H115.025L116.424 306.843H117.713L119.116 312.191H119.18L120.49 306.843H121.907L119.855 314.115H118.555L117.099 309.012H117.042L115.583 314.115H114.283ZM123.321 314.115V306.843H124.638V309.921H128.008V306.843H129.329V314.115H128.008V311.026H124.638V314.115H123.321ZM132.58 306.843V314.115H131.262V306.843H132.58ZM134.187 307.947V306.843H139.989V307.947H137.741V314.115H136.435V307.947H134.187ZM141.608 314.115V306.843H146.338V307.947H142.925V309.921H146.093V311.026H142.925V313.011H146.366V314.115H141.608Z" fill="#006FFD"/>
<rect x="167" y="298.115" width="53" height="24" rx="12" fill="#EAF2FF"/>
<path d="M184.756 309.165C184.696 308.973 184.615 308.802 184.51 308.65C184.409 308.496 184.286 308.365 184.141 308.256C183.999 308.147 183.836 308.065 183.651 308.011C183.466 307.954 183.265 307.926 183.047 307.926C182.657 307.926 182.309 308.024 182.003 308.22C181.698 308.417 181.458 308.706 181.282 309.087C181.11 309.466 181.023 309.927 181.023 310.472C181.023 311.021 181.11 311.486 181.282 311.867C181.455 312.249 181.696 312.539 182.003 312.737C182.311 312.934 182.669 313.032 183.076 313.032C183.445 313.032 183.765 312.961 184.035 312.819C184.307 312.677 184.516 312.476 184.663 312.215C184.81 311.953 184.883 311.645 184.883 311.292L185.182 311.338H183.207V310.308H186.158V311.182C186.158 311.805 186.026 312.343 185.76 312.798C185.495 313.252 185.131 313.603 184.667 313.849C184.203 314.093 183.67 314.215 183.069 314.215C182.399 314.215 181.81 314.064 181.304 313.764C180.8 313.461 180.405 313.031 180.121 312.475C179.84 311.916 179.699 311.253 179.699 310.486C179.699 309.899 179.782 309.374 179.947 308.913C180.115 308.451 180.35 308.059 180.65 307.737C180.951 307.413 181.304 307.167 181.709 306.999C182.113 306.828 182.554 306.743 183.03 306.743C183.432 306.743 183.807 306.802 184.155 306.921C184.503 307.037 184.812 307.202 185.082 307.418C185.354 307.633 185.578 307.889 185.753 308.185C185.929 308.481 186.043 308.807 186.098 309.165H184.756ZM187.932 314.115V306.843H190.659C191.218 306.843 191.687 306.94 192.066 307.134C192.447 307.328 192.734 307.6 192.929 307.95C193.125 308.298 193.223 308.704 193.223 309.169C193.223 309.635 193.124 310.04 192.925 310.383C192.729 310.724 192.439 310.988 192.055 311.175C191.672 311.36 191.2 311.452 190.642 311.452H188.699V310.358H190.464C190.791 310.358 191.058 310.313 191.267 310.223C191.475 310.131 191.629 309.997 191.728 309.822C191.83 309.644 191.881 309.427 191.881 309.169C191.881 308.91 191.83 308.69 191.728 308.508C191.627 308.323 191.471 308.184 191.263 308.089C191.055 307.992 190.786 307.943 190.457 307.943H189.25V314.115H187.932ZM191.689 310.82L193.49 314.115H192.02L190.251 310.82H191.689ZM194.936 314.115V306.843H199.666V307.947H196.254V309.921H199.421V311.026H196.254V313.011H199.695V314.115H194.936ZM201.013 306.843H202.501L204.28 310.06H204.351L206.13 306.843H207.618L204.973 311.402V314.115H203.659V311.402L201.013 306.843Z" fill="#006FFD"/>
<rect x="228" y="298.115" width="69" height="24" rx="12" fill="#EAF2FF"/>
<path d="M240.577 306.843H242.065L243.844 310.06H243.915L245.694 306.843H247.182L244.536 311.402V314.115H243.222V311.402L240.577 306.843ZM248.615 314.115V306.843H253.345V307.947H249.932V309.921H253.1V311.026H249.932V313.011H253.373V314.115H248.615ZM255.189 314.115V306.843H256.506V313.011H259.71V314.115H255.189ZM261.353 314.115V306.843H262.671V313.011H265.874V314.115H261.353ZM273.733 310.479C273.733 311.262 273.586 311.934 273.292 312.492C273.001 313.049 272.603 313.475 272.099 313.771C271.597 314.067 271.028 314.215 270.391 314.215C269.754 314.215 269.184 314.067 268.679 313.771C268.177 313.472 267.78 313.045 267.486 312.489C267.195 311.93 267.049 311.26 267.049 310.479C267.049 309.695 267.195 309.025 267.486 308.469C267.78 307.91 268.177 307.483 268.679 307.187C269.184 306.891 269.754 306.743 270.391 306.743C271.028 306.743 271.597 306.891 272.099 307.187C272.603 307.483 273.001 307.91 273.292 308.469C273.586 309.025 273.733 309.695 273.733 310.479ZM272.408 310.479C272.408 309.927 272.322 309.462 272.149 309.083C271.978 308.702 271.742 308.414 271.438 308.22C271.135 308.024 270.786 307.926 270.391 307.926C269.996 307.926 269.646 308.024 269.343 308.22C269.04 308.414 268.802 308.702 268.63 309.083C268.459 309.462 268.374 309.927 268.374 310.479C268.374 311.03 268.459 311.497 268.63 311.878C268.802 312.257 269.04 312.544 269.343 312.741C269.646 312.935 269.996 313.032 270.391 313.032C270.786 313.032 271.135 312.935 271.438 312.741C271.742 312.544 271.978 312.257 272.149 311.878C272.322 311.497 272.408 311.03 272.408 310.479ZM276.823 314.115L274.771 306.843H276.187L277.498 312.187H277.565L278.964 306.843H280.253L281.656 312.191H281.72L283.03 306.843H284.447L282.395 314.115H281.095L279.639 309.012H279.582L278.123 314.115H276.823Z" fill="#006FFD"/>
<rect x="32" y="330.115" width="52" height="24" rx="12" fill="#EAF2FF"/>
<path d="M45.1451 346.115V338.843H47.9292C48.4547 338.843 48.8915 338.925 49.2395 339.091C49.5899 339.254 49.8515 339.478 50.0243 339.762C50.1995 340.046 50.2871 340.368 50.2871 340.728C50.2871 341.024 50.2303 341.277 50.1167 341.488C50.003 341.696 49.8503 341.866 49.6586 341.996C49.4668 342.126 49.2525 342.22 49.0158 342.276V342.347C49.2739 342.362 49.5212 342.441 49.758 342.585C49.9971 342.727 50.1924 342.929 50.3439 343.189C50.4954 343.45 50.5712 343.764 50.5712 344.134C50.5712 344.51 50.4801 344.849 50.2978 345.149C50.1155 345.448 49.8409 345.683 49.4739 345.856C49.1069 346.029 48.6453 346.115 48.089 346.115H45.1451ZM46.4625 345.014H47.8794C48.3577 345.014 48.7021 344.923 48.9128 344.741C49.1259 344.556 49.2324 344.32 49.2324 344.031C49.2324 343.815 49.1792 343.621 49.0726 343.448C48.9661 343.273 48.8146 343.136 48.6181 343.036C48.4216 342.935 48.1872 342.884 47.915 342.884H46.4625V345.014ZM46.4625 341.936H47.7658C47.9931 341.936 48.1979 341.894 48.3801 341.811C48.5624 341.726 48.7057 341.606 48.8098 341.453C48.9164 341.296 48.9696 341.112 48.9696 340.899C48.9696 340.617 48.8702 340.385 48.6713 340.203C48.4748 340.02 48.1825 339.929 47.7942 339.929H46.4625V341.936ZM52.2173 346.115V338.843H53.5348V345.011H56.7379V346.115H52.2173ZM62.9659 338.843H64.2834V343.594C64.2834 344.115 64.1603 344.573 63.9141 344.968C63.6702 345.364 63.3269 345.673 62.8842 345.895C62.4415 346.115 61.9242 346.225 61.3324 346.225C60.7382 346.225 60.2197 346.115 59.777 345.895C59.3343 345.673 58.991 345.364 58.7472 344.968C58.5033 344.573 58.3814 344.115 58.3814 343.594V338.843H59.6989V343.484C59.6989 343.787 59.7652 344.057 59.8977 344.294C60.0327 344.53 60.2221 344.716 60.4659 344.851C60.7098 344.984 60.9986 345.05 61.3324 345.05C61.6662 345.05 61.955 344.984 62.1989 344.851C62.4451 344.716 62.6345 344.53 62.767 344.294C62.8996 344.057 62.9659 343.787 62.9659 343.484V338.843ZM66.2154 346.115V338.843H70.9455V339.947H67.5328V341.921H70.7005V343.026H67.5328V345.011H70.9739V346.115H66.2154Z" fill="#006FFD"/>
<rect x="92" y="330.115" width="65" height="24" rx="12" fill="#EAF2FF"/>
<path d="M104.744 346.115V338.843H107.471C108.03 338.843 108.498 338.947 108.877 339.155C109.258 339.363 109.546 339.65 109.74 340.014C109.937 340.377 110.035 340.789 110.035 341.25C110.035 341.717 109.937 342.131 109.74 342.493C109.544 342.855 109.254 343.141 108.87 343.349C108.487 343.555 108.014 343.658 107.453 343.658H105.646V342.575H107.276C107.602 342.575 107.87 342.518 108.078 342.404C108.287 342.291 108.44 342.134 108.54 341.936C108.642 341.737 108.693 341.508 108.693 341.25C108.693 340.992 108.642 340.765 108.54 340.568C108.44 340.372 108.285 340.219 108.075 340.11C107.866 339.999 107.598 339.943 107.269 339.943H106.061V346.115H104.744ZM116.264 338.843H117.581V343.594C117.581 344.115 117.458 344.573 117.212 344.968C116.968 345.364 116.625 345.673 116.182 345.895C115.739 346.115 115.222 346.225 114.63 346.225C114.036 346.225 113.518 346.115 113.075 345.895C112.632 345.673 112.289 345.364 112.045 344.968C111.801 344.573 111.679 344.115 111.679 343.594V338.843H112.997V343.484C112.997 343.787 113.063 344.057 113.196 344.294C113.331 344.53 113.52 344.716 113.764 344.851C114.008 344.984 114.296 345.05 114.63 345.05C114.964 345.05 115.253 344.984 115.497 344.851C115.743 344.716 115.932 344.53 116.065 344.294C116.197 344.057 116.264 343.787 116.264 343.484V338.843ZM119.513 346.115V338.843H122.241C122.799 338.843 123.268 338.94 123.647 339.134C124.028 339.328 124.316 339.6 124.51 339.95C124.706 340.298 124.804 340.704 124.804 341.169C124.804 341.635 124.705 342.04 124.506 342.383C124.31 342.724 124.02 342.988 123.636 343.175C123.253 343.36 122.781 343.452 122.223 343.452H120.28V342.358H122.045C122.372 342.358 122.639 342.313 122.848 342.223C123.056 342.131 123.21 341.997 123.309 341.822C123.411 341.644 123.462 341.427 123.462 341.169C123.462 340.91 123.411 340.69 123.309 340.508C123.208 340.323 123.053 340.184 122.844 340.089C122.636 339.992 122.367 339.943 122.038 339.943H120.831V346.115H119.513ZM123.27 342.82L125.071 346.115H123.601L121.832 342.82H123.27ZM126.517 346.115V338.843H129.244C129.803 338.843 130.272 338.947 130.651 339.155C131.032 339.363 131.319 339.65 131.514 340.014C131.71 340.377 131.808 340.789 131.808 341.25C131.808 341.717 131.71 342.131 131.514 342.493C131.317 342.855 131.027 343.141 130.644 343.349C130.26 343.555 129.788 343.658 129.227 343.658H127.419V342.575H129.049C129.376 342.575 129.643 342.518 129.852 342.404C130.06 342.291 130.214 342.134 130.313 341.936C130.415 341.737 130.466 341.508 130.466 341.25C130.466 340.992 130.415 340.765 130.313 340.568C130.214 340.372 130.059 340.219 129.848 340.11C129.64 339.999 129.371 339.943 129.042 339.943H127.835V346.115H126.517ZM133.453 346.115V338.843H134.77V345.011H137.973V346.115H133.453ZM139.617 346.115V338.843H144.347V339.947H140.934V341.921H144.102V343.026H140.934V345.011H144.375V346.115H139.617Z" fill="#006FFD"/>
<rect x="165" y="330.115" width="60" height="24" rx="12" fill="#006FFD"/>
<path d="M182.783 341.165C182.724 340.973 182.642 340.802 182.538 340.65C182.436 340.496 182.313 340.365 182.169 340.256C182.026 340.147 181.863 340.065 181.678 340.011C181.494 339.954 181.293 339.926 181.075 339.926C180.684 339.926 180.336 340.024 180.031 340.22C179.725 340.417 179.485 340.706 179.31 341.087C179.137 341.466 179.051 341.927 179.051 342.472C179.051 343.021 179.137 343.486 179.31 343.867C179.483 344.249 179.723 344.539 180.031 344.737C180.338 344.934 180.696 345.032 181.103 345.032C181.472 345.032 181.792 344.961 182.062 344.819C182.334 344.677 182.544 344.476 182.691 344.215C182.837 343.953 182.911 343.645 182.911 343.292L183.209 343.338H181.235V342.308H184.186V343.182C184.186 343.805 184.053 344.343 183.788 344.798C183.523 345.252 183.158 345.603 182.694 345.849C182.23 346.093 181.697 346.215 181.096 346.215C180.426 346.215 179.838 346.064 179.331 345.764C178.827 345.461 178.433 345.031 178.149 344.475C177.867 343.916 177.726 343.253 177.726 342.486C177.726 341.899 177.809 341.374 177.975 340.913C178.143 340.451 178.377 340.059 178.678 339.737C178.978 339.413 179.331 339.167 179.736 338.999C180.141 338.828 180.581 338.743 181.057 338.743C181.459 338.743 181.835 338.802 182.183 338.921C182.531 339.037 182.84 339.202 183.11 339.418C183.382 339.633 183.606 339.889 183.781 340.185C183.956 340.481 184.071 340.807 184.125 341.165H182.783ZM185.96 346.115V338.843H188.687C189.246 338.843 189.714 338.94 190.093 339.134C190.474 339.328 190.762 339.6 190.956 339.95C191.152 340.298 191.251 340.704 191.251 341.169C191.251 341.635 191.151 342.04 190.952 342.383C190.756 342.724 190.466 342.988 190.082 343.175C189.699 343.36 189.228 343.452 188.669 343.452H186.727V342.358H188.491C188.818 342.358 189.086 342.313 189.294 342.223C189.502 342.131 189.656 341.997 189.756 341.822C189.857 341.644 189.908 341.427 189.908 341.169C189.908 340.91 189.857 340.69 189.756 340.508C189.654 340.323 189.499 340.184 189.29 340.089C189.082 339.992 188.813 339.943 188.484 339.943H187.277V346.115H185.96ZM189.717 342.82L191.517 346.115H190.047L188.278 342.82H189.717ZM192.963 346.115V338.843H197.694V339.947H194.281V341.921H197.449V343.026H194.281V345.011H197.722V346.115H192.963ZM199.538 346.115V338.843H204.268V339.947H200.855V341.921H204.023V343.026H200.855V345.011H204.296V346.115H199.538ZM212.088 338.843V346.115H210.917L207.49 341.161H207.429V346.115H206.112V338.843H207.291L210.714 343.8H210.778V338.843H212.088Z" fill="white"/>
<rect x="233" y="330.115" width="45" height="24" rx="12" fill="#EAF2FF"/>
<path d="M245.805 346.115V338.843H248.532C249.091 338.843 249.56 338.94 249.939 339.134C250.32 339.328 250.608 339.6 250.802 339.95C250.998 340.298 251.096 340.704 251.096 341.169C251.096 341.635 250.997 342.04 250.798 342.383C250.602 342.724 250.312 342.988 249.928 343.175C249.545 343.36 249.073 343.452 248.515 343.452H246.572V342.358H248.337C248.664 342.358 248.931 342.313 249.14 342.223C249.348 342.131 249.502 341.997 249.601 341.822C249.703 341.644 249.754 341.427 249.754 341.169C249.754 340.91 249.703 340.69 249.601 340.508C249.5 340.323 249.345 340.184 249.136 340.089C248.928 339.992 248.659 339.943 248.33 339.943H247.123V346.115H245.805ZM249.562 342.82L251.363 346.115H249.893L248.124 342.82H249.562ZM252.809 346.115V338.843H257.539V339.947H254.127V341.921H257.294V343.026H254.127V345.011H257.568V346.115H252.809ZM261.848 346.115H259.383V338.843H261.898C262.62 338.843 263.24 338.988 263.758 339.279C264.279 339.568 264.679 339.984 264.959 340.526C265.238 341.068 265.378 341.717 265.378 342.472C265.378 343.229 265.237 343.88 264.955 344.425C264.676 344.969 264.272 345.387 263.744 345.678C263.219 345.97 262.586 346.115 261.848 346.115ZM260.701 344.975H261.784C262.291 344.975 262.713 344.883 263.052 344.698C263.39 344.511 263.645 344.233 263.815 343.864C263.986 343.492 264.071 343.028 264.071 342.472C264.071 341.915 263.986 341.454 263.815 341.087C263.645 340.718 263.393 340.442 263.059 340.259C262.727 340.075 262.315 339.982 261.823 339.982H260.701V344.975Z" fill="#006FFD"/>
<rect x="286" y="330.115" width="49" height="24" rx="12" fill="#EAF2FF"/>
<path d="M298.788 346.115V338.843H301.515C302.074 338.843 302.542 338.947 302.921 339.155C303.302 339.363 303.59 339.65 303.784 340.014C303.981 340.377 304.079 340.789 304.079 341.25C304.079 341.717 303.981 342.131 303.784 342.493C303.588 342.855 303.298 343.141 302.914 343.349C302.531 343.555 302.058 343.658 301.497 343.658H299.69V342.575H301.32C301.646 342.575 301.914 342.518 302.122 342.404C302.33 342.291 302.484 342.134 302.584 341.936C302.686 341.737 302.737 341.508 302.737 341.25C302.737 340.992 302.686 340.765 302.584 340.568C302.484 340.372 302.329 340.219 302.119 340.11C301.91 339.999 301.642 339.943 301.312 339.943H300.105V346.115H298.788ZM307.041 338.843V346.115H305.723V338.843H307.041ZM314.944 338.843V346.115H313.772L310.345 341.161H310.285V346.115H308.967V338.843H310.146L313.57 343.8H313.634V338.843H314.944ZM316.879 346.115V338.843H318.197V342.184H318.286L321.123 338.843H322.732L319.919 342.106L322.757 346.115H321.173L319.003 342.997L318.197 343.949V346.115H316.879Z" fill="#006FFD"/>
<rect x="32" y="362.115" width="70" height="24" rx="12" fill="#EAF2FF"/>
<path d="M51.7061 374.479C51.7061 375.262 51.5594 375.934 51.2658 376.492C50.9746 377.049 50.5769 377.475 50.0726 377.771C49.5707 378.067 49.0014 378.215 48.3645 378.215C47.7277 378.215 47.1571 378.067 46.6529 377.771C46.151 377.472 45.7533 377.045 45.4597 376.489C45.1685 375.93 45.0229 375.26 45.0229 374.479C45.0229 373.695 45.1685 373.025 45.4597 372.469C45.7533 371.91 46.151 371.483 46.6529 371.187C47.1571 370.891 47.7277 370.743 48.3645 370.743C49.0014 370.743 49.5707 370.891 50.0726 371.187C50.5769 371.483 50.9746 371.91 51.2658 372.469C51.5594 373.025 51.7061 373.695 51.7061 374.479ZM50.3816 374.479C50.3816 373.927 50.2952 373.462 50.1223 373.083C49.9519 372.702 49.7151 372.414 49.4121 372.22C49.1091 372.024 48.7599 371.926 48.3645 371.926C47.9692 371.926 47.62 372.024 47.3169 372.22C47.0139 372.414 46.776 372.702 46.6032 373.083C46.4327 373.462 46.3475 373.927 46.3475 374.479C46.3475 375.03 46.4327 375.497 46.6032 375.878C46.776 376.257 47.0139 376.544 47.3169 376.741C47.62 376.935 47.9692 377.032 48.3645 377.032C48.7599 377.032 49.1091 376.935 49.4121 376.741C49.7151 376.544 49.9519 376.257 50.1223 375.878C50.2952 375.497 50.3816 375.03 50.3816 374.479ZM53.4517 378.115V370.843H56.179C56.7377 370.843 57.2064 370.94 57.5852 371.134C57.9664 371.328 58.254 371.6 58.4482 371.95C58.6446 372.298 58.7429 372.704 58.7429 373.169C58.7429 373.635 58.6435 374.04 58.4446 374.383C58.2481 374.724 57.9581 374.988 57.5746 375.175C57.1911 375.36 56.7199 375.452 56.1612 375.452H54.2188V374.358H55.9837C56.3104 374.358 56.5779 374.313 56.7862 374.223C56.9946 374.131 57.1484 373.997 57.2479 373.822C57.3497 373.644 57.4006 373.427 57.4006 373.169C57.4006 372.91 57.3497 372.69 57.2479 372.508C57.1461 372.323 56.991 372.184 56.7827 372.089C56.5743 371.992 56.3056 371.943 55.9766 371.943H54.7692V378.115H53.4517ZM57.2088 374.82L59.0092 378.115H57.5391L55.7706 374.82H57.2088ZM61.3896 378.115H59.9833L62.5437 370.843H64.1701L66.734 378.115H65.3278L63.3853 372.334H63.3285L61.3896 378.115ZM61.4357 375.264H65.271V376.322H61.4357V375.264ZM74.1685 370.843V378.115H72.9966L69.5698 373.161H69.5094V378.115H68.1919V370.843H69.3709L72.7942 375.8H72.8581V370.843H74.1685ZM80.9762 373.165C80.917 372.973 80.8353 372.802 80.7312 372.65C80.6294 372.496 80.5063 372.365 80.3619 372.256C80.2198 372.147 80.0565 372.065 79.8718 372.011C79.6871 371.954 79.4859 371.926 79.2681 371.926C78.8775 371.926 78.5295 372.024 78.2241 372.22C77.9187 372.417 77.6784 372.706 77.5032 373.087C77.3304 373.466 77.244 373.927 77.244 374.472C77.244 375.021 77.3304 375.486 77.5032 375.867C77.676 376.249 77.9163 376.539 78.2241 376.737C78.5318 376.934 78.8893 377.032 79.2965 377.032C79.6658 377.032 79.9854 376.961 80.2553 376.819C80.5276 376.677 80.7371 376.476 80.8839 376.215C81.0307 375.953 81.104 375.645 81.104 375.292L81.4023 375.338H79.4279V374.308H82.3789V375.182C82.3789 375.805 82.2463 376.343 81.9812 376.798C81.716 377.252 81.3514 377.603 80.8874 377.849C80.4234 378.093 79.8907 378.215 79.2894 378.215C78.6194 378.215 78.0311 378.064 77.5245 377.764C77.0202 377.461 76.6261 377.031 76.342 376.475C76.0603 375.916 75.9194 375.253 75.9194 374.486C75.9194 373.899 76.0022 373.374 76.168 372.913C76.3361 372.451 76.5704 372.059 76.8711 371.737C77.1718 371.413 77.5245 371.167 77.9293 370.999C78.3342 370.828 78.7745 370.743 79.2504 370.743C79.6528 370.743 80.0281 370.802 80.3761 370.921C80.7241 371.037 81.033 371.202 81.3029 371.418C81.5752 371.633 81.7989 371.889 81.9741 372.185C82.1493 372.481 82.2641 372.807 82.3185 373.165H80.9762ZM84.1529 378.115V370.843H88.883V371.947H85.4703V373.921H88.638V375.026H85.4703V377.011H88.9114V378.115H84.1529Z" fill="#006FFD"/>
<rect x="110" y="362.115" width="54" height="24" rx="12" fill="#EAF2FF"/>
<path d="M127.738 373.165C127.679 372.973 127.597 372.802 127.493 372.65C127.391 372.496 127.268 372.365 127.124 372.256C126.982 372.147 126.818 372.065 126.634 372.011C126.449 371.954 126.248 371.926 126.03 371.926C125.639 371.926 125.291 372.024 124.986 372.22C124.68 372.417 124.44 372.706 124.265 373.087C124.092 373.466 124.006 373.927 124.006 374.472C124.006 375.021 124.092 375.486 124.265 375.867C124.438 376.249 124.678 376.539 124.986 376.737C125.294 376.934 125.651 377.032 126.058 377.032C126.428 377.032 126.747 376.961 127.017 376.819C127.289 376.677 127.499 376.476 127.646 376.215C127.792 375.953 127.866 375.645 127.866 375.292L128.164 375.338H126.19V374.308H129.141V375.182C129.141 375.805 129.008 376.343 128.743 376.798C128.478 377.252 128.113 377.603 127.649 377.849C127.185 378.093 126.652 378.215 126.051 378.215C125.381 378.215 124.793 378.064 124.286 377.764C123.782 377.461 123.388 377.031 123.104 376.475C122.822 375.916 122.681 375.253 122.681 374.486C122.681 373.899 122.764 373.374 122.93 372.913C123.098 372.451 123.332 372.059 123.633 371.737C123.933 371.413 124.286 371.167 124.691 370.999C125.096 370.828 125.536 370.743 126.012 370.743C126.415 370.743 126.79 370.802 127.138 370.921C127.486 371.037 127.795 371.202 128.065 371.418C128.337 371.633 128.561 371.889 128.736 372.185C128.911 372.481 129.026 372.807 129.08 373.165H127.738ZM137.413 374.479C137.413 375.262 137.266 375.934 136.973 376.492C136.682 377.049 136.284 377.475 135.78 377.771C135.278 378.067 134.708 378.215 134.072 378.215C133.435 378.215 132.864 378.067 132.36 377.771C131.858 377.472 131.46 377.045 131.167 376.489C130.876 375.93 130.73 375.26 130.73 374.479C130.73 373.695 130.876 373.025 131.167 372.469C131.46 371.91 131.858 371.483 132.36 371.187C132.864 370.891 133.435 370.743 134.072 370.743C134.708 370.743 135.278 370.891 135.78 371.187C136.284 371.483 136.682 371.91 136.973 372.469C137.266 373.025 137.413 373.695 137.413 374.479ZM136.089 374.479C136.089 373.927 136.002 373.462 135.829 373.083C135.659 372.702 135.422 372.414 135.119 372.22C134.816 372.024 134.467 371.926 134.072 371.926C133.676 371.926 133.327 372.024 133.024 372.22C132.721 372.414 132.483 372.702 132.31 373.083C132.14 373.462 132.055 373.927 132.055 374.479C132.055 375.03 132.14 375.497 132.31 375.878C132.483 376.257 132.721 376.544 133.024 376.741C133.327 376.935 133.676 377.032 134.072 377.032C134.467 377.032 134.816 376.935 135.119 376.741C135.422 376.544 135.659 376.257 135.829 375.878C136.002 375.497 136.089 375.03 136.089 374.479ZM139.159 378.115V370.843H140.476V377.011H143.679V378.115H139.159ZM147.787 378.115H145.323V370.843H147.837C148.559 370.843 149.179 370.988 149.698 371.279C150.219 371.568 150.619 371.984 150.898 372.526C151.177 373.068 151.317 373.717 151.317 374.472C151.317 375.229 151.176 375.88 150.895 376.425C150.615 376.969 150.212 377.387 149.684 377.678C149.158 377.97 148.526 378.115 147.787 378.115ZM146.64 376.975H147.723C148.23 376.975 148.653 376.883 148.991 376.698C149.33 376.511 149.584 376.233 149.755 375.864C149.925 375.492 150.01 375.028 150.01 374.472C150.01 373.915 149.925 373.454 149.755 373.087C149.584 372.718 149.332 372.442 148.998 372.259C148.667 372.075 148.255 371.982 147.762 371.982H146.64V376.975Z" fill="#006FFD"/>
<rect x="172" y="362.115" width="61" height="24" rx="12" fill="#EAF2FF"/>
<path d="M188.937 372.842C188.904 372.532 188.765 372.29 188.518 372.117C188.274 371.945 187.957 371.858 187.567 371.858C187.292 371.858 187.056 371.9 186.86 371.982C186.663 372.065 186.513 372.178 186.409 372.32C186.305 372.462 186.251 372.624 186.249 372.806C186.249 372.958 186.283 373.089 186.352 373.2C186.423 373.312 186.519 373.406 186.64 373.485C186.76 373.56 186.894 373.624 187.041 373.676C187.188 373.728 187.336 373.772 187.485 373.808L188.167 373.978C188.441 374.042 188.705 374.128 188.959 374.237C189.214 374.346 189.443 374.484 189.644 374.649C189.848 374.815 190.009 375.015 190.127 375.249C190.245 375.484 190.305 375.758 190.305 376.073C190.305 376.499 190.196 376.875 189.978 377.199C189.76 377.521 189.445 377.773 189.033 377.955C188.624 378.135 188.128 378.225 187.545 378.225C186.979 378.225 186.488 378.138 186.072 377.963C185.657 377.787 185.333 377.532 185.099 377.195C184.867 376.859 184.741 376.45 184.722 375.967H186.018C186.037 376.22 186.115 376.431 186.253 376.599C186.39 376.767 186.569 376.892 186.789 376.975C187.011 377.058 187.26 377.1 187.535 377.1C187.821 377.1 188.072 377.057 188.287 376.972C188.505 376.884 188.676 376.763 188.799 376.61C188.922 376.453 188.985 376.271 188.987 376.063C188.985 375.873 188.929 375.717 188.82 375.594C188.711 375.468 188.559 375.364 188.362 375.281C188.168 375.196 187.941 375.12 187.68 375.054L186.853 374.841C186.254 374.687 185.78 374.454 185.432 374.142C185.087 373.827 184.914 373.409 184.914 372.888C184.914 372.459 185.03 372.084 185.262 371.762C185.496 371.44 185.815 371.191 186.217 371.013C186.62 370.833 187.075 370.743 187.584 370.743C188.1 370.743 188.553 370.833 188.941 371.013C189.331 371.191 189.638 371.438 189.861 371.755C190.083 372.07 190.198 372.432 190.205 372.842H188.937ZM193.297 370.843V378.115H191.979V370.843H193.297ZM195.223 378.115V370.843H196.541V377.011H199.744V378.115H195.223ZM201.608 370.843L203.501 376.567H203.576L205.465 370.843H206.914L204.35 378.115H202.723L200.163 370.843H201.608ZM208.372 378.115V370.843H213.102V371.947H209.689V373.921H212.857V375.026H209.689V377.011H213.13V378.115H208.372ZM214.946 378.115V370.843H217.673C218.232 370.843 218.701 370.94 219.079 371.134C219.461 371.328 219.748 371.6 219.942 371.95C220.139 372.298 220.237 372.704 220.237 373.169C220.237 373.635 220.138 374.04 219.939 374.383C219.742 374.724 219.452 374.988 219.069 375.175C218.685 375.36 218.214 375.452 217.655 375.452H215.713V374.358H217.478C217.805 374.358 218.072 374.313 218.28 374.223C218.489 374.131 218.643 373.997 218.742 373.822C218.844 373.644 218.895 373.427 218.895 373.169C218.895 372.91 218.844 372.69 218.742 372.508C218.64 372.323 218.485 372.184 218.277 372.089C218.068 371.992 217.8 371.943 217.471 371.943H216.263V378.115H214.946ZM218.703 374.82L220.503 378.115H219.033L217.265 374.82H218.703Z" fill="#006FFD"/>
<path d="M16 412.115H359" stroke="#D4D6DD" stroke-width="0.5" stroke-linecap="round"/>
<path d="M38.8011 437.479C38.7415 436.975 38.4995 436.584 38.0753 436.306C37.651 436.027 37.1307 435.888 36.5142 435.888C36.0634 435.888 35.669 435.961 35.331 436.107C34.9962 436.253 34.7344 436.453 34.5455 436.708C34.3598 436.963 34.267 437.253 34.267 437.578C34.267 437.85 34.3317 438.084 34.4609 438.279C34.5935 438.472 34.7625 438.632 34.968 438.762C35.1735 438.887 35.389 438.992 35.6143 439.075C35.8397 439.154 36.0469 439.219 36.2358 439.269L37.2699 439.547C37.535 439.617 37.83 439.713 38.1548 439.835C38.483 439.958 38.7962 440.125 39.0945 440.338C39.3961 440.546 39.6446 440.815 39.8402 441.143C40.0357 441.471 40.1335 441.874 40.1335 442.351C40.1335 442.901 39.9893 443.398 39.701 443.843C39.416 444.287 38.9983 444.64 38.4482 444.901C37.9013 445.163 37.2367 445.294 36.4545 445.294C35.7254 445.294 35.094 445.177 34.5604 444.941C34.0301 444.706 33.6125 444.378 33.3075 443.957C33.0059 443.536 32.8352 443.047 32.7955 442.49H34.0682C34.1013 442.875 34.2306 443.193 34.456 443.445C34.6847 443.693 34.973 443.879 35.321 444.002C35.6723 444.121 36.0502 444.181 36.4545 444.181C36.9252 444.181 37.3478 444.104 37.7223 443.952C38.0968 443.796 38.3935 443.581 38.6122 443.306C38.831 443.027 38.9403 442.702 38.9403 442.331C38.9403 441.993 38.8459 441.718 38.657 441.506C38.468 441.294 38.2195 441.121 37.9112 440.989C37.603 440.856 37.2699 440.74 36.9119 440.641L35.6591 440.283C34.8636 440.054 34.2339 439.728 33.7699 439.303C33.3059 438.879 33.0739 438.324 33.0739 437.638C33.0739 437.068 33.228 436.571 33.5362 436.146C33.8478 435.719 34.2654 435.387 34.7891 435.152C35.3161 434.914 35.9044 434.794 36.554 434.794C37.2102 434.794 37.7936 434.912 38.304 435.147C38.8144 435.379 39.2188 435.697 39.517 436.102C39.8187 436.506 39.9777 436.965 39.9943 437.479H38.8011ZM42.0016 445.115V437.479H43.1749V445.115H42.0016ZM42.5982 436.206C42.3695 436.206 42.1723 436.128 42.0066 435.972C41.8442 435.817 41.763 435.629 41.763 435.411C41.763 435.192 41.8442 435.005 42.0066 434.849C42.1723 434.693 42.3695 434.615 42.5982 434.615C42.8269 434.615 43.0224 434.693 43.1848 434.849C43.3506 435.005 43.4334 435.192 43.4334 435.411C43.4334 435.629 43.3506 435.817 43.1848 435.972C43.0224 436.128 42.8269 436.206 42.5982 436.206ZM45.1051 445.115V444.22L49.4403 438.652V438.573H45.2443V437.479H50.9517V438.414L46.7358 443.942V444.021H51.0909V445.115H45.1051ZM55.881 445.274C55.1452 445.274 54.5105 445.112 53.9769 444.787C53.4466 444.459 53.0373 444.002 52.7489 443.415C52.4639 442.825 52.3214 442.139 52.3214 441.357C52.3214 440.575 52.4639 439.885 52.7489 439.289C53.0373 438.689 53.4383 438.221 53.9521 437.887C54.4691 437.548 55.0723 437.379 55.7617 437.379C56.1594 437.379 56.5522 437.446 56.94 437.578C57.3278 437.711 57.6808 437.926 57.9989 438.225C58.3171 438.52 58.5707 438.911 58.7596 439.398C58.9485 439.885 59.043 440.485 59.043 441.198V441.695H53.1566V440.681H57.8498C57.8498 440.25 57.7636 439.865 57.5913 439.527C57.4222 439.189 57.1803 438.922 56.8654 438.727C56.5539 438.531 56.186 438.433 55.7617 438.433C55.2944 438.433 54.89 438.549 54.5487 438.781C54.2106 439.01 53.9504 439.308 53.7681 439.676C53.5858 440.044 53.4947 440.439 53.4947 440.86V441.536C53.4947 442.112 53.5941 442.601 53.793 443.002C53.9951 443.4 54.2752 443.703 54.6332 443.912C54.9911 444.118 55.4071 444.22 55.881 444.22C56.1893 444.22 56.4677 444.177 56.7163 444.091C56.9682 444.002 57.1853 443.869 57.3675 443.693C57.5498 443.514 57.6907 443.292 57.7901 443.027L58.9237 443.345C58.8043 443.73 58.6038 444.068 58.3221 444.36C58.0404 444.648 57.6924 444.873 57.2781 445.036C56.8638 445.195 56.3981 445.274 55.881 445.274Z" fill="#1F2024"/>
<mask id="mask1_1642_3744" style="mask-type:alpha" maskUnits="userSpaceOnUse" x="331" y="436" width="12" height="8">
<path fill-rule="evenodd" clip-rule="evenodd" d="M342.53 436.841C342.237 436.54 341.763 436.54 341.47 436.841L337 441.435L332.531 436.841C332.238 436.54 331.763 436.54 331.47 436.841C331.177 437.142 331.177 437.63 331.47 437.931L337 443.615L342.53 437.931C342.823 437.63 342.823 437.142 342.53 436.841Z" fill="#006FFD"/>
</mask>
<g mask="url(#mask1_1642_3744)">
<rect x="331" y="434.114" width="11.9995" height="11.9995" fill="#8F9098"/>
</g>
<path d="M16 468.115H359" stroke="#D4D6DD" stroke-width="0.5" stroke-linecap="round"/>
<path d="M41.4261 494.115H40.1932C40.1203 493.761 39.9927 493.449 39.8104 493.181C39.6314 492.912 39.4126 492.687 39.1541 492.504C38.8989 492.319 38.6155 492.18 38.304 492.087C37.9924 491.994 37.6676 491.948 37.3295 491.948C36.7131 491.948 36.1546 492.103 35.6541 492.415C35.157 492.727 34.7609 493.186 34.4659 493.792C34.1742 494.399 34.0284 495.143 34.0284 496.024C34.0284 496.906 34.1742 497.65 34.4659 498.257C34.7609 498.863 35.157 499.322 35.6541 499.634C36.1546 499.945 36.7131 500.101 37.3295 500.101C37.6676 500.101 37.9924 500.055 38.304 499.962C38.6155 499.869 38.8989 499.731 39.1541 499.549C39.4126 499.364 39.6314 499.137 39.8104 498.868C39.9927 498.596 40.1203 498.285 40.1932 497.933H41.4261C41.3333 498.454 41.1643 498.919 40.919 499.33C40.6738 499.741 40.3688 500.091 40.0043 500.379C39.6397 500.664 39.2304 500.882 38.7763 501.031C38.3255 501.18 37.8433 501.254 37.3295 501.254C36.4612 501.254 35.6889 501.042 35.0128 500.618C34.3366 500.194 33.8047 499.591 33.4169 498.808C33.0291 498.026 32.8352 497.098 32.8352 496.024C32.8352 494.95 33.0291 494.022 33.4169 493.24C33.8047 492.458 34.3366 491.855 35.0128 491.431C35.6889 491.006 36.4612 490.794 37.3295 490.794C37.8433 490.794 38.3255 490.869 38.7763 491.018C39.2304 491.167 39.6397 491.386 40.0043 491.674C40.3688 491.959 40.6738 492.307 40.919 492.718C41.1643 493.126 41.3333 493.592 41.4261 494.115ZM48.0719 497.993V493.479H49.2452V501.115H48.0719V499.823H47.9924C47.8134 500.21 47.535 500.54 47.1571 500.812C46.7793 501.08 46.302 501.215 45.7253 501.215C45.248 501.215 44.8238 501.11 44.4526 500.901C44.0814 500.689 43.7897 500.371 43.5776 499.947C43.3655 499.519 43.2594 498.981 43.2594 498.331V493.479H44.4327V498.252C44.4327 498.808 44.5885 499.253 44.9 499.584C45.2149 499.915 45.6159 500.081 46.1032 500.081C46.3948 500.081 46.6915 500.007 46.9931 499.857C47.298 499.708 47.5532 499.48 47.7587 499.171C47.9675 498.863 48.0719 498.47 48.0719 497.993ZM56.8033 495.189L55.7493 495.487C55.683 495.312 55.5852 495.141 55.456 494.975C55.33 494.806 55.1577 494.667 54.9389 494.558C54.7202 494.448 54.4401 494.394 54.0987 494.394C53.6314 494.394 53.242 494.501 52.9304 494.717C52.6222 494.929 52.468 495.199 52.468 495.527C52.468 495.819 52.5741 496.049 52.7862 496.218C52.9983 496.387 53.3298 496.528 53.7805 496.641L54.9141 496.919C55.5968 497.085 56.1056 497.338 56.4403 497.68C56.7751 498.018 56.9425 498.454 56.9425 498.987C56.9425 499.425 56.8165 499.816 56.5646 500.161C56.3161 500.505 55.968 500.777 55.5206 500.976C55.0732 501.175 54.5528 501.274 53.9595 501.274C53.1806 501.274 52.536 501.105 52.0256 500.767C51.5152 500.429 51.192 499.935 51.0561 499.286L52.1697 499.007C52.2758 499.418 52.4763 499.727 52.7713 499.932C53.0696 500.137 53.459 500.24 53.9396 500.24C54.4865 500.24 54.9207 500.124 55.2422 499.892C55.567 499.657 55.7294 499.375 55.7294 499.047C55.7294 498.782 55.6366 498.56 55.451 498.381C55.2654 498.199 54.9804 498.063 54.5959 497.973L53.3232 497.675C52.6238 497.509 52.1101 497.252 51.782 496.904C51.4571 496.553 51.2947 496.114 51.2947 495.587C51.2947 495.156 51.4157 494.775 51.6577 494.443C51.9029 494.112 52.236 493.852 52.657 493.663C53.0812 493.474 53.5618 493.379 54.0987 493.379C54.8544 493.379 55.4477 493.545 55.8786 493.877C56.3127 494.208 56.621 494.646 56.8033 495.189ZM62.0297 493.479V494.473H58.0723V493.479H62.0297ZM59.2257 491.649H60.399V498.928C60.399 499.259 60.447 499.508 60.5431 499.673C60.6426 499.836 60.7685 499.945 60.921 500.002C61.0768 500.055 61.2408 500.081 61.4132 500.081C61.5424 500.081 61.6485 500.075 61.7314 500.061C61.8142 500.045 61.8805 500.031 61.9302 500.021L62.1689 501.075C62.0893 501.105 61.9783 501.135 61.8358 501.165C61.6932 501.198 61.5126 501.215 61.2939 501.215C60.9624 501.215 60.6376 501.143 60.3194 501.001C60.0046 500.858 59.7427 500.641 59.5339 500.35C59.3284 500.058 59.2257 499.69 59.2257 499.246V491.649ZM66.8148 501.274C66.1254 501.274 65.5205 501.11 65.0002 500.782C64.4831 500.454 64.0788 499.995 63.7871 499.405C63.4988 498.815 63.3546 498.126 63.3546 497.337C63.3546 496.541 63.4988 495.847 63.7871 495.254C64.0788 494.66 64.4831 494.2 65.0002 493.872C65.5205 493.544 66.1254 493.379 66.8148 493.379C67.5042 493.379 68.1074 493.544 68.6245 493.872C69.1448 494.2 69.5492 494.66 69.8375 495.254C70.1292 495.847 70.275 496.541 70.275 497.337C70.275 498.126 70.1292 498.815 69.8375 499.405C69.5492 499.995 69.1448 500.454 68.6245 500.782C68.1074 501.11 67.5042 501.274 66.8148 501.274ZM66.8148 500.22C67.3385 500.22 67.7694 500.086 68.1074 499.818C68.4455 499.549 68.6957 499.196 68.8581 498.759C69.0205 498.321 69.1017 497.847 69.1017 497.337C69.1017 496.826 69.0205 496.351 68.8581 495.91C68.6957 495.469 68.4455 495.113 68.1074 494.841C67.7694 494.569 67.3385 494.433 66.8148 494.433C66.2911 494.433 65.8603 494.569 65.5222 494.841C65.1841 495.113 64.9339 495.469 64.7715 495.91C64.6091 496.351 64.5279 496.826 64.5279 497.337C64.5279 497.847 64.6091 498.321 64.7715 498.759C64.9339 499.196 65.1841 499.549 65.5222 499.818C65.8603 500.086 66.2911 500.22 66.8148 500.22ZM72.0661 501.115V493.479H73.1996V494.672H73.299C73.4581 494.264 73.715 493.948 74.0696 493.722C74.4242 493.494 74.8501 493.379 75.3473 493.379C75.8511 493.379 76.2704 493.494 76.6051 493.722C76.9432 493.948 77.2067 494.264 77.3956 494.672H77.4751C77.6707 494.278 77.964 493.964 78.3551 493.732C78.7462 493.497 79.2152 493.379 79.7621 493.379C80.4448 493.379 81.0033 493.593 81.4375 494.021C81.8717 494.445 82.0888 495.106 82.0888 496.004V501.115H80.9155V496.004C80.9155 495.441 80.7614 495.038 80.4531 494.796C80.1449 494.554 79.782 494.433 79.3643 494.433C78.8274 494.433 78.4115 494.596 78.1165 494.921C77.8215 495.242 77.674 495.65 77.674 496.144V501.115H76.4808V495.885C76.4808 495.451 76.34 495.101 76.0582 494.836C75.7765 494.568 75.4136 494.433 74.9695 494.433C74.6645 494.433 74.3795 494.515 74.1143 494.677C73.8525 494.839 73.6404 495.065 73.478 495.353C73.3189 495.638 73.2393 495.968 73.2393 496.343V501.115H72.0661ZM87.4357 501.274C86.6999 501.274 86.0652 501.112 85.5316 500.787C85.0013 500.459 84.592 500.002 84.3036 499.415C84.0186 498.825 83.8761 498.139 83.8761 497.357C83.8761 496.575 84.0186 495.885 84.3036 495.289C84.592 494.689 84.993 494.221 85.5067 493.887C86.0238 493.548 86.627 493.379 87.3164 493.379C87.7141 493.379 88.1069 493.446 88.4947 493.578C88.8825 493.711 89.2354 493.926 89.5536 494.225C89.8718 494.52 90.1254 494.911 90.3143 495.398C90.5032 495.885 90.5977 496.485 90.5977 497.198V497.695H84.7113V496.681H89.4045C89.4045 496.25 89.3183 495.865 89.146 495.527C88.9769 495.189 88.735 494.922 88.4201 494.727C88.1085 494.531 87.7406 494.433 87.3164 494.433C86.8491 494.433 86.4447 494.549 86.1033 494.781C85.7653 495.01 85.5051 495.308 85.3228 495.676C85.1405 496.044 85.0494 496.439 85.0494 496.86V497.536C85.0494 498.112 85.1488 498.601 85.3477 499.002C85.5498 499.4 85.8299 499.703 86.1879 499.912C86.5458 500.118 86.9618 500.22 87.4357 500.22C87.744 500.22 88.0224 500.177 88.271 500.091C88.5228 500.002 88.7399 499.869 88.9222 499.693C89.1045 499.514 89.2454 499.292 89.3448 499.027L90.4783 499.345C90.359 499.73 90.1585 500.068 89.8768 500.36C89.5951 500.648 89.247 500.873 88.8327 501.036C88.4184 501.195 87.9528 501.274 87.4357 501.274ZM92.3825 501.115V493.479H93.516V494.632H93.5955C93.7347 494.254 93.9866 493.948 94.3512 493.713C94.7158 493.477 95.1268 493.36 95.5842 493.36C95.6703 493.36 95.7781 493.361 95.9073 493.365C96.0366 493.368 96.1344 493.373 96.2006 493.379V494.573C96.1609 494.563 96.0697 494.548 95.9272 494.528C95.788 494.505 95.6405 494.493 95.4847 494.493C95.1135 494.493 94.7821 494.571 94.4904 494.727C94.2021 494.879 93.9734 495.091 93.8043 495.363C93.6386 495.632 93.5558 495.938 93.5558 496.283V501.115H92.3825ZM101.688 501.115V490.933H105.128C105.924 490.933 106.577 491.069 107.087 491.341C107.598 491.61 107.975 491.979 108.221 492.45C108.466 492.92 108.589 493.456 108.589 494.056C108.589 494.655 108.466 495.187 108.221 495.651C107.975 496.115 107.599 496.48 107.092 496.745C106.585 497.007 105.937 497.138 105.148 497.138H102.364V496.024H105.108C105.652 496.024 106.09 495.945 106.421 495.786C106.756 495.627 106.998 495.401 107.147 495.11C107.299 494.815 107.376 494.463 107.376 494.056C107.376 493.648 107.299 493.292 107.147 492.987C106.994 492.682 106.751 492.446 106.416 492.281C106.081 492.112 105.639 492.027 105.089 492.027H102.921V501.115H101.688ZM106.481 496.541L108.986 501.115H107.555L105.089 496.541H106.481ZM113.604 501.274C112.868 501.274 112.233 501.112 111.7 500.787C111.169 500.459 110.76 500.002 110.472 499.415C110.187 498.825 110.044 498.139 110.044 497.357C110.044 496.575 110.187 495.885 110.472 495.289C110.76 494.689 111.161 494.221 111.675 493.887C112.192 493.548 112.795 493.379 113.484 493.379C113.882 493.379 114.275 493.446 114.663 493.578C115.05 493.711 115.403 493.926 115.722 494.225C116.04 494.52 116.293 494.911 116.482 495.398C116.671 495.885 116.766 496.485 116.766 497.198V497.695H110.879V496.681H115.572C115.572 496.25 115.486 495.865 115.314 495.527C115.145 495.189 114.903 494.922 114.588 494.727C114.277 494.531 113.909 494.433 113.484 494.433C113.017 494.433 112.613 494.549 112.271 494.781C111.933 495.01 111.673 495.308 111.491 495.676C111.308 496.044 111.217 496.439 111.217 496.86V497.536C111.217 498.112 111.317 498.601 111.516 499.002C111.718 499.4 111.998 499.703 112.356 499.912C112.714 500.118 113.13 500.22 113.604 500.22C113.912 500.22 114.19 500.177 114.439 500.091C114.691 500.002 114.908 499.869 115.09 499.693C115.272 499.514 115.413 499.292 115.513 499.027L116.646 499.345C116.527 499.73 116.326 500.068 116.045 500.36C115.763 500.648 115.415 500.873 115.001 501.036C114.586 501.195 114.121 501.274 113.604 501.274ZM124.562 493.479L121.738 501.115H120.545L117.721 493.479H118.994L121.102 499.564H121.182L123.29 493.479H124.562ZM126.111 501.115V493.479H127.284V501.115H126.111ZM126.708 492.206C126.479 492.206 126.282 492.128 126.116 491.972C125.954 491.817 125.872 491.629 125.872 491.411C125.872 491.192 125.954 491.005 126.116 490.849C126.282 490.693 126.479 490.615 126.708 490.615C126.936 490.615 127.132 490.693 127.294 490.849C127.46 491.005 127.543 491.192 127.543 491.411C127.543 491.629 127.46 491.817 127.294 491.972C127.132 492.128 126.936 492.206 126.708 492.206ZM132.635 501.274C131.899 501.274 131.264 501.112 130.731 500.787C130.201 500.459 129.791 500.002 129.503 499.415C129.218 498.825 129.075 498.139 129.075 497.357C129.075 496.575 129.218 495.885 129.503 495.289C129.791 494.689 130.192 494.221 130.706 493.887C131.223 493.548 131.826 493.379 132.516 493.379C132.913 493.379 133.306 493.446 133.694 493.578C134.082 493.711 134.435 493.926 134.753 494.225C135.071 494.52 135.325 494.911 135.513 495.398C135.702 495.885 135.797 496.485 135.797 497.198V497.695H129.911V496.681H134.604C134.604 496.25 134.518 495.865 134.345 495.527C134.176 495.189 133.934 494.922 133.619 494.727C133.308 494.531 132.94 494.433 132.516 494.433C132.048 494.433 131.644 494.549 131.303 494.781C130.964 495.01 130.704 495.308 130.522 495.676C130.34 496.044 130.249 496.439 130.249 496.86V497.536C130.249 498.112 130.348 498.601 130.547 499.002C130.749 499.4 131.029 499.703 131.387 499.912C131.745 500.118 132.161 500.22 132.635 500.22C132.943 500.22 133.222 500.177 133.47 500.091C133.722 500.002 133.939 499.869 134.121 499.693C134.304 499.514 134.445 499.292 134.544 499.027L135.678 499.345C135.558 499.73 135.358 500.068 135.076 500.36C134.794 500.648 134.446 500.873 134.032 501.036C133.618 501.195 133.152 501.274 132.635 501.274ZM139.312 501.115L136.985 493.479H138.218L139.869 499.325H139.948L141.579 493.479H142.832L144.442 499.306H144.522L146.173 493.479H147.406L145.079 501.115H143.925L142.255 495.249H142.136L140.465 501.115H139.312Z" fill="#1F2024"/>
<mask id="mask2_1642_3744" style="mask-type:alpha" maskUnits="userSpaceOnUse" x="331" y="492" width="12" height="8">
<path fill-rule="evenodd" clip-rule="evenodd" d="M342.53 492.841C342.237 492.54 341.763 492.54 341.47 492.841L337 497.435L332.531 492.841C332.238 492.54 331.763 492.54 331.47 492.841C331.177 493.142 331.177 493.63 331.47 493.931L337 499.615L342.53 493.931C342.823 493.63 342.823 493.142 342.53 492.841Z" fill="#006FFD"/>
</mask>
<g mask="url(#mask2_1642_3744)">
<rect x="331" y="490.114" width="11.9995" height="11.9995" fill="#8F9098"/>
</g>
<g filter="url(#filter0_b_1642_3744)">
<rect width="375" height="44" fill="white"/>
<g clip-path="url(#clip1_1642_3744)">
<path d="M36.3309 16.9418C36.8529 16.9453 37.3607 17.0376 37.8543 17.2188C38.3515 17.3963 38.7989 17.6875 39.1967 18.0923C39.5944 18.4936 39.9105 19.0316 40.1448 19.7063C40.3792 20.381 40.4964 21.2156 40.4964 22.2099C40.4999 23.1474 40.4005 23.9854 40.1981 24.7241C39.9992 25.4592 39.7134 26.0806 39.3405 26.5884C38.9676 27.0962 38.5184 27.4833 37.9928 27.7496C37.4673 28.016 36.876 28.1491 36.219 28.1491C35.5301 28.1491 34.9193 28.0142 34.3867 27.7443C33.8575 27.4744 33.4296 27.1051 33.1029 26.6364C32.7762 26.1676 32.5756 25.6314 32.501 25.0277H34.4453C34.5447 25.4609 34.7471 25.8054 35.0525 26.0611C35.3614 26.3132 35.7503 26.4393 36.219 26.4393C36.9754 26.4393 37.5578 26.1108 37.9662 25.4538C38.3746 24.7969 38.5788 23.8842 38.5788 22.7159H38.5042C38.3302 23.0284 38.1047 23.2983 37.8277 23.5256C37.5507 23.7493 37.2364 23.9215 36.8849 24.0423C36.5369 24.163 36.1676 24.2234 35.7769 24.2234C35.1377 24.2234 34.5624 24.0707 34.0511 23.7653C33.5433 23.4599 33.1402 23.0408 32.8419 22.5082C32.5472 21.9755 32.398 21.3665 32.3945 20.6811C32.3945 19.9709 32.5578 19.3335 32.8845 18.7688C33.2148 18.2006 33.6747 17.7532 34.2641 17.4265C34.8536 17.0962 35.5426 16.9347 36.3309 16.9418ZM36.3362 18.5398C35.9527 18.5398 35.6065 18.6339 35.2975 18.8221C34.9921 19.0067 34.7507 19.2589 34.5731 19.5785C34.3991 19.8945 34.3121 20.2479 34.3121 20.6385C34.3156 21.0256 34.4026 21.3771 34.5731 21.6932C34.7471 22.0092 34.9833 22.2596 35.2815 22.4442C35.5834 22.6289 35.9279 22.7212 36.3149 22.7212C36.6026 22.7212 36.8707 22.6662 37.1193 22.5561C37.3678 22.446 37.5845 22.2933 37.7691 22.098C37.9573 21.8991 38.1029 21.6737 38.2059 21.4215C38.3124 21.1694 38.3639 20.9031 38.3604 20.6225C38.3604 20.2496 38.2716 19.9052 38.094 19.5891C37.92 19.2731 37.6803 19.0192 37.3749 18.8274C37.0731 18.6357 36.7269 18.5398 36.3362 18.5398ZM43.3143 26.6896C42.9912 26.6896 42.7142 26.576 42.4834 26.3487C42.2526 26.1179 42.1389 25.8409 42.1425 25.5178C42.1389 25.1982 42.2526 24.9247 42.4834 24.6974C42.7142 24.4702 42.9912 24.3565 43.3143 24.3565C43.6268 24.3565 43.8985 24.4702 44.1293 24.6974C44.3637 24.9247 44.4827 25.1982 44.4862 25.5178C44.4827 25.7344 44.4259 25.9315 44.3158 26.109C44.2092 26.2866 44.0672 26.4286 43.8896 26.5352C43.7156 26.6381 43.5239 26.6896 43.3143 26.6896ZM43.3143 21.283C42.9912 21.283 42.7142 21.1694 42.4834 20.9421C42.2526 20.7113 42.1389 20.4343 42.1425 20.1112C42.1389 19.7915 42.2526 19.5181 42.4834 19.2908C42.7142 19.06 42.9912 18.9446 43.3143 18.9446C43.6268 18.9446 43.8985 19.06 44.1293 19.2908C44.3637 19.5181 44.4827 19.7915 44.4862 20.1112C44.4827 20.3242 44.4259 20.5195 44.3158 20.6971C44.2092 20.8746 44.0672 21.0167 43.8896 21.1232C43.7156 21.2298 43.5239 21.283 43.3143 21.283ZM46.0937 25.9759V24.4045L50.7226 17.0909H52.033V19.3281H51.234L48.1178 24.266V24.3512H54.5791V25.9759H46.0937ZM51.2979 28V25.4964L51.3192 24.7933V17.0909H53.1835V28H51.2979ZM60.4067 17.0909V28H58.4305V19.0138H58.3665L55.815 20.6438V18.8327L58.5263 17.0909H60.4067Z" fill="#1F2024"/>
</g>
<g clip-path="url(#clip2_1642_3744)">
<path fill-rule="evenodd" clip-rule="evenodd" d="M307.623 18.566C307.6 18.6819 307.6 18.8213 307.6 19.1001V26.8001C307.6 27.0789 307.6 27.2183 307.623 27.3342C307.718 27.8102 308.09 28.1824 308.566 28.277C308.682 28.3001 308.821 28.3001 309.1 28.3001C309.379 28.3001 309.518 28.3001 309.634 28.277C310.11 28.1824 310.482 27.8102 310.577 27.3342C310.6 27.2183 310.6 27.0789 310.6 26.8001V19.1001C310.6 18.8213 310.6 18.6819 310.577 18.566C310.482 18.09 310.11 17.7178 309.634 17.6232C309.518 17.6001 309.379 17.6001 309.1 17.6001C308.821 17.6001 308.682 17.6001 308.566 17.6232C308.09 17.7178 307.718 18.09 307.623 18.566ZM302.9 21.5001C302.9 21.2213 302.9 21.0819 302.923 20.966C303.018 20.49 303.39 20.1178 303.866 20.0232C303.982 20.0001 304.121 20.0001 304.4 20.0001C304.679 20.0001 304.818 20.0001 304.934 20.0232C305.41 20.1178 305.782 20.49 305.877 20.966C305.9 21.0819 305.9 21.2213 305.9 21.5001V26.8001C305.9 27.0789 305.9 27.2183 305.877 27.3342C305.782 27.8102 305.41 28.1824 304.934 28.277C304.818 28.3001 304.679 28.3001 304.4 28.3001C304.121 28.3001 303.982 28.3001 303.866 28.277C303.39 28.1824 303.018 27.8102 302.923 27.3342C302.9 27.2183 302.9 27.0789 302.9 26.8001V21.5001ZM298.323 23.266C298.3 23.3819 298.3 23.5213 298.3 23.8001V26.8001C298.3 27.0789 298.3 27.2183 298.323 27.3342C298.418 27.8102 298.79 28.1824 299.266 28.277C299.382 28.3001 299.521 28.3001 299.8 28.3001C300.079 28.3001 300.218 28.3001 300.334 28.277C300.81 28.1824 301.182 27.8102 301.277 27.3342C301.3 27.2183 301.3 27.0789 301.3 26.8001V23.8001C301.3 23.5213 301.3 23.3819 301.277 23.266C301.182 22.79 300.81 22.4178 300.334 22.3232C300.218 22.3001 300.079 22.3001 299.8 22.3001C299.521 22.3001 299.382 22.3001 299.266 22.3232C298.79 22.4178 298.418 22.79 298.323 23.266ZM293.523 25.266C293.5 25.3819 293.5 25.5213 293.5 25.8001V26.8001C293.5 27.0789 293.5 27.2183 293.523 27.3342C293.618 27.8102 293.99 28.1824 294.466 28.277C294.582 28.3001 294.721 28.3001 295 28.3001C295.279 28.3001 295.418 28.3001 295.534 28.277C296.01 28.1824 296.382 27.8102 296.477 27.3342C296.5 27.2183 296.5 27.0789 296.5 26.8001V25.8001C296.5 25.5213 296.5 25.3819 296.477 25.266C296.382 24.79 296.01 24.4178 295.534 24.3232C295.418 24.3001 295.279 24.3001 295 24.3001C294.721 24.3001 294.582 24.3001 294.466 24.3232C293.99 24.4178 293.618 24.79 293.523 25.266Z" fill="#1F2024"/>
</g>
</g>
<rect width="375" height="56" transform="translate(0 44.1152)" fill="white"/>
<path d="M170.748 77.6152V67.4334H177.49V69.2083H172.901V71.6344H177.042V73.4093H172.901V77.6152H170.748ZM178.898 77.6152V69.9789H181.016V77.6152H178.898ZM179.962 68.9945C179.647 68.9945 179.377 68.8901 179.151 68.6813C178.929 68.4692 178.818 68.2156 178.818 67.9206C178.818 67.629 178.929 67.3787 179.151 67.1699C179.377 66.9578 179.647 66.8517 179.962 66.8517C180.277 66.8517 180.545 66.9578 180.767 67.1699C180.993 67.3787 181.105 67.629 181.105 67.9206C181.105 68.2156 180.993 68.4692 180.767 68.6813C180.545 68.8901 180.277 68.9945 179.962 68.9945ZM184.83 67.4334V77.6152H182.712V67.4334H184.83ZM190.589 69.9789V71.5698H185.99V69.9789H190.589ZM187.034 68.1493H189.152V75.2686C189.152 75.4642 189.182 75.6167 189.241 75.726C189.301 75.8321 189.384 75.9067 189.49 75.9498C189.599 75.9928 189.725 76.0144 189.868 76.0144C189.967 76.0144 190.067 76.0061 190.166 75.9895C190.265 75.9696 190.342 75.9547 190.395 75.9448L190.728 77.5208C190.622 77.5539 190.473 77.592 190.28 77.6351C190.088 77.6815 189.854 77.7097 189.579 77.7196C189.069 77.7395 188.622 77.6716 188.237 77.5158C187.856 77.36 187.559 77.1181 187.347 76.79C187.135 76.4618 187.031 76.0475 187.034 75.5471V68.1493ZM195.366 77.7644C194.581 77.7644 193.905 77.6053 193.338 77.2871C192.774 76.9656 192.34 76.5115 192.035 75.9249C191.73 75.3349 191.578 74.6373 191.578 73.8319C191.578 73.0463 191.73 72.3569 192.035 71.7637C192.34 71.1704 192.769 70.708 193.323 70.3766C193.88 70.0452 194.533 69.8794 195.282 69.8794C195.786 69.8794 196.255 69.9606 196.689 70.123C197.126 70.2821 197.507 70.5224 197.832 70.8439C198.16 71.1654 198.416 71.5698 198.598 72.057C198.78 72.5409 198.871 73.1077 198.871 73.7573V74.339H192.423V73.0265H196.878C196.878 72.7215 196.811 72.4514 196.679 72.2161C196.546 71.9808 196.362 71.7968 196.127 71.6642C195.895 71.5283 195.625 71.4604 195.317 71.4604C194.995 71.4604 194.71 71.535 194.461 71.6841C194.216 71.83 194.024 72.0272 193.885 72.2757C193.746 72.521 193.674 72.7944 193.671 73.0961V74.3439C193.671 74.7218 193.741 75.0482 193.88 75.3233C194.022 75.5984 194.223 75.8105 194.481 75.9597C194.74 76.1088 195.046 76.1834 195.401 76.1834C195.636 76.1834 195.852 76.1503 196.047 76.084C196.243 76.0177 196.41 75.9183 196.55 75.7857C196.689 75.6531 196.795 75.4907 196.868 75.2985L198.827 75.4277C198.727 75.8984 198.523 76.3094 198.215 76.6607C197.91 77.0087 197.516 77.2805 197.032 77.476C196.551 77.6683 195.996 77.7644 195.366 77.7644ZM200.253 77.6152V69.9789H202.307V71.3113H202.386C202.525 70.8373 202.759 70.4793 203.087 70.2374C203.415 69.9921 203.793 69.8695 204.221 69.8695C204.327 69.8695 204.441 69.8761 204.564 69.8894C204.686 69.9026 204.794 69.9209 204.887 69.9441V71.8233C204.787 71.7935 204.65 71.767 204.474 71.7438C204.299 71.7206 204.138 71.709 203.992 71.709C203.68 71.709 203.402 71.7769 203.157 71.9128C202.915 72.0454 202.723 72.231 202.58 72.4696C202.441 72.7083 202.371 72.9834 202.371 73.2949V77.6152H200.253Z" fill="#1F2024"/>
<path d="M32.331 70.8326H30.7372C30.6918 70.5712 30.608 70.3397 30.4858 70.138C30.3636 69.9334 30.2116 69.7601 30.0298 69.6181C29.848 69.476 29.6406 69.3695 29.4077 69.2985C29.1776 69.2246 28.929 69.1877 28.6619 69.1877C28.1875 69.1877 27.767 69.307 27.4006 69.5456C27.0341 69.7814 26.7472 70.128 26.5398 70.5854C26.3324 71.04 26.2287 71.5953 26.2287 72.2516C26.2287 72.9192 26.3324 73.4817 26.5398 73.9391C26.75 74.3936 27.0369 74.7374 27.4006 74.9703C27.767 75.2005 28.1861 75.3155 28.6577 75.3155C28.919 75.3155 29.1634 75.2814 29.3906 75.2132C29.6207 75.1422 29.8267 75.0385 30.0085 74.9022C30.1932 74.7658 30.348 74.5982 30.473 74.3993C30.6009 74.2005 30.6889 73.9732 30.7372 73.7175L32.331 73.726C32.2713 74.1408 32.142 74.53 31.9432 74.8936C31.7472 75.2573 31.4901 75.5783 31.1719 75.8567C30.8537 76.1323 30.4815 76.3482 30.0554 76.5044C29.6293 76.6578 29.1563 76.7346 28.6364 76.7346C27.8693 76.7346 27.1847 76.557 26.5824 76.2019C25.9801 75.8468 25.5057 75.334 25.1591 74.6635C24.8125 73.9931 24.6392 73.1891 24.6392 72.2516C24.6392 71.3113 24.8139 70.5073 25.1634 69.8397C25.5128 69.1692 25.9886 68.6564 26.5909 68.3013C27.1932 67.9462 27.875 67.7686 28.6364 67.7686C29.1222 67.7686 29.5739 67.8368 29.9915 67.9732C30.4091 68.1096 30.7813 68.3098 31.108 68.574C31.4347 68.8354 31.7031 69.1564 31.9134 69.5371C32.1264 69.915 32.2656 70.3468 32.331 70.8326ZM35.5941 76.7473C35.1793 76.7473 34.8058 76.6735 34.4734 76.5257C34.1438 76.3752 33.8825 76.1536 33.6893 75.861C33.4989 75.5684 33.4038 75.2076 33.4038 74.7786C33.4038 74.4093 33.4719 74.1039 33.6083 73.8624C33.7447 73.6209 33.9308 73.4277 34.1665 73.2828C34.4023 73.138 34.668 73.0286 34.9634 72.9547C35.2617 72.878 35.57 72.8226 35.8881 72.7885C36.2717 72.7488 36.5827 72.7132 36.8214 72.682C37.06 72.6479 37.2333 72.5968 37.3413 72.5286C37.4521 72.4576 37.5075 72.3482 37.5075 72.2005V72.1749C37.5075 71.8539 37.4123 71.6053 37.2219 71.4292C37.0316 71.253 36.7575 71.165 36.3995 71.165C36.0217 71.165 35.7219 71.2473 35.5004 71.4121C35.2816 71.5769 35.1339 71.7715 35.0572 71.9959L33.6168 71.7914C33.7305 71.3936 33.918 71.0613 34.1793 70.7942C34.4407 70.5243 34.7603 70.3226 35.1381 70.1891C35.516 70.0527 35.9336 69.9846 36.391 69.9846C36.7063 69.9846 37.0202 70.0215 37.3327 70.0953C37.6452 70.1692 37.9308 70.2914 38.1893 70.4618C38.4478 70.6294 38.6552 70.8581 38.8114 71.1479C38.9705 71.4377 39.0501 71.7999 39.0501 72.2346V76.6152H37.5671V75.7161H37.516C37.4222 75.8979 37.2901 76.0684 37.1197 76.2275C36.9521 76.3837 36.7404 76.5101 36.4847 76.6067C36.2319 76.7005 35.935 76.7473 35.5941 76.7473ZM35.9947 75.6138C36.3043 75.6138 36.5728 75.5527 36.8001 75.4306C37.0273 75.3056 37.2021 75.1408 37.3242 74.9363C37.4492 74.7317 37.5117 74.5087 37.5117 74.2672V73.4959C37.4634 73.5357 37.381 73.5726 37.2646 73.6067C37.1509 73.6408 37.0231 73.6706 36.881 73.6962C36.739 73.7218 36.5984 73.7445 36.4592 73.7644C36.32 73.7843 36.1992 73.8013 36.0969 73.8155C35.8668 73.8468 35.6609 73.8979 35.479 73.9689C35.2972 74.04 35.1538 74.1394 35.0487 74.2672C34.9435 74.3922 34.891 74.5542 34.891 74.753C34.891 75.0371 34.9947 75.2516 35.2021 75.3965C35.4094 75.5414 35.6737 75.6138 35.9947 75.6138ZM42.1438 72.78V76.6152H40.6012V70.0698H42.0756V71.182H42.1523C42.3029 70.8155 42.543 70.5243 42.8725 70.3084C43.2049 70.0925 43.6154 69.9846 44.104 69.9846C44.5558 69.9846 44.9492 70.0811 45.2844 70.2743C45.6225 70.4675 45.8839 70.7473 46.0685 71.1138C46.256 71.4803 46.3484 71.9249 46.3455 72.4476V76.6152H44.8029V72.6863C44.8029 72.2488 44.6893 71.9064 44.462 71.6593C44.2376 71.4121 43.9265 71.2885 43.5288 71.2885C43.2589 71.2885 43.0188 71.3482 42.8086 71.4675C42.6012 71.584 42.4379 71.753 42.3185 71.9746C42.2021 72.1962 42.1438 72.4647 42.1438 72.78ZM50.7688 76.7431C50.1154 76.7431 49.5543 76.5996 49.0856 76.3127C48.6197 76.0257 48.2603 75.6294 48.0075 75.1238C47.7575 74.6152 47.6325 74.03 47.6325 73.3681C47.6325 72.7033 47.7603 72.1167 48.016 71.6081C48.2717 71.0968 48.6325 70.699 49.0984 70.4149C49.5671 70.128 50.1211 69.9846 50.7603 69.9846C51.2915 69.9846 51.7617 70.0826 52.1708 70.2786C52.5827 70.4718 52.9109 70.7459 53.1552 71.101C53.3995 71.4533 53.5387 71.8652 53.5728 72.3368H52.0984C52.0387 72.0215 51.8967 71.7587 51.6722 71.5485C51.4506 71.3354 51.1538 71.2289 50.7816 71.2289C50.4663 71.2289 50.1893 71.3141 49.9506 71.4846C49.712 71.6522 49.5259 71.8936 49.3924 72.209C49.2617 72.5243 49.1964 72.9022 49.1964 73.3425C49.1964 73.7885 49.2617 74.1721 49.3924 74.4931C49.5231 74.8113 49.7063 75.057 49.9421 75.2303C50.1808 75.4007 50.4606 75.486 50.7816 75.486C51.0089 75.486 51.212 75.4434 51.391 75.3581C51.5728 75.2701 51.7248 75.1436 51.8469 74.9789C51.9691 74.8141 52.0529 74.6138 52.0984 74.378H53.5728C53.5359 74.8411 53.3995 75.2516 53.1637 75.6096C52.9279 75.9647 52.6069 76.2431 52.2006 76.4448C51.7944 76.6436 51.3171 76.7431 50.7688 76.7431ZM57.7372 76.7431C57.081 76.7431 56.5142 76.6067 56.0369 76.334C55.5625 76.0584 55.1974 75.6692 54.9418 75.1664C54.6861 74.6607 54.5582 74.0655 54.5582 73.3809C54.5582 72.7076 54.6861 72.1167 54.9418 71.6081C55.2003 71.0968 55.5611 70.699 56.0241 70.4149C56.4872 70.128 57.0312 69.9846 57.6562 69.9846C58.0597 69.9846 58.4403 70.0499 58.7983 70.1806C59.1591 70.3084 59.4773 70.5073 59.7528 70.7772C60.0313 71.0471 60.25 71.3908 60.4091 71.8084C60.5682 72.2232 60.6477 72.7175 60.6477 73.2914V73.7644H55.2827V72.7246H59.169C59.1662 72.4292 59.1023 72.1664 58.9773 71.9363C58.8523 71.7033 58.6776 71.5201 58.4531 71.3865C58.2315 71.253 57.973 71.1863 57.6776 71.1863C57.3622 71.1863 57.0852 71.263 56.8466 71.4164C56.608 71.5669 56.4219 71.7658 56.2884 72.013C56.1577 72.2573 56.0909 72.5257 56.0881 72.8184V73.726C56.0881 74.1067 56.1577 74.4334 56.2969 74.7061C56.4361 74.976 56.6307 75.1834 56.8807 75.3283C57.1307 75.4703 57.4233 75.5414 57.7585 75.5414C57.983 75.5414 58.1861 75.5101 58.3679 75.4476C58.5497 75.3823 58.7074 75.2871 58.8409 75.1621C58.9744 75.0371 59.0753 74.8823 59.1435 74.6976L60.5838 74.8596C60.4929 75.2402 60.3196 75.5726 60.0639 75.8567C59.8111 76.138 59.4872 76.3567 59.0923 76.513C58.6974 76.6664 58.2457 76.7431 57.7372 76.7431ZM63.4954 67.888V76.6152H61.9528V67.888H63.4954Z" fill="#006FFD"/>
<path d="M310.604 70.8326H309.011C308.965 70.5712 308.881 70.3397 308.759 70.138C308.637 69.9334 308.485 69.7601 308.303 69.6181C308.121 69.476 307.914 69.3695 307.681 69.2985C307.451 69.2246 307.202 69.1877 306.935 69.1877C306.461 69.1877 306.04 69.307 305.674 69.5456C305.308 69.7814 305.021 70.128 304.813 70.5854C304.606 71.04 304.502 71.5953 304.502 72.2516C304.502 72.9192 304.606 73.4817 304.813 73.9391C305.023 74.3936 305.31 74.7374 305.674 74.9703C306.04 75.2005 306.46 75.3155 306.931 75.3155C307.192 75.3155 307.437 75.2814 307.664 75.2132C307.894 75.1422 308.1 75.0385 308.282 74.9022C308.467 74.7658 308.621 74.5982 308.746 74.3993C308.874 74.2005 308.962 73.9732 309.011 73.7175L310.604 73.726C310.545 74.1408 310.415 74.53 310.217 74.8936C310.021 75.2573 309.763 75.5783 309.445 75.8567C309.127 76.1323 308.755 76.3482 308.329 76.5044C307.903 76.6578 307.43 76.7346 306.91 76.7346C306.143 76.7346 305.458 76.557 304.856 76.2019C304.254 75.8468 303.779 75.334 303.433 74.6635C303.086 73.9931 302.913 73.1891 302.913 72.2516C302.913 71.3113 303.087 70.5073 303.437 69.8397C303.786 69.1692 304.262 68.6564 304.864 68.3013C305.467 67.9462 306.148 67.7686 306.91 67.7686C307.396 67.7686 307.847 67.8368 308.265 67.9732C308.683 68.1096 309.055 68.3098 309.381 68.574C309.708 68.8354 309.977 69.1564 310.187 69.5371C310.4 69.915 310.539 70.3468 310.604 70.8326ZM313.527 67.888V76.6152H311.984V67.888H313.527ZM318.011 76.7431C317.354 76.7431 316.788 76.6067 316.31 76.334C315.836 76.0584 315.471 75.6692 315.215 75.1664C314.96 74.6607 314.832 74.0655 314.832 73.3809C314.832 72.7076 314.96 72.1167 315.215 71.6081C315.474 71.0968 315.835 70.699 316.298 70.4149C316.761 70.128 317.305 69.9846 317.93 69.9846C318.333 69.9846 318.714 70.0499 319.072 70.1806C319.433 70.3084 319.751 70.5073 320.026 70.7772C320.305 71.0471 320.523 71.3908 320.683 71.8084C320.842 72.2232 320.921 72.7175 320.921 73.2914V73.7644H315.556V72.7246H319.442C319.44 72.4292 319.376 72.1664 319.251 71.9363C319.126 71.7033 318.951 71.5201 318.727 71.3865C318.505 71.253 318.246 71.1863 317.951 71.1863C317.636 71.1863 317.359 71.263 317.12 71.4164C316.881 71.5669 316.695 71.7658 316.562 72.013C316.431 72.2573 316.364 72.5257 316.362 72.8184V73.726C316.362 74.1067 316.431 74.4334 316.57 74.7061C316.71 74.976 316.904 75.1834 317.154 75.3283C317.404 75.4703 317.697 75.5414 318.032 75.5414C318.256 75.5414 318.46 75.5101 318.641 75.4476C318.823 75.3823 318.981 75.2871 319.114 75.1621C319.248 75.0371 319.349 74.8823 319.417 74.6976L320.857 74.8596C320.766 75.2402 320.593 75.5726 320.337 75.8567C320.085 76.138 319.761 76.3567 319.366 76.513C318.971 76.6664 318.519 76.7431 318.011 76.7431ZM324.11 76.7473C323.695 76.7473 323.321 76.6735 322.989 76.5257C322.659 76.3752 322.398 76.1536 322.205 75.861C322.015 75.5684 321.919 75.2076 321.919 74.7786C321.919 74.4093 321.988 74.1039 322.124 73.8624C322.26 73.6209 322.446 73.4277 322.682 73.2828C322.918 73.138 323.184 73.0286 323.479 72.9547C323.777 72.878 324.086 72.8226 324.404 72.7885C324.787 72.7488 325.098 72.7132 325.337 72.682C325.576 72.6479 325.749 72.5968 325.857 72.5286C325.968 72.4576 326.023 72.3482 326.023 72.2005V72.1749C326.023 71.8539 325.928 71.6053 325.738 71.4292C325.547 71.253 325.273 71.165 324.915 71.165C324.537 71.165 324.238 71.2473 324.016 71.4121C323.797 71.5769 323.65 71.7715 323.573 71.9959L322.132 71.7914C322.246 71.3936 322.434 71.0613 322.695 70.7942C322.956 70.5243 323.276 70.3226 323.654 70.1891C324.032 70.0527 324.449 69.9846 324.907 69.9846C325.222 69.9846 325.536 70.0215 325.848 70.0953C326.161 70.1692 326.446 70.2914 326.705 70.4618C326.963 70.6294 327.171 70.8581 327.327 71.1479C327.486 71.4377 327.566 71.7999 327.566 72.2346V76.6152H326.083V75.7161H326.032C325.938 75.8979 325.806 76.0684 325.635 76.2275C325.468 76.3837 325.256 76.5101 325 76.6067C324.748 76.7005 324.451 76.7473 324.11 76.7473ZM324.51 75.6138C324.82 75.6138 325.088 75.5527 325.316 75.4306C325.543 75.3056 325.718 75.1408 325.84 74.9363C325.965 74.7317 326.027 74.5087 326.027 74.2672V73.4959C325.979 73.5357 325.897 73.5726 325.78 73.6067C325.667 73.6408 325.539 73.6706 325.397 73.6962C325.255 73.7218 325.114 73.7445 324.975 73.7644C324.836 73.7843 324.715 73.8013 324.613 73.8155C324.382 73.8468 324.176 73.8979 323.995 73.9689C323.813 74.04 323.669 74.1394 323.564 74.2672C323.459 74.3922 323.407 74.5542 323.407 74.753C323.407 75.0371 323.51 75.2516 323.718 75.3965C323.925 75.5414 324.189 75.6138 324.51 75.6138ZM329.117 76.6152V70.0698H330.613V71.1607H330.681C330.8 70.7828 331.005 70.4917 331.294 70.2871C331.587 70.0797 331.921 69.976 332.296 69.976C332.381 69.976 332.476 69.9803 332.581 69.9888C332.689 69.9945 332.779 70.0044 332.85 70.0186V71.4377C332.784 71.415 332.681 71.3951 332.539 71.378C332.4 71.3581 332.265 71.3482 332.134 71.3482C331.853 71.3482 331.6 71.4093 331.375 71.5314C331.154 71.6507 330.979 71.8169 330.851 72.03C330.723 72.2431 330.659 72.4888 330.659 72.7672V76.6152H329.117ZM338.04 76.6152H336.353L339.425 67.888H341.377L344.453 76.6152H342.766L340.435 69.6777H340.367L338.04 76.6152ZM338.096 73.1934H342.698V74.4632H338.096V73.1934ZM347.077 67.888V76.6152H345.535V67.888H347.077ZM350.206 67.888V76.6152H348.664V67.888H350.206Z" fill="#006FFD"/>
</g>
<defs>
<filter id="filter0_b_1642_3744" x="-40" y="-40" width="455" height="124" filterUnits="userSpaceOnUse" color-interpolation-filters="sRGB">
<feFlood flood-opacity="0" result="BackgroundImageFix"/>
<feGaussianBlur in="BackgroundImageFix" stdDeviation="20"/>
<feComposite in2="SourceAlpha" operator="in" result="effect1_backgroundBlur_1642_3744"/>
<feBlend mode="normal" in="SourceGraphic" in2="effect1_backgroundBlur_1642_3744" result="shape"/>
</filter>
<clipPath id="clip0_1642_3744">
<rect width="375" height="812" fill="white"/>
</clipPath>
<clipPath id="clip1_1642_3744">
<rect width="53.7135" height="18" fill="white" transform="translate(19.8906 14)"/>
</clipPath>
<clipPath id="clip2_1642_3744">
<rect width="68" height="14" fill="white" transform="translate(293 16)"/>
</clipPath>
</defs>
</svg>
