<svg width="375" height="813" viewBox="0 0 375 813" fill="none" xmlns="http://www.w3.org/2000/svg">
<g clip-path="url(#clip0_1667_56069)">
<rect width="375" height="812" transform="translate(0 0.248047)" fill="white"/>
<path d="M85.2158 618.384V628.248H88.5996C91.5322 628.248 93.2549 626.423 93.2549 623.312C93.2549 620.209 91.5254 618.384 88.5996 618.384H85.2158ZM86.4463 619.491H88.5176C90.7051 619.491 91.9971 620.913 91.9971 623.326C91.9971 625.732 90.7188 627.141 88.5176 627.141H86.4463V619.491ZM98.1156 628.378C100.214 628.378 101.513 626.929 101.513 624.563C101.513 622.191 100.214 620.749 98.1156 620.749C96.017 620.749 94.7182 622.191 94.7182 624.563C94.7182 626.929 96.017 628.378 98.1156 628.378ZM98.1156 627.318C96.7211 627.318 95.935 626.307 95.935 624.563C95.935 622.813 96.7211 621.809 98.1156 621.809C99.5102 621.809 100.296 622.813 100.296 624.563C100.296 626.307 99.5102 627.318 98.1156 627.318ZM103.209 628.248H104.385V623.887C104.385 622.595 105.143 621.809 106.319 621.809C107.495 621.809 108.055 622.438 108.055 623.764V628.248H109.231V623.477C109.231 621.727 108.308 620.749 106.654 620.749C105.526 620.749 104.808 621.228 104.439 622.041H104.33V620.879H103.209V628.248ZM111.966 622.068L113.203 618.384H111.87L111.112 622.068H111.966ZM115.637 618.972V620.879H114.448V621.863H115.637V626.334C115.637 627.742 116.246 628.303 117.763 628.303C117.996 628.303 118.221 628.275 118.454 628.234V627.243C118.235 627.264 118.119 627.271 117.907 627.271C117.141 627.271 116.813 626.901 116.813 626.033V621.863H118.454V620.879H116.813V618.972H115.637ZM123.951 628.248H125.126V623.887C125.126 622.643 125.851 621.809 127.17 621.809C128.285 621.809 128.872 622.458 128.872 623.764V628.248H130.048V623.477C130.048 621.747 129.064 620.749 127.505 620.749C126.377 620.749 125.605 621.228 125.236 622.041H125.126V617.953H123.951V628.248ZM134.096 628.378C135.08 628.378 135.887 627.947 136.365 627.161H136.474V628.248H137.596V623.203C137.596 621.672 136.591 620.749 134.793 620.749C133.221 620.749 132.058 621.528 131.901 622.711H133.091C133.255 622.13 133.87 621.795 134.752 621.795C135.852 621.795 136.42 622.294 136.42 623.203V623.873L134.294 624.003C132.578 624.105 131.607 624.864 131.607 626.184C131.607 627.53 132.667 628.378 134.096 628.378ZM134.314 627.346C133.46 627.346 132.824 626.908 132.824 626.156C132.824 625.418 133.316 625.028 134.437 624.953L136.42 624.823V625.5C136.42 626.553 135.524 627.346 134.314 627.346ZM145.362 620.879H144.104L142.087 626.949H141.978L139.961 620.879H138.703L141.431 628.248H142.634L145.362 620.879ZM151.391 626.341C151.084 626.99 150.441 627.339 149.491 627.339C148.24 627.339 147.426 626.416 147.365 624.96V624.905H152.663V624.454C152.663 622.164 151.453 620.749 149.463 620.749C147.44 620.749 146.141 622.253 146.141 624.57C146.141 626.901 147.42 628.378 149.463 628.378C151.077 628.378 152.225 627.599 152.567 626.341H151.391ZM149.45 621.788C150.619 621.788 151.398 622.649 151.425 623.955H147.365C147.454 622.649 148.274 621.788 149.45 621.788ZM160.21 628.378C161.195 628.378 162.001 627.947 162.48 627.161H162.589V628.248H163.71V623.203C163.71 621.672 162.705 620.749 160.908 620.749C159.335 620.749 158.173 621.528 158.016 622.711H159.205C159.37 622.13 159.985 621.795 160.867 621.795C161.967 621.795 162.535 622.294 162.535 623.203V623.873L160.409 624.003C158.693 624.105 157.722 624.864 157.722 626.184C157.722 627.53 158.782 628.378 160.21 628.378ZM160.429 627.346C159.575 627.346 158.939 626.908 158.939 626.156C158.939 625.418 159.431 625.028 160.552 624.953L162.535 624.823V625.5C162.535 626.553 161.639 627.346 160.429 627.346ZM165.734 628.248H166.91V623.887C166.91 622.595 167.669 621.809 168.845 621.809C170.02 621.809 170.581 622.438 170.581 623.764V628.248H171.757V623.477C171.757 621.727 170.834 620.749 169.179 620.749C168.052 620.749 167.334 621.228 166.965 622.041H166.855V620.879H165.734V628.248ZM179.612 628.378C180.596 628.378 181.403 627.947 181.881 627.161H181.991V628.248H183.112V623.203C183.112 621.672 182.107 620.749 180.309 620.749C178.737 620.749 177.575 621.528 177.418 622.711H178.607C178.771 622.13 179.386 621.795 180.268 621.795C181.369 621.795 181.936 622.294 181.936 623.203V623.873L179.81 624.003C178.094 624.105 177.124 624.864 177.124 626.184C177.124 627.53 178.183 628.378 179.612 628.378ZM179.831 627.346C178.976 627.346 178.34 626.908 178.34 626.156C178.34 625.418 178.833 625.028 179.954 624.953L181.936 624.823V625.5C181.936 626.553 181.041 627.346 179.831 627.346ZM191.233 623.135C191.028 621.822 189.935 620.749 188.144 620.749C186.079 620.749 184.767 622.239 184.767 624.536C184.767 626.881 186.086 628.378 188.15 628.378C189.921 628.378 191.021 627.38 191.233 626.026H190.044C189.825 626.86 189.135 627.318 188.144 627.318C186.831 627.318 185.983 626.238 185.983 624.536C185.983 622.868 186.817 621.809 188.144 621.809C189.203 621.809 189.853 622.403 190.044 623.135H191.233ZM198.917 623.135C198.712 621.822 197.619 620.749 195.828 620.749C193.763 620.749 192.451 622.239 192.451 624.536C192.451 626.881 193.77 628.378 195.834 628.378C197.605 628.378 198.705 627.38 198.917 626.026H197.728C197.509 626.86 196.819 627.318 195.828 627.318C194.515 627.318 193.667 626.238 193.667 624.536C193.667 622.868 194.501 621.809 195.828 621.809C196.887 621.809 197.537 622.403 197.728 623.135H198.917ZM203.532 628.378C205.631 628.378 206.929 626.929 206.929 624.563C206.929 622.191 205.631 620.749 203.532 620.749C201.433 620.749 200.135 622.191 200.135 624.563C200.135 626.929 201.433 628.378 203.532 628.378ZM203.532 627.318C202.137 627.318 201.351 626.307 201.351 624.563C201.351 622.813 202.137 621.809 203.532 621.809C204.927 621.809 205.713 622.813 205.713 624.563C205.713 626.307 204.927 627.318 203.532 627.318ZM214.586 620.879H213.41V625.24C213.41 626.532 212.699 627.305 211.401 627.305C210.225 627.305 209.733 626.689 209.733 625.363V620.879H208.557V625.65C208.557 627.394 209.418 628.378 211.072 628.378C212.2 628.378 212.987 627.913 213.356 627.093H213.465V628.248H214.586V620.879ZM216.651 628.248H217.827V623.887C217.827 622.595 218.586 621.809 219.761 621.809C220.937 621.809 221.498 622.438 221.498 623.764V628.248H222.673V623.477C222.673 621.727 221.751 620.749 220.096 620.749C218.968 620.749 218.251 621.228 217.881 622.041H217.772V620.879H216.651V628.248ZM225.169 618.972V620.879H223.979V621.863H225.169V626.334C225.169 627.742 225.777 628.303 227.295 628.303C227.527 628.303 227.753 628.275 227.985 628.234V627.243C227.767 627.264 227.65 627.271 227.438 627.271C226.673 627.271 226.345 626.901 226.345 626.033V621.863H227.985V620.879H226.345V618.972H225.169ZM229.052 620.961H230.221C230.296 619.983 230.953 619.375 231.985 619.375C233.003 619.375 233.66 619.997 233.66 620.845C233.66 621.576 233.352 622.007 232.559 622.492C231.622 623.053 231.185 623.668 231.192 624.57V625.199H232.388V624.755C232.388 624.037 232.634 623.654 233.502 623.142C234.377 622.615 234.931 621.856 234.931 620.783C234.931 619.375 233.755 618.309 232.033 618.309C230.112 618.309 229.127 619.484 229.052 620.961ZM231.882 628.371C232.436 628.371 232.826 627.975 232.826 627.421C232.826 626.86 232.436 626.464 231.882 626.464C231.329 626.464 230.932 626.86 230.932 627.421C230.932 627.975 231.329 628.371 231.882 628.371Z" fill="black" fill-opacity="0.4"/>
<path d="M240.12 625.671C240.25 627.373 241.693 628.48 243.784 628.48C246.04 628.48 247.469 627.325 247.469 625.514C247.469 624.064 246.649 623.271 244.605 622.759L243.572 622.485C242.212 622.137 241.672 621.692 241.672 620.92C241.672 619.922 242.54 619.266 243.853 619.266C245.083 619.266 245.917 619.867 246.088 620.879H247.325C247.223 619.286 245.801 618.151 243.894 618.151C241.809 618.151 240.407 619.286 240.407 620.961C240.407 622.362 241.18 623.169 242.964 623.62L244.229 623.948C245.589 624.29 246.204 624.823 246.204 625.664C246.204 626.642 245.227 627.359 243.901 627.359C242.499 627.359 241.515 626.703 241.364 625.671H240.12ZM249.835 619.457C250.286 619.457 250.655 619.088 250.655 618.637C250.655 618.186 250.286 617.816 249.835 617.816C249.383 617.816 249.014 618.186 249.014 618.637C249.014 619.088 249.383 619.457 249.835 619.457ZM249.247 628.248H250.422V620.879H249.247V628.248ZM255.55 631.078C257.56 631.078 258.831 630.025 258.831 628.378V620.879H257.71V622.048H257.601C257.177 621.255 256.268 620.749 255.235 620.749C253.342 620.749 252.146 622.246 252.146 624.454C252.146 626.662 253.328 628.139 255.235 628.139C256.247 628.139 257.081 627.681 257.546 626.867H257.655V628.316C257.655 629.403 256.869 630.053 255.55 630.053C254.49 630.053 253.834 629.663 253.704 629.062H252.46C252.638 630.278 253.772 631.078 255.55 631.078ZM255.495 627.1C254.128 627.1 253.362 626.061 253.362 624.454C253.362 622.848 254.128 621.809 255.495 621.809C256.855 621.809 257.683 622.848 257.683 624.454C257.683 626.061 256.862 627.1 255.495 627.1ZM260.896 628.248H262.072V623.887C262.072 622.595 262.83 621.809 264.006 621.809C265.182 621.809 265.743 622.438 265.743 623.764V628.248H266.918V623.477C266.918 621.727 265.996 620.749 264.341 620.749C263.213 620.749 262.496 621.228 262.126 622.041H262.017V620.879H260.896V628.248ZM278.684 620.879H277.508V625.24C277.508 626.532 276.797 627.305 275.498 627.305C274.322 627.305 273.83 626.689 273.83 625.363V620.879H272.654V625.65C272.654 627.394 273.516 628.378 275.17 628.378C276.298 628.378 277.084 627.913 277.453 627.093H277.563V628.248H278.684V620.879ZM284.337 620.749C283.333 620.749 282.451 621.262 281.979 622.109H281.87V620.879H280.749V630.709H281.924V627.141H282.034C282.437 627.92 283.285 628.378 284.337 628.378C286.211 628.378 287.434 626.867 287.434 624.563C287.434 622.246 286.217 620.749 284.337 620.749ZM284.057 627.318C282.731 627.318 281.89 626.252 281.89 624.563C281.89 622.868 282.731 621.809 284.064 621.809C285.411 621.809 286.217 622.841 286.217 624.563C286.217 626.286 285.411 627.318 284.057 627.318ZM289.964 628.316C290.456 628.316 290.853 627.913 290.853 627.428C290.853 626.936 290.456 626.539 289.964 626.539C289.479 626.539 289.075 626.936 289.075 627.428C289.075 627.913 289.479 628.316 289.964 628.316Z" fill="#3797EF"/>
<path d="M183.422 562.082C180.967 562.082 179.42 563.787 179.42 566.518C179.42 569.242 180.943 570.959 183.422 570.959C185.889 570.959 187.418 569.242 187.418 566.518C187.418 563.787 185.883 562.082 183.422 562.082ZM183.422 563.389C184.922 563.389 185.877 564.602 185.877 566.518C185.877 568.422 184.928 569.652 183.422 569.652C181.898 569.652 180.967 568.422 180.967 566.518C180.967 564.602 181.922 563.389 183.422 563.389ZM190.664 567.566H192.34L193.998 570.748H195.727L193.881 567.338C194.889 566.975 195.475 566.043 195.475 564.924C195.475 563.307 194.361 562.293 192.586 562.293H189.152V570.748H190.664V567.566ZM190.664 563.518H192.375C193.336 563.518 193.922 564.062 193.922 564.953C193.922 565.861 193.371 566.383 192.41 566.383H190.664V563.518Z" fill="black" fill-opacity="0.4"/>
<path d="M16 566.248H148" stroke="black" stroke-opacity="0.2" stroke-width="0.33" stroke-linecap="square"/>
<path d="M227 566.248H359" stroke="black" stroke-opacity="0.2" stroke-width="0.33" stroke-linecap="square"/>
<g clip-path="url(#clip1_1667_56069)">
<path d="M118.5 500.248C119.328 500.248 120 500.92 120 501.748V515.748C120 516.576 119.328 517.248 118.5 517.248H114.191L114.193 511.195H116.905V508.413H114.193V507.202L114.194 507.098C114.213 506.391 114.435 505.904 115.376 505.852L115.55 505.847H117V503.248H114.887L114.704 503.251C112.78 503.323 111.455 504.53 111.369 506.698L111.365 506.926V508.413H109V511.195H111.365L111.363 517.248H104.5C103.672 517.248 103 516.576 103 515.748V501.748C103 500.92 103.672 500.248 104.5 500.248H118.5Z" fill="#3797EF"/>
<path d="M137.506 513.237H132.98V504.884H131.217V514.748H137.506V513.237ZM141.963 514.898C144.199 514.898 145.559 513.436 145.559 511.009C145.559 508.596 144.192 507.133 141.963 507.133C139.742 507.133 138.368 508.603 138.368 511.009C138.368 513.436 139.721 514.898 141.963 514.898ZM141.963 513.511C140.781 513.511 140.104 512.595 140.104 511.016C140.104 509.437 140.781 508.521 141.963 508.521C143.139 508.521 143.816 509.437 143.816 511.016C143.816 512.595 143.146 513.511 141.963 513.511ZM150.331 517.592C152.512 517.592 153.892 516.505 153.892 514.789V507.276H152.259V508.473H152.142C151.732 507.659 150.844 507.153 149.825 507.153C147.918 507.153 146.735 508.644 146.735 510.934C146.735 513.176 147.911 514.639 149.798 514.639C150.837 514.639 151.65 514.201 152.081 513.395H152.197V514.816C152.197 515.767 151.52 516.327 150.358 516.327C149.429 516.327 148.827 515.992 148.718 515.466H147.015C147.152 516.751 148.41 517.592 150.331 517.592ZM150.331 513.292C149.148 513.292 148.478 512.376 148.478 510.927C148.478 509.484 149.148 508.568 150.331 508.568C151.507 508.568 152.224 509.484 152.224 510.934C152.224 512.376 151.513 513.292 150.331 513.292ZM160.271 506.025C160.832 506.025 161.29 505.581 161.29 505.021C161.29 504.467 160.832 504.016 160.271 504.016C159.717 504.016 159.259 504.467 159.259 505.021C159.259 505.581 159.717 506.025 160.271 506.025ZM159.43 514.748H161.119V507.276H159.43V514.748ZM163.074 514.748H164.77V510.394C164.77 509.272 165.405 508.568 166.417 508.568C167.449 508.568 167.928 509.149 167.928 510.312V514.748H169.623V509.915C169.623 508.138 168.714 507.133 167.046 507.133C165.932 507.133 165.18 507.639 164.824 508.473H164.708V507.276H163.074V514.748ZM185.08 507.276H183.391L182.154 512.889H182.038L180.589 507.276H178.969L177.533 512.889H177.417L176.173 507.276H174.464L176.487 514.748H178.251L179.7 509.334H179.816L181.272 514.748H183.056L185.08 507.276ZM187.275 506.025C187.835 506.025 188.293 505.581 188.293 505.021C188.293 504.467 187.835 504.016 187.275 504.016C186.721 504.016 186.263 504.467 186.263 505.021C186.263 505.581 186.721 506.025 187.275 506.025ZM186.434 514.748H188.122V507.276H186.434V514.748ZM190.618 505.444V507.324H189.435V508.644H190.618V512.766C190.618 514.208 191.301 514.782 193.017 514.782C193.345 514.782 193.66 514.755 193.906 514.707V513.408C193.701 513.429 193.571 513.442 193.332 513.442C192.621 513.442 192.306 513.107 192.306 512.362V508.644H193.906V507.324H192.306V505.444H190.618ZM195.52 514.748H197.215V510.407C197.215 509.313 197.837 508.582 198.951 508.582C199.936 508.582 200.455 509.17 200.455 510.325V514.748H202.15V509.929C202.15 508.151 201.18 507.14 199.58 507.14C198.466 507.14 197.666 507.646 197.311 508.486H197.188V504.385H195.52V514.748ZM209.534 514.748V510.722H213.67V509.286H209.534V506.367H214.059V504.884H207.77V514.748H209.534ZM217.348 514.871C218.325 514.871 219.146 514.447 219.563 513.723H219.679V514.748H221.313V509.642C221.313 508.062 220.233 507.133 218.312 507.133C216.534 507.133 215.297 507.967 215.16 509.272H216.76C216.917 508.76 217.45 508.479 218.23 508.479C219.146 508.479 219.638 508.896 219.638 509.642V510.284L217.71 510.4C215.892 510.503 214.873 511.289 214.873 512.629C214.873 513.996 215.905 514.871 217.348 514.871ZM217.847 513.565C217.095 513.565 216.555 513.189 216.555 512.547C216.555 511.925 216.999 511.576 217.949 511.515L219.638 511.398V512.007C219.638 512.896 218.872 513.565 217.847 513.565ZM229.667 509.771C229.489 508.227 228.327 507.133 226.406 507.133C224.157 507.133 222.838 508.575 222.838 510.995C222.838 513.442 224.164 514.898 226.413 514.898C228.306 514.898 229.482 513.846 229.667 512.301H228.053C227.876 513.087 227.288 513.504 226.406 513.504C225.251 513.504 224.553 512.581 224.553 510.995C224.553 509.437 225.244 508.521 226.406 508.521C227.336 508.521 227.896 509.047 228.053 509.771H229.667ZM236.011 512.704C235.765 513.265 235.184 513.579 234.343 513.579C233.229 513.579 232.511 512.786 232.47 511.521V511.433H237.692V510.893C237.692 508.548 236.414 507.133 234.281 507.133C232.114 507.133 230.768 508.644 230.768 511.043C230.768 513.436 232.094 514.898 234.295 514.898C236.059 514.898 237.31 514.051 237.617 512.704H236.011ZM234.274 508.452C235.293 508.452 235.963 509.17 235.997 510.305H232.477C232.552 509.184 233.263 508.452 234.274 508.452ZM243.401 514.871C245.287 514.871 246.47 513.388 246.47 511.016C246.47 508.63 245.294 507.153 243.401 507.153C242.375 507.153 241.514 507.652 241.124 508.466H241.008V504.385H239.313V514.748H240.947V513.565H241.063C241.487 514.386 242.355 514.871 243.401 514.871ZM242.868 508.568C244.023 508.568 244.727 509.491 244.727 511.016C244.727 512.54 244.03 513.463 242.868 513.463C241.705 513.463 240.981 512.526 240.981 511.016C240.981 509.505 241.712 508.568 242.868 508.568ZM251.249 514.898C253.484 514.898 254.845 513.436 254.845 511.009C254.845 508.596 253.477 507.133 251.249 507.133C249.027 507.133 247.653 508.603 247.653 511.009C247.653 513.436 249.007 514.898 251.249 514.898ZM251.249 513.511C250.066 513.511 249.389 512.595 249.389 511.016C249.389 509.437 250.066 508.521 251.249 508.521C252.425 508.521 253.101 509.437 253.101 511.016C253.101 512.595 252.431 513.511 251.249 513.511ZM259.63 514.898C261.865 514.898 263.226 513.436 263.226 511.009C263.226 508.596 261.859 507.133 259.63 507.133C257.408 507.133 256.034 508.603 256.034 511.009C256.034 513.436 257.388 514.898 259.63 514.898ZM259.63 513.511C258.447 513.511 257.771 512.595 257.771 511.016C257.771 509.437 258.447 508.521 259.63 508.521C260.806 508.521 261.483 509.437 261.483 511.016C261.483 512.595 260.813 513.511 259.63 513.511ZM266.665 510.339H266.548V504.385H264.853V514.748H266.548V512.123L267.15 511.521L269.549 514.748H271.6L268.415 510.482L271.395 507.276H269.426L266.665 510.339Z" fill="#3797EF"/>
</g>
<path d="M255.729 386.248V382.709H259.361V381.602H255.729V378.924H259.695V377.793H254.416V386.248H255.729ZM264.099 386.371C265.963 386.371 267.105 385.123 267.105 383.066C267.105 381.01 265.957 379.762 264.099 379.762C262.236 379.762 261.088 381.016 261.088 383.066C261.088 385.123 262.23 386.371 264.099 386.371ZM264.099 385.299C263.004 385.299 262.388 384.484 262.388 383.066C262.388 381.648 263.004 380.828 264.099 380.828C265.189 380.828 265.81 381.648 265.81 383.066C265.81 384.479 265.189 385.299 264.099 385.299ZM268.773 386.248H270.032V382.445C270.032 381.549 270.706 380.934 271.661 380.934C271.884 380.934 272.259 380.975 272.364 381.004V379.82C272.23 379.791 271.989 379.773 271.802 379.773C270.97 379.773 270.261 380.225 270.079 380.852H269.986V379.885H268.773V386.248ZM276.253 388.68C278.057 388.68 279.2 387.76 279.2 386.312V379.885H277.993V380.898H277.893C277.536 380.207 276.768 379.773 275.889 379.773C274.261 379.773 273.241 381.057 273.241 382.984C273.241 384.895 274.249 386.154 275.878 386.154C276.757 386.154 277.46 385.773 277.846 385.082H277.94V386.307C277.94 387.168 277.319 387.684 276.27 387.684C275.421 387.684 274.888 387.379 274.782 386.898H273.493C273.628 387.971 274.659 388.68 276.253 388.68ZM276.235 385.111C275.151 385.111 274.542 384.285 274.542 382.984C274.542 381.684 275.151 380.852 276.235 380.852C277.307 380.852 277.964 381.684 277.964 382.984C277.964 384.285 277.313 385.111 276.235 385.111ZM283.873 386.371C285.737 386.371 286.879 385.123 286.879 383.066C286.879 381.01 285.731 379.762 283.873 379.762C282.01 379.762 280.862 381.016 280.862 383.066C280.862 385.123 282.004 386.371 283.873 386.371ZM283.873 385.299C282.778 385.299 282.163 384.484 282.163 383.066C282.163 381.648 282.778 380.828 283.873 380.828C284.963 380.828 285.584 381.648 285.584 383.066C285.584 384.479 284.963 385.299 283.873 385.299ZM288.992 378.279V379.902H287.979V380.91H288.992V384.572C288.992 385.797 289.549 386.289 290.949 386.289C291.195 386.289 291.43 386.26 291.635 386.225V385.223C291.459 385.24 291.348 385.252 291.154 385.252C290.527 385.252 290.252 384.953 290.252 384.268V380.91H291.635V379.902H290.252V378.279H288.992ZM300.009 379.773C299.142 379.773 298.392 380.213 298.005 380.939H297.911V379.885H296.698V388.369H297.958V385.287H298.058C298.392 385.961 299.112 386.354 300.021 386.354C301.632 386.354 302.657 385.076 302.657 383.066C302.657 381.045 301.632 379.773 300.009 379.773ZM299.652 385.275C298.597 385.275 297.935 384.426 297.935 383.066C297.935 381.701 298.597 380.852 299.657 380.852C300.724 380.852 301.362 381.684 301.362 383.066C301.362 384.449 300.724 385.275 299.652 385.275ZM306.089 386.354C306.927 386.354 307.624 385.99 308.005 385.346H308.104V386.248H309.317V381.895C309.317 380.559 308.415 379.762 306.815 379.762C305.368 379.762 304.337 380.459 304.208 381.531H305.427C305.567 381.068 306.054 380.805 306.757 380.805C307.618 380.805 308.063 381.197 308.063 381.895V382.451L306.335 382.557C304.817 382.65 303.962 383.312 303.962 384.455C303.962 385.615 304.858 386.354 306.089 386.354ZM306.411 385.34C305.725 385.34 305.227 384.994 305.227 384.402C305.227 383.822 305.626 383.512 306.505 383.453L308.063 383.348V383.898C308.063 384.719 307.36 385.34 306.411 385.34ZM311.114 381.666C311.114 382.609 311.676 383.148 312.889 383.43L314.002 383.693C314.641 383.846 314.94 384.104 314.94 384.502C314.94 385.023 314.383 385.387 313.598 385.387C312.836 385.387 312.368 385.076 312.209 384.578H310.95C311.061 385.686 312.051 386.371 313.569 386.371C315.092 386.371 316.211 385.568 316.211 384.385C316.211 383.459 315.643 382.938 314.43 382.656L313.37 382.41C312.678 382.246 312.356 382 312.356 381.607C312.356 381.092 312.889 380.746 313.592 380.746C314.307 380.746 314.764 381.057 314.881 381.531H316.088C315.965 380.43 315.028 379.762 313.592 379.762C312.151 379.762 311.114 380.559 311.114 381.666ZM317.615 381.666C317.615 382.609 318.178 383.148 319.391 383.43L320.504 383.693C321.143 383.846 321.441 384.104 321.441 384.502C321.441 385.023 320.885 385.387 320.1 385.387C319.338 385.387 318.869 385.076 318.711 384.578H317.451C317.562 385.686 318.553 386.371 320.07 386.371C321.594 386.371 322.713 385.568 322.713 384.385C322.713 383.459 322.145 382.938 320.932 382.656L319.871 382.41C319.18 382.246 318.857 382 318.857 381.607C318.857 381.092 319.391 380.746 320.094 380.746C320.809 380.746 321.266 381.057 321.383 381.531H322.59C322.467 380.43 321.529 379.762 320.094 379.762C318.652 379.762 317.615 380.559 317.615 381.666ZM332.513 379.885H331.254L330.117 384.795H330.017L328.705 379.885H327.498L326.185 384.795H326.091L324.949 379.885H323.671L325.429 386.248H326.724L328.037 381.502H328.136L329.455 386.248H330.761L332.513 379.885ZM336.413 386.371C338.277 386.371 339.419 385.123 339.419 383.066C339.419 381.01 338.271 379.762 336.413 379.762C334.55 379.762 333.402 381.016 333.402 383.066C333.402 385.123 334.544 386.371 336.413 386.371ZM336.413 385.299C335.318 385.299 334.702 384.484 334.702 383.066C334.702 381.648 335.318 380.828 336.413 380.828C337.503 380.828 338.124 381.648 338.124 383.066C338.124 384.479 337.503 385.299 336.413 385.299ZM341.087 386.248H342.346V382.445C342.346 381.549 343.02 380.934 343.975 380.934C344.198 380.934 344.573 380.975 344.679 381.004V379.82C344.544 379.791 344.304 379.773 344.116 379.773C343.284 379.773 342.575 380.225 342.393 380.852H342.3V379.885H341.087V386.248ZM348.209 386.354C349.088 386.354 349.832 385.938 350.213 385.24H350.313V386.248H351.52V377.389H350.26V380.893H350.166C349.821 380.195 349.082 379.773 348.209 379.773C346.598 379.773 345.561 381.057 345.561 383.061C345.561 385.076 346.586 386.354 348.209 386.354ZM348.567 380.852C349.621 380.852 350.284 381.707 350.284 383.066C350.284 384.438 349.627 385.275 348.567 385.275C347.5 385.275 346.862 384.449 346.862 383.066C346.862 381.689 347.506 380.852 348.567 380.852ZM353.111 380.061H354.324C354.377 379.287 354.898 378.801 355.707 378.801C356.51 378.801 357.031 379.287 357.031 379.949C357.031 380.553 356.779 380.893 356.07 381.32C355.268 381.801 354.91 382.328 354.939 383.154L354.945 383.623H356.158V383.266C356.158 382.662 356.375 382.352 357.131 381.906C357.904 381.443 358.361 380.805 358.361 379.896C358.361 378.643 357.318 377.723 355.771 377.723C354.072 377.723 353.164 378.73 353.111 380.061ZM355.625 386.377C356.164 386.377 356.527 386.025 356.527 385.504C356.527 384.977 356.164 384.625 355.625 384.625C355.086 384.625 354.717 384.977 354.717 385.504C354.717 386.025 355.086 386.377 355.625 386.377Z" fill="#3797EF"/>
<g clip-path="url(#clip2_1667_56069)">
<rect x="16" y="256.248" width="343" height="44" rx="5" fill="#FAFAFA"/>
<rect x="16.25" y="256.498" width="342.5" height="43.5" rx="4.75" stroke="black" stroke-opacity="0.1" stroke-width="0.5"/>
<path d="M34.1582 282.878C35.1426 282.878 35.9492 282.447 36.4277 281.661H36.5371V282.748H37.6582V277.703C37.6582 276.172 36.6533 275.249 34.8555 275.249C33.2832 275.249 32.1211 276.028 31.9639 277.211H33.1533C33.3174 276.63 33.9326 276.295 34.8145 276.295C35.915 276.295 36.4824 276.794 36.4824 277.703V278.373L34.3564 278.503C32.6406 278.605 31.6699 279.364 31.6699 280.684C31.6699 282.03 32.7295 282.878 34.1582 282.878ZM34.377 281.846C33.5225 281.846 32.8867 281.408 32.8867 280.656C32.8867 279.918 33.3789 279.528 34.5 279.453L36.4824 279.323V280C36.4824 281.053 35.5869 281.846 34.377 281.846ZM39.5111 277.396C39.5111 278.462 40.14 279.057 41.5209 279.392L42.7855 279.699C43.5717 279.891 43.9545 280.232 43.9545 280.738C43.9545 281.415 43.2436 281.887 42.2523 281.887C41.309 281.887 40.7211 281.49 40.5229 280.868H39.3129C39.4428 282.092 40.5707 282.878 42.2113 282.878C43.8861 282.878 45.1645 281.969 45.1645 280.649C45.1645 279.59 44.4945 278.988 43.1068 278.653L41.9721 278.38C41.1039 278.168 40.6937 277.854 40.6937 277.348C40.6937 276.691 41.3773 276.247 42.2523 276.247C43.141 276.247 43.7152 276.637 43.8725 277.225H45.0346C44.8773 276.015 43.8041 275.249 42.2592 275.249C40.6937 275.249 39.5111 276.172 39.5111 277.396ZM48.9109 282.878C49.8953 282.878 50.702 282.447 51.1805 281.661H51.2898V282.748H52.4109V277.703C52.4109 276.172 51.4061 275.249 49.6082 275.249C48.0359 275.249 46.8738 276.028 46.7166 277.211H47.9061C48.0701 276.63 48.6854 276.295 49.5672 276.295C50.6678 276.295 51.2352 276.794 51.2352 277.703V278.373L49.1092 278.503C47.3934 278.605 46.4227 279.364 46.4227 280.684C46.4227 282.03 47.4822 282.878 48.9109 282.878ZM49.1297 281.846C48.2752 281.846 47.6395 281.408 47.6395 280.656C47.6395 279.918 48.1316 279.528 49.2527 279.453L51.2352 279.323V280C51.2352 281.053 50.3396 281.846 49.1297 281.846ZM57.1623 282.878C58.1809 282.878 59.0559 282.393 59.5207 281.572H59.6301V282.748H60.7512V272.453H59.5754V276.541H59.4729C59.0559 275.734 58.1877 275.249 57.1623 275.249C55.2893 275.249 54.0656 276.753 54.0656 279.063C54.0656 281.381 55.2756 282.878 57.1623 282.878ZM57.4357 276.309C58.7687 276.309 59.6027 277.375 59.6027 279.063C59.6027 280.766 58.7756 281.818 57.4357 281.818C56.0891 281.818 55.2824 280.786 55.2824 279.063C55.2824 277.348 56.0959 276.309 57.4357 276.309ZM68.107 284.354V283.479H61.7086V284.354H68.107ZM70.3496 278.599H70.2402V272.453H69.0645V282.748H70.2402V279.952L70.9443 279.296L73.7061 282.748H75.2031L71.8193 278.537L74.9912 275.379H73.5488L70.3496 278.599ZM76.516 282.748H77.6918V278.387C77.6918 277.143 78.4164 276.309 79.7357 276.309C80.85 276.309 81.4379 276.958 81.4379 278.264V282.748H82.6137V277.977C82.6137 276.247 81.6293 275.249 80.0707 275.249C78.9428 275.249 78.1703 275.728 77.8012 276.541H77.6918V272.453H76.516V282.748ZM86.6609 282.878C87.6453 282.878 88.452 282.447 88.9305 281.661H89.0398V282.748H90.1609V277.703C90.1609 276.172 89.1561 275.249 87.3582 275.249C85.7859 275.249 84.6238 276.028 84.4666 277.211H85.6561C85.8201 276.63 86.4354 276.295 87.3172 276.295C88.4178 276.295 88.9852 276.794 88.9852 277.703V278.373L86.8592 278.503C85.1434 278.605 84.1727 279.364 84.1727 280.684C84.1727 282.03 85.2322 282.878 86.6609 282.878ZM86.8797 281.846C86.0252 281.846 85.3895 281.408 85.3895 280.656C85.3895 279.918 85.8816 279.528 87.0027 279.453L88.9852 279.323V280C88.9852 281.053 88.0896 281.846 86.8797 281.846ZM92.0139 277.396C92.0139 278.462 92.6428 279.057 94.0236 279.392L95.2883 279.699C96.0744 279.891 96.4572 280.232 96.4572 280.738C96.4572 281.415 95.7463 281.887 94.7551 281.887C93.8117 281.887 93.2238 281.49 93.0256 280.868H91.8156C91.9455 282.092 93.0734 282.878 94.7141 282.878C96.3889 282.878 97.6672 281.969 97.6672 280.649C97.6672 279.59 96.9973 278.988 95.6096 278.653L94.4748 278.38C93.6066 278.168 93.1965 277.854 93.1965 277.348C93.1965 276.691 93.8801 276.247 94.7551 276.247C95.6437 276.247 96.218 276.637 96.3752 277.225H97.5373C97.3801 276.015 96.3068 275.249 94.7619 275.249C93.1965 275.249 92.0139 276.172 92.0139 277.396ZM101.414 282.878C102.398 282.878 103.205 282.447 103.683 281.661H103.793V282.748H104.914V277.703C104.914 276.172 103.909 275.249 102.111 275.249C100.539 275.249 99.3766 276.028 99.2193 277.211H100.409C100.573 276.63 101.188 276.295 102.07 276.295C103.171 276.295 103.738 276.794 103.738 277.703V278.373L101.612 278.503C99.8961 278.605 98.9254 279.364 98.9254 280.684C98.9254 282.03 99.985 282.878 101.414 282.878ZM101.632 281.846C100.778 281.846 100.142 281.408 100.142 280.656C100.142 279.918 100.634 279.528 101.755 279.453L103.738 279.323V280C103.738 281.053 102.842 281.846 101.632 281.846ZM106.938 282.748H108.113V278.387C108.113 277.095 108.872 276.309 110.048 276.309C111.224 276.309 111.784 276.938 111.784 278.264V282.748H112.96V277.977C112.96 276.227 112.037 275.249 110.383 275.249C109.255 275.249 108.537 275.728 108.168 276.541H108.059V275.379H106.938V282.748ZM117.992 282.878C120.09 282.878 121.389 281.429 121.389 279.063C121.389 276.691 120.09 275.249 117.992 275.249C115.893 275.249 114.594 276.691 114.594 279.063C114.594 281.429 115.893 282.878 117.992 282.878ZM117.992 281.818C116.597 281.818 115.811 280.807 115.811 279.063C115.811 277.313 116.597 276.309 117.992 276.309C119.386 276.309 120.172 277.313 120.172 279.063C120.172 280.807 119.386 281.818 117.992 281.818ZM128.827 275.379H127.569L125.553 281.449H125.443L123.427 275.379H122.169L124.896 282.748H126.099L128.827 275.379Z" fill="#262626"/>
</g>
<g clip-path="url(#clip3_1667_56069)">
<rect x="16" y="312.248" width="343" height="44" rx="5" fill="#FAFAFA"/>
<rect x="16.25" y="312.498" width="342.5" height="43.5" rx="4.75" stroke="black" stroke-opacity="0.1" stroke-width="0.5"/>
<path d="M32.2578 328.884V338.748H33.4883V335.228H35.9697C37.8223 335.228 39.1416 333.922 39.1416 332.076C39.1416 330.196 37.8496 328.884 35.9834 328.884H32.2578ZM33.4883 329.978H35.6621C37.0908 329.978 37.877 330.723 37.877 332.076C37.877 333.382 37.0635 334.134 35.6621 334.134H33.4883V329.978ZM42.6352 338.878C43.6195 338.878 44.4262 338.447 44.9047 337.661H45.0141V338.748H46.1352V333.703C46.1352 332.172 45.1303 331.249 43.3324 331.249C41.7602 331.249 40.598 332.028 40.4408 333.211H41.6303C41.7943 332.63 42.4096 332.295 43.2914 332.295C44.392 332.295 44.9594 332.794 44.9594 333.703V334.373L42.8334 334.503C41.1176 334.605 40.1469 335.364 40.1469 336.684C40.1469 338.03 41.2064 338.878 42.6352 338.878ZM42.8539 337.846C41.9994 337.846 41.3637 337.408 41.3637 336.656C41.3637 335.918 41.8559 335.528 42.977 335.453L44.9594 335.323V336C44.9594 337.053 44.0639 337.846 42.8539 337.846ZM47.9881 333.396C47.9881 334.462 48.617 335.057 49.9979 335.392L51.2625 335.699C52.0486 335.891 52.4314 336.232 52.4314 336.738C52.4314 337.415 51.7205 337.887 50.7293 337.887C49.7859 337.887 49.198 337.49 48.9998 336.868H47.7898C47.9197 338.092 49.0477 338.878 50.6883 338.878C52.3631 338.878 53.6414 337.969 53.6414 336.649C53.6414 335.59 52.9715 334.988 51.5838 334.653L50.449 334.38C49.5809 334.168 49.1707 333.854 49.1707 333.348C49.1707 332.691 49.8543 332.247 50.7293 332.247C51.618 332.247 52.1922 332.637 52.3494 333.225H53.5115C53.3543 332.015 52.2811 331.249 50.7361 331.249C49.1707 331.249 47.9881 332.172 47.9881 333.396ZM55.0295 333.396C55.0295 334.462 55.6584 335.057 57.0393 335.392L58.3039 335.699C59.09 335.891 59.4729 336.232 59.4729 336.738C59.4729 337.415 58.7619 337.887 57.7707 337.887C56.8273 337.887 56.2395 337.49 56.0412 336.868H54.8312C54.9611 338.092 56.0891 338.878 57.7297 338.878C59.4045 338.878 60.6828 337.969 60.6828 336.649C60.6828 335.59 60.0129 334.988 58.6252 334.653L57.4904 334.38C56.6223 334.168 56.2121 333.854 56.2121 333.348C56.2121 332.691 56.8957 332.247 57.7707 332.247C58.6594 332.247 59.2336 332.637 59.3908 333.225H60.5529C60.3957 332.015 59.3225 331.249 57.7775 331.249C56.2121 331.249 55.0295 332.172 55.0295 333.396ZM71.443 331.379H70.2604L68.8111 337.271H68.7018L67.0543 331.379H65.9264L64.2789 337.271H64.1695L62.7203 331.379H61.5309L63.5953 338.748H64.7848L66.4254 333.047H66.5348L68.1822 338.748H69.3785L71.443 331.379ZM75.6201 338.878C77.7188 338.878 79.0176 337.429 79.0176 335.063C79.0176 332.691 77.7188 331.249 75.6201 331.249C73.5215 331.249 72.2227 332.691 72.2227 335.063C72.2227 337.429 73.5215 338.878 75.6201 338.878ZM75.6201 337.818C74.2256 337.818 73.4395 336.807 73.4395 335.063C73.4395 333.313 74.2256 332.309 75.6201 332.309C77.0146 332.309 77.8008 333.313 77.8008 335.063C77.8008 336.807 77.0146 337.818 75.6201 337.818ZM80.7133 338.748H81.8891V334.182C81.8891 333.143 82.7025 332.391 83.8236 332.391C84.0561 332.391 84.4799 332.432 84.5756 332.459V331.283C84.4252 331.263 84.1791 331.249 83.9877 331.249C83.0102 331.249 82.1625 331.755 81.9437 332.473H81.8344V331.379H80.7133V338.748ZM88.4178 338.878C89.4363 338.878 90.3113 338.393 90.7762 337.572H90.8855V338.748H92.0066V328.453H90.8309V332.541H90.7283C90.3113 331.734 89.4432 331.249 88.4178 331.249C86.5447 331.249 85.3211 332.753 85.3211 335.063C85.3211 337.381 86.5311 338.878 88.4178 338.878ZM88.6912 332.309C90.0242 332.309 90.8582 333.375 90.8582 335.063C90.8582 336.766 90.0311 337.818 88.6912 337.818C87.3445 337.818 86.5379 336.786 86.5379 335.063C86.5379 333.348 87.3514 332.309 88.6912 332.309Z" fill="black" fill-opacity="0.2"/>
</g>
<g opacity="0.5" clip-path="url(#clip4_1667_56069)">
<rect x="16" y="419.248" width="343" height="44" rx="5" fill="#3797EF"/>
<path d="M174.709 444.737H170.184V436.384H168.42V446.248H174.709V444.737ZM179.166 446.398C181.402 446.398 182.762 444.936 182.762 442.509C182.762 440.096 181.395 438.633 179.166 438.633C176.945 438.633 175.571 440.103 175.571 442.509C175.571 444.936 176.924 446.398 179.166 446.398ZM179.166 445.011C177.984 445.011 177.307 444.095 177.307 442.516C177.307 440.937 177.984 440.021 179.166 440.021C180.342 440.021 181.019 440.937 181.019 442.516C181.019 444.095 180.349 445.011 179.166 445.011ZM187.534 449.092C189.715 449.092 191.096 448.005 191.096 446.289V438.776H189.462V439.973H189.346C188.935 439.159 188.047 438.653 187.028 438.653C185.121 438.653 183.938 440.144 183.938 442.434C183.938 444.676 185.114 446.139 187.001 446.139C188.04 446.139 188.853 445.701 189.284 444.895H189.4V446.316C189.4 447.267 188.723 447.827 187.561 447.827C186.632 447.827 186.03 447.492 185.921 446.966H184.219C184.355 448.251 185.613 449.092 187.534 449.092ZM187.534 444.792C186.351 444.792 185.681 443.876 185.681 442.427C185.681 440.984 186.351 440.068 187.534 440.068C188.71 440.068 189.428 440.984 189.428 442.434C189.428 443.876 188.717 444.792 187.534 444.792ZM197.474 437.525C198.035 437.525 198.493 437.081 198.493 436.521C198.493 435.967 198.035 435.516 197.474 435.516C196.921 435.516 196.462 435.967 196.462 436.521C196.462 437.081 196.921 437.525 197.474 437.525ZM196.633 446.248H198.322V438.776H196.633V446.248ZM200.277 446.248H201.973V441.894C201.973 440.772 202.608 440.068 203.62 440.068C204.652 440.068 205.131 440.649 205.131 441.812V446.248H206.826V441.415C206.826 439.638 205.917 438.633 204.249 438.633C203.135 438.633 202.383 439.139 202.027 439.973H201.911V438.776H200.277V446.248Z" fill="white"/>
</g>
<path fill-rule="evenodd" clip-rule="evenodd" d="M276.184 194.717C276.389 193.827 276.637 193.298 277.179 193.298C277.877 193.298 278.11 194.132 277.953 195.213C277.3 199.702 275.36 201.408 272.988 201.408C271.877 201.408 268.689 200.897 267.586 196.323C266.773 192.947 266.974 186.773 267.063 184.886C267.065 184.835 266.993 184.572 266.836 184.905L266.802 184.978C266.353 185.938 265.221 188.357 264.535 191.028C263.456 195.224 263.363 198.145 263.416 198.617C263.525 199.587 262.305 199.739 261.722 199.739C260.805 199.739 259.679 199.667 258.767 198.144C258.448 197.611 258.032 195.927 257.721 193.079C257.313 189.357 257.25 186.549 257.225 185.466L257.223 185.343C257.211 184.858 256.906 184.934 256.635 185.392L256.594 185.461C256.095 186.303 255.101 187.979 254.037 192.122C253.533 194.083 253.459 196.566 253.401 198.532C253.383 199.111 253.368 199.646 253.342 200.109C253.3 200.883 252.992 201.183 252.597 201.258C252.026 201.367 250.485 201.618 248.973 201.088C248.631 200.968 248.162 200.72 248.081 200.522C247.949 200.199 247.865 199.174 247.812 197.921C246.54 200.768 244.971 201.408 243.319 201.408C241.732 201.408 238.962 200.368 238.392 197C238.392 197 238.051 197.671 237.452 198.447C234.793 201.889 229.557 202.768 226.848 198.709C226.716 198.511 226.595 198.297 226.479 198.076C225.52 200.061 223.73 201.397 221.858 201.397C220.259 201.397 217.563 200.372 216.367 197.187C214.644 192.601 216.48 185.748 216.643 185.142L216.649 185.119C216.744 184.763 216.596 184.664 216.082 184.695C214.476 184.795 212.97 184.783 212.97 184.783C212.083 187.429 210.351 190.829 208.734 193.361C207.251 195.684 205.64 197.669 204.21 199.239C204.228 200.42 204.249 201.556 204.268 202.594V202.594V202.594C204.282 203.353 204.295 204.06 204.305 204.694C204.366 208.442 203.536 212.236 202.267 214C200.826 216.003 198.478 217.434 195.74 217.228C193.158 217.035 189.749 215.557 190.039 211.58C190.266 208.466 193.353 205.791 197.418 202.268L197.435 202.253C198.359 201.452 199.865 200.145 199.865 200.145L199.788 198.007C199.693 198.139 199.585 198.286 199.461 198.447C196.821 201.894 191.566 202.768 188.857 198.709C188.677 198.44 188.513 198.156 188.362 197.859C187.076 200.597 185.241 201.391 183.464 201.391C181.877 201.391 179.106 200.254 178.721 197C178.721 197 178.597 197.383 177.781 198.447C175.141 201.894 169.886 202.768 167.177 198.709C166.611 197.861 166.173 196.86 165.878 195.707C164.847 198.534 162.491 201.407 160.14 201.407C156.625 201.407 154.601 198.476 154.126 193.295C151.47 199.293 147.655 201.619 142.892 201.468C141.67 201.429 139.753 201.089 138.861 200.714C137.825 200.278 136.826 199.779 137.1 198.835C137.382 197.866 137.876 197.083 138.74 196.467C139.072 196.23 139.627 196.298 139.99 196.524C140.283 196.706 140.503 196.864 140.713 197.014C140.987 197.211 141.244 197.395 141.625 197.606C143.931 198.886 145.227 197.57 145.571 196.292C146.021 194.621 145.343 192.86 143.278 191.006C142.721 190.506 142.163 190.026 141.63 189.566L141.63 189.566L141.63 189.566C141.312 189.293 141.003 189.027 140.707 188.768C139.57 190.581 137.987 193.095 136.357 195.66C133.742 199.776 131.303 201.402 129.573 201.402C127.311 201.402 125.728 199.877 126.058 191.65C126.123 190.026 126.205 188.25 126.275 186.723L126.275 186.722L126.275 186.72C126.338 185.357 126.391 184.191 126.416 183.508C126.427 183.181 126.184 183.193 125.972 183.393C124.754 184.537 122.166 187.76 120.181 194.366C119.096 197.977 118.93 199.339 118.811 200.313L118.811 200.313L118.811 200.313L118.811 200.313L118.811 200.314C118.79 200.484 118.771 200.642 118.749 200.798C118.623 201.676 116.194 201.381 115.75 201.295C115.274 201.202 114.985 200.976 114.735 200.681C114.485 200.385 114.283 199.887 114.158 199.276C114.033 198.665 114 197.269 114 196.071L114.107 180.314C114.107 179.803 114.398 179.546 114.982 179.546C116.207 179.546 117.585 180.088 118.101 180.353C118.405 180.509 118.539 180.737 118.539 180.973L118.473 191.044C118.473 191.044 119.231 189.121 119.617 188.065C122.679 179.69 125.919 179.546 127.042 179.546C127.792 179.546 129.088 180.241 129.695 180.594C130.694 181.176 131.29 181.818 131.245 182.945C131.212 183.765 131.177 184.577 131.143 185.37L131.143 185.376L131.143 185.38L131.143 185.381L131.143 185.382L131.143 185.383C131.036 187.881 130.937 190.174 130.937 191.835L130.937 191.934C130.937 194.445 130.937 197.087 131.867 197.087C132.979 197.087 134.431 194.707 136.327 191.599C136.44 191.414 136.554 191.227 136.67 191.037C137.414 189.821 138.292 188.252 138.931 187.086C138.845 186.992 138.761 186.899 138.684 186.807C137.627 185.553 137.339 184.346 137.879 182.719C138.575 180.619 140.911 178.652 143.743 179.268C145.457 179.641 145.427 181.33 144.728 182.806C143.743 184.89 142.631 185.926 142.631 185.926C144.55 187.269 146.265 188.494 147.134 189.141C149.492 190.897 150.801 192.972 150.16 195.734C150.16 195.734 153.144 193.478 153.992 189.303C153.99 189.068 153.989 188.826 153.989 188.575C153.989 186.216 154.057 178.573 154.057 178.573C153.446 178.555 152.711 178.538 151.964 178.521C150.83 178.494 149.667 178.467 148.863 178.438C147.705 178.396 148.609 174.989 149.447 174.989C149.898 174.989 150.893 175.031 151.888 175.072C152.883 175.114 153.878 175.156 154.329 175.156C154.329 175.156 154.414 170.798 154.578 169.31C154.687 168.33 155.244 168.095 156.472 168.335C157.361 168.508 158.111 168.669 158.949 169.004L158.978 169.015C159.326 169.154 159.894 169.379 159.856 169.807C159.809 170.334 159.608 175.325 159.608 175.325C159.608 175.325 161.847 175.482 162.651 175.499C163.607 175.518 166.02 175.64 166.361 175.778C167.114 176.085 166.411 178.561 165.681 178.597C164.626 178.648 163.816 178.649 163.033 178.65C162.737 178.65 162.445 178.651 162.145 178.654C161.721 178.659 159.531 178.694 159.531 178.694C159.473 179.418 159.127 186.937 159.127 192.218C159.127 196.183 160.093 198.043 161.107 198.043C162.84 198.043 164.959 194.846 165.439 192.071C165.431 191.094 165.494 190.049 165.639 188.933C166.141 185.07 167.114 183.325 168.317 181.752C170.162 179.338 172.577 178.75 174.903 179.403C175.767 179.645 177.065 180.48 177.873 181.679V180.814C177.873 180.439 178.29 179.935 178.885 179.894C179.335 179.862 179.922 179.917 180.602 180.065C181.251 180.208 182.647 180.592 182.658 181.356C182.66 181.46 182.65 181.715 182.636 182.082L182.636 182.086L182.636 182.088L182.636 182.089C182.616 182.593 182.589 183.307 182.571 184.13C182.553 184.966 182.528 185.69 182.504 186.414V186.414V186.414V186.414L182.504 186.415C182.456 187.837 182.408 189.258 182.408 191.53C182.408 197.408 183.283 198.693 184.821 198.693C186.023 198.693 187.087 196.885 187.457 195.156C187.114 193.429 187.068 191.379 187.319 188.967C187.589 186.379 188.542 183.677 189.997 181.752C191.829 179.329 194.257 178.75 196.583 179.403C197.447 179.645 198.745 180.48 199.553 181.679C199.553 181.679 199.553 181.004 199.549 180.894C199.534 180.312 200.125 179.82 201.107 179.892C201.885 179.949 202.634 180.113 203.269 180.349C203.986 180.616 204.33 180.827 204.339 181.385C204.34 181.489 204.331 181.737 204.317 182.095L204.316 182.095C204.297 182.592 204.269 183.3 204.251 184.13C204.219 185.589 204.147 189.635 204.164 194.776C204.165 195.137 204.167 195.5 204.17 195.863C204.926 194.889 205.512 193.972 206.278 192.734C207.707 190.425 209.092 187.23 209.657 184.785C209.657 184.785 207.935 183.843 208.214 181.847C208.39 180.589 208.853 179.889 209.534 179.296C210.675 178.302 214.25 178.05 213.865 181.161C213.792 181.754 213.703 182.09 213.703 182.09C215.181 181.883 216.796 181.614 217.926 181.363C219.512 181.012 220.615 181.297 221.133 181.857C221.698 182.467 221.923 183.104 221.646 184.319C221.53 184.83 221.415 185.312 221.305 185.776L221.305 185.778C220.799 187.905 220.386 189.647 220.313 191.953C220.178 196.224 221.338 198.693 222.938 198.693C224.04 198.693 225.047 197.785 225.589 195.569C225.14 193.604 225.058 191.282 225.31 188.991C225.656 185.858 226.533 183.677 227.988 181.752C229.82 179.329 232.247 178.749 234.574 179.403C235.438 179.645 236.736 180.48 237.543 181.679C237.543 181.679 237.54 181.134 237.54 180.847C237.54 180.312 237.984 179.924 238.61 179.89C239.053 179.866 239.62 179.922 240.273 180.065C240.922 180.207 242.318 180.592 242.329 181.356C242.331 181.461 242.321 181.719 242.307 182.089L242.306 182.09C242.287 182.595 242.26 183.307 242.242 184.13C242.224 184.967 242.199 185.691 242.175 186.415C242.127 187.837 242.079 189.258 242.079 191.53C242.079 197.408 242.805 198.693 244.342 198.693C245.878 198.693 247.29 195.617 247.726 193.351C247.725 193.103 247.724 192.869 247.724 192.655C247.724 188.288 247.822 182.258 247.844 180.881L247.844 180.877L247.844 180.874L247.844 180.859L247.845 180.83L247.845 180.81C247.847 180.677 247.849 180.602 247.849 180.595C247.849 179.988 248.041 179.572 248.829 179.572C249.467 179.572 250.97 179.922 251.733 180.131C251.902 180.178 252.464 180.436 252.461 181.211C252.452 183.266 252.443 188.681 252.443 188.681C252.443 188.681 252.929 187.323 253.627 185.316C254.486 182.847 255.313 180.763 256.027 179.989C256.85 179.043 259.138 179.838 259.892 180.288C261.053 180.982 261.276 181.828 261.283 182.823C261.317 187.471 261.566 189.899 261.711 191.304C261.725 191.44 261.738 191.566 261.75 191.684C261.769 191.886 261.881 191.869 261.892 191.782C262.101 190.115 262.987 186.01 265.252 180.84C266.051 179.016 267.653 179.566 268.76 179.947L268.772 179.95C271.346 180.835 271.611 181.733 271.559 182.64C271.31 187.058 271.278 191.498 271.474 193.911C271.722 196.978 272.689 198.511 273.764 198.511C274.727 198.511 275.474 197.812 276.184 194.717ZM235.644 196.995C236.314 195.628 236.854 193.691 236.967 191.213C237.196 186.181 236.223 183.459 234.143 183.261C232.034 183.06 230.76 185.285 230.304 188.232C229.856 191.124 229.885 194.586 230.509 196.659C231.652 200.461 234.346 199.64 235.644 196.995ZM199.993 205.801C199.965 209.925 199.34 213.542 197.999 214.592C196.097 216.081 193.541 214.964 194.071 211.955C194.539 209.291 196.754 206.571 199.998 203.248C199.998 203.248 200.005 204.006 199.993 205.801ZM198.635 196.991C199.26 195.709 199.833 193.44 199.951 191.181C200.244 185.577 199.22 183.248 197.143 183.248C195.007 183.248 193.818 185.804 193.327 188.558C192.949 190.682 192.766 194.051 193.53 196.655C194.648 200.465 197.345 199.638 198.635 196.991ZM177.959 191.159C177.832 193.551 177.376 195.55 176.644 197.003C175.32 199.631 172.7 200.464 171.544 196.666C170.711 193.928 170.995 190.193 171.341 188.176C171.856 185.182 173.143 183.06 175.154 183.261C177.218 183.468 178.222 186.182 177.959 191.159ZM96.2479 178.982C97.5132 173.897 101.519 169.848 105.163 168.413C106.688 167.813 109.917 168.961 109.94 170.056C110.019 173.843 110.001 179.762 109.991 183.016C109.989 183.597 109.988 184.093 109.987 184.477C109.987 184.735 109.987 185.012 109.986 185.304C109.982 188.132 109.977 192.372 109.875 195.141C109.782 197.674 109.264 200.007 107.783 201.949C106.549 203.569 104.416 204.574 103.916 204.151C103.609 203.892 103.791 203.348 104.054 202.563C104.174 202.205 104.311 201.797 104.426 201.342C104.788 199.91 104.99 198.461 104.99 193.871C104.99 191.912 105.026 185.658 105.056 180.378C105.078 176.52 105.097 173.183 105.097 172.418C105.097 172.374 105.097 172.33 105.097 172.287C105.098 171.359 105.098 170.876 104.621 171.252C101.933 173.368 99.7982 178.192 100.287 182.509C100.492 184.318 101.125 185.252 101.56 185.894C101.929 186.439 102.156 186.774 101.861 187.256C101.314 188.148 94.6455 185.423 96.2479 178.982Z" fill="#262626"/>
<g filter="url(#filter0_d_1667_56069)">
<rect y="733.248" width="375" height="79" fill="white"/>
</g>
<path d="M122.383 776.748V768.293H121.329V776.748H122.383ZM124.401 776.748H125.408V773.01C125.408 771.902 126.059 771.229 127.067 771.229C128.074 771.229 128.555 771.768 128.555 772.904V776.748H129.563V772.658C129.563 771.158 128.772 770.32 127.354 770.32C126.387 770.32 125.772 770.73 125.455 771.428H125.361V770.432H124.401V776.748ZM131.252 772.16C131.252 773.074 131.791 773.584 132.975 773.871L134.059 774.135C134.732 774.299 135.06 774.592 135.06 775.025C135.06 775.605 134.451 776.01 133.601 776.01C132.793 776.01 132.289 775.67 132.119 775.137H131.082C131.193 776.186 132.16 776.859 133.566 776.859C135.002 776.859 136.098 776.08 136.098 774.949C136.098 774.041 135.523 773.525 134.334 773.238L133.361 773.004C132.617 772.822 132.266 772.553 132.266 772.119C132.266 771.557 132.851 771.176 133.601 771.176C134.363 771.176 134.855 771.51 134.99 772.014H135.986C135.851 770.977 134.932 770.32 133.607 770.32C132.266 770.32 131.252 771.111 131.252 772.16ZM138.033 768.797V770.432H137.013V771.275H138.033V775.107C138.033 776.314 138.554 776.795 139.855 776.795C140.054 776.795 140.248 776.771 140.447 776.736V775.887C140.259 775.904 140.16 775.91 139.978 775.91C139.322 775.91 139.041 775.594 139.041 774.85V771.275H140.447V770.432H139.041V768.797H138.033ZM143.718 776.859C144.562 776.859 145.253 776.49 145.664 775.816H145.757V776.748H146.718V772.424C146.718 771.111 145.857 770.32 144.316 770.32C142.968 770.32 141.972 770.988 141.837 772.002H142.857C142.997 771.504 143.525 771.217 144.281 771.217C145.224 771.217 145.71 771.645 145.71 772.424V772.998L143.888 773.109C142.417 773.197 141.585 773.848 141.585 774.979C141.585 776.133 142.494 776.859 143.718 776.859ZM143.906 775.975C143.173 775.975 142.628 775.6 142.628 774.955C142.628 774.322 143.05 773.988 144.011 773.924L145.71 773.812V774.393C145.71 775.295 144.943 775.975 143.906 775.975ZM151.173 779.174C152.896 779.174 153.986 778.271 153.986 776.859V770.432H153.025V771.434H152.931C152.568 770.754 151.788 770.32 150.904 770.32C149.28 770.32 148.255 771.604 148.255 773.496C148.255 775.389 149.269 776.654 150.904 776.654C151.771 776.654 152.486 776.262 152.884 775.564H152.978V776.807C152.978 777.738 152.304 778.295 151.173 778.295C150.265 778.295 149.702 777.961 149.591 777.445H148.525C148.677 778.488 149.65 779.174 151.173 779.174ZM151.126 775.764C149.954 775.764 149.298 774.873 149.298 773.496C149.298 772.119 149.954 771.229 151.126 771.229C152.292 771.229 153.001 772.119 153.001 773.496C153.001 774.873 152.298 775.764 151.126 775.764ZM155.874 776.748H156.882V772.834C156.882 771.943 157.579 771.299 158.54 771.299C158.739 771.299 159.102 771.334 159.185 771.357V770.35C159.056 770.332 158.845 770.32 158.681 770.32C157.843 770.32 157.116 770.754 156.929 771.369H156.835V770.432H155.874V776.748ZM162.192 776.859C163.036 776.859 163.727 776.49 164.137 775.816H164.231V776.748H165.192V772.424C165.192 771.111 164.331 770.32 162.79 770.32C161.442 770.32 160.446 770.988 160.311 772.002H161.331C161.471 771.504 161.999 771.217 162.755 771.217C163.698 771.217 164.184 771.645 164.184 772.424V772.998L162.362 773.109C160.891 773.197 160.059 773.848 160.059 774.979C160.059 776.133 160.967 776.859 162.192 776.859ZM162.38 775.975C161.647 775.975 161.102 775.6 161.102 774.955C161.102 774.322 161.524 773.988 162.485 773.924L164.184 773.812V774.393C164.184 775.295 163.417 775.975 162.38 775.975ZM167.045 776.748H168.053V772.834C168.053 771.943 168.692 771.229 169.518 771.229C170.315 771.229 170.836 771.709 170.836 772.459V776.748H171.844V772.688C171.844 771.885 172.43 771.229 173.309 771.229C174.2 771.229 174.639 771.686 174.639 772.617V776.748H175.647V772.383C175.647 771.059 174.926 770.32 173.637 770.32C172.764 770.32 172.043 770.76 171.704 771.428H171.61C171.317 770.771 170.719 770.32 169.864 770.32C169.02 770.32 168.387 770.725 168.1 771.428H168.006V770.432H167.045V776.748ZM183.508 776.859C185.307 776.859 186.42 775.617 186.42 773.59C186.42 771.557 185.307 770.32 183.508 770.32C181.709 770.32 180.596 771.557 180.596 773.59C180.596 775.617 181.709 776.859 183.508 776.859ZM183.508 775.951C182.312 775.951 181.639 775.084 181.639 773.59C181.639 772.09 182.312 771.229 183.508 771.229C184.703 771.229 185.377 772.09 185.377 773.59C185.377 775.084 184.703 775.951 183.508 775.951ZM192.269 770.432H187.16V771.275H189.211V776.748H190.219V771.275H192.269V770.432ZM198.238 776.748V773.086H201.982V772.148H198.238V769.242H202.316V768.293H197.183V776.748H198.238ZM205.259 776.859C206.103 776.859 206.794 776.49 207.204 775.816H207.298V776.748H208.259V772.424C208.259 771.111 207.397 770.32 205.856 770.32C204.509 770.32 203.513 770.988 203.378 772.002H204.397C204.538 771.504 205.065 771.217 205.821 771.217C206.765 771.217 207.251 771.645 207.251 772.424V772.998L205.429 773.109C203.958 773.197 203.126 773.848 203.126 774.979C203.126 776.133 204.034 776.859 205.259 776.859ZM205.446 775.975C204.714 775.975 204.169 775.6 204.169 774.955C204.169 774.322 204.591 773.988 205.552 773.924L207.251 773.812V774.393C207.251 775.295 206.483 775.975 205.446 775.975ZM215.339 772.365C215.163 771.24 214.225 770.32 212.69 770.32C210.921 770.32 209.796 771.598 209.796 773.566C209.796 775.576 210.927 776.859 212.696 776.859C214.214 776.859 215.157 776.004 215.339 774.844H214.319C214.132 775.559 213.54 775.951 212.69 775.951C211.565 775.951 210.839 775.025 210.839 773.566C210.839 772.137 211.554 771.229 212.69 771.229C213.598 771.229 214.155 771.738 214.319 772.365H215.339ZM221.001 775.113C220.737 775.67 220.186 775.969 219.372 775.969C218.299 775.969 217.602 775.178 217.549 773.93V773.883H222.09V773.496C222.09 771.533 221.053 770.32 219.348 770.32C217.614 770.32 216.501 771.609 216.501 773.596C216.501 775.594 217.596 776.859 219.348 776.859C220.731 776.859 221.715 776.191 222.008 775.113H221.001ZM219.336 771.211C220.338 771.211 221.006 771.949 221.03 773.068H217.549C217.626 771.949 218.329 771.211 219.336 771.211ZM226.803 776.859C228.403 776.859 229.451 775.564 229.451 773.59C229.451 771.604 228.409 770.32 226.803 770.32C225.936 770.32 225.168 770.748 224.823 771.428H224.729V767.924H223.721V776.748H224.682V775.74H224.776C225.174 776.443 225.924 776.859 226.803 776.859ZM226.569 771.229C227.723 771.229 228.409 772.113 228.409 773.59C228.409 775.066 227.723 775.951 226.569 775.951C225.42 775.951 224.705 775.049 224.705 773.59C224.705 772.131 225.42 771.229 226.569 771.229ZM233.619 776.859C235.418 776.859 236.531 775.617 236.531 773.59C236.531 771.557 235.418 770.32 233.619 770.32C231.82 770.32 230.707 771.557 230.707 773.59C230.707 775.617 231.82 776.859 233.619 776.859ZM233.619 775.951C232.424 775.951 231.75 775.084 231.75 773.59C231.75 772.09 232.424 771.229 233.619 771.229C234.815 771.229 235.488 772.09 235.488 773.59C235.488 775.084 234.815 775.951 233.619 775.951ZM240.699 776.859C242.498 776.859 243.611 775.617 243.611 773.59C243.611 771.557 242.498 770.32 240.699 770.32C238.9 770.32 237.787 771.557 237.787 773.59C237.787 775.617 238.9 776.859 240.699 776.859ZM240.699 775.951C239.504 775.951 238.83 775.084 238.83 773.59C238.83 772.09 239.504 771.229 240.699 771.229C241.894 771.229 242.568 772.09 242.568 773.59C242.568 775.084 241.894 775.951 240.699 775.951ZM246.343 773.191H246.25V767.924H245.242V776.748H246.25V774.352L246.853 773.789L249.22 776.748H250.504L247.603 773.139L250.322 770.432H249.086L246.343 773.191Z" fill="black" fill-opacity="0.4"/>
<rect y="0.248047" width="375" height="88" fill="white"/>
<path d="M25.577 57.5284C25.8699 57.2355 25.8699 56.7606 25.577 56.4677C25.2841 56.1748 24.8092 56.1748 24.5163 56.4677L16.707 64.2771C16.3164 64.6676 16.3164 65.3008 16.707 65.6913L24.5163 73.5007C24.8092 73.7936 25.2841 73.7936 25.577 73.5007C25.8699 73.2078 25.8699 72.7329 25.577 72.44L18.1212 64.9842L25.577 57.5284Z" fill="#262626"/>
<g clip-path="url(#clip5_1667_56069)">
<path fill-rule="evenodd" clip-rule="evenodd" d="M338.5 18.248C337.119 18.248 336 19.3673 336 20.748V26.248C336 27.6288 337.119 28.748 338.5 28.748H354.469H355.5C356.881 28.748 358 27.6288 358 26.248V20.748C358 19.3673 356.881 18.248 355.5 18.248H338.5ZM339 19.248C337.895 19.248 337 20.1435 337 21.248V25.748C337 26.8526 337.895 27.748 339 27.748H353.469H355C356.105 27.748 357 26.8526 357 25.748V21.248C357 20.1435 356.105 19.248 355 19.248H339Z" fill="#ABABAB"/>
<path fill-rule="evenodd" clip-rule="evenodd" d="M359 25.622C359.863 25.4 360.5 24.617 360.5 23.685C360.5 22.7531 359.863 21.9701 359 21.748V25.622Z" fill="#ABABAB"/>
<rect x="338" y="20.248" width="18" height="6.5" rx="1" fill="#060606"/>
<path fill-rule="evenodd" clip-rule="evenodd" d="M323.332 19.8559C325.548 19.856 327.679 20.7075 329.285 22.2343C329.406 22.3521 329.599 22.3507 329.718 22.2309L330.874 21.0643C330.935 21.0036 330.968 20.9213 330.968 20.8357C330.967 20.7501 330.933 20.6683 330.872 20.6083C326.656 16.5687 320.007 16.5687 315.792 20.6083C315.731 20.6682 315.696 20.7501 315.695 20.8357C315.695 20.9212 315.728 21.0035 315.789 21.0643L316.945 22.2309C317.064 22.3508 317.257 22.3523 317.378 22.2343C318.984 20.7074 321.116 19.8559 323.332 19.8559ZM323.332 23.6516C324.549 23.6515 325.723 24.1041 326.626 24.9213C326.748 25.0373 326.94 25.0347 327.059 24.9156L328.214 23.7489C328.275 23.6877 328.308 23.6047 328.308 23.5185C328.307 23.4322 328.271 23.3499 328.209 23.2899C325.461 20.7336 321.205 20.7336 318.457 23.2899C318.395 23.3499 318.359 23.4322 318.359 23.5185C318.358 23.6048 318.392 23.6878 318.453 23.7489L319.607 24.9156C319.726 25.0347 319.918 25.0373 320.04 24.9213C320.942 24.1046 322.115 23.6521 323.332 23.6516ZM325.551 26.4359C325.613 26.3753 325.647 26.2919 325.645 26.2054C325.643 26.1189 325.606 26.037 325.542 25.9789C324.266 24.9001 322.398 24.9001 321.122 25.9789C321.058 26.0369 321.021 26.1188 321.019 26.2054C321.017 26.2919 321.051 26.3753 321.113 26.4359L323.11 28.4516C323.169 28.5108 323.249 28.5442 323.332 28.5442C323.415 28.5442 323.495 28.5108 323.554 28.4516L325.551 26.4359Z" fill="#060606"/>
<path fill-rule="evenodd" clip-rule="evenodd" d="M294.664 24.5812H295.664C296.216 24.5812 296.664 25.0289 296.664 25.5812V27.5812C296.664 28.1335 296.216 28.5812 295.664 28.5812H294.664C294.112 28.5812 293.664 28.1335 293.664 27.5812V25.5812C293.664 25.0289 294.112 24.5812 294.664 24.5812ZM299.331 22.5812H300.331C300.883 22.5812 301.331 23.0289 301.331 23.5812V27.5812C301.331 28.1335 300.883 28.5812 300.331 28.5812H299.331C298.778 28.5812 298.331 28.1335 298.331 27.5812V23.5812C298.331 23.0289 298.778 22.5812 299.331 22.5812ZM303.997 20.2479H304.997C305.55 20.2479 305.997 20.6956 305.997 21.2479V27.5812C305.997 28.1335 305.55 28.5812 304.997 28.5812H303.997C303.445 28.5812 302.997 28.1335 302.997 27.5812V21.2479C302.997 20.6956 303.445 20.2479 303.997 20.2479ZM308.664 17.9146H309.664C310.216 17.9146 310.664 18.3623 310.664 18.9146V27.5812C310.664 28.1335 310.216 28.5812 309.664 28.5812H308.664C308.112 28.5812 307.664 28.1335 307.664 27.5812V18.9146C307.664 18.3623 308.112 17.9146 308.664 17.9146Z" fill="#060606"/>
<g clip-path="url(#clip6_1667_56069)">
<path d="M37.1341 28.5044C39.8221 28.5044 41.4187 26.4023 41.4187 22.8354C41.4187 19.3345 39.7195 17.4155 37.1927 17.4155C34.8929 17.4155 33.2669 18.9609 33.2669 21.1216C33.2669 23.1504 34.7317 24.6299 36.7459 24.6299C37.9837 24.6299 38.9871 24.0586 39.4852 23.0552H39.6097C39.5877 25.5381 38.7015 26.959 37.1561 26.959C36.2479 26.959 35.5228 26.4609 35.2957 25.6553H33.4134C33.721 27.3765 35.2005 28.5044 37.1341 28.5044ZM37.2 23.1724C35.9695 23.1724 35.1199 22.3081 35.1199 21.063C35.1199 19.8691 36.0135 18.9536 37.2073 18.9536C38.4012 18.9536 39.2947 19.8838 39.2947 21.0996C39.2947 22.3008 38.4231 23.1724 37.2 23.1724ZM44.4366 21.4072C45.1324 21.4072 45.6085 20.9238 45.6085 20.272C45.6085 19.6201 45.1324 19.1367 44.4366 19.1367C43.7481 19.1367 43.2647 19.6201 43.2647 20.272C43.2647 20.9238 43.7481 21.4072 44.4366 21.4072ZM44.4366 26.7832C45.1324 26.7832 45.6085 26.2925 45.6085 25.6479C45.6085 24.9961 45.1324 24.5127 44.4366 24.5127C43.7481 24.5127 43.2647 24.9961 43.2647 25.6479C43.2647 26.2925 43.7481 26.7832 44.4366 26.7832ZM52.6107 28.248H54.4198V26.2192H55.848V24.6592H54.4198V17.6792H51.7538C50.3183 19.8618 48.8168 22.2935 47.4472 24.6738V26.2192H52.6107V28.248ZM49.1977 24.5933C50.2304 22.7988 51.4535 20.8433 52.5375 19.188H52.64V24.7031H49.1977V24.5933ZM59.8767 28.248H61.7663V17.6792H59.884L57.1228 19.6201V21.3999L59.7521 19.5396H59.8767V28.248Z" fill="#171717"/>
</g>
</g>
<g clip-path="url(#clip7_1667_56069)">
<rect x="121" y="798.248" width="134" height="5" rx="2.5" fill="#060606"/>
</g>
</g>
<defs>
<filter id="filter0_d_1667_56069" x="0" y="732.918" width="375" height="79.33" filterUnits="userSpaceOnUse" color-interpolation-filters="sRGB">
<feFlood flood-opacity="0" result="BackgroundImageFix"/>
<feColorMatrix in="SourceAlpha" type="matrix" values="0 0 0 0 0 0 0 0 0 0 0 0 0 0 0 0 0 0 127 0" result="hardAlpha"/>
<feOffset dy="-0.33"/>
<feColorMatrix type="matrix" values="0 0 0 0 0.235294 0 0 0 0 0.235294 0 0 0 0 0.262745 0 0 0 0.29 0"/>
<feBlend mode="normal" in2="BackgroundImageFix" result="effect1_dropShadow_1667_56069"/>
<feBlend mode="normal" in="SourceGraphic" in2="effect1_dropShadow_1667_56069" result="shape"/>
</filter>
<clipPath id="clip0_1667_56069">
<rect width="375" height="812" fill="white" transform="translate(0 0.248047)"/>
</clipPath>
<clipPath id="clip1_1667_56069">
<rect width="169" height="18" fill="white" transform="translate(103 500.248)"/>
</clipPath>
<clipPath id="clip2_1667_56069">
<rect width="343" height="44" fill="white" transform="translate(16 256.248)"/>
</clipPath>
<clipPath id="clip3_1667_56069">
<rect width="343" height="44" fill="white" transform="translate(16 312.248)"/>
</clipPath>
<clipPath id="clip4_1667_56069">
<rect width="343" height="44" fill="white" transform="translate(16 419.248)"/>
</clipPath>
<clipPath id="clip5_1667_56069">
<rect width="375" height="44" fill="white" transform="translate(0 0.248047)"/>
</clipPath>
<clipPath id="clip6_1667_56069">
<rect width="54" height="18" fill="white" transform="translate(21 14.248)"/>
</clipPath>
<clipPath id="clip7_1667_56069">
<rect width="375" height="34" fill="white" transform="translate(0 778.248)"/>
</clipPath>
</defs>
</svg>
