<svg width="428" height="926" viewBox="0 0 428 926" fill="none" xmlns="http://www.w3.org/2000/svg">
<g clip-path="url(#clip0_1642_4122)">
<rect width="428" height="926" rx="40" fill="white"/>
<rect width="428" height="926" fill="white"/>
<path d="M52.5057 471L47.4261 453.545H52.0881L54.7216 464.983H54.8665L57.875 453.545H61.6761L64.6847 465.009H64.8295L67.4716 453.545H72.125L67.054 471H62.9886L59.8438 460.415H59.7074L56.5625 471H52.5057ZM78.7741 471.247C77.4048 471.247 76.223 470.977 75.2286 470.438C74.24 469.892 73.4786 469.116 72.9445 468.111C72.4161 467.099 72.1519 465.898 72.1519 464.506C72.1519 463.153 72.419 461.972 72.9531 460.96C73.4872 459.943 74.24 459.153 75.2116 458.591C76.1832 458.023 77.3281 457.739 78.6462 457.739C79.5781 457.739 80.4303 457.884 81.2031 458.173C81.9758 458.463 82.6434 458.892 83.2059 459.46C83.7684 460.028 84.2059 460.73 84.5184 461.565C84.8309 462.395 84.9872 463.347 84.9872 464.42V465.46H73.6093V463.04H81.1093C81.1036 462.597 80.9985 462.202 80.794 461.855C80.5894 461.509 80.3082 461.239 79.9502 461.045C79.598 460.847 79.1917 460.747 78.7315 460.747C78.2656 460.747 77.848 460.852 77.4786 461.062C77.1093 461.267 76.8167 461.548 76.6008 461.906C76.3849 462.259 76.2713 462.659 76.2599 463.108V465.571C76.2599 466.105 76.365 466.574 76.5752 466.977C76.7855 467.375 77.0837 467.685 77.4701 467.906C77.8565 468.128 78.3167 468.239 78.8508 468.239C79.2201 468.239 79.5553 468.187 79.8565 468.085C80.1576 467.983 80.4161 467.832 80.632 467.634C80.848 467.435 81.0099 467.19 81.1178 466.901L84.9445 467.011C84.7855 467.869 84.436 468.616 83.8962 469.253C83.3622 469.884 82.6605 470.375 81.7911 470.727C80.9218 471.074 79.9161 471.247 78.7741 471.247ZM91.5233 453.545V471H87.3557V453.545H91.5233ZM100.527 471.247C99.1461 471.247 97.9615 470.963 96.9728 470.395C95.9899 469.827 95.2342 469.037 94.7058 468.026C94.1774 467.009 93.9132 465.832 93.9132 464.497C93.9132 463.156 94.1774 461.98 94.7058 460.969C95.2399 459.952 95.9984 459.159 96.9814 458.591C97.97 458.023 99.149 457.739 100.518 457.739C101.729 457.739 102.783 457.957 103.68 458.395C104.584 458.832 105.288 459.452 105.794 460.253C106.305 461.048 106.575 461.983 106.604 463.057H102.709C102.629 462.386 102.402 461.861 102.027 461.48C101.658 461.099 101.175 460.909 100.578 460.909C100.095 460.909 99.6717 461.045 99.3081 461.318C98.9444 461.585 98.6603 461.983 98.4558 462.511C98.2569 463.034 98.1575 463.682 98.1575 464.455C98.1575 465.227 98.2569 465.881 98.4558 466.415C98.6603 466.943 98.9444 467.344 99.3081 467.616C99.6717 467.884 100.095 468.017 100.578 468.017C100.964 468.017 101.305 467.935 101.601 467.77C101.902 467.605 102.149 467.364 102.342 467.045C102.535 466.722 102.658 466.33 102.709 465.869H106.604C106.564 466.949 106.294 467.892 105.794 468.699C105.3 469.506 104.604 470.134 103.706 470.582C102.814 471.026 101.754 471.247 100.527 471.247ZM115.087 471.247C113.712 471.247 112.53 470.966 111.542 470.403C110.559 469.835 109.8 469.045 109.266 468.034C108.738 467.017 108.473 465.838 108.473 464.497C108.473 463.151 108.738 461.972 109.266 460.96C109.8 459.943 110.559 459.153 111.542 458.591C112.53 458.023 113.712 457.739 115.087 457.739C116.462 457.739 117.641 458.023 118.624 458.591C119.613 459.153 120.371 459.943 120.9 460.96C121.434 461.972 121.701 463.151 121.701 464.497C121.701 465.838 121.434 467.017 120.9 468.034C120.371 469.045 119.613 469.835 118.624 470.403C117.641 470.966 116.462 471.247 115.087 471.247ZM115.113 468.102C115.613 468.102 116.036 467.949 116.383 467.642C116.729 467.335 116.993 466.909 117.175 466.364C117.363 465.818 117.456 465.187 117.456 464.472C117.456 463.744 117.363 463.108 117.175 462.562C116.993 462.017 116.729 461.591 116.383 461.284C116.036 460.977 115.613 460.824 115.113 460.824C114.596 460.824 114.158 460.977 113.8 461.284C113.448 461.591 113.178 462.017 112.991 462.562C112.809 463.108 112.718 463.744 112.718 464.472C112.718 465.187 112.809 465.818 112.991 466.364C113.178 466.909 113.448 467.335 113.8 467.642C114.158 467.949 114.596 468.102 115.113 468.102ZM124.076 471V457.909H128.039V460.312H128.184C128.456 459.517 128.917 458.889 129.564 458.429C130.212 457.969 130.985 457.739 131.883 457.739C132.792 457.739 133.57 457.972 134.218 458.438C134.865 458.903 135.277 459.528 135.454 460.312H135.59C135.834 459.534 136.312 458.912 137.022 458.446C137.732 457.974 138.57 457.739 139.536 457.739C140.775 457.739 141.78 458.136 142.553 458.932C143.326 459.722 143.712 460.807 143.712 462.188V471H139.544V463.142C139.544 462.489 139.377 461.991 139.042 461.651C138.706 461.304 138.272 461.131 137.738 461.131C137.164 461.131 136.712 461.318 136.383 461.693C136.059 462.062 135.897 462.56 135.897 463.185V471H131.891V463.099C131.891 462.491 131.726 462.011 131.397 461.659C131.067 461.307 130.633 461.131 130.093 461.131C129.729 461.131 129.408 461.219 129.13 461.395C128.851 461.565 128.633 461.81 128.473 462.128C128.32 462.446 128.243 462.821 128.243 463.253V471H124.076ZM152.654 471.247C151.284 471.247 150.103 470.977 149.108 470.438C148.12 469.892 147.358 469.116 146.824 468.111C146.296 467.099 146.032 465.898 146.032 464.506C146.032 463.153 146.299 461.972 146.833 460.96C147.367 459.943 148.12 459.153 149.091 458.591C150.063 458.023 151.208 457.739 152.526 457.739C153.458 457.739 154.31 457.884 155.083 458.173C155.855 458.463 156.523 458.892 157.086 459.46C157.648 460.028 158.086 460.73 158.398 461.565C158.711 462.395 158.867 463.347 158.867 464.42V465.46H147.489V463.04H154.989C154.983 462.597 154.878 462.202 154.674 461.855C154.469 461.509 154.188 461.239 153.83 461.045C153.478 460.847 153.071 460.747 152.611 460.747C152.145 460.747 151.728 460.852 151.358 461.062C150.989 461.267 150.696 461.548 150.48 461.906C150.265 462.259 150.151 462.659 150.14 463.108V465.571C150.14 466.105 150.245 466.574 150.455 466.977C150.665 467.375 150.963 467.685 151.35 467.906C151.736 468.128 152.196 468.239 152.73 468.239C153.1 468.239 153.435 468.187 153.736 468.085C154.037 467.983 154.296 467.832 154.512 467.634C154.728 467.435 154.89 467.19 154.998 466.901L158.824 467.011C158.665 467.869 158.316 468.616 157.776 469.253C157.242 469.884 156.54 470.375 155.671 470.727C154.802 471.074 153.796 471.247 152.654 471.247ZM166.136 453.545L165.744 465.656H162.241L161.849 453.545H166.136ZM163.988 471.247C163.38 471.247 162.858 471.031 162.42 470.599C161.988 470.168 161.772 469.645 161.772 469.031C161.772 468.429 161.988 467.915 162.42 467.489C162.858 467.057 163.38 466.841 163.988 466.841C164.573 466.841 165.088 467.057 165.531 467.489C165.98 467.915 166.204 468.429 166.204 469.031C166.204 469.44 166.099 469.812 165.889 470.148C165.684 470.483 165.414 470.75 165.079 470.949C164.75 471.148 164.386 471.247 163.988 471.247Z" fill="black"/>
<rect x="47.5" y="501.5" width="326" height="47" rx="11.5" stroke="#C5C6CC"/>
<path d="M64.233 530V519.818H70.3778V520.912H65.4659V524.352H70.0597V525.446H65.4659V528.906H70.4574V530H64.233ZM72.4411 530V522.364H73.5746V523.557H73.674C73.8331 523.149 74.09 522.833 74.4446 522.607C74.7992 522.379 75.2251 522.264 75.7223 522.264C76.2261 522.264 76.6454 522.379 76.9801 522.607C77.3182 522.833 77.5817 523.149 77.7706 523.557H77.8501C78.0457 523.162 78.339 522.849 78.7301 522.617C79.1212 522.382 79.5902 522.264 80.1371 522.264C80.8198 522.264 81.3783 522.478 81.8125 522.906C82.2467 523.33 82.4638 523.991 82.4638 524.889V530H81.2905V524.889C81.2905 524.326 81.1364 523.923 80.8281 523.681C80.5199 523.439 80.157 523.318 79.7393 523.318C79.2024 523.318 78.7865 523.481 78.4915 523.805C78.1965 524.127 78.049 524.535 78.049 525.028V530H76.8558V524.77C76.8558 524.336 76.715 523.986 76.4332 523.721C76.1515 523.452 75.7886 523.318 75.3445 523.318C75.0395 523.318 74.7545 523.399 74.4893 523.562C74.2275 523.724 74.0154 523.95 73.853 524.238C73.6939 524.523 73.6143 524.853 73.6143 525.227V530H72.4411ZM86.8562 530.179C86.3723 530.179 85.9331 530.088 85.5387 529.906C85.1443 529.72 84.8311 529.453 84.5991 529.105C84.3671 528.754 84.2511 528.33 84.2511 527.832C84.2511 527.395 84.3372 527.04 84.5096 526.768C84.6819 526.493 84.9123 526.278 85.2006 526.122C85.489 525.966 85.8072 525.85 86.1552 525.774C86.5065 525.695 86.8595 525.632 87.2141 525.585C87.6781 525.526 88.0543 525.481 88.3427 525.451C88.6344 525.418 88.8465 525.363 88.979 525.287C89.1149 525.211 89.1829 525.078 89.1829 524.889V524.849C89.1829 524.359 89.0487 523.978 88.7802 523.706C88.515 523.434 88.1123 523.298 87.5721 523.298C87.012 523.298 86.5728 523.421 86.2546 523.666C85.9364 523.911 85.7127 524.173 85.5835 524.452L84.4698 524.054C84.6687 523.59 84.9338 523.229 85.2653 522.97C85.6 522.708 85.9646 522.526 86.359 522.423C86.7567 522.317 87.1478 522.264 87.5323 522.264C87.7776 522.264 88.0593 522.294 88.3775 522.354C88.699 522.41 89.0089 522.528 89.3072 522.707C89.6088 522.886 89.859 523.156 90.0579 523.517C90.2567 523.878 90.3562 524.362 90.3562 524.969V530H89.1829V528.966H89.1232C89.0437 529.132 88.9111 529.309 88.7255 529.498C88.5399 529.687 88.293 529.848 87.9847 529.98C87.6765 530.113 87.3003 530.179 86.8562 530.179ZM87.0352 529.125C87.4992 529.125 87.8903 529.034 88.2085 528.852C88.5299 528.669 88.7719 528.434 88.9343 528.146C89.1 527.857 89.1829 527.554 89.1829 527.236V526.162C89.1332 526.222 89.0238 526.276 88.8548 526.326C88.689 526.372 88.4968 526.414 88.2781 526.45C88.0626 526.483 87.8522 526.513 87.6467 526.54C87.4445 526.563 87.2804 526.583 87.1545 526.599C86.8496 526.639 86.5645 526.704 86.2994 526.793C86.0375 526.879 85.8254 527.01 85.663 527.186C85.5039 527.358 85.4244 527.594 85.4244 527.892C85.4244 528.3 85.5752 528.608 85.8768 528.817C86.1817 529.022 86.5678 529.125 87.0352 529.125ZM92.4977 530V522.364H93.671V530H92.4977ZM93.0943 521.091C92.8656 521.091 92.6684 521.013 92.5027 520.857C92.3403 520.701 92.2591 520.514 92.2591 520.295C92.2591 520.077 92.3403 519.889 92.5027 519.734C92.6684 519.578 92.8656 519.5 93.0943 519.5C93.323 519.5 93.5185 519.578 93.6809 519.734C93.8467 519.889 93.9295 520.077 93.9295 520.295C93.9295 520.514 93.8467 520.701 93.6809 520.857C93.5185 521.013 93.323 521.091 93.0943 521.091ZM96.9933 519.818V530H95.82V519.818H96.9933ZM103.656 530H102.364L106.102 519.818H107.375L111.114 530H109.821L106.779 521.429H106.699L103.656 530ZM104.134 526.023H109.344V527.116H104.134V526.023ZM115.424 530.159C114.788 530.159 114.226 529.998 113.739 529.677C113.252 529.352 112.87 528.895 112.595 528.305C112.32 527.711 112.183 527.01 112.183 526.202C112.183 525.4 112.32 524.704 112.595 524.114C112.87 523.524 113.253 523.068 113.744 522.746C114.234 522.425 114.801 522.264 115.444 522.264C115.941 522.264 116.334 522.347 116.622 522.513C116.914 522.675 117.136 522.861 117.289 523.07C117.444 523.275 117.565 523.444 117.651 523.577H117.751V519.818H118.924V530H117.791V528.827H117.651C117.565 528.966 117.443 529.142 117.284 529.354C117.124 529.562 116.897 529.75 116.602 529.915C116.307 530.078 115.915 530.159 115.424 530.159ZM115.583 529.105C116.054 529.105 116.452 528.982 116.776 528.737C117.101 528.489 117.348 528.146 117.517 527.708C117.686 527.267 117.771 526.759 117.771 526.182C117.771 525.612 117.688 525.113 117.522 524.685C117.356 524.254 117.111 523.92 116.786 523.681C116.462 523.439 116.061 523.318 115.583 523.318C115.086 523.318 114.672 523.446 114.34 523.701C114.012 523.953 113.765 524.296 113.6 524.73C113.437 525.161 113.356 525.645 113.356 526.182C113.356 526.725 113.439 527.219 113.605 527.663C113.774 528.104 114.022 528.455 114.35 528.717C114.682 528.976 115.093 529.105 115.583 529.105ZM124.119 530.159C123.483 530.159 122.921 529.998 122.434 529.677C121.947 529.352 121.566 528.895 121.291 528.305C121.016 527.711 120.878 527.01 120.878 526.202C120.878 525.4 121.016 524.704 121.291 524.114C121.566 523.524 121.949 523.068 122.439 522.746C122.93 522.425 123.496 522.264 124.139 522.264C124.637 522.264 125.029 522.347 125.318 522.513C125.609 522.675 125.831 522.861 125.984 523.07C126.14 523.275 126.261 523.444 126.347 523.577H126.446V519.818H127.619V530H126.486V528.827H126.347C126.261 528.966 126.138 529.142 125.979 529.354C125.82 529.562 125.593 529.75 125.298 529.915C125.003 530.078 124.61 530.159 124.119 530.159ZM124.279 529.105C124.749 529.105 125.147 528.982 125.472 528.737C125.797 528.489 126.044 528.146 126.213 527.708C126.382 527.267 126.466 526.759 126.466 526.182C126.466 525.612 126.383 525.113 126.218 524.685C126.052 524.254 125.807 523.92 125.482 523.681C125.157 523.439 124.756 523.318 124.279 523.318C123.781 523.318 123.367 523.446 123.036 523.701C122.708 523.953 122.461 524.296 122.295 524.73C122.133 525.161 122.051 525.645 122.051 526.182C122.051 526.725 122.134 527.219 122.3 527.663C122.469 528.104 122.718 528.455 123.046 528.717C123.377 528.976 123.788 529.105 124.279 529.105ZM129.931 530V522.364H131.065V523.517H131.144C131.284 523.139 131.535 522.833 131.9 522.597C132.265 522.362 132.676 522.244 133.133 522.244C133.219 522.244 133.327 522.246 133.456 522.249C133.585 522.253 133.683 522.258 133.749 522.264V523.457C133.71 523.447 133.619 523.433 133.476 523.413C133.337 523.389 133.189 523.378 133.034 523.378C132.662 523.378 132.331 523.456 132.039 523.612C131.751 523.764 131.522 523.976 131.353 524.248C131.187 524.516 131.105 524.823 131.105 525.168V530H129.931ZM138.11 530.159C137.374 530.159 136.739 529.997 136.205 529.672C135.675 529.344 135.266 528.886 134.977 528.3C134.692 527.71 134.55 527.024 134.55 526.241C134.55 525.459 134.692 524.77 134.977 524.173C135.266 523.573 135.667 523.106 136.181 522.771C136.698 522.433 137.301 522.264 137.99 522.264C138.388 522.264 138.781 522.33 139.169 522.463C139.556 522.596 139.909 522.811 140.227 523.109C140.546 523.404 140.799 523.795 140.988 524.283C141.177 524.77 141.271 525.37 141.271 526.082V526.58H135.385V525.565H140.078C140.078 525.134 139.992 524.75 139.82 524.412C139.651 524.074 139.409 523.807 139.094 523.612C138.782 523.416 138.414 523.318 137.99 523.318C137.523 523.318 137.119 523.434 136.777 523.666C136.439 523.895 136.179 524.193 135.997 524.561C135.814 524.929 135.723 525.323 135.723 525.744V526.42C135.723 526.997 135.823 527.486 136.021 527.887C136.224 528.285 136.504 528.588 136.862 528.797C137.22 529.002 137.636 529.105 138.11 529.105C138.418 529.105 138.696 529.062 138.945 528.976C139.197 528.886 139.414 528.754 139.596 528.578C139.778 528.399 139.919 528.177 140.019 527.912L141.152 528.23C141.033 528.615 140.832 528.953 140.551 529.244C140.269 529.533 139.921 529.758 139.507 529.92C139.092 530.08 138.627 530.159 138.11 530.159ZM148.465 524.074L147.411 524.372C147.345 524.196 147.247 524.026 147.118 523.86C146.992 523.691 146.82 523.552 146.601 523.442C146.382 523.333 146.102 523.278 145.761 523.278C145.294 523.278 144.904 523.386 144.593 523.602C144.284 523.814 144.13 524.084 144.13 524.412C144.13 524.704 144.236 524.934 144.448 525.103C144.66 525.272 144.992 525.413 145.443 525.526L146.576 525.804C147.259 525.97 147.768 526.223 148.102 526.565C148.437 526.903 148.605 527.339 148.605 527.872C148.605 528.31 148.479 528.701 148.227 529.045C147.978 529.39 147.63 529.662 147.183 529.861C146.735 530.06 146.215 530.159 145.622 530.159C144.843 530.159 144.198 529.99 143.688 529.652C143.177 529.314 142.854 528.82 142.718 528.17L143.832 527.892C143.938 528.303 144.138 528.611 144.433 528.817C144.732 529.022 145.121 529.125 145.602 529.125C146.149 529.125 146.583 529.009 146.904 528.777C147.229 528.542 147.392 528.26 147.392 527.932C147.392 527.667 147.299 527.445 147.113 527.266C146.927 527.083 146.642 526.947 146.258 526.858L144.985 526.56C144.286 526.394 143.772 526.137 143.444 525.789C143.119 525.438 142.957 524.999 142.957 524.472C142.957 524.041 143.078 523.66 143.32 523.328C143.565 522.997 143.898 522.737 144.319 522.548C144.743 522.359 145.224 522.264 145.761 522.264C146.517 522.264 147.11 522.43 147.541 522.761C147.975 523.093 148.283 523.53 148.465 524.074ZM155.78 524.074L154.726 524.372C154.66 524.196 154.562 524.026 154.433 523.86C154.307 523.691 154.134 523.552 153.915 523.442C153.697 523.333 153.417 523.278 153.075 523.278C152.608 523.278 152.219 523.386 151.907 523.602C151.599 523.814 151.445 524.084 151.445 524.412C151.445 524.704 151.551 524.934 151.763 525.103C151.975 525.272 152.306 525.413 152.757 525.526L153.891 525.804C154.573 525.97 155.082 526.223 155.417 526.565C155.752 526.903 155.919 527.339 155.919 527.872C155.919 528.31 155.793 528.701 155.541 529.045C155.293 529.39 154.945 529.662 154.497 529.861C154.05 530.06 153.529 530.159 152.936 530.159C152.157 530.159 151.513 529.99 151.002 529.652C150.492 529.314 150.169 528.82 150.033 528.17L151.146 527.892C151.252 528.303 151.453 528.611 151.748 528.817C152.046 529.022 152.436 529.125 152.916 529.125C153.463 529.125 153.897 529.009 154.219 528.777C154.544 528.542 154.706 528.26 154.706 527.932C154.706 527.667 154.613 527.445 154.428 527.266C154.242 527.083 153.957 526.947 153.572 526.858L152.3 526.56C151.6 526.394 151.087 526.137 150.759 525.789C150.434 525.438 150.271 524.999 150.271 524.472C150.271 524.041 150.392 523.66 150.634 523.328C150.879 522.997 151.213 522.737 151.634 522.548C152.058 522.359 152.538 522.264 153.075 522.264C153.831 522.264 154.424 522.43 154.855 522.761C155.289 523.093 155.598 523.53 155.78 524.074Z" fill="#8F9098"/>
<rect x="47.5" y="565.5" width="326" height="47" rx="11.5" stroke="#C5C6CC"/>
<path d="M64.233 594V583.818H67.6733C68.4721 583.818 69.125 583.962 69.6321 584.251C70.1425 584.536 70.5204 584.922 70.7656 585.409C71.0109 585.896 71.1335 586.44 71.1335 587.04C71.1335 587.64 71.0109 588.185 70.7656 588.675C70.5237 589.166 70.1491 589.557 69.642 589.849C69.1349 590.137 68.4853 590.281 67.6932 590.281H65.2273V589.188H67.6534C68.2003 589.188 68.6394 589.093 68.9709 588.904C69.3023 588.715 69.5426 588.46 69.6918 588.138C69.8442 587.814 69.9205 587.447 69.9205 587.04C69.9205 586.632 69.8442 586.268 69.6918 585.946C69.5426 585.625 69.3007 585.373 68.9659 585.19C68.6312 585.005 68.187 584.912 67.6335 584.912H65.4659V594H64.233ZM75.2077 594.179C74.7238 594.179 74.2847 594.088 73.8903 593.906C73.4959 593.72 73.1826 593.453 72.9506 593.105C72.7186 592.754 72.6026 592.33 72.6026 591.832C72.6026 591.395 72.6888 591.04 72.8612 590.768C73.0335 590.493 73.2638 590.278 73.5522 590.122C73.8406 589.966 74.1587 589.85 74.5067 589.774C74.8581 589.695 75.2111 589.632 75.5657 589.585C76.0297 589.526 76.4059 589.481 76.6942 589.451C76.9859 589.418 77.198 589.363 77.3306 589.287C77.4665 589.211 77.5344 589.078 77.5344 588.889V588.849C77.5344 588.359 77.4002 587.978 77.1317 587.706C76.8666 587.434 76.4639 587.298 75.9237 587.298C75.3635 587.298 74.9244 587.421 74.6062 587.666C74.288 587.911 74.0643 588.173 73.935 588.452L72.8214 588.054C73.0202 587.59 73.2854 587.229 73.6168 586.97C73.9516 586.708 74.3162 586.526 74.7106 586.423C75.1083 586.317 75.4994 586.264 75.8839 586.264C76.1291 586.264 76.4109 586.294 76.729 586.354C77.0505 586.41 77.3604 586.528 77.6587 586.707C77.9603 586.886 78.2106 587.156 78.4094 587.517C78.6083 587.878 78.7077 588.362 78.7077 588.969V594H77.5344V592.966H77.4748C77.3952 593.132 77.2627 593.309 77.0771 593.498C76.8915 593.687 76.6445 593.848 76.3363 593.98C76.0281 594.113 75.6519 594.179 75.2077 594.179ZM75.3867 593.125C75.8507 593.125 76.2418 593.034 76.56 592.852C76.8815 592.669 77.1235 592.434 77.2859 592.146C77.4516 591.857 77.5344 591.554 77.5344 591.236V590.162C77.4847 590.222 77.3754 590.276 77.2063 590.326C77.0406 590.372 76.8484 590.414 76.6296 590.45C76.4142 590.483 76.2037 590.513 75.9982 590.54C75.796 590.563 75.632 590.583 75.506 590.599C75.2011 590.639 74.9161 590.704 74.6509 590.793C74.3891 590.879 74.177 591.01 74.0146 591.186C73.8555 591.358 73.7759 591.594 73.7759 591.892C73.7759 592.3 73.9267 592.608 74.2283 592.817C74.5333 593.022 74.9194 593.125 75.3867 593.125ZM86.2583 588.074L85.2044 588.372C85.1381 588.196 85.0403 588.026 84.911 587.86C84.7851 587.691 84.6127 587.552 84.394 587.442C84.1752 587.333 83.8952 587.278 83.5538 587.278C83.0865 587.278 82.697 587.386 82.3855 587.602C82.0772 587.814 81.9231 588.084 81.9231 588.412C81.9231 588.704 82.0292 588.934 82.2413 589.103C82.4534 589.272 82.7849 589.413 83.2356 589.526L84.3691 589.804C85.0519 589.97 85.5607 590.223 85.8954 590.565C86.2302 590.903 86.3975 591.339 86.3975 591.872C86.3975 592.31 86.2716 592.701 86.0197 593.045C85.7711 593.39 85.4231 593.662 84.9757 593.861C84.5282 594.06 84.0079 594.159 83.4146 594.159C82.6357 594.159 81.9911 593.99 81.4806 593.652C80.9702 593.314 80.6471 592.82 80.5112 592.17L81.6248 591.892C81.7309 592.303 81.9314 592.611 82.2264 592.817C82.5247 593.022 82.9141 593.125 83.3947 593.125C83.9416 593.125 84.3758 593.009 84.6973 592.777C85.0221 592.542 85.1845 592.26 85.1845 591.932C85.1845 591.667 85.0917 591.445 84.9061 591.266C84.7205 591.083 84.4354 590.947 84.051 590.858L82.7782 590.56C82.0789 590.394 81.5652 590.137 81.237 589.789C80.9122 589.438 80.7498 588.999 80.7498 588.472C80.7498 588.041 80.8708 587.66 81.1127 587.328C81.358 586.997 81.6911 586.737 82.112 586.548C82.5363 586.359 83.0169 586.264 83.5538 586.264C84.3095 586.264 84.9028 586.43 85.3336 586.761C85.7678 587.093 86.0761 587.53 86.2583 588.074ZM93.5728 588.074L92.5188 588.372C92.4525 588.196 92.3548 588.026 92.2255 587.86C92.0996 587.691 91.9272 587.552 91.7085 587.442C91.4897 587.333 91.2096 587.278 90.8683 587.278C90.4009 587.278 90.0115 587.386 89.6999 587.602C89.3917 587.814 89.2376 588.084 89.2376 588.412C89.2376 588.704 89.3436 588.934 89.5558 589.103C89.7679 589.272 90.0993 589.413 90.5501 589.526L91.6836 589.804C92.3664 589.97 92.8751 590.223 93.2099 590.565C93.5446 590.903 93.712 591.339 93.712 591.872C93.712 592.31 93.5861 592.701 93.3342 593.045C93.0856 593.39 92.7376 593.662 92.2901 593.861C91.8427 594.06 91.3223 594.159 90.729 594.159C89.9502 594.159 89.3055 593.99 88.7951 593.652C88.2847 593.314 87.9615 592.82 87.8256 592.17L88.9393 591.892C89.0453 592.303 89.2459 592.611 89.5408 592.817C89.8391 593.022 90.2286 593.125 90.7092 593.125C91.256 593.125 91.6902 593.009 92.0117 592.777C92.3365 592.542 92.4989 592.26 92.4989 591.932C92.4989 591.667 92.4061 591.445 92.2205 591.266C92.0349 591.083 91.7499 590.947 91.3654 590.858L90.0927 590.56C89.3933 590.394 88.8796 590.137 88.5515 589.789C88.2267 589.438 88.0643 588.999 88.0643 588.472C88.0643 588.041 88.1853 587.66 88.4272 587.328C88.6725 586.997 89.0056 586.737 89.4265 586.548C89.8507 586.359 90.3313 586.264 90.8683 586.264C91.6239 586.264 92.2172 586.43 92.6481 586.761C93.0823 587.093 93.3905 587.53 93.5728 588.074ZM97.2083 594L94.8816 586.364H96.1145L97.7651 592.21H97.8446L99.4753 586.364H100.728L102.339 592.19H102.419L104.069 586.364H105.302L102.975 594H101.822L100.151 588.134H100.032L98.3617 594H97.2083ZM109.696 594.159C109.006 594.159 108.401 593.995 107.881 593.667C107.364 593.339 106.96 592.88 106.668 592.29C106.38 591.7 106.235 591.01 106.235 590.222C106.235 589.426 106.38 588.732 106.668 588.138C106.96 587.545 107.364 587.085 107.881 586.756C108.401 586.428 109.006 586.264 109.696 586.264C110.385 586.264 110.988 586.428 111.505 586.756C112.026 587.085 112.43 587.545 112.718 588.138C113.01 588.732 113.156 589.426 113.156 590.222C113.156 591.01 113.01 591.7 112.718 592.29C112.43 592.88 112.026 593.339 111.505 593.667C110.988 593.995 110.385 594.159 109.696 594.159ZM109.696 593.105C110.219 593.105 110.65 592.971 110.988 592.702C111.326 592.434 111.577 592.081 111.739 591.643C111.901 591.206 111.983 590.732 111.983 590.222C111.983 589.711 111.901 589.236 111.739 588.795C111.577 588.354 111.326 587.998 110.988 587.726C110.65 587.454 110.219 587.318 109.696 587.318C109.172 587.318 108.741 587.454 108.403 587.726C108.065 587.998 107.815 588.354 107.652 588.795C107.49 589.236 107.409 589.711 107.409 590.222C107.409 590.732 107.49 591.206 107.652 591.643C107.815 592.081 108.065 592.434 108.403 592.702C108.741 592.971 109.172 593.105 109.696 593.105ZM114.947 594V586.364H116.08V587.517H116.16C116.299 587.139 116.551 586.833 116.916 586.597C117.28 586.362 117.691 586.244 118.149 586.244C118.235 586.244 118.343 586.246 118.472 586.249C118.601 586.253 118.699 586.258 118.765 586.264V587.457C118.725 587.447 118.634 587.433 118.492 587.413C118.352 587.389 118.205 587.378 118.049 587.378C117.678 587.378 117.347 587.456 117.055 587.612C116.767 587.764 116.538 587.976 116.369 588.248C116.203 588.516 116.12 588.823 116.12 589.168V594H114.947ZM122.807 594.159C122.171 594.159 121.609 593.998 121.122 593.677C120.634 593.352 120.253 592.895 119.978 592.305C119.703 591.711 119.566 591.01 119.566 590.202C119.566 589.4 119.703 588.704 119.978 588.114C120.253 587.524 120.636 587.068 121.127 586.746C121.617 586.425 122.184 586.264 122.827 586.264C123.324 586.264 123.717 586.347 124.005 586.513C124.297 586.675 124.519 586.861 124.671 587.07C124.827 587.275 124.948 587.444 125.034 587.577H125.134V583.818H126.307V594H125.173V592.827H125.034C124.948 592.966 124.825 593.142 124.666 593.354C124.507 593.562 124.28 593.75 123.985 593.915C123.69 594.078 123.298 594.159 122.807 594.159ZM122.966 593.105C123.437 593.105 123.834 592.982 124.159 592.737C124.484 592.489 124.731 592.146 124.9 591.708C125.069 591.267 125.154 590.759 125.154 590.182C125.154 589.612 125.071 589.113 124.905 588.685C124.739 588.254 124.494 587.92 124.169 587.681C123.844 587.439 123.443 587.318 122.966 587.318C122.469 587.318 122.055 587.446 121.723 587.701C121.395 587.953 121.148 588.296 120.982 588.73C120.82 589.161 120.739 589.645 120.739 590.182C120.739 590.725 120.822 591.219 120.987 591.663C121.156 592.104 121.405 592.455 121.733 592.717C122.065 592.976 122.476 593.105 122.966 593.105Z" fill="#8F9098"/>
<mask id="mask0_1642_4122" style="mask-type:alpha" maskUnits="userSpaceOnUse" x="342" y="582" width="16" height="14">
<path fill-rule="evenodd" clip-rule="evenodd" d="M357.146 583.588C357.472 583.262 357.472 582.735 357.146 582.409C356.821 582.084 356.293 582.084 355.968 582.409L343.968 594.409C343.643 594.735 343.643 595.262 343.968 595.588C344.293 595.913 344.821 595.913 345.147 595.588L346.873 593.861C348.82 594.621 351.049 594.677 353.149 593.851C355.367 592.978 357.127 591.226 358 589C357.43 587.56 356.497 586.33 355.329 585.405L357.146 583.588ZM353.288 587.446L352.143 588.591C352.169 588.725 352.182 588.862 352.182 589C352.182 589.579 351.952 590.134 351.543 590.543C351.134 590.952 350.579 591.182 350 591.182C349.862 591.182 349.725 591.169 349.591 591.143L348.446 592.288C348.927 592.515 349.457 592.637 350 592.637C350.964 592.637 351.889 592.254 352.571 591.572C353.253 590.89 353.636 589.965 353.636 589C353.636 588.458 353.515 587.928 353.288 587.446ZM350 583.546C350.927 583.546 351.829 583.696 352.679 583.976L351.116 585.539C350.758 585.424 350.382 585.364 350 585.364C349.036 585.364 348.111 585.747 347.429 586.429C346.747 587.111 346.364 588.036 346.364 589C346.364 589.383 346.424 589.759 346.539 590.116L344.333 592.322C343.332 591.446 342.52 590.324 342 589C343.295 585.728 346.465 583.546 350 583.546ZM348.457 587.458C348.826 587.089 349.313 586.865 349.83 586.825L347.825 588.83C347.865 588.314 348.088 587.826 348.457 587.458Z" fill="#006FFD"/>
</mask>
<g mask="url(#mask0_1642_4122)">
<rect x="342" y="581" width="16" height="16" fill="#8F9098"/>
</g>
<path d="M47.8608 641V632.273H53.4517V633.598H49.4418V635.967H53.0682V637.293H49.4418V641H47.8608ZM57.1985 641.128C56.5593 641.128 56.0053 640.987 55.5366 640.706C55.0678 640.425 54.7042 640.031 54.4457 639.526C54.19 639.02 54.0621 638.429 54.0621 637.753C54.0621 637.077 54.19 636.484 54.4457 635.976C54.7042 635.467 55.0678 635.072 55.5366 634.791C56.0053 634.51 56.5593 634.369 57.1985 634.369C57.8377 634.369 58.3917 634.51 58.8604 634.791C59.3292 635.072 59.6914 635.467 59.9471 635.976C60.2056 636.484 60.3349 637.077 60.3349 637.753C60.3349 638.429 60.2056 639.02 59.9471 639.526C59.6914 640.031 59.3292 640.425 58.8604 640.706C58.3917 640.987 57.8377 641.128 57.1985 641.128ZM57.207 639.892C57.5536 639.892 57.8434 639.797 58.0763 639.607C58.3093 639.413 58.4826 639.155 58.5962 638.831C58.7127 638.507 58.771 638.146 58.771 637.749C58.771 637.348 58.7127 636.986 58.5962 636.662C58.4826 636.335 58.3093 636.075 58.0763 635.882C57.8434 635.689 57.5536 635.592 57.207 635.592C56.8519 635.592 56.5565 635.689 56.3207 635.882C56.0877 636.075 55.913 636.335 55.7965 636.662C55.6829 636.986 55.6261 637.348 55.6261 637.749C55.6261 638.146 55.6829 638.507 55.7965 638.831C55.913 639.155 56.0877 639.413 56.3207 639.607C56.5565 639.797 56.8519 639.892 57.207 639.892ZM61.6442 641V634.455H63.1399V635.545H63.2081C63.3274 635.168 63.532 634.876 63.8217 634.672C64.1143 634.464 64.4482 634.361 64.8232 634.361C64.9084 634.361 65.0036 634.365 65.1087 634.374C65.2166 634.379 65.3061 634.389 65.3771 634.403V635.822C65.3118 635.8 65.2081 635.78 65.0661 635.763C64.9268 635.743 64.7919 635.733 64.6612 635.733C64.38 635.733 64.1271 635.794 63.9027 635.916C63.6811 636.036 63.5064 636.202 63.3786 636.415C63.2507 636.628 63.1868 636.874 63.1868 637.152V641H61.6442ZM68.979 643.591C68.4251 643.591 67.9492 643.516 67.5515 643.365C67.1538 643.217 66.8342 643.018 66.5927 642.768C66.3512 642.518 66.1836 642.241 66.0898 641.938L67.479 641.601C67.5415 641.729 67.6325 641.855 67.7518 641.98C67.8711 642.108 68.0316 642.213 68.2333 642.295C68.4379 642.381 68.695 642.423 69.0046 642.423C69.4421 642.423 69.8043 642.317 70.0913 642.104C70.3782 641.893 70.5217 641.547 70.5217 641.064V639.824H70.445C70.3654 639.983 70.2489 640.146 70.0955 640.314C69.945 640.482 69.7447 640.622 69.4947 640.736C69.2475 640.849 68.9364 640.906 68.5614 640.906C68.0586 640.906 67.6026 640.788 67.1935 640.553C66.7873 640.314 66.4634 639.959 66.2219 639.487C65.9833 639.013 65.864 638.419 65.864 637.706C65.864 636.987 65.9833 636.381 66.2219 635.886C66.4634 635.389 66.7887 635.013 67.1978 634.757C67.6069 634.499 68.0629 634.369 68.5657 634.369C68.9492 634.369 69.2646 634.435 69.5117 634.565C69.7617 634.693 69.9606 634.848 70.1083 635.03C70.256 635.209 70.3683 635.378 70.445 635.537H70.5302V634.455H72.0515V641.107C72.0515 641.666 71.918 642.129 71.6509 642.496C71.3839 642.862 71.0188 643.136 70.5558 643.318C70.0927 643.5 69.5671 643.591 68.979 643.591ZM68.9918 639.696C69.3185 639.696 69.5969 639.616 69.8271 639.457C70.0572 639.298 70.2319 639.07 70.3512 638.771C70.4705 638.473 70.5302 638.115 70.5302 637.697C70.5302 637.286 70.4705 636.925 70.3512 636.615C70.2347 636.305 70.0614 636.065 69.8313 635.895C69.604 635.722 69.3242 635.635 68.9918 635.635C68.6481 635.635 68.3612 635.724 68.131 635.903C67.9009 636.082 67.7276 636.328 67.6112 636.641C67.4947 636.95 67.4364 637.303 67.4364 637.697C67.4364 638.098 67.4947 638.449 67.6112 638.75C67.7305 639.048 67.9052 639.281 68.1353 639.449C68.3683 639.614 68.6538 639.696 68.9918 639.696ZM76.4876 641.128C75.8484 641.128 75.2944 640.987 74.8256 640.706C74.3569 640.425 73.9933 640.031 73.7347 639.526C73.479 639.02 73.3512 638.429 73.3512 637.753C73.3512 637.077 73.479 636.484 73.7347 635.976C73.9933 635.467 74.3569 635.072 74.8256 634.791C75.2944 634.51 75.8484 634.369 76.4876 634.369C77.1268 634.369 77.6808 634.51 78.1495 634.791C78.6183 635.072 78.9805 635.467 79.2362 635.976C79.4947 636.484 79.6239 637.077 79.6239 637.753C79.6239 638.429 79.4947 639.02 79.2362 639.526C78.9805 640.031 78.6183 640.425 78.1495 640.706C77.6808 640.987 77.1268 641.128 76.4876 641.128ZM76.4961 639.892C76.8427 639.892 77.1325 639.797 77.3654 639.607C77.5984 639.413 77.7717 639.155 77.8853 638.831C78.0018 638.507 78.06 638.146 78.06 637.749C78.06 637.348 78.0018 636.986 77.8853 636.662C77.7717 636.335 77.5984 636.075 77.3654 635.882C77.1325 635.689 76.8427 635.592 76.4961 635.592C76.141 635.592 75.8455 635.689 75.6097 635.882C75.3768 636.075 75.2021 636.335 75.0856 636.662C74.9719 636.986 74.9151 637.348 74.9151 637.749C74.9151 638.146 74.9719 638.507 75.0856 638.831C75.2021 639.155 75.3768 639.413 75.6097 639.607C75.8455 639.797 76.141 639.892 76.4961 639.892ZM84.2017 634.455V635.648H80.4389V634.455H84.2017ZM81.3679 632.886H82.9105V639.031C82.9105 639.239 82.9418 639.398 83.0043 639.509C83.0696 639.616 83.1548 639.69 83.2599 639.73C83.3651 639.77 83.4815 639.79 83.6094 639.79C83.706 639.79 83.794 639.783 83.8736 639.768C83.956 639.754 84.0185 639.741 84.0611 639.73L84.321 640.936C84.2386 640.964 84.1207 640.996 83.9673 641.03C83.8168 641.064 83.6321 641.084 83.4134 641.089C83.027 641.101 82.679 641.043 82.3693 640.915C82.0597 640.784 81.8139 640.582 81.6321 640.31C81.4531 640.037 81.3651 639.696 81.3679 639.287V632.886ZM88.4684 643.455V634.455H89.9854V635.537H90.0749C90.1545 635.378 90.2667 635.209 90.4116 635.03C90.5565 634.848 90.7525 634.693 90.9996 634.565C91.2468 634.435 91.5621 634.369 91.9457 634.369C92.4513 634.369 92.9073 634.499 93.3136 634.757C93.7227 635.013 94.0465 635.392 94.2852 635.895C94.5266 636.395 94.6474 637.009 94.6474 637.736C94.6474 638.455 94.5295 639.065 94.2937 639.568C94.0579 640.071 93.7369 640.455 93.3306 640.719C92.9244 640.983 92.4641 641.115 91.9499 641.115C91.5749 641.115 91.2638 641.053 91.0167 640.928C90.7695 640.803 90.5707 640.652 90.4201 640.476C90.2724 640.297 90.1573 640.128 90.0749 639.969H90.011V643.455H88.4684ZM89.9812 637.727C89.9812 638.151 90.0408 638.521 90.1602 638.839C90.2823 639.158 90.457 639.406 90.6843 639.585C90.9144 639.761 91.1928 639.849 91.5195 639.849C91.8604 639.849 92.146 639.759 92.3761 639.577C92.6062 639.392 92.7795 639.141 92.896 638.822C93.0153 638.501 93.0749 638.136 93.0749 637.727C93.0749 637.321 93.0167 636.96 92.9002 636.645C92.7837 636.33 92.6104 636.082 92.3803 635.903C92.1502 635.724 91.8633 635.635 91.5195 635.635C91.19 635.635 90.9102 635.722 90.68 635.895C90.4499 636.068 90.2752 636.311 90.1559 636.624C90.0394 636.936 89.9812 637.304 89.9812 637.727ZM97.8519 641.132C97.4371 641.132 97.0636 641.058 96.7312 640.911C96.4016 640.76 96.1403 640.538 95.9471 640.246C95.7567 639.953 95.6616 639.592 95.6616 639.163C95.6616 638.794 95.7298 638.489 95.8661 638.247C96.0025 638.006 96.1886 637.812 96.4244 637.668C96.6602 637.523 96.9258 637.413 97.2212 637.339C97.5195 637.263 97.8278 637.207 98.146 637.173C98.5295 637.134 98.8406 637.098 99.0792 637.067C99.3178 637.033 99.4911 636.982 99.5991 636.913C99.7099 636.842 99.7653 636.733 99.7653 636.585V636.56C99.7653 636.239 99.6701 635.99 99.4798 635.814C99.2894 635.638 99.0153 635.55 98.6573 635.55C98.2795 635.55 97.9798 635.632 97.7582 635.797C97.5394 635.962 97.3917 636.156 97.315 636.381L95.8746 636.176C95.9883 635.778 96.1758 635.446 96.4371 635.179C96.6985 634.909 97.0181 634.707 97.396 634.574C97.7738 634.438 98.1914 634.369 98.6488 634.369C98.9641 634.369 99.2781 634.406 99.5906 634.48C99.9031 634.554 100.189 634.676 100.447 634.847C100.706 635.014 100.913 635.243 101.069 635.533C101.228 635.822 101.308 636.185 101.308 636.619V641H99.8249V640.101H99.7738C99.68 640.283 99.5479 640.453 99.3775 640.612C99.2099 640.768 98.9982 640.895 98.7425 640.991C98.4897 641.085 98.1928 641.132 97.8519 641.132ZM98.2525 639.999C98.5621 639.999 98.8306 639.937 99.0579 639.815C99.2852 639.69 99.4599 639.526 99.582 639.321C99.707 639.116 99.7695 638.893 99.7695 638.652V637.881C99.7212 637.92 99.6388 637.957 99.5224 637.991C99.4087 638.026 99.2809 638.055 99.1388 638.081C98.9968 638.107 98.8562 638.129 98.717 638.149C98.5778 638.169 98.457 638.186 98.3548 638.2C98.1246 638.232 97.9187 638.283 97.7369 638.354C97.555 638.425 97.4116 638.524 97.3065 638.652C97.2013 638.777 97.1488 638.939 97.1488 639.138C97.1488 639.422 97.2525 639.636 97.4599 639.781C97.6673 639.926 97.9315 639.999 98.2525 639.999ZM108.032 636.185L106.626 636.338C106.586 636.196 106.517 636.062 106.417 635.938C106.321 635.812 106.19 635.712 106.025 635.635C105.86 635.558 105.659 635.52 105.42 635.52C105.099 635.52 104.829 635.589 104.61 635.729C104.395 635.868 104.288 636.048 104.291 636.27C104.288 636.46 104.358 636.615 104.5 636.734C104.645 636.854 104.883 636.952 105.216 637.028L106.332 637.267C106.951 637.401 107.412 637.612 107.713 637.902C108.017 638.192 108.17 638.571 108.173 639.04C108.17 639.452 108.049 639.815 107.811 640.131C107.575 640.443 107.247 640.687 106.826 640.864C106.406 641.04 105.923 641.128 105.377 641.128C104.576 641.128 103.931 640.96 103.443 640.625C102.954 640.287 102.663 639.817 102.569 639.214L104.074 639.07C104.142 639.365 104.287 639.588 104.508 639.739C104.73 639.889 105.018 639.964 105.373 639.964C105.74 639.964 106.034 639.889 106.255 639.739C106.48 639.588 106.592 639.402 106.592 639.18C106.592 638.993 106.52 638.838 106.375 638.716C106.233 638.594 106.011 638.5 105.71 638.435L104.593 638.2C103.966 638.07 103.501 637.849 103.2 637.54C102.899 637.227 102.75 636.832 102.752 636.355C102.75 635.952 102.859 635.602 103.081 635.307C103.305 635.009 103.616 634.778 104.014 634.616C104.414 634.452 104.876 634.369 105.399 634.369C106.166 634.369 106.77 634.533 107.21 634.859C107.653 635.186 107.927 635.628 108.032 636.185ZM114.618 636.185L113.212 636.338C113.172 636.196 113.103 636.062 113.003 635.938C112.907 635.812 112.776 635.712 112.611 635.635C112.446 635.558 112.245 635.52 112.006 635.52C111.685 635.52 111.415 635.589 111.196 635.729C110.98 635.868 110.874 636.048 110.877 636.27C110.874 636.46 110.944 636.615 111.086 636.734C111.23 636.854 111.469 636.952 111.801 637.028L112.918 637.267C113.537 637.401 113.998 637.612 114.299 637.902C114.603 638.192 114.756 638.571 114.759 639.04C114.756 639.452 114.635 639.815 114.397 640.131C114.161 640.443 113.833 640.687 113.412 640.864C112.992 641.04 112.509 641.128 111.963 641.128C111.162 641.128 110.517 640.96 110.029 640.625C109.54 640.287 109.249 639.817 109.155 639.214L110.659 639.07C110.728 639.365 110.873 639.588 111.094 639.739C111.316 639.889 111.604 639.964 111.959 639.964C112.326 639.964 112.62 639.889 112.841 639.739C113.066 639.588 113.178 639.402 113.178 639.18C113.178 638.993 113.105 638.838 112.961 638.716C112.819 638.594 112.597 638.5 112.296 638.435L111.179 638.2C110.551 638.07 110.087 637.849 109.786 637.54C109.485 637.227 109.336 636.832 109.338 636.355C109.336 635.952 109.445 635.602 109.667 635.307C109.891 635.009 110.202 634.778 110.6 634.616C111 634.452 111.462 634.369 111.985 634.369C112.752 634.369 113.355 634.533 113.796 634.859C114.239 635.186 114.513 635.628 114.618 636.185ZM117.382 641L115.532 634.455H117.105L118.255 639.057H118.315L119.491 634.455H121.047L122.223 639.031H122.287L123.42 634.455H124.997L123.143 641H121.537L120.309 636.577H120.22L118.993 641H117.382ZM128.741 641.128C128.102 641.128 127.548 640.987 127.08 640.706C126.611 640.425 126.247 640.031 125.989 639.526C125.733 639.02 125.605 638.429 125.605 637.753C125.605 637.077 125.733 636.484 125.989 635.976C126.247 635.467 126.611 635.072 127.08 634.791C127.548 634.51 128.102 634.369 128.741 634.369C129.381 634.369 129.935 634.51 130.403 634.791C130.872 635.072 131.234 635.467 131.49 635.976C131.749 636.484 131.878 637.077 131.878 637.753C131.878 638.429 131.749 639.02 131.49 639.526C131.234 640.031 130.872 640.425 130.403 640.706C129.935 640.987 129.381 641.128 128.741 641.128ZM128.75 639.892C129.097 639.892 129.386 639.797 129.619 639.607C129.852 639.413 130.026 639.155 130.139 638.831C130.256 638.507 130.314 638.146 130.314 637.749C130.314 637.348 130.256 636.986 130.139 636.662C130.026 636.335 129.852 636.075 129.619 635.882C129.386 635.689 129.097 635.592 128.75 635.592C128.395 635.592 128.099 635.689 127.864 635.882C127.631 636.075 127.456 636.335 127.339 636.662C127.226 636.986 127.169 637.348 127.169 637.749C127.169 638.146 127.226 638.507 127.339 638.831C127.456 639.155 127.631 639.413 127.864 639.607C128.099 639.797 128.395 639.892 128.75 639.892ZM133.187 641V634.455H134.683V635.545H134.751C134.87 635.168 135.075 634.876 135.365 634.672C135.657 634.464 135.991 634.361 136.366 634.361C136.451 634.361 136.547 634.365 136.652 634.374C136.76 634.379 136.849 634.389 136.92 634.403V635.822C136.855 635.8 136.751 635.78 136.609 635.763C136.47 635.743 136.335 635.733 136.204 635.733C135.923 635.733 135.67 635.794 135.446 635.916C135.224 636.036 135.049 636.202 134.922 636.415C134.794 636.628 134.73 636.874 134.73 637.152V641H133.187ZM140.104 641.115C139.59 641.115 139.13 640.983 138.724 640.719C138.317 640.455 137.996 640.071 137.761 639.568C137.525 639.065 137.407 638.455 137.407 637.736C137.407 637.009 137.526 636.395 137.765 635.895C138.006 635.392 138.332 635.013 138.741 634.757C139.15 634.499 139.606 634.369 140.109 634.369C140.492 634.369 140.808 634.435 141.055 634.565C141.302 634.693 141.498 634.848 141.643 635.03C141.788 635.209 141.9 635.378 141.979 635.537H142.043V632.273H143.59V641H142.073V639.969H141.979C141.9 640.128 141.785 640.297 141.634 640.476C141.484 640.652 141.285 640.803 141.038 640.928C140.79 641.053 140.479 641.115 140.104 641.115ZM140.535 639.849C140.862 639.849 141.14 639.761 141.37 639.585C141.6 639.406 141.775 639.158 141.894 638.839C142.013 638.521 142.073 638.151 142.073 637.727C142.073 637.304 142.013 636.936 141.894 636.624C141.778 636.311 141.604 636.068 141.374 635.895C141.147 635.722 140.867 635.635 140.535 635.635C140.191 635.635 139.904 635.724 139.674 635.903C139.444 636.082 139.271 636.33 139.154 636.645C139.038 636.96 138.979 637.321 138.979 637.727C138.979 638.136 139.038 638.501 139.154 638.822C139.273 639.141 139.448 639.392 139.678 639.577C139.911 639.759 140.197 639.849 140.535 639.849ZM146.708 638.435V638.324C146.711 637.81 146.76 637.401 146.853 637.097C146.95 636.793 147.086 636.548 147.262 636.364C147.439 636.176 147.653 636.004 147.906 635.848C148.079 635.74 148.234 635.622 148.37 635.494C148.51 635.364 148.619 635.219 148.699 635.06C148.778 634.898 148.818 634.717 148.818 634.518C148.818 634.294 148.765 634.099 148.66 633.935C148.555 633.77 148.413 633.642 148.234 633.551C148.058 633.46 147.86 633.415 147.642 633.415C147.44 633.415 147.248 633.459 147.066 633.547C146.887 633.632 146.738 633.763 146.619 633.939C146.502 634.112 146.437 634.332 146.423 634.599H144.906C144.92 634.06 145.051 633.608 145.298 633.244C145.548 632.881 145.877 632.608 146.287 632.426C146.699 632.244 147.153 632.153 147.65 632.153C148.193 632.153 148.67 632.249 149.082 632.439C149.497 632.629 149.819 632.901 150.049 633.253C150.282 633.602 150.399 634.017 150.399 634.497C150.399 634.821 150.346 635.111 150.241 635.366C150.139 635.622 149.993 635.849 149.802 636.048C149.612 636.247 149.386 636.425 149.125 636.581C148.895 636.723 148.706 636.871 148.558 637.024C148.413 637.178 148.305 637.358 148.234 637.565C148.166 637.77 148.13 638.023 148.127 638.324V638.435H146.708ZM147.45 641.094C147.194 641.094 146.974 641.003 146.789 640.821C146.605 640.639 146.512 640.418 146.512 640.156C146.512 639.901 146.605 639.682 146.789 639.5C146.974 639.318 147.194 639.227 147.45 639.227C147.703 639.227 147.922 639.318 148.106 639.5C148.294 639.682 148.387 639.901 148.387 640.156C148.387 640.33 148.343 640.487 148.255 640.629C148.17 640.771 148.056 640.885 147.914 640.97C147.775 641.053 147.62 641.094 147.45 641.094Z" fill="#006FFD"/>
<rect x="47" y="668" width="327" height="48" rx="12" fill="#006FFD"/>
<path d="M194.861 696.5V687.773H196.442V695.175H200.286V696.5H194.861ZM204.445 696.628C203.805 696.628 203.251 696.487 202.783 696.206C202.314 695.925 201.95 695.531 201.692 695.026C201.436 694.52 201.308 693.929 201.308 693.253C201.308 692.577 201.436 691.984 201.692 691.476C201.95 690.967 202.314 690.572 202.783 690.291C203.251 690.01 203.805 689.869 204.445 689.869C205.084 689.869 205.638 690.01 206.107 690.291C206.575 690.572 206.938 690.967 207.193 691.476C207.452 691.984 207.581 692.577 207.581 693.253C207.581 693.929 207.452 694.52 207.193 695.026C206.938 695.531 206.575 695.925 206.107 696.206C205.638 696.487 205.084 696.628 204.445 696.628ZM204.453 695.392C204.8 695.392 205.089 695.297 205.322 695.107C205.555 694.913 205.729 694.655 205.842 694.331C205.959 694.007 206.017 693.646 206.017 693.249C206.017 692.848 205.959 692.486 205.842 692.162C205.729 691.835 205.555 691.575 205.322 691.382C205.089 691.189 204.8 691.092 204.453 691.092C204.098 691.092 203.803 691.189 203.567 691.382C203.334 691.575 203.159 691.835 203.043 692.162C202.929 692.486 202.872 692.848 202.872 693.249C202.872 693.646 202.929 694.007 203.043 694.331C203.159 694.655 203.334 694.913 203.567 695.107C203.803 695.297 204.098 695.392 204.453 695.392ZM211.737 699.091C211.183 699.091 210.707 699.016 210.309 698.865C209.912 698.717 209.592 698.518 209.35 698.268C209.109 698.018 208.941 697.741 208.848 697.438L210.237 697.101C210.299 697.229 210.39 697.355 210.51 697.48C210.629 697.608 210.789 697.713 210.991 697.795C211.196 697.881 211.453 697.923 211.762 697.923C212.2 697.923 212.562 697.817 212.849 697.604C213.136 697.393 213.279 697.047 213.279 696.564V695.324H213.203C213.123 695.483 213.007 695.646 212.853 695.814C212.703 695.982 212.502 696.122 212.252 696.236C212.005 696.349 211.694 696.406 211.319 696.406C210.816 696.406 210.36 696.288 209.951 696.053C209.545 695.814 209.221 695.459 208.98 694.987C208.741 694.513 208.622 693.919 208.622 693.206C208.622 692.487 208.741 691.881 208.98 691.386C209.221 690.889 209.547 690.513 209.956 690.257C210.365 689.999 210.821 689.869 211.324 689.869C211.707 689.869 212.022 689.935 212.27 690.065C212.52 690.193 212.718 690.348 212.866 690.53C213.014 690.709 213.126 690.878 213.203 691.037H213.288V689.955H214.809V696.607C214.809 697.166 214.676 697.629 214.409 697.996C214.142 698.362 213.777 698.636 213.314 698.818C212.85 699 212.325 699.091 211.737 699.091ZM211.75 695.196C212.076 695.196 212.355 695.116 212.585 694.957C212.815 694.798 212.99 694.57 213.109 694.271C213.228 693.973 213.288 693.615 213.288 693.197C213.288 692.786 213.228 692.425 213.109 692.115C212.993 691.805 212.819 691.565 212.589 691.395C212.362 691.222 212.082 691.135 211.75 691.135C211.406 691.135 211.119 691.224 210.889 691.403C210.659 691.582 210.485 691.828 210.369 692.141C210.252 692.45 210.194 692.803 210.194 693.197C210.194 693.598 210.252 693.949 210.369 694.25C210.488 694.548 210.663 694.781 210.893 694.949C211.126 695.114 211.412 695.196 211.75 695.196ZM216.39 696.5V689.955H217.933V696.5H216.39ZM217.166 689.026C216.922 689.026 216.711 688.945 216.535 688.783C216.359 688.618 216.271 688.42 216.271 688.19C216.271 687.957 216.359 687.76 216.535 687.598C216.711 687.433 216.922 687.351 217.166 687.351C217.413 687.351 217.623 687.433 217.797 687.598C217.973 687.76 218.061 687.957 218.061 688.19C218.061 688.42 217.973 688.618 217.797 688.783C217.623 688.945 217.413 689.026 217.166 689.026ZM221.062 692.665V696.5H219.519V689.955H220.994V691.067H221.07C221.221 690.7 221.461 690.409 221.79 690.193C222.123 689.977 222.533 689.869 223.022 689.869C223.474 689.869 223.867 689.966 224.202 690.159C224.54 690.352 224.802 690.632 224.987 690.999C225.174 691.365 225.266 691.81 225.263 692.332V696.5H223.721V692.571C223.721 692.134 223.607 691.791 223.38 691.544C223.156 691.297 222.844 691.173 222.447 691.173C222.177 691.173 221.937 691.233 221.727 691.352C221.519 691.469 221.356 691.638 221.237 691.859C221.12 692.081 221.062 692.349 221.062 692.665Z" fill="white"/>
<path d="M134.84 735.273V744H133.817L129.061 737.148H128.976V744H127.919V735.273H128.942L133.715 742.142H133.8V735.273H134.84ZM139.597 744.136C139.006 744.136 138.488 743.996 138.042 743.714C137.599 743.433 137.252 743.04 137.002 742.534C136.755 742.028 136.631 741.437 136.631 740.761C136.631 740.08 136.755 739.484 137.002 738.976C137.252 738.467 137.599 738.072 138.042 737.791C138.488 737.51 139.006 737.369 139.597 737.369C140.188 737.369 140.705 737.51 141.148 737.791C141.594 738.072 141.941 738.467 142.188 738.976C142.438 739.484 142.563 740.08 142.563 740.761C142.563 741.437 142.438 742.028 142.188 742.534C141.941 743.04 141.594 743.433 141.148 743.714C140.705 743.996 140.188 744.136 139.597 744.136ZM139.597 743.233C140.046 743.233 140.415 743.118 140.705 742.888C140.995 742.658 141.209 742.355 141.349 741.98C141.488 741.605 141.558 741.199 141.558 740.761C141.558 740.324 141.488 739.916 141.349 739.538C141.209 739.161 140.995 738.855 140.705 738.622C140.415 738.389 140.046 738.273 139.597 738.273C139.148 738.273 138.779 738.389 138.489 738.622C138.2 738.855 137.985 739.161 137.846 739.538C137.707 739.916 137.637 740.324 137.637 740.761C137.637 741.199 137.707 741.605 137.846 741.98C137.985 742.355 138.2 742.658 138.489 742.888C138.779 743.118 139.148 743.233 139.597 743.233ZM147.065 737.455V738.307H143.673V737.455H147.065ZM144.662 735.886H145.667V742.125C145.667 742.409 145.708 742.622 145.791 742.764C145.876 742.903 145.984 742.997 146.115 743.045C146.248 743.091 146.389 743.114 146.537 743.114C146.647 743.114 146.738 743.108 146.809 743.097C146.88 743.082 146.937 743.071 146.98 743.062L147.184 743.966C147.116 743.991 147.021 744.017 146.899 744.043C146.777 744.071 146.622 744.085 146.434 744.085C146.15 744.085 145.872 744.024 145.599 743.902C145.329 743.78 145.105 743.594 144.926 743.344C144.75 743.094 144.662 742.778 144.662 742.398V735.886ZM154.119 744.153C153.704 744.153 153.328 744.075 152.99 743.919C152.652 743.76 152.383 743.531 152.184 743.233C151.985 742.932 151.886 742.568 151.886 742.142C151.886 741.767 151.96 741.463 152.107 741.23C152.255 740.994 152.453 740.81 152.7 740.676C152.947 740.543 153.22 740.443 153.518 740.378C153.819 740.31 154.122 740.256 154.426 740.216C154.823 740.165 155.146 740.126 155.393 740.101C155.643 740.072 155.825 740.026 155.938 739.96C156.055 739.895 156.113 739.781 156.113 739.619V739.585C156.113 739.165 155.998 738.838 155.768 738.605C155.541 738.372 155.196 738.256 154.732 738.256C154.252 738.256 153.876 738.361 153.603 738.571C153.331 738.781 153.139 739.006 153.028 739.244L152.073 738.903C152.244 738.506 152.471 738.196 152.755 737.974C153.042 737.75 153.355 737.594 153.693 737.506C154.034 737.415 154.369 737.369 154.698 737.369C154.909 737.369 155.15 737.395 155.423 737.446C155.698 737.494 155.964 737.595 156.22 737.749C156.478 737.902 156.693 738.134 156.863 738.443C157.034 738.753 157.119 739.168 157.119 739.688V744H156.113V743.114H156.062C155.994 743.256 155.88 743.408 155.721 743.57C155.562 743.732 155.35 743.869 155.086 743.983C154.822 744.097 154.5 744.153 154.119 744.153ZM154.272 743.25C154.67 743.25 155.005 743.172 155.278 743.016C155.554 742.859 155.761 742.658 155.9 742.411C156.042 742.163 156.113 741.903 156.113 741.631V740.71C156.071 740.761 155.977 740.808 155.832 740.851C155.69 740.891 155.525 740.926 155.338 740.957C155.153 740.986 154.973 741.011 154.796 741.034C154.623 741.054 154.482 741.071 154.375 741.085C154.113 741.119 153.869 741.175 153.642 741.251C153.417 741.325 153.235 741.437 153.096 741.588C152.96 741.736 152.892 741.937 152.892 742.193C152.892 742.543 153.021 742.807 153.279 742.986C153.541 743.162 153.872 743.25 154.272 743.25ZM162.569 744V737.455H163.541V738.477H163.626C163.763 738.128 163.983 737.857 164.287 737.663C164.591 737.467 164.956 737.369 165.382 737.369C165.814 737.369 166.173 737.467 166.46 737.663C166.75 737.857 166.976 738.128 167.138 738.477H167.206C167.373 738.139 167.625 737.871 167.96 737.672C168.295 737.47 168.697 737.369 169.166 737.369C169.751 737.369 170.23 737.553 170.602 737.919C170.974 738.283 171.16 738.849 171.16 739.619V744H170.155V739.619C170.155 739.136 170.023 738.791 169.758 738.584C169.494 738.376 169.183 738.273 168.825 738.273C168.365 738.273 168.008 738.412 167.756 738.69C167.503 738.966 167.376 739.315 167.376 739.739V744H166.354V739.517C166.354 739.145 166.233 738.845 165.991 738.618C165.75 738.388 165.439 738.273 165.058 738.273C164.797 738.273 164.552 738.342 164.325 738.482C164.101 738.621 163.919 738.814 163.78 739.061C163.643 739.305 163.575 739.588 163.575 739.909V744H162.569ZM175.863 744.136C175.233 744.136 174.689 743.997 174.231 743.719C173.777 743.438 173.426 743.045 173.179 742.543C172.934 742.037 172.812 741.449 172.812 740.778C172.812 740.108 172.934 739.517 173.179 739.006C173.426 738.491 173.77 738.091 174.21 737.804C174.653 737.514 175.17 737.369 175.761 737.369C176.102 737.369 176.439 737.426 176.771 737.54C177.103 737.653 177.406 737.838 177.679 738.094C177.952 738.347 178.169 738.682 178.331 739.099C178.493 739.517 178.574 740.031 178.574 740.642V741.068H173.528V740.199H177.551C177.551 739.83 177.477 739.5 177.329 739.21C177.184 738.92 176.977 738.692 176.707 738.524C176.44 738.357 176.125 738.273 175.761 738.273C175.361 738.273 175.014 738.372 174.721 738.571C174.432 738.767 174.209 739.023 174.052 739.338C173.896 739.653 173.818 739.991 173.818 740.352V740.932C173.818 741.426 173.903 741.845 174.074 742.189C174.247 742.53 174.487 742.79 174.794 742.969C175.101 743.145 175.457 743.233 175.863 743.233C176.128 743.233 176.366 743.196 176.579 743.122C176.795 743.045 176.981 742.932 177.138 742.781C177.294 742.628 177.415 742.437 177.5 742.21L178.471 742.483C178.369 742.812 178.197 743.102 177.956 743.352C177.714 743.599 177.416 743.793 177.061 743.932C176.706 744.068 176.307 744.136 175.863 744.136ZM180.223 744V737.455H181.195V738.477H181.28C181.417 738.128 181.637 737.857 181.941 737.663C182.245 737.467 182.61 737.369 183.036 737.369C183.468 737.369 183.827 737.467 184.114 737.663C184.404 737.857 184.63 738.128 184.792 738.477H184.86C185.027 738.139 185.279 737.871 185.614 737.672C185.949 737.47 186.351 737.369 186.82 737.369C187.405 737.369 187.884 737.553 188.256 737.919C188.628 738.283 188.814 738.849 188.814 739.619V744H187.809V739.619C187.809 739.136 187.677 738.791 187.412 738.584C187.148 738.376 186.837 738.273 186.479 738.273C186.019 738.273 185.662 738.412 185.41 738.69C185.157 738.966 185.03 739.315 185.03 739.739V744H184.008V739.517C184.008 739.145 183.887 738.845 183.645 738.618C183.404 738.388 183.093 738.273 182.712 738.273C182.451 738.273 182.206 738.342 181.979 738.482C181.755 738.621 181.573 738.814 181.434 739.061C181.297 739.305 181.229 739.588 181.229 739.909V744H180.223ZM190.91 744V735.273H191.915V738.494H192C192.074 738.381 192.177 738.236 192.307 738.06C192.441 737.881 192.631 737.722 192.878 737.582C193.128 737.44 193.466 737.369 193.893 737.369C194.444 737.369 194.929 737.507 195.35 737.783C195.77 738.058 196.098 738.449 196.334 738.955C196.57 739.46 196.688 740.057 196.688 740.744C196.688 741.438 196.57 742.038 196.334 742.547C196.098 743.053 195.772 743.445 195.354 743.723C194.937 743.999 194.455 744.136 193.91 744.136C193.489 744.136 193.152 744.067 192.9 743.928C192.647 743.786 192.452 743.625 192.316 743.446C192.179 743.264 192.074 743.114 192 742.994H191.881V744H190.91ZM191.898 740.727C191.898 741.222 191.971 741.658 192.116 742.036C192.26 742.411 192.472 742.705 192.75 742.918C193.029 743.128 193.37 743.233 193.773 743.233C194.194 743.233 194.544 743.122 194.826 742.901C195.11 742.676 195.323 742.375 195.465 741.997C195.61 741.616 195.682 741.193 195.682 740.727C195.682 740.267 195.611 739.852 195.469 739.483C195.33 739.111 195.118 738.817 194.834 738.601C194.553 738.382 194.199 738.273 193.773 738.273C193.364 738.273 193.02 738.376 192.742 738.584C192.464 738.788 192.253 739.075 192.111 739.445C191.969 739.811 191.898 740.239 191.898 740.727ZM201.091 744.136C200.46 744.136 199.916 743.997 199.459 743.719C199.004 743.438 198.653 743.045 198.406 742.543C198.162 742.037 198.039 741.449 198.039 740.778C198.039 740.108 198.162 739.517 198.406 739.006C198.653 738.491 198.997 738.091 199.437 737.804C199.88 737.514 200.397 737.369 200.988 737.369C201.329 737.369 201.666 737.426 201.998 737.54C202.331 737.653 202.633 737.838 202.906 738.094C203.179 738.347 203.396 738.682 203.558 739.099C203.72 739.517 203.801 740.031 203.801 740.642V741.068H198.755V740.199H202.778C202.778 739.83 202.704 739.5 202.557 739.21C202.412 738.92 202.204 738.692 201.934 738.524C201.667 738.357 201.352 738.273 200.988 738.273C200.588 738.273 200.241 738.372 199.949 738.571C199.659 738.767 199.436 739.023 199.28 739.338C199.123 739.653 199.045 739.991 199.045 740.352V740.932C199.045 741.426 199.13 741.845 199.301 742.189C199.474 742.53 199.714 742.79 200.021 742.969C200.328 743.145 200.684 743.233 201.091 743.233C201.355 743.233 201.593 743.196 201.807 743.122C202.022 743.045 202.209 742.932 202.365 742.781C202.521 742.628 202.642 742.437 202.727 742.21L203.699 742.483C203.596 742.812 203.424 743.102 203.183 743.352C202.941 743.599 202.643 743.793 202.288 743.932C201.933 744.068 201.534 744.136 201.091 744.136ZM205.451 744V737.455H206.422V738.443H206.49C206.61 738.119 206.826 737.857 207.138 737.655C207.451 737.453 207.803 737.352 208.195 737.352C208.269 737.352 208.361 737.354 208.472 737.357C208.583 737.359 208.667 737.364 208.723 737.369V738.392C208.689 738.384 208.611 738.371 208.489 738.354C208.37 738.334 208.243 738.324 208.11 738.324C207.792 738.324 207.508 738.391 207.258 738.524C207.01 738.655 206.814 738.837 206.669 739.07C206.527 739.3 206.456 739.562 206.456 739.858V744H205.451ZM211.348 741.545V741.494C211.354 740.952 211.411 740.52 211.518 740.199C211.626 739.878 211.78 739.618 211.979 739.419C212.178 739.22 212.416 739.037 212.695 738.869C212.862 738.767 213.013 738.646 213.146 738.507C213.28 738.365 213.385 738.202 213.462 738.017C213.541 737.832 213.581 737.628 213.581 737.403C213.581 737.125 213.516 736.884 213.385 736.679C213.254 736.474 213.08 736.317 212.861 736.206C212.642 736.095 212.399 736.04 212.132 736.04C211.899 736.04 211.675 736.088 211.459 736.185C211.243 736.281 211.063 736.433 210.918 736.641C210.773 736.848 210.689 737.119 210.666 737.455H209.592C209.615 736.972 209.74 736.558 209.967 736.214C210.197 735.871 210.5 735.608 210.875 735.426C211.253 735.244 211.672 735.153 212.132 735.153C212.632 735.153 213.067 735.253 213.436 735.452C213.808 735.651 214.095 735.923 214.297 736.27C214.501 736.616 214.604 737.011 214.604 737.455C214.604 737.767 214.555 738.05 214.459 738.303C214.365 738.555 214.229 738.781 214.05 738.98C213.874 739.179 213.661 739.355 213.411 739.509C213.161 739.665 212.96 739.83 212.81 740.003C212.659 740.173 212.55 740.376 212.482 740.612C212.413 740.848 212.376 741.142 212.371 741.494V741.545H211.348ZM211.893 744.068C211.683 744.068 211.503 743.993 211.352 743.842C211.202 743.692 211.126 743.511 211.126 743.301C211.126 743.091 211.202 742.911 211.352 742.76C211.503 742.609 211.683 742.534 211.893 742.534C212.104 742.534 212.284 742.609 212.435 742.76C212.585 742.911 212.661 743.091 212.661 743.301C212.661 743.44 212.625 743.568 212.554 743.685C212.486 743.801 212.393 743.895 212.277 743.966C212.163 744.034 212.036 744.068 211.893 744.068Z" fill="#71727A"/>
<path d="M219.154 744V735.273H222.427C223.098 735.273 223.66 735.389 224.115 735.622C224.572 735.855 224.917 736.182 225.15 736.602C225.386 737.02 225.504 737.507 225.504 738.064C225.504 738.624 225.385 739.109 225.146 739.521C224.91 739.93 224.562 740.247 224.102 740.472C223.642 740.693 223.076 740.804 222.406 740.804H220.075V739.491H222.193C222.585 739.491 222.906 739.437 223.156 739.33C223.406 739.219 223.591 739.058 223.71 738.848C223.832 738.635 223.893 738.374 223.893 738.064C223.893 737.754 223.832 737.49 223.71 737.271C223.588 737.05 223.402 736.882 223.152 736.768C222.902 736.652 222.579 736.594 222.184 736.594H220.735V744H219.154ZM223.663 740.045L225.824 744H224.059L221.937 740.045H223.663ZM229.695 744.128C229.039 744.128 228.472 743.991 227.995 743.719C227.52 743.443 227.155 743.054 226.899 742.551C226.644 742.045 226.516 741.45 226.516 740.766C226.516 740.092 226.644 739.501 226.899 738.993C227.158 738.482 227.519 738.084 227.982 737.8C228.445 737.513 228.989 737.369 229.614 737.369C230.017 737.369 230.398 737.435 230.756 737.565C231.117 737.693 231.435 737.892 231.711 738.162C231.989 738.432 232.208 738.776 232.367 739.193C232.526 739.608 232.605 740.102 232.605 740.676V741.149H227.24V740.109H231.127C231.124 739.814 231.06 739.551 230.935 739.321C230.81 739.088 230.635 738.905 230.411 738.771C230.189 738.638 229.931 738.571 229.635 738.571C229.32 738.571 229.043 738.648 228.804 738.801C228.566 738.952 228.38 739.151 228.246 739.398C228.115 739.642 228.049 739.911 228.046 740.203V741.111C228.046 741.491 228.115 741.818 228.255 742.091C228.394 742.361 228.588 742.568 228.838 742.713C229.088 742.855 229.381 742.926 229.716 742.926C229.941 742.926 230.144 742.895 230.326 742.832C230.507 742.767 230.665 742.672 230.799 742.547C230.932 742.422 231.033 742.267 231.101 742.082L232.542 742.244C232.451 742.625 232.277 742.957 232.022 743.241C231.769 743.523 231.445 743.741 231.05 743.898C230.655 744.051 230.203 744.128 229.695 744.128ZM236.757 746.591C236.203 746.591 235.727 746.516 235.33 746.365C234.932 746.217 234.612 746.018 234.371 745.768C234.129 745.518 233.962 745.241 233.868 744.938L235.257 744.601C235.32 744.729 235.411 744.855 235.53 744.98C235.649 745.108 235.81 745.213 236.011 745.295C236.216 745.381 236.473 745.423 236.783 745.423C237.22 745.423 237.582 745.317 237.869 745.104C238.156 744.893 238.3 744.547 238.3 744.064V742.824H238.223C238.143 742.983 238.027 743.146 237.874 743.314C237.723 743.482 237.523 743.622 237.273 743.736C237.026 743.849 236.714 743.906 236.339 743.906C235.837 743.906 235.381 743.788 234.972 743.553C234.565 743.314 234.241 742.959 234 742.487C233.761 742.013 233.642 741.419 233.642 740.706C233.642 739.987 233.761 739.381 234 738.886C234.241 738.389 234.567 738.013 234.976 737.757C235.385 737.499 235.841 737.369 236.344 737.369C236.727 737.369 237.043 737.435 237.29 737.565C237.54 737.693 237.739 737.848 237.886 738.03C238.034 738.209 238.146 738.378 238.223 738.537H238.308V737.455H239.83V744.107C239.83 744.666 239.696 745.129 239.429 745.496C239.162 745.862 238.797 746.136 238.334 746.318C237.871 746.5 237.345 746.591 236.757 746.591ZM236.77 742.696C237.097 742.696 237.375 742.616 237.605 742.457C237.835 742.298 238.01 742.07 238.129 741.771C238.249 741.473 238.308 741.115 238.308 740.697C238.308 740.286 238.249 739.925 238.129 739.615C238.013 739.305 237.839 739.065 237.609 738.895C237.382 738.722 237.102 738.635 236.77 738.635C236.426 738.635 236.139 738.724 235.909 738.903C235.679 739.082 235.506 739.328 235.389 739.641C235.273 739.95 235.214 740.303 235.214 740.697C235.214 741.098 235.273 741.449 235.389 741.75C235.509 742.048 235.683 742.281 235.913 742.449C236.146 742.614 236.432 742.696 236.77 742.696ZM241.411 744V737.455H242.953V744H241.411ZM242.186 736.526C241.942 736.526 241.732 736.445 241.555 736.283C241.379 736.118 241.291 735.92 241.291 735.69C241.291 735.457 241.379 735.26 241.555 735.098C241.732 734.933 241.942 734.851 242.186 734.851C242.433 734.851 242.643 734.933 242.817 735.098C242.993 735.26 243.081 735.457 243.081 735.69C243.081 735.92 242.993 736.118 242.817 736.283C242.643 736.445 242.433 736.526 242.186 736.526ZM249.713 739.185L248.306 739.338C248.267 739.196 248.197 739.062 248.098 738.938C248.001 738.812 247.87 738.712 247.706 738.635C247.541 738.558 247.339 738.52 247.1 738.52C246.779 738.52 246.51 738.589 246.291 738.729C246.075 738.868 245.968 739.048 245.971 739.27C245.968 739.46 246.038 739.615 246.18 739.734C246.325 739.854 246.564 739.952 246.896 740.028L248.012 740.267C248.632 740.401 249.092 740.612 249.393 740.902C249.697 741.192 249.85 741.571 249.853 742.04C249.85 742.452 249.73 742.815 249.491 743.131C249.255 743.443 248.927 743.687 248.507 743.864C248.086 744.04 247.603 744.128 247.058 744.128C246.257 744.128 245.612 743.96 245.123 743.625C244.635 743.287 244.343 742.817 244.25 742.214L245.754 742.07C245.822 742.365 245.967 742.588 246.189 742.739C246.41 742.889 246.699 742.964 247.054 742.964C247.42 742.964 247.714 742.889 247.936 742.739C248.16 742.588 248.272 742.402 248.272 742.18C248.272 741.993 248.2 741.838 248.055 741.716C247.913 741.594 247.691 741.5 247.39 741.435L246.274 741.2C245.646 741.07 245.181 740.849 244.88 740.54C244.579 740.227 244.43 739.832 244.433 739.355C244.43 738.952 244.539 738.602 244.761 738.307C244.985 738.009 245.297 737.778 245.694 737.616C246.095 737.452 246.556 737.369 247.079 737.369C247.846 737.369 248.45 737.533 248.89 737.859C249.333 738.186 249.608 738.628 249.713 739.185ZM254.394 737.455V738.648H250.631V737.455H254.394ZM251.56 735.886H253.103V742.031C253.103 742.239 253.134 742.398 253.196 742.509C253.262 742.616 253.347 742.69 253.452 742.73C253.557 742.77 253.674 742.79 253.801 742.79C253.898 742.79 253.986 742.783 254.066 742.768C254.148 742.754 254.211 742.741 254.253 742.73L254.513 743.936C254.431 743.964 254.313 743.996 254.159 744.03C254.009 744.064 253.824 744.084 253.605 744.089C253.219 744.101 252.871 744.043 252.561 743.915C252.252 743.784 252.006 743.582 251.824 743.31C251.645 743.037 251.557 742.696 251.56 742.287V735.886ZM258.511 744.128C257.855 744.128 257.288 743.991 256.811 743.719C256.337 743.443 255.972 743.054 255.716 742.551C255.46 742.045 255.332 741.45 255.332 740.766C255.332 740.092 255.46 739.501 255.716 738.993C255.974 738.482 256.335 738.084 256.798 737.8C257.261 737.513 257.805 737.369 258.43 737.369C258.834 737.369 259.214 737.435 259.572 737.565C259.933 737.693 260.251 737.892 260.527 738.162C260.805 738.432 261.024 738.776 261.183 739.193C261.342 739.608 261.422 740.102 261.422 740.676V741.149H256.057V740.109H259.943C259.94 739.814 259.876 739.551 259.751 739.321C259.626 739.088 259.452 738.905 259.227 738.771C259.006 738.638 258.747 738.571 258.452 738.571C258.136 738.571 257.859 738.648 257.621 738.801C257.382 738.952 257.196 739.151 257.062 739.398C256.932 739.642 256.865 739.911 256.862 740.203V741.111C256.862 741.491 256.932 741.818 257.071 742.091C257.21 742.361 257.405 742.568 257.655 742.713C257.905 742.855 258.197 742.926 258.533 742.926C258.757 742.926 258.96 742.895 259.142 742.832C259.324 742.767 259.482 742.672 259.615 742.547C259.749 742.422 259.849 742.267 259.918 742.082L261.358 742.244C261.267 742.625 261.094 742.957 260.838 743.241C260.585 743.523 260.261 743.741 259.866 743.898C259.472 744.051 259.02 744.128 258.511 744.128ZM262.727 744V737.455H264.223V738.545H264.291C264.41 738.168 264.615 737.876 264.904 737.672C265.197 737.464 265.531 737.361 265.906 737.361C265.991 737.361 266.086 737.365 266.191 737.374C266.299 737.379 266.389 737.389 266.46 737.403V738.822C266.395 738.8 266.291 738.78 266.149 738.763C266.01 738.743 265.875 738.733 265.744 738.733C265.463 738.733 265.21 738.794 264.985 738.916C264.764 739.036 264.589 739.202 264.461 739.415C264.333 739.628 264.27 739.874 264.27 740.152V744H262.727ZM272.004 740.165V744H270.461V737.455H271.936V738.567H272.012C272.163 738.2 272.403 737.909 272.733 737.693C273.065 737.477 273.475 737.369 273.964 737.369C274.416 737.369 274.809 737.466 275.145 737.659C275.483 737.852 275.744 738.132 275.929 738.499C276.116 738.865 276.208 739.31 276.206 739.832V744H274.663V740.071C274.663 739.634 274.549 739.291 274.322 739.044C274.098 738.797 273.787 738.673 273.389 738.673C273.119 738.673 272.879 738.733 272.669 738.852C272.461 738.969 272.298 739.138 272.179 739.359C272.062 739.581 272.004 739.849 272.004 740.165ZM280.629 744.128C279.99 744.128 279.436 743.987 278.967 743.706C278.498 743.425 278.135 743.031 277.876 742.526C277.62 742.02 277.493 741.429 277.493 740.753C277.493 740.077 277.62 739.484 277.876 738.976C278.135 738.467 278.498 738.072 278.967 737.791C279.436 737.51 279.99 737.369 280.629 737.369C281.268 737.369 281.822 737.51 282.291 737.791C282.76 738.072 283.122 738.467 283.377 738.976C283.636 739.484 283.765 740.077 283.765 740.753C283.765 741.429 283.636 742.02 283.377 742.526C283.122 743.031 282.76 743.425 282.291 743.706C281.822 743.987 281.268 744.128 280.629 744.128ZM280.637 742.892C280.984 742.892 281.274 742.797 281.507 742.607C281.74 742.413 281.913 742.155 282.027 741.831C282.143 741.507 282.201 741.146 282.201 740.749C282.201 740.348 282.143 739.986 282.027 739.662C281.913 739.335 281.74 739.075 281.507 738.882C281.274 738.689 280.984 738.592 280.637 738.592C280.282 738.592 279.987 738.689 279.751 738.882C279.518 739.075 279.343 739.335 279.227 739.662C279.113 739.986 279.056 740.348 279.056 740.749C279.056 741.146 279.113 741.507 279.227 741.831C279.343 742.155 279.518 742.413 279.751 742.607C279.987 742.797 280.282 742.892 280.637 742.892ZM286.238 744L284.388 737.455H285.961L287.111 742.057H287.171L288.347 737.455H289.903L291.079 742.031H291.143L292.276 737.455H293.853L291.999 744H290.393L289.165 739.577H289.076L287.849 744H286.238Z" fill="#006FFD"/>
<path d="M47 772H374" stroke="#D4D6DD" stroke-width="0.5" stroke-linecap="round"/>
<path d="M171.216 803.636C171.216 804.557 171.05 805.352 170.717 806.023C170.385 806.693 169.929 807.21 169.349 807.574C168.77 807.938 168.108 808.119 167.363 808.119C166.619 808.119 165.957 807.938 165.378 807.574C164.798 807.21 164.342 806.693 164.01 806.023C163.677 805.352 163.511 804.557 163.511 803.636C163.511 802.716 163.677 801.92 164.01 801.25C164.342 800.58 164.798 800.062 165.378 799.699C165.957 799.335 166.619 799.153 167.363 799.153C168.108 799.153 168.77 799.335 169.349 799.699C169.929 800.062 170.385 800.58 170.717 801.25C171.05 801.92 171.216 802.716 171.216 803.636ZM170.193 803.636C170.193 802.881 170.067 802.243 169.814 801.723C169.564 801.203 169.224 800.81 168.795 800.543C168.369 800.276 167.892 800.142 167.363 800.142C166.835 800.142 166.356 800.276 165.927 800.543C165.501 800.81 165.162 801.203 164.909 801.723C164.659 802.243 164.534 802.881 164.534 803.636C164.534 804.392 164.659 805.03 164.909 805.55C165.162 806.07 165.501 806.463 165.927 806.73C166.356 806.997 166.835 807.131 167.363 807.131C167.892 807.131 168.369 806.997 168.795 806.73C169.224 806.463 169.564 806.07 169.814 805.55C170.067 805.03 170.193 804.392 170.193 803.636ZM172.976 808V801.455H173.948V802.443H174.016C174.135 802.119 174.351 801.857 174.664 801.655C174.976 801.453 175.329 801.352 175.721 801.352C175.795 801.352 175.887 801.354 175.998 801.357C176.108 801.359 176.192 801.364 176.249 801.369V802.392C176.215 802.384 176.137 802.371 176.015 802.354C175.895 802.334 175.769 802.324 175.635 802.324C175.317 802.324 175.033 802.391 174.783 802.524C174.536 802.655 174.34 802.837 174.195 803.07C174.053 803.3 173.982 803.562 173.982 803.858V808H172.976ZM183.715 808.136C183.102 808.136 182.573 807.991 182.13 807.702C181.687 807.412 181.346 807.013 181.107 806.504C180.869 805.996 180.749 805.415 180.749 804.761C180.749 804.097 180.872 803.51 181.116 803.001C181.363 802.49 181.707 802.091 182.147 801.804C182.59 801.514 183.107 801.369 183.698 801.369C184.159 801.369 184.573 801.455 184.943 801.625C185.312 801.795 185.614 802.034 185.85 802.341C186.086 802.648 186.232 803.006 186.289 803.415H185.284C185.207 803.116 185.036 802.852 184.772 802.622C184.511 802.389 184.159 802.273 183.715 802.273C183.323 802.273 182.98 802.375 182.684 802.58C182.391 802.781 182.163 803.067 181.998 803.436C181.836 803.803 181.755 804.233 181.755 804.727C181.755 805.233 181.835 805.673 181.994 806.048C182.156 806.423 182.383 806.714 182.676 806.922C182.971 807.129 183.318 807.233 183.715 807.233C183.977 807.233 184.214 807.188 184.427 807.097C184.64 807.006 184.82 806.875 184.968 806.705C185.116 806.534 185.221 806.33 185.284 806.091H186.289C186.232 806.477 186.092 806.825 185.867 807.135C185.646 807.442 185.352 807.686 184.985 807.868C184.622 808.047 184.198 808.136 183.715 808.136ZM190.538 808.136C189.948 808.136 189.429 807.996 188.983 807.714C188.54 807.433 188.193 807.04 187.943 806.534C187.696 806.028 187.573 805.437 187.573 804.761C187.573 804.08 187.696 803.484 187.943 802.976C188.193 802.467 188.54 802.072 188.983 801.791C189.429 801.51 189.948 801.369 190.538 801.369C191.129 801.369 191.646 801.51 192.09 801.791C192.536 802.072 192.882 802.467 193.129 802.976C193.379 803.484 193.504 804.08 193.504 804.761C193.504 805.437 193.379 806.028 193.129 806.534C192.882 807.04 192.536 807.433 192.09 807.714C191.646 807.996 191.129 808.136 190.538 808.136ZM190.538 807.233C190.987 807.233 191.357 807.118 191.646 806.888C191.936 806.658 192.151 806.355 192.29 805.98C192.429 805.605 192.499 805.199 192.499 804.761C192.499 804.324 192.429 803.916 192.29 803.538C192.151 803.161 191.936 802.855 191.646 802.622C191.357 802.389 190.987 802.273 190.538 802.273C190.09 802.273 189.72 802.389 189.43 802.622C189.141 802.855 188.926 803.161 188.787 803.538C188.648 803.916 188.578 804.324 188.578 804.761C188.578 805.199 188.648 805.605 188.787 805.98C188.926 806.355 189.141 806.658 189.43 806.888C189.72 807.118 190.09 807.233 190.538 807.233ZM196.165 804.062V808H195.16V801.455H196.131V802.477H196.216C196.37 802.145 196.603 801.878 196.915 801.676C197.228 801.472 197.631 801.369 198.125 801.369C198.569 801.369 198.956 801.46 199.289 801.642C199.621 801.821 199.88 802.094 200.064 802.46C200.249 802.824 200.341 803.284 200.341 803.841V808H199.336V803.909C199.336 803.395 199.202 802.994 198.935 802.707C198.668 802.418 198.302 802.273 197.836 802.273C197.515 802.273 197.228 802.342 196.975 802.482C196.725 802.621 196.527 802.824 196.383 803.091C196.238 803.358 196.165 803.682 196.165 804.062ZM205.146 801.455V802.307H201.754V801.455H205.146ZM202.742 799.886H203.748V806.125C203.748 806.409 203.789 806.622 203.871 806.764C203.957 806.903 204.065 806.997 204.195 807.045C204.329 807.091 204.47 807.114 204.617 807.114C204.728 807.114 204.819 807.108 204.89 807.097C204.961 807.082 205.018 807.071 205.06 807.062L205.265 807.966C205.197 807.991 205.102 808.017 204.979 808.043C204.857 808.071 204.702 808.085 204.515 808.085C204.231 808.085 203.952 808.024 203.68 807.902C203.41 807.78 203.185 807.594 203.006 807.344C202.83 807.094 202.742 806.778 202.742 806.398V799.886ZM206.778 808V801.455H207.784V808H206.778ZM207.29 800.364C207.094 800.364 206.925 800.297 206.783 800.163C206.643 800.03 206.574 799.869 206.574 799.682C206.574 799.494 206.643 799.334 206.783 799.2C206.925 799.067 207.094 799 207.29 799C207.486 799 207.653 799.067 207.793 799.2C207.935 799.334 208.006 799.494 208.006 799.682C208.006 799.869 207.935 800.03 207.793 800.163C207.653 800.297 207.486 800.364 207.29 800.364ZM210.752 804.062V808H209.746V801.455H210.718V802.477H210.803C210.956 802.145 211.189 801.878 211.502 801.676C211.814 801.472 212.218 801.369 212.712 801.369C213.155 801.369 213.543 801.46 213.875 801.642C214.208 801.821 214.466 802.094 214.651 802.46C214.836 802.824 214.928 803.284 214.928 803.841V808H213.922V803.909C213.922 803.395 213.789 802.994 213.522 802.707C213.255 802.418 212.888 802.273 212.422 802.273C212.101 802.273 211.814 802.342 211.561 802.482C211.311 802.621 211.114 802.824 210.969 803.091C210.824 803.358 210.752 803.682 210.752 804.062ZM221.011 805.324V801.455H222.016V808H221.011V806.892H220.942C220.789 807.224 220.55 807.507 220.227 807.74C219.903 807.97 219.494 808.085 218.999 808.085C218.59 808.085 218.227 807.996 217.908 807.817C217.59 807.635 217.34 807.362 217.158 806.999C216.977 806.632 216.886 806.17 216.886 805.614V801.455H217.891V805.545C217.891 806.023 218.025 806.403 218.292 806.688C218.562 806.972 218.905 807.114 219.323 807.114C219.573 807.114 219.827 807.05 220.086 806.922C220.347 806.794 220.566 806.598 220.742 806.334C220.921 806.07 221.011 805.733 221.011 805.324ZM226.723 808.136C226.092 808.136 225.548 807.997 225.09 807.719C224.636 807.438 224.285 807.045 224.038 806.543C223.794 806.037 223.671 805.449 223.671 804.778C223.671 804.108 223.794 803.517 224.038 803.006C224.285 802.491 224.629 802.091 225.069 801.804C225.512 801.514 226.029 801.369 226.62 801.369C226.961 801.369 227.298 801.426 227.63 801.54C227.963 801.653 228.265 801.838 228.538 802.094C228.811 802.347 229.028 802.682 229.19 803.099C229.352 803.517 229.433 804.031 229.433 804.642V805.068H224.387V804.199H228.41C228.41 803.83 228.336 803.5 228.188 803.21C228.044 802.92 227.836 802.692 227.566 802.524C227.299 802.357 226.984 802.273 226.62 802.273C226.22 802.273 225.873 802.372 225.581 802.571C225.291 802.767 225.068 803.023 224.912 803.338C224.755 803.653 224.677 803.991 224.677 804.352V804.932C224.677 805.426 224.762 805.845 224.933 806.189C225.106 806.53 225.346 806.79 225.653 806.969C225.96 807.145 226.316 807.233 226.723 807.233C226.987 807.233 227.225 807.196 227.438 807.122C227.654 807.045 227.84 806.932 227.997 806.781C228.153 806.628 228.274 806.437 228.359 806.21L229.331 806.483C229.228 806.812 229.056 807.102 228.815 807.352C228.573 807.599 228.275 807.793 227.92 807.932C227.565 808.068 227.166 808.136 226.723 808.136ZM236.061 808L234.066 801.455H235.123L236.538 806.466H236.606L238.004 801.455H239.078L240.458 806.449H240.527L241.941 801.455H242.998L241.004 808H240.015L238.583 802.972H238.481L237.049 808H236.061ZM244.448 808V801.455H245.453V808H244.448ZM244.959 800.364C244.763 800.364 244.594 800.297 244.452 800.163C244.313 800.03 244.243 799.869 244.243 799.682C244.243 799.494 244.313 799.334 244.452 799.2C244.594 799.067 244.763 799 244.959 799C245.155 799 245.323 799.067 245.462 799.2C245.604 799.334 245.675 799.494 245.675 799.682C245.675 799.869 245.604 800.03 245.462 800.163C245.323 800.297 245.155 800.364 244.959 800.364ZM250.262 801.455V802.307H246.87V801.455H250.262ZM247.858 799.886H248.864V806.125C248.864 806.409 248.905 806.622 248.988 806.764C249.073 806.903 249.181 806.997 249.312 807.045C249.445 807.091 249.586 807.114 249.733 807.114C249.844 807.114 249.935 807.108 250.006 807.097C250.077 807.082 250.134 807.071 250.177 807.062L250.381 807.966C250.313 807.991 250.218 808.017 250.096 808.043C249.974 808.071 249.819 808.085 249.631 808.085C249.347 808.085 249.069 808.024 248.796 807.902C248.526 807.78 248.302 807.594 248.123 807.344C247.947 807.094 247.858 806.778 247.858 806.398V799.886ZM253.041 804.062V808H252.035V799.273H253.041V802.477H253.126C253.28 802.139 253.51 801.871 253.817 801.672C254.126 801.47 254.538 801.369 255.052 801.369C255.498 801.369 255.889 801.459 256.224 801.638C256.559 801.814 256.819 802.085 257.004 802.452C257.192 802.815 257.285 803.278 257.285 803.841V808H256.28V803.909C256.28 803.389 256.145 802.987 255.875 802.703C255.608 802.416 255.237 802.273 254.763 802.273C254.433 802.273 254.138 802.342 253.876 802.482C253.618 802.621 253.413 802.824 253.263 803.091C253.115 803.358 253.041 803.682 253.041 804.062Z" fill="#71727A"/>
<rect x="138.5" y="828" width="40" height="40" rx="20" fill="#ED3241"/>
<mask id="mask1_1642_4122" style="mask-type:alpha" maskUnits="userSpaceOnUse" x="153" y="842" width="11" height="12">
<path d="M163.783 846.969C163.851 847.337 163.889 847.722 163.889 848.123C163.889 851.266 161.786 853.5 158.609 853.5C157.887 853.5 157.172 853.358 156.504 853.082C155.837 852.805 155.231 852.4 154.72 851.89C154.209 851.379 153.804 850.772 153.528 850.105C153.251 849.438 153.109 848.722 153.109 848C153.109 847.278 153.251 846.562 153.528 845.895C153.804 845.228 154.209 844.621 154.72 844.11C155.231 843.6 155.837 843.195 156.504 842.918C157.172 842.642 157.887 842.5 158.609 842.5C160.094 842.5 161.335 843.046 162.287 843.934L160.737 845.484V845.48C160.16 844.93 159.427 844.648 158.609 844.648C156.795 844.648 155.32 846.181 155.32 847.997C155.32 849.811 156.795 851.348 158.609 851.348C160.256 851.348 161.377 850.406 161.607 849.114H158.609V846.969H163.783H163.783Z" fill="white"/>
</mask>
<g mask="url(#mask1_1642_4122)">
<rect x="152.5" y="842" width="12" height="12" fill="white"/>
</g>
<rect x="190.5" y="828" width="40" height="40" rx="20" fill="#1F2024"/>
<mask id="mask2_1642_4122" style="mask-type:alpha" maskUnits="userSpaceOnUse" x="205" y="842" width="11" height="12">
<path d="M212.886 842.006C212.861 841.978 211.942 842.017 211.143 842.885C210.343 843.752 210.466 844.747 210.484 844.772C210.502 844.798 211.624 844.837 212.34 843.829C213.057 842.82 212.912 842.035 212.886 842.006ZM215.372 850.806C215.336 850.734 213.628 849.88 213.787 848.239C213.946 846.598 215.043 846.148 215.061 846.099C215.078 846.05 214.613 845.506 214.12 845.231C213.758 845.037 213.358 844.926 212.948 844.906C212.867 844.903 212.586 844.834 212.007 844.993C211.626 845.097 210.768 845.434 210.531 845.448C210.294 845.461 209.589 845.056 208.831 844.949C208.346 844.855 207.831 845.047 207.463 845.195C207.096 845.342 206.397 845.761 205.908 846.873C205.419 847.984 205.674 849.745 205.857 850.293C206.04 850.84 206.326 851.736 206.812 852.39C207.244 853.128 207.817 853.64 208.056 853.814C208.296 853.988 208.971 854.104 209.439 853.864C209.815 853.633 210.495 853.501 210.763 853.51C211.031 853.52 211.559 853.626 212.1 853.915C212.528 854.062 212.933 854.001 213.339 853.836C213.744 853.67 214.332 853.042 215.017 851.767C215.277 851.175 215.396 850.855 215.372 850.806Z" fill="white"/>
<path d="M212.886 842.006C212.861 841.978 211.942 842.017 211.143 842.885C210.343 843.752 210.466 844.747 210.484 844.772C210.502 844.798 211.624 844.837 212.34 843.829C213.057 842.82 212.912 842.035 212.886 842.006ZM215.372 850.806C215.336 850.734 213.628 849.88 213.787 848.239C213.946 846.598 215.043 846.148 215.061 846.099C215.078 846.05 214.613 845.506 214.12 845.231C213.758 845.037 213.358 844.926 212.948 844.906C212.867 844.903 212.586 844.834 212.007 844.993C211.626 845.097 210.768 845.434 210.531 845.448C210.294 845.461 209.589 845.056 208.831 844.949C208.346 844.855 207.831 845.047 207.463 845.195C207.096 845.342 206.397 845.761 205.908 846.873C205.419 847.984 205.674 849.745 205.857 850.293C206.04 850.84 206.326 851.736 206.812 852.39C207.244 853.128 207.817 853.64 208.056 853.814C208.296 853.988 208.971 854.104 209.439 853.864C209.815 853.633 210.495 853.501 210.763 853.51C211.031 853.52 211.559 853.626 212.1 853.915C212.528 854.062 212.933 854.001 213.339 853.836C213.744 853.67 214.332 853.042 215.017 851.767C215.277 851.175 215.396 850.855 215.372 850.806Z" fill="white"/>
</mask>
<g mask="url(#mask2_1642_4122)">
<rect x="204.5" y="842" width="12" height="12" fill="white"/>
</g>
<rect x="242.5" y="828" width="40" height="40" rx="20" fill="#006FFD"/>
<mask id="mask3_1642_4122" style="mask-type:alpha" maskUnits="userSpaceOnUse" x="259" y="842" width="7" height="12">
<path d="M261.075 854V848.369H259.586V846.342H261.075V844.61C261.075 843.25 261.954 842 263.981 842C264.801 842 265.408 842.079 265.408 842.079L265.36 843.972C265.36 843.972 264.742 843.966 264.066 843.966C263.335 843.966 263.218 844.303 263.218 844.862V846.342H265.418L265.323 848.369H263.218V854H261.075Z" fill="white"/>
</mask>
<g mask="url(#mask3_1642_4122)">
<rect x="256.5" y="842" width="12" height="12" fill="white"/>
</g>
<rect width="428" height="398" fill="#EAF2FF"/>
<mask id="mask4_1642_4122" style="mask-type:alpha" maskUnits="userSpaceOnUse" x="198" y="185" width="32" height="28">
<path d="M209.462 194.622C209.462 196.463 208.029 197.955 206.262 197.955C204.495 197.955 203.062 196.463 203.062 194.622C203.062 192.781 204.495 191.289 206.262 191.289C208.029 191.289 209.462 192.781 209.462 194.622Z" fill="#B4DBFF"/>
<path fill-rule="evenodd" clip-rule="evenodd" d="M198 189.001C198 187.16 199.433 185.667 201.2 185.667H226.799C228.566 185.667 229.999 187.16 229.999 189.001V209C229.999 210.841 228.566 212.333 226.799 212.333H224.687C224.68 212.333 224.673 212.333 224.666 212.333H201.929C201.923 212.333 201.917 212.333 201.911 212.333H201.2C199.433 212.333 198 210.841 198 209V189.001ZM201.2 188.167H226.799C227.241 188.167 227.599 188.54 227.599 189.001V199.387L220.647 192.334L208.819 204.333L205.335 200.799L200.4 205.805V189.001C200.4 188.54 200.758 188.167 201.2 188.167Z" fill="#B4DBFF"/>
</mask>
<g mask="url(#mask4_1642_4122)">
<rect x="198" y="183" width="31.9987" height="31.9987" fill="#B4DBFF"/>
</g>
<g filter="url(#filter0_b_1642_4122)">
<path d="M39.1434 16.9418C39.6654 16.9453 40.1732 17.0376 40.6668 17.2188C41.164 17.3963 41.6114 17.6875 42.0092 18.0923C42.4069 18.4936 42.723 19.0316 42.9573 19.7063C43.1917 20.381 43.3089 21.2156 43.3089 22.2099C43.3124 23.1474 43.213 23.9854 43.0106 24.7241C42.8117 25.4592 42.5259 26.0806 42.153 26.5884C41.7801 27.0962 41.3309 27.4833 40.8053 27.7496C40.2798 28.016 39.6885 28.1491 39.0315 28.1491C38.3426 28.1491 37.7318 28.0142 37.1992 27.7443C36.67 27.4744 36.2421 27.1051 35.9154 26.6364C35.5887 26.1676 35.3881 25.6314 35.3135 25.0277H37.2578C37.3572 25.4609 37.5596 25.8054 37.865 26.0611C38.1739 26.3132 38.5628 26.4393 39.0315 26.4393C39.7879 26.4393 40.3703 26.1108 40.7787 25.4538C41.1871 24.7969 41.3913 23.8842 41.3913 22.7159H41.3167C41.1427 23.0284 40.9172 23.2983 40.6402 23.5256C40.3632 23.7493 40.0489 23.9215 39.6974 24.0423C39.3494 24.163 38.9801 24.2234 38.5894 24.2234C37.9502 24.2234 37.3749 24.0707 36.8636 23.7653C36.3558 23.4599 35.9527 23.0408 35.6544 22.5082C35.3597 21.9755 35.2105 21.3665 35.207 20.6811C35.207 19.9709 35.3703 19.3335 35.697 18.7688C36.0273 18.2006 36.4872 17.7532 37.0766 17.4265C37.6661 17.0962 38.3551 16.9347 39.1434 16.9418ZM39.1487 18.5398C38.7652 18.5398 38.419 18.6339 38.11 18.8221C37.8046 19.0067 37.5632 19.2589 37.3856 19.5785C37.2116 19.8945 37.1246 20.2479 37.1246 20.6385C37.1281 21.0256 37.2151 21.3771 37.3856 21.6932C37.5596 22.0092 37.7958 22.2596 38.094 22.4442C38.3959 22.6289 38.7404 22.7212 39.1274 22.7212C39.4151 22.7212 39.6832 22.6662 39.9318 22.5561C40.1803 22.446 40.397 22.2933 40.5816 22.098C40.7698 21.8991 40.9154 21.6737 41.0184 21.4215C41.1249 21.1694 41.1764 20.9031 41.1729 20.6225C41.1729 20.2496 41.0841 19.9052 40.9065 19.5891C40.7325 19.2731 40.4928 19.0192 40.1874 18.8274C39.8856 18.6357 39.5394 18.5398 39.1487 18.5398ZM46.1268 26.6896C45.8037 26.6896 45.5267 26.576 45.2959 26.3487C45.0651 26.1179 44.9514 25.8409 44.955 25.5178C44.9514 25.1982 45.0651 24.9247 45.2959 24.6974C45.5267 24.4702 45.8037 24.3565 46.1268 24.3565C46.4393 24.3565 46.711 24.4702 46.9418 24.6974C47.1762 24.9247 47.2952 25.1982 47.2987 25.5178C47.2952 25.7344 47.2384 25.9315 47.1283 26.109C47.0217 26.2866 46.8797 26.4286 46.7021 26.5352C46.5281 26.6381 46.3364 26.6896 46.1268 26.6896ZM46.1268 21.283C45.8037 21.283 45.5267 21.1694 45.2959 20.9421C45.0651 20.7113 44.9514 20.4343 44.955 20.1112C44.9514 19.7915 45.0651 19.5181 45.2959 19.2908C45.5267 19.06 45.8037 18.9446 46.1268 18.9446C46.4393 18.9446 46.711 19.06 46.9418 19.2908C47.1762 19.5181 47.2952 19.7915 47.2987 20.1112C47.2952 20.3242 47.2384 20.5195 47.1283 20.6971C47.0217 20.8746 46.8797 21.0167 46.7021 21.1232C46.5281 21.2298 46.3364 21.283 46.1268 21.283ZM48.9062 25.9759V24.4045L53.5351 17.0909H54.8455V19.3281H54.0465L50.9303 24.266V24.3512H57.3916V25.9759H48.9062ZM54.1104 28V25.4964L54.1317 24.7933V17.0909H55.996V28H54.1104ZM63.2192 17.0909V28H61.243V19.0138H61.179L58.6275 20.6438V18.8327L61.3388 17.0909H63.2192Z" fill="#1F2024"/>
<g clip-path="url(#clip1_1642_4122)">
<path fill-rule="evenodd" clip-rule="evenodd" d="M360.623 18.566C360.6 18.6819 360.6 18.8213 360.6 19.1001V26.8001C360.6 27.0789 360.6 27.2183 360.623 27.3342C360.718 27.8102 361.09 28.1824 361.566 28.277C361.682 28.3001 361.821 28.3001 362.1 28.3001C362.379 28.3001 362.518 28.3001 362.634 28.277C363.11 28.1824 363.482 27.8102 363.577 27.3342C363.6 27.2183 363.6 27.0789 363.6 26.8001V19.1001C363.6 18.8213 363.6 18.6819 363.577 18.566C363.482 18.09 363.11 17.7178 362.634 17.6232C362.518 17.6001 362.379 17.6001 362.1 17.6001C361.821 17.6001 361.682 17.6001 361.566 17.6232C361.09 17.7178 360.718 18.09 360.623 18.566ZM355.9 21.5001C355.9 21.2213 355.9 21.0819 355.923 20.966C356.018 20.49 356.39 20.1178 356.866 20.0232C356.982 20.0001 357.121 20.0001 357.4 20.0001C357.679 20.0001 357.818 20.0001 357.934 20.0232C358.41 20.1178 358.782 20.49 358.877 20.966C358.9 21.0819 358.9 21.2213 358.9 21.5001V26.8001C358.9 27.0789 358.9 27.2183 358.877 27.3342C358.782 27.8102 358.41 28.1824 357.934 28.277C357.818 28.3001 357.679 28.3001 357.4 28.3001C357.121 28.3001 356.982 28.3001 356.866 28.277C356.39 28.1824 356.018 27.8102 355.923 27.3342C355.9 27.2183 355.9 27.0789 355.9 26.8001V21.5001ZM351.323 23.266C351.3 23.3819 351.3 23.5213 351.3 23.8001V26.8001C351.3 27.0789 351.3 27.2183 351.323 27.3342C351.418 27.8102 351.79 28.1824 352.266 28.277C352.382 28.3001 352.521 28.3001 352.8 28.3001C353.079 28.3001 353.218 28.3001 353.334 28.277C353.81 28.1824 354.182 27.8102 354.277 27.3342C354.3 27.2183 354.3 27.0789 354.3 26.8001V23.8001C354.3 23.5213 354.3 23.3819 354.277 23.266C354.182 22.79 353.81 22.4178 353.334 22.3232C353.218 22.3001 353.079 22.3001 352.8 22.3001C352.521 22.3001 352.382 22.3001 352.266 22.3232C351.79 22.4178 351.418 22.79 351.323 23.266ZM346.523 25.266C346.5 25.3819 346.5 25.5213 346.5 25.8001V26.8001C346.5 27.0789 346.5 27.2183 346.523 27.3342C346.618 27.8102 346.99 28.1824 347.466 28.277C347.582 28.3001 347.721 28.3001 348 28.3001C348.279 28.3001 348.418 28.3001 348.534 28.277C349.01 28.1824 349.382 27.8102 349.477 27.3342C349.5 27.2183 349.5 27.0789 349.5 26.8001V25.8001C349.5 25.5213 349.5 25.3819 349.477 25.266C349.382 24.79 349.01 24.4178 348.534 24.3232C348.418 24.3001 348.279 24.3001 348 24.3001C347.721 24.3001 347.582 24.3001 347.466 24.3232C346.99 24.4178 346.618 24.79 346.523 25.266Z" fill="#1F2024"/>
</g>
</g>
</g>
<defs>
<filter id="filter0_b_1642_4122" x="-40" y="-40" width="508" height="124" filterUnits="userSpaceOnUse" color-interpolation-filters="sRGB">
<feFlood flood-opacity="0" result="BackgroundImageFix"/>
<feGaussianBlur in="BackgroundImageFix" stdDeviation="20"/>
<feComposite in2="SourceAlpha" operator="in" result="effect1_backgroundBlur_1642_4122"/>
<feBlend mode="normal" in="SourceGraphic" in2="effect1_backgroundBlur_1642_4122" result="shape"/>
</filter>
<clipPath id="clip0_1642_4122">
<rect width="428" height="926" rx="40" fill="white"/>
</clipPath>
<clipPath id="clip1_1642_4122">
<rect width="68" height="14" fill="white" transform="translate(346 16)"/>
</clipPath>
</defs>
</svg>
