<svg width="375" height="812" viewBox="0 0 375 812" fill="none" xmlns="http://www.w3.org/2000/svg">
<g clip-path="url(#clip0_1_261)">
<path d="M375 0H0V812H375V0Z" fill="#8F00FF"/>
<path d="M30 103H346C353.956 103 361.587 106.161 367.213 111.787C372.839 117.413 376 125.044 376 133V812H0V133C0 125.044 3.16071 117.413 8.7868 111.787C14.4129 106.161 22.0435 103 30 103V103Z" fill="white"/>
<path d="M307 724H68C50.3269 724 36 738.327 36 756C36 773.673 50.3269 788 68 788H307C324.673 788 339 773.673 339 756C339 738.327 324.673 724 307 724Z" fill="black"/>
<path d="M136.704 762H138.624L134.64 750.864H132.528L128.544 762H130.448L131.248 759.728H135.904L136.704 762ZM135.392 758.24H131.76L133.584 753.072L135.392 758.24ZM139.748 757.552C139.748 760.272 141.588 762.144 143.908 762.144C145.348 762.144 146.404 761.472 146.964 760.672V762H148.804V750.16H146.964V754.416C146.292 753.584 145.076 753.04 143.924 753.04C141.588 753.04 139.748 754.832 139.748 757.552ZM146.964 757.584C146.964 759.488 145.668 760.56 144.292 760.56C142.932 760.56 141.62 759.456 141.62 757.552C141.62 755.648 142.932 754.624 144.292 754.624C145.668 754.624 146.964 755.696 146.964 757.584ZM150.592 757.552C150.592 760.272 152.432 762.144 154.752 762.144C156.192 762.144 157.248 761.472 157.808 760.672V762H159.648V750.16H157.808V754.416C157.136 753.584 155.92 753.04 154.768 753.04C152.432 753.04 150.592 754.832 150.592 757.552ZM157.808 757.584C157.808 759.488 156.512 760.56 155.136 760.56C153.776 760.56 152.464 759.456 152.464 757.552C152.464 755.648 153.776 754.624 155.136 754.624C156.512 754.624 157.808 755.696 157.808 757.584ZM173.512 750.864V759.152L168.024 750.864H166.2V762H168.024V753.696L173.512 762H175.336V750.864H173.512ZM181.443 754.576C182.803 754.576 183.875 755.44 183.907 756.8H179.027C179.219 755.408 180.211 754.576 181.443 754.576ZM185.571 759.376H183.603C183.267 760.064 182.643 760.608 181.523 760.608C180.179 760.608 179.139 759.728 179.011 758.272H185.747C185.795 757.968 185.811 757.68 185.811 757.376C185.811 754.784 184.035 753.04 181.523 753.04C178.915 753.04 177.123 754.816 177.123 757.584C177.123 760.352 178.995 762.144 181.523 762.144C183.683 762.144 185.075 760.912 185.571 759.376ZM189.318 762H191.238L193.014 755.488L194.79 762H196.71L199.446 753.184H197.654L195.83 760.24L194.038 753.184H192.134L190.262 760.272L188.422 753.184H186.566L189.318 762ZM204.966 762H206.79V754.384L210.198 762H211.462L214.854 754.384V762H216.678V750.88H214.726L210.838 759.6L206.934 750.88H204.966V762ZM222.787 754.576C224.147 754.576 225.219 755.44 225.251 756.8H220.371C220.563 755.408 221.555 754.576 222.787 754.576ZM226.915 759.376H224.947C224.611 760.064 223.987 760.608 222.867 760.608C221.523 760.608 220.483 759.728 220.355 758.272H227.091C227.139 757.968 227.155 757.68 227.155 757.376C227.155 754.784 225.379 753.04 222.867 753.04C220.259 753.04 218.467 754.816 218.467 757.584C218.467 760.352 220.339 762.144 222.867 762.144C225.027 762.144 226.419 760.912 226.915 759.376ZM229.238 759.552C229.238 761.344 230.214 762 231.782 762H233.222V760.48H232.102C231.334 760.48 231.078 760.208 231.078 759.552V754.672H233.222V753.184H231.078V750.992H229.238V753.184H228.198V754.672H229.238V759.552ZM234.903 762H236.727V757.072C236.727 755.456 237.607 754.624 238.951 754.624C240.279 754.624 241.159 755.456 241.159 757.072V762H242.967V756.8C242.967 754.336 241.431 753.04 239.463 753.04C238.327 753.04 237.335 753.472 236.727 754.208V750.16H234.903V762ZM253.694 757.584C253.694 754.816 251.71 753.04 249.198 753.04C246.686 753.04 244.702 754.816 244.702 757.584C244.702 760.352 246.606 762.144 249.118 762.144C251.646 762.144 253.694 760.352 253.694 757.584ZM246.558 757.584C246.558 755.584 247.79 754.624 249.166 754.624C250.526 754.624 251.822 755.584 251.822 757.584C251.822 759.584 250.478 760.56 249.118 760.56C247.742 760.56 246.558 759.584 246.558 757.584ZM254.889 757.552C254.889 760.272 256.729 762.144 259.049 762.144C260.489 762.144 261.545 761.472 262.105 760.672V762H263.945V750.16H262.105V754.416C261.433 753.584 260.217 753.04 259.065 753.04C256.729 753.04 254.889 754.832 254.889 757.552ZM262.105 757.584C262.105 759.488 260.809 760.56 259.433 760.56C258.073 760.56 256.761 759.456 256.761 757.552C256.761 755.648 258.073 754.624 259.433 754.624C260.809 754.624 262.105 755.696 262.105 757.584Z" fill="white"/>
<g filter="url(#filter0_d_1_261)">
<path d="M90 756C90 743.85 80.1503 734 68 734C55.8497 734 46 743.85 46 756C46 768.15 55.8497 778 68 778C80.1503 778 90 768.15 90 756Z" fill="white"/>
</g>
<path d="M75 755H69V749C69 748.735 68.8946 748.48 68.7071 748.293C68.5196 748.105 68.2652 748 68 748C67.7348 748 67.4804 748.105 67.2929 748.293C67.1054 748.48 67 748.735 67 749V755H61C60.7348 755 60.4804 755.105 60.2929 755.293C60.1054 755.48 60 755.735 60 756C60 756.265 60.1054 756.52 60.2929 756.707C60.4804 756.895 60.7348 757 61 757H67V763C67 763.265 67.1054 763.52 67.2929 763.707C67.4804 763.895 67.7348 764 68 764C68.2652 764 68.5196 763.895 68.7071 763.707C68.8946 763.52 69 763.265 69 763V757H75C75.2652 757 75.5196 756.895 75.7071 756.707C75.8946 756.52 76 756.265 76 756C76 755.735 75.8946 755.48 75.7071 755.293C75.5196 755.105 75.2652 755 75 755Z" fill="black"/>
<path d="M36.63 148.7C36.63 152.462 39.384 155.108 43.002 155.108C45.792 155.108 48.06 153.632 48.906 151.04H46.008C45.414 152.264 44.334 152.858 42.984 152.858C40.788 152.858 39.222 151.238 39.222 148.7C39.222 146.144 40.788 144.542 42.984 144.542C44.334 144.542 45.414 145.136 46.008 146.342H48.906C48.06 143.768 45.792 142.274 43.002 142.274C39.384 142.274 36.63 144.938 36.63 148.7ZM51.0584 155H53.5784V149.492C53.5784 147.89 54.4604 147.026 55.8284 147.026C57.1604 147.026 58.0424 147.89 58.0424 149.492V155H60.5624V149.15C60.5624 146.396 58.9244 144.884 56.6744 144.884C55.3424 144.884 54.2264 145.424 53.5784 146.27V141.68H51.0584V155ZM72.5888 150.014C72.5888 146.864 70.3388 144.866 67.4588 144.866C64.5788 144.866 62.3288 146.864 62.3288 150.014C62.3288 153.146 64.5068 155.162 67.3868 155.162C70.2848 155.162 72.5888 153.146 72.5888 150.014ZM64.8848 150.014C64.8848 148.016 66.0908 147.062 67.4228 147.062C68.7548 147.062 69.9968 148.016 69.9968 150.014C69.9968 151.994 68.7188 152.966 67.3868 152.966C66.0368 152.966 64.8848 151.994 64.8848 150.014ZM84.0673 150.014C84.0673 146.864 81.8173 144.866 78.9373 144.866C76.0573 144.866 73.8073 146.864 73.8073 150.014C73.8073 153.146 75.9853 155.162 78.8653 155.162C81.7633 155.162 84.0673 153.146 84.0673 150.014ZM76.3633 150.014C76.3633 148.016 77.5693 147.062 78.9013 147.062C80.2333 147.062 81.4753 148.016 81.4753 150.014C81.4753 151.994 80.1973 152.966 78.8653 152.966C77.5153 152.966 76.3633 151.994 76.3633 150.014ZM93.6558 152.156C93.5838 148.502 88.0578 149.636 88.0578 147.818C88.0578 147.242 88.5438 146.864 89.4798 146.864C90.4698 146.864 91.0818 147.386 91.1538 148.16H93.5658C93.4218 146.18 91.9638 144.866 89.5518 144.866C87.0858 144.866 85.6098 146.198 85.6098 147.854C85.6098 151.508 91.2438 150.374 91.2438 152.156C91.2438 152.732 90.7038 153.182 89.7138 153.182C88.7058 153.182 88.0038 152.606 87.9138 151.85H85.3758C85.4838 153.704 87.2298 155.162 89.7318 155.162C92.1618 155.162 93.6558 153.866 93.6558 152.156ZM100.008 146.936C101.304 146.936 102.348 147.764 102.384 149.078H97.6504C97.8484 147.71 98.8024 146.936 100.008 146.936ZM104.742 151.868H102.024C101.7 152.534 101.106 153.074 100.026 153.074C98.7664 153.074 97.7584 152.246 97.6324 150.77H104.922C104.976 150.446 104.994 150.122 104.994 149.798C104.994 146.828 102.96 144.866 100.08 144.866C97.1284 144.866 95.0764 146.864 95.0764 150.014C95.0764 153.146 97.1824 155.162 100.08 155.162C102.546 155.162 104.202 153.704 104.742 151.868ZM113.643 148.142V144.488H115.641C117.063 144.488 117.693 145.172 117.693 146.324C117.693 147.44 117.063 148.142 115.641 148.142H113.643ZM120.285 146.324C120.285 144.146 118.773 142.436 115.749 142.436H111.123V155H113.643V150.176H115.749C118.989 150.176 120.285 148.232 120.285 146.324ZM121.426 149.978C121.426 153.092 123.442 155.162 125.962 155.162C127.546 155.162 128.68 154.406 129.274 153.542V155H131.812V145.028H129.274V146.45C128.68 145.622 127.582 144.866 125.98 144.866C123.442 144.866 121.426 146.864 121.426 149.978ZM129.274 150.014C129.274 151.904 128.014 152.948 126.628 152.948C125.278 152.948 124 151.868 124 149.978C124 148.088 125.278 147.08 126.628 147.08C128.014 147.08 129.274 148.124 129.274 150.014ZM138.521 151.994L135.947 145.028H133.121L137.117 154.748L134.957 159.716H137.639L143.813 145.028H141.131L138.521 151.994ZM159.122 155H161.642V149.15C161.642 146.396 159.95 144.884 157.556 144.884C156.098 144.884 154.784 145.658 154.136 146.792C153.452 145.55 152.174 144.884 150.626 144.884C149.384 144.884 148.322 145.406 147.692 146.234V145.028H145.172V155H147.692V149.492C147.692 147.908 148.574 147.08 149.942 147.08C151.274 147.08 152.156 147.908 152.156 149.492V155H154.676V149.492C154.676 147.908 155.558 147.08 156.908 147.08C158.24 147.08 159.122 147.908 159.122 149.492V155ZM168.317 146.936C169.613 146.936 170.657 147.764 170.693 149.078H165.959C166.157 147.71 167.111 146.936 168.317 146.936ZM173.051 151.868H170.333C170.009 152.534 169.415 153.074 168.335 153.074C167.075 153.074 166.067 152.246 165.941 150.77H173.231C173.285 150.446 173.303 150.122 173.303 149.798C173.303 146.828 171.269 144.866 168.389 144.866C165.437 144.866 163.385 146.864 163.385 150.014C163.385 153.146 165.491 155.162 168.389 155.162C170.855 155.162 172.511 153.704 173.051 151.868ZM182.126 155H184.646V149.15C184.646 146.396 182.99 144.884 180.668 144.884C179.39 144.884 178.31 145.424 177.662 146.27V145.028H175.142V155H177.662V149.492C177.662 147.89 178.544 147.026 179.912 147.026C181.244 147.026 182.126 147.89 182.126 149.492V155ZM187.439 151.904C187.439 154.19 188.717 155 190.625 155H192.209V152.876H191.039C190.247 152.876 189.977 152.588 189.977 151.922V147.098H192.209V145.028H189.977V142.562H187.439V145.028H186.251V147.098H187.439V151.904ZM198.31 155H200.83V146.828L204.214 155H206.122L209.488 146.828V155H212.008V142.436H209.164L205.168 151.778L201.172 142.436H198.31V155ZM218.784 146.936C220.08 146.936 221.124 147.764 221.16 149.078H216.426C216.624 147.71 217.578 146.936 218.784 146.936ZM223.518 151.868H220.8C220.476 152.534 219.882 153.074 218.802 153.074C217.542 153.074 216.534 152.246 216.408 150.77H223.698C223.752 150.446 223.77 150.122 223.77 149.798C223.77 146.828 221.736 144.866 218.856 144.866C215.904 144.866 213.852 146.864 213.852 150.014C213.852 153.146 215.958 155.162 218.856 155.162C221.322 155.162 222.978 153.704 223.518 151.868ZM226.005 151.904C226.005 154.19 227.283 155 229.191 155H230.775V152.876H229.605C228.813 152.876 228.543 152.588 228.543 151.922V147.098H230.775V145.028H228.543V142.562H226.005V145.028H224.817V147.098H226.005V151.904ZM232.588 155H235.108V149.492C235.108 147.89 235.99 147.026 237.358 147.026C238.69 147.026 239.572 147.89 239.572 149.492V155H242.092V149.15C242.092 146.396 240.454 144.884 238.204 144.884C236.872 144.884 235.756 145.424 235.108 146.27V141.68H232.588V155ZM254.118 150.014C254.118 146.864 251.868 144.866 248.988 144.866C246.108 144.866 243.858 146.864 243.858 150.014C243.858 153.146 246.036 155.162 248.916 155.162C251.814 155.162 254.118 153.146 254.118 150.014ZM246.414 150.014C246.414 148.016 247.62 147.062 248.952 147.062C250.284 147.062 251.526 148.016 251.526 150.014C251.526 151.994 250.248 152.966 248.916 152.966C247.566 152.966 246.414 151.994 246.414 150.014ZM255.319 149.978C255.319 153.092 257.335 155.162 259.873 155.162C261.439 155.162 262.555 154.442 263.149 153.524V155H265.705V141.68H263.149V146.414C262.465 145.478 261.205 144.866 259.891 144.866C257.335 144.866 255.319 146.864 255.319 149.978ZM263.167 150.014C263.167 151.904 261.907 152.948 260.521 152.948C259.171 152.948 257.893 151.868 257.893 149.978C257.893 148.088 259.171 147.08 260.521 147.08C261.907 147.08 263.167 148.124 263.167 150.014Z" fill="#080A24"/>
<path d="M375 497H0V602H375V497Z" fill="#FAFAFA"/>
<path d="M374.5 497.5H0.5V601.5H374.5V497.5Z" stroke="#EDEDED"/>
<path d="M106.016 543.608V540.536H107.624C108.872 540.536 109.4 541.112 109.4 542.084C109.4 543.02 108.872 543.608 107.624 543.608H106.016ZM110.516 542.084C110.516 540.716 109.592 539.636 107.624 539.636H104.924V548H106.016V544.508H107.624C109.7 544.508 110.516 543.356 110.516 542.084ZM111.465 544.688C111.465 546.728 112.821 548.108 114.573 548.108C115.785 548.108 116.637 547.484 117.033 546.776V548H118.137V541.424H117.033V542.624C116.649 541.94 115.809 541.316 114.585 541.316C112.821 541.316 111.465 542.636 111.465 544.688ZM117.033 544.7C117.033 546.248 116.001 547.148 114.801 547.148C113.601 547.148 112.581 546.236 112.581 544.688C112.581 543.14 113.601 542.264 114.801 542.264C116.001 542.264 117.033 543.176 117.033 544.7ZM122.479 546.752L120.415 541.424H119.203L121.855 547.928L120.559 551.096H121.687L125.647 541.424H124.519L122.479 546.752ZM131.228 548H132.356L133.94 542.78L135.524 548H136.652L138.704 541.424H137.624L136.136 546.956L134.54 541.424H133.424L131.792 546.944L130.28 541.424H129.164L131.228 548ZM139.787 548H140.879V541.424H139.787V548ZM140.351 540.356C140.747 540.356 141.071 540.032 141.071 539.612C141.071 539.192 140.747 538.868 140.351 538.868C139.931 538.868 139.607 539.192 139.607 539.612C139.607 540.032 139.931 540.356 140.351 540.356ZM142.98 546.2C142.98 547.52 143.64 548 144.804 548H145.788V547.076H144.984C144.312 547.076 144.072 546.848 144.072 546.2V542.324H145.788V541.424H144.072V539.768H142.98V541.424H142.128V542.324H142.98V546.2ZM147.112 548H148.204V544.364C148.204 542.948 148.972 542.252 150.088 542.252C151.192 542.252 151.924 542.936 151.924 544.28V548H153.004V544.124C153.004 542.24 151.84 541.304 150.376 541.304C149.452 541.304 148.636 541.676 148.204 542.372V539.12H147.112V548ZM160.483 546.752L158.419 541.424H157.207L159.859 547.928L158.562 551.096H159.691L163.651 541.424H162.523L160.483 546.752ZM170.988 544.7C170.988 542.624 169.536 541.316 167.664 541.316C165.804 541.316 164.34 542.624 164.34 544.7C164.34 546.788 165.756 548.108 167.616 548.108C169.488 548.108 170.988 546.788 170.988 544.7ZM165.456 544.7C165.456 543.044 166.5 542.264 167.652 542.264C168.78 542.264 169.872 543.044 169.872 544.7C169.872 546.368 168.756 547.148 167.616 547.148C166.476 547.148 165.456 546.368 165.456 544.7ZM178.256 541.424H177.164V545.036C177.164 546.452 176.408 547.148 175.28 547.148C174.176 547.148 173.444 546.464 173.444 545.132V541.424H172.364V545.276C172.364 547.16 173.552 548.096 175.064 548.096C175.94 548.096 176.744 547.712 177.164 547.028V548H178.256V541.424ZM181.192 544.424C181.192 542.9 181.984 542.432 183.028 542.432H183.316V541.304C182.272 541.304 181.564 541.76 181.192 542.492V541.424H180.1V548H181.192V544.424ZM188.868 542.636V541.424H187.776V551.12H188.868V546.788C189.276 547.46 190.128 548.108 191.328 548.108C193.092 548.108 194.448 546.728 194.448 544.688C194.448 542.636 193.092 541.316 191.328 541.316C190.128 541.316 189.264 541.94 188.868 542.636ZM193.332 544.688C193.332 546.236 192.312 547.148 191.1 547.148C189.912 547.148 188.868 546.248 188.868 544.7C188.868 543.176 189.912 542.264 191.1 542.264C192.312 542.264 193.332 543.14 193.332 544.688ZM195.477 544.688C195.477 546.728 196.833 548.108 198.585 548.108C199.797 548.108 200.649 547.484 201.045 546.776V548H202.149V541.424H201.045V542.624C200.661 541.94 199.821 541.316 198.597 541.316C196.833 541.316 195.477 542.636 195.477 544.688ZM201.045 544.7C201.045 546.248 200.013 547.148 198.813 547.148C197.613 547.148 196.593 546.236 196.593 544.688C196.593 543.14 197.613 542.264 198.813 542.264C200.013 542.264 201.045 543.176 201.045 544.7ZM206.49 546.752L204.426 541.424H203.214L205.866 547.928L204.57 551.096H205.698L209.658 541.424H208.53L206.49 546.752ZM211.848 542.636V541.424H210.756V551.12H211.848V546.788C212.256 547.46 213.108 548.108 214.308 548.108C216.072 548.108 217.428 546.728 217.428 544.688C217.428 542.636 216.072 541.316 214.308 541.316C213.108 541.316 212.244 541.94 211.848 542.636ZM216.312 544.688C216.312 546.236 215.292 547.148 214.08 547.148C212.892 547.148 211.848 546.248 211.848 544.7C211.848 543.176 212.892 542.264 214.08 542.264C215.292 542.264 216.312 543.14 216.312 544.688ZM218.457 544.688C218.457 546.728 219.813 548.108 221.565 548.108C222.777 548.108 223.629 547.484 224.025 546.776V548H225.129V541.424H224.025V542.624C223.641 541.94 222.801 541.316 221.577 541.316C219.813 541.316 218.457 542.636 218.457 544.688ZM224.025 544.7C224.025 546.248 222.993 547.148 221.793 547.148C220.593 547.148 219.573 546.236 219.573 544.688C219.573 543.14 220.593 542.264 221.793 542.264C222.993 542.264 224.025 543.176 224.025 544.7ZM226.975 548H228.067V539.12H226.975V548ZM234.219 542.648V539.12H233.127V548H234.219V546.788C234.627 547.508 235.479 548.108 236.679 548.108C238.443 548.108 239.799 546.728 239.799 544.688C239.799 542.636 238.455 541.316 236.679 541.316C235.515 541.316 234.639 541.916 234.219 542.648ZM238.683 544.688C238.683 546.236 237.663 547.148 236.451 547.148C235.263 547.148 234.219 546.248 234.219 544.7C234.219 543.176 235.263 542.264 236.451 542.264C237.663 542.264 238.683 543.14 238.683 544.688ZM240.829 544.688C240.829 546.728 242.185 548.108 243.937 548.108C245.149 548.108 246.001 547.484 246.397 546.776V548H247.501V541.424H246.397V542.624C246.013 541.94 245.173 541.316 243.949 541.316C242.185 541.316 240.829 542.636 240.829 544.688ZM246.397 544.7C246.397 546.248 245.365 547.148 244.165 547.148C242.965 547.148 241.945 546.236 241.945 544.688C241.945 543.14 242.965 542.264 244.165 542.264C245.365 542.264 246.397 543.176 246.397 544.7ZM249.346 548H250.438V539.12H249.346V548ZM251.891 544.688C251.891 546.728 253.247 548.108 254.999 548.108C256.211 548.108 257.063 547.484 257.459 546.776V548H258.563V541.424H257.459V542.624C257.075 541.94 256.235 541.316 255.011 541.316C253.247 541.316 251.891 542.636 251.891 544.688ZM257.459 544.7C257.459 546.248 256.427 547.148 255.227 547.148C254.027 547.148 253.007 546.236 253.007 544.688C253.007 543.14 254.027 542.264 255.227 542.264C256.427 542.264 257.459 543.176 257.459 544.7ZM265.22 548H266.3V544.124C266.3 542.24 265.136 541.304 263.612 541.304C262.724 541.304 261.932 541.676 261.5 542.36V541.424H260.408V548H261.5V544.364C261.5 542.948 262.268 542.252 263.384 542.252C264.488 542.252 265.22 542.936 265.22 544.28V548ZM267.676 544.7C267.676 546.788 269.008 548.108 270.88 548.108C272.512 548.108 273.58 547.196 273.916 545.888H272.74C272.5 546.716 271.852 547.184 270.88 547.184C269.68 547.184 268.792 546.332 268.792 544.7C268.792 543.092 269.68 542.24 270.88 542.24C271.852 542.24 272.512 542.744 272.74 543.536H273.916C273.58 542.156 272.512 541.316 270.88 541.316C269.008 541.316 267.676 542.636 267.676 544.7ZM278.169 542.24C279.297 542.24 280.257 542.948 280.245 544.232H276.093C276.213 542.948 277.101 542.24 278.169 542.24ZM281.241 545.972H280.065C279.825 546.68 279.201 547.184 278.217 547.184C277.101 547.184 276.165 546.452 276.081 545.12H281.337C281.361 544.892 281.373 544.7 281.373 544.46C281.373 542.66 280.125 541.316 278.217 541.316C276.297 541.316 274.965 542.624 274.965 544.7C274.965 546.788 276.345 548.108 278.217 548.108C279.849 548.108 280.905 547.172 281.241 545.972Z" fill="#656565"/>
<path d="M106.926 520.666V517.824H108.48C109.586 517.824 110.076 518.356 110.076 519.252C110.076 520.12 109.586 520.666 108.48 520.666H106.926ZM112.092 519.252C112.092 517.558 110.916 516.228 108.564 516.228H104.966V526H106.926V522.248H108.564C111.084 522.248 112.092 520.736 112.092 519.252ZM112.98 522.094C112.98 524.516 114.548 526.126 116.508 526.126C117.74 526.126 118.622 525.538 119.084 524.866V526H121.058V518.244H119.084V519.35C118.622 518.706 117.768 518.118 116.522 518.118C114.548 518.118 112.98 519.672 112.98 522.094ZM119.084 522.122C119.084 523.592 118.104 524.404 117.026 524.404C115.976 524.404 114.982 523.564 114.982 522.094C114.982 520.624 115.976 519.84 117.026 519.84C118.104 519.84 119.084 520.652 119.084 522.122ZM126.276 523.662L124.274 518.244H122.076L125.184 525.804L123.504 529.668H125.59L130.392 518.244H128.306L126.276 523.662ZM133.408 519.364V518.244H131.448V529.696H133.408V524.894C133.884 525.524 134.752 526.126 135.97 526.126C137.958 526.126 139.512 524.516 139.512 522.094C139.512 519.672 137.958 518.118 135.97 518.118C134.766 518.118 133.87 518.706 133.408 519.364ZM137.51 522.094C137.51 523.564 136.516 524.404 135.452 524.404C134.402 524.404 133.408 523.592 133.408 522.122C133.408 520.652 134.402 519.84 135.452 519.84C136.516 519.84 137.51 520.624 137.51 522.094ZM140.433 522.094C140.433 524.516 142.001 526.126 143.961 526.126C145.193 526.126 146.075 525.538 146.537 524.866V526H148.511V518.244H146.537V519.35C146.075 518.706 145.221 518.118 143.975 518.118C142.001 518.118 140.433 519.672 140.433 522.094ZM146.537 522.122C146.537 523.592 145.557 524.404 144.479 524.404C143.429 524.404 142.435 523.564 142.435 522.094C142.435 520.624 143.429 519.84 144.479 519.84C145.557 519.84 146.537 520.652 146.537 522.122ZM150.425 526H152.385V515.64H150.425V526Z" fill="black"/>
<path d="M341 564C348.732 564 355 557.732 355 550C355 542.268 348.732 536 341 536C333.268 536 327 542.268 327 550C327 557.732 333.268 564 341 564Z" fill="white"/>
<path d="M341 560C346.523 560 351 555.523 351 550C351 544.477 346.523 540 341 540C335.477 540 331 544.477 331 550C331 555.523 335.477 560 341 560Z" stroke="#CACACA" stroke-width="8"/>
<path d="M227 561H118C110.268 561 104 567.268 104 575C104 582.732 110.268 589 118 589H227C234.732 589 241 582.732 241 575C241 567.268 234.732 561 227 561Z" fill="#FAFAFA" stroke="#EDEDED"/>
<path d="M143.058 572.04C140.706 572.04 138.858 573.804 138.858 576.312C138.858 578.82 140.706 580.572 143.058 580.572C145.326 580.572 146.97 578.904 147.162 576.828V575.988H142.662V576.876H145.998C145.83 578.532 144.702 579.588 143.058 579.588C141.294 579.588 139.974 578.316 139.974 576.312C139.974 574.296 141.294 573.024 143.058 573.024C144.234 573.024 145.146 573.588 145.602 574.56H146.91C146.286 572.952 144.822 572.04 143.058 572.04ZM151.402 574.74C152.53 574.74 153.49 575.448 153.478 576.732H149.326C149.446 575.448 150.334 574.74 151.402 574.74ZM154.474 578.472H153.298C153.058 579.18 152.434 579.684 151.45 579.684C150.334 579.684 149.398 578.952 149.314 577.62H154.57C154.594 577.392 154.606 577.2 154.606 576.96C154.606 575.16 153.358 573.816 151.45 573.816C149.53 573.816 148.198 575.124 148.198 577.2C148.198 579.288 149.578 580.608 151.45 580.608C153.082 580.608 154.138 579.672 154.474 578.472ZM156.287 578.7C156.287 580.02 156.947 580.5 158.111 580.5H159.095V579.576H158.291C157.619 579.576 157.379 579.348 157.379 578.7V574.824H159.095V573.924H157.379V572.268H156.287V573.924H155.435V574.824H156.287V578.7ZM165.898 581.544H166.546V580.572C168.178 580.464 169.018 579.324 169.018 578.208C169.018 576.54 167.734 576.192 166.546 575.892V572.964C167.278 573.12 167.674 573.66 167.746 574.176H168.91C168.79 572.964 167.914 572.16 166.546 572.04V571.044H165.898V572.04C164.398 572.136 163.414 573.06 163.414 574.356C163.414 576.012 164.698 576.36 165.898 576.672V579.672C165.046 579.54 164.65 578.952 164.59 578.328H163.426C163.45 579.6 164.458 580.44 165.898 580.572V581.544ZM167.926 578.268C167.926 578.988 167.434 579.588 166.546 579.684V576.852C167.314 577.08 167.926 577.416 167.926 578.268ZM164.53 574.296C164.53 573.444 165.094 573.012 165.898 572.94V575.712C165.13 575.472 164.53 575.148 164.53 574.296ZM171.766 580.5H172.87V571.824H170.614V572.82H171.766V580.5ZM177.717 577.188C177.717 579.228 179.073 580.608 180.837 580.608C182.037 580.608 182.889 579.996 183.285 579.264V580.5H184.389V571.62H183.285V575.1C182.829 574.344 181.881 573.816 180.849 573.816C179.073 573.816 177.717 575.136 177.717 577.188ZM183.285 577.2C183.285 578.748 182.253 579.648 181.053 579.648C179.853 579.648 178.833 578.736 178.833 577.188C178.833 575.64 179.853 574.764 181.053 574.764C182.253 574.764 183.285 575.676 183.285 577.2ZM186.235 580.5H187.327V573.924H186.235V580.5ZM186.799 572.856C187.195 572.856 187.519 572.532 187.519 572.112C187.519 571.692 187.195 571.368 186.799 571.368C186.379 571.368 186.055 571.692 186.055 572.112C186.055 572.532 186.379 572.856 186.799 572.856ZM193.916 578.712C193.868 576.36 190.052 577.212 190.052 575.652C190.052 575.124 190.532 574.74 191.336 574.74C192.212 574.74 192.716 575.22 192.764 575.88H193.856C193.784 574.596 192.824 573.816 191.372 573.816C189.908 573.816 188.96 574.644 188.96 575.652C188.96 578.1 192.848 577.248 192.848 578.712C192.848 579.252 192.368 579.684 191.504 579.684C190.58 579.684 190.016 579.204 189.956 578.568H188.828C188.9 579.768 189.98 580.608 191.516 580.608C192.968 580.608 193.916 579.792 193.916 578.712ZM195.049 577.2C195.049 579.288 196.381 580.608 198.253 580.608C199.885 580.608 200.953 579.696 201.289 578.388H200.113C199.873 579.216 199.225 579.684 198.253 579.684C197.053 579.684 196.165 578.832 196.165 577.2C196.165 575.592 197.053 574.74 198.253 574.74C199.225 574.74 199.885 575.244 200.113 576.036H201.289C200.953 574.656 199.885 573.816 198.253 573.816C196.381 573.816 195.049 575.136 195.049 577.2ZM208.987 577.2C208.987 575.124 207.535 573.816 205.663 573.816C203.803 573.816 202.339 575.124 202.339 577.2C202.339 579.288 203.755 580.608 205.615 580.608C207.487 580.608 208.987 579.288 208.987 577.2ZM203.455 577.2C203.455 575.544 204.499 574.764 205.651 574.764C206.779 574.764 207.871 575.544 207.871 577.2C207.871 578.868 206.755 579.648 205.615 579.648C204.475 579.648 203.455 578.868 203.455 577.2ZM216.254 573.924H215.162V577.536C215.162 578.952 214.406 579.648 213.278 579.648C212.174 579.648 211.442 578.964 211.442 577.632V573.924H210.362V577.776C210.362 579.66 211.55 580.596 213.062 580.596C213.938 580.596 214.742 580.212 215.162 579.528V580.5H216.254V573.924ZM222.91 580.5H223.99V576.624C223.99 574.74 222.826 573.804 221.302 573.804C220.414 573.804 219.622 574.176 219.19 574.86V573.924H218.098V580.5H219.19V576.864C219.19 575.448 219.958 574.752 221.074 574.752C222.178 574.752 222.91 575.436 222.91 576.78V580.5ZM226.014 578.7C226.014 580.02 226.674 580.5 227.838 580.5H228.822V579.576H228.018C227.346 579.576 227.106 579.348 227.106 578.7V574.824H228.822V573.924H227.106V572.268H226.014V573.924H225.162V574.824H226.014V578.7Z" fill="#656565"/>
<path d="M131.099 572.758V570.439L128.767 569.273L126.499 567.005L124.22 567.574L121.941 567.005L119.673 569.273L117.341 570.439V572.758L116.22 575L117.341 577.242V579.561L119.674 580.727L121.942 582.995L124.22 582.425L126.499 582.994L128.767 580.726L131.1 579.56V577.241L132.22 575L131.099 572.758ZM130.041 576.992V578.905L128.22 579.818L126.178 581.818L124.22 581.333L122.265 581.822L120.36 579.917L118.398 578.905V576.992L117.403 575L118.399 573.005V571.093L120.22 570.181L122.263 568.181L124.22 568.666L126.175 568.177L128.08 570.082L130.042 571.094V573.005L131.036 574.997L130.041 576.992Z" fill="black"/>
<path d="M127.013 571.461L120.681 577.793L121.427 578.539L127.759 572.207L127.013 571.461Z" fill="black"/>
<path d="M122.102 574.464C122.415 574.464 122.721 574.371 122.981 574.197C123.242 574.023 123.445 573.776 123.564 573.487C123.684 573.198 123.716 572.879 123.655 572.572C123.593 572.265 123.443 571.983 123.221 571.762C123 571.54 122.718 571.39 122.411 571.328C122.104 571.267 121.785 571.299 121.496 571.419C121.207 571.538 120.96 571.741 120.786 572.002C120.612 572.262 120.519 572.568 120.519 572.881C120.519 573.301 120.686 573.703 120.983 574C121.28 574.297 121.682 574.463 122.102 574.464ZM122.102 572.353C122.206 572.353 122.308 572.384 122.395 572.442C122.482 572.5 122.55 572.582 122.59 572.679C122.63 572.775 122.64 572.882 122.62 572.984C122.599 573.086 122.549 573.181 122.475 573.254C122.401 573.328 122.307 573.378 122.205 573.399C122.103 573.419 121.996 573.409 121.9 573.369C121.803 573.329 121.721 573.261 121.663 573.174C121.605 573.088 121.574 572.985 121.574 572.881C121.574 572.741 121.63 572.607 121.729 572.508C121.828 572.409 121.962 572.353 122.102 572.353Z" fill="black"/>
<path d="M126.338 575.535C126.025 575.535 125.719 575.628 125.459 575.802C125.198 575.976 124.995 576.223 124.876 576.512C124.756 576.801 124.724 577.12 124.785 577.427C124.847 577.734 124.997 578.016 125.219 578.237C125.44 578.459 125.722 578.61 126.029 578.671C126.336 578.732 126.655 578.7 126.944 578.581C127.233 578.461 127.48 578.258 127.654 577.997C127.828 577.737 127.921 577.431 127.921 577.118C127.92 576.698 127.754 576.296 127.457 575.999C127.16 575.702 126.758 575.536 126.338 575.535ZM126.338 577.646C126.234 577.646 126.131 577.615 126.045 577.557C125.958 577.499 125.89 577.417 125.85 577.32C125.81 577.224 125.8 577.117 125.82 577.015C125.841 576.913 125.891 576.818 125.965 576.745C126.038 576.671 126.133 576.621 126.235 576.6C126.337 576.58 126.444 576.59 126.54 576.63C126.637 576.67 126.719 576.738 126.777 576.825C126.835 576.911 126.866 577.014 126.866 577.118C126.866 577.258 126.81 577.392 126.711 577.491C126.612 577.59 126.478 577.646 126.338 577.646Z" fill="black"/>
<path d="M76 550C76 538.954 67.0457 530 56 530C44.9543 530 36 538.954 36 550C36 561.046 44.9543 570 56 570C67.0457 570 76 561.046 76 550Z" fill="#8F00FF"/>
<path d="M54.447 544.959H60.615C63.926 544.959 65.173 546.635 64.981 549.102C64.664 553.169 62.205 555.417 58.944 555.417H57.297C56.85 555.417 56.549 555.717 56.428 556.517L55.721 561.177C55.675 561.477 55.516 561.658 55.277 561.677H51.409C51.045 561.677 50.916 561.399 51.009 560.796L53.373 545.844C53.3797 545.713 53.4136 545.585 53.4725 545.468C53.5314 545.351 53.614 545.248 53.715 545.165C53.816 545.082 53.9333 545.02 54.0593 544.985C54.1853 544.949 54.3173 544.941 54.447 544.959Z" fill="#A6A6A6"/>
<path d="M50.9159 540.321H56.9319C58.6259 540.321 60.6319 540.376 61.9799 541.561C62.4395 541.992 62.7926 542.525 63.0112 543.116C63.2299 543.707 63.3082 544.341 63.2399 544.968C62.8709 549.559 60.1229 552.131 56.4399 552.131H53.4719C52.9719 552.131 52.6319 552.465 52.4899 553.371L51.6619 558.635C51.6079 558.977 51.4619 559.178 51.1899 559.202H47.4839C47.0729 559.202 46.9269 558.888 47.0339 558.202L49.6999 541.321C49.7075 541.173 49.7458 541.028 49.8125 540.896C49.8791 540.764 49.9727 540.647 50.0871 540.552C50.2016 540.458 50.3344 540.389 50.4771 540.349C50.6198 540.309 50.7693 540.3 50.9159 540.321Z" fill="white"/>
<path d="M52.2949 552.992L53.3729 546.168C53.3797 546.037 53.4136 545.909 53.4725 545.792C53.5314 545.676 53.614 545.572 53.715 545.489C53.816 545.406 53.9333 545.344 54.0593 545.309C54.1853 545.273 54.3173 545.265 54.4469 545.283H60.6149C61.4686 545.256 62.3184 545.41 63.1079 545.736C62.4879 549.936 59.7739 552.263 56.2199 552.263H53.1749C52.7739 552.263 52.4749 552.468 52.2949 552.992Z" fill="#E6E6E6"/>
<path d="M375 289H0V394H375V289Z" fill="#FAFAFA"/>
<path d="M374.5 289.5H0.5V393.5H374.5V289.5Z" stroke="#EDEDED"/>
<path d="M106.016 335.608V332.536H107.624C108.872 332.536 109.4 333.112 109.4 334.084C109.4 335.02 108.872 335.608 107.624 335.608H106.016ZM110.516 334.084C110.516 332.716 109.592 331.636 107.624 331.636H104.924V340H106.016V336.508H107.624C109.7 336.508 110.516 335.356 110.516 334.084ZM112.965 336.424C112.965 334.9 113.757 334.432 114.801 334.432H115.089V333.304C114.045 333.304 113.337 333.76 112.965 334.492V333.424H111.873V340H112.965V336.424ZM119.146 334.24C120.274 334.24 121.234 334.948 121.222 336.232H117.07C117.19 334.948 118.078 334.24 119.146 334.24ZM122.218 337.972H121.042C120.802 338.68 120.178 339.184 119.194 339.184C118.078 339.184 117.142 338.452 117.058 337.12H122.314C122.338 336.892 122.35 336.7 122.35 336.46C122.35 334.66 121.102 333.316 119.194 333.316C117.274 333.316 115.942 334.624 115.942 336.7C115.942 338.788 117.322 340.108 119.194 340.108C120.826 340.108 121.882 339.172 122.218 337.972ZM124.883 334.636V333.424H123.791V343.12H124.883V338.788C125.291 339.46 126.143 340.108 127.343 340.108C129.107 340.108 130.463 338.728 130.463 336.688C130.463 334.636 129.107 333.316 127.343 333.316C126.143 333.316 125.279 333.94 124.883 334.636ZM129.347 336.688C129.347 338.236 128.327 339.148 127.115 339.148C125.927 339.148 124.883 338.248 124.883 336.7C124.883 335.176 125.927 334.264 127.115 334.264C128.327 334.264 129.347 335.14 129.347 336.688ZM131.493 336.688C131.493 338.728 132.849 340.108 134.601 340.108C135.813 340.108 136.665 339.484 137.061 338.776V340H138.165V333.424H137.061V334.624C136.677 333.94 135.837 333.316 134.613 333.316C132.849 333.316 131.493 334.636 131.493 336.688ZM137.061 336.7C137.061 338.248 136.029 339.148 134.829 339.148C133.629 339.148 132.609 338.236 132.609 336.688C132.609 335.14 133.629 334.264 134.829 334.264C136.029 334.264 137.061 335.176 137.061 336.7ZM141.102 336.424C141.102 334.9 141.894 334.432 142.938 334.432H143.226V333.304C142.182 333.304 141.474 333.76 141.102 334.492V333.424H140.01V340H141.102V336.424ZM147.283 334.24C148.411 334.24 149.371 334.948 149.359 336.232H145.207C145.326 334.948 146.215 334.24 147.283 334.24ZM150.355 337.972H149.179C148.939 338.68 148.315 339.184 147.331 339.184C146.215 339.184 145.279 338.452 145.195 337.12H150.451C150.475 336.892 150.487 336.7 150.487 336.46C150.487 334.66 149.239 333.316 147.331 333.316C145.411 333.316 144.079 334.624 144.079 336.7C144.079 338.788 145.459 340.108 147.331 340.108C148.963 340.108 150.019 339.172 150.355 337.972ZM157.623 338.752L155.559 333.424H154.347L156.999 339.928L155.703 343.096H156.831L160.791 333.424H159.663L157.623 338.752ZM168.129 336.7C168.129 334.624 166.677 333.316 164.805 333.316C162.945 333.316 161.481 334.624 161.481 336.7C161.481 338.788 162.897 340.108 164.757 340.108C166.629 340.108 168.129 338.788 168.129 336.7ZM162.597 336.7C162.597 335.044 163.641 334.264 164.793 334.264C165.921 334.264 167.013 335.044 167.013 336.7C167.013 338.368 165.897 339.148 164.757 339.148C163.617 339.148 162.597 338.368 162.597 336.7ZM175.397 333.424H174.305V337.036C174.305 338.452 173.549 339.148 172.421 339.148C171.317 339.148 170.585 338.464 170.585 337.132V333.424H169.505V337.276C169.505 339.16 170.693 340.096 172.205 340.096C173.081 340.096 173.885 339.712 174.305 339.028V340H175.397V333.424ZM178.332 336.424C178.332 334.9 179.124 334.432 180.168 334.432H180.456V333.304C179.412 333.304 178.704 333.76 178.332 334.492V333.424H177.24V340H178.332V336.424ZM184.508 336.7C184.508 338.788 185.84 340.108 187.712 340.108C189.344 340.108 190.412 339.196 190.748 337.888H189.572C189.332 338.716 188.684 339.184 187.712 339.184C186.512 339.184 185.624 338.332 185.624 336.7C185.624 335.092 186.512 334.24 187.712 334.24C188.684 334.24 189.344 334.744 189.572 335.536H190.748C190.412 334.156 189.344 333.316 187.712 333.316C185.84 333.316 184.508 334.636 184.508 336.7ZM191.797 336.688C191.797 338.728 193.153 340.108 194.905 340.108C196.117 340.108 196.969 339.484 197.365 338.776V340H198.469V333.424H197.365V334.624C196.981 333.94 196.141 333.316 194.917 333.316C193.153 333.316 191.797 334.636 191.797 336.688ZM197.365 336.7C197.365 338.248 196.333 339.148 195.133 339.148C193.933 339.148 192.913 338.236 192.913 336.688C192.913 335.14 193.933 334.264 195.133 334.264C196.333 334.264 197.365 335.176 197.365 336.7ZM205.043 338.212C204.995 335.86 201.179 336.712 201.179 335.152C201.179 334.624 201.659 334.24 202.463 334.24C203.339 334.24 203.843 334.72 203.891 335.38H204.983C204.911 334.096 203.951 333.316 202.499 333.316C201.035 333.316 200.087 334.144 200.087 335.152C200.087 337.6 203.975 336.748 203.975 338.212C203.975 338.752 203.495 339.184 202.631 339.184C201.707 339.184 201.143 338.704 201.083 338.068H199.955C200.027 339.268 201.107 340.108 202.643 340.108C204.095 340.108 205.043 339.292 205.043 338.212ZM206.584 340H207.676V336.364C207.676 334.948 208.444 334.252 209.56 334.252C210.664 334.252 211.396 334.936 211.396 336.28V340H212.476V336.124C212.476 334.24 211.312 333.304 209.848 333.304C208.924 333.304 208.108 333.676 207.676 334.372V331.12H206.584V340Z" fill="#656565"/>
<path d="M104.49 313.1C104.49 316.026 106.632 318.084 109.446 318.084C111.616 318.084 113.38 316.936 114.038 314.92H111.784C111.322 315.872 110.482 316.334 109.432 316.334C107.724 316.334 106.506 315.074 106.506 313.1C106.506 311.112 107.724 309.866 109.432 309.866C110.482 309.866 111.322 310.328 111.784 311.266H114.038C113.38 309.264 111.616 308.102 109.446 308.102C106.632 308.102 104.49 310.174 104.49 313.1ZM115.208 314.094C115.208 316.516 116.776 318.126 118.736 318.126C119.968 318.126 120.85 317.538 121.312 316.866V318H123.286V310.244H121.312V311.35C120.85 310.706 119.996 310.118 118.75 310.118C116.776 310.118 115.208 311.672 115.208 314.094ZM121.312 314.122C121.312 315.592 120.332 316.404 119.254 316.404C118.204 316.404 117.21 315.564 117.21 314.094C117.21 312.624 118.204 311.84 119.254 311.84C120.332 311.84 121.312 312.652 121.312 314.122ZM131.22 315.788C131.164 312.946 126.866 313.828 126.866 312.414C126.866 311.966 127.244 311.672 127.972 311.672C128.742 311.672 129.218 312.078 129.274 312.68H131.15C131.038 311.14 129.904 310.118 128.028 310.118C126.11 310.118 124.962 311.154 124.962 312.442C124.962 315.284 129.344 314.402 129.344 315.788C129.344 316.236 128.924 316.586 128.154 316.586C127.37 316.586 126.824 316.138 126.754 315.55H124.78C124.864 316.992 126.222 318.126 128.168 318.126C130.058 318.126 131.22 317.118 131.22 315.788ZM132.829 318H134.789V313.716C134.789 312.47 135.475 311.798 136.539 311.798C137.575 311.798 138.261 312.47 138.261 313.716V318H140.221V313.45C140.221 311.308 138.947 310.132 137.197 310.132C136.161 310.132 135.293 310.552 134.789 311.21V307.64H132.829V318Z" fill="black"/>
<path d="M341 356C348.732 356 355 349.732 355 342C355 334.268 348.732 328 341 328C333.268 328 327 334.268 327 342C327 349.732 333.268 356 341 356Z" fill="white"/>
<path d="M341 352C346.523 352 351 347.523 351 342C351 336.477 346.523 332 341 332C335.477 332 331 336.477 331 342C331 347.523 335.477 352 341 352Z" stroke="#CACACA" stroke-width="8"/>
<path d="M227 353H118C110.268 353 104 359.268 104 367C104 374.732 110.268 381 118 381H227C234.732 381 241 374.732 241 367C241 359.268 234.732 353 227 353Z" fill="#FAFAFA" stroke="#EDEDED"/>
<path d="M143.058 364.04C140.706 364.04 138.858 365.804 138.858 368.312C138.858 370.82 140.706 372.572 143.058 372.572C145.326 372.572 146.97 370.904 147.162 368.828V367.988H142.662V368.876H145.998C145.83 370.532 144.702 371.588 143.058 371.588C141.294 371.588 139.974 370.316 139.974 368.312C139.974 366.296 141.294 365.024 143.058 365.024C144.234 365.024 145.146 365.588 145.602 366.56H146.91C146.286 364.952 144.822 364.04 143.058 364.04ZM151.402 366.74C152.53 366.74 153.49 367.448 153.478 368.732H149.326C149.446 367.448 150.334 366.74 151.402 366.74ZM154.474 370.472H153.298C153.058 371.18 152.434 371.684 151.45 371.684C150.334 371.684 149.398 370.952 149.314 369.62H154.57C154.594 369.392 154.606 369.2 154.606 368.96C154.606 367.16 153.358 365.816 151.45 365.816C149.53 365.816 148.198 367.124 148.198 369.2C148.198 371.288 149.578 372.608 151.45 372.608C153.082 372.608 154.138 371.672 154.474 370.472ZM156.287 370.7C156.287 372.02 156.947 372.5 158.111 372.5H159.095V371.576H158.291C157.619 371.576 157.379 371.348 157.379 370.7V366.824H159.095V365.924H157.379V364.268H156.287V365.924H155.435V366.824H156.287V370.7ZM165.898 373.544H166.546V372.572C168.178 372.464 169.018 371.324 169.018 370.208C169.018 368.54 167.734 368.192 166.546 367.892V364.964C167.278 365.12 167.674 365.66 167.746 366.176H168.91C168.79 364.964 167.914 364.16 166.546 364.04V363.044H165.898V364.04C164.398 364.136 163.414 365.06 163.414 366.356C163.414 368.012 164.698 368.36 165.898 368.672V371.672C165.046 371.54 164.65 370.952 164.59 370.328H163.426C163.45 371.6 164.458 372.44 165.898 372.572V373.544ZM167.926 370.268C167.926 370.988 167.434 371.588 166.546 371.684V368.852C167.314 369.08 167.926 369.416 167.926 370.268ZM164.53 366.296C164.53 365.444 165.094 365.012 165.898 364.94V367.712C165.13 367.472 164.53 367.148 164.53 366.296ZM171.766 372.5H172.87V363.824H170.614V364.82H171.766V372.5ZM177.717 369.188C177.717 371.228 179.073 372.608 180.837 372.608C182.037 372.608 182.889 371.996 183.285 371.264V372.5H184.389V363.62H183.285V367.1C182.829 366.344 181.881 365.816 180.849 365.816C179.073 365.816 177.717 367.136 177.717 369.188ZM183.285 369.2C183.285 370.748 182.253 371.648 181.053 371.648C179.853 371.648 178.833 370.736 178.833 369.188C178.833 367.64 179.853 366.764 181.053 366.764C182.253 366.764 183.285 367.676 183.285 369.2ZM186.235 372.5H187.327V365.924H186.235V372.5ZM186.799 364.856C187.195 364.856 187.519 364.532 187.519 364.112C187.519 363.692 187.195 363.368 186.799 363.368C186.379 363.368 186.055 363.692 186.055 364.112C186.055 364.532 186.379 364.856 186.799 364.856ZM193.916 370.712C193.868 368.36 190.052 369.212 190.052 367.652C190.052 367.124 190.532 366.74 191.336 366.74C192.212 366.74 192.716 367.22 192.764 367.88H193.856C193.784 366.596 192.824 365.816 191.372 365.816C189.908 365.816 188.96 366.644 188.96 367.652C188.96 370.1 192.848 369.248 192.848 370.712C192.848 371.252 192.368 371.684 191.504 371.684C190.58 371.684 190.016 371.204 189.956 370.568H188.828C188.9 371.768 189.98 372.608 191.516 372.608C192.968 372.608 193.916 371.792 193.916 370.712ZM195.049 369.2C195.049 371.288 196.381 372.608 198.253 372.608C199.885 372.608 200.953 371.696 201.289 370.388H200.113C199.873 371.216 199.225 371.684 198.253 371.684C197.053 371.684 196.165 370.832 196.165 369.2C196.165 367.592 197.053 366.74 198.253 366.74C199.225 366.74 199.885 367.244 200.113 368.036H201.289C200.953 366.656 199.885 365.816 198.253 365.816C196.381 365.816 195.049 367.136 195.049 369.2ZM208.987 369.2C208.987 367.124 207.535 365.816 205.663 365.816C203.803 365.816 202.339 367.124 202.339 369.2C202.339 371.288 203.755 372.608 205.615 372.608C207.487 372.608 208.987 371.288 208.987 369.2ZM203.455 369.2C203.455 367.544 204.499 366.764 205.651 366.764C206.779 366.764 207.871 367.544 207.871 369.2C207.871 370.868 206.755 371.648 205.615 371.648C204.475 371.648 203.455 370.868 203.455 369.2ZM216.254 365.924H215.162V369.536C215.162 370.952 214.406 371.648 213.278 371.648C212.174 371.648 211.442 370.964 211.442 369.632V365.924H210.362V369.776C210.362 371.66 211.55 372.596 213.062 372.596C213.938 372.596 214.742 372.212 215.162 371.528V372.5H216.254V365.924ZM222.91 372.5H223.99V368.624C223.99 366.74 222.826 365.804 221.302 365.804C220.414 365.804 219.622 366.176 219.19 366.86V365.924H218.098V372.5H219.19V368.864C219.19 367.448 219.958 366.752 221.074 366.752C222.178 366.752 222.91 367.436 222.91 368.78V372.5ZM226.014 370.7C226.014 372.02 226.674 372.5 227.838 372.5H228.822V371.576H228.018C227.346 371.576 227.106 371.348 227.106 370.7V366.824H228.822V365.924H227.106V364.268H226.014V365.924H225.162V366.824H226.014V370.7Z" fill="#656565"/>
<path d="M131.099 364.758V362.439L128.767 361.273L126.499 359.005L124.22 359.574L121.941 359.005L119.673 361.273L117.341 362.439V364.758L116.22 367L117.341 369.242V371.561L119.674 372.727L121.942 374.995L124.22 374.425L126.499 374.994L128.767 372.726L131.1 371.56V369.241L132.22 367L131.099 364.758ZM130.041 368.992V370.905L128.22 371.818L126.178 373.818L124.22 373.333L122.265 373.822L120.36 371.917L118.398 370.905V368.992L117.403 367L118.399 365.005V363.093L120.22 362.181L122.263 360.181L124.22 360.666L126.175 360.177L128.08 362.082L130.042 363.094V365.005L131.036 366.997L130.041 368.992Z" fill="black"/>
<path d="M127.013 363.461L120.681 369.793L121.427 370.539L127.759 364.207L127.013 363.461Z" fill="black"/>
<path d="M122.102 366.464C122.415 366.464 122.721 366.371 122.981 366.197C123.242 366.023 123.445 365.776 123.564 365.487C123.684 365.198 123.716 364.879 123.655 364.572C123.593 364.265 123.443 363.983 123.221 363.762C123 363.54 122.718 363.39 122.411 363.328C122.104 363.267 121.785 363.299 121.496 363.419C121.207 363.538 120.96 363.741 120.786 364.002C120.612 364.262 120.519 364.568 120.519 364.881C120.519 365.301 120.686 365.703 120.983 366C121.28 366.297 121.682 366.463 122.102 366.464ZM122.102 364.353C122.206 364.353 122.308 364.384 122.395 364.442C122.482 364.5 122.55 364.582 122.59 364.679C122.63 364.775 122.64 364.882 122.62 364.984C122.599 365.086 122.549 365.181 122.475 365.254C122.401 365.328 122.307 365.378 122.205 365.399C122.103 365.419 121.996 365.409 121.9 365.369C121.803 365.329 121.721 365.261 121.663 365.174C121.605 365.088 121.574 364.985 121.574 364.881C121.574 364.741 121.63 364.607 121.729 364.508C121.828 364.409 121.962 364.353 122.102 364.353Z" fill="black"/>
<path d="M126.338 367.535C126.025 367.535 125.719 367.628 125.459 367.802C125.198 367.976 124.995 368.223 124.876 368.512C124.756 368.801 124.724 369.12 124.785 369.427C124.847 369.734 124.997 370.016 125.219 370.237C125.44 370.459 125.722 370.61 126.029 370.671C126.336 370.732 126.655 370.7 126.944 370.581C127.233 370.461 127.48 370.258 127.654 369.997C127.828 369.737 127.921 369.431 127.921 369.118C127.92 368.698 127.754 368.296 127.457 367.999C127.16 367.702 126.758 367.536 126.338 367.535ZM126.338 369.646C126.234 369.646 126.131 369.615 126.045 369.557C125.958 369.499 125.89 369.417 125.85 369.32C125.81 369.224 125.8 369.117 125.82 369.015C125.841 368.913 125.891 368.818 125.965 368.745C126.038 368.671 126.133 368.621 126.235 368.6C126.337 368.58 126.444 368.59 126.54 368.63C126.637 368.67 126.719 368.738 126.777 368.825C126.835 368.911 126.866 369.014 126.866 369.118C126.866 369.258 126.81 369.392 126.711 369.491C126.612 369.59 126.478 369.646 126.338 369.646Z" fill="black"/>
<path d="M76 342C76 330.954 67.0457 322 56 322C44.9543 322 36 330.954 36 342C36 353.046 44.9543 362 56 362C67.0457 362 76 353.046 76 342Z" fill="#8F00FF"/>
<path d="M65.412 337.675C65.5759 337.723 65.7208 337.82 65.8263 337.954C65.9318 338.089 65.9925 338.252 66 338.423V347.654C65.9835 347.838 65.9094 348.012 65.7882 348.152C65.6671 348.292 65.505 348.39 65.325 348.432C62.2742 349.409 58.9953 349.413 55.942 348.444C54.4164 347.936 52.819 347.676 51.211 347.675C49.783 347.694 48.3664 347.933 47.011 348.383C46.8476 348.43 46.6744 348.43 46.511 348.383C46.3639 348.325 46.237 348.225 46.1462 348.095C46.0554 347.966 46.0045 347.812 46 347.654V335.346C46.0167 335.162 46.0908 334.988 46.212 334.848C46.3331 334.708 46.4951 334.61 46.675 334.568C49.726 333.593 53.0045 333.588 56.058 334.556C56.7157 334.775 57.3863 334.953 58.066 335.089C60.3762 335.518 62.7573 335.355 64.988 334.617L65.13 334.584C65.3191 334.566 65.5081 334.619 65.6607 334.732C65.8133 334.845 65.9188 335.01 65.9569 335.196C65.9949 335.382 65.9629 335.576 65.867 335.74C65.771 335.904 65.6179 336.026 65.437 336.084L65.362 336.109C62.3008 337.096 59.0082 337.104 55.942 336.133C54.5375 335.665 53.0718 335.406 51.592 335.365C50.2243 335.345 48.8613 335.528 47.547 335.907L47.538 346.624C50.3435 345.9 53.2963 345.983 56.057 346.862C58.7718 347.763 61.6924 347.842 64.452 347.089L64.461 338.422C64.461 338.422 64.661 337.53 65.412 337.674V337.675ZM62.192 344.594C62.326 344.61 62.4539 344.659 62.5637 344.737C62.6735 344.816 62.7617 344.921 62.8201 345.042C62.8785 345.164 62.9052 345.299 62.8976 345.433C62.8901 345.568 62.8486 345.699 62.777 345.813C62.6454 345.94 62.4881 346.038 62.3157 346.1C62.1432 346.162 61.9596 346.186 61.777 346.171C60.8674 346.242 59.9533 346.229 59.046 346.133C58.9249 346.12 58.8084 346.079 58.7051 346.014C58.6018 345.95 58.5144 345.863 58.4493 345.76C58.3842 345.657 58.3431 345.541 58.329 345.42C58.3149 345.299 58.3283 345.176 58.368 345.061C58.4552 344.897 58.5925 344.765 58.7597 344.685C58.9269 344.604 59.1155 344.579 59.298 344.613C60.22 344.703 61.1489 344.699 62.07 344.6C62.1104 344.595 62.1512 344.593 62.192 344.594ZM56.02 338.436C56.7269 338.456 57.4064 338.714 57.9491 339.168C58.4918 339.621 58.8662 340.244 59.012 340.936C59.0848 341.422 59.0426 341.918 58.8889 342.385C58.7351 342.851 58.4741 343.275 58.1267 343.623C57.7794 343.97 57.3553 344.232 56.8887 344.385C56.4221 344.539 55.9259 344.582 55.44 344.509C54.8169 344.381 54.2472 344.068 53.8059 343.61C53.3646 343.151 53.0725 342.57 52.968 341.943C52.9183 341.515 52.9571 341.081 53.0818 340.668C53.2066 340.256 53.4147 339.873 53.6933 339.544C53.9719 339.215 54.315 338.947 54.7014 338.755C55.0879 338.564 55.5094 338.455 55.94 338.433H56.019L56.02 338.436ZM55.99 339.974C55.7655 339.976 55.5442 340.027 55.3418 340.124C55.1395 340.222 54.9611 340.362 54.8194 340.537C54.6778 340.711 54.5763 340.914 54.5223 341.132C54.4683 341.35 54.463 341.577 54.507 341.797C54.5509 342.017 54.6428 342.225 54.7763 342.406C54.9098 342.586 55.0815 342.735 55.2792 342.841C55.4768 342.948 55.6955 343.01 55.9197 343.022C56.1439 343.034 56.368 342.996 56.576 342.912C56.7679 342.826 56.9405 342.702 57.0838 342.547C57.227 342.393 57.338 342.212 57.4101 342.014C57.4822 341.816 57.5141 341.606 57.5037 341.396C57.4934 341.186 57.4411 340.98 57.35 340.79C57.2207 340.55 57.0307 340.349 56.7991 340.206C56.5674 340.063 56.3022 339.983 56.03 339.975H55.99V339.974ZM51.435 336.9C51.9431 336.902 52.4508 336.931 52.956 336.985C53.124 337.003 53.64 337.238 53.688 337.671C53.6953 337.782 53.6793 337.893 53.6412 337.997C53.6032 338.102 53.5437 338.197 53.4668 338.277C53.3898 338.357 53.297 338.421 53.1943 338.463C53.0915 338.505 52.9811 338.526 52.87 338.523C51.8909 338.438 50.9061 338.438 49.927 338.523C49.7036 338.523 49.4868 338.448 49.311 338.31C49.2169 338.207 49.1518 338.08 49.1223 337.944C49.0928 337.807 49.0999 337.665 49.143 337.532C49.186 337.399 49.2634 337.28 49.3674 337.186C49.4714 337.093 49.5982 337.029 49.735 337C50.2985 336.926 50.8667 336.893 51.435 336.9Z" fill="white"/>
<path d="M375 393H0V498H375V393Z" fill="#FAFAFA"/>
<path d="M374.5 393.5H0.5V497.5H374.5V393.5Z" stroke="#EDEDED"/>
<path d="M108.056 442.848L105.428 435.636H104.264L107.42 444H108.68L111.836 435.636H110.684L108.056 442.848ZM113.033 444H114.125V437.424H113.033V444ZM113.597 436.356C113.993 436.356 114.317 436.032 114.317 435.612C114.317 435.192 113.993 434.868 113.597 434.868C113.177 434.868 112.853 435.192 112.853 435.612C112.853 436.032 113.177 436.356 113.597 436.356ZM120.715 442.212C120.667 439.86 116.851 440.712 116.851 439.152C116.851 438.624 117.331 438.24 118.135 438.24C119.011 438.24 119.515 438.72 119.563 439.38H120.655C120.583 438.096 119.623 437.316 118.171 437.316C116.707 437.316 115.759 438.144 115.759 439.152C115.759 441.6 119.647 440.748 119.647 442.212C119.647 442.752 119.167 443.184 118.303 443.184C117.379 443.184 116.815 442.704 116.755 442.068H115.627C115.699 443.268 116.779 444.108 118.315 444.108C119.767 444.108 120.715 443.292 120.715 442.212ZM121.848 440.688C121.848 442.728 123.204 444.108 124.956 444.108C126.168 444.108 127.02 443.484 127.416 442.776V444H128.52V437.424H127.416V438.624C127.032 437.94 126.192 437.316 124.968 437.316C123.204 437.316 121.848 438.636 121.848 440.688ZM127.416 440.7C127.416 442.248 126.384 443.148 125.184 443.148C123.984 443.148 122.964 442.236 122.964 440.688C122.964 439.14 123.984 438.264 125.184 438.264C126.384 438.264 127.416 439.176 127.416 440.7ZM139.805 440.7C139.805 438.624 138.353 437.316 136.481 437.316C134.621 437.316 133.157 438.624 133.157 440.7C133.157 442.788 134.573 444.108 136.433 444.108C138.305 444.108 139.805 442.788 139.805 440.7ZM134.273 440.7C134.273 439.044 135.317 438.264 136.469 438.264C137.597 438.264 138.689 439.044 138.689 440.7C138.689 442.368 137.573 443.148 136.433 443.148C135.293 443.148 134.273 442.368 134.273 440.7ZM142.332 440.424C142.332 438.9 143.124 438.432 144.168 438.432H144.456V437.304C143.412 437.304 142.704 437.76 142.332 438.492V437.424H141.24V444H142.332V440.424ZM148.916 444H150.008V437.796L152.78 444H153.548L156.308 437.808V444H157.4V435.696H156.236L153.164 442.56L150.092 435.696H148.916V444ZM158.844 440.688C158.844 442.728 160.2 444.108 161.952 444.108C163.164 444.108 164.016 443.484 164.412 442.776V444H165.516V437.424H164.412V438.624C164.028 437.94 163.188 437.316 161.964 437.316C160.2 437.316 158.844 438.636 158.844 440.688ZM164.412 440.7C164.412 442.248 163.38 443.148 162.18 443.148C160.98 443.148 159.96 442.236 159.96 440.688C159.96 439.14 160.98 438.264 162.18 438.264C163.38 438.264 164.412 439.176 164.412 440.7ZM172.09 442.212C172.042 439.86 168.226 440.712 168.226 439.152C168.226 438.624 168.706 438.24 169.51 438.24C170.386 438.24 170.89 438.72 170.938 439.38H172.03C171.958 438.096 170.998 437.316 169.546 437.316C168.082 437.316 167.134 438.144 167.134 439.152C167.134 441.6 171.022 440.748 171.022 442.212C171.022 442.752 170.542 443.184 169.678 443.184C168.754 443.184 168.19 442.704 168.13 442.068H167.002C167.074 443.268 168.154 444.108 169.69 444.108C171.142 444.108 172.09 443.292 172.09 442.212ZM173.871 442.2C173.871 443.52 174.531 444 175.695 444H176.679V443.076H175.875C175.203 443.076 174.963 442.848 174.963 442.2V438.324H176.679V437.424H174.963V435.768H173.871V437.424H173.019V438.324H173.871V442.2ZM180.798 438.24C181.926 438.24 182.886 438.948 182.874 440.232H178.722C178.842 438.948 179.73 438.24 180.798 438.24ZM183.87 441.972H182.694C182.454 442.68 181.83 443.184 180.846 443.184C179.73 443.184 178.794 442.452 178.71 441.12H183.966C183.99 440.892 184.002 440.7 184.002 440.46C184.002 438.66 182.754 437.316 180.846 437.316C178.926 437.316 177.594 438.624 177.594 440.7C177.594 442.788 178.974 444.108 180.846 444.108C182.478 444.108 183.534 443.172 183.87 441.972ZM186.536 440.424C186.536 438.9 187.328 438.432 188.372 438.432H188.66V437.304C187.616 437.304 186.908 437.76 186.536 438.492V437.424H185.444V444H186.536V440.424ZM192.711 439.812C192.711 442.32 194.547 444.072 196.887 444.072C198.699 444.072 200.139 443.172 200.763 441.564H199.455C198.999 442.56 198.111 443.124 196.887 443.124C195.135 443.124 193.827 441.852 193.827 439.812C193.827 437.76 195.135 436.488 196.887 436.488C198.111 436.488 198.999 437.052 199.455 438.06H200.763C200.139 436.44 198.699 435.528 196.887 435.528C194.547 435.528 192.711 437.304 192.711 439.812ZM201.981 440.688C201.981 442.728 203.337 444.108 205.089 444.108C206.301 444.108 207.153 443.484 207.549 442.776V444H208.653V437.424H207.549V438.624C207.165 437.94 206.325 437.316 205.101 437.316C203.337 437.316 201.981 438.636 201.981 440.688ZM207.549 440.7C207.549 442.248 206.517 443.148 205.317 443.148C204.117 443.148 203.097 442.236 203.097 440.688C203.097 439.14 204.117 438.264 205.317 438.264C206.517 438.264 207.549 439.176 207.549 440.7ZM211.59 440.424C211.59 438.9 212.382 438.432 213.426 438.432H213.714V437.304C212.67 437.304 211.962 437.76 211.59 438.492V437.424H210.498V444H211.59V440.424ZM214.567 440.688C214.567 442.728 215.923 444.108 217.687 444.108C218.887 444.108 219.739 443.496 220.135 442.764V444H221.239V435.12H220.135V438.6C219.679 437.844 218.731 437.316 217.699 437.316C215.923 437.316 214.567 438.636 214.567 440.688ZM220.135 440.7C220.135 442.248 219.103 443.148 217.903 443.148C216.703 443.148 215.683 442.236 215.683 440.688C215.683 439.14 216.703 438.264 217.903 438.264C219.103 438.264 220.135 439.176 220.135 440.7Z" fill="#656565"/>
<path d="M104.49 417.1C104.49 420.026 106.632 422.084 109.446 422.084C111.616 422.084 113.38 420.936 114.038 418.92H111.784C111.322 419.872 110.482 420.334 109.432 420.334C107.724 420.334 106.506 419.074 106.506 417.1C106.506 415.112 107.724 413.866 109.432 413.866C110.482 413.866 111.322 414.328 111.784 415.266H114.038C113.38 413.264 111.616 412.102 109.446 412.102C106.632 412.102 104.49 414.174 104.49 417.1ZM117.672 418.136C117.672 416.638 118.372 416.19 119.534 416.19H120.052V414.132C118.974 414.132 118.162 414.65 117.672 415.448V414.244H115.712V422H117.672V418.136ZM124.704 415.728C125.712 415.728 126.524 416.372 126.552 417.394H122.87C123.024 416.33 123.766 415.728 124.704 415.728ZM128.386 419.564H126.272C126.02 420.082 125.558 420.502 124.718 420.502C123.738 420.502 122.954 419.858 122.856 418.71H128.526C128.568 418.458 128.582 418.206 128.582 417.954C128.582 415.644 127 414.118 124.76 414.118C122.464 414.118 120.868 415.672 120.868 418.122C120.868 420.558 122.506 422.126 124.76 422.126C126.678 422.126 127.966 420.992 128.386 419.564ZM129.509 418.094C129.509 420.516 131.077 422.126 133.051 422.126C134.269 422.126 135.137 421.566 135.599 420.852V422H137.587V411.64H135.599V415.322C135.067 414.594 134.087 414.118 133.065 414.118C131.077 414.118 129.509 415.672 129.509 418.094ZM135.613 418.122C135.613 419.592 134.633 420.404 133.555 420.404C132.505 420.404 131.511 419.564 131.511 418.094C131.511 416.624 132.505 415.84 133.555 415.84C134.633 415.84 135.613 416.652 135.613 418.122ZM139.501 422H141.461V414.244H139.501V422ZM140.495 413.32C141.181 413.32 141.699 412.816 141.699 412.172C141.699 411.528 141.181 411.024 140.495 411.024C139.795 411.024 139.291 411.528 139.291 412.172C139.291 412.816 139.795 413.32 140.495 413.32ZM143.706 419.592C143.706 421.37 144.7 422 146.184 422H147.416V420.348H146.506C145.89 420.348 145.68 420.124 145.68 419.606V415.854H147.416V414.244H145.68V412.326H143.706V414.244H142.782V415.854H143.706V419.592ZM151.685 417.1C151.685 420.026 153.827 422.084 156.641 422.084C158.811 422.084 160.575 420.936 161.233 418.92H158.979C158.517 419.872 157.677 420.334 156.627 420.334C154.919 420.334 153.701 419.074 153.701 417.1C153.701 415.112 154.919 413.866 156.627 413.866C157.677 413.866 158.517 414.328 158.979 415.266H161.233C160.575 413.264 158.811 412.102 156.641 412.102C153.827 412.102 151.685 414.174 151.685 417.1ZM162.403 418.094C162.403 420.516 163.971 422.126 165.931 422.126C167.163 422.126 168.045 421.538 168.507 420.866V422H170.481V414.244H168.507V415.35C168.045 414.706 167.191 414.118 165.945 414.118C163.971 414.118 162.403 415.672 162.403 418.094ZM168.507 418.122C168.507 419.592 167.527 420.404 166.449 420.404C165.399 420.404 164.405 419.564 164.405 418.094C164.405 416.624 165.399 415.84 166.449 415.84C167.527 415.84 168.507 416.652 168.507 418.122ZM174.356 418.136C174.356 416.638 175.056 416.19 176.218 416.19H176.736V414.132C175.658 414.132 174.846 414.65 174.356 415.448V414.244H172.396V422H174.356V418.136ZM177.552 418.094C177.552 420.516 179.12 422.126 181.094 422.126C182.312 422.126 183.18 421.566 183.642 420.852V422H185.63V411.64H183.642V415.322C183.11 414.594 182.13 414.118 181.108 414.118C179.12 414.118 177.552 415.672 177.552 418.094ZM183.656 418.122C183.656 419.592 182.676 420.404 181.598 420.404C180.548 420.404 179.554 419.564 179.554 418.094C179.554 416.624 180.548 415.84 181.598 415.84C182.676 415.84 183.656 416.652 183.656 418.122Z" fill="black"/>
<path d="M341 460C348.732 460 355 453.732 355 446C355 438.268 348.732 432 341 432C333.268 432 327 438.268 327 446C327 453.732 333.268 460 341 460Z" fill="white"/>
<path d="M341 456C346.523 456 351 451.523 351 446C351 440.477 346.523 436 341 436C335.477 436 331 440.477 331 446C331 451.523 335.477 456 341 456Z" stroke="#CACACA" stroke-width="8"/>
<path d="M227 457H118C110.268 457 104 463.268 104 471C104 478.732 110.268 485 118 485H227C234.732 485 241 478.732 241 471C241 463.268 234.732 457 227 457Z" fill="#FAFAFA" stroke="#EDEDED"/>
<path d="M143.058 468.04C140.706 468.04 138.858 469.804 138.858 472.312C138.858 474.82 140.706 476.572 143.058 476.572C145.326 476.572 146.97 474.904 147.162 472.828V471.988H142.662V472.876H145.998C145.83 474.532 144.702 475.588 143.058 475.588C141.294 475.588 139.974 474.316 139.974 472.312C139.974 470.296 141.294 469.024 143.058 469.024C144.234 469.024 145.146 469.588 145.602 470.56H146.91C146.286 468.952 144.822 468.04 143.058 468.04ZM151.402 470.74C152.53 470.74 153.49 471.448 153.478 472.732H149.326C149.446 471.448 150.334 470.74 151.402 470.74ZM154.474 474.472H153.298C153.058 475.18 152.434 475.684 151.45 475.684C150.334 475.684 149.398 474.952 149.314 473.62H154.57C154.594 473.392 154.606 473.2 154.606 472.96C154.606 471.16 153.358 469.816 151.45 469.816C149.53 469.816 148.198 471.124 148.198 473.2C148.198 475.288 149.578 476.608 151.45 476.608C153.082 476.608 154.138 475.672 154.474 474.472ZM156.287 474.7C156.287 476.02 156.947 476.5 158.111 476.5H159.095V475.576H158.291C157.619 475.576 157.379 475.348 157.379 474.7V470.824H159.095V469.924H157.379V468.268H156.287V469.924H155.435V470.824H156.287V474.7ZM165.898 477.544H166.546V476.572C168.178 476.464 169.018 475.324 169.018 474.208C169.018 472.54 167.734 472.192 166.546 471.892V468.964C167.278 469.12 167.674 469.66 167.746 470.176H168.91C168.79 468.964 167.914 468.16 166.546 468.04V467.044H165.898V468.04C164.398 468.136 163.414 469.06 163.414 470.356C163.414 472.012 164.698 472.36 165.898 472.672V475.672C165.046 475.54 164.65 474.952 164.59 474.328H163.426C163.45 475.6 164.458 476.44 165.898 476.572V477.544ZM167.926 474.268C167.926 474.988 167.434 475.588 166.546 475.684V472.852C167.314 473.08 167.926 473.416 167.926 474.268ZM164.53 470.296C164.53 469.444 165.094 469.012 165.898 468.94V471.712C165.13 471.472 164.53 471.148 164.53 470.296ZM171.766 476.5H172.87V467.824H170.614V468.82H171.766V476.5ZM177.717 473.188C177.717 475.228 179.073 476.608 180.837 476.608C182.037 476.608 182.889 475.996 183.285 475.264V476.5H184.389V467.62H183.285V471.1C182.829 470.344 181.881 469.816 180.849 469.816C179.073 469.816 177.717 471.136 177.717 473.188ZM183.285 473.2C183.285 474.748 182.253 475.648 181.053 475.648C179.853 475.648 178.833 474.736 178.833 473.188C178.833 471.64 179.853 470.764 181.053 470.764C182.253 470.764 183.285 471.676 183.285 473.2ZM186.235 476.5H187.327V469.924H186.235V476.5ZM186.799 468.856C187.195 468.856 187.519 468.532 187.519 468.112C187.519 467.692 187.195 467.368 186.799 467.368C186.379 467.368 186.055 467.692 186.055 468.112C186.055 468.532 186.379 468.856 186.799 468.856ZM193.916 474.712C193.868 472.36 190.052 473.212 190.052 471.652C190.052 471.124 190.532 470.74 191.336 470.74C192.212 470.74 192.716 471.22 192.764 471.88H193.856C193.784 470.596 192.824 469.816 191.372 469.816C189.908 469.816 188.96 470.644 188.96 471.652C188.96 474.1 192.848 473.248 192.848 474.712C192.848 475.252 192.368 475.684 191.504 475.684C190.58 475.684 190.016 475.204 189.956 474.568H188.828C188.9 475.768 189.98 476.608 191.516 476.608C192.968 476.608 193.916 475.792 193.916 474.712ZM195.049 473.2C195.049 475.288 196.381 476.608 198.253 476.608C199.885 476.608 200.953 475.696 201.289 474.388H200.113C199.873 475.216 199.225 475.684 198.253 475.684C197.053 475.684 196.165 474.832 196.165 473.2C196.165 471.592 197.053 470.74 198.253 470.74C199.225 470.74 199.885 471.244 200.113 472.036H201.289C200.953 470.656 199.885 469.816 198.253 469.816C196.381 469.816 195.049 471.136 195.049 473.2ZM208.987 473.2C208.987 471.124 207.535 469.816 205.663 469.816C203.803 469.816 202.339 471.124 202.339 473.2C202.339 475.288 203.755 476.608 205.615 476.608C207.487 476.608 208.987 475.288 208.987 473.2ZM203.455 473.2C203.455 471.544 204.499 470.764 205.651 470.764C206.779 470.764 207.871 471.544 207.871 473.2C207.871 474.868 206.755 475.648 205.615 475.648C204.475 475.648 203.455 474.868 203.455 473.2ZM216.254 469.924H215.162V473.536C215.162 474.952 214.406 475.648 213.278 475.648C212.174 475.648 211.442 474.964 211.442 473.632V469.924H210.362V473.776C210.362 475.66 211.55 476.596 213.062 476.596C213.938 476.596 214.742 476.212 215.162 475.528V476.5H216.254V469.924ZM222.91 476.5H223.99V472.624C223.99 470.74 222.826 469.804 221.302 469.804C220.414 469.804 219.622 470.176 219.19 470.86V469.924H218.098V476.5H219.19V472.864C219.19 471.448 219.958 470.752 221.074 470.752C222.178 470.752 222.91 471.436 222.91 472.78V476.5ZM226.014 474.7C226.014 476.02 226.674 476.5 227.838 476.5H228.822V475.576H228.018C227.346 475.576 227.106 475.348 227.106 474.7V470.824H228.822V469.924H227.106V468.268H226.014V469.924H225.162V470.824H226.014V474.7Z" fill="#656565"/>
<path d="M131.099 468.758V466.439L128.767 465.273L126.499 463.005L124.22 463.574L121.941 463.005L119.673 465.273L117.341 466.439V468.758L116.22 471L117.341 473.242V475.561L119.674 476.727L121.942 478.995L124.22 478.425L126.499 478.994L128.767 476.726L131.1 475.56V473.241L132.22 471L131.099 468.758ZM130.041 472.992V474.905L128.22 475.818L126.178 477.818L124.22 477.333L122.265 477.822L120.36 475.917L118.398 474.905V472.992L117.403 471L118.399 469.005V467.093L120.22 466.181L122.263 464.181L124.22 464.666L126.175 464.177L128.08 466.082L130.042 467.094V469.005L131.036 470.997L130.041 472.992Z" fill="black"/>
<path d="M127.013 467.461L120.681 473.793L121.427 474.539L127.759 468.207L127.013 467.461Z" fill="black"/>
<path d="M122.102 470.464C122.415 470.464 122.721 470.371 122.981 470.197C123.242 470.023 123.445 469.776 123.564 469.487C123.684 469.198 123.716 468.879 123.655 468.572C123.593 468.265 123.443 467.983 123.221 467.762C123 467.54 122.718 467.39 122.411 467.328C122.104 467.267 121.785 467.299 121.496 467.419C121.207 467.538 120.96 467.741 120.786 468.002C120.612 468.262 120.519 468.568 120.519 468.881C120.519 469.301 120.686 469.703 120.983 470C121.28 470.297 121.682 470.463 122.102 470.464ZM122.102 468.353C122.206 468.353 122.308 468.384 122.395 468.442C122.482 468.5 122.55 468.582 122.59 468.679C122.63 468.775 122.64 468.882 122.62 468.984C122.599 469.086 122.549 469.181 122.475 469.254C122.401 469.328 122.307 469.378 122.205 469.399C122.103 469.419 121.996 469.409 121.9 469.369C121.803 469.329 121.721 469.261 121.663 469.174C121.605 469.088 121.574 468.985 121.574 468.881C121.574 468.741 121.63 468.607 121.729 468.508C121.828 468.409 121.962 468.353 122.102 468.353Z" fill="black"/>
<path d="M126.338 471.535C126.025 471.535 125.719 471.628 125.459 471.802C125.198 471.976 124.995 472.223 124.876 472.512C124.756 472.801 124.724 473.12 124.785 473.427C124.847 473.734 124.997 474.016 125.219 474.237C125.44 474.459 125.722 474.61 126.029 474.671C126.336 474.732 126.655 474.7 126.944 474.581C127.233 474.461 127.48 474.258 127.654 473.997C127.828 473.737 127.921 473.431 127.921 473.118C127.92 472.698 127.754 472.296 127.457 471.999C127.16 471.702 126.758 471.536 126.338 471.535ZM126.338 473.646C126.234 473.646 126.131 473.615 126.045 473.557C125.958 473.499 125.89 473.417 125.85 473.32C125.81 473.224 125.8 473.117 125.82 473.015C125.841 472.913 125.891 472.818 125.965 472.745C126.038 472.671 126.133 472.621 126.235 472.6C126.337 472.58 126.444 472.59 126.54 472.63C126.637 472.67 126.719 472.738 126.777 472.825C126.835 472.911 126.866 473.014 126.866 473.118C126.866 473.258 126.81 473.392 126.711 473.491C126.612 473.59 126.478 473.646 126.338 473.646Z" fill="black"/>
<path d="M76 446C76 434.954 67.0457 426 56 426C44.9543 426 36 434.954 36 446C36 457.046 44.9543 466 56 466C67.0457 466 76 457.046 76 446Z" fill="#8F00FF"/>
<path d="M64 438.667H48C47.4696 438.667 46.9609 438.878 46.5858 439.253C46.2107 439.628 46 440.137 46 440.667V451.334C46 451.864 46.2107 452.373 46.5858 452.748C46.9609 453.123 47.4696 453.334 48 453.334H64C64.5304 453.334 65.0391 453.123 65.4142 452.748C65.7893 452.373 66 451.864 66 451.334V440.667C66 440.137 65.7893 439.628 65.4142 439.253C65.0391 438.878 64.5304 438.667 64 438.667ZM48 440H64C64.1769 440 64.3466 440.07 64.4716 440.195C64.5967 440.32 64.667 440.49 64.667 440.667V442.667H47.333V440.667C47.333 440.49 47.4033 440.32 47.5284 440.195C47.6534 440.07 47.8231 440 48 440ZM64 452H48C47.9124 452 47.8257 451.983 47.7448 451.949C47.6638 451.916 47.5903 451.867 47.5284 451.805C47.4664 451.743 47.4173 451.669 47.3838 451.588C47.3503 451.507 47.333 451.421 47.333 451.333V444H64.667V451.333C64.667 451.51 64.5967 451.68 64.4716 451.805C64.3466 451.93 64.1769 452 64 452Z" fill="white"/>
<path d="M62.301 449.216H59.341C59.1447 449.216 58.9565 449.294 58.8177 449.433C58.6789 449.572 58.601 449.76 58.601 449.956C58.601 450.152 58.6789 450.34 58.8177 450.479C58.9565 450.618 59.1447 450.696 59.341 450.696H62.301C62.4972 450.696 62.6854 450.618 62.8242 450.479C62.963 450.34 63.041 450.152 63.041 449.956C63.041 449.76 62.963 449.572 62.8242 449.433C62.6854 449.294 62.4972 449.216 62.301 449.216Z" fill="white"/>
<path d="M375 185H0V290H375V185Z" fill="#FAFAFA"/>
<path d="M374.5 185.5H0.5V289.5H374.5V185.5Z" stroke="#EDEDED"/>
<path d="M109.676 233.648C109.676 234.56 109.028 235.1 107.948 235.1H106.016V232.148H107.912C108.98 232.148 109.676 232.724 109.676 233.648ZM109.46 229.892C109.46 230.744 108.872 231.248 107.852 231.248H106.016V228.536H107.828C108.896 228.536 109.46 229.064 109.46 229.892ZM110.768 233.756C110.768 232.724 110.024 231.848 109.112 231.692C109.916 231.428 110.576 230.816 110.576 229.76C110.576 228.596 109.688 227.636 107.924 227.636H104.924V236H108.044C109.772 236 110.768 235.016 110.768 233.756ZM111.875 232.688C111.875 234.728 113.231 236.108 114.983 236.108C116.195 236.108 117.047 235.484 117.443 234.776V236H118.547V229.424H117.443V230.624C117.059 229.94 116.219 229.316 114.995 229.316C113.231 229.316 111.875 230.636 111.875 232.688ZM117.443 232.7C117.443 234.248 116.411 235.148 115.211 235.148C114.011 235.148 112.991 234.236 112.991 232.688C112.991 231.14 114.011 230.264 115.211 230.264C116.411 230.264 117.443 231.176 117.443 232.7ZM120.393 236H121.485V227.12H120.393V236ZM122.938 232.688C122.938 234.728 124.294 236.108 126.046 236.108C127.258 236.108 128.11 235.484 128.506 234.776V236H129.61V229.424H128.506V230.624C128.122 229.94 127.282 229.316 126.058 229.316C124.294 229.316 122.938 230.636 122.938 232.688ZM128.506 232.7C128.506 234.248 127.474 235.148 126.274 235.148C125.074 235.148 124.054 234.236 124.054 232.688C124.054 231.14 125.074 230.264 126.274 230.264C127.474 230.264 128.506 231.176 128.506 232.7ZM136.267 236H137.347V232.124C137.347 230.24 136.183 229.304 134.659 229.304C133.771 229.304 132.979 229.676 132.547 230.36V229.424H131.455V236H132.547V232.364C132.547 230.948 133.315 230.252 134.431 230.252C135.535 230.252 136.267 230.936 136.267 232.28V236ZM138.723 232.7C138.723 234.788 140.055 236.108 141.927 236.108C143.559 236.108 144.627 235.196 144.963 233.888H143.787C143.547 234.716 142.899 235.184 141.927 235.184C140.727 235.184 139.839 234.332 139.839 232.7C139.839 231.092 140.727 230.24 141.927 230.24C142.899 230.24 143.559 230.744 143.787 231.536H144.963C144.627 230.156 143.559 229.316 141.927 229.316C140.055 229.316 138.723 230.636 138.723 232.7ZM149.216 230.24C150.344 230.24 151.304 230.948 151.292 232.232H147.14C147.26 230.948 148.148 230.24 149.216 230.24ZM152.288 233.972H151.112C150.872 234.68 150.248 235.184 149.264 235.184C148.148 235.184 147.212 234.452 147.128 233.12H152.384C152.408 232.892 152.42 232.7 152.42 232.46C152.42 230.66 151.172 229.316 149.264 229.316C147.344 229.316 146.012 230.624 146.012 232.7C146.012 234.788 147.392 236.108 149.264 236.108C150.896 236.108 151.952 235.172 152.288 233.972ZM158.129 235.328C158.129 234.908 157.805 234.584 157.409 234.584C156.989 234.584 156.665 234.908 156.665 235.328C156.665 235.748 156.989 236.072 157.409 236.072C157.805 236.072 158.129 235.748 158.129 235.328ZM158.129 230.192C158.129 229.772 157.805 229.448 157.409 229.448C156.989 229.448 156.665 229.772 156.665 230.192C156.665 230.612 156.989 230.936 157.409 230.936C157.805 230.936 158.129 230.612 158.129 230.192ZM165.095 237.044H165.743V236.072C167.375 235.964 168.215 234.824 168.215 233.708C168.215 232.04 166.931 231.692 165.743 231.392V228.464C166.475 228.62 166.871 229.16 166.943 229.676H168.107C167.987 228.464 167.111 227.66 165.743 227.54V226.544H165.095V227.54C163.595 227.636 162.611 228.56 162.611 229.856C162.611 231.512 163.895 231.86 165.095 232.172V235.172C164.243 235.04 163.847 234.452 163.787 233.828H162.623C162.647 235.1 163.655 235.94 165.095 236.072V237.044ZM167.123 233.768C167.123 234.488 166.631 235.088 165.743 235.184V232.352C166.511 232.58 167.123 232.916 167.123 233.768ZM163.727 229.796C163.727 228.944 164.291 228.512 165.095 228.44V231.212C164.327 230.972 163.727 230.648 163.727 229.796ZM169.967 235.904H175.739V234.992H171.611C173.159 233.732 175.487 231.896 175.487 229.736C175.487 228.128 174.431 227.168 172.799 227.168C171.239 227.168 170.075 228.128 170.003 229.976H171.059C171.107 228.884 171.683 228.104 172.811 228.104C173.987 228.104 174.407 228.824 174.407 229.784C174.407 231.56 172.247 233.288 169.967 235.124V235.904ZM177.314 227.312V232.208H178.346C178.634 231.524 179.27 231.068 180.146 231.068C181.406 231.068 182.042 231.788 182.042 233.024C182.042 234.212 181.454 235.1 180.134 235.1C179.114 235.1 178.406 234.56 178.202 233.648H177.134C177.35 235.052 178.394 236.024 180.122 236.024C182.15 236.024 183.086 234.68 183.086 233C183.086 231.656 182.414 230.132 180.302 230.132C179.45 230.132 178.682 230.516 178.322 231.008V228.272H182.534V227.312H177.314ZM184.537 231.572C184.537 234.092 185.161 236 187.561 236C189.949 236 190.573 234.092 190.573 231.572C190.573 229.088 189.949 227.192 187.561 227.192C185.161 227.192 184.537 229.088 184.537 231.572ZM189.493 231.572C189.493 233.444 189.265 235.004 187.561 235.004C185.845 235.004 185.617 233.444 185.617 231.572C185.617 229.772 185.845 228.188 187.561 228.188C189.265 228.188 189.493 229.772 189.493 231.572ZM191.304 237.716H192.036L193.38 234.488H192.18L191.304 237.716ZM194.451 231.572C194.451 234.092 195.075 236 197.475 236C199.863 236 200.487 234.092 200.487 231.572C200.487 229.088 199.863 227.192 197.475 227.192C195.075 227.192 194.451 229.088 194.451 231.572ZM199.407 231.572C199.407 233.444 199.179 235.004 197.475 235.004C195.759 235.004 195.531 233.444 195.531 231.572C195.531 229.772 195.759 228.188 197.475 228.188C199.179 228.188 199.407 229.772 199.407 231.572ZM201.986 231.572C201.986 234.092 202.61 236 205.01 236C207.398 236 208.022 234.092 208.022 231.572C208.022 229.088 207.398 227.192 205.01 227.192C202.61 227.192 201.986 229.088 201.986 231.572ZM206.942 231.572C206.942 233.444 206.714 235.004 205.01 235.004C203.294 235.004 203.066 233.444 203.066 231.572C203.066 229.772 203.294 228.188 205.01 228.188C206.714 228.188 206.942 229.772 206.942 231.572Z" fill="#656565"/>
<path d="M110.412 211.116C110.412 211.942 109.852 212.404 108.9 212.404H106.926V209.772H108.858C109.81 209.772 110.412 210.276 110.412 211.116ZM110.174 207.042C110.174 207.84 109.642 208.26 108.718 208.26H106.926V205.81H108.718C109.642 205.81 110.174 206.258 110.174 207.042ZM112.4 211.354C112.4 210.206 111.616 209.184 110.51 208.988C111.462 208.68 112.176 207.938 112.176 206.748C112.176 205.292 111.042 204.228 108.998 204.228H104.966V214H109.18C111.21 214 112.4 212.908 112.4 211.354ZM117.294 207.728C118.302 207.728 119.114 208.372 119.142 209.394H115.46C115.614 208.33 116.356 207.728 117.294 207.728ZM120.976 211.564H118.862C118.61 212.082 118.148 212.502 117.308 212.502C116.328 212.502 115.544 211.858 115.446 210.71H121.116C121.158 210.458 121.172 210.206 121.172 209.954C121.172 207.644 119.59 206.118 117.35 206.118C115.054 206.118 113.458 207.672 113.458 210.122C113.458 212.558 115.096 214.126 117.35 214.126C119.268 214.126 120.556 212.992 120.976 211.564ZM124.563 208.666V205.824H126.117C127.223 205.824 127.713 206.356 127.713 207.252C127.713 208.12 127.223 208.666 126.117 208.666H124.563ZM129.729 207.252C129.729 205.558 128.553 204.228 126.201 204.228H122.603V214H124.563V210.248H126.201C128.721 210.248 129.729 208.736 129.729 207.252ZM130.616 210.094C130.616 212.516 132.184 214.126 134.144 214.126C135.376 214.126 136.258 213.538 136.72 212.866V214H138.694V206.244H136.72V207.35C136.258 206.706 135.404 206.118 134.158 206.118C132.184 206.118 130.616 207.672 130.616 210.094ZM136.72 210.122C136.72 211.592 135.74 212.404 134.662 212.404C133.612 212.404 132.618 211.564 132.618 210.094C132.618 208.624 133.612 207.84 134.662 207.84C135.74 207.84 136.72 208.652 136.72 210.122ZM143.913 211.662L141.911 206.244H139.713L142.821 213.804L141.141 217.668H143.227L148.029 206.244H145.943L143.913 211.662Z" fill="black"/>
<path d="M341 252C348.732 252 355 245.732 355 238C355 230.268 348.732 224 341 224C333.268 224 327 230.268 327 238C327 245.732 333.268 252 341 252Z" fill="white"/>
<path d="M341 248C346.523 248 351 243.523 351 238C351 232.477 346.523 228 341 228C335.477 228 331 232.477 331 238C331 243.523 335.477 248 341 248Z" stroke="#8F00FF" stroke-width="8"/>
<path d="M227 249H118C110.268 249 104 255.268 104 263C104 270.732 110.268 277 118 277H227C234.732 277 241 270.732 241 263C241 255.268 234.732 249 227 249Z" fill="#FAFAFA" stroke="#EDEDED"/>
<path d="M143.058 260.04C140.706 260.04 138.858 261.804 138.858 264.312C138.858 266.82 140.706 268.572 143.058 268.572C145.326 268.572 146.97 266.904 147.162 264.828V263.988H142.662V264.876H145.998C145.83 266.532 144.702 267.588 143.058 267.588C141.294 267.588 139.974 266.316 139.974 264.312C139.974 262.296 141.294 261.024 143.058 261.024C144.234 261.024 145.146 261.588 145.602 262.56H146.91C146.286 260.952 144.822 260.04 143.058 260.04ZM151.402 262.74C152.53 262.74 153.49 263.448 153.478 264.732H149.326C149.446 263.448 150.334 262.74 151.402 262.74ZM154.474 266.472H153.298C153.058 267.18 152.434 267.684 151.45 267.684C150.334 267.684 149.398 266.952 149.314 265.62H154.57C154.594 265.392 154.606 265.2 154.606 264.96C154.606 263.16 153.358 261.816 151.45 261.816C149.53 261.816 148.198 263.124 148.198 265.2C148.198 267.288 149.578 268.608 151.45 268.608C153.082 268.608 154.138 267.672 154.474 266.472ZM156.287 266.7C156.287 268.02 156.947 268.5 158.111 268.5H159.095V267.576H158.291C157.619 267.576 157.379 267.348 157.379 266.7V262.824H159.095V261.924H157.379V260.268H156.287V261.924H155.435V262.824H156.287V266.7ZM165.898 269.544H166.546V268.572C168.178 268.464 169.018 267.324 169.018 266.208C169.018 264.54 167.734 264.192 166.546 263.892V260.964C167.278 261.12 167.674 261.66 167.746 262.176H168.91C168.79 260.964 167.914 260.16 166.546 260.04V259.044H165.898V260.04C164.398 260.136 163.414 261.06 163.414 262.356C163.414 264.012 164.698 264.36 165.898 264.672V267.672C165.046 267.54 164.65 266.952 164.59 266.328H163.426C163.45 267.6 164.458 268.44 165.898 268.572V269.544ZM167.926 266.268C167.926 266.988 167.434 267.588 166.546 267.684V264.852C167.314 265.08 167.926 265.416 167.926 266.268ZM164.53 262.296C164.53 261.444 165.094 261.012 165.898 260.94V263.712C165.13 263.472 164.53 263.148 164.53 262.296ZM171.766 268.5H172.87V259.824H170.614V260.82H171.766V268.5ZM177.717 265.188C177.717 267.228 179.073 268.608 180.837 268.608C182.037 268.608 182.889 267.996 183.285 267.264V268.5H184.389V259.62H183.285V263.1C182.829 262.344 181.881 261.816 180.849 261.816C179.073 261.816 177.717 263.136 177.717 265.188ZM183.285 265.2C183.285 266.748 182.253 267.648 181.053 267.648C179.853 267.648 178.833 266.736 178.833 265.188C178.833 263.64 179.853 262.764 181.053 262.764C182.253 262.764 183.285 263.676 183.285 265.2ZM186.235 268.5H187.327V261.924H186.235V268.5ZM186.799 260.856C187.195 260.856 187.519 260.532 187.519 260.112C187.519 259.692 187.195 259.368 186.799 259.368C186.379 259.368 186.055 259.692 186.055 260.112C186.055 260.532 186.379 260.856 186.799 260.856ZM193.916 266.712C193.868 264.36 190.052 265.212 190.052 263.652C190.052 263.124 190.532 262.74 191.336 262.74C192.212 262.74 192.716 263.22 192.764 263.88H193.856C193.784 262.596 192.824 261.816 191.372 261.816C189.908 261.816 188.96 262.644 188.96 263.652C188.96 266.1 192.848 265.248 192.848 266.712C192.848 267.252 192.368 267.684 191.504 267.684C190.58 267.684 190.016 267.204 189.956 266.568H188.828C188.9 267.768 189.98 268.608 191.516 268.608C192.968 268.608 193.916 267.792 193.916 266.712ZM195.049 265.2C195.049 267.288 196.381 268.608 198.253 268.608C199.885 268.608 200.953 267.696 201.289 266.388H200.113C199.873 267.216 199.225 267.684 198.253 267.684C197.053 267.684 196.165 266.832 196.165 265.2C196.165 263.592 197.053 262.74 198.253 262.74C199.225 262.74 199.885 263.244 200.113 264.036H201.289C200.953 262.656 199.885 261.816 198.253 261.816C196.381 261.816 195.049 263.136 195.049 265.2ZM208.987 265.2C208.987 263.124 207.535 261.816 205.663 261.816C203.803 261.816 202.339 263.124 202.339 265.2C202.339 267.288 203.755 268.608 205.615 268.608C207.487 268.608 208.987 267.288 208.987 265.2ZM203.455 265.2C203.455 263.544 204.499 262.764 205.651 262.764C206.779 262.764 207.871 263.544 207.871 265.2C207.871 266.868 206.755 267.648 205.615 267.648C204.475 267.648 203.455 266.868 203.455 265.2ZM216.254 261.924H215.162V265.536C215.162 266.952 214.406 267.648 213.278 267.648C212.174 267.648 211.442 266.964 211.442 265.632V261.924H210.362V265.776C210.362 267.66 211.55 268.596 213.062 268.596C213.938 268.596 214.742 268.212 215.162 267.528V268.5H216.254V261.924ZM222.91 268.5H223.99V264.624C223.99 262.74 222.826 261.804 221.302 261.804C220.414 261.804 219.622 262.176 219.19 262.86V261.924H218.098V268.5H219.19V264.864C219.19 263.448 219.958 262.752 221.074 262.752C222.178 262.752 222.91 263.436 222.91 264.78V268.5ZM226.014 266.7C226.014 268.02 226.674 268.5 227.838 268.5H228.822V267.576H228.018C227.346 267.576 227.106 267.348 227.106 266.7V262.824H228.822V261.924H227.106V260.268H226.014V261.924H225.162V262.824H226.014V266.7Z" fill="#656565"/>
<path d="M131.099 260.758V258.439L128.767 257.273L126.499 255.005L124.22 255.574L121.941 255.005L119.673 257.273L117.341 258.439V260.758L116.22 263L117.341 265.242V267.561L119.674 268.727L121.942 270.995L124.22 270.425L126.499 270.994L128.767 268.726L131.1 267.56V265.241L132.22 263L131.099 260.758ZM130.041 264.992V266.905L128.22 267.818L126.178 269.818L124.22 269.333L122.265 269.822L120.36 267.917L118.398 266.905V264.992L117.403 263L118.399 261.005V259.093L120.22 258.181L122.263 256.181L124.22 256.666L126.175 256.177L128.08 258.082L130.042 259.094V261.005L131.036 262.997L130.041 264.992Z" fill="black"/>
<path d="M127.013 259.461L120.681 265.793L121.427 266.539L127.759 260.207L127.013 259.461Z" fill="black"/>
<path d="M122.102 262.464C122.415 262.464 122.721 262.371 122.981 262.197C123.242 262.023 123.445 261.776 123.564 261.487C123.684 261.198 123.716 260.879 123.655 260.572C123.593 260.265 123.443 259.983 123.221 259.762C123 259.54 122.718 259.39 122.411 259.328C122.104 259.267 121.785 259.299 121.496 259.419C121.207 259.538 120.96 259.741 120.786 260.002C120.612 260.262 120.519 260.568 120.519 260.881C120.519 261.301 120.686 261.703 120.983 262C121.28 262.297 121.682 262.463 122.102 262.464ZM122.102 260.353C122.206 260.353 122.308 260.384 122.395 260.442C122.482 260.5 122.55 260.582 122.59 260.679C122.63 260.775 122.64 260.882 122.62 260.984C122.599 261.086 122.549 261.181 122.475 261.254C122.401 261.328 122.307 261.378 122.205 261.399C122.103 261.419 121.996 261.409 121.9 261.369C121.803 261.329 121.721 261.261 121.663 261.174C121.605 261.088 121.574 260.985 121.574 260.881C121.574 260.741 121.63 260.607 121.729 260.508C121.828 260.409 121.962 260.353 122.102 260.353Z" fill="black"/>
<path d="M126.338 263.535C126.025 263.535 125.719 263.628 125.459 263.802C125.198 263.976 124.995 264.223 124.876 264.512C124.756 264.801 124.724 265.12 124.785 265.427C124.847 265.734 124.997 266.016 125.219 266.237C125.44 266.459 125.722 266.61 126.029 266.671C126.336 266.732 126.655 266.7 126.944 266.581C127.233 266.461 127.48 266.258 127.654 265.997C127.828 265.737 127.921 265.431 127.921 265.118C127.92 264.698 127.754 264.296 127.457 263.999C127.16 263.702 126.758 263.536 126.338 263.535ZM126.338 265.646C126.234 265.646 126.131 265.615 126.045 265.557C125.958 265.499 125.89 265.417 125.85 265.32C125.81 265.224 125.8 265.117 125.82 265.015C125.841 264.913 125.891 264.818 125.965 264.745C126.038 264.671 126.133 264.621 126.235 264.6C126.337 264.58 126.444 264.59 126.54 264.63C126.637 264.67 126.719 264.738 126.777 264.825C126.835 264.911 126.866 265.014 126.866 265.118C126.866 265.258 126.81 265.392 126.711 265.491C126.612 265.59 126.478 265.646 126.338 265.646Z" fill="black"/>
<path d="M76 238C76 226.954 67.0457 218 56 218C44.9543 218 36 226.954 36 238C36 249.046 44.9543 258 56 258C67.0457 258 76 249.046 76 238Z" fill="#8F00FF"/>
<path d="M55.408 236.68C55.2907 237.341 55.0133 237.891 54.576 238.328C54.1493 238.755 53.6267 239.064 53.008 239.256C53.5307 239.341 53.9573 239.597 54.288 240.024C54.6187 240.44 54.784 240.936 54.784 241.512C54.784 241.683 54.768 241.848 54.736 242.008C54.64 242.573 54.4053 243.085 54.032 243.544C53.6693 243.992 53.1893 244.349 52.592 244.616C51.9947 244.872 51.3227 245 50.576 245H46.416L48.4 233.848H52.4C53.4027 233.848 54.16 234.061 54.672 234.488C55.1947 234.915 55.456 235.469 55.456 236.152C55.456 236.323 55.44 236.499 55.408 236.68ZM53.904 236.856C53.9253 236.76 53.936 236.627 53.936 236.456C53.936 235.997 53.776 235.64 53.456 235.384C53.136 235.128 52.672 235 52.064 235H49.648L48.992 238.696H51.44C52.112 238.696 52.6667 238.536 53.104 238.216C53.5413 237.885 53.808 237.432 53.904 236.856ZM53.296 241.864C53.328 241.715 53.344 241.576 53.344 241.448C53.344 240.957 53.1627 240.568 52.8 240.28C52.4373 239.992 51.9413 239.848 51.312 239.848H48.784L48.08 243.848H50.656C51.3707 243.848 51.9627 243.672 52.432 243.32C52.9013 242.968 53.1893 242.483 53.296 241.864ZM61.5885 236.088C62.3245 236.088 62.9592 236.232 63.4925 236.52C64.0365 236.797 64.4472 237.192 64.7245 237.704C65.0125 238.205 65.1565 238.781 65.1565 239.432C65.1565 239.656 65.1298 239.928 65.0765 240.248C65.0338 240.525 64.9645 240.813 64.8685 241.112H57.8605C57.8392 241.325 57.8285 241.48 57.8285 241.576C57.8285 242.312 58.0472 242.888 58.4845 243.304C58.9325 243.709 59.5138 243.912 60.2285 243.912C60.8578 243.912 61.4072 243.768 61.8765 243.48C62.3565 243.181 62.7192 242.787 62.9645 242.296H64.5325C64.1485 243.139 63.5565 243.827 62.7565 244.36C61.9672 244.883 61.0498 245.144 60.0045 245.144C58.9058 245.144 58.0205 244.829 57.3485 244.2C56.6872 243.56 56.3565 242.691 56.3565 241.592C56.3565 241.283 56.3885 240.952 56.4525 240.6C56.6125 239.693 56.9378 238.899 57.4285 238.216C57.9192 237.533 58.5218 237.011 59.2365 236.648C59.9618 236.275 60.7458 236.088 61.5885 236.088ZM63.6045 240.056C63.6365 239.843 63.6525 239.645 63.6525 239.464C63.6525 238.781 63.4338 238.253 62.9965 237.88C62.5698 237.507 62.0098 237.32 61.3165 237.32C60.5698 237.32 59.8925 237.565 59.2845 238.056C58.6765 238.536 58.2658 239.203 58.0525 240.056H63.6045Z" fill="white"/>
<path d="M112.762 62.142V58.488H114.76C116.182 58.488 116.812 59.172 116.812 60.324C116.812 61.44 116.182 62.142 114.76 62.142H112.762ZM119.404 60.324C119.404 58.146 117.892 56.436 114.868 56.436H110.242V69H112.762V64.176H114.868C118.108 64.176 119.404 62.232 119.404 60.324ZM120.545 63.978C120.545 67.092 122.561 69.162 125.081 69.162C126.665 69.162 127.799 68.406 128.393 67.542V69H130.931V59.028H128.393V60.45C127.799 59.622 126.701 58.866 125.099 58.866C122.561 58.866 120.545 60.864 120.545 63.978ZM128.393 64.014C128.393 65.904 127.133 66.948 125.747 66.948C124.397 66.948 123.119 65.868 123.119 63.978C123.119 62.088 124.397 61.08 125.747 61.08C127.133 61.08 128.393 62.124 128.393 64.014ZM137.64 65.994L135.066 59.028H132.24L136.236 68.748L134.076 73.716H136.758L142.932 59.028H140.25L137.64 65.994ZM158.241 69H160.761V63.15C160.761 60.396 159.069 58.884 156.675 58.884C155.217 58.884 153.903 59.658 153.255 60.792C152.571 59.55 151.293 58.884 149.745 58.884C148.503 58.884 147.441 59.406 146.811 60.234V59.028H144.291V69H146.811V63.492C146.811 61.908 147.693 61.08 149.061 61.08C150.393 61.08 151.275 61.908 151.275 63.492V69H153.795V63.492C153.795 61.908 154.677 61.08 156.027 61.08C157.359 61.08 158.241 61.908 158.241 63.492V69ZM167.436 60.936C168.732 60.936 169.776 61.764 169.812 63.078H165.078C165.276 61.71 166.23 60.936 167.436 60.936ZM172.17 65.868H169.452C169.128 66.534 168.534 67.074 167.454 67.074C166.194 67.074 165.186 66.246 165.06 64.77H172.35C172.404 64.446 172.422 64.122 172.422 63.798C172.422 60.828 170.388 58.866 167.508 58.866C164.556 58.866 162.504 60.864 162.504 64.014C162.504 67.146 164.61 69.162 167.508 69.162C169.974 69.162 171.63 67.704 172.17 65.868ZM181.246 69H183.766V63.15C183.766 60.396 182.11 58.884 179.788 58.884C178.51 58.884 177.43 59.424 176.782 60.27V59.028H174.262V69H176.782V63.492C176.782 61.89 177.664 61.026 179.032 61.026C180.364 61.026 181.246 61.89 181.246 63.492V69ZM186.558 65.904C186.558 68.19 187.836 69 189.744 69H191.328V66.876H190.158C189.366 66.876 189.096 66.588 189.096 65.922V61.098H191.328V59.028H189.096V56.562H186.558V59.028H185.37V61.098H186.558V65.904ZM197.43 69H199.95V60.828L203.334 69H205.242L208.608 60.828V69H211.128V56.436H208.284L204.288 65.778L200.292 56.436H197.43V69ZM217.903 60.936C219.199 60.936 220.243 61.764 220.279 63.078H215.545C215.743 61.71 216.697 60.936 217.903 60.936ZM222.637 65.868H219.919C219.595 66.534 219.001 67.074 217.921 67.074C216.661 67.074 215.653 66.246 215.527 64.77H222.817C222.871 64.446 222.889 64.122 222.889 63.798C222.889 60.828 220.855 58.866 217.975 58.866C215.023 58.866 212.971 60.864 212.971 64.014C212.971 67.146 215.077 69.162 217.975 69.162C220.441 69.162 222.097 67.704 222.637 65.868ZM225.124 65.904C225.124 68.19 226.402 69 228.31 69H229.894V66.876H228.724C227.932 66.876 227.662 66.588 227.662 65.922V61.098H229.894V59.028H227.662V56.562H225.124V59.028H223.936V61.098H225.124V65.904ZM231.707 69H234.227V63.492C234.227 61.89 235.109 61.026 236.477 61.026C237.809 61.026 238.691 61.89 238.691 63.492V69H241.211V63.15C241.211 60.396 239.573 58.884 237.323 58.884C235.991 58.884 234.875 59.424 234.227 60.27V55.68H231.707V69ZM253.237 64.014C253.237 60.864 250.987 58.866 248.107 58.866C245.227 58.866 242.977 60.864 242.977 64.014C242.977 67.146 245.155 69.162 248.035 69.162C250.933 69.162 253.237 67.146 253.237 64.014ZM245.533 64.014C245.533 62.016 246.739 61.062 248.071 61.062C249.403 61.062 250.645 62.016 250.645 64.014C250.645 65.994 249.367 66.966 248.035 66.966C246.685 66.966 245.533 65.994 245.533 64.014ZM254.438 63.978C254.438 67.092 256.454 69.162 258.992 69.162C260.558 69.162 261.674 68.442 262.268 67.524V69H264.824V55.68H262.268V60.414C261.584 59.478 260.324 58.866 259.01 58.866C256.454 58.866 254.438 60.864 254.438 63.978ZM262.286 64.014C262.286 65.904 261.026 66.948 259.64 66.948C258.29 66.948 257.012 65.868 257.012 63.978C257.012 62.088 258.29 61.08 259.64 61.08C261.026 61.08 262.286 62.124 262.286 64.014Z" fill="white"/>
<path d="M76 63C76 51.9543 67.0457 43 56 43C44.9543 43 36 51.9543 36 63C36 74.0457 44.9543 83 56 83C67.0457 83 76 74.0457 76 63Z" fill="white"/>
<path d="M50.336 57.336C50.2296 57.4423 50.1452 57.5684 50.0876 57.7073C50.03 57.8462 50.0004 57.9951 50.0004 58.1455C50.0004 58.2959 50.03 58.4448 50.0876 58.5837C50.1452 58.7226 50.2296 58.8488 50.336 58.955L54.382 63.001L50.336 67.043C50.2297 67.1493 50.1454 67.2755 50.0878 67.4144C50.0303 67.5533 50.0007 67.7022 50.0007 67.8525C50.0007 68.0028 50.0303 68.1517 50.0878 68.2906C50.1454 68.4295 50.2297 68.5557 50.336 68.662C50.4423 68.7683 50.5685 68.8526 50.7074 68.9102C50.8463 68.9677 50.9952 68.9973 51.1455 68.9973C51.2958 68.9973 51.4447 68.9677 51.5836 68.9102C51.7225 68.8526 51.8487 68.7683 51.955 68.662L56.001 64.616L60.043 68.665C60.1495 68.7715 60.2759 68.856 60.4151 68.9136C60.5542 68.9713 60.7034 69.0009 60.854 69.0009C61.0046 69.0009 61.1538 68.9713 61.2929 68.9136C61.4321 68.856 61.5585 68.7715 61.665 68.665C61.7715 68.5585 61.856 68.4321 61.9136 68.2929C61.9713 68.1538 62.0009 68.0046 62.0009 67.854C62.0009 67.7034 61.9713 67.5543 61.9136 67.4151C61.856 67.2759 61.7715 67.1495 61.665 67.043L57.619 62.997L61.665 58.951C61.8792 58.7359 61.9991 58.4446 61.9985 58.141C61.9978 57.8375 61.8766 57.5467 61.6615 57.3325C61.4464 57.1183 61.1551 56.9984 60.8515 56.9991C60.548 56.9997 60.2572 57.1209 60.043 57.336L55.997 61.382L51.954 57.336C51.8478 57.2298 51.7217 57.1455 51.5828 57.088C51.444 57.0305 51.2953 57.0009 51.145 57.0009C50.9948 57.0009 50.846 57.0305 50.7072 57.088C50.5684 57.1455 50.4422 57.2298 50.336 57.336Z" fill="black"/>
</g>
<defs>
<filter id="filter0_d_1_261" x="36" y="729" width="64" height="64" filterUnits="userSpaceOnUse" color-interpolation-filters="sRGB">
<feFlood flood-opacity="0" result="BackgroundImageFix"/>
<feColorMatrix in="SourceAlpha" type="matrix" values="0 0 0 0 0 0 0 0 0 0 0 0 0 0 0 0 0 0 127 0" result="hardAlpha"/>
<feOffset dy="5"/>
<feGaussianBlur stdDeviation="5"/>
<feColorMatrix type="matrix" values="0 0 0 0 0 0 0 0 0 0 0 0 0 0 0 0 0 0 0.102 0"/>
<feBlend mode="normal" in2="BackgroundImageFix" result="effect1_dropShadow_1_261"/>
<feBlend mode="normal" in="SourceGraphic" in2="effect1_dropShadow_1_261" result="shape"/>
</filter>
<clipPath id="clip0_1_261">
<rect width="375" height="812" fill="white"/>
</clipPath>
</defs>
</svg>
