<svg width="375" height="812" viewBox="0 0 375 812" fill="none" xmlns="http://www.w3.org/2000/svg">
<g clip-path="url(#clip0_1_576)">
<path d="M375 0H0V812H375V0Z" fill="#8F00FF"/>
<path d="M30 103H346C353.956 103 361.587 106.161 367.213 111.787C372.839 117.413 376 125.044 376 133V812H0V133C0 125.044 3.16071 117.413 8.7868 111.787C14.4129 106.161 22.0435 103 30 103V103Z" fill="white"/>
<path d="M45.144 155H47.664V142.436H45.144V147.602H39.762V142.436H37.242V155H39.762V149.654H45.144V155ZM50.1443 155H52.6643V145.028H50.1443V155ZM51.4223 143.84C52.3043 143.84 52.9703 143.192 52.9703 142.364C52.9703 141.536 52.3043 140.888 51.4223 140.888C50.5223 140.888 49.8743 141.536 49.8743 142.364C49.8743 143.192 50.5223 143.84 51.4223 143.84ZM62.8941 152.156C62.8221 148.502 57.2961 149.636 57.2961 147.818C57.2961 147.242 57.7821 146.864 58.7181 146.864C59.7081 146.864 60.3201 147.386 60.3921 148.16H62.8041C62.6601 146.18 61.2021 144.866 58.7901 144.866C56.3241 144.866 54.8481 146.198 54.8481 147.854C54.8481 151.508 60.4821 150.374 60.4821 152.156C60.4821 152.732 59.9421 153.182 58.9521 153.182C57.9441 153.182 57.2421 152.606 57.1521 151.85H54.6141C54.7221 153.704 56.4681 155.162 58.9701 155.162C61.4001 155.162 62.8941 153.866 62.8941 152.156ZM65.3587 151.904C65.3587 154.19 66.6367 155 68.5447 155H70.1287V152.876H68.9587C68.1667 152.876 67.8967 152.588 67.8967 151.922V147.098H70.1287V145.028H67.8967V142.562H65.3587V145.028H64.1707V147.098H65.3587V151.904ZM81.5712 150.014C81.5712 146.864 79.3212 144.866 76.4412 144.866C73.5612 144.866 71.3112 146.864 71.3112 150.014C71.3112 153.146 73.4892 155.162 76.3692 155.162C79.2672 155.162 81.5712 153.146 81.5712 150.014ZM73.8672 150.014C73.8672 148.016 75.0732 147.062 76.4052 147.062C77.7372 147.062 78.9792 148.016 78.9792 150.014C78.9792 151.994 77.7012 152.966 76.3692 152.966C75.0192 152.966 73.8672 151.994 73.8672 150.014ZM85.9397 150.032C85.9397 148.106 86.8397 147.53 88.3337 147.53H88.9997V144.884C87.6137 144.884 86.5697 145.55 85.9397 146.576V145.028H83.4197V155H85.9397V150.032ZM94.9451 151.994L92.3711 145.028H89.5451L93.5411 154.748L91.3811 159.716H94.0631L100.237 145.028H97.5551L94.9451 151.994Z" fill="#080A24"/>
<path d="M320 129H244C234.059 129 226 137.059 226 147C226 156.941 234.059 165 244 165H320C329.941 165 338 156.941 338 147C338 137.059 329.941 129 320 129Z" fill="black"/>
<path d="M241.055 145.024H243.347V152.5H244.439V145.024H246.719V144.136H241.055V145.024ZM248.063 152.5H249.155V148.864C249.155 147.448 249.923 146.752 251.039 146.752C252.143 146.752 252.875 147.436 252.875 148.78V152.5H253.955V148.624C253.955 146.74 252.791 145.804 251.327 145.804C250.403 145.804 249.587 146.176 249.155 146.872V143.62H248.063V152.5ZM255.739 152.5H256.831V145.924H255.739V152.5ZM256.303 144.856C256.699 144.856 257.023 144.532 257.023 144.112C257.023 143.692 256.699 143.368 256.303 143.368C255.883 143.368 255.559 143.692 255.559 144.112C255.559 144.532 255.883 144.856 256.303 144.856ZM263.42 150.712C263.372 148.36 259.556 149.212 259.556 147.652C259.556 147.124 260.036 146.74 260.84 146.74C261.716 146.74 262.22 147.22 262.268 147.88H263.36C263.288 146.596 262.328 145.816 260.876 145.816C259.412 145.816 258.464 146.644 258.464 147.652C258.464 150.1 262.352 149.248 262.352 150.712C262.352 151.252 261.872 151.684 261.008 151.684C260.084 151.684 259.52 151.204 259.46 150.568H258.332C258.404 151.768 259.484 152.608 261.02 152.608C262.472 152.608 263.42 151.792 263.42 150.712ZM268.161 152.5H269.253V146.296L272.025 152.5H272.793L275.553 146.308V152.5H276.645V144.196H275.481L272.409 151.06L269.337 144.196H268.161V152.5ZM284.737 149.2C284.737 147.124 283.285 145.816 281.413 145.816C279.553 145.816 278.089 147.124 278.089 149.2C278.089 151.288 279.505 152.608 281.365 152.608C283.237 152.608 284.737 151.288 284.737 149.2ZM279.205 149.2C279.205 147.544 280.249 146.764 281.401 146.764C282.529 146.764 283.621 147.544 283.621 149.2C283.621 150.868 282.505 151.648 281.365 151.648C280.225 151.648 279.205 150.868 279.205 149.2ZM290.985 152.5H292.065V148.624C292.065 146.74 290.901 145.804 289.377 145.804C288.489 145.804 287.697 146.176 287.265 146.86V145.924H286.173V152.5H287.265V148.864C287.265 147.448 288.033 146.752 289.149 146.752C290.253 146.752 290.985 147.436 290.985 148.78V152.5ZM294.088 150.7C294.088 152.02 294.748 152.5 295.912 152.5H296.896V151.576H296.092C295.42 151.576 295.18 151.348 295.18 150.7V146.824H296.896V145.924H295.18V144.268H294.088V145.924H293.236V146.824H294.088V150.7ZM298.219 152.5H299.311V148.864C299.311 147.448 300.079 146.752 301.195 146.752C302.299 146.752 303.031 147.436 303.031 148.78V152.5H304.111V148.624C304.111 146.74 302.947 145.804 301.483 145.804C300.559 145.804 299.743 146.176 299.311 146.872V143.62H298.219V152.5Z" fill="white"/>
<path d="M318.955 149.384L321.929 146.653C321.985 146.597 322.051 146.553 322.124 146.522C322.197 146.492 322.275 146.477 322.354 146.477C322.433 146.477 322.511 146.492 322.584 146.522C322.657 146.553 322.723 146.597 322.779 146.653C322.835 146.708 322.879 146.774 322.91 146.846C322.94 146.918 322.956 146.996 322.956 147.075C322.956 147.153 322.94 147.231 322.91 147.303C322.879 147.375 322.835 147.441 322.779 147.496L319.379 150.826C319.266 150.938 319.113 151.001 318.954 151.001C318.794 151.001 318.641 150.938 318.528 150.826L315.128 147.496C315.072 147.441 315.028 147.375 314.997 147.303C314.967 147.231 314.951 147.153 314.951 147.075C314.951 146.996 314.967 146.918 314.997 146.846C315.028 146.774 315.072 146.708 315.128 146.653C315.184 146.597 315.25 146.553 315.323 146.522C315.396 146.492 315.474 146.477 315.553 146.477C315.632 146.477 315.71 146.492 315.783 146.522C315.856 146.553 315.922 146.597 315.978 146.653L318.955 149.384Z" fill="white"/>
<g filter="url(#filter0_d_1_576)">
<path d="M320 189H54C44.0589 189 36 197.059 36 207V367C36 376.941 44.0589 385 54 385H320C329.941 385 338 376.941 338 367V207C338 197.059 329.941 189 320 189Z" fill="white"/>
<path d="M320 189.5H54C44.335 189.5 36.5 197.335 36.5 207V367C36.5 376.665 44.335 384.5 54 384.5H320C329.665 384.5 337.5 376.665 337.5 367V207C337.5 197.335 329.665 189.5 320 189.5Z" stroke="#EDEDED"/>
</g>
<path d="M54 189H320C322.364 189 324.704 189.466 326.888 190.37C329.072 191.275 331.056 192.601 332.728 194.272C334.399 195.944 335.725 197.928 336.63 200.112C337.534 202.296 338 204.636 338 207V306H36V207C36 202.226 37.8964 197.648 41.2721 194.272C44.6477 190.896 49.2261 189 54 189V189Z" fill="#FAFAFA"/>
<path d="M54 189.5H320C324.641 189.5 329.092 191.344 332.374 194.626C335.656 197.908 337.5 202.359 337.5 207V305C337.5 305.133 337.447 305.26 337.354 305.354C337.26 305.447 337.133 305.5 337 305.5H37C36.8674 305.5 36.7402 305.447 36.6464 305.354C36.5527 305.26 36.5 305.133 36.5 305V207C36.5 202.359 38.3437 197.908 41.6256 194.626C44.9075 191.344 49.3587 189.5 54 189.5V189.5Z" stroke="#EDEDED"/>
<path d="M100.616 223.242C100.616 219.686 95.464 221.058 95.464 218.86C95.464 217.922 96.178 217.474 97.102 217.502C98.11 217.53 98.684 218.132 98.74 218.79H100.504C100.364 217.124 99.048 216.144 97.186 216.144C95.198 216.144 93.84 217.208 93.84 218.916C93.84 222.5 99.006 220.974 99.006 223.326C99.006 224.152 98.376 224.754 97.256 224.754C96.15 224.754 95.59 224.11 95.52 223.312H93.812C93.812 225.034 95.31 226.098 97.256 226.098C99.426 226.098 100.616 224.698 100.616 223.242ZM102.751 223.858C102.751 225.426 103.605 226 104.977 226H106.237V224.67H105.257C104.585 224.67 104.361 224.432 104.361 223.858V219.588H106.237V218.286H104.361V216.368H102.751V218.286H101.841V219.588H102.751V223.858ZM107.176 222.108C107.176 224.488 108.786 226.126 110.788 226.126C112.076 226.126 113 225.51 113.49 224.852V226H115.1V218.286H113.49V219.406C113.014 218.776 112.118 218.16 110.816 218.16C108.786 218.16 107.176 219.728 107.176 222.108ZM113.49 222.136C113.49 223.802 112.356 224.74 111.152 224.74C109.962 224.74 108.814 223.774 108.814 222.108C108.814 220.442 109.962 219.546 111.152 219.546C112.356 219.546 113.49 220.484 113.49 222.136ZM117.448 223.858C117.448 225.426 118.302 226 119.674 226H120.934V224.67H119.954C119.282 224.67 119.058 224.432 119.058 223.858V219.588H120.934V218.286H119.058V216.368H117.448V218.286H116.538V219.588H117.448V223.858ZM125.653 219.504C126.843 219.504 127.781 220.26 127.809 221.45H123.539C123.707 220.232 124.575 219.504 125.653 219.504ZM129.265 223.704H127.543C127.249 224.306 126.703 224.782 125.723 224.782C124.547 224.782 123.637 224.012 123.525 222.738H129.419C129.461 222.472 129.475 222.22 129.475 221.954C129.475 219.686 127.921 218.16 125.723 218.16C123.441 218.16 121.873 219.714 121.873 222.136C121.873 224.558 123.511 226.126 125.723 226.126C127.613 226.126 128.831 225.048 129.265 223.704ZM136.279 220.75V217.572H138.043C139.289 217.572 139.849 218.16 139.849 219.168C139.849 220.148 139.289 220.75 138.043 220.75H136.279ZM141.487 219.168C141.487 217.586 140.353 216.27 138.043 216.27H134.683V226H136.279V222.052H138.043C140.577 222.052 141.487 220.554 141.487 219.168ZM142.477 222.108C142.477 224.488 144.087 226.126 146.089 226.126C147.377 226.126 148.301 225.51 148.791 224.852V226H150.401V218.286H148.791V219.406C148.315 218.776 147.419 218.16 146.117 218.16C144.087 218.16 142.477 219.728 142.477 222.108ZM148.791 222.136C148.791 223.802 147.657 224.74 146.453 224.74C145.263 224.74 144.115 223.774 144.115 222.108C144.115 220.442 145.263 219.546 146.453 219.546C147.657 219.546 148.791 220.484 148.791 222.136ZM154.093 221.94C154.093 220.302 154.821 219.812 155.997 219.812H156.403V218.16C155.311 218.16 154.541 218.636 154.093 219.406V218.286H152.497V226H154.093V221.94ZM157.87 226H159.466V222.682L162.322 226H164.478L160.922 222.15L164.478 218.286H162.266L159.466 221.66V215.64H157.87V226Z" fill="black"/>
<path d="M100.224 281.036H101.82V271.306H100.224V275.478H95.646V271.306H94.05V281.036H95.646V276.78H100.224V281.036ZM111.271 277.172C111.271 274.75 109.535 273.196 107.337 273.196C105.139 273.196 103.403 274.75 103.403 277.172C103.403 279.594 105.069 281.162 107.267 281.162C109.479 281.162 111.271 279.594 111.271 277.172ZM105.027 277.172C105.027 275.422 106.105 274.582 107.309 274.582C108.499 274.582 109.633 275.422 109.633 277.172C109.633 278.922 108.457 279.776 107.267 279.776C106.063 279.776 105.027 278.922 105.027 277.172ZM123.783 281.036H125.365V276.486C125.365 274.33 123.993 273.196 122.187 273.196C121.067 273.196 119.975 273.784 119.499 274.722C118.967 273.714 117.945 273.196 116.727 273.196C115.803 273.196 114.963 273.574 114.445 274.204V273.322H112.849V281.036H114.445V276.724C114.445 275.31 115.215 274.582 116.391 274.582C117.553 274.582 118.323 275.31 118.323 276.724V281.036H119.905V276.724C119.905 275.31 120.675 274.582 121.851 274.582C123.013 274.582 123.783 275.31 123.783 276.724V281.036ZM130.644 274.54C131.834 274.54 132.772 275.296 132.8 276.486H128.53C128.698 275.268 129.566 274.54 130.644 274.54ZM134.256 278.74H132.534C132.24 279.342 131.694 279.818 130.714 279.818C129.538 279.818 128.628 279.048 128.516 277.774H134.41C134.452 277.508 134.466 277.256 134.466 276.99C134.466 274.722 132.912 273.196 130.714 273.196C128.432 273.196 126.864 274.75 126.864 277.172C126.864 279.594 128.502 281.162 130.714 281.162C132.604 281.162 133.822 280.084 134.256 278.74Z" fill="black"/>
<path d="M68.227 287C67.276 287 62.758 281.415 61.651 279.618C60 276.932 59 275.31 59 272.227C59 269.78 59.9722 267.433 61.7027 265.702C63.4332 263.972 65.7802 263 68.2275 263C70.6748 263 73.0218 263.972 74.7523 265.702C76.4828 267.433 77.455 269.78 77.455 272.227C77.455 275.186 76.469 276.784 74.836 279.433L74.723 279.617C73.582 281.466 69.16 287 68.227 287ZM68.227 267.614C67.3144 267.614 66.4224 267.885 65.6636 268.392C64.9048 268.899 64.3134 269.619 63.9642 270.462C63.615 271.305 63.5236 272.233 63.7017 273.128C63.8797 274.023 64.3191 274.845 64.9644 275.491C65.6097 276.136 66.4318 276.575 67.3269 276.753C68.2219 276.931 69.1496 276.84 69.9927 276.491C70.8358 276.142 71.5564 275.55 72.0634 274.791C72.5704 274.033 72.841 273.141 72.841 272.228C72.8397 271.005 72.3531 269.832 71.4881 268.967C70.6231 268.102 69.4503 267.615 68.227 267.614Z" fill="#F52D56"/>
<path d="M68 232C74.6274 232 80 226.627 80 220C80 213.373 74.6274 208 68 208C61.3726 208 56 213.373 56 220C56 226.627 61.3726 232 68 232Z" fill="white"/>
<path d="M68 229C72.9706 229 77 224.971 77 220C77 215.029 72.9706 211 68 211C63.0294 211 59 215.029 59 220C59 224.971 63.0294 229 68 229Z" stroke="#8F00FF" stroke-width="6"/>
<path d="M68.228 233.706V265.296" stroke="#C8C7CC" stroke-width="2" stroke-miterlimit="10" stroke-linecap="round" stroke-linejoin="round" stroke-dasharray="4 4"/>
<path d="M272.396 217.348V218.284H277.028L273.644 226H274.748L278.084 218.176V217.348H272.396ZM280.543 225.328C280.543 224.908 280.219 224.584 279.823 224.584C279.403 224.584 279.079 224.908 279.079 225.328C279.079 225.748 279.403 226.072 279.823 226.072C280.219 226.072 280.543 225.748 280.543 225.328ZM280.543 220.192C280.543 219.772 280.219 219.448 279.823 219.448C279.403 219.448 279.079 219.772 279.079 220.192C279.079 220.612 279.403 220.936 279.823 220.936C280.219 220.936 280.543 220.612 280.543 220.192ZM281.825 219.508H282.893C283.001 218.668 283.613 218.092 284.633 218.092C285.677 218.092 286.229 218.668 286.229 219.496C286.229 220.504 285.449 220.948 283.997 220.96H283.709V221.872H283.985C285.545 221.872 286.397 222.34 286.397 223.564C286.397 224.452 285.845 225.136 284.681 225.136C283.529 225.136 282.857 224.428 282.749 223.504H281.693C281.825 225.184 283.049 226.06 284.693 226.06C286.505 226.06 287.441 225.004 287.441 223.66C287.441 222.412 286.757 221.668 285.749 221.428V221.368C286.661 221.164 287.285 220.384 287.285 219.388C287.285 218.14 286.361 217.156 284.669 217.156C283.061 217.156 281.933 218.02 281.825 219.508ZM293.092 226H294.172V224.068H295.372V223.12H294.172V217.408H292.864L288.652 223.24V224.068H293.092V226ZM289.912 223.12L293.14 218.548V223.12H289.912ZM305.458 226H306.61L303.598 217.684H302.338L299.314 226H300.466L301.138 224.14H304.786L305.458 226ZM304.474 223.252H301.45L302.962 219.028L304.474 223.252ZM307.928 226H309.02V219.796L311.792 226H312.56L315.32 219.808V226H316.412V217.696H315.248L312.176 224.56L309.104 217.696H307.928V226Z" fill="#AAAAAA"/>
<path d="M271.396 272.348V273.284H276.028L272.644 281H273.748L277.084 273.176V272.348H271.396ZM279.543 280.328C279.543 279.908 279.219 279.584 278.823 279.584C278.403 279.584 278.079 279.908 278.079 280.328C278.079 280.748 278.403 281.072 278.823 281.072C279.219 281.072 279.543 280.748 279.543 280.328ZM279.543 275.192C279.543 274.772 279.219 274.448 278.823 274.448C278.403 274.448 278.079 274.772 278.079 275.192C278.079 275.612 278.403 275.936 278.823 275.936C279.219 275.936 279.543 275.612 279.543 275.192ZM285.025 281H286.105V279.068H287.305V278.12H286.105V272.408H284.797L280.585 278.24V279.068H285.025V281ZM281.845 278.12L285.073 273.548V278.12H281.845ZM289.98 276.488C289.008 276.776 288.372 277.568 288.372 278.66C288.372 280.232 289.608 281.24 291.432 281.24C293.268 281.24 294.516 280.232 294.516 278.66C294.516 277.58 293.88 276.788 292.896 276.488C293.748 276.152 294.288 275.432 294.288 274.496C294.288 273.236 293.316 272.192 291.432 272.192C289.548 272.192 288.588 273.224 288.588 274.496C288.588 275.468 289.092 276.14 289.98 276.488ZM291.432 276.128C290.376 276.128 289.644 275.54 289.644 274.64C289.644 273.62 290.364 273.104 291.432 273.104C292.524 273.104 293.232 273.632 293.232 274.628C293.232 275.528 292.5 276.128 291.432 276.128ZM291.432 276.968C292.572 276.968 293.436 277.508 293.436 278.624C293.436 279.632 292.668 280.328 291.432 280.328C290.196 280.328 289.416 279.644 289.416 278.624C289.416 277.472 290.316 276.968 291.432 276.968ZM304.962 281H306.114L303.102 272.684H301.842L298.818 281H299.97L300.642 279.14H304.29L304.962 281ZM303.978 278.252H300.954L302.466 274.028L303.978 278.252ZM307.432 281H308.524V274.796L311.296 281H312.064L314.824 274.808V281H315.916V272.696H314.752L311.68 279.56L308.608 272.696H307.432V281Z" fill="#AAAAAA"/>
<path d="M96 344.315C96 333.269 87.0457 324.315 76 324.315C64.9543 324.315 56 333.269 56 344.315C56 355.361 64.9543 364.315 76 364.315C87.0457 364.315 96 355.361 96 344.315Z" fill="#CACACA"/>
<path d="M105.05 339.63H106.646V332.966L109.628 339.63H110.734L113.702 332.966V339.63H115.298V329.9H113.59L110.188 337.53L106.772 329.9H105.05V339.63ZM117.396 339.63H118.992V331.916H117.396V339.63ZM118.208 330.894C118.768 330.894 119.216 330.446 119.216 329.872C119.216 329.298 118.768 328.85 118.208 328.85C117.634 328.85 117.186 329.298 117.186 329.872C117.186 330.446 117.634 330.894 118.208 330.894ZM120.555 335.766C120.555 338.188 122.123 339.756 124.335 339.756C126.225 339.756 127.457 338.706 127.891 337.194H126.169C125.875 337.992 125.287 338.412 124.335 338.412C123.047 338.412 122.193 337.46 122.193 335.766C122.193 334.086 123.047 333.134 124.335 333.134C125.287 333.134 125.903 333.61 126.169 334.352H127.891C127.457 332.728 126.225 331.79 124.335 331.79C122.123 331.79 120.555 333.358 120.555 335.766ZM129.482 339.63H131.078V335.318C131.078 333.904 131.848 333.176 133.024 333.176C134.186 333.176 134.956 333.904 134.956 335.318V339.63H136.538V335.08C136.538 332.924 135.194 331.79 133.472 331.79C132.478 331.79 131.61 332.168 131.078 332.812V329.27H129.482V339.63ZM138.041 335.738C138.041 338.118 139.651 339.756 141.653 339.756C142.941 339.756 143.865 339.14 144.355 338.482V339.63H145.965V331.916H144.355V333.036C143.879 332.406 142.983 331.79 141.681 331.79C139.651 331.79 138.041 333.358 138.041 335.738ZM144.355 335.766C144.355 337.432 143.221 338.37 142.017 338.37C140.827 338.37 139.679 337.404 139.679 335.738C139.679 334.072 140.827 333.176 142.017 333.176C143.221 333.176 144.355 334.114 144.355 335.766ZM151.31 333.134C152.5 333.134 153.438 333.89 153.466 335.08H149.196C149.364 333.862 150.232 333.134 151.31 333.134ZM154.922 337.334H153.2C152.906 337.936 152.36 338.412 151.38 338.412C150.204 338.412 149.294 337.642 149.182 336.368H155.076C155.118 336.102 155.132 335.85 155.132 335.584C155.132 333.316 153.578 331.79 151.38 331.79C149.098 331.79 147.53 333.344 147.53 335.766C147.53 338.188 149.168 339.756 151.38 339.756C153.27 339.756 154.488 338.678 154.922 337.334ZM156.702 339.63H158.298V329.27H156.702V339.63ZM169.518 336.844C169.518 337.782 168.86 338.328 167.782 338.328H165.626V335.29H167.726C168.79 335.29 169.518 335.878 169.518 336.844ZM169.266 332.602C169.266 333.498 168.636 333.988 167.6 333.988H165.626V331.202H167.6C168.636 331.202 169.266 331.72 169.266 332.602ZM171.114 337.012C171.114 335.85 170.274 334.814 169.238 334.632C170.176 334.296 170.89 333.582 170.89 332.406C170.89 331.034 169.798 329.9 167.74 329.9H164.03V339.63H167.922C169.91 339.63 171.114 338.496 171.114 337.012ZM174.445 335.57C174.445 333.932 175.173 333.442 176.349 333.442H176.755V331.79C175.663 331.79 174.893 332.266 174.445 333.036V331.916H172.849V339.63H174.445V335.57ZM177.69 335.738C177.69 338.118 179.3 339.756 181.302 339.756C182.59 339.756 183.514 339.14 184.004 338.482V339.63H185.614V331.916H184.004V333.036C183.528 332.406 182.632 331.79 181.33 331.79C179.3 331.79 177.69 333.358 177.69 335.738ZM184.004 335.766C184.004 337.432 182.87 338.37 181.666 338.37C180.476 338.37 179.328 337.404 179.328 335.738C179.328 334.072 180.476 333.176 181.666 333.176C182.87 333.176 184.004 334.114 184.004 335.766ZM187.178 335.766C187.178 338.188 188.746 339.756 190.958 339.756C192.848 339.756 194.08 338.706 194.514 337.194H192.792C192.498 337.992 191.91 338.412 190.958 338.412C189.67 338.412 188.816 337.46 188.816 335.766C188.816 334.086 189.67 333.134 190.958 333.134C191.91 333.134 192.526 333.61 192.792 334.352H194.514C194.08 332.728 192.848 331.79 190.958 331.79C188.746 331.79 187.178 333.358 187.178 335.766ZM199.353 333.134C200.543 333.134 201.481 333.89 201.509 335.08H197.239C197.407 333.862 198.275 333.134 199.353 333.134ZM202.965 337.334H201.243C200.949 337.936 200.403 338.412 199.423 338.412C198.247 338.412 197.337 337.642 197.225 336.368H203.119C203.161 336.102 203.175 335.85 203.175 335.584C203.175 333.316 201.621 331.79 199.423 331.79C197.141 331.79 195.573 333.344 195.573 335.766C195.573 338.188 197.211 339.756 199.423 339.756C201.313 339.756 202.531 338.678 202.965 337.334ZM206.243 339.63H207.923L209.477 333.932L211.031 339.63H212.711L215.105 331.916H213.537L211.941 338.09L210.373 331.916H208.707L207.069 338.118L205.459 331.916H203.835L206.243 339.63ZM219.546 333.134C220.736 333.134 221.674 333.89 221.702 335.08H217.432C217.6 333.862 218.468 333.134 219.546 333.134ZM223.158 337.334H221.436C221.142 337.936 220.596 338.412 219.616 338.412C218.44 338.412 217.53 337.642 217.418 336.368H223.312C223.354 336.102 223.368 335.85 223.368 335.584C223.368 333.316 221.814 331.79 219.616 331.79C217.334 331.79 215.766 333.344 215.766 335.766C215.766 338.188 217.404 339.756 219.616 339.756C221.506 339.756 222.724 338.678 223.158 337.334ZM224.939 339.63H226.535V329.27H224.939V339.63ZM228.63 339.63H230.226V329.27H228.63V339.63Z" fill="#080A24"/>
<path d="M116.178 354.607C116.136 354.468 116.057 354.343 115.947 354.247C115.838 354.15 115.704 354.087 115.561 354.063L112.267 353.563L110.793 350.446C110.734 350.313 110.638 350.201 110.516 350.122C110.395 350.042 110.253 350 110.107 350C109.962 350 109.82 350.042 109.699 350.122C109.577 350.201 109.481 350.313 109.422 350.446L107.949 353.564L104.655 354.064C104.511 354.088 104.377 354.151 104.268 354.247C104.159 354.343 104.079 354.468 104.038 354.608C103.994 354.749 103.988 354.9 104.022 355.044C104.056 355.187 104.128 355.32 104.231 355.426L106.615 357.853L106.052 361.281C106.027 361.426 106.041 361.575 106.094 361.713C106.147 361.85 106.236 361.971 106.352 362.062C106.465 362.149 106.601 362.2 106.743 362.211C106.885 362.222 107.027 362.191 107.152 362.123L110.107 360.5L113.054 362.119C113.179 362.187 113.321 362.218 113.463 362.207C113.605 362.196 113.741 362.144 113.854 362.058C113.97 361.967 114.059 361.846 114.112 361.709C114.164 361.571 114.179 361.422 114.154 361.277L113.6 357.853L115.984 355.426C116.087 355.319 116.159 355.187 116.193 355.043C116.227 354.899 116.222 354.748 116.178 354.607Z" fill="#FFCC00"/>
<path d="M128.027 362H129.107V360.068H130.307V359.12H129.107V353.408H127.799L123.587 359.24V360.068H128.027V362ZM124.847 359.12L128.075 354.548V359.12H124.847ZM132.646 361.328C132.646 360.908 132.322 360.584 131.926 360.584C131.506 360.584 131.182 360.908 131.182 361.328C131.182 361.748 131.506 362.072 131.926 362.072C132.322 362.072 132.646 361.748 132.646 361.328ZM134.313 359.672C134.433 360.944 135.273 362.012 137.001 362.012C139.281 362.012 139.941 360.392 139.941 357.5C139.941 354.812 139.257 353.156 136.905 353.156C135.033 353.156 134.049 354.356 134.049 356.012C134.049 357.848 135.237 358.844 136.833 358.844C137.769 358.844 138.633 358.424 138.981 357.692C139.017 360.236 138.333 361.1 137.061 361.1C136.053 361.1 135.477 360.572 135.321 359.672H134.313ZM137.013 357.92C135.717 357.92 135.093 357.104 135.093 355.988C135.093 354.836 135.801 354.068 136.929 354.068C138.177 354.068 138.849 354.896 138.849 356.072C138.849 357.236 138.057 357.92 137.013 357.92Z" fill="#C8C7CC"/>
<path d="M284.016 337.608V334.536H285.624C286.872 334.536 287.4 335.112 287.4 336.084C287.4 337.02 286.872 337.608 285.624 337.608H284.016ZM288.516 336.084C288.516 334.716 287.592 333.636 285.624 333.636H282.924V342H284.016V338.508H285.624C287.7 338.508 288.516 337.356 288.516 336.084ZM290.965 338.424C290.965 336.9 291.757 336.432 292.801 336.432H293.089V335.304C292.045 335.304 291.337 335.76 290.965 336.492V335.424H289.873V342H290.965V338.424ZM294.35 342H295.442V335.424H294.35V342ZM294.914 334.356C295.31 334.356 295.634 334.032 295.634 333.612C295.634 333.192 295.31 332.868 294.914 332.868C294.494 332.868 294.17 333.192 294.17 333.612C294.17 334.032 294.494 334.356 294.914 334.356ZM296.895 338.7C296.895 340.788 298.227 342.108 300.099 342.108C301.731 342.108 302.799 341.196 303.135 339.888H301.959C301.719 340.716 301.071 341.184 300.099 341.184C298.899 341.184 298.011 340.332 298.011 338.7C298.011 337.092 298.899 336.24 300.099 336.24C301.071 336.24 301.731 336.744 301.959 337.536H303.135C302.799 336.156 301.731 335.316 300.099 335.316C298.227 335.316 296.895 336.636 296.895 338.7ZM307.388 336.24C308.516 336.24 309.476 336.948 309.464 338.232H305.312C305.432 336.948 306.32 336.24 307.388 336.24ZM310.46 339.972H309.284C309.044 340.68 308.42 341.184 307.436 341.184C306.32 341.184 305.384 340.452 305.3 339.12H310.556C310.58 338.892 310.592 338.7 310.592 338.46C310.592 336.66 309.344 335.316 307.436 335.316C305.516 335.316 304.184 336.624 304.184 338.7C304.184 340.788 305.564 342.108 307.436 342.108C309.068 342.108 310.124 341.172 310.46 339.972Z" fill="#656565"/>
<path d="M280.738 365.218H281.494V364.084C283.398 363.958 284.378 362.628 284.378 361.326C284.378 359.38 282.88 358.974 281.494 358.624V355.208C282.348 355.39 282.81 356.02 282.894 356.622H284.252C284.112 355.208 283.09 354.27 281.494 354.13V352.968H280.738V354.13C278.988 354.242 277.84 355.32 277.84 356.832C277.84 358.764 279.338 359.17 280.738 359.534V363.034C279.744 362.88 279.282 362.194 279.212 361.466H277.854C277.882 362.95 279.058 363.93 280.738 364.084V365.218ZM283.104 361.396C283.104 362.236 282.53 362.936 281.494 363.048V359.744C282.39 360.01 283.104 360.402 283.104 361.396ZM279.142 356.762C279.142 355.768 279.8 355.264 280.738 355.18V358.414C279.842 358.134 279.142 357.756 279.142 356.762ZM287.039 361.284C287.179 362.768 288.159 364.014 290.175 364.014C292.835 364.014 293.605 362.124 293.605 358.75C293.605 355.614 292.807 353.682 290.063 353.682C287.879 353.682 286.731 355.082 286.731 357.014C286.731 359.156 288.117 360.318 289.979 360.318C291.071 360.318 292.079 359.828 292.485 358.974C292.527 361.942 291.729 362.95 290.245 362.95C289.069 362.95 288.397 362.334 288.215 361.284H287.039ZM290.189 359.24C288.677 359.24 287.949 358.288 287.949 356.986C287.949 355.642 288.775 354.746 290.091 354.746C291.547 354.746 292.331 355.712 292.331 357.084C292.331 358.442 291.407 359.24 290.189 359.24ZM294.499 366.002H295.353L296.921 362.236H295.521L294.499 366.002ZM298.171 358.834C298.171 361.774 298.899 364 301.699 364C304.485 364 305.213 361.774 305.213 358.834C305.213 355.936 304.485 353.724 301.699 353.724C298.899 353.724 298.171 355.936 298.171 358.834ZM303.953 358.834C303.953 361.018 303.687 362.838 301.699 362.838C299.697 362.838 299.431 361.018 299.431 358.834C299.431 356.734 299.697 354.886 301.699 354.886C303.687 354.886 303.953 356.734 303.953 358.834ZM306.962 358.834C306.962 361.774 307.69 364 310.49 364C313.276 364 314.004 361.774 314.004 358.834C314.004 355.936 313.276 353.724 310.49 353.724C307.69 353.724 306.962 355.936 306.962 358.834ZM312.744 358.834C312.744 361.018 312.478 362.838 310.49 362.838C308.488 362.838 308.222 361.018 308.222 358.834C308.222 356.734 308.488 354.886 310.49 354.886C312.478 354.886 312.744 356.734 312.744 358.834Z" fill="black"/>
<g filter="url(#filter1_d_1_576)">
<path d="M320 409H54C44.0589 409 36 417.059 36 427V587C36 596.941 44.0589 605 54 605H320C329.941 605 338 596.941 338 587V427C338 417.059 329.941 409 320 409Z" fill="white"/>
<path d="M320 409.5H54C44.335 409.5 36.5 417.335 36.5 427V587C36.5 596.665 44.335 604.5 54 604.5H320C329.665 604.5 337.5 596.665 337.5 587V427C337.5 417.335 329.665 409.5 320 409.5Z" stroke="#EDEDED"/>
</g>
<path d="M54 409H320C322.364 409 324.704 409.466 326.888 410.37C329.072 411.275 331.056 412.601 332.728 414.272C334.399 415.944 335.725 417.928 336.63 420.112C337.534 422.296 338 424.636 338 427V526H36V427C36 422.226 37.8964 417.648 41.2721 414.272C44.6477 410.896 49.2261 409 54 409V409Z" fill="#FAFAFA"/>
<path d="M54 409.5H320C324.641 409.5 329.092 411.344 332.374 414.626C335.656 417.908 337.5 422.359 337.5 427V525C337.5 525.133 337.447 525.26 337.354 525.354C337.26 525.447 337.133 525.5 337 525.5H37C36.8674 525.5 36.7402 525.447 36.6464 525.354C36.5527 525.26 36.5 525.133 36.5 525V427C36.5 422.359 38.3437 417.908 41.6256 414.626C44.9075 411.344 49.3587 409.5 54 409.5V409.5Z" stroke="#EDEDED"/>
<path d="M100.224 446H101.82V436.27H100.224V440.442H95.646V436.27H94.05V446H95.646V441.744H100.224V446ZM111.271 442.136C111.271 439.714 109.535 438.16 107.337 438.16C105.139 438.16 103.403 439.714 103.403 442.136C103.403 444.558 105.069 446.126 107.267 446.126C109.479 446.126 111.271 444.558 111.271 442.136ZM105.027 442.136C105.027 440.386 106.105 439.546 107.309 439.546C108.499 439.546 109.633 440.386 109.633 442.136C109.633 443.886 108.457 444.74 107.267 444.74C106.063 444.74 105.027 443.886 105.027 442.136ZM123.783 446H125.365V441.45C125.365 439.294 123.993 438.16 122.187 438.16C121.067 438.16 119.975 438.748 119.499 439.686C118.967 438.678 117.945 438.16 116.727 438.16C115.803 438.16 114.963 438.538 114.445 439.168V438.286H112.849V446H114.445V441.688C114.445 440.274 115.215 439.546 116.391 439.546C117.553 439.546 118.323 440.274 118.323 441.688V446H119.905V441.688C119.905 440.274 120.675 439.546 121.851 439.546C123.013 439.546 123.783 440.274 123.783 441.688V446ZM130.644 439.504C131.834 439.504 132.772 440.26 132.8 441.45H128.53C128.698 440.232 129.566 439.504 130.644 439.504ZM134.256 443.704H132.534C132.24 444.306 131.694 444.782 130.714 444.782C129.538 444.782 128.628 444.012 128.516 442.738H134.41C134.452 442.472 134.466 442.22 134.466 441.954C134.466 439.686 132.912 438.16 130.714 438.16C128.432 438.16 126.864 439.714 126.864 442.136C126.864 444.558 128.502 446.126 130.714 446.126C132.604 446.126 133.822 445.048 134.256 443.704Z" fill="black"/>
<path d="M103.458 496.15C103.458 493.238 101.26 491.18 98.488 491.18C95.744 491.18 93.518 493.238 93.518 496.15C93.518 499.076 95.744 501.134 98.488 501.134C101.26 501.134 103.458 499.076 103.458 496.15ZM95.156 496.15C95.156 493.952 96.556 492.58 98.488 492.58C100.42 492.58 101.82 493.952 101.82 496.15C101.82 498.348 100.42 499.748 98.488 499.748C96.556 499.748 95.156 498.348 95.156 496.15ZM105.225 501.036H106.835V494.624H108.263V493.322H106.835V492.776C106.835 491.894 107.171 491.558 108.151 491.558V490.228C106.135 490.228 105.225 490.998 105.225 492.776V493.322H104.315V494.624H105.225V501.036ZM109.873 501.036H111.483V494.624H112.911V493.322H111.483V492.776C111.483 491.894 111.819 491.558 112.799 491.558V490.228C110.783 490.228 109.873 490.998 109.873 492.776V493.322H108.963V494.624H109.873V501.036ZM114.325 501.036H115.921V493.322H114.325V501.036ZM115.137 492.3C115.697 492.3 116.145 491.852 116.145 491.278C116.145 490.704 115.697 490.256 115.137 490.256C114.563 490.256 114.115 490.704 114.115 491.278C114.115 491.852 114.563 492.3 115.137 492.3ZM117.485 497.172C117.485 499.594 119.053 501.162 121.265 501.162C123.155 501.162 124.387 500.112 124.821 498.6H123.099C122.805 499.398 122.217 499.818 121.265 499.818C119.977 499.818 119.123 498.866 119.123 497.172C119.123 495.492 119.977 494.54 121.265 494.54C122.217 494.54 122.833 495.016 123.099 495.758H124.821C124.387 494.134 123.155 493.196 121.265 493.196C119.053 493.196 117.485 494.764 117.485 497.172ZM129.659 494.54C130.849 494.54 131.787 495.296 131.815 496.486H127.545C127.713 495.268 128.581 494.54 129.659 494.54ZM133.271 498.74H131.549C131.255 499.342 130.709 499.818 129.729 499.818C128.553 499.818 127.643 499.048 127.531 497.774H133.425C133.467 497.508 133.481 497.256 133.481 496.99C133.481 494.722 131.927 493.196 129.729 493.196C127.447 493.196 125.879 494.75 125.879 497.172C125.879 499.594 127.517 501.162 129.729 501.162C131.619 501.162 132.837 500.084 133.271 498.74Z" fill="black"/>
<path d="M68.227 507C67.276 507 62.758 501.415 61.651 499.618C60 496.932 59 495.31 59 492.227C59 489.78 59.9722 487.433 61.7027 485.702C63.4332 483.972 65.7802 483 68.2275 483C70.6748 483 73.0218 483.972 74.7523 485.702C76.4828 487.433 77.455 489.78 77.455 492.227C77.455 495.186 76.469 496.784 74.836 499.433L74.723 499.617C73.582 501.466 69.16 507 68.227 507ZM68.227 487.614C67.3144 487.614 66.4224 487.885 65.6636 488.392C64.9048 488.899 64.3134 489.619 63.9642 490.462C63.615 491.305 63.5236 492.233 63.7017 493.128C63.8797 494.023 64.3191 494.845 64.9644 495.491C65.6097 496.136 66.4318 496.575 67.3269 496.753C68.2219 496.931 69.1496 496.84 69.9927 496.491C70.8358 496.142 71.5564 495.55 72.0634 494.791C72.5704 494.033 72.841 493.141 72.841 492.228C72.8397 491.005 72.3531 489.832 71.4881 488.967C70.6231 488.102 69.4503 487.615 68.227 487.614Z" fill="#F52D56"/>
<path d="M68 452C74.6274 452 80 446.627 80 440C80 433.373 74.6274 428 68 428C61.3726 428 56 433.373 56 440C56 446.627 61.3726 452 68 452Z" fill="white"/>
<path d="M68 449C72.9706 449 77 444.971 77 440C77 435.029 72.9706 431 68 431C63.0294 431 59 435.029 59 440C59 444.971 63.0294 449 68 449Z" stroke="#8F00FF" stroke-width="6"/>
<path d="M68.228 453.706V485.296" stroke="#C8C7CC" stroke-width="2" stroke-miterlimit="10" stroke-linecap="round" stroke-linejoin="round" stroke-dasharray="4 4"/>
<path d="M278.588 439.388C278.444 438.176 277.604 437.144 275.948 437.144C273.752 437.144 272.876 438.824 272.876 441.548C272.876 444.176 273.488 446.024 276.056 446.024C277.952 446.024 278.888 444.728 278.888 443.144C278.888 441.32 277.796 440.252 276.176 440.252C275.144 440.252 274.196 440.732 273.824 441.584C273.812 439.004 274.556 438.056 275.936 438.056C276.92 438.056 277.412 438.548 277.58 439.388H278.588ZM275.948 441.176C277.196 441.176 277.832 441.956 277.832 443.18C277.832 444.356 277.124 445.112 275.996 445.112C274.628 445.112 273.956 444.212 273.956 443.06C273.956 441.764 274.952 441.176 275.948 441.176ZM281.609 445.328C281.609 444.908 281.285 444.584 280.889 444.584C280.469 444.584 280.145 444.908 280.145 445.328C280.145 445.748 280.469 446.072 280.889 446.072C281.285 446.072 281.609 445.748 281.609 445.328ZM282.857 439.508H283.925C284.033 438.668 284.645 438.092 285.665 438.092C286.709 438.092 287.261 438.668 287.261 439.496C287.261 440.504 286.481 440.948 285.029 440.96H284.741V441.872H285.017C286.577 441.872 287.429 442.34 287.429 443.564C287.429 444.452 286.877 445.136 285.713 445.136C284.561 445.136 283.889 444.428 283.781 443.504H282.725C282.857 445.184 284.081 446.06 285.725 446.06C287.537 446.06 288.473 445.004 288.473 443.66C288.473 442.412 287.789 441.668 286.781 441.428V441.368C287.693 441.164 288.317 440.384 288.317 439.388C288.317 438.14 287.393 437.156 285.701 437.156C284.093 437.156 282.965 438.02 282.857 439.508ZM289.947 441.572C289.947 444.092 290.571 446 292.971 446C295.359 446 295.983 444.092 295.983 441.572C295.983 439.088 295.359 437.192 292.971 437.192C290.571 437.192 289.947 439.088 289.947 441.572ZM294.903 441.572C294.903 443.444 294.675 445.004 292.971 445.004C291.255 445.004 291.027 443.444 291.027 441.572C291.027 439.772 291.255 438.188 292.971 438.188C294.675 438.188 294.903 439.772 294.903 441.572ZM306.478 446H307.63L304.618 437.684H303.358L300.333 446H301.486L302.158 444.14H305.806L306.478 446ZM305.494 443.252H302.47L303.982 439.028L305.494 443.252ZM308.947 446H310.039V439.796L312.811 446H313.579L316.339 439.808V446H317.431V437.696H316.267L313.195 444.56L310.123 437.696H308.947V446Z" fill="#AAAAAA"/>
<path d="M277.588 494.388C277.444 493.176 276.604 492.144 274.948 492.144C272.752 492.144 271.876 493.824 271.876 496.548C271.876 499.176 272.488 501.024 275.056 501.024C276.952 501.024 277.888 499.728 277.888 498.144C277.888 496.32 276.796 495.252 275.176 495.252C274.144 495.252 273.196 495.732 272.824 496.584C272.812 494.004 273.556 493.056 274.936 493.056C275.92 493.056 276.412 493.548 276.58 494.388H277.588ZM274.948 496.176C276.196 496.176 276.832 496.956 276.832 498.18C276.832 499.356 276.124 500.112 274.996 500.112C273.628 500.112 272.956 499.212 272.956 498.06C272.956 496.764 273.952 496.176 274.948 496.176ZM280.609 500.328C280.609 499.908 280.285 499.584 279.889 499.584C279.469 499.584 279.145 499.908 279.145 500.328C279.145 500.748 279.469 501.072 279.889 501.072C280.285 501.072 280.609 500.748 280.609 500.328ZM286.057 501H287.137V499.068H288.337V498.12H287.137V492.408H285.829L281.617 498.24V499.068H286.057V501ZM282.877 498.12L286.105 493.548V498.12H282.877ZM289.08 492.348V493.284H293.712L290.328 501H291.432L294.768 493.176V492.348H289.08ZM304.974 501H306.126L303.114 492.684H301.854L298.83 501H299.982L300.654 499.14H304.302L304.974 501ZM303.99 498.252H300.966L302.478 494.028L303.99 498.252ZM307.444 501H308.536V494.796L311.308 501H312.076L314.836 494.808V501H315.928V492.696H314.764L311.692 499.56L308.62 492.696H307.444V501Z" fill="#AAAAAA"/>
<path d="M96 564.315C96 553.269 87.0457 544.315 76 544.315C64.9543 544.315 56 553.269 56 564.315C56 575.361 64.9543 584.315 76 584.315C87.0457 584.315 96 575.361 96 564.315Z" fill="#CACACA"/>
<path d="M108.228 549.9H105.05V559.63H108.228C111.35 559.63 113.394 557.796 113.394 554.8C113.394 551.79 111.35 549.9 108.228 549.9ZM106.646 558.328V551.202H108.228C110.524 551.202 111.756 552.574 111.756 554.8C111.756 557.012 110.524 558.328 108.228 558.328H106.646ZM114.444 555.738C114.444 558.118 116.054 559.756 118.056 559.756C119.344 559.756 120.268 559.14 120.758 558.482V559.63H122.368V551.916H120.758V553.036C120.282 552.406 119.386 551.79 118.084 551.79C116.054 551.79 114.444 553.358 114.444 555.738ZM120.758 555.766C120.758 557.432 119.624 558.37 118.42 558.37C117.23 558.37 116.082 557.404 116.082 555.738C116.082 554.072 117.23 553.176 118.42 553.176C119.624 553.176 120.758 554.114 120.758 555.766ZM123.554 551.916L126.48 559.63H128.384L131.324 551.916H129.63L127.446 558.202L125.262 551.916H123.554ZM132.53 559.63H134.126V551.916H132.53V559.63ZM133.342 550.894C133.902 550.894 134.35 550.446 134.35 549.872C134.35 549.298 133.902 548.85 133.342 548.85C132.768 548.85 132.32 549.298 132.32 549.872C132.32 550.446 132.768 550.894 133.342 550.894ZM135.69 555.738C135.69 558.118 137.3 559.756 139.33 559.756C140.59 559.756 141.514 559.168 142.004 558.468V559.63H143.614V549.27H142.004V552.994C141.416 552.266 140.352 551.79 139.344 551.79C137.3 551.79 135.69 553.358 135.69 555.738ZM142.004 555.766C142.004 557.432 140.87 558.37 139.666 558.37C138.476 558.37 137.328 557.404 137.328 555.738C137.328 554.072 138.476 553.176 139.666 553.176C140.87 553.176 142.004 554.114 142.004 555.766ZM151.321 559.644L153.113 559.63L155.283 552.266L157.327 559.63H159.133L162.017 549.9H160.309L158.279 557.782L156.249 549.9H154.457L152.273 557.824L150.257 549.9H148.563L151.321 559.644ZM163.333 559.63H164.929V551.916H163.333V559.63ZM164.145 550.894C164.705 550.894 165.153 550.446 165.153 549.872C165.153 549.298 164.705 548.85 164.145 548.85C163.571 548.85 163.123 549.298 163.123 549.872C163.123 550.446 163.571 550.894 164.145 550.894ZM167.025 559.63H168.621V549.27H167.025V559.63ZM170.716 559.63H172.312V549.27H170.716V559.63ZM177.655 553.134C178.845 553.134 179.783 553.89 179.811 555.08H175.541C175.709 553.862 176.577 553.134 177.655 553.134ZM181.267 557.334H179.545C179.251 557.936 178.705 558.412 177.725 558.412C176.549 558.412 175.639 557.642 175.527 556.368H181.421C181.463 556.102 181.477 555.85 181.477 555.584C181.477 553.316 179.923 551.79 177.725 551.79C175.443 551.79 173.875 553.344 173.875 555.766C173.875 558.188 175.513 559.756 177.725 559.756C179.615 559.756 180.833 558.678 181.267 557.334ZM186.086 557.796L183.916 551.916H182.138L185.176 559.504L183.608 563.256H185.26L189.992 551.916H188.34L186.086 557.796Z" fill="#080A24"/>
<path d="M116.178 574.607C116.136 574.468 116.057 574.343 115.947 574.247C115.838 574.15 115.704 574.087 115.561 574.063L112.267 573.563L110.793 570.446C110.734 570.313 110.638 570.201 110.516 570.122C110.395 570.042 110.253 570 110.107 570C109.962 570 109.82 570.042 109.699 570.122C109.577 570.201 109.481 570.313 109.422 570.446L107.949 573.564L104.655 574.064C104.511 574.088 104.377 574.151 104.268 574.247C104.159 574.343 104.079 574.468 104.038 574.608C103.994 574.749 103.988 574.9 104.022 575.044C104.056 575.187 104.128 575.32 104.231 575.426L106.615 577.853L106.052 581.281C106.027 581.426 106.041 581.575 106.094 581.713C106.147 581.85 106.236 581.971 106.352 582.062C106.465 582.149 106.601 582.2 106.743 582.211C106.885 582.222 107.027 582.191 107.152 582.123L110.107 580.5L113.054 582.119C113.179 582.187 113.321 582.218 113.463 582.207C113.605 582.196 113.741 582.144 113.854 582.058C113.97 581.967 114.059 581.846 114.112 581.709C114.164 581.571 114.179 581.422 114.154 581.277L113.6 577.853L115.984 575.426C116.087 575.319 116.159 575.187 116.193 575.043C116.227 574.899 116.222 574.748 116.178 574.607Z" fill="#FFCC00"/>
<path d="M128.027 582H129.107V580.068H130.307V579.12H129.107V573.408H127.799L123.587 579.24V580.068H128.027V582ZM124.847 579.12L128.075 574.548V579.12H124.847ZM132.646 581.328C132.646 580.908 132.322 580.584 131.926 580.584C131.506 580.584 131.182 580.908 131.182 581.328C131.182 581.748 131.506 582.072 131.926 582.072C132.322 582.072 132.646 581.748 132.646 581.328ZM134.313 579.672C134.433 580.944 135.273 582.012 137.001 582.012C139.281 582.012 139.941 580.392 139.941 577.5C139.941 574.812 139.257 573.156 136.905 573.156C135.033 573.156 134.049 574.356 134.049 576.012C134.049 577.848 135.237 578.844 136.833 578.844C137.769 578.844 138.633 578.424 138.981 577.692C139.017 580.236 138.333 581.1 137.061 581.1C136.053 581.1 135.477 580.572 135.321 579.672H134.313ZM137.013 577.92C135.717 577.92 135.093 577.104 135.093 575.988C135.093 574.836 135.801 574.068 136.929 574.068C138.177 574.068 138.849 574.896 138.849 576.072C138.849 577.236 138.057 577.92 137.013 577.92Z" fill="#C8C7CC"/>
<path d="M284.016 557.608V554.536H285.624C286.872 554.536 287.4 555.112 287.4 556.084C287.4 557.02 286.872 557.608 285.624 557.608H284.016ZM288.516 556.084C288.516 554.716 287.592 553.636 285.624 553.636H282.924V562H284.016V558.508H285.624C287.7 558.508 288.516 557.356 288.516 556.084ZM290.965 558.424C290.965 556.9 291.757 556.432 292.801 556.432H293.089V555.304C292.045 555.304 291.337 555.76 290.965 556.492V555.424H289.873V562H290.965V558.424ZM294.35 562H295.442V555.424H294.35V562ZM294.914 554.356C295.31 554.356 295.634 554.032 295.634 553.612C295.634 553.192 295.31 552.868 294.914 552.868C294.494 552.868 294.17 553.192 294.17 553.612C294.17 554.032 294.494 554.356 294.914 554.356ZM296.895 558.7C296.895 560.788 298.227 562.108 300.099 562.108C301.731 562.108 302.799 561.196 303.135 559.888H301.959C301.719 560.716 301.071 561.184 300.099 561.184C298.899 561.184 298.011 560.332 298.011 558.7C298.011 557.092 298.899 556.24 300.099 556.24C301.071 556.24 301.731 556.744 301.959 557.536H303.135C302.799 556.156 301.731 555.316 300.099 555.316C298.227 555.316 296.895 556.636 296.895 558.7ZM307.388 556.24C308.516 556.24 309.476 556.948 309.464 558.232H305.312C305.432 556.948 306.32 556.24 307.388 556.24ZM310.46 559.972H309.284C309.044 560.68 308.42 561.184 307.436 561.184C306.32 561.184 305.384 560.452 305.3 559.12H310.556C310.58 558.892 310.592 558.7 310.592 558.46C310.592 556.66 309.344 555.316 307.436 555.316C305.516 555.316 304.184 556.624 304.184 558.7C304.184 560.788 305.564 562.108 307.436 562.108C309.068 562.108 310.124 561.172 310.46 559.972Z" fill="#656565"/>
<path d="M280.738 585.218H281.494V584.084C283.398 583.958 284.378 582.628 284.378 581.326C284.378 579.38 282.88 578.974 281.494 578.624V575.208C282.348 575.39 282.81 576.02 282.894 576.622H284.252C284.112 575.208 283.09 574.27 281.494 574.13V572.968H280.738V574.13C278.988 574.242 277.84 575.32 277.84 576.832C277.84 578.764 279.338 579.17 280.738 579.534V583.034C279.744 582.88 279.282 582.194 279.212 581.466H277.854C277.882 582.95 279.058 583.93 280.738 584.084V585.218ZM283.104 581.396C283.104 582.236 282.53 582.936 281.494 583.048V579.744C282.39 580.01 283.104 580.402 283.104 581.396ZM279.142 576.762C279.142 575.768 279.8 575.264 280.738 575.18V578.414C279.842 578.134 279.142 577.756 279.142 576.762ZM287.039 581.284C287.179 582.768 288.159 584.014 290.175 584.014C292.835 584.014 293.605 582.124 293.605 578.75C293.605 575.614 292.807 573.682 290.063 573.682C287.879 573.682 286.731 575.082 286.731 577.014C286.731 579.156 288.117 580.318 289.979 580.318C291.071 580.318 292.079 579.828 292.485 578.974C292.527 581.942 291.729 582.95 290.245 582.95C289.069 582.95 288.397 582.334 288.215 581.284H287.039ZM290.189 579.24C288.677 579.24 287.949 578.288 287.949 576.986C287.949 575.642 288.775 574.746 290.091 574.746C291.547 574.746 292.331 575.712 292.331 577.084C292.331 578.442 291.407 579.24 290.189 579.24ZM294.499 586.002H295.353L296.921 582.236H295.521L294.499 586.002ZM298.171 578.834C298.171 581.774 298.899 584 301.699 584C304.485 584 305.213 581.774 305.213 578.834C305.213 575.936 304.485 573.724 301.699 573.724C298.899 573.724 298.171 575.936 298.171 578.834ZM303.953 578.834C303.953 581.018 303.687 582.838 301.699 582.838C299.697 582.838 299.431 581.018 299.431 578.834C299.431 576.734 299.697 574.886 301.699 574.886C303.687 574.886 303.953 576.734 303.953 578.834ZM306.962 578.834C306.962 581.774 307.69 584 310.49 584C313.276 584 314.004 581.774 314.004 578.834C314.004 575.936 313.276 573.724 310.49 573.724C307.69 573.724 306.962 575.936 306.962 578.834ZM312.744 578.834C312.744 581.018 312.478 582.838 310.49 582.838C308.488 582.838 308.222 581.018 308.222 578.834C308.222 576.734 308.488 574.886 310.49 574.886C312.478 574.886 312.744 576.734 312.744 578.834Z" fill="black"/>
<g filter="url(#filter2_d_1_576)">
<path d="M320 629H54C44.0589 629 36 637.059 36 647V807C36 816.941 44.0589 825 54 825H320C329.941 825 338 816.941 338 807V647C338 637.059 329.941 629 320 629Z" fill="white"/>
<path d="M320 629.5H54C44.335 629.5 36.5 637.335 36.5 647V807C36.5 816.665 44.335 824.5 54 824.5H320C329.665 824.5 337.5 816.665 337.5 807V647C337.5 637.335 329.665 629.5 320 629.5Z" stroke="#EDEDED"/>
</g>
<path d="M54 629H320C322.364 629 324.704 629.466 326.888 630.37C329.072 631.275 331.056 632.601 332.728 634.272C334.399 635.944 335.725 637.928 336.63 640.112C337.534 642.296 338 644.636 338 647V746H36V647C36 642.226 37.8964 637.648 41.2721 634.272C44.6477 630.896 49.2261 629 54 629V629Z" fill="#FAFAFA"/>
<path d="M54 629.5H320C324.641 629.5 329.092 631.344 332.374 634.626C335.656 637.908 337.5 642.359 337.5 647V745C337.5 745.133 337.447 745.26 337.354 745.354C337.26 745.447 337.133 745.5 337 745.5H37C36.8674 745.5 36.7402 745.447 36.6464 745.354C36.5527 745.26 36.5 745.133 36.5 745V647C36.5 642.359 38.3437 637.908 41.6256 634.626C44.9075 631.344 49.3587 629.5 54 629.5V629.5Z" stroke="#EDEDED"/>
<path d="M103.458 661.114C103.458 658.202 101.26 656.144 98.488 656.144C95.744 656.144 93.518 658.202 93.518 661.114C93.518 664.04 95.744 666.098 98.488 666.098C101.26 666.098 103.458 664.04 103.458 661.114ZM95.156 661.114C95.156 658.916 96.556 657.544 98.488 657.544C100.42 657.544 101.82 658.916 101.82 661.114C101.82 663.312 100.42 664.712 98.488 664.712C96.556 664.712 95.156 663.312 95.156 661.114ZM105.029 666H106.625V659.336L109.607 666H110.713L113.681 659.336V666H115.277V656.27H113.569L110.167 663.9L106.751 656.27H105.029V666ZM120.997 662.444C120.997 664.922 122.733 666.098 124.777 666.098C126.807 666.098 128.599 664.922 128.599 662.444V656.27H127.003V662.472C127.003 663.984 126.149 664.698 124.791 664.698C123.447 664.698 122.593 663.984 122.593 662.472V656.27H120.997V662.444ZM136.151 666H137.733V661.45C137.733 659.294 136.375 658.16 134.569 658.16C133.645 658.16 132.791 658.538 132.273 659.168V658.286H130.677V666H132.273V661.688C132.273 660.274 133.043 659.546 134.219 659.546C135.381 659.546 136.151 660.274 136.151 661.688V666ZM139.769 666H141.365V658.286H139.769V666ZM140.581 657.264C141.141 657.264 141.589 656.816 141.589 656.242C141.589 655.668 141.141 655.22 140.581 655.22C140.007 655.22 139.559 655.668 139.559 656.242C139.559 656.816 140.007 657.264 140.581 657.264ZM142.55 658.286L145.476 666H147.38L150.32 658.286H148.626L146.442 664.572L144.258 658.286H142.55ZM154.775 659.504C155.965 659.504 156.903 660.26 156.931 661.45H152.661C152.829 660.232 153.697 659.504 154.775 659.504ZM158.387 663.704H156.665C156.371 664.306 155.825 664.782 154.845 664.782C153.669 664.782 152.759 664.012 152.647 662.738H158.541C158.583 662.472 158.597 662.22 158.597 661.954C158.597 659.686 157.043 658.16 154.845 658.16C152.563 658.16 150.995 659.714 150.995 662.136C150.995 664.558 152.633 666.126 154.845 666.126C156.735 666.126 157.953 665.048 158.387 663.704ZM161.763 661.94C161.763 660.302 162.491 659.812 163.667 659.812H164.073V658.16C162.981 658.16 162.211 658.636 161.763 659.406V658.286H160.167V666H161.763V661.94ZM171.294 663.844C171.21 661.058 166.856 661.926 166.856 660.372C166.856 659.854 167.304 659.504 168.158 659.504C169.026 659.504 169.544 659.966 169.6 660.638H171.196C171.112 659.098 169.964 658.16 168.214 658.16C166.394 658.16 165.246 659.154 165.246 660.386C165.246 663.214 169.726 662.346 169.726 663.858C169.726 664.39 169.236 664.782 168.312 664.782C167.43 664.782 166.828 664.264 166.772 663.634H165.12C165.19 665.034 166.492 666.126 168.34 666.126C170.16 666.126 171.294 665.146 171.294 663.844ZM173.019 666H174.615V658.286H173.019V666ZM173.831 657.264C174.391 657.264 174.839 656.816 174.839 656.242C174.839 655.668 174.391 655.22 173.831 655.22C173.257 655.22 172.809 655.668 172.809 656.242C172.809 656.816 173.257 657.264 173.831 657.264ZM176.962 663.858C176.962 665.426 177.816 666 179.188 666H180.448V664.67H179.468C178.796 664.67 178.572 664.432 178.572 663.858V659.588H180.448V658.286H178.572V656.368H176.962V658.286H176.052V659.588H176.962V663.858ZM184.957 664.166L182.787 658.286H181.009L184.047 665.874L182.479 669.626H184.131L188.863 658.286H187.211L184.957 664.166Z" fill="black"/>
<path d="M100.224 721.036H101.82V711.306H100.224V715.478H95.646V711.306H94.05V721.036H95.646V716.78H100.224V721.036ZM111.271 717.172C111.271 714.75 109.535 713.196 107.337 713.196C105.139 713.196 103.403 714.75 103.403 717.172C103.403 719.594 105.069 721.162 107.267 721.162C109.479 721.162 111.271 719.594 111.271 717.172ZM105.027 717.172C105.027 715.422 106.105 714.582 107.309 714.582C108.499 714.582 109.633 715.422 109.633 717.172C109.633 718.922 108.457 719.776 107.267 719.776C106.063 719.776 105.027 718.922 105.027 717.172ZM123.783 721.036H125.365V716.486C125.365 714.33 123.993 713.196 122.187 713.196C121.067 713.196 119.975 713.784 119.499 714.722C118.967 713.714 117.945 713.196 116.727 713.196C115.803 713.196 114.963 713.574 114.445 714.204V713.322H112.849V721.036H114.445V716.724C114.445 715.31 115.215 714.582 116.391 714.582C117.553 714.582 118.323 715.31 118.323 716.724V721.036H119.905V716.724C119.905 715.31 120.675 714.582 121.851 714.582C123.013 714.582 123.783 715.31 123.783 716.724V721.036ZM130.644 714.54C131.834 714.54 132.772 715.296 132.8 716.486H128.53C128.698 715.268 129.566 714.54 130.644 714.54ZM134.256 718.74H132.534C132.24 719.342 131.694 719.818 130.714 719.818C129.538 719.818 128.628 719.048 128.516 717.774H134.41C134.452 717.508 134.466 717.256 134.466 716.99C134.466 714.722 132.912 713.196 130.714 713.196C128.432 713.196 126.864 714.75 126.864 717.172C126.864 719.594 128.502 721.162 130.714 721.162C132.604 721.162 133.822 720.084 134.256 718.74Z" fill="black"/>
<path d="M68.227 727C67.276 727 62.758 721.415 61.651 719.618C60 716.932 59 715.31 59 712.227C59 709.78 59.9722 707.433 61.7027 705.702C63.4332 703.972 65.7802 703 68.2275 703C70.6748 703 73.0218 703.972 74.7523 705.702C76.4828 707.433 77.455 709.78 77.455 712.227C77.455 715.186 76.469 716.784 74.836 719.433L74.723 719.617C73.582 721.466 69.16 727 68.227 727ZM68.227 707.614C67.3144 707.614 66.4224 707.885 65.6636 708.392C64.9048 708.899 64.3134 709.619 63.9642 710.462C63.615 711.305 63.5236 712.233 63.7017 713.128C63.8797 714.023 64.3191 714.845 64.9644 715.491C65.6097 716.136 66.4318 716.575 67.3269 716.753C68.2219 716.931 69.1496 716.84 69.9927 716.491C70.8358 716.142 71.5564 715.55 72.0634 714.791C72.5704 714.033 72.841 713.141 72.841 712.228C72.8397 711.005 72.3531 709.832 71.4881 708.967C70.6231 708.102 69.4503 707.615 68.227 707.614Z" fill="#F52D56"/>
<path d="M68 672C74.6274 672 80 666.627 80 660C80 653.373 74.6274 648 68 648C61.3726 648 56 653.373 56 660C56 666.627 61.3726 672 68 672Z" fill="white"/>
<path d="M68 669C72.9706 669 77 664.971 77 660C77 655.029 72.9706 651 68 651C63.0294 651 59 655.029 59 660C59 664.971 63.0294 669 68 669Z" stroke="#8F00FF" stroke-width="6"/>
<path d="M68.228 673.706V705.296" stroke="#C8C7CC" stroke-width="2" stroke-miterlimit="10" stroke-linecap="round" stroke-linejoin="round" stroke-dasharray="4 4"/>
<path d="M273.608 666H274.712V657.324H272.456V658.32H273.608V666ZM277.452 666H278.556V657.324H276.3V658.32H277.452V666ZM281.68 665.328C281.68 664.908 281.356 664.584 280.96 664.584C280.54 664.584 280.216 664.908 280.216 665.328C280.216 665.748 280.54 666.072 280.96 666.072C281.356 666.072 281.68 665.748 281.68 665.328ZM281.68 660.192C281.68 659.772 281.356 659.448 280.96 659.448C280.54 659.448 280.216 659.772 280.216 660.192C280.216 660.612 280.54 660.936 280.96 660.936C281.356 660.936 281.68 660.612 281.68 660.192ZM282.854 665.904H288.626V664.992H284.498C286.046 663.732 288.374 661.896 288.374 659.736C288.374 658.128 287.318 657.168 285.686 657.168C284.126 657.168 282.962 658.128 282.89 659.976H283.946C283.994 658.884 284.57 658.104 285.698 658.104C286.874 658.104 287.294 658.824 287.294 659.784C287.294 661.56 285.134 663.288 282.854 665.124V665.904ZM294.065 666H295.145V664.068H296.345V663.12H295.145V657.408H293.837L289.625 663.24V664.068H294.065V666ZM290.885 663.12L294.113 658.548V663.12H290.885ZM306.431 666H307.583L304.571 657.684H303.311L300.287 666H301.439L302.111 664.14H305.759L306.431 666ZM305.447 663.252H302.423L303.935 659.028L305.447 663.252ZM308.901 666H309.993V659.796L312.765 666H313.533L316.293 659.808V666H317.385V657.696H316.221L313.149 664.56L310.077 657.696H308.901V666Z" fill="#AAAAAA"/>
<path d="M272.608 721H273.712V712.324H271.456V713.32H272.608V721ZM276.452 721H277.556V712.324H275.3V713.32H276.452V721ZM280.68 720.328C280.68 719.908 280.356 719.584 279.96 719.584C279.54 719.584 279.216 719.908 279.216 720.328C279.216 720.748 279.54 721.072 279.96 721.072C280.356 721.072 280.68 720.748 280.68 720.328ZM280.68 715.192C280.68 714.772 280.356 714.448 279.96 714.448C279.54 714.448 279.216 714.772 279.216 715.192C279.216 715.612 279.54 715.936 279.96 715.936C280.356 715.936 280.68 715.612 280.68 715.192ZM282.298 712.312V717.208H283.33C283.618 716.524 284.254 716.068 285.13 716.068C286.39 716.068 287.026 716.788 287.026 718.024C287.026 719.212 286.438 720.1 285.118 720.1C284.098 720.1 283.39 719.56 283.186 718.648H282.118C282.334 720.052 283.378 721.024 285.106 721.024C287.134 721.024 288.07 719.68 288.07 718C288.07 716.656 287.398 715.132 285.286 715.132C284.434 715.132 283.666 715.516 283.306 716.008V713.272H287.518V712.312H282.298ZM289.389 720.904H295.161V719.992H291.033C292.581 718.732 294.909 716.896 294.909 714.736C294.909 713.128 293.853 712.168 292.221 712.168C290.661 712.168 289.497 713.128 289.425 714.976H290.481C290.529 713.884 291.105 713.104 292.233 713.104C293.409 713.104 293.829 713.824 293.829 714.784C293.829 716.56 291.669 718.288 289.389 720.124V720.904ZM305.419 721H306.571L303.559 712.684H302.299L299.275 721H300.427L301.099 719.14H304.747L305.419 721ZM304.435 718.252H301.411L302.923 714.028L304.435 718.252ZM307.889 721H308.981V714.796L311.753 721H312.521L315.281 714.808V721H316.373V712.696H315.209L312.137 719.56L309.065 712.696H307.889V721Z" fill="#AAAAAA"/>
<path d="M76 764.315C79.9556 764.315 83.8224 765.488 87.1114 767.686C90.4004 769.883 92.9638 773.007 94.4776 776.661C95.9913 780.316 96.3874 784.337 95.6157 788.217C94.844 792.096 92.9392 795.66 90.1421 798.457C87.3451 801.254 83.7814 803.159 79.9018 803.931C76.0222 804.702 72.0009 804.306 68.3463 802.793C64.6918 801.279 61.5682 798.715 59.3706 795.426C57.173 792.137 56 788.271 56 784.315C56 779.011 58.1071 773.924 61.8579 770.173C65.6086 766.422 70.6957 764.315 76 764.315V764.315Z" fill="#CACACA"/>
<path d="M107.024 779.644L108.816 779.63L110.986 772.266L113.03 779.63H114.836L117.72 769.9H116.012L113.982 777.782L111.952 769.9H110.16L107.976 777.824L105.96 769.9H104.266L107.024 779.644ZM118.504 775.738C118.504 778.118 120.114 779.756 122.116 779.756C123.404 779.756 124.328 779.14 124.818 778.482V779.63H126.428V771.916H124.818V773.036C124.342 772.406 123.446 771.79 122.144 771.79C120.114 771.79 118.504 773.358 118.504 775.738ZM124.818 775.766C124.818 777.432 123.684 778.37 122.48 778.37C121.29 778.37 120.142 777.404 120.142 775.738C120.142 774.072 121.29 773.176 122.48 773.176C123.684 773.176 124.818 774.114 124.818 775.766ZM131.563 777.796L129.393 771.916H127.615L130.653 779.504L129.085 783.256H130.737L135.469 771.916H133.817L131.563 777.796ZM142.147 779.63H143.729V775.08C143.729 772.924 142.371 771.79 140.565 771.79C139.641 771.79 138.787 772.168 138.269 772.798V771.916H136.673V779.63H138.269V775.318C138.269 773.904 139.039 773.176 140.215 773.176C141.377 773.176 142.147 773.904 142.147 775.318V779.63ZM149.013 773.134C150.203 773.134 151.141 773.89 151.169 775.08H146.899C147.067 773.862 147.935 773.134 149.013 773.134ZM152.625 777.334H150.903C150.609 777.936 150.063 778.412 149.083 778.412C147.907 778.412 146.997 777.642 146.885 776.368H152.779C152.821 776.102 152.835 775.85 152.835 775.584C152.835 773.316 151.281 771.79 149.083 771.79C146.801 771.79 145.233 773.344 145.233 775.766C145.233 778.188 146.871 779.756 149.083 779.756C150.973 779.756 152.191 778.678 152.625 777.334ZM159.638 774.38V771.202H161.402C162.648 771.202 163.208 771.79 163.208 772.798C163.208 773.778 162.648 774.38 161.402 774.38H159.638ZM164.846 772.798C164.846 771.216 163.712 769.9 161.402 769.9H158.042V779.63H159.638V775.682H161.402C163.936 775.682 164.846 774.184 164.846 772.798ZM165.836 775.738C165.836 778.118 167.446 779.756 169.448 779.756C170.736 779.756 171.66 779.14 172.15 778.482V779.63H173.76V771.916H172.15V773.036C171.674 772.406 170.778 771.79 169.476 771.79C167.446 771.79 165.836 773.358 165.836 775.738ZM172.15 775.766C172.15 777.432 171.016 778.37 169.812 778.37C168.622 778.37 167.474 777.404 167.474 775.738C167.474 774.072 168.622 773.176 169.812 773.176C171.016 773.176 172.15 774.114 172.15 775.766ZM177.453 775.57C177.453 773.932 178.181 773.442 179.357 773.442H179.763V771.79C178.671 771.79 177.901 772.266 177.453 773.036V771.916H175.857V779.63H177.453V775.57ZM186.704 779.63H188.286V775.08C188.286 772.924 186.928 771.79 185.122 771.79C184.198 771.79 183.344 772.168 182.826 772.798V771.916H181.23V779.63H182.826V775.318C182.826 773.904 183.596 773.176 184.772 773.176C185.934 773.176 186.704 773.904 186.704 775.318V779.63ZM193.569 773.134C194.759 773.134 195.697 773.89 195.725 775.08H191.455C191.623 773.862 192.491 773.134 193.569 773.134ZM197.181 777.334H195.459C195.165 777.936 194.619 778.412 193.639 778.412C192.463 778.412 191.553 777.642 191.441 776.368H197.335C197.377 776.102 197.391 775.85 197.391 775.584C197.391 773.316 195.837 771.79 193.639 771.79C191.357 771.79 189.789 773.344 189.789 775.766C189.789 778.188 191.427 779.756 193.639 779.756C195.529 779.756 196.747 778.678 197.181 777.334ZM198.962 779.63H200.558V769.27H198.962V779.63ZM202.654 779.63H204.25V769.27H202.654V779.63Z" fill="#080A24"/>
<path d="M116.178 794.607C116.136 794.468 116.057 794.343 115.947 794.247C115.838 794.15 115.704 794.087 115.561 794.063L112.267 793.563L110.793 790.446C110.734 790.313 110.638 790.201 110.516 790.122C110.395 790.042 110.253 790 110.107 790C109.962 790 109.82 790.042 109.699 790.122C109.577 790.201 109.481 790.313 109.422 790.446L107.949 793.564L104.655 794.064C104.511 794.088 104.377 794.151 104.268 794.247C104.159 794.343 104.079 794.468 104.038 794.608C103.994 794.749 103.988 794.9 104.022 795.044C104.056 795.187 104.128 795.32 104.231 795.426L106.615 797.853L106.052 801.281C106.027 801.426 106.041 801.575 106.094 801.713C106.147 801.85 106.236 801.971 106.352 802.062C106.465 802.149 106.601 802.2 106.743 802.211C106.885 802.222 107.027 802.191 107.152 802.123L110.107 800.5L113.054 802.119C113.179 802.187 113.321 802.218 113.463 802.207C113.605 802.196 113.741 802.144 113.854 802.058C113.97 801.967 114.059 801.846 114.112 801.709C114.164 801.571 114.179 801.422 114.154 801.277L113.6 797.853L115.984 795.426C116.087 795.319 116.159 795.187 116.193 795.043C116.227 794.899 116.222 794.748 116.178 794.607Z" fill="#FFCC00"/>
<path d="M128.027 802H129.107V800.068H130.307V799.12H129.107V793.408H127.799L123.587 799.24V800.068H128.027V802ZM124.847 799.12L128.075 794.548V799.12H124.847ZM132.646 801.328C132.646 800.908 132.322 800.584 131.926 800.584C131.506 800.584 131.182 800.908 131.182 801.328C131.182 801.748 131.506 802.072 131.926 802.072C132.322 802.072 132.646 801.748 132.646 801.328ZM134.313 799.672C134.433 800.944 135.273 802.012 137.001 802.012C139.281 802.012 139.941 800.392 139.941 797.5C139.941 794.812 139.257 793.156 136.905 793.156C135.033 793.156 134.049 794.356 134.049 796.012C134.049 797.848 135.237 798.844 136.833 798.844C137.769 798.844 138.633 798.424 138.981 797.692C139.017 800.236 138.333 801.1 137.061 801.1C136.053 801.1 135.477 800.572 135.321 799.672H134.313ZM137.013 797.92C135.717 797.92 135.093 797.104 135.093 795.988C135.093 794.836 135.801 794.068 136.929 794.068C138.177 794.068 138.849 794.896 138.849 796.072C138.849 797.236 138.057 797.92 137.013 797.92Z" fill="#C8C7CC"/>
<path d="M284.016 777.608V774.536H285.624C286.872 774.536 287.4 775.112 287.4 776.084C287.4 777.02 286.872 777.608 285.624 777.608H284.016ZM288.516 776.084C288.516 774.716 287.592 773.636 285.624 773.636H282.924V782H284.016V778.508H285.624C287.7 778.508 288.516 777.356 288.516 776.084ZM290.965 778.424C290.965 776.9 291.757 776.432 292.801 776.432H293.089V775.304C292.045 775.304 291.337 775.76 290.965 776.492V775.424H289.873V782H290.965V778.424ZM294.35 782H295.442V775.424H294.35V782ZM294.914 774.356C295.31 774.356 295.634 774.032 295.634 773.612C295.634 773.192 295.31 772.868 294.914 772.868C294.494 772.868 294.17 773.192 294.17 773.612C294.17 774.032 294.494 774.356 294.914 774.356ZM296.895 778.7C296.895 780.788 298.227 782.108 300.099 782.108C301.731 782.108 302.799 781.196 303.135 779.888H301.959C301.719 780.716 301.071 781.184 300.099 781.184C298.899 781.184 298.011 780.332 298.011 778.7C298.011 777.092 298.899 776.24 300.099 776.24C301.071 776.24 301.731 776.744 301.959 777.536H303.135C302.799 776.156 301.731 775.316 300.099 775.316C298.227 775.316 296.895 776.636 296.895 778.7ZM307.388 776.24C308.516 776.24 309.476 776.948 309.464 778.232H305.312C305.432 776.948 306.32 776.24 307.388 776.24ZM310.46 779.972H309.284C309.044 780.68 308.42 781.184 307.436 781.184C306.32 781.184 305.384 780.452 305.3 779.12H310.556C310.58 778.892 310.592 778.7 310.592 778.46C310.592 776.66 309.344 775.316 307.436 775.316C305.516 775.316 304.184 776.624 304.184 778.7C304.184 780.788 305.564 782.108 307.436 782.108C309.068 782.108 310.124 781.172 310.46 779.972Z" fill="#656565"/>
<path d="M280.738 805.218H281.494V804.084C283.398 803.958 284.378 802.628 284.378 801.326C284.378 799.38 282.88 798.974 281.494 798.624V795.208C282.348 795.39 282.81 796.02 282.894 796.622H284.252C284.112 795.208 283.09 794.27 281.494 794.13V792.968H280.738V794.13C278.988 794.242 277.84 795.32 277.84 796.832C277.84 798.764 279.338 799.17 280.738 799.534V803.034C279.744 802.88 279.282 802.194 279.212 801.466H277.854C277.882 802.95 279.058 803.93 280.738 804.084V805.218ZM283.104 801.396C283.104 802.236 282.53 802.936 281.494 803.048V799.744C282.39 800.01 283.104 800.402 283.104 801.396ZM279.142 796.762C279.142 795.768 279.8 795.264 280.738 795.18V798.414C279.842 798.134 279.142 797.756 279.142 796.762ZM287.039 801.284C287.179 802.768 288.159 804.014 290.175 804.014C292.835 804.014 293.605 802.124 293.605 798.75C293.605 795.614 292.807 793.682 290.063 793.682C287.879 793.682 286.731 795.082 286.731 797.014C286.731 799.156 288.117 800.318 289.979 800.318C291.071 800.318 292.079 799.828 292.485 798.974C292.527 801.942 291.729 802.95 290.245 802.95C289.069 802.95 288.397 802.334 288.215 801.284H287.039ZM290.189 799.24C288.677 799.24 287.949 798.288 287.949 796.986C287.949 795.642 288.775 794.746 290.091 794.746C291.547 794.746 292.331 795.712 292.331 797.084C292.331 798.442 291.407 799.24 290.189 799.24ZM294.499 806.002H295.353L296.921 802.236H295.521L294.499 806.002ZM298.171 798.834C298.171 801.774 298.899 804 301.699 804C304.485 804 305.213 801.774 305.213 798.834C305.213 795.936 304.485 793.724 301.699 793.724C298.899 793.724 298.171 795.936 298.171 798.834ZM303.953 798.834C303.953 801.018 303.687 802.838 301.699 802.838C299.697 802.838 299.431 801.018 299.431 798.834C299.431 796.734 299.697 794.886 301.699 794.886C303.687 794.886 303.953 796.734 303.953 798.834ZM306.962 798.834C306.962 801.774 307.69 804 310.49 804C313.276 804 314.004 801.774 314.004 798.834C314.004 795.936 313.276 793.724 310.49 793.724C307.69 793.724 306.962 795.936 306.962 798.834ZM312.744 798.834C312.744 801.018 312.478 802.838 310.49 802.838C308.488 802.838 308.222 801.018 308.222 798.834C308.222 796.734 308.488 794.886 310.49 794.886C312.478 794.886 312.744 796.734 312.744 798.834Z" fill="black"/>
<path d="M136.576 58.47H139.924V69H142.444V58.47H145.792V56.436H136.576V58.47ZM150.151 64.032C150.151 62.106 151.051 61.53 152.545 61.53H153.211V58.884C151.825 58.884 150.781 59.55 150.151 60.576V59.028H147.631V69H150.151V64.032ZM154.908 69H157.428V59.028H154.908V69ZM156.186 57.84C157.068 57.84 157.734 57.192 157.734 56.364C157.734 55.536 157.068 54.888 156.186 54.888C155.286 54.888 154.638 55.536 154.638 56.364C154.638 57.192 155.286 57.84 156.186 57.84ZM162.438 60.468V59.028H159.918V73.752H162.438V67.578C163.05 68.388 164.166 69.162 165.732 69.162C168.288 69.162 170.286 67.092 170.286 63.978C170.286 60.864 168.288 58.866 165.732 58.866C164.184 58.866 163.032 59.622 162.438 60.468ZM167.712 63.978C167.712 65.868 166.434 66.948 165.066 66.948C163.716 66.948 162.438 65.904 162.438 64.014C162.438 62.124 163.716 61.08 165.066 61.08C166.434 61.08 167.712 62.088 167.712 63.978ZM184.308 69H186.828V56.436H184.308V61.602H178.926V56.436H176.406V69H178.926V63.654H184.308V69ZM189.308 69H191.828V59.028H189.308V69ZM190.586 57.84C191.468 57.84 192.134 57.192 192.134 56.364C192.134 55.536 191.468 54.888 190.586 54.888C189.686 54.888 189.038 55.536 189.038 56.364C189.038 57.192 189.686 57.84 190.586 57.84ZM202.058 66.156C201.986 62.502 196.46 63.636 196.46 61.818C196.46 61.242 196.946 60.864 197.882 60.864C198.872 60.864 199.484 61.386 199.556 62.16H201.968C201.824 60.18 200.366 58.866 197.954 58.866C195.488 58.866 194.012 60.198 194.012 61.854C194.012 65.508 199.646 64.374 199.646 66.156C199.646 66.732 199.106 67.182 198.116 67.182C197.108 67.182 196.406 66.606 196.316 65.85H193.778C193.886 67.704 195.632 69.162 198.134 69.162C200.564 69.162 202.058 67.866 202.058 66.156ZM204.523 65.904C204.523 68.19 205.801 69 207.709 69H209.293V66.876H208.123C207.331 66.876 207.061 66.588 207.061 65.922V61.098H209.293V59.028H207.061V56.562H204.523V59.028H203.335V61.098H204.523V65.904ZM220.735 64.014C220.735 60.864 218.485 58.866 215.605 58.866C212.725 58.866 210.475 60.864 210.475 64.014C210.475 67.146 212.653 69.162 215.533 69.162C218.431 69.162 220.735 67.146 220.735 64.014ZM213.031 64.014C213.031 62.016 214.237 61.062 215.569 61.062C216.901 61.062 218.143 62.016 218.143 64.014C218.143 65.994 216.865 66.966 215.533 66.966C214.183 66.966 213.031 65.994 213.031 64.014ZM225.104 64.032C225.104 62.106 226.004 61.53 227.498 61.53H228.164V58.884C226.778 58.884 225.734 59.55 225.104 60.576V59.028H222.584V69H225.104V64.032ZM234.109 65.994L231.535 59.028H228.709L232.705 68.748L230.545 73.716H233.227L239.401 59.028H236.719L234.109 65.994Z" fill="white"/>
<path d="M76 63C76 51.9543 67.0457 43 56 43C44.9543 43 36 51.9543 36 63C36 74.0457 44.9543 83 56 83C67.0457 83 76 74.0457 76 63Z" fill="white"/>
<path d="M50.3359 57.336C50.2295 57.4423 50.1451 57.5684 50.0875 57.7073C50.0299 57.8462 50.0002 57.9951 50.0002 58.1455C50.0002 58.2959 50.0299 58.4448 50.0875 58.5837C50.1451 58.7226 50.2295 58.8488 50.3359 58.955L54.3819 63.001L50.3359 67.043C50.2296 67.1493 50.1453 67.2755 50.0877 67.4144C50.0302 67.5533 50.0006 67.7022 50.0006 67.8525C50.0006 68.0028 50.0302 68.1517 50.0877 68.2906C50.1453 68.4295 50.2296 68.5557 50.3359 68.662C50.4422 68.7683 50.5684 68.8526 50.7073 68.9102C50.8462 68.9677 50.995 68.9973 51.1454 68.9973C51.2957 68.9973 51.4446 68.9677 51.5835 68.9102C51.7224 68.8526 51.8486 68.7683 51.9549 68.662L56.0009 64.616L60.0429 68.665C60.1494 68.7715 60.2758 68.856 60.415 68.9136C60.5541 68.9713 60.7033 69.0009 60.8539 69.0009C61.0045 69.0009 61.1536 68.9713 61.2928 68.9136C61.4319 68.856 61.5584 68.7715 61.6649 68.665C61.7714 68.5585 61.8559 68.4321 61.9135 68.2929C61.9711 68.1538 62.0008 68.0046 62.0008 67.854C62.0008 67.7034 61.9711 67.5543 61.9135 67.4151C61.8559 67.2759 61.7714 67.1495 61.6649 67.043L57.6189 62.997L61.6649 58.951C61.879 58.7359 61.999 58.4446 61.9983 58.141C61.9977 57.8375 61.8765 57.5467 61.6614 57.3325C61.4463 57.1183 61.1549 56.9984 60.8514 56.9991C60.5479 56.9997 60.257 57.1209 60.0429 57.336L55.9969 61.382L51.9539 57.336C51.8477 57.2298 51.7215 57.1455 51.5827 57.088C51.4439 57.0305 51.2951 57.0009 51.1449 57.0009C50.9946 57.0009 50.8459 57.0305 50.707 57.088C50.5682 57.1455 50.4421 57.2298 50.3359 57.336Z" fill="black"/>
</g>
<defs>
<filter id="filter0_d_1_576" x="26" y="182" width="322" height="216" filterUnits="userSpaceOnUse" color-interpolation-filters="sRGB">
<feFlood flood-opacity="0" result="BackgroundImageFix"/>
<feColorMatrix in="SourceAlpha" type="matrix" values="0 0 0 0 0 0 0 0 0 0 0 0 0 0 0 0 0 0 127 0" result="hardAlpha"/>
<feOffset dy="3"/>
<feGaussianBlur stdDeviation="5"/>
<feColorMatrix type="matrix" values="0 0 0 0 0 0 0 0 0 0 0 0 0 0 0 0 0 0 0.039 0"/>
<feBlend mode="normal" in2="BackgroundImageFix" result="effect1_dropShadow_1_576"/>
<feBlend mode="normal" in="SourceGraphic" in2="effect1_dropShadow_1_576" result="shape"/>
</filter>
<filter id="filter1_d_1_576" x="26" y="402" width="322" height="216" filterUnits="userSpaceOnUse" color-interpolation-filters="sRGB">
<feFlood flood-opacity="0" result="BackgroundImageFix"/>
<feColorMatrix in="SourceAlpha" type="matrix" values="0 0 0 0 0 0 0 0 0 0 0 0 0 0 0 0 0 0 127 0" result="hardAlpha"/>
<feOffset dy="3"/>
<feGaussianBlur stdDeviation="5"/>
<feColorMatrix type="matrix" values="0 0 0 0 0 0 0 0 0 0 0 0 0 0 0 0 0 0 0.039 0"/>
<feBlend mode="normal" in2="BackgroundImageFix" result="effect1_dropShadow_1_576"/>
<feBlend mode="normal" in="SourceGraphic" in2="effect1_dropShadow_1_576" result="shape"/>
</filter>
<filter id="filter2_d_1_576" x="26" y="622" width="322" height="216" filterUnits="userSpaceOnUse" color-interpolation-filters="sRGB">
<feFlood flood-opacity="0" result="BackgroundImageFix"/>
<feColorMatrix in="SourceAlpha" type="matrix" values="0 0 0 0 0 0 0 0 0 0 0 0 0 0 0 0 0 0 127 0" result="hardAlpha"/>
<feOffset dy="3"/>
<feGaussianBlur stdDeviation="5"/>
<feColorMatrix type="matrix" values="0 0 0 0 0 0 0 0 0 0 0 0 0 0 0 0 0 0 0.039 0"/>
<feBlend mode="normal" in2="BackgroundImageFix" result="effect1_dropShadow_1_576"/>
<feBlend mode="normal" in="SourceGraphic" in2="effect1_dropShadow_1_576" result="shape"/>
</filter>
<clipPath id="clip0_1_576">
<rect width="375" height="812" fill="white"/>
</clipPath>
</defs>
</svg>
