<svg width="390" height="844" viewBox="0 0 390 844" fill="none" xmlns="http://www.w3.org/2000/svg">
<g clip-path="url(#clip0_11_2661)">
<rect width="390" height="844" fill="#242C3B"/>
<rect opacity="0.35" x="344.833" y="17.833" width="21" height="10.3333" rx="2.16667" stroke="white"/>
<path opacity="0.4" d="M367.333 21V25C368.138 24.6612 368.662 23.8731 368.662 23C368.662 22.1269 368.138 21.3388 367.333 21" fill="white"/>
<rect x="346.333" y="19.333" width="18" height="7.33333" rx="1.33333" fill="white"/>
<path fill-rule="evenodd" clip-rule="evenodd" d="M331.667 19.6155C333.892 19.6156 336.031 20.4697 337.644 22.0013C337.765 22.1196 337.959 22.1181 338.079 21.998L339.239 20.8277C339.3 20.7667 339.334 20.6842 339.333 20.5984C339.333 20.5125 339.298 20.4304 339.237 20.3702C335.005 16.318 328.329 16.318 324.097 20.3702C324.035 20.4304 324.001 20.5125 324 20.5983C323.999 20.6842 324.033 20.7667 324.094 20.8277L325.255 21.998C325.374 22.1183 325.568 22.1198 325.69 22.0013C327.302 20.4696 329.442 19.6155 331.667 19.6155ZM331.667 23.4231C332.889 23.423 334.068 23.877 334.974 24.6968C335.097 24.8131 335.29 24.8106 335.409 24.6911L336.569 23.5208C336.63 23.4594 336.663 23.3761 336.663 23.2896C336.662 23.203 336.626 23.1204 336.564 23.0603C333.805 20.4959 329.532 20.4959 326.773 23.0603C326.71 23.1204 326.675 23.2031 326.674 23.2896C326.673 23.3762 326.707 23.4595 326.768 23.5208L327.927 24.6911C328.047 24.8106 328.24 24.8131 328.362 24.6968C329.268 23.8775 330.446 23.4236 331.667 23.4231ZM333.989 25.985C333.991 26.0717 333.957 26.1554 333.895 26.2162L331.89 28.2382C331.831 28.2976 331.751 28.3311 331.667 28.3311C331.583 28.3311 331.503 28.2976 331.445 28.2382L329.439 26.2162C329.377 26.1553 329.343 26.0717 329.345 25.9849C329.347 25.8981 329.384 25.8159 329.449 25.7578C330.729 24.6755 332.605 24.6755 333.886 25.7578C333.95 25.816 333.988 25.8982 333.989 25.985Z" fill="white"/>
<path fill-rule="evenodd" clip-rule="evenodd" d="M318 17.667H317C316.448 17.667 316 18.1147 316 18.667V27.3337C316 27.8859 316.448 28.3337 317 28.3337H318C318.552 28.3337 319 27.8859 319 27.3337V18.667C319 18.1147 318.552 17.667 318 17.667ZM312.333 20.0003H313.333C313.886 20.0003 314.333 20.448 314.333 21.0003V27.3337C314.333 27.8859 313.886 28.3337 313.333 28.3337H312.333C311.781 28.3337 311.333 27.8859 311.333 27.3337V21.0003C311.333 20.448 311.781 20.0003 312.333 20.0003ZM308.667 22.3337H307.667C307.114 22.3337 306.667 22.7814 306.667 23.3337V27.3337C306.667 27.8859 307.114 28.3337 307.667 28.3337H308.667C309.219 28.3337 309.667 27.8859 309.667 27.3337V23.3337C309.667 22.7814 309.219 22.3337 308.667 22.3337ZM304 24.3337H303C302.448 24.3337 302 24.7814 302 25.3337V27.3337C302 27.8859 302.448 28.3337 303 28.3337H304C304.552 28.3337 305 27.8859 305 27.3337V25.3337C305 24.7814 304.552 24.3337 304 24.3337Z" fill="white"/>
<path d="M45.2146 17.5005C42.9222 17.5005 41.2889 19.0679 41.2889 21.2139V21.2285C41.2889 23.2354 42.7098 24.7148 44.7386 24.7148C46.1888 24.7148 47.1116 23.9751 47.4998 23.1401H47.6463C47.6463 23.2207 47.639 23.3013 47.639 23.3818C47.5584 25.4033 46.8479 27.0439 45.1707 27.0439C44.2405 27.0439 43.5887 26.5605 43.3104 25.8208L43.2884 25.7476H41.428L41.4427 25.8281C41.7796 27.4468 43.2298 28.5967 45.1707 28.5967C47.8294 28.5967 49.4334 26.4873 49.4334 22.9277V22.9131C49.4334 19.1045 47.4705 17.5005 45.2146 17.5005ZM45.2073 23.2646C44.0062 23.2646 43.1346 22.3857 43.1346 21.1626V21.1479C43.1346 19.9688 44.0647 19.0386 45.2293 19.0386C46.4012 19.0386 47.3167 19.9834 47.3167 21.1919V21.2065C47.3167 22.4004 46.4012 23.2646 45.2073 23.2646ZM52.4586 21.4849C53.1324 21.4849 53.6231 20.9722 53.6231 20.3276C53.6231 19.6758 53.1324 19.1704 52.4586 19.1704C51.7921 19.1704 51.294 19.6758 51.294 20.3276C51.294 20.9722 51.7921 21.4849 52.4586 21.4849ZM52.4586 26.9194C53.1324 26.9194 53.6231 26.4141 53.6231 25.7622C53.6231 25.1104 53.1324 24.605 52.4586 24.605C51.7921 24.605 51.294 25.1104 51.294 25.7622C51.294 26.4141 51.7921 26.9194 52.4586 26.9194ZM60.6107 28.333H62.4198V26.3042H63.8407V24.7441H62.4198V17.7642H59.7465C58.3109 19.9468 56.8095 22.3784 55.4398 24.7588V26.3042H60.6107V28.333ZM57.1977 24.7881V24.6782C58.223 22.8838 59.4462 20.9282 60.5302 19.2729H60.64V24.7881H57.1977ZM67.9206 28.333H69.8103V17.7642H67.9279L65.1667 19.7051V21.4849L67.7961 19.6245H67.9206V28.333Z" fill="white"/>
<g filter="url(#filter0_d_11_2661)">
<rect y="844" width="390" height="450" rx="30" fill="url(#paint0_linear_11_2661)"/>
<rect x="1" y="845" width="388" height="448" rx="29" stroke="url(#paint1_linear_11_2661)" stroke-opacity="0.2" stroke-width="2" style="mix-blend-mode:overlay"/>
</g>
<g filter="url(#filter1_dd_11_2661)">
<rect x="20" y="60" width="44" height="44" rx="10" fill="url(#paint2_linear_11_2661)" shape-rendering="crispEdges"/>
<rect x="20.5" y="60.5" width="43" height="43" rx="9.5" stroke="url(#paint3_linear_11_2661)" stroke-opacity="0.6" style="mix-blend-mode:overlay" shape-rendering="crispEdges"/>
<path d="M36.3486 81.6543C36.3486 81.9619 36.4629 82.2256 36.709 82.4541L43.5469 89.1514C43.7402 89.3447 43.9863 89.4502 44.2764 89.4502C44.8564 89.4502 45.3223 88.9932 45.3223 88.4043C45.3223 88.1143 45.1992 87.8594 45.0059 87.6572L38.8447 81.6543L45.0059 75.6514C45.1992 75.4492 45.3223 75.1855 45.3223 74.9043C45.3223 74.3154 44.8564 73.8584 44.2764 73.8584C43.9863 73.8584 43.7402 73.9639 43.5469 74.1572L36.709 80.8457C36.4629 81.083 36.3486 81.3467 36.3486 81.6543Z" fill="#FBFBFF"/>
</g>
<path d="M131.94 79.48C131.94 80.2933 131.753 81.04 131.38 81.72C131.007 82.3867 130.433 82.9267 129.66 83.34C128.887 83.7533 127.927 83.96 126.78 83.96H124.66V89H121.24V74.96H126.78C127.9 74.96 128.847 75.1533 129.62 75.54C130.393 75.9267 130.973 76.46 131.36 77.14C131.747 77.82 131.94 78.6 131.94 79.48ZM126.52 81.24C127.173 81.24 127.66 81.0867 127.98 80.78C128.3 80.4733 128.46 80.04 128.46 79.48C128.46 78.92 128.3 78.4867 127.98 78.18C127.66 77.8733 127.173 77.72 126.52 77.72H124.66V81.24H126.52ZM136.84 77.7V80.54H141.42V83.18H136.84V86.26H142.02V89H133.42V74.96H142.02V77.7H136.84ZM147.301 74.96V83.36C147.301 84.2 147.507 84.8467 147.921 85.3C148.334 85.7533 148.941 85.98 149.741 85.98C150.541 85.98 151.154 85.7533 151.581 85.3C152.007 84.8467 152.221 84.2 152.221 83.36V74.96H155.641V83.34C155.641 84.5933 155.374 85.6533 154.841 86.52C154.307 87.3867 153.587 88.04 152.681 88.48C151.787 88.92 150.787 89.14 149.681 89.14C148.574 89.14 147.581 88.9267 146.701 88.5C145.834 88.06 145.147 87.4067 144.641 86.54C144.134 85.66 143.881 84.5933 143.881 83.34V74.96H147.301ZM167.062 79.4C166.809 78.9333 166.442 78.58 165.962 78.34C165.496 78.0867 164.942 77.96 164.302 77.96C163.196 77.96 162.309 78.3267 161.642 79.06C160.976 79.78 160.642 80.7467 160.642 81.96C160.642 83.2533 160.989 84.2667 161.682 85C162.389 85.72 163.356 86.08 164.582 86.08C165.422 86.08 166.129 85.8667 166.702 85.44C167.289 85.0133 167.716 84.4 167.982 83.6H163.642V81.08H171.082V84.26C170.829 85.1133 170.396 85.9067 169.782 86.64C169.182 87.3733 168.416 87.9667 167.482 88.42C166.549 88.8733 165.496 89.1 164.322 89.1C162.936 89.1 161.696 88.8 160.602 88.2C159.522 87.5867 158.676 86.74 158.062 85.66C157.462 84.58 157.162 83.3467 157.162 81.96C157.162 80.5733 157.462 79.34 158.062 78.26C158.676 77.1667 159.522 76.32 160.602 75.72C161.682 75.1067 162.916 74.8 164.302 74.8C165.982 74.8 167.396 75.2067 168.542 76.02C169.702 76.8333 170.469 77.96 170.842 79.4H167.062ZM176.097 77.7V80.54H180.677V83.18H176.097V86.26H181.277V89H172.677V74.96H181.277V77.7H176.097ZM189.837 89.14C188.517 89.14 187.304 88.8333 186.197 88.22C185.104 87.6067 184.23 86.7533 183.577 85.66C182.937 84.5533 182.617 83.3133 182.617 81.94C182.617 80.5667 182.937 79.3333 183.577 78.24C184.23 77.1467 185.104 76.2933 186.197 75.68C187.304 75.0667 188.517 74.76 189.837 74.76C191.157 74.76 192.364 75.0667 193.457 75.68C194.564 76.2933 195.43 77.1467 196.057 78.24C196.697 79.3333 197.017 80.5667 197.017 81.94C197.017 83.3133 196.697 84.5533 196.057 85.66C195.417 86.7533 194.55 87.6067 193.457 88.22C192.364 88.8333 191.157 89.14 189.837 89.14ZM189.837 86.02C190.957 86.02 191.85 85.6467 192.517 84.9C193.197 84.1533 193.537 83.1667 193.537 81.94C193.537 80.7 193.197 79.7133 192.517 78.98C191.85 78.2333 190.957 77.86 189.837 77.86C188.704 77.86 187.797 78.2267 187.117 78.96C186.45 79.6933 186.117 80.6867 186.117 81.94C186.117 83.18 186.45 84.1733 187.117 84.92C187.797 85.6533 188.704 86.02 189.837 86.02ZM208.72 74.96V77.7H205V89H201.58V77.7H197.86V74.96H208.72ZM222.674 80.56V83.4H213.874V80.56H222.674ZM232.734 86.36H237.214V89H229.314V74.96H232.734V86.36ZM245.705 89L242.785 83.7H241.965V89H238.545V74.96H244.285C245.392 74.96 246.332 75.1533 247.105 75.54C247.892 75.9267 248.479 76.46 248.865 77.14C249.252 77.8067 249.445 78.5533 249.445 79.38C249.445 80.3133 249.179 81.1467 248.645 81.88C248.125 82.6133 247.352 83.1333 246.325 83.44L249.565 89H245.705ZM241.965 81.28H244.085C244.712 81.28 245.179 81.1267 245.485 80.82C245.805 80.5133 245.965 80.08 245.965 79.52C245.965 78.9867 245.805 78.5667 245.485 78.26C245.179 77.9533 244.712 77.8 244.085 77.8H241.965V81.28ZM250.952 81.5C250.952 79.2067 251.392 77.4 252.272 76.08C253.166 74.76 254.599 74.1 256.572 74.1C258.546 74.1 259.972 74.76 260.852 76.08C261.746 77.4 262.192 79.2067 262.192 81.5C262.192 83.82 261.746 85.64 260.852 86.96C259.972 88.28 258.546 88.94 256.572 88.94C254.599 88.94 253.166 88.28 252.272 86.96C251.392 85.64 250.952 83.82 250.952 81.5ZM258.832 81.5C258.832 80.1533 258.686 79.12 258.392 78.4C258.099 77.6667 257.492 77.3 256.572 77.3C255.652 77.3 255.046 77.6667 254.752 78.4C254.459 79.12 254.312 80.1533 254.312 81.5C254.312 82.4067 254.366 83.16 254.472 83.76C254.579 84.3467 254.792 84.8267 255.112 85.2C255.446 85.56 255.932 85.74 256.572 85.74C257.212 85.74 257.692 85.56 258.012 85.2C258.346 84.8267 258.566 84.3467 258.672 83.76C258.779 83.16 258.832 82.4067 258.832 81.5ZM263.339 77.58V74.4H268.879V89H265.319V77.58H263.339Z" fill="white"/>
</g>
<defs>
<filter id="filter0_d_11_2661" x="-60" y="764" width="510" height="570" filterUnits="userSpaceOnUse" color-interpolation-filters="sRGB">
<feFlood flood-opacity="0" result="BackgroundImageFix"/>
<feColorMatrix in="SourceAlpha" type="matrix" values="0 0 0 0 0 0 0 0 0 0 0 0 0 0 0 0 0 0 127 0" result="hardAlpha"/>
<feOffset dy="-20"/>
<feGaussianBlur stdDeviation="30"/>
<feComposite in2="hardAlpha" operator="out"/>
<feColorMatrix type="matrix" values="0 0 0 0 0 0 0 0 0 0 0 0 0 0 0 0 0 0 0.25 0"/>
<feBlend mode="normal" in2="BackgroundImageFix" result="effect1_dropShadow_11_2661"/>
<feBlend mode="normal" in="SourceGraphic" in2="effect1_dropShadow_11_2661" result="shape"/>
</filter>
<filter id="filter1_dd_11_2661" x="-10" y="10" width="104" height="144" filterUnits="userSpaceOnUse" color-interpolation-filters="sRGB">
<feFlood flood-opacity="0" result="BackgroundImageFix"/>
<feColorMatrix in="SourceAlpha" type="matrix" values="0 0 0 0 0 0 0 0 0 0 0 0 0 0 0 0 0 0 127 0" result="hardAlpha"/>
<feOffset dy="20"/>
<feGaussianBlur stdDeviation="15"/>
<feComposite in2="hardAlpha" operator="out"/>
<feColorMatrix type="matrix" values="0 0 0 0 0.0640972 0 0 0 0 0.0794837 0 0 0 0 0.108333 0 0 0 1 0"/>
<feBlend mode="normal" in2="BackgroundImageFix" result="effect1_dropShadow_11_2661"/>
<feColorMatrix in="SourceAlpha" type="matrix" values="0 0 0 0 0 0 0 0 0 0 0 0 0 0 0 0 0 0 127 0" result="hardAlpha"/>
<feOffset dy="-20"/>
<feGaussianBlur stdDeviation="15"/>
<feComposite in2="hardAlpha" operator="out"/>
<feColorMatrix type="matrix" values="0 0 0 0 0.167014 0 0 0 0 0.203125 0 0 0 0 0.270833 0 0 0 0.5 0"/>
<feBlend mode="normal" in2="effect1_dropShadow_11_2661" result="effect2_dropShadow_11_2661"/>
<feBlend mode="normal" in="SourceGraphic" in2="effect2_dropShadow_11_2661" result="shape"/>
</filter>
<linearGradient id="paint0_linear_11_2661" x1="23.5" y1="833" x2="165.585" y2="1136.35" gradientUnits="userSpaceOnUse">
<stop stop-color="#353F54"/>
<stop offset="1" stop-color="#222834"/>
</linearGradient>
<linearGradient id="paint1_linear_11_2661" x1="204" y1="844" x2="203" y2="905" gradientUnits="userSpaceOnUse">
<stop stop-color="white"/>
<stop offset="1" stop-opacity="0"/>
</linearGradient>
<linearGradient id="paint2_linear_11_2661" x1="22.2" y1="60" x2="52.8464" y2="119.431" gradientUnits="userSpaceOnUse">
<stop stop-color="#34C8E8"/>
<stop offset="1" stop-color="#4E4AF2"/>
</linearGradient>
<linearGradient id="paint3_linear_11_2661" x1="20" y1="60" x2="44.9884" y2="112.969" gradientUnits="userSpaceOnUse">
<stop stop-color="white"/>
<stop offset="1"/>
</linearGradient>
<clipPath id="clip0_11_2661">
<rect width="390" height="844" fill="white"/>
</clipPath>
</defs>
</svg>
