<!-- icon666.com - MILLIONS vector ICONS FREE --><svg id="Layer_1" enable-background="new 0 0 512 512" viewBox="0 0 512 512" xmlns="http://www.w3.org/2000/svg"><path d="m400.601 208.867c-2.327 0-4.637.094-6.936.236l-10.493-52.464c-.007-.038-.015-.076-.022-.113l-12.827-64.135c-1.402-7.012-7.558-12.059-14.708-12.059h-64.266c-8.284 0-15 6.716-15 15s6.716 15 15 15h51.969l6.854 34.268h-167.295l-27.414-34.268h16.99c8.284 0 15-6.716 15-15s-6.716-15-15-15h-64.266c-8.284 0-15 6.716-15 15s6.716 15 15 15h8.857l41.449 51.812-20.022 50.056c-8.67-2.173-17.737-3.333-27.071-3.333-61.426 0-111.4 49.974-111.4 111.4 0 61.427 49.974 111.4 111.4 111.4 56.34 0 103.038-42.042 110.387-96.4h37.741c5.806 17.244 21.32 30.063 40.021 31.903 18.094 38.984 57.403 64.497 101.051 64.497 61.426 0 111.399-49.974 111.399-111.4.001-61.426-49.973-111.4-111.398-111.4zm-44.431-34.266 8.078 40.388c-28.251 9.768-51.837 30.661-64.699 58.377-4.018.396-7.891 1.294-11.55 2.639l-81.122-101.403h149.293zm-176.136 14.469 84.558 105.698c-2.099 3.248-3.807 6.769-5.063 10.498h-37.742c-4.746-35.105-25.903-65.07-55.474-81.895zm-25.01 62.527c18.655 11.893 32.155 31.158 36.368 53.67h-57.836zm-43.624 150.07c-44.884 0-81.4-36.516-81.4-81.4s36.516-81.399 81.4-81.399c5.4 0 10.675.541 15.784 1.55l-29.711 74.278c-1.849 4.622-1.284 9.859 1.506 13.98 2.791 4.122 7.443 6.591 12.421 6.591h79.992c-7.062 37.74-40.233 66.4-79.992 66.4zm289.201 0c-29.818 0-56.864-16.292-71.066-41.685 13.094-8.382 21.799-23.047 21.799-39.716 0-16.668-8.705-31.332-21.8-39.715 9.135-16.334 23.581-28.9 40.669-35.786l15.689 78.442c1.426 7.131 7.688 12.062 14.692 12.062.975 0 1.965-.096 2.958-.294 8.124-1.625 13.392-9.527 11.767-17.65l-15.688-78.438c.327-.004.652-.02.979-.02 44.884 0 81.399 36.516 81.399 81.399.001 44.885-36.515 81.401-81.398 81.401z"></path></svg>