<svg width="390" height="844" viewBox="0 0 390 844" fill="none" xmlns="http://www.w3.org/2000/svg">
<g clip-path="url(#clip0_11_1810)">
<rect width="390" height="844" fill="#242C3B"/>
<rect opacity="0.35" x="344.833" y="17.833" width="21" height="10.3333" rx="2.16667" stroke="white"/>
<path opacity="0.4" d="M367.333 21V25C368.138 24.6612 368.661 23.8731 368.661 23C368.661 22.1269 368.138 21.3388 367.333 21" fill="white"/>
<rect x="346.333" y="19.333" width="18" height="7.33333" rx="1.33333" fill="white"/>
<path fill-rule="evenodd" clip-rule="evenodd" d="M331.667 19.6155C333.892 19.6156 336.031 20.4697 337.644 22.0013C337.765 22.1196 337.959 22.1181 338.079 21.998L339.239 20.8277C339.3 20.7667 339.334 20.6842 339.333 20.5984C339.333 20.5125 339.298 20.4304 339.237 20.3702C335.005 16.318 328.329 16.318 324.097 20.3702C324.035 20.4304 324.001 20.5125 324 20.5983C323.999 20.6842 324.033 20.7667 324.094 20.8277L325.255 21.998C325.374 22.1183 325.568 22.1198 325.69 22.0013C327.302 20.4696 329.442 19.6155 331.667 19.6155ZM331.667 23.4231C332.889 23.423 334.068 23.877 334.974 24.6968C335.097 24.8131 335.29 24.8106 335.409 24.6911L336.569 23.5208C336.63 23.4594 336.663 23.3761 336.663 23.2896C336.662 23.203 336.626 23.1204 336.564 23.0603C333.805 20.4959 329.532 20.4959 326.773 23.0603C326.71 23.1204 326.675 23.2031 326.674 23.2896C326.673 23.3762 326.707 23.4595 326.768 23.5208L327.927 24.6911C328.047 24.8106 328.24 24.8131 328.362 24.6968C329.268 23.8775 330.446 23.4236 331.667 23.4231ZM333.989 25.985C333.991 26.0717 333.957 26.1554 333.895 26.2162L331.89 28.2382C331.831 28.2976 331.751 28.3311 331.667 28.3311C331.583 28.3311 331.503 28.2976 331.445 28.2382L329.439 26.2162C329.377 26.1553 329.343 26.0717 329.345 25.9849C329.347 25.8981 329.384 25.8159 329.449 25.7578C330.729 24.6755 332.605 24.6755 333.886 25.7578C333.95 25.816 333.988 25.8982 333.989 25.985Z" fill="white"/>
<path fill-rule="evenodd" clip-rule="evenodd" d="M318 17.667H317C316.448 17.667 316 18.1147 316 18.667V27.3337C316 27.8859 316.448 28.3337 317 28.3337H318C318.552 28.3337 319 27.8859 319 27.3337V18.667C319 18.1147 318.552 17.667 318 17.667ZM312.333 20.0003H313.333C313.886 20.0003 314.333 20.448 314.333 21.0003V27.3337C314.333 27.8859 313.886 28.3337 313.333 28.3337H312.333C311.781 28.3337 311.333 27.8859 311.333 27.3337V21.0003C311.333 20.448 311.781 20.0003 312.333 20.0003ZM308.667 22.3337H307.667C307.114 22.3337 306.667 22.7814 306.667 23.3337V27.3337C306.667 27.8859 307.114 28.3337 307.667 28.3337H308.667C309.219 28.3337 309.667 27.8859 309.667 27.3337V23.3337C309.667 22.7814 309.219 22.3337 308.667 22.3337ZM304 24.3337H303C302.448 24.3337 302 24.7814 302 25.3337V27.3337C302 27.8859 302.448 28.3337 303 28.3337H304C304.552 28.3337 305 27.8859 305 27.3337V25.3337C305 24.7814 304.552 24.3337 304 24.3337Z" fill="white"/>
<path d="M45.2146 17.5005C42.9222 17.5005 41.2889 19.0679 41.2889 21.2139V21.2285C41.2889 23.2354 42.7098 24.7148 44.7386 24.7148C46.1888 24.7148 47.1116 23.9751 47.4998 23.1401H47.6463C47.6463 23.2207 47.639 23.3013 47.639 23.3818C47.5584 25.4033 46.8479 27.0439 45.1707 27.0439C44.2405 27.0439 43.5887 26.5605 43.3104 25.8208L43.2884 25.7476H41.428L41.4427 25.8281C41.7796 27.4468 43.2298 28.5967 45.1707 28.5967C47.8294 28.5967 49.4334 26.4873 49.4334 22.9277V22.9131C49.4334 19.1045 47.4705 17.5005 45.2146 17.5005ZM45.2073 23.2646C44.0062 23.2646 43.1346 22.3857 43.1346 21.1626V21.1479C43.1346 19.9688 44.0647 19.0386 45.2293 19.0386C46.4012 19.0386 47.3167 19.9834 47.3167 21.1919V21.2065C47.3167 22.4004 46.4012 23.2646 45.2073 23.2646ZM52.4586 21.4849C53.1324 21.4849 53.6231 20.9722 53.6231 20.3276C53.6231 19.6758 53.1324 19.1704 52.4586 19.1704C51.7921 19.1704 51.294 19.6758 51.294 20.3276C51.294 20.9722 51.7921 21.4849 52.4586 21.4849ZM52.4586 26.9194C53.1324 26.9194 53.6231 26.4141 53.6231 25.7622C53.6231 25.1104 53.1324 24.605 52.4586 24.605C51.7921 24.605 51.294 25.1104 51.294 25.7622C51.294 26.4141 51.7921 26.9194 52.4586 26.9194ZM60.6107 28.333H62.4198V26.3042H63.8407V24.7441H62.4198V17.7642H59.7465C58.3109 19.9468 56.8095 22.3784 55.4398 24.7588V26.3042H60.6107V28.333ZM57.1977 24.7881V24.6782C58.223 22.8838 59.4462 20.9282 60.5302 19.2729H60.64V24.7881H57.1977ZM67.9206 28.333H69.8103V17.7642H67.9279L65.1667 19.7051V21.4849L67.7961 19.6245H67.9206V28.333Z" fill="white"/>
<g filter="url(#filter0_dd_11_1810)">
<rect x="20" y="60" width="44" height="44" rx="10" fill="url(#paint0_linear_11_1810)" shape-rendering="crispEdges"/>
<rect x="20.5" y="60.5" width="43" height="43" rx="9.5" stroke="url(#paint1_linear_11_1810)" stroke-opacity="0.6" style="mix-blend-mode:overlay" shape-rendering="crispEdges"/>
<path d="M35.1886 87.0509C34.8195 87.4201 34.8019 88.0792 35.1974 88.466C35.5841 88.8527 36.2433 88.8439 36.6124 88.4747L41.9913 83.087L47.379 88.4747C47.757 88.8527 48.4074 88.8527 48.7941 88.466C49.172 88.0704 49.1808 87.4288 48.7941 87.0509L43.4152 81.6632L48.7941 76.2843C49.1808 75.9064 49.1808 75.256 48.7941 74.8693C48.3986 74.4913 47.757 74.4826 47.379 74.8605L41.9913 80.2482L36.6124 74.8605C36.2433 74.4913 35.5753 74.4738 35.1974 74.8693C34.8107 75.256 34.8195 75.9152 35.1886 76.2843L40.5763 81.6632L35.1886 87.0509Z" fill="white"/>
</g>
<path d="M146.66 79.96C146.66 78.5733 146.96 77.34 147.56 76.26C148.16 75.1667 148.993 74.32 150.06 73.72C151.14 73.1067 152.36 72.8 153.72 72.8C155.387 72.8 156.813 73.24 158 74.12C159.187 75 159.98 76.2 160.38 77.72H156.62C156.34 77.1333 155.94 76.6867 155.42 76.38C154.913 76.0733 154.333 75.92 153.68 75.92C152.627 75.92 151.773 76.2867 151.12 77.02C150.467 77.7533 150.14 78.7333 150.14 79.96C150.14 81.1867 150.467 82.1667 151.12 82.9C151.773 83.6333 152.627 84 153.68 84C154.333 84 154.913 83.8467 155.42 83.54C155.94 83.2333 156.34 82.7867 156.62 82.2H160.38C159.98 83.72 159.187 84.92 158 85.8C156.813 86.6667 155.387 87.1 153.72 87.1C152.36 87.1 151.14 86.8 150.06 86.2C148.993 85.5867 148.16 84.74 147.56 83.66C146.96 82.58 146.66 81.3467 146.66 79.96ZM169.034 75.72C170.314 75.72 171.341 76.1467 172.114 77C172.888 77.84 173.274 79 173.274 80.48V87H169.874V80.94C169.874 80.1933 169.681 79.6133 169.294 79.2C168.908 78.7867 168.388 78.58 167.734 78.58C167.081 78.58 166.561 78.7867 166.174 79.2C165.788 79.6133 165.594 80.1933 165.594 80.94V87H162.174V72.2H165.594V77.34C165.941 76.8467 166.414 76.4533 167.014 76.16C167.614 75.8667 168.288 75.72 169.034 75.72ZM185.871 81.24C185.871 81.56 185.851 81.8933 185.811 82.24H178.071C178.124 82.9333 178.344 83.4667 178.731 83.84C179.131 84.2 179.618 84.38 180.191 84.38C181.044 84.38 181.638 84.02 181.971 83.3H185.611C185.424 84.0333 185.084 84.6933 184.591 85.28C184.111 85.8667 183.504 86.3267 182.771 86.66C182.038 86.9933 181.218 87.16 180.311 87.16C179.218 87.16 178.244 86.9267 177.391 86.46C176.538 85.9933 175.871 85.3267 175.391 84.46C174.911 83.5933 174.671 82.58 174.671 81.42C174.671 80.26 174.904 79.2467 175.371 78.38C175.851 77.5133 176.518 76.8467 177.371 76.38C178.224 75.9133 179.204 75.68 180.311 75.68C181.391 75.68 182.351 75.9067 183.191 76.36C184.031 76.8133 184.684 77.46 185.151 78.3C185.631 79.14 185.871 80.12 185.871 81.24ZM182.371 80.34C182.371 79.7533 182.171 79.2867 181.771 78.94C181.371 78.5933 180.871 78.42 180.271 78.42C179.698 78.42 179.211 78.5867 178.811 78.92C178.424 79.2533 178.184 79.7267 178.091 80.34H182.371ZM186.695 81.42C186.695 80.26 186.928 79.2467 187.395 78.38C187.875 77.5133 188.535 76.8467 189.375 76.38C190.228 75.9133 191.202 75.68 192.295 75.68C193.695 75.68 194.862 76.0467 195.795 76.78C196.742 77.5133 197.362 78.5467 197.655 79.88H194.015C193.708 79.0267 193.115 78.6 192.235 78.6C191.608 78.6 191.108 78.8467 190.735 79.34C190.362 79.82 190.175 80.5133 190.175 81.42C190.175 82.3267 190.362 83.0267 190.735 83.52C191.108 84 191.608 84.24 192.235 84.24C193.115 84.24 193.708 83.8133 194.015 82.96H197.655C197.362 84.2667 196.742 85.2933 195.795 86.04C194.848 86.7867 193.682 87.16 192.295 87.16C191.202 87.16 190.228 86.9267 189.375 86.46C188.535 85.9933 187.875 85.3267 187.395 84.46C186.928 83.5933 186.695 82.58 186.695 81.42ZM206.005 87L202.605 82.32V87H199.185V72.2H202.605V80.38L205.985 75.84H210.205L205.565 81.44L210.245 87H206.005ZM216.328 87.16C215.234 87.16 214.248 86.9267 213.368 86.46C212.501 85.9933 211.814 85.3267 211.308 84.46C210.814 83.5933 210.568 82.58 210.568 81.42C210.568 80.2733 210.821 79.2667 211.328 78.4C211.834 77.52 212.528 76.8467 213.408 76.38C214.288 75.9133 215.274 75.68 216.368 75.68C217.461 75.68 218.448 75.9133 219.328 76.38C220.208 76.8467 220.901 77.52 221.408 78.4C221.914 79.2667 222.168 80.2733 222.168 81.42C222.168 82.5667 221.908 83.58 221.388 84.46C220.881 85.3267 220.181 85.9933 219.288 86.46C218.408 86.9267 217.421 87.16 216.328 87.16ZM216.328 84.2C216.981 84.2 217.534 83.96 217.988 83.48C218.454 83 218.688 82.3133 218.688 81.42C218.688 80.5267 218.461 79.84 218.008 79.36C217.568 78.88 217.021 78.64 216.368 78.64C215.701 78.64 215.148 78.88 214.708 79.36C214.268 79.8267 214.048 80.5133 214.048 81.42C214.048 82.3133 214.261 83 214.688 83.48C215.128 83.96 215.674 84.2 216.328 84.2ZM234.702 75.84V87H231.282V85.48C230.936 85.9733 230.462 86.3733 229.862 86.68C229.276 86.9733 228.622 87.12 227.902 87.12C227.049 87.12 226.296 86.9333 225.642 86.56C224.989 86.1733 224.482 85.62 224.122 84.9C223.762 84.18 223.582 83.3333 223.582 82.36V75.84H226.982V81.9C226.982 82.6467 227.176 83.2267 227.562 83.64C227.949 84.0533 228.469 84.26 229.122 84.26C229.789 84.26 230.316 84.0533 230.702 83.64C231.089 83.2267 231.282 82.6467 231.282 81.9V75.84H234.702ZM243.079 84.1V87H241.339C240.099 87 239.132 86.7 238.439 86.1C237.745 85.4867 237.399 84.4933 237.399 83.12V78.68H236.039V75.84H237.399V73.12H240.819V75.84H243.059V78.68H240.819V83.16C240.819 83.4933 240.899 83.7333 241.059 83.88C241.219 84.0267 241.485 84.1 241.859 84.1H243.079Z" fill="white"/>
<rect x="20" y="125" width="350" height="224" rx="20" fill="url(#paint2_linear_11_1810)"/>
<rect x="20.5" y="125.5" width="349" height="223" rx="19.5" stroke="url(#paint3_linear_11_1810)" stroke-opacity="0.2" style="mix-blend-mode:overlay"/>
<path d="M41.74 160.105C40.97 160.105 40.28 159.98 39.67 159.73C39.06 159.48 38.57 159.11 38.2 158.62C37.84 158.13 37.65 157.54 37.63 156.85H40.36C40.4 157.24 40.535 157.54 40.765 157.75C40.995 157.95 41.295 158.05 41.665 158.05C42.045 158.05 42.345 157.965 42.565 157.795C42.785 157.615 42.895 157.37 42.895 157.06C42.895 156.8 42.805 156.585 42.625 156.415C42.455 156.245 42.24 156.105 41.98 155.995C41.73 155.885 41.37 155.76 40.9 155.62C40.22 155.41 39.665 155.2 39.235 154.99C38.805 154.78 38.435 154.47 38.125 154.06C37.815 153.65 37.66 153.115 37.66 152.455C37.66 151.475 38.015 150.71 38.725 150.16C39.435 149.6 40.36 149.32 41.5 149.32C42.66 149.32 43.595 149.6 44.305 150.16C45.015 150.71 45.395 151.48 45.445 152.47H42.67C42.65 152.13 42.525 151.865 42.295 151.675C42.065 151.475 41.77 151.375 41.41 151.375C41.1 151.375 40.85 151.46 40.66 151.63C40.47 151.79 40.375 152.025 40.375 152.335C40.375 152.675 40.535 152.94 40.855 153.13C41.175 153.32 41.675 153.525 42.355 153.745C43.035 153.975 43.585 154.195 44.005 154.405C44.435 154.615 44.805 154.92 45.115 155.32C45.425 155.72 45.58 156.235 45.58 156.865C45.58 157.465 45.425 158.01 45.115 158.5C44.815 158.99 44.375 159.38 43.795 159.67C43.215 159.96 42.53 160.105 41.74 160.105ZM52.2235 151.54C53.1835 151.54 53.9535 151.86 54.5335 152.5C55.1135 153.13 55.4035 154 55.4035 155.11V160H52.8535V155.455C52.8535 154.895 52.7085 154.46 52.4185 154.15C52.1285 153.84 51.7385 153.685 51.2485 153.685C50.7585 153.685 50.3685 153.84 50.0785 154.15C49.7885 154.46 49.6435 154.895 49.6435 155.455V160H47.0785V148.9H49.6435V152.755C49.9035 152.385 50.2585 152.09 50.7085 151.87C51.1585 151.65 51.6635 151.54 52.2235 151.54ZM58.3959 150.76C57.9459 150.76 57.5759 150.63 57.2859 150.37C57.0059 150.1 56.8659 149.77 56.8659 149.38C56.8659 148.98 57.0059 148.65 57.2859 148.39C57.5759 148.12 57.9459 147.985 58.3959 147.985C58.8359 147.985 59.1959 148.12 59.4759 148.39C59.7659 148.65 59.9109 148.98 59.9109 149.38C59.9109 149.77 59.7659 150.1 59.4759 150.37C59.1959 150.63 58.8359 150.76 58.3959 150.76ZM59.6709 151.63V160H57.1059V151.63H59.6709ZM64.0148 152.815C64.2648 152.425 64.6098 152.11 65.0498 151.87C65.4898 151.63 66.0048 151.51 66.5948 151.51C67.2848 151.51 67.9098 151.685 68.4698 152.035C69.0298 152.385 69.4698 152.885 69.7898 153.535C70.1198 154.185 70.2848 154.94 70.2848 155.8C70.2848 156.66 70.1198 157.42 69.7898 158.08C69.4698 158.73 69.0298 159.235 68.4698 159.595C67.9098 159.945 67.2848 160.12 66.5948 160.12C66.0148 160.12 65.4998 160 65.0498 159.76C64.6098 159.52 64.2648 159.21 64.0148 158.83V163.99H61.4498V151.63H64.0148V152.815ZM67.6748 155.8C67.6748 155.16 67.4948 154.66 67.1348 154.3C66.7848 153.93 66.3498 153.745 65.8298 153.745C65.3198 153.745 64.8848 153.93 64.5248 154.3C64.1748 154.67 63.9998 155.175 63.9998 155.815C63.9998 156.455 64.1748 156.96 64.5248 157.33C64.8848 157.7 65.3198 157.885 65.8298 157.885C66.3398 157.885 66.7748 157.7 67.1348 157.33C67.4948 156.95 67.6748 156.44 67.6748 155.8ZM74.1154 152.815C74.3654 152.425 74.7104 152.11 75.1504 151.87C75.5904 151.63 76.1054 151.51 76.6954 151.51C77.3854 151.51 78.0104 151.685 78.5704 152.035C79.1304 152.385 79.5704 152.885 79.8904 153.535C80.2204 154.185 80.3854 154.94 80.3854 155.8C80.3854 156.66 80.2204 157.42 79.8904 158.08C79.5704 158.73 79.1304 159.235 78.5704 159.595C78.0104 159.945 77.3854 160.12 76.6954 160.12C76.1154 160.12 75.6004 160 75.1504 159.76C74.7104 159.52 74.3654 159.21 74.1154 158.83V163.99H71.5504V151.63H74.1154V152.815ZM77.7754 155.8C77.7754 155.16 77.5954 154.66 77.2354 154.3C76.8854 153.93 76.4504 153.745 75.9304 153.745C75.4204 153.745 74.9854 153.93 74.6254 154.3C74.2754 154.67 74.1004 155.175 74.1004 155.815C74.1004 156.455 74.2754 156.96 74.6254 157.33C74.9854 157.7 75.4204 157.885 75.9304 157.885C76.4404 157.885 76.8754 157.7 77.2354 157.33C77.5954 156.95 77.7754 156.44 77.7754 155.8ZM82.9411 150.76C82.4911 150.76 82.1211 150.63 81.8311 150.37C81.5511 150.1 81.4111 149.77 81.4111 149.38C81.4111 148.98 81.5511 148.65 81.8311 148.39C82.1211 148.12 82.4911 147.985 82.9411 147.985C83.3811 147.985 83.7411 148.12 84.0211 148.39C84.3111 148.65 84.4561 148.98 84.4561 149.38C84.4561 149.77 84.3111 150.1 84.0211 150.37C83.7411 150.63 83.3811 150.76 82.9411 150.76ZM84.2161 151.63V160H81.6511V151.63H84.2161ZM91.0949 151.54C92.0749 151.54 92.8549 151.86 93.4349 152.5C94.0249 153.13 94.3199 154 94.3199 155.11V160H91.7699V155.455C91.7699 154.895 91.6249 154.46 91.3349 154.15C91.0449 153.84 90.6549 153.685 90.1649 153.685C89.6749 153.685 89.2849 153.84 88.9949 154.15C88.7049 154.46 88.5599 154.895 88.5599 155.455V160H85.9949V151.63H88.5599V152.74C88.8199 152.37 89.1699 152.08 89.6099 151.87C90.0499 151.65 90.5449 151.54 91.0949 151.54ZM99.2023 151.51C99.7923 151.51 100.307 151.63 100.747 151.87C101.197 152.11 101.542 152.425 101.782 152.815V151.63H104.347V159.985C104.347 160.755 104.192 161.45 103.882 162.07C103.582 162.7 103.117 163.2 102.487 163.57C101.867 163.94 101.092 164.125 100.162 164.125C98.9223 164.125 97.9173 163.83 97.1473 163.24C96.3773 162.66 95.9373 161.87 95.8273 160.87H98.3623C98.4423 161.19 98.6323 161.44 98.9323 161.62C99.2323 161.81 99.6023 161.905 100.042 161.905C100.572 161.905 100.992 161.75 101.302 161.44C101.622 161.14 101.782 160.655 101.782 159.985V158.8C101.532 159.19 101.187 159.51 100.747 159.76C100.307 160 99.7923 160.12 99.2023 160.12C98.5123 160.12 97.8873 159.945 97.3273 159.595C96.7673 159.235 96.3223 158.73 95.9923 158.08C95.6723 157.42 95.5123 156.66 95.5123 155.8C95.5123 154.94 95.6723 154.185 95.9923 153.535C96.3223 152.885 96.7673 152.385 97.3273 152.035C97.8873 151.685 98.5123 151.51 99.2023 151.51ZM101.782 155.815C101.782 155.175 101.602 154.67 101.242 154.3C100.892 153.93 100.462 153.745 99.9523 153.745C99.4423 153.745 99.0073 153.93 98.6473 154.3C98.2973 154.66 98.1223 155.16 98.1223 155.8C98.1223 156.44 98.2973 156.95 98.6473 157.33C99.0073 157.7 99.4423 157.885 99.9523 157.885C100.462 157.885 100.892 157.7 101.242 157.33C101.602 156.96 101.782 156.455 101.782 155.815ZM44.485 181.14H40.555L39.925 183H37.24L41.05 172.47H44.02L47.83 183H45.115L44.485 181.14ZM43.825 179.16L42.52 175.305L41.23 179.16H43.825ZM48.3996 178.8C48.3996 177.94 48.5596 177.185 48.8796 176.535C49.2096 175.885 49.6546 175.385 50.2146 175.035C50.7746 174.685 51.3996 174.51 52.0896 174.51C52.6396 174.51 53.1396 174.625 53.5896 174.855C54.0496 175.085 54.4096 175.395 54.6696 175.785V171.9H57.2346V183H54.6696V181.8C54.4296 182.2 54.0846 182.52 53.6346 182.76C53.1946 183 52.6796 183.12 52.0896 183.12C51.3996 183.12 50.7746 182.945 50.2146 182.595C49.6546 182.235 49.2096 181.73 48.8796 181.08C48.5596 180.42 48.3996 179.66 48.3996 178.8ZM54.6696 178.815C54.6696 178.175 54.4896 177.67 54.1296 177.3C53.7796 176.93 53.3496 176.745 52.8396 176.745C52.3296 176.745 51.8946 176.93 51.5346 177.3C51.1846 177.66 51.0096 178.16 51.0096 178.8C51.0096 179.44 51.1846 179.95 51.5346 180.33C51.8946 180.7 52.3296 180.885 52.8396 180.885C53.3496 180.885 53.7796 180.7 54.1296 180.33C54.4896 179.96 54.6696 179.455 54.6696 178.815ZM61.5752 176.025C61.8752 175.565 62.2502 175.205 62.7002 174.945C63.1502 174.675 63.6502 174.54 64.2002 174.54V177.255H63.4952C62.8552 177.255 62.3752 177.395 62.0552 177.675C61.7352 177.945 61.5752 178.425 61.5752 179.115V183H59.0102V174.63H61.5752V176.025ZM73.2363 178.68C73.2363 178.92 73.2213 179.17 73.1913 179.43H67.3863C67.4263 179.95 67.5913 180.35 67.8813 180.63C68.1813 180.9 68.5463 181.035 68.9763 181.035C69.6163 181.035 70.0613 180.765 70.3113 180.225H73.0413C72.9013 180.775 72.6463 181.27 72.2763 181.71C71.9163 182.15 71.4613 182.495 70.9113 182.745C70.3613 182.995 69.7463 183.12 69.0663 183.12C68.2463 183.12 67.5163 182.945 66.8763 182.595C66.2363 182.245 65.7363 181.745 65.3763 181.095C65.0163 180.445 64.8363 179.685 64.8363 178.815C64.8363 177.945 65.0113 177.185 65.3613 176.535C65.7213 175.885 66.2213 175.385 66.8613 175.035C67.5013 174.685 68.2363 174.51 69.0663 174.51C69.8763 174.51 70.5963 174.68 71.2263 175.02C71.8563 175.36 72.3463 175.845 72.6963 176.475C73.0563 177.105 73.2363 177.84 73.2363 178.68ZM70.6113 178.005C70.6113 177.565 70.4613 177.215 70.1613 176.955C69.8613 176.695 69.4863 176.565 69.0363 176.565C68.6063 176.565 68.2413 176.69 67.9413 176.94C67.6513 177.19 67.4713 177.545 67.4013 178.005H70.6113ZM77.9144 183.12C77.1844 183.12 76.5344 182.995 75.9644 182.745C75.3944 182.495 74.9444 182.155 74.6144 181.725C74.2844 181.285 74.0994 180.795 74.0594 180.255H76.5944C76.6244 180.545 76.7594 180.78 76.9994 180.96C77.2394 181.14 77.5344 181.23 77.8844 181.23C78.2044 181.23 78.4494 181.17 78.6194 181.05C78.7994 180.92 78.8894 180.755 78.8894 180.555C78.8894 180.315 78.7644 180.14 78.5144 180.03C78.2644 179.91 77.8594 179.78 77.2994 179.64C76.6994 179.5 76.1994 179.355 75.7994 179.205C75.3994 179.045 75.0544 178.8 74.7644 178.47C74.4744 178.13 74.3294 177.675 74.3294 177.105C74.3294 176.625 74.4594 176.19 74.7194 175.8C74.9894 175.4 75.3794 175.085 75.8894 174.855C76.4094 174.625 77.0244 174.51 77.7344 174.51C78.7844 174.51 79.6094 174.77 80.2094 175.29C80.8194 175.81 81.1694 176.5 81.2594 177.36H78.8894C78.8494 177.07 78.7194 176.84 78.4994 176.67C78.2894 176.5 78.0094 176.415 77.6594 176.415C77.3594 176.415 77.1294 176.475 76.9694 176.595C76.8094 176.705 76.7294 176.86 76.7294 177.06C76.7294 177.3 76.8544 177.48 77.1044 177.6C77.3644 177.72 77.7644 177.84 78.3044 177.96C78.9244 178.12 79.4294 178.28 79.8194 178.44C80.2094 178.59 80.5494 178.84 80.8394 179.19C81.1394 179.53 81.2944 179.99 81.3044 180.57C81.3044 181.06 81.1644 181.5 80.8844 181.89C80.6144 182.27 80.2194 182.57 79.6994 182.79C79.1894 183.01 78.5944 183.12 77.9144 183.12ZM86.1987 183.12C85.4687 183.12 84.8187 182.995 84.2487 182.745C83.6787 182.495 83.2287 182.155 82.8987 181.725C82.5687 181.285 82.3837 180.795 82.3437 180.255H84.8787C84.9087 180.545 85.0437 180.78 85.2837 180.96C85.5237 181.14 85.8187 181.23 86.1687 181.23C86.4887 181.23 86.7337 181.17 86.9037 181.05C87.0837 180.92 87.1737 180.755 87.1737 180.555C87.1737 180.315 87.0487 180.14 86.7987 180.03C86.5487 179.91 86.1437 179.78 85.5837 179.64C84.9837 179.5 84.4837 179.355 84.0837 179.205C83.6837 179.045 83.3387 178.8 83.0487 178.47C82.7587 178.13 82.6137 177.675 82.6137 177.105C82.6137 176.625 82.7437 176.19 83.0037 175.8C83.2737 175.4 83.6637 175.085 84.1737 174.855C84.6937 174.625 85.3087 174.51 86.0187 174.51C87.0687 174.51 87.8937 174.77 88.4937 175.29C89.1037 175.81 89.4537 176.5 89.5437 177.36H87.1737C87.1337 177.07 87.0037 176.84 86.7837 176.67C86.5737 176.5 86.2937 176.415 85.9437 176.415C85.6437 176.415 85.4137 176.475 85.2537 176.595C85.0937 176.705 85.0137 176.86 85.0137 177.06C85.0137 177.3 85.1387 177.48 85.3887 177.6C85.6487 177.72 86.0487 177.84 86.5887 177.96C87.2087 178.12 87.7137 178.28 88.1037 178.44C88.4937 178.59 88.8337 178.84 89.1237 179.19C89.4237 179.53 89.5787 179.99 89.5887 180.57C89.5887 181.06 89.4487 181.5 89.1687 181.89C88.8987 182.27 88.5037 182.57 87.9837 182.79C87.4737 183.01 86.8787 183.12 86.1987 183.12Z" fill="white"/>
</g>
<defs>
<filter id="filter0_dd_11_1810" x="-10" y="10" width="104" height="144" filterUnits="userSpaceOnUse" color-interpolation-filters="sRGB">
<feFlood flood-opacity="0" result="BackgroundImageFix"/>
<feColorMatrix in="SourceAlpha" type="matrix" values="0 0 0 0 0 0 0 0 0 0 0 0 0 0 0 0 0 0 127 0" result="hardAlpha"/>
<feOffset dy="20"/>
<feGaussianBlur stdDeviation="15"/>
<feComposite in2="hardAlpha" operator="out"/>
<feColorMatrix type="matrix" values="0 0 0 0 0.0640972 0 0 0 0 0.0794837 0 0 0 0 0.108333 0 0 0 1 0"/>
<feBlend mode="normal" in2="BackgroundImageFix" result="effect1_dropShadow_11_1810"/>
<feColorMatrix in="SourceAlpha" type="matrix" values="0 0 0 0 0 0 0 0 0 0 0 0 0 0 0 0 0 0 127 0" result="hardAlpha"/>
<feOffset dy="-20"/>
<feGaussianBlur stdDeviation="15"/>
<feComposite in2="hardAlpha" operator="out"/>
<feColorMatrix type="matrix" values="0 0 0 0 0.167014 0 0 0 0 0.203125 0 0 0 0 0.270833 0 0 0 0.5 0"/>
<feBlend mode="normal" in2="effect1_dropShadow_11_1810" result="effect2_dropShadow_11_1810"/>
<feBlend mode="normal" in="SourceGraphic" in2="effect2_dropShadow_11_1810" result="shape"/>
</filter>
<linearGradient id="paint0_linear_11_1810" x1="22.2" y1="60" x2="52.8464" y2="119.431" gradientUnits="userSpaceOnUse">
<stop stop-color="#34C8E8"/>
<stop offset="1" stop-color="#4E4AF2"/>
</linearGradient>
<linearGradient id="paint1_linear_11_1810" x1="20" y1="60" x2="44.9884" y2="112.969" gradientUnits="userSpaceOnUse">
<stop stop-color="white"/>
<stop offset="1"/>
</linearGradient>
<linearGradient id="paint2_linear_11_1810" x1="370" y1="349" x2="123.178" y2="52.8434" gradientUnits="userSpaceOnUse">
<stop stop-color="#363E51"/>
<stop offset="1" stop-color="#4C5770"/>
</linearGradient>
<linearGradient id="paint3_linear_11_1810" x1="57.1212" y1="131.137" x2="195.346" y2="285.934" gradientUnits="userSpaceOnUse">
<stop stop-color="white"/>
<stop offset="1"/>
</linearGradient>
<clipPath id="clip0_11_1810">
<rect width="390" height="844" fill="white"/>
</clipPath>
</defs>
</svg>
