<svg width="375" height="812" viewBox="0 0 375 812" fill="none" xmlns="http://www.w3.org/2000/svg">
<g clip-path="url(#clip0_1642_3718)">
<rect width="375" height="812" fill="white"/>
<path d="M32.7173 138V130.727H35.4446C36.0033 130.727 36.4721 130.824 36.8509 131.018C37.232 131.213 37.5196 131.485 37.7138 131.835C37.9103 132.183 38.0085 132.589 38.0085 133.053C38.0085 133.52 37.9091 133.924 37.7102 134.268C37.5137 134.609 37.2237 134.873 36.8402 135.06C36.4567 135.244 35.9856 135.337 35.4268 135.337H33.4844V134.243H35.2493C35.576 134.243 35.8435 134.198 36.0518 134.108C36.2602 134.016 36.4141 133.882 36.5135 133.707C36.6153 133.529 36.6662 133.311 36.6662 133.053C36.6662 132.795 36.6153 132.575 36.5135 132.393C36.4117 132.208 36.2566 132.068 36.0483 131.974C35.84 131.877 35.5713 131.828 35.2422 131.828H34.0348V138H32.7173ZM36.4744 134.705L38.2749 138H36.8047L35.0362 134.705H36.4744ZM39.7212 138V130.727H44.4513V131.832H41.0387V133.806H44.2063V134.911H41.0387V136.896H44.4798V138H39.7212ZM52.5206 133.181H51.1925C51.1546 132.963 51.0848 132.77 50.983 132.602C50.8812 132.432 50.7545 132.287 50.603 132.169C50.4515 132.051 50.2786 131.962 50.0845 131.903C49.8928 131.841 49.6856 131.81 49.4631 131.81C49.0677 131.81 48.7173 131.91 48.4119 132.109C48.1065 132.305 47.8674 132.594 47.6946 132.975C47.5218 133.354 47.4354 133.817 47.4354 134.364C47.4354 134.92 47.5218 135.389 47.6946 135.77C47.8698 136.149 48.1089 136.435 48.4119 136.629C48.7173 136.821 49.0665 136.917 49.4595 136.917C49.6773 136.917 49.8809 136.888 50.0703 136.832C50.2621 136.772 50.4337 136.686 50.5852 136.572C50.7391 136.459 50.8681 136.319 50.9723 136.153C51.0788 135.988 51.1522 135.798 51.1925 135.585L52.5206 135.592C52.4709 135.938 52.3632 136.262 52.1974 136.565C52.0341 136.868 51.8198 137.136 51.5547 137.368C51.2895 137.598 50.9794 137.777 50.6243 137.908C50.2692 138.036 49.875 138.099 49.4418 138.099C48.8026 138.099 48.232 137.951 47.7301 137.656C47.2282 137.36 46.8329 136.932 46.544 136.374C46.2552 135.815 46.1108 135.145 46.1108 134.364C46.1108 133.58 46.2564 132.91 46.5476 132.354C46.8388 131.795 47.2353 131.368 47.7372 131.072C48.2391 130.776 48.8073 130.628 49.4418 130.628C49.8466 130.628 50.223 130.685 50.571 130.798C50.919 130.912 51.2292 131.079 51.5014 131.299C51.7737 131.517 51.9974 131.784 52.1726 132.102C52.3501 132.416 52.4661 132.776 52.5206 133.181ZM54.2271 138V130.727H58.9572V131.832H55.5446V133.806H58.7122V134.911H55.5446V136.896H58.9856V138H54.2271ZM66.7779 130.727V138H65.606L62.1792 133.046H62.1188V138H60.8013V130.727H61.9803L65.4036 135.685H65.4675V130.727H66.7779ZM68.3938 131.832V130.727H74.1964V131.832H71.9485V138H70.6417V131.832H68.3938ZM82.7479 132.727C82.7147 132.416 82.575 132.175 82.3288 132.002C82.085 131.829 81.7678 131.743 81.3771 131.743C81.1025 131.743 80.867 131.784 80.6705 131.867C80.474 131.95 80.3236 132.062 80.2195 132.205C80.1153 132.347 80.062 132.509 80.0597 132.691C80.0597 132.843 80.094 132.974 80.1626 133.085C80.2337 133.196 80.3295 133.291 80.4503 133.369C80.571 133.445 80.7048 133.509 80.8516 133.561C80.9983 133.613 81.1463 133.657 81.2955 133.692L81.9773 133.863C82.2519 133.927 82.5159 134.013 82.7692 134.122C83.0249 134.231 83.2533 134.368 83.4545 134.534C83.6581 134.7 83.8191 134.9 83.9375 135.134C84.0559 135.369 84.1151 135.643 84.1151 135.958C84.1151 136.384 84.0062 136.759 83.7884 137.084C83.5705 137.406 83.2557 137.658 82.8438 137.84C82.4342 138.02 81.9382 138.11 81.3558 138.11C80.79 138.11 80.2988 138.022 79.8821 137.847C79.4678 137.672 79.1435 137.416 78.9091 137.08C78.6771 136.744 78.5516 136.335 78.5327 135.852H79.8288C79.8478 136.105 79.9259 136.316 80.0632 136.484C80.2005 136.652 80.3793 136.777 80.5994 136.86C80.822 136.943 81.0705 136.984 81.3452 136.984C81.6316 136.984 81.8826 136.942 82.098 136.857C82.3158 136.769 82.4863 136.648 82.6094 136.494C82.7325 136.338 82.7952 136.156 82.7976 135.947C82.7952 135.758 82.7396 135.602 82.6307 135.479C82.5218 135.353 82.3691 135.249 82.1726 135.166C81.9785 135.081 81.7512 135.005 81.4908 134.939L80.6634 134.726C80.0644 134.572 79.5909 134.339 79.2429 134.026C78.8973 133.711 78.7244 133.294 78.7244 132.773C78.7244 132.344 78.8404 131.969 79.0724 131.647C79.3068 131.325 79.6252 131.075 80.0277 130.898C80.4302 130.718 80.8859 130.628 81.3949 130.628C81.911 130.628 82.3632 130.718 82.7514 130.898C83.142 131.075 83.4486 131.323 83.6712 131.64C83.8937 131.955 84.0085 132.317 84.0156 132.727H82.7479ZM85.7896 138V130.727H90.5197V131.832H87.1071V133.806H90.2747V134.911H87.1071V136.896H90.5481V138H85.7896ZM93.2978 138H91.8915L94.4519 130.727H96.0783L98.6422 138H97.236L95.2935 132.219H95.2367L93.2978 138ZM93.3439 135.148H97.1792V136.207H93.3439V135.148ZM100.1 138V130.727H102.827C103.386 130.727 103.855 130.824 104.234 131.018C104.615 131.213 104.902 131.485 105.097 131.835C105.293 132.183 105.391 132.589 105.391 133.053C105.391 133.52 105.292 133.924 105.093 134.268C104.897 134.609 104.607 134.873 104.223 135.06C103.839 135.244 103.368 135.337 102.81 135.337H100.867V134.243H102.632C102.959 134.243 103.226 134.198 103.435 134.108C103.643 134.016 103.797 133.882 103.896 133.707C103.998 133.529 104.049 133.311 104.049 133.053C104.049 132.795 103.998 132.575 103.896 132.393C103.795 132.208 103.639 132.068 103.431 131.974C103.223 131.877 102.954 131.828 102.625 131.828H101.418V138H100.1ZM103.857 134.705L105.658 138H104.188L102.419 134.705H103.857ZM113.329 133.181H112.001C111.963 132.963 111.893 132.77 111.792 132.602C111.69 132.432 111.563 132.287 111.412 132.169C111.26 132.051 111.087 131.962 110.893 131.903C110.701 131.841 110.494 131.81 110.272 131.81C109.876 131.81 109.526 131.91 109.221 132.109C108.915 132.305 108.676 132.594 108.503 132.975C108.33 133.354 108.244 133.817 108.244 134.364C108.244 134.92 108.33 135.389 108.503 135.77C108.678 136.149 108.917 136.435 109.221 136.629C109.526 136.821 109.875 136.917 110.268 136.917C110.486 136.917 110.69 136.888 110.879 136.832C111.071 136.772 111.242 136.686 111.394 136.572C111.548 136.459 111.677 136.319 111.781 136.153C111.887 135.988 111.961 135.798 112.001 135.585L113.329 135.592C113.279 135.938 113.172 136.262 113.006 136.565C112.843 136.868 112.628 137.136 112.363 137.368C112.098 137.598 111.788 137.777 111.433 137.908C111.078 138.036 110.684 138.099 110.25 138.099C109.611 138.099 109.041 137.951 108.539 137.656C108.037 137.36 107.641 136.932 107.353 136.374C107.064 135.815 106.919 135.145 106.919 134.364C106.919 133.58 107.065 132.91 107.356 132.354C107.647 131.795 108.044 131.368 108.546 131.072C109.048 130.776 109.616 130.628 110.25 130.628C110.655 130.628 111.032 130.685 111.38 130.798C111.728 130.912 112.038 131.079 112.31 131.299C112.582 131.517 112.806 131.784 112.981 132.102C113.159 132.416 113.275 132.776 113.329 133.181ZM115.036 138V130.727H116.353V133.806H119.723V130.727H121.044V138H119.723V134.911H116.353V138H115.036ZM122.977 138V130.727H127.707V131.832H124.295V133.806H127.462V134.911H124.295V136.896H127.736V138H122.977ZM133.504 132.727C133.471 132.416 133.331 132.175 133.085 132.002C132.841 131.829 132.524 131.743 132.133 131.743C131.858 131.743 131.623 131.784 131.426 131.867C131.23 131.95 131.079 132.062 130.975 132.205C130.871 132.347 130.818 132.509 130.816 132.691C130.816 132.843 130.85 132.974 130.919 133.085C130.99 133.196 131.085 133.291 131.206 133.369C131.327 133.445 131.461 133.509 131.607 133.561C131.754 133.613 131.902 133.657 132.051 133.692L132.733 133.863C133.008 133.927 133.272 134.013 133.525 134.122C133.781 134.231 134.009 134.368 134.21 134.534C134.414 134.7 134.575 134.9 134.693 135.134C134.812 135.369 134.871 135.643 134.871 135.958C134.871 136.384 134.762 136.759 134.544 137.084C134.326 137.406 134.012 137.658 133.6 137.84C133.19 138.02 132.694 138.11 132.112 138.11C131.546 138.11 131.055 138.022 130.638 137.847C130.224 137.672 129.899 137.416 129.665 137.08C129.433 136.744 129.307 136.335 129.289 135.852H130.585C130.604 136.105 130.682 136.316 130.819 136.484C130.956 136.652 131.135 136.777 131.355 136.86C131.578 136.943 131.826 136.984 132.101 136.984C132.387 136.984 132.638 136.942 132.854 136.857C133.072 136.769 133.242 136.648 133.365 136.494C133.488 136.338 133.551 136.156 133.553 135.947C133.551 135.758 133.495 135.602 133.387 135.479C133.278 135.353 133.125 135.249 132.928 135.166C132.734 135.081 132.507 135.005 132.247 134.939L131.419 134.726C130.82 134.572 130.347 134.339 129.999 134.026C129.653 133.711 129.48 133.294 129.48 132.773C129.48 132.344 129.596 131.969 129.828 131.647C130.063 131.325 130.381 131.075 130.784 130.898C131.186 130.718 131.642 130.628 132.151 130.628C132.667 130.628 133.119 130.718 133.507 130.898C133.898 131.075 134.204 131.323 134.427 131.64C134.65 131.955 134.764 132.317 134.771 132.727H133.504Z" fill="#71727A"/>
<path d="M38.8011 179.364C38.7415 178.86 38.4995 178.469 38.0753 178.19C37.651 177.912 37.1307 177.773 36.5142 177.773C36.0634 177.773 35.669 177.846 35.331 177.991C34.9962 178.137 34.7344 178.338 34.5455 178.593C34.3598 178.848 34.267 179.138 34.267 179.463C34.267 179.735 34.3317 179.969 34.4609 180.164C34.5935 180.356 34.7625 180.517 34.968 180.646C35.1735 180.772 35.389 180.877 35.6143 180.96C35.8397 181.039 36.0469 181.104 36.2358 181.153L37.2699 181.432C37.535 181.501 37.83 181.598 38.1548 181.72C38.483 181.843 38.7962 182.01 39.0945 182.222C39.3961 182.431 39.6446 182.7 39.8402 183.028C40.0357 183.356 40.1335 183.759 40.1335 184.236C40.1335 184.786 39.9893 185.283 39.701 185.727C39.416 186.171 38.9983 186.524 38.4482 186.786C37.9013 187.048 37.2367 187.179 36.4545 187.179C35.7254 187.179 35.094 187.061 34.5604 186.826C34.0301 186.591 33.6125 186.263 33.3075 185.842C33.0059 185.421 32.8352 184.932 32.7955 184.375H34.0682C34.1013 184.759 34.2306 185.078 34.456 185.33C34.6847 185.578 34.973 185.764 35.321 185.886C35.6723 186.006 36.0502 186.065 36.4545 186.065C36.9252 186.065 37.3478 185.989 37.7223 185.837C38.0968 185.681 38.3935 185.465 38.6122 185.19C38.831 184.912 38.9403 184.587 38.9403 184.216C38.9403 183.878 38.8459 183.603 38.657 183.391C38.468 183.179 38.2195 183.006 37.9112 182.874C37.603 182.741 37.2699 182.625 36.9119 182.526L35.6591 182.168C34.8636 181.939 34.2339 181.612 33.7699 181.188C33.3059 180.764 33.0739 180.209 33.0739 179.523C33.0739 178.953 33.228 178.455 33.5362 178.031C33.8478 177.604 34.2654 177.272 34.7891 177.037C35.3161 176.798 35.9044 176.679 36.554 176.679C37.2102 176.679 37.7936 176.797 38.304 177.032C38.8144 177.264 39.2188 177.582 39.517 177.987C39.8187 178.391 39.9777 178.85 39.9943 179.364H38.8011ZM43.1749 182.406V187H42.0016V176.818H43.1749V180.557H43.2743C43.4533 180.162 43.7218 179.849 44.0797 179.617C44.441 179.382 44.9216 179.264 45.5215 179.264C46.0418 179.264 46.4976 179.369 46.8887 179.577C47.2798 179.783 47.583 180.099 47.7985 180.527C48.0172 180.951 48.1266 181.491 48.1266 182.148V187H46.9533V182.227C46.9533 181.621 46.7959 181.152 46.481 180.82C46.1694 180.486 45.7369 180.318 45.1834 180.318C44.7989 180.318 44.4542 180.399 44.1493 180.562C43.8477 180.724 43.6091 180.961 43.4334 181.273C43.2611 181.584 43.1749 181.962 43.1749 182.406ZM53.3754 187.159C52.686 187.159 52.0811 186.995 51.5607 186.667C51.0437 186.339 50.6393 185.88 50.3477 185.29C50.0593 184.7 49.9151 184.01 49.9151 183.222C49.9151 182.426 50.0593 181.732 50.3477 181.138C50.6393 180.545 51.0437 180.085 51.5607 179.756C52.0811 179.428 52.686 179.264 53.3754 179.264C54.0647 179.264 54.668 179.428 55.185 179.756C55.7054 180.085 56.1097 180.545 56.3981 181.138C56.6897 181.732 56.8356 182.426 56.8356 183.222C56.8356 184.01 56.6897 184.7 56.3981 185.29C56.1097 185.88 55.7054 186.339 55.185 186.667C54.668 186.995 54.0647 187.159 53.3754 187.159ZM53.3754 186.105C53.899 186.105 54.3299 185.971 54.668 185.702C55.006 185.434 55.2563 185.081 55.4187 184.643C55.5811 184.206 55.6623 183.732 55.6623 183.222C55.6623 182.711 55.5811 182.236 55.4187 181.795C55.2563 181.354 55.006 180.998 54.668 180.726C54.3299 180.454 53.899 180.318 53.3754 180.318C52.8517 180.318 52.4208 180.454 52.0827 180.726C51.7447 180.998 51.4944 181.354 51.332 181.795C51.1696 182.236 51.0884 182.711 51.0884 183.222C51.0884 183.732 51.1696 184.206 51.332 184.643C51.4944 185.081 51.7447 185.434 52.0827 185.702C52.4208 185.971 52.8517 186.105 53.3754 186.105ZM61.8283 187.159C61.0925 187.159 60.4578 186.997 59.9242 186.672C59.3939 186.344 58.9846 185.886 58.6962 185.3C58.4112 184.71 58.2686 184.024 58.2686 183.241C58.2686 182.459 58.4112 181.77 58.6962 181.173C58.9846 180.573 59.3856 180.106 59.8993 179.771C60.4164 179.433 61.0196 179.264 61.709 179.264C62.1067 179.264 62.4995 179.33 62.8873 179.463C63.275 179.596 63.628 179.811 63.9462 180.109C64.2644 180.404 64.5179 180.795 64.7069 181.283C64.8958 181.77 64.9902 182.37 64.9902 183.082V183.58H59.1039V182.565H63.7971C63.7971 182.134 63.7109 181.75 63.5385 181.412C63.3695 181.074 63.1275 180.807 62.8127 180.612C62.5011 180.416 62.1332 180.318 61.709 180.318C61.2417 180.318 60.8373 180.434 60.4959 180.666C60.1578 180.895 59.8977 181.193 59.7154 181.561C59.5331 181.929 59.4419 182.323 59.4419 182.744V183.42C59.4419 183.997 59.5414 184.486 59.7402 184.887C59.9424 185.285 60.2225 185.588 60.5804 185.797C60.9384 186.002 61.3543 186.105 61.8283 186.105C62.1365 186.105 62.415 186.062 62.6635 185.976C62.9154 185.886 63.1325 185.754 63.3148 185.578C63.4971 185.399 63.638 185.177 63.7374 184.912L64.8709 185.23C64.7516 185.615 64.5511 185.953 64.2694 186.244C63.9876 186.533 63.6396 186.758 63.2253 186.92C62.811 187.08 62.3453 187.159 61.8283 187.159ZM72.1841 181.074L71.1301 181.372C71.0639 181.196 70.9661 181.026 70.8368 180.86C70.7109 180.691 70.5385 180.552 70.3198 180.442C70.101 180.333 69.821 180.278 69.4796 180.278C69.0123 180.278 68.6228 180.386 68.3113 180.602C68.003 180.814 67.8489 181.084 67.8489 181.412C67.8489 181.704 67.955 181.934 68.1671 182.103C68.3792 182.272 68.7106 182.413 69.1614 182.526L70.2949 182.804C70.9777 182.97 71.4864 183.223 71.8212 183.565C72.156 183.903 72.3233 184.339 72.3233 184.872C72.3233 185.31 72.1974 185.701 71.9455 186.045C71.6969 186.39 71.3489 186.662 70.9015 186.861C70.454 187.06 69.9337 187.159 69.3404 187.159C68.5615 187.159 67.9168 186.99 67.4064 186.652C66.896 186.314 66.5729 185.82 66.437 185.17L67.5506 184.892C67.6567 185.303 67.8572 185.611 68.1522 185.817C68.4505 186.022 68.8399 186.125 69.3205 186.125C69.8674 186.125 70.3016 186.009 70.623 185.777C70.9479 185.542 71.1103 185.26 71.1103 184.932C71.1103 184.667 71.0175 184.445 70.8319 184.266C70.6462 184.083 70.3612 183.947 69.9767 183.858L68.704 183.56C68.0047 183.394 67.4909 183.137 67.1628 182.789C66.838 182.438 66.6756 181.999 66.6756 181.472C66.6756 181.041 66.7966 180.66 67.0385 180.328C67.2838 179.997 67.6169 179.737 68.0378 179.548C68.4621 179.359 68.9426 179.264 69.4796 179.264C70.2353 179.264 70.8285 179.43 71.2594 179.761C71.6936 180.093 72.0018 180.53 72.1841 181.074Z" fill="#1F2024"/>
<g clip-path="url(#clip1_1642_3718)">
<mask id="mask0_1642_3718" style="mask-type:alpha" maskUnits="userSpaceOnUse" x="331" y="176" width="12" height="12">
<ellipse cx="337" cy="182" rx="5.5" ry="5.49991" fill="#D9D9D9"/>
</mask>
<g mask="url(#mask0_1642_3718)">
<rect x="331" y="176" width="12" height="11.9998" fill="#8F9098"/>
</g>
<path d="M335.664 179.911C335.455 179.702 335.116 179.702 334.907 179.911C334.698 180.12 334.698 180.458 334.907 180.667L336.239 182L334.907 183.333C334.698 183.542 334.698 183.88 334.907 184.089C335.116 184.298 335.455 184.298 335.664 184.089L336.996 182.757L338.329 184.089C338.538 184.298 338.877 184.298 339.086 184.089C339.295 183.88 339.295 183.542 339.086 183.333L337.753 182L339.086 180.667C339.295 180.458 339.295 180.12 339.086 179.911C338.877 179.702 338.538 179.702 338.329 179.911L336.996 181.243L335.664 179.911Z" fill="white"/>
</g>
<path d="M37.1307 228.818H38.3636V236.097C38.3636 236.746 38.2443 237.298 38.0057 237.752C37.767 238.206 37.4306 238.551 36.9964 238.786C36.5623 239.022 36.0502 239.139 35.4602 239.139C34.9034 239.139 34.4079 239.038 33.9737 238.836C33.5395 238.63 33.1982 238.339 32.9496 237.961C32.701 237.583 32.5767 237.134 32.5767 236.614H33.7898C33.7898 236.902 33.861 237.154 34.0036 237.369C34.1494 237.581 34.3482 237.747 34.6001 237.866C34.852 237.986 35.1387 238.045 35.4602 238.045C35.8149 238.045 36.1165 237.971 36.3651 237.822C36.6136 237.673 36.8026 237.454 36.9318 237.165C37.0644 236.874 37.1307 236.518 37.1307 236.097V228.818ZM42.9226 239.179C42.4387 239.179 41.9995 239.088 41.6051 238.906C41.2107 238.72 40.8975 238.453 40.6655 238.105C40.4335 237.754 40.3175 237.33 40.3175 236.832C40.3175 236.395 40.4036 236.04 40.576 235.768C40.7483 235.493 40.9787 235.278 41.267 235.122C41.5554 234.966 41.8736 234.85 42.2216 234.774C42.5729 234.695 42.9259 234.632 43.2805 234.585C43.7446 234.526 44.1207 234.481 44.4091 234.451C44.7008 234.418 44.9129 234.363 45.0455 234.287C45.1813 234.211 45.2493 234.078 45.2493 233.889V233.849C45.2493 233.359 45.1151 232.978 44.8466 232.706C44.5814 232.434 44.1787 232.298 43.6385 232.298C43.0784 232.298 42.6392 232.421 42.321 232.666C42.0028 232.911 41.7791 233.173 41.6499 233.452L40.5362 233.054C40.7351 232.59 41.0002 232.229 41.3317 231.97C41.6664 231.708 42.031 231.526 42.4254 231.423C42.8232 231.317 43.2143 231.264 43.5987 231.264C43.844 231.264 44.1257 231.294 44.4439 231.354C44.7654 231.41 45.0753 231.528 45.3736 231.707C45.6752 231.886 45.9254 232.156 46.1243 232.517C46.3232 232.878 46.4226 233.362 46.4226 233.969V239H45.2493V237.966H45.1896C45.1101 238.132 44.9775 238.309 44.7919 238.498C44.6063 238.687 44.3594 238.848 44.0511 238.98C43.7429 239.113 43.3667 239.179 42.9226 239.179ZM43.1016 238.125C43.5656 238.125 43.9567 238.034 44.2749 237.852C44.5964 237.669 44.8383 237.434 45.0007 237.146C45.1664 236.857 45.2493 236.554 45.2493 236.236V235.162C45.1996 235.222 45.0902 235.276 44.9212 235.326C44.7554 235.372 44.5632 235.414 44.3445 235.45C44.129 235.483 43.9186 235.513 43.7131 235.54C43.5109 235.563 43.3468 235.583 43.2209 235.599C42.916 235.639 42.6309 235.704 42.3658 235.793C42.1039 235.879 41.8918 236.01 41.7294 236.186C41.5703 236.358 41.4908 236.594 41.4908 236.892C41.4908 237.3 41.6416 237.608 41.9432 237.817C42.2481 238.022 42.6342 238.125 43.1016 238.125ZM51.6664 239.159C50.9505 239.159 50.334 238.99 49.8169 238.652C49.2999 238.314 48.9022 237.848 48.6238 237.255C48.3453 236.662 48.2061 235.984 48.2061 235.222C48.2061 234.446 48.3487 233.762 48.6337 233.168C48.9221 232.572 49.3231 232.106 49.8368 231.771C50.3539 231.433 50.9571 231.264 51.6465 231.264C52.1834 231.264 52.6673 231.364 53.0982 231.562C53.5291 231.761 53.882 232.04 54.1571 232.398C54.4322 232.756 54.6029 233.173 54.6692 233.651H53.4959C53.4064 233.303 53.2076 232.994 52.8993 232.726C52.5944 232.454 52.1834 232.318 51.6664 232.318C51.209 232.318 50.8079 232.437 50.4632 232.676C50.1219 232.911 49.8551 233.245 49.6628 233.675C49.4739 234.103 49.3794 234.605 49.3794 235.182C49.3794 235.772 49.4722 236.286 49.6578 236.723C49.8468 237.161 50.1119 237.5 50.4533 237.742C50.798 237.984 51.2024 238.105 51.6664 238.105C51.9713 238.105 52.248 238.052 52.4966 237.946C52.7452 237.84 52.9557 237.688 53.128 237.489C53.3004 237.29 53.423 237.051 53.4959 236.773H54.6692C54.6029 237.223 54.4389 237.629 54.177 237.991C53.9185 238.349 53.5755 238.634 53.1479 238.846C52.7237 239.055 52.2298 239.159 51.6664 239.159ZM57.4782 236.216L57.4583 234.764H57.6969L61.0378 231.364H62.4895L58.9299 234.963H58.8304L57.4782 236.216ZM56.3844 239V228.818H57.5577V239H56.3844ZM61.2367 239L58.2537 235.222L59.089 234.406L62.7282 239H61.2367ZM66.8869 239.159C66.1511 239.159 65.5164 238.997 64.9828 238.672C64.4525 238.344 64.0431 237.886 63.7548 237.3C63.4698 236.71 63.3272 236.024 63.3272 235.241C63.3272 234.459 63.4698 233.77 63.7548 233.173C64.0431 232.573 64.4442 232.106 64.9579 231.771C65.475 231.433 66.0782 231.264 66.7676 231.264C67.1653 231.264 67.5581 231.33 67.9458 231.463C68.3336 231.596 68.6866 231.811 69.0048 232.109C69.323 232.404 69.5765 232.795 69.7654 233.283C69.9544 233.77 70.0488 234.37 70.0488 235.082V235.58H64.1625V234.565H68.8556C68.8556 234.134 68.7695 233.75 68.5971 233.412C68.4281 233.074 68.1861 232.807 67.8713 232.612C67.5597 232.416 67.1918 232.318 66.7676 232.318C66.3002 232.318 65.8959 232.434 65.5545 232.666C65.2164 232.895 64.9563 233.193 64.774 233.561C64.5917 233.929 64.5005 234.323 64.5005 234.744V235.42C64.5005 235.997 64.6 236.486 64.7988 236.887C65.001 237.285 65.2811 237.588 65.639 237.797C65.997 238.002 66.4129 238.105 66.8869 238.105C67.1951 238.105 67.4735 238.062 67.7221 237.976C67.974 237.886 68.1911 237.754 68.3734 237.578C68.5557 237.399 68.6966 237.177 68.796 236.912L69.9295 237.23C69.8102 237.615 69.6097 237.953 69.3279 238.244C69.0462 238.533 68.6982 238.758 68.2839 238.92C67.8696 239.08 67.4039 239.159 66.8869 239.159ZM75.1547 231.364V232.358H71.1973V231.364H75.1547ZM72.3507 229.534H73.524V236.812C73.524 237.144 73.572 237.393 73.6681 237.558C73.7676 237.721 73.8935 237.83 74.046 237.886C74.2018 237.939 74.3658 237.966 74.5382 237.966C74.6674 237.966 74.7735 237.959 74.8564 237.946C74.9392 237.929 75.0055 237.916 75.0552 237.906L75.2939 238.96C75.2143 238.99 75.1033 239.02 74.9608 239.05C74.8182 239.083 74.6376 239.099 74.4189 239.099C74.0874 239.099 73.7626 239.028 73.4444 238.886C73.1296 238.743 72.8677 238.526 72.6589 238.234C72.4534 237.943 72.3507 237.575 72.3507 237.131V229.534Z" fill="#1F2024"/>
<g clip-path="url(#clip2_1642_3718)">
<mask id="mask1_1642_3718" style="mask-type:alpha" maskUnits="userSpaceOnUse" x="331" y="228" width="12" height="12">
<ellipse cx="337" cy="234" rx="5.5" ry="5.49991" fill="#D9D9D9"/>
</mask>
<g mask="url(#mask1_1642_3718)">
<rect x="331" y="228" width="12" height="11.9998" fill="#8F9098"/>
</g>
<path d="M335.664 231.911C335.455 231.702 335.116 231.702 334.907 231.911C334.698 232.12 334.698 232.458 334.907 232.667L336.239 234L334.907 235.333C334.698 235.542 334.698 235.88 334.907 236.089C335.116 236.298 335.455 236.298 335.664 236.089L336.996 234.757L338.329 236.089C338.538 236.298 338.877 236.298 339.086 236.089C339.295 235.88 339.295 235.542 339.086 235.333L337.753 234L339.086 232.667C339.295 232.458 339.295 232.12 339.086 231.911C338.877 231.702 338.538 231.702 338.329 231.911L336.996 233.243L335.664 231.911Z" fill="white"/>
</g>
<path d="M33.233 291V280.818H36.6733C37.4721 280.818 38.125 280.962 38.6321 281.251C39.1425 281.536 39.5204 281.922 39.7656 282.409C40.0109 282.896 40.1335 283.44 40.1335 284.04C40.1335 284.64 40.0109 285.185 39.7656 285.675C39.5237 286.166 39.1491 286.557 38.642 286.849C38.1349 287.137 37.4853 287.281 36.6932 287.281H34.2273V286.188H36.6534C37.2003 286.188 37.6394 286.093 37.9709 285.904C38.3023 285.715 38.5426 285.46 38.6918 285.138C38.8442 284.814 38.9205 284.447 38.9205 284.04C38.9205 283.632 38.8442 283.268 38.6918 282.946C38.5426 282.625 38.3007 282.373 37.9659 282.19C37.6312 282.005 37.187 281.912 36.6335 281.912H34.4659V291H33.233ZM44.2077 291.179C43.7238 291.179 43.2847 291.088 42.8903 290.906C42.4959 290.72 42.1826 290.453 41.9506 290.105C41.7186 289.754 41.6026 289.33 41.6026 288.832C41.6026 288.395 41.6888 288.04 41.8612 287.768C42.0335 287.493 42.2638 287.278 42.5522 287.122C42.8406 286.966 43.1587 286.85 43.5067 286.774C43.8581 286.695 44.2111 286.632 44.5657 286.585C45.0297 286.526 45.4059 286.481 45.6942 286.451C45.9859 286.418 46.198 286.363 46.3306 286.287C46.4665 286.211 46.5344 286.078 46.5344 285.889V285.849C46.5344 285.359 46.4002 284.978 46.1317 284.706C45.8666 284.434 45.4639 284.298 44.9237 284.298C44.3635 284.298 43.9244 284.421 43.6062 284.666C43.288 284.911 43.0643 285.173 42.935 285.452L41.8214 285.054C42.0202 284.59 42.2854 284.229 42.6168 283.97C42.9516 283.708 43.3162 283.526 43.7106 283.423C44.1083 283.317 44.4994 283.264 44.8839 283.264C45.1291 283.264 45.4109 283.294 45.729 283.354C46.0505 283.41 46.3604 283.528 46.6587 283.707C46.9603 283.886 47.2106 284.156 47.4094 284.517C47.6083 284.878 47.7077 285.362 47.7077 285.969V291H46.5344V289.966H46.4748C46.3952 290.132 46.2627 290.309 46.0771 290.498C45.8915 290.687 45.6445 290.848 45.3363 290.98C45.0281 291.113 44.6519 291.179 44.2077 291.179ZM44.3867 290.125C44.8507 290.125 45.2418 290.034 45.56 289.852C45.8815 289.669 46.1235 289.434 46.2859 289.146C46.4516 288.857 46.5344 288.554 46.5344 288.236V287.162C46.4847 287.222 46.3754 287.276 46.2063 287.326C46.0406 287.372 45.8484 287.414 45.6296 287.45C45.4142 287.483 45.2037 287.513 44.9982 287.54C44.796 287.563 44.632 287.583 44.506 287.599C44.2011 287.639 43.9161 287.704 43.6509 287.793C43.3891 287.879 43.177 288.01 43.0146 288.186C42.8555 288.358 42.7759 288.594 42.7759 288.892C42.7759 289.3 42.9267 289.608 43.2283 289.817C43.5333 290.022 43.9194 290.125 44.3867 290.125ZM51.0225 286.406V291H49.8493V283.364H50.9828V284.557H51.0822C51.2612 284.169 51.533 283.857 51.8975 283.622C52.2621 283.384 52.7328 283.264 53.3095 283.264C53.8265 283.264 54.2789 283.37 54.6667 283.582C55.0545 283.791 55.3561 284.109 55.5716 284.537C55.787 284.961 55.8947 285.498 55.8947 286.148V291H54.7214V286.227C54.7214 285.627 54.5656 285.16 54.2541 284.825C53.9425 284.487 53.515 284.318 52.9714 284.318C52.5969 284.318 52.2621 284.399 51.9672 284.562C51.6755 284.724 51.4451 284.961 51.2761 285.273C51.1071 285.584 51.0225 285.962 51.0225 286.406ZM61.3597 283.364V284.358H57.4023V283.364H61.3597ZM58.5558 281.534H59.729V288.812C59.729 289.144 59.7771 289.393 59.8732 289.558C59.9727 289.721 60.0986 289.83 60.2511 289.886C60.4068 289.939 60.5709 289.966 60.7433 289.966C60.8725 289.966 60.9786 289.959 61.0614 289.946C61.1443 289.929 61.2106 289.916 61.2603 289.906L61.4989 290.96C61.4194 290.99 61.3084 291.02 61.1658 291.05C61.0233 291.083 60.8427 291.099 60.6239 291.099C60.2925 291.099 59.9677 291.028 59.6495 290.886C59.3346 290.743 59.0728 290.526 58.864 290.234C58.6585 289.943 58.5558 289.575 58.5558 289.131V281.534ZM68.397 285.074L67.343 285.372C67.2768 285.196 67.179 285.026 67.0497 284.86C66.9238 284.691 66.7514 284.552 66.5327 284.442C66.3139 284.333 66.0339 284.278 65.6925 284.278C65.2251 284.278 64.8357 284.386 64.5241 284.602C64.2159 284.814 64.0618 285.084 64.0618 285.412C64.0618 285.704 64.1679 285.934 64.38 286.103C64.5921 286.272 64.9235 286.413 65.3743 286.526L66.5078 286.804C67.1906 286.97 67.6993 287.223 68.0341 287.565C68.3688 287.903 68.5362 288.339 68.5362 288.872C68.5362 289.31 68.4103 289.701 68.1584 290.045C67.9098 290.39 67.5618 290.662 67.1143 290.861C66.6669 291.06 66.1465 291.159 65.5533 291.159C64.7744 291.159 64.1297 290.99 63.6193 290.652C63.1089 290.314 62.7857 289.82 62.6499 289.17L63.7635 288.892C63.8696 289.303 64.0701 289.611 64.3651 289.817C64.6634 290.022 65.0528 290.125 65.5334 290.125C66.0803 290.125 66.5144 290.009 66.8359 289.777C67.1607 289.542 67.3232 289.26 67.3232 288.932C67.3232 288.667 67.2304 288.445 67.0447 288.266C66.8591 288.083 66.5741 287.947 66.1896 287.858L64.9169 287.56C64.2176 287.394 63.7038 287.137 63.3757 286.789C63.0509 286.438 62.8885 285.999 62.8885 285.472C62.8885 285.041 63.0095 284.66 63.2514 284.328C63.4967 283.997 63.8298 283.737 64.2507 283.548C64.675 283.359 65.1555 283.264 65.6925 283.264C66.4482 283.264 67.0414 283.43 67.4723 283.761C67.9065 284.093 68.2147 284.53 68.397 285.074Z" fill="#1F2024"/>
<g clip-path="url(#clip3_1642_3718)">
<mask id="mask2_1642_3718" style="mask-type:alpha" maskUnits="userSpaceOnUse" x="331" y="280" width="12" height="12">
<ellipse cx="337" cy="286" rx="5.5" ry="5.49991" fill="#D9D9D9"/>
</mask>
<g mask="url(#mask2_1642_3718)">
<rect x="331" y="280" width="12" height="11.9998" fill="#8F9098"/>
</g>
<path d="M335.664 283.911C335.455 283.702 335.116 283.702 334.907 283.911C334.698 284.12 334.698 284.458 334.907 284.667L336.239 286L334.907 287.333C334.698 287.542 334.698 287.88 334.907 288.089C335.116 288.298 335.455 288.298 335.664 288.089L336.996 286.757L338.329 288.089C338.538 288.298 338.877 288.298 339.086 288.089C339.295 287.88 339.295 287.542 339.086 287.333L337.753 286L339.086 284.667C339.295 284.458 339.295 284.12 339.086 283.911C338.877 283.702 338.538 283.702 338.329 283.911L336.996 285.243L335.664 283.911Z" fill="white"/>
</g>
<rect x="16" y="54" width="343" height="44" rx="22" fill="#F8F9FE"/>
<mask id="mask3_1642_3718" style="mask-type:alpha" maskUnits="userSpaceOnUse" x="32" y="70" width="16" height="16">
<path fill-rule="evenodd" clip-rule="evenodd" d="M38.4296 70.3335C35.0668 70.3335 32.3359 73.0379 32.3359 76.3797C32.3359 79.7216 35.0668 82.4259 38.4296 82.4259C39.6834 82.4259 40.8496 82.0499 41.8189 81.4052L45.7943 85.3478C46.2232 85.7732 46.9175 85.7732 47.3464 85.3478C47.7769 84.9209 47.7769 84.2276 47.3464 83.8007L43.3965 79.8833C44.1058 78.895 44.5233 77.6855 44.5233 76.3797C44.5233 73.0379 41.7924 70.3335 38.4296 70.3335ZM34.5338 76.3797C34.5338 74.2499 36.2754 72.5187 38.4296 72.5187C40.5838 72.5187 42.3254 74.2499 42.3254 76.3797C42.3254 78.5095 40.5838 80.2407 38.4296 80.2407C36.2754 80.2407 34.5338 78.5095 34.5338 76.3797Z" fill="#006FFD"/>
</mask>
<g mask="url(#mask3_1642_3718)">
<rect x="32" y="70" width="16" height="16" fill="#2F3036"/>
</g>
<path d="M70.8011 73.3636C70.7415 72.8598 70.4995 72.4688 70.0753 72.1903C69.651 71.9119 69.1307 71.7727 68.5142 71.7727C68.0634 71.7727 67.669 71.8456 67.331 71.9915C66.9962 72.1373 66.7344 72.3378 66.5455 72.593C66.3598 72.8482 66.267 73.1383 66.267 73.4631C66.267 73.7348 66.3317 73.9685 66.4609 74.1641C66.5935 74.3563 66.7625 74.517 66.968 74.6463C67.1735 74.7723 67.389 74.8767 67.6143 74.9595C67.8397 75.0391 68.0469 75.1037 68.2358 75.1534L69.2699 75.4318C69.535 75.5014 69.83 75.5975 70.1548 75.7202C70.483 75.8428 70.7962 76.0102 71.0945 76.2223C71.3961 76.4311 71.6446 76.6996 71.8402 77.0277C72.0357 77.3558 72.1335 77.7585 72.1335 78.2358C72.1335 78.786 71.9893 79.2831 71.701 79.7273C71.416 80.1714 70.9983 80.5244 70.4482 80.7862C69.9013 81.0481 69.2367 81.179 68.4545 81.179C67.7254 81.179 67.094 81.0613 66.5604 80.826C66.0301 80.5907 65.6125 80.2625 65.3075 79.8416C65.0059 79.4207 64.8352 78.9318 64.7955 78.375H66.0682C66.1013 78.7595 66.2306 79.0777 66.456 79.3295C66.6847 79.5781 66.973 79.7637 67.321 79.8864C67.6723 80.0057 68.0502 80.0653 68.4545 80.0653C68.9252 80.0653 69.3478 79.9891 69.7223 79.8366C70.0968 79.6809 70.3935 79.4654 70.6122 79.1903C70.831 78.9119 70.9403 78.5871 70.9403 78.2159C70.9403 77.8778 70.8459 77.6027 70.657 77.3906C70.468 77.1785 70.2195 77.0062 69.9112 76.8736C69.603 76.741 69.2699 76.625 68.9119 76.5256L67.6591 76.1676C66.8636 75.9389 66.2339 75.6125 65.7699 75.1882C65.3059 74.764 65.0739 74.2088 65.0739 73.5227C65.0739 72.9527 65.228 72.4555 65.5362 72.0312C65.8478 71.6037 66.2654 71.2723 66.7891 71.0369C67.3161 70.7983 67.9044 70.679 68.554 70.679C69.2102 70.679 69.7936 70.7966 70.304 71.032C70.8144 71.264 71.2188 71.5821 71.517 71.9865C71.8187 72.3909 71.9777 72.8499 71.9943 73.3636H70.8011ZM75.1749 76.4062V81H74.0016V70.8182H75.1749V74.5568H75.2743C75.4533 74.1624 75.7218 73.8492 76.0797 73.6172C76.441 73.3819 76.9216 73.2642 77.5215 73.2642C78.0418 73.2642 78.4976 73.3686 78.8887 73.5774C79.2798 73.7829 79.583 74.0994 79.7985 74.527C80.0172 74.9512 80.1266 75.4915 80.1266 76.1477V81H78.9533V76.2273C78.9533 75.6207 78.7959 75.1518 78.481 74.8203C78.1694 74.4856 77.7369 74.3182 77.1834 74.3182C76.7989 74.3182 76.4542 74.3994 76.1493 74.5618C75.8477 74.7242 75.6091 74.9612 75.4334 75.2727C75.2611 75.5843 75.1749 75.9621 75.1749 76.4062Z" fill="#1F2024"/>
<path d="M83 68V84" stroke="#006FFD" stroke-width="1.5" stroke-linecap="round"/>
<g clip-path="url(#clip4_1642_3718)" filter="url(#filter0_b_1642_3718)">
<rect width="375" height="293" transform="translate(0 519)" fill="#D4D6DD"/>
<g filter="url(#filter1_b_1642_3718)">
<g filter="url(#filter2_d_1642_3718)">
<rect x="58" y="635" width="32" height="43" rx="5" fill="white"/>
<path d="M68.2099 665V663.799L77.9002 648.978H68.1587V647.546H79.8008V648.748L70.1019 663.569H79.886V665H68.2099Z" fill="#1F2024"/>
</g>
<g filter="url(#filter3_d_1642_3718)">
<rect x="96" y="635" width="32" height="43" rx="5" fill="white"/>
<path d="M107.114 647.546L111.947 655.123H112.058L116.89 647.546H118.773L113.157 656.273L118.773 665H116.89L112.058 657.509H111.947L107.114 665H105.231L110.933 656.273L105.231 647.546H107.114Z" fill="#1F2024"/>
</g>
<g filter="url(#filter4_d_1642_3718)">
<rect x="134" y="635" width="32" height="43" rx="5" fill="white"/>
<path d="M157.282 653H155.679C155.56 652.404 155.344 651.853 155.032 651.347C154.725 650.836 154.338 650.39 153.873 650.009C153.407 649.628 152.878 649.333 152.287 649.123C151.696 648.912 151.057 648.807 150.37 648.807C149.267 648.807 148.262 649.094 147.353 649.668C146.449 650.242 145.725 651.086 145.179 652.199C144.64 653.307 144.37 654.665 144.37 656.273C144.37 657.893 144.64 659.256 145.179 660.364C145.725 661.472 146.449 662.313 147.353 662.887C148.262 663.455 149.267 663.739 150.37 663.739C151.057 663.739 151.696 663.634 152.287 663.424C152.878 663.214 153.407 662.921 153.873 662.546C154.338 662.165 154.725 661.719 155.032 661.208C155.344 660.697 155.56 660.143 155.679 659.546H157.282C157.14 660.347 156.873 661.094 156.48 661.787C156.094 662.475 155.6 663.077 154.998 663.594C154.401 664.111 153.713 664.515 152.935 664.804C152.157 665.094 151.301 665.239 150.37 665.239C148.904 665.239 147.603 664.873 146.466 664.14C145.33 663.401 144.438 662.361 143.79 661.02C143.148 659.679 142.827 658.097 142.827 656.273C142.827 654.449 143.148 652.867 143.79 651.526C144.438 650.185 145.33 649.148 146.466 648.415C147.603 647.677 148.904 647.307 150.37 647.307C151.301 647.307 152.157 647.452 152.935 647.742C153.713 648.026 154.401 648.429 154.998 648.952C155.6 649.469 156.094 650.072 156.48 650.759C156.873 651.447 157.14 652.194 157.282 653Z" fill="#1F2024"/>
</g>
<g filter="url(#filter5_d_1642_3718)">
<rect x="172" y="635" width="32" height="43" rx="5" fill="white"/>
<path d="M182.469 647.546L187.923 662.929H188.077L193.531 647.546H195.202L188.852 665H187.148L180.798 647.546H182.469Z" fill="#1F2024"/>
</g>
<g filter="url(#filter6_d_1642_3718)">
<rect x="210" y="635" width="32" height="43" rx="5" fill="white"/>
<path d="M220.549 665V647.546H226.438C227.574 647.546 228.52 647.745 229.276 648.143C230.037 648.54 230.608 649.083 230.989 649.77C231.37 650.458 231.56 651.239 231.56 652.114C231.56 652.841 231.438 653.464 231.194 653.981C230.949 654.498 230.617 654.915 230.196 655.233C229.776 655.552 229.307 655.782 228.79 655.924V656.06C229.353 656.1 229.898 656.299 230.426 656.657C230.955 657.009 231.39 657.503 231.73 658.14C232.071 658.776 232.242 659.537 232.242 660.424C232.242 661.304 232.046 662.091 231.654 662.785C231.262 663.472 230.659 664.015 229.847 664.412C229.04 664.804 228.012 665 226.762 665H220.549ZM222.142 663.569H226.762C228.108 663.569 229.103 663.27 229.745 662.674C230.392 662.077 230.716 661.327 230.716 660.424C230.716 659.759 230.554 659.157 230.23 658.617C229.912 658.072 229.461 657.64 228.875 657.322C228.296 657.003 227.614 656.844 226.83 656.844H222.142V663.569ZM222.142 655.429H226.583C227.27 655.429 227.873 655.287 228.39 655.003C228.907 654.719 229.31 654.327 229.6 653.827C229.89 653.327 230.034 652.756 230.034 652.114C230.034 651.188 229.733 650.435 229.131 649.856C228.529 649.27 227.631 648.978 226.438 648.978H222.142V655.429Z" fill="#1F2024"/>
</g>
<g filter="url(#filter7_d_1642_3718)">
<rect x="248" y="635" width="32" height="43" rx="5" fill="white"/>
<path d="M270.795 647.546V665H269.244L258.931 650.384H258.795V665H257.201V647.546H258.744L269.09 662.179H269.227V647.546H270.795Z" fill="#1F2024"/>
</g>
<g filter="url(#filter8_d_1642_3718)">
<rect x="286" y="635" width="32" height="43" rx="5" fill="white"/>
<path d="M293.748 647.546H295.589L301.921 662.75H302.075L308.407 647.546H310.248V665H308.748V650.912H308.612L302.722 665H301.273L295.384 650.912H295.248V665H293.748V647.546Z" fill="#1F2024"/>
</g>
<g filter="url(#filter9_d_1642_3718)">
<rect x="21.75" y="581" width="32" height="43" rx="5" fill="white"/>
<path d="M32.2188 611H30.5483L36.8977 593.546H38.6023L44.9517 611H43.2812L37.8097 595.617H37.6903L32.2188 611ZM33.4205 604.31H42.0795V605.742H33.4205V604.31Z" fill="#1F2024"/>
</g>
<g filter="url(#filter10_d_1642_3718)">
<rect x="59.75" y="581" width="32" height="43" rx="5" fill="white"/>
<path d="M79.9986 597.91C79.902 596.938 79.473 596.165 78.7116 595.591C77.9503 595.018 76.9929 594.731 75.8395 594.731C75.027 594.731 74.3111 594.87 73.6918 595.148C73.0781 595.427 72.5952 595.813 72.2429 596.307C71.8963 596.796 71.723 597.353 71.723 597.978C71.723 598.438 71.8224 598.841 72.0213 599.188C72.2202 599.535 72.4872 599.833 72.8224 600.083C73.1634 600.327 73.5384 600.537 73.9474 600.714C74.3622 600.89 74.7798 601.037 75.2003 601.157L77.0412 601.685C77.598 601.839 78.1548 602.035 78.7116 602.273C79.2685 602.512 79.777 602.813 80.2372 603.177C80.7031 603.535 81.0753 603.975 81.3537 604.498C81.6378 605.015 81.7798 605.637 81.7798 606.364C81.7798 607.296 81.5384 608.134 81.0554 608.878C80.5724 609.623 79.8793 610.214 78.9759 610.651C78.0724 611.083 76.9901 611.299 75.7287 611.299C74.5412 611.299 73.5099 611.103 72.6349 610.711C71.7599 610.313 71.0724 609.765 70.5724 609.066C70.0724 608.367 69.7912 607.557 69.7287 606.637H71.3651C71.4219 607.324 71.6491 607.907 72.0469 608.384C72.4446 608.861 72.9616 609.225 73.598 609.475C74.2344 609.719 74.9446 609.841 75.7287 609.841C76.598 609.841 77.3707 609.697 78.0469 609.407C78.7287 609.111 79.2628 608.702 79.6491 608.179C80.0412 607.651 80.2372 607.037 80.2372 606.339C80.2372 605.748 80.0838 605.253 79.777 604.856C79.4702 604.452 79.0412 604.114 78.4901 603.841C77.9446 603.569 77.3111 603.327 76.5895 603.117L74.5014 602.503C73.1321 602.094 72.0696 601.529 71.3139 600.807C70.5582 600.086 70.1804 599.165 70.1804 598.046C70.1804 597.108 70.4304 596.285 70.9304 595.574C71.4361 594.858 72.1179 594.302 72.9759 593.904C73.8395 593.5 74.8082 593.299 75.8821 593.299C76.9673 593.299 77.9276 593.498 78.7628 593.895C79.598 594.293 80.2599 594.841 80.7486 595.54C81.2429 596.233 81.5071 597.023 81.5412 597.91H79.9986Z" fill="#1F2024"/>
</g>
<g filter="url(#filter11_d_1642_3718)">
<rect x="97.75" y="581" width="32" height="43" rx="5" fill="white"/>
<path d="M112.569 611H107.455V593.546H112.875C114.54 593.546 115.963 593.893 117.145 594.586C118.333 595.279 119.242 596.273 119.873 597.569C120.503 598.864 120.819 600.418 120.819 602.231C120.819 604.06 120.495 605.631 119.847 606.944C119.205 608.25 118.267 609.253 117.034 609.952C115.807 610.651 114.319 611 112.569 611ZM109.049 609.569H112.475C113.975 609.569 115.23 609.273 116.242 608.682C117.253 608.091 118.012 607.248 118.517 606.151C119.023 605.054 119.276 603.748 119.276 602.231C119.27 600.725 119.02 599.429 118.526 598.344C118.037 597.259 117.31 596.427 116.344 595.847C115.384 595.268 114.196 594.978 112.782 594.978H109.049V609.569Z" fill="#1F2024"/>
</g>
<g filter="url(#filter12_d_1642_3718)">
<rect x="135.75" y="581" width="32" height="43" rx="5" fill="white"/>
<path d="M147.037 611V593.546H157.136V594.978H148.631V601.549H156.344V602.981H148.631V611H147.037Z" fill="#1F2024"/>
</g>
<g filter="url(#filter13_d_1642_3718)">
<rect x="173.75" y="581" width="32" height="43" rx="5" fill="white"/>
<path d="M195.25 599C195.091 598.421 194.858 597.878 194.551 597.373C194.245 596.861 193.864 596.415 193.409 596.035C192.961 595.648 192.441 595.347 191.85 595.131C191.265 594.915 190.611 594.807 189.89 594.807C188.753 594.807 187.736 595.103 186.838 595.694C185.941 596.285 185.23 597.137 184.708 598.25C184.191 599.364 183.932 600.705 183.932 602.273C183.932 603.836 184.194 605.174 184.716 606.287C185.239 607.401 185.955 608.256 186.864 608.853C187.779 609.444 188.824 609.739 190 609.739C191.074 609.739 192.023 609.5 192.847 609.023C193.671 608.546 194.313 607.864 194.773 606.978C195.239 606.091 195.466 605.037 195.455 603.816L195.966 603.978H190.375V602.546H197.006V603.978C197.006 605.466 196.705 606.753 196.103 607.839C195.5 608.924 194.674 609.762 193.623 610.353C192.571 610.944 191.364 611.239 190 611.239C188.478 611.239 187.145 610.873 186.003 610.14C184.861 609.401 183.972 608.361 183.336 607.02C182.705 605.674 182.39 604.091 182.39 602.273C182.39 600.904 182.571 599.668 182.935 598.566C183.299 597.464 183.813 596.52 184.478 595.736C185.148 594.952 185.941 594.353 186.855 593.938C187.77 593.518 188.782 593.307 189.89 593.307C190.844 593.307 191.716 593.458 192.506 593.759C193.301 594.06 194 594.475 194.603 595.003C195.211 595.526 195.708 596.131 196.094 596.819C196.486 597.5 196.75 598.228 196.887 599H195.25Z" fill="#1F2024"/>
</g>
<g filter="url(#filter14_d_1642_3718)">
<rect x="211.75" y="581" width="32" height="43" rx="5" fill="white"/>
<path d="M221.209 611V593.546H222.803V601.549H232.706V593.546H234.3V611H232.706V602.981H222.803V611H221.209Z" fill="#1F2024"/>
</g>
<g filter="url(#filter15_d_1642_3718)">
<rect x="249.75" y="581" width="32" height="43" rx="5" fill="white"/>
<path d="M268.26 593.546H269.854V606.134C269.848 607.27 269.643 608.219 269.24 608.981C268.837 609.736 268.28 610.302 267.57 610.677C266.859 611.052 266.044 611.239 265.124 611.239C264.22 611.239 263.413 611.072 262.703 610.736C261.993 610.401 261.433 609.929 261.024 609.322C260.621 608.714 260.419 608 260.419 607.182H261.987C261.987 607.699 262.124 608.157 262.396 608.554C262.669 608.947 263.041 609.253 263.513 609.475C263.99 609.697 264.527 609.807 265.124 609.807C265.743 609.807 266.286 609.677 266.751 609.415C267.223 609.154 267.592 608.753 267.859 608.214C268.126 607.668 268.26 606.975 268.26 606.134V593.546Z" fill="#1F2024"/>
</g>
<g filter="url(#filter16_d_1642_3718)">
<rect x="287.75" y="581" width="32" height="43" rx="5" fill="white"/>
<path d="M298.381 611V593.546H299.974V602.947H300.128L308.651 593.546H310.747L303.29 601.617L310.713 611H308.77L302.301 602.725L299.974 605.333V611H298.381Z" fill="#1F2024"/>
</g>
<g filter="url(#filter17_d_1642_3718)">
<rect x="325.75" y="581" width="32" height="43" rx="5" fill="white"/>
<path d="M337.318 611V593.546H338.912V609.569H347.23V611H337.318Z" fill="#1F2024"/>
</g>
<g filter="url(#filter18_d_1642_3718)">
<rect x="5" y="527" width="31" height="43" rx="5" fill="white"/>
<path d="M20.2731 551.546H22.0458L24.2788 554.503L24.6538 554.998L27.3981 558.637H25.6254L23.614 555.952L23.256 555.475L20.2731 551.546ZM28.0458 548.273C28.0458 550.091 27.7219 551.674 27.0742 553.02C26.4265 554.361 25.5344 555.401 24.3981 556.14C23.2674 556.873 21.9663 557.239 20.4947 557.239C19.0231 557.239 17.7191 556.873 16.5827 556.14C15.4521 555.401 14.5629 554.361 13.9151 553.02C13.2731 551.674 12.9521 550.091 12.9521 548.273C12.9521 546.455 13.2731 544.875 13.9151 543.535C14.5629 542.188 15.4549 541.148 16.5913 540.415C17.7276 539.677 19.0288 539.307 20.4947 539.307C21.9663 539.307 23.2674 539.677 24.3981 540.415C25.5344 541.148 26.4265 542.188 27.0742 543.535C27.7219 544.875 28.0458 546.455 28.0458 548.273ZM26.4947 548.273C26.4947 546.711 26.2333 545.373 25.7106 544.259C25.1879 543.14 24.4748 542.285 23.5714 541.694C22.668 541.103 21.6424 540.807 20.4947 540.807C19.3526 540.807 18.3299 541.103 17.4265 541.694C16.5231 542.285 15.8072 543.137 15.2788 544.25C14.756 545.364 14.4947 546.705 14.4947 548.273C14.4947 549.836 14.756 551.174 15.2788 552.287C15.8015 553.401 16.5146 554.256 17.418 554.853C18.3214 555.444 19.3469 555.739 20.4947 555.739C21.6424 555.739 22.668 555.444 23.5714 554.853C24.4805 554.262 25.1964 553.41 25.7191 552.296C26.2418 551.177 26.5004 549.836 26.4947 548.273Z" fill="#1F2024"/>
</g>
<g filter="url(#filter19_d_1642_3718)">
<rect x="42" y="527" width="31" height="43" rx="5" fill="white"/>
<path d="M51.696 557L46.9148 539.546H48.5341L52.4886 554.554H52.625L56.5795 539.546H58.4205L62.375 554.554H62.5114L66.4659 539.546H68.0938L63.3125 557H61.608L57.5597 542.197H57.4489L53.4006 557H51.696Z" fill="#1F2024"/>
</g>
<g filter="url(#filter20_d_1642_3718)">
<rect x="79" y="527" width="31" height="43" rx="5" fill="white"/>
<path d="M89.6932 557V539.546H99.8182V540.978H91.2869V547.549H99.2812V548.981H91.2869V555.569H99.9886V557H89.6932Z" fill="#1F2024"/>
</g>
<g filter="url(#filter21_d_1642_3718)">
<rect x="116" y="527" width="31" height="43" rx="5" fill="white"/>
<path d="M126.248 557V539.546H131.881C133.12 539.546 134.154 539.77 134.984 540.219C135.819 540.662 136.447 541.279 136.867 542.069C137.293 542.853 137.506 543.753 137.506 544.77C137.506 545.787 137.293 546.685 136.867 547.464C136.447 548.242 135.822 548.85 134.992 549.287C134.163 549.725 133.134 549.944 131.907 549.944H127.109V548.486H131.864C132.773 548.486 133.529 548.336 134.131 548.035C134.739 547.733 135.191 547.304 135.487 546.748C135.788 546.191 135.938 545.532 135.938 544.77C135.938 544.009 135.788 543.344 135.487 542.776C135.185 542.202 134.731 541.759 134.123 541.447C133.521 541.134 132.759 540.978 131.839 540.978H127.842V557H126.248ZM133.944 549.125L138.239 557H136.398L132.146 549.125H133.944Z" fill="#1F2024"/>
</g>
<g filter="url(#filter22_d_1642_3718)">
<rect x="153" y="527" width="31" height="43" rx="5" fill="white"/>
<path d="M162.168 540.978V539.546H174.824V540.978H169.293V557H167.699V540.978H162.168Z" fill="#1F2024"/>
</g>
<g filter="url(#filter23_d_1642_3718)">
<rect x="190" y="527" width="31" height="43" rx="5" fill="white"/>
<path d="M198.412 539.546H200.253L205.426 547.83H205.58L210.753 539.546H212.594L206.296 549.441V557H204.711V549.441L198.412 539.546Z" fill="#1F2024"/>
</g>
<g filter="url(#filter24_d_1642_3718)">
<rect x="227" y="527" width="31" height="43" rx="5" fill="white"/>
<path d="M247.522 539.546H249.116V551.103C249.116 552.29 248.837 553.353 248.281 554.29C247.724 555.222 246.948 555.958 245.954 556.498C244.965 557.032 243.815 557.299 242.502 557.299C241.195 557.299 240.045 557.029 239.05 556.489C238.056 555.949 237.281 555.214 236.724 554.282C236.167 553.35 235.888 552.29 235.888 551.103V539.546H237.482V550.992C237.482 551.918 237.69 552.745 238.104 553.472C238.519 554.194 239.102 554.762 239.852 555.177C240.607 555.591 241.491 555.799 242.502 555.799C243.513 555.799 244.397 555.591 245.153 555.177C245.908 554.762 246.491 554.194 246.9 553.472C247.315 552.745 247.522 551.918 247.522 550.992V539.546Z" fill="#1F2024"/>
</g>
<g filter="url(#filter25_d_1642_3718)">
<rect x="264" y="527" width="31" height="43" rx="5" fill="white"/>
<path d="M280.295 539.546V557H278.701V539.546H280.295Z" fill="#1F2024"/>
</g>
<g filter="url(#filter26_d_1642_3718)">
<rect x="301" y="527" width="31" height="43" rx="5" fill="white"/>
<path d="M324.046 548.273C324.046 550.091 323.722 551.674 323.074 553.02C322.426 554.361 321.534 555.401 320.398 556.14C319.267 556.873 317.966 557.239 316.495 557.239C315.023 557.239 313.719 556.873 312.583 556.14C311.452 555.401 310.563 554.361 309.915 553.02C309.273 551.674 308.952 550.091 308.952 548.273C308.952 546.455 309.273 544.875 309.915 543.535C310.563 542.188 311.455 541.148 312.591 540.415C313.728 539.677 315.029 539.307 316.495 539.307C317.966 539.307 319.267 539.677 320.398 540.415C321.534 541.148 322.426 542.188 323.074 543.535C323.722 544.875 324.046 546.455 324.046 548.273ZM322.495 548.273C322.495 546.711 322.233 545.373 321.711 544.259C321.188 543.14 320.475 542.285 319.571 541.694C318.668 541.103 317.642 540.807 316.495 540.807C315.353 540.807 314.33 541.103 313.426 541.694C312.523 542.285 311.807 543.137 311.279 544.25C310.756 545.364 310.495 546.705 310.495 548.273C310.495 549.836 310.756 551.174 311.279 552.287C311.801 553.401 312.515 554.256 313.418 554.853C314.321 555.444 315.347 555.739 316.495 555.739C317.642 555.739 318.668 555.444 319.571 554.853C320.48 554.262 321.196 553.41 321.719 552.296C322.242 551.177 322.5 549.836 322.495 548.273Z" fill="#1F2024"/>
</g>
<g filter="url(#filter27_d_1642_3718)">
<rect x="338" y="527" width="31" height="43" rx="5" fill="white"/>
<path d="M348.318 557V539.546H353.952C355.19 539.546 356.224 539.785 357.054 540.262C357.889 540.733 358.517 541.375 358.938 542.188C359.364 543 359.577 543.915 359.577 544.932C359.577 545.949 359.366 546.867 358.946 547.685C358.526 548.498 357.901 549.143 357.071 549.62C356.241 550.091 355.21 550.327 353.977 550.327H349.545V548.895H353.935C354.849 548.895 355.608 548.725 356.21 548.384C356.813 548.037 357.261 547.566 357.557 546.969C357.858 546.373 358.009 545.694 358.009 544.932C358.009 544.171 357.858 543.492 357.557 542.895C357.261 542.299 356.81 541.83 356.202 541.489C355.599 541.148 354.835 540.978 353.909 540.978H349.912V557H348.318Z" fill="#1F2024"/>
</g>
<g filter="url(#filter28_d_1642_3718)">
<rect x="3" y="635" width="42" height="43" rx="5" fill="white"/>
<path d="M19.6368 658.644H15.0007C14.5592 658.644 14.3346 658.113 14.642 657.795L23.6412 648.503C23.8375 648.3 24.1625 648.3 24.3588 648.503L33.358 657.795C33.6654 658.113 33.4408 658.644 32.9993 658.644H28.3625V664.15C28.3625 664.427 28.1388 664.651 27.8628 664.651H20.1366C19.8606 664.651 19.6368 664.427 19.6368 664.15V658.644Z" fill="#1F2024"/>
</g>
<g filter="url(#filter29_d_1642_3718)">
<rect x="330" y="635" width="42" height="42" rx="5" fill="#C5C6CC"/>
<path d="M350.214 653.526C349.922 653.233 349.922 652.758 350.214 652.465C350.507 652.172 350.982 652.172 351.275 652.465L353.75 654.94L356.225 652.465C356.518 652.172 356.993 652.172 357.286 652.465C357.578 652.758 357.578 653.233 357.286 653.526L354.811 656L357.286 658.475C357.578 658.768 357.578 659.243 357.286 659.536C356.993 659.829 356.518 659.829 356.225 659.536L353.75 657.061L351.275 659.536C350.982 659.829 350.507 659.829 350.214 659.536C349.922 659.243 349.922 658.768 350.214 658.475L352.689 656.001L350.214 653.526Z" fill="#1F2024"/>
<path fill-rule="evenodd" clip-rule="evenodd" d="M347.121 648.379L339.5 656L347.121 663.622C347.684 664.184 348.447 664.5 349.243 664.5H359.5C361.157 664.5 362.5 663.157 362.5 661.5V650.5C362.5 648.844 361.157 647.5 359.5 647.5H349.243C348.447 647.5 347.684 647.817 347.121 648.379ZM359.5 663.201H349.243C348.792 663.201 348.359 663.021 348.041 662.703L341.339 656L348.041 649.298C348.359 648.98 348.792 648.8 349.243 648.8H359.5C360.439 648.8 361.2 649.562 361.2 650.5V661.5C361.2 662.439 360.439 663.201 359.5 663.201Z" fill="#1F2024"/>
</g>
</g>
<rect x="121" y="798" width="133" height="6" rx="3" fill="#1F2024"/>
<path fill-rule="evenodd" clip-rule="evenodd" d="M335.998 759.875C333.677 759.875 331.787 761.76 331.787 764.084V773.831C331.787 776.156 333.672 778.04 335.998 778.04C338.319 778.04 340.209 776.155 340.209 773.831V764.084C340.209 761.759 338.323 759.875 335.998 759.875ZM333.592 764.079V773.837C333.592 775.151 334.669 776.234 335.998 776.234C337.336 776.234 338.404 775.161 338.404 773.837V764.079C338.404 762.764 337.327 761.681 335.998 761.681C334.66 761.681 333.592 762.754 333.592 764.079Z" fill="#494A50"/>
<path d="M336.984 783.007V780.491C341.578 780.228 343.547 776.46 343.547 772.778V771.08C343.548 771.067 343.548 771.054 343.547 771.04L343.547 771.02C343.547 770.522 343.14 770.117 342.641 770.117C342.143 770.117 341.749 770.522 341.749 771.02V772.777C341.749 776.46 340.266 778.981 336.066 778.981C332.391 778.981 330.258 776.46 330.258 772.777V771.08C330.258 770.582 329.854 770.178 329.355 770.178C328.857 770.178 328.453 770.582 328.453 771.08V772.778C328.453 776.464 331.078 780.228 335.147 780.491V783.007H331.765C331.273 783.007 330.859 783.412 330.859 783.91C330.859 784.412 331.265 784.813 331.765 784.813H340.266C340.757 784.813 341.184 784.409 341.184 783.91C341.184 783.408 340.766 783.007 340.266 783.007H336.984Z" fill="#494A50"/>
<path fill-rule="evenodd" clip-rule="evenodd" d="M39 786.125C31.7513 786.125 25.875 780.249 25.875 773C25.875 765.752 31.7513 759.875 39 759.875C46.2487 759.875 52.125 765.752 52.125 773C52.125 780.249 46.2487 786.125 39 786.125ZM39 784.813C45.5239 784.813 50.8125 779.524 50.8125 773C50.8125 766.477 45.5239 761.188 39 761.188C32.4761 761.188 27.1875 766.477 27.1875 773C27.1875 779.524 32.4761 784.813 39 784.813ZM38.9845 782.188C34.3068 782.188 29.8673 777.702 29.8673 774.459C29.8673 772.599 33.9103 774.838 38.9845 774.838C44.0586 774.838 48.1463 772.602 48.1327 774.459C48.1098 777.601 43.6622 782.188 38.9845 782.188ZM38.9845 778.054C43.3337 778.054 46.3424 776.372 46.3424 775.16C46.3424 773.947 43.3337 775.883 38.9845 775.883C34.6352 775.883 31.6765 774.18 31.6765 775.16C31.6765 776.14 34.6352 778.054 38.9845 778.054ZM35.0461 770.671C34.1853 770.671 33.4875 769.973 33.4875 769.112C33.4875 768.251 34.1853 767.554 35.0461 767.554C35.9069 767.554 36.6047 768.251 36.6047 769.112C36.6047 769.973 35.9069 770.671 35.0461 770.671ZM42.9211 770.671C42.0603 770.671 41.3625 769.973 41.3625 769.112C41.3625 768.251 42.0603 767.554 42.9211 767.554C43.7819 767.554 44.4797 768.251 44.4797 769.112C44.4797 769.973 43.7819 770.671 42.9211 770.671Z" fill="#494A50"/>
<g filter="url(#filter30_d_1642_3718)">
<rect x="96" y="691" width="182" height="43" rx="5" fill="white"/>
<path d="M172.522 712.228L171.317 712.569C171.241 712.368 171.13 712.173 170.982 711.983C170.838 711.79 170.641 711.631 170.391 711.506C170.141 711.381 169.821 711.319 169.431 711.319C168.897 711.319 168.452 711.442 168.095 711.688C167.743 711.93 167.567 712.239 167.567 712.614C167.567 712.947 167.688 713.211 167.931 713.404C168.173 713.597 168.552 713.758 169.067 713.887L170.363 714.205C171.143 714.394 171.724 714.684 172.107 715.074C172.489 715.461 172.681 715.959 172.681 716.569C172.681 717.069 172.537 717.516 172.249 717.91C171.965 718.304 171.567 718.614 171.056 718.841C170.544 719.069 169.95 719.182 169.272 719.182C168.381 719.182 167.645 718.989 167.061 718.603C166.478 718.216 166.109 717.652 165.953 716.91L167.226 716.591C167.347 717.061 167.577 717.413 167.914 717.648C168.255 717.883 168.7 718 169.249 718C169.874 718 170.37 717.868 170.738 717.603C171.109 717.334 171.294 717.012 171.294 716.637C171.294 716.334 171.188 716.08 170.976 715.875C170.764 715.667 170.438 715.512 169.999 715.41L168.544 715.069C167.745 714.879 167.158 714.586 166.783 714.188C166.412 713.786 166.226 713.285 166.226 712.682C166.226 712.19 166.364 711.754 166.641 711.375C166.921 710.997 167.302 710.699 167.783 710.483C168.268 710.268 168.817 710.16 169.431 710.16C170.294 710.16 170.972 710.349 171.465 710.728C171.961 711.107 172.313 711.607 172.522 712.228ZM174.379 722.273V710.273H175.675V711.66H175.834C175.932 711.508 176.069 711.315 176.243 711.08C176.421 710.841 176.675 710.629 177.004 710.444C177.337 710.254 177.788 710.16 178.356 710.16C179.091 710.16 179.739 710.343 180.3 710.711C180.86 711.078 181.298 711.599 181.612 712.273C181.926 712.947 182.084 713.743 182.084 714.66C182.084 715.584 181.926 716.385 181.612 717.063C181.298 717.737 180.862 718.26 180.305 718.631C179.748 718.999 179.106 719.182 178.379 719.182C177.819 719.182 177.37 719.09 177.033 718.904C176.695 718.715 176.436 718.5 176.254 718.262C176.072 718.019 175.932 717.819 175.834 717.66H175.72V722.273H174.379ZM175.697 714.637C175.697 715.296 175.794 715.877 175.987 716.381C176.18 716.881 176.462 717.273 176.834 717.557C177.205 717.838 177.659 717.978 178.197 717.978C178.758 717.978 179.226 717.83 179.601 717.535C179.98 717.235 180.264 716.834 180.453 716.33C180.646 715.822 180.743 715.258 180.743 714.637C180.743 714.023 180.648 713.47 180.459 712.978C180.273 712.482 179.991 712.09 179.612 711.802C179.237 711.51 178.766 711.364 178.197 711.364C177.652 711.364 177.194 711.502 176.822 711.779C176.451 712.052 176.171 712.434 175.981 712.927C175.792 713.415 175.697 713.985 175.697 714.637ZM186.377 719.205C185.824 719.205 185.322 719.101 184.872 718.893C184.421 718.68 184.063 718.375 183.798 717.978C183.533 717.576 183.4 717.091 183.4 716.523C183.4 716.023 183.499 715.618 183.696 715.307C183.892 714.993 184.156 714.747 184.485 714.569C184.815 714.391 185.178 714.258 185.576 714.171C185.978 714.08 186.381 714.008 186.786 713.955C187.317 713.887 187.747 713.836 188.076 713.802C188.41 713.764 188.652 713.701 188.803 713.614C188.959 713.527 189.036 713.375 189.036 713.16V713.114C189.036 712.554 188.883 712.118 188.576 711.807C188.273 711.497 187.813 711.341 187.196 711.341C186.555 711.341 186.053 711.482 185.69 711.762C185.326 712.042 185.071 712.341 184.923 712.66L183.65 712.205C183.877 711.675 184.18 711.262 184.559 710.966C184.942 710.667 185.358 710.459 185.809 710.341C186.264 710.22 186.711 710.16 187.15 710.16C187.43 710.16 187.752 710.194 188.116 710.262C188.483 710.326 188.838 710.461 189.178 710.665C189.523 710.87 189.809 711.179 190.036 711.591C190.264 712.004 190.377 712.557 190.377 713.25V719H189.036V717.819H188.968C188.877 718.008 188.726 718.211 188.514 718.427C188.302 718.643 188.019 718.826 187.667 718.978C187.315 719.129 186.885 719.205 186.377 719.205ZM186.582 718C187.112 718 187.559 717.896 187.923 717.688C188.29 717.48 188.567 717.211 188.752 716.881C188.942 716.552 189.036 716.205 189.036 715.841V714.614C188.98 714.682 188.855 714.745 188.661 714.802C188.472 714.855 188.252 714.902 188.002 714.944C187.756 714.982 187.516 715.016 187.281 715.046C187.05 715.072 186.862 715.095 186.718 715.114C186.37 715.16 186.044 715.233 185.741 715.336C185.442 715.434 185.199 715.584 185.014 715.785C184.832 715.982 184.741 716.25 184.741 716.591C184.741 717.057 184.913 717.41 185.258 717.648C185.606 717.883 186.048 718 186.582 718ZM196.05 719.182C195.232 719.182 194.528 718.989 193.937 718.603C193.346 718.216 192.891 717.684 192.573 717.006C192.255 716.328 192.096 715.554 192.096 714.682C192.096 713.796 192.259 713.014 192.584 712.336C192.914 711.654 193.372 711.122 193.959 710.739C194.55 710.353 195.24 710.16 196.028 710.16C196.641 710.16 197.194 710.273 197.687 710.5C198.179 710.728 198.582 711.046 198.897 711.455C199.211 711.864 199.406 712.341 199.482 712.887H198.141C198.039 712.489 197.812 712.137 197.459 711.83C197.111 711.519 196.641 711.364 196.05 711.364C195.528 711.364 195.069 711.5 194.675 711.773C194.285 712.042 193.98 712.423 193.76 712.915C193.545 713.404 193.437 713.978 193.437 714.637C193.437 715.311 193.543 715.898 193.755 716.398C193.971 716.898 194.274 717.286 194.664 717.563C195.058 717.84 195.52 717.978 196.05 717.978C196.399 717.978 196.715 717.917 196.999 717.796C197.283 717.675 197.524 717.5 197.721 717.273C197.918 717.046 198.058 716.773 198.141 716.455H199.482C199.406 716.97 199.219 717.434 198.92 717.847C198.624 718.256 198.232 718.582 197.743 718.824C197.259 719.063 196.694 719.182 196.05 719.182ZM204.781 719.182C203.94 719.182 203.215 718.997 202.605 718.625C201.999 718.25 201.531 717.728 201.202 717.057C200.876 716.383 200.713 715.599 200.713 714.705C200.713 713.811 200.876 713.023 201.202 712.341C201.531 711.656 201.99 711.122 202.577 710.739C203.168 710.353 203.857 710.16 204.645 710.16C205.1 710.16 205.548 710.235 205.992 710.387C206.435 710.538 206.838 710.785 207.202 711.125C207.565 711.463 207.855 711.91 208.071 712.466C208.287 713.023 208.395 713.709 208.395 714.523V715.091H201.668V713.932H207.031C207.031 713.44 206.933 713 206.736 712.614C206.543 712.228 206.266 711.923 205.906 711.699C205.55 711.476 205.13 711.364 204.645 711.364C204.111 711.364 203.649 711.497 203.259 711.762C202.872 712.023 202.575 712.364 202.367 712.785C202.158 713.205 202.054 713.656 202.054 714.137V714.91C202.054 715.569 202.168 716.127 202.395 716.586C202.626 717.04 202.946 717.387 203.355 717.625C203.764 717.86 204.24 717.978 204.781 717.978C205.134 717.978 205.452 717.929 205.736 717.83C206.024 717.728 206.272 717.576 206.48 717.375C206.689 717.171 206.85 716.917 206.963 716.614L208.259 716.978C208.122 717.417 207.893 717.804 207.571 718.137C207.249 718.466 206.851 718.724 206.378 718.91C205.904 719.091 205.372 719.182 204.781 719.182Z" fill="#1F2024"/>
</g>
<g filter="url(#filter31_d_1642_3718)">
<rect x="285" y="691" width="87" height="43" rx="5" fill="#006FFD"/>
<path d="M307.976 719V710.273H309.272V711.591H309.363C309.522 711.16 309.81 710.809 310.226 710.54C310.643 710.271 311.113 710.137 311.635 710.137C311.734 710.137 311.857 710.139 312.005 710.143C312.152 710.146 312.264 710.152 312.34 710.16V711.523C312.295 711.512 312.19 711.495 312.027 711.472C311.868 711.446 311.7 711.432 311.522 711.432C311.098 711.432 310.719 711.521 310.385 711.699C310.056 711.874 309.795 712.116 309.601 712.427C309.412 712.733 309.317 713.084 309.317 713.478V719H307.976ZM317.003 719.182C316.162 719.182 315.437 718.997 314.827 718.625C314.221 718.25 313.753 717.728 313.423 717.057C313.098 716.383 312.935 715.599 312.935 714.705C312.935 713.811 313.098 713.023 313.423 712.341C313.753 711.656 314.211 711.122 314.798 710.739C315.389 710.353 316.079 710.16 316.867 710.16C317.321 710.16 317.77 710.235 318.213 710.387C318.656 710.538 319.06 710.785 319.423 711.125C319.787 711.463 320.077 711.91 320.293 712.466C320.509 713.023 320.617 713.709 320.617 714.523V715.091H313.889V713.932H319.253C319.253 713.44 319.154 713 318.957 712.614C318.764 712.228 318.488 711.923 318.128 711.699C317.772 711.476 317.351 711.364 316.867 711.364C316.332 711.364 315.87 711.497 315.48 711.762C315.094 712.023 314.796 712.364 314.588 712.785C314.38 713.205 314.276 713.656 314.276 714.137V714.91C314.276 715.569 314.389 716.127 314.617 716.586C314.848 717.04 315.168 717.387 315.577 717.625C315.986 717.86 316.461 717.978 317.003 717.978C317.355 717.978 317.673 717.929 317.957 717.83C318.245 717.728 318.493 717.576 318.702 717.375C318.91 717.171 319.071 716.917 319.185 716.614L320.48 716.978C320.344 717.417 320.115 717.804 319.793 718.137C319.471 718.466 319.073 718.724 318.6 718.91C318.126 719.091 317.594 719.182 317.003 719.182ZM326.132 710.273V711.41H321.609V710.273H326.132ZM322.927 708.182H324.268V716.5C324.268 716.879 324.323 717.163 324.433 717.353C324.547 717.538 324.691 717.663 324.865 717.728C325.043 717.788 325.23 717.819 325.427 717.819C325.575 717.819 325.696 717.811 325.791 717.796C325.886 717.777 325.961 717.762 326.018 717.75L326.291 718.955C326.2 718.989 326.073 719.023 325.91 719.057C325.747 719.095 325.541 719.114 325.291 719.114C324.912 719.114 324.541 719.033 324.177 718.87C323.817 718.707 323.518 718.459 323.28 718.125C323.045 717.792 322.927 717.372 322.927 716.864V708.182ZM333.329 715.432V710.273H334.67V719H333.329V717.523H333.238C333.033 717.966 332.715 718.343 332.283 718.654C331.852 718.961 331.306 719.114 330.647 719.114C330.102 719.114 329.617 718.995 329.192 718.756C328.768 718.514 328.435 718.15 328.192 717.665C327.95 717.177 327.829 716.561 327.829 715.819V710.273H329.17V715.728C329.17 716.364 329.348 716.872 329.704 717.25C330.064 717.629 330.522 717.819 331.079 717.819C331.412 717.819 331.751 717.733 332.096 717.563C332.444 717.393 332.736 717.131 332.971 716.779C333.21 716.427 333.329 715.978 333.329 715.432ZM336.806 719V710.273H338.101V711.591H338.192C338.351 711.16 338.639 710.809 339.056 710.54C339.472 710.271 339.942 710.137 340.465 710.137C340.563 710.137 340.686 710.139 340.834 710.143C340.982 710.146 341.094 710.152 341.169 710.16V711.523C341.124 711.512 341.02 711.495 340.857 711.472C340.698 711.446 340.529 711.432 340.351 711.432C339.927 711.432 339.548 711.521 339.215 711.699C338.885 711.874 338.624 712.116 338.431 712.427C338.241 712.733 338.147 713.084 338.147 713.478V719H336.806ZM343.78 713.75V719H342.439V710.273H343.734V711.637H343.848C344.052 711.194 344.363 710.838 344.78 710.569C345.196 710.296 345.734 710.16 346.393 710.16C346.984 710.16 347.501 710.281 347.945 710.523C348.388 710.762 348.732 711.125 348.979 711.614C349.225 712.099 349.348 712.713 349.348 713.455V719H348.007V713.546C348.007 712.86 347.829 712.326 347.473 711.944C347.117 711.557 346.628 711.364 346.007 711.364C345.579 711.364 345.196 711.457 344.859 711.643C344.526 711.828 344.263 712.099 344.07 712.455C343.876 712.811 343.78 713.243 343.78 713.75Z" fill="white"/>
</g>
<g filter="url(#filter32_d_1642_3718)">
<rect x="3" y="691" width="87" height="43" rx="5" fill="#C5C6CC"/>
<path d="M38.6192 707.364V719H37.2101V708.841H37.1419L34.301 710.728V709.296L37.2101 707.364H38.6192ZM41.6458 719V717.978L45.4867 713.773C45.9375 713.281 46.3087 712.853 46.6003 712.489C46.892 712.122 47.1079 711.777 47.2481 711.455C47.392 711.129 47.464 710.788 47.464 710.432C47.464 710.023 47.3655 709.669 47.1685 709.37C46.9753 709.071 46.7102 708.84 46.3731 708.677C46.0359 708.514 45.6572 708.432 45.2367 708.432C44.7897 708.432 44.3996 708.525 44.0662 708.711C43.7367 708.893 43.481 709.148 43.2992 709.478C43.1212 709.807 43.0322 710.194 43.0322 710.637H41.6912C41.6912 709.955 41.8484 709.357 42.1628 708.841C42.4772 708.326 42.9053 707.925 43.4469 707.637C43.9924 707.349 44.6041 707.205 45.2822 707.205C45.964 707.205 46.5681 707.349 47.0947 707.637C47.6212 707.925 48.0341 708.313 48.3333 708.802C48.6325 709.29 48.7822 709.834 48.7822 710.432C48.7822 710.86 48.7045 711.279 48.5492 711.688C48.3977 712.093 48.1325 712.546 47.7537 713.046C47.3787 713.542 46.8579 714.148 46.1912 714.864L43.5776 717.66V717.75H48.9867V719H41.6458ZM54.9451 719.16C54.1951 719.16 53.5266 719.031 52.9394 718.773C52.3561 718.516 51.8921 718.158 51.5474 717.699C51.2065 717.237 51.0209 716.701 50.9906 716.091H52.4224C52.4527 716.466 52.5815 716.79 52.8088 717.063C53.036 717.332 53.3334 717.54 53.7008 717.688C54.0682 717.836 54.4754 717.91 54.9224 717.91C55.4224 717.91 55.8656 717.822 56.2519 717.648C56.6383 717.474 56.9413 717.232 57.161 716.921C57.3807 716.61 57.4906 716.25 57.4906 715.841C57.4906 715.413 57.3845 715.036 57.1724 714.711C56.9603 714.381 56.6497 714.124 56.2406 713.938C55.8315 713.752 55.3315 713.66 54.7406 713.66H53.8088V712.41H54.7406C55.2027 712.41 55.608 712.326 55.9565 712.16C56.3088 711.993 56.5834 711.758 56.7803 711.455C56.9811 711.152 57.0815 710.796 57.0815 710.387C57.0815 709.993 56.9944 709.65 56.8201 709.358C56.6459 709.067 56.3997 708.84 56.0815 708.677C55.7671 708.514 55.3959 708.432 54.9678 708.432C54.5663 708.432 54.1875 708.506 53.8315 708.654C53.4792 708.798 53.1913 709.008 52.9678 709.285C52.7444 709.557 52.6231 709.887 52.6042 710.273H51.2406C51.2633 709.663 51.447 709.129 51.7917 708.671C52.1364 708.209 52.5872 707.849 53.144 707.591C53.7046 707.334 54.3201 707.205 54.9906 707.205C55.7103 707.205 56.3277 707.351 56.8428 707.643C57.358 707.93 57.7538 708.311 58.0303 708.785C58.3069 709.258 58.4451 709.769 58.4451 710.319C58.4451 710.974 58.2728 711.533 57.9281 711.995C57.5872 712.457 57.1231 712.777 56.536 712.955V713.046C57.2709 713.167 57.8447 713.48 58.2576 713.983C58.6705 714.483 58.8769 715.103 58.8769 715.841C58.8769 716.474 58.7046 717.042 58.3599 717.546C58.019 718.046 57.5531 718.44 56.9622 718.728C56.3713 719.016 55.6989 719.16 54.9451 719.16Z" fill="#1F2024"/>
</g>
</g>
<g filter="url(#filter33_b_1642_3718)">
<rect width="375" height="44" fill="white"/>
<g clip-path="url(#clip5_1642_3718)">
<path d="M36.3309 16.9418C36.8529 16.9453 37.3607 17.0376 37.8543 17.2188C38.3515 17.3963 38.7989 17.6875 39.1967 18.0923C39.5944 18.4936 39.9105 19.0316 40.1448 19.7063C40.3792 20.381 40.4964 21.2156 40.4964 22.2099C40.4999 23.1474 40.4005 23.9854 40.1981 24.7241C39.9992 25.4592 39.7134 26.0806 39.3405 26.5884C38.9676 27.0962 38.5184 27.4833 37.9928 27.7496C37.4673 28.016 36.876 28.1491 36.219 28.1491C35.5301 28.1491 34.9193 28.0142 34.3867 27.7443C33.8575 27.4744 33.4296 27.1051 33.1029 26.6364C32.7762 26.1676 32.5756 25.6314 32.501 25.0277H34.4453C34.5447 25.4609 34.7471 25.8054 35.0525 26.0611C35.3614 26.3132 35.7503 26.4393 36.219 26.4393C36.9754 26.4393 37.5578 26.1108 37.9662 25.4538C38.3746 24.7969 38.5788 23.8842 38.5788 22.7159H38.5042C38.3302 23.0284 38.1047 23.2983 37.8277 23.5256C37.5507 23.7493 37.2364 23.9215 36.8849 24.0423C36.5369 24.163 36.1676 24.2234 35.7769 24.2234C35.1377 24.2234 34.5624 24.0707 34.0511 23.7653C33.5433 23.4599 33.1402 23.0408 32.8419 22.5082C32.5472 21.9755 32.398 21.3665 32.3945 20.6811C32.3945 19.9709 32.5578 19.3335 32.8845 18.7688C33.2148 18.2006 33.6747 17.7532 34.2641 17.4265C34.8536 17.0962 35.5426 16.9347 36.3309 16.9418ZM36.3362 18.5398C35.9527 18.5398 35.6065 18.6339 35.2975 18.8221C34.9921 19.0067 34.7507 19.2589 34.5731 19.5785C34.3991 19.8945 34.3121 20.2479 34.3121 20.6385C34.3156 21.0256 34.4026 21.3771 34.5731 21.6932C34.7471 22.0092 34.9833 22.2596 35.2815 22.4442C35.5834 22.6289 35.9279 22.7212 36.3149 22.7212C36.6026 22.7212 36.8707 22.6662 37.1193 22.5561C37.3678 22.446 37.5845 22.2933 37.7691 22.098C37.9573 21.8991 38.1029 21.6737 38.2059 21.4215C38.3124 21.1694 38.3639 20.9031 38.3604 20.6225C38.3604 20.2496 38.2716 19.9052 38.094 19.5891C37.92 19.2731 37.6803 19.0192 37.3749 18.8274C37.0731 18.6357 36.7269 18.5398 36.3362 18.5398ZM43.3143 26.6896C42.9912 26.6896 42.7142 26.576 42.4834 26.3487C42.2526 26.1179 42.1389 25.8409 42.1425 25.5178C42.1389 25.1982 42.2526 24.9247 42.4834 24.6974C42.7142 24.4702 42.9912 24.3565 43.3143 24.3565C43.6268 24.3565 43.8985 24.4702 44.1293 24.6974C44.3637 24.9247 44.4827 25.1982 44.4862 25.5178C44.4827 25.7344 44.4259 25.9315 44.3158 26.109C44.2092 26.2866 44.0672 26.4286 43.8896 26.5352C43.7156 26.6381 43.5239 26.6896 43.3143 26.6896ZM43.3143 21.283C42.9912 21.283 42.7142 21.1694 42.4834 20.9421C42.2526 20.7113 42.1389 20.4343 42.1425 20.1112C42.1389 19.7915 42.2526 19.5181 42.4834 19.2908C42.7142 19.06 42.9912 18.9446 43.3143 18.9446C43.6268 18.9446 43.8985 19.06 44.1293 19.2908C44.3637 19.5181 44.4827 19.7915 44.4862 20.1112C44.4827 20.3242 44.4259 20.5195 44.3158 20.6971C44.2092 20.8746 44.0672 21.0167 43.8896 21.1232C43.7156 21.2298 43.5239 21.283 43.3143 21.283ZM46.0937 25.9759V24.4045L50.7226 17.0909H52.033V19.3281H51.234L48.1178 24.266V24.3512H54.5791V25.9759H46.0937ZM51.2979 28V25.4964L51.3192 24.7933V17.0909H53.1835V28H51.2979ZM60.4067 17.0909V28H58.4305V19.0138H58.3665L55.815 20.6438V18.8327L58.5263 17.0909H60.4067Z" fill="#1F2024"/>
</g>
<g clip-path="url(#clip6_1642_3718)">
<path fill-rule="evenodd" clip-rule="evenodd" d="M307.623 18.566C307.6 18.6819 307.6 18.8213 307.6 19.1001V26.8001C307.6 27.0789 307.6 27.2183 307.623 27.3342C307.718 27.8102 308.09 28.1824 308.566 28.277C308.682 28.3001 308.821 28.3001 309.1 28.3001C309.379 28.3001 309.518 28.3001 309.634 28.277C310.11 28.1824 310.482 27.8102 310.577 27.3342C310.6 27.2183 310.6 27.0789 310.6 26.8001V19.1001C310.6 18.8213 310.6 18.6819 310.577 18.566C310.482 18.09 310.11 17.7178 309.634 17.6232C309.518 17.6001 309.379 17.6001 309.1 17.6001C308.821 17.6001 308.682 17.6001 308.566 17.6232C308.09 17.7178 307.718 18.09 307.623 18.566ZM302.9 21.5001C302.9 21.2213 302.9 21.0819 302.923 20.966C303.018 20.49 303.39 20.1178 303.866 20.0232C303.982 20.0001 304.121 20.0001 304.4 20.0001C304.679 20.0001 304.818 20.0001 304.934 20.0232C305.41 20.1178 305.782 20.49 305.877 20.966C305.9 21.0819 305.9 21.2213 305.9 21.5001V26.8001C305.9 27.0789 305.9 27.2183 305.877 27.3342C305.782 27.8102 305.41 28.1824 304.934 28.277C304.818 28.3001 304.679 28.3001 304.4 28.3001C304.121 28.3001 303.982 28.3001 303.866 28.277C303.39 28.1824 303.018 27.8102 302.923 27.3342C302.9 27.2183 302.9 27.0789 302.9 26.8001V21.5001ZM298.323 23.266C298.3 23.3819 298.3 23.5213 298.3 23.8001V26.8001C298.3 27.0789 298.3 27.2183 298.323 27.3342C298.418 27.8102 298.79 28.1824 299.266 28.277C299.382 28.3001 299.521 28.3001 299.8 28.3001C300.079 28.3001 300.218 28.3001 300.334 28.277C300.81 28.1824 301.182 27.8102 301.277 27.3342C301.3 27.2183 301.3 27.0789 301.3 26.8001V23.8001C301.3 23.5213 301.3 23.3819 301.277 23.266C301.182 22.79 300.81 22.4178 300.334 22.3232C300.218 22.3001 300.079 22.3001 299.8 22.3001C299.521 22.3001 299.382 22.3001 299.266 22.3232C298.79 22.4178 298.418 22.79 298.323 23.266ZM293.523 25.266C293.5 25.3819 293.5 25.5213 293.5 25.8001V26.8001C293.5 27.0789 293.5 27.2183 293.523 27.3342C293.618 27.8102 293.99 28.1824 294.466 28.277C294.582 28.3001 294.721 28.3001 295 28.3001C295.279 28.3001 295.418 28.3001 295.534 28.277C296.01 28.1824 296.382 27.8102 296.477 27.3342C296.5 27.2183 296.5 27.0789 296.5 26.8001V25.8001C296.5 25.5213 296.5 25.3819 296.477 25.266C296.382 24.79 296.01 24.4178 295.534 24.3232C295.418 24.3001 295.279 24.3001 295 24.3001C294.721 24.3001 294.582 24.3001 294.466 24.3232C293.99 24.4178 293.618 24.79 293.523 25.266Z" fill="#1F2024"/>
</g>
</g>
</g>
<defs>
<filter id="filter0_b_1642_3718" x="-70" y="449" width="515" height="433" filterUnits="userSpaceOnUse" color-interpolation-filters="sRGB">
<feFlood flood-opacity="0" result="BackgroundImageFix"/>
<feGaussianBlur in="BackgroundImageFix" stdDeviation="35"/>
<feComposite in2="SourceAlpha" operator="in" result="effect1_backgroundBlur_1642_3718"/>
<feBlend mode="normal" in="SourceGraphic" in2="effect1_backgroundBlur_1642_3718" result="shape"/>
</filter>
<filter id="filter1_b_1642_3718" x="-70" y="449" width="515" height="309" filterUnits="userSpaceOnUse" color-interpolation-filters="sRGB">
<feFlood flood-opacity="0" result="BackgroundImageFix"/>
<feGaussianBlur in="BackgroundImageFix" stdDeviation="35"/>
<feComposite in2="SourceAlpha" operator="in" result="effect1_backgroundBlur_1642_3718"/>
<feBlend mode="normal" in="SourceGraphic" in2="effect1_backgroundBlur_1642_3718" result="shape"/>
</filter>
<filter id="filter2_d_1642_3718" x="58" y="635" width="32" height="44" filterUnits="userSpaceOnUse" color-interpolation-filters="sRGB">
<feFlood flood-opacity="0" result="BackgroundImageFix"/>
<feColorMatrix in="SourceAlpha" type="matrix" values="0 0 0 0 0 0 0 0 0 0 0 0 0 0 0 0 0 0 127 0" result="hardAlpha"/>
<feOffset dy="1"/>
<feColorMatrix type="matrix" values="0 0 0 0 0 0 0 0 0 0 0 0 0 0 0 0 0 0 0.3 0"/>
<feBlend mode="normal" in2="BackgroundImageFix" result="effect1_dropShadow_1642_3718"/>
<feBlend mode="normal" in="SourceGraphic" in2="effect1_dropShadow_1642_3718" result="shape"/>
</filter>
<filter id="filter3_d_1642_3718" x="96" y="635" width="32" height="44" filterUnits="userSpaceOnUse" color-interpolation-filters="sRGB">
<feFlood flood-opacity="0" result="BackgroundImageFix"/>
<feColorMatrix in="SourceAlpha" type="matrix" values="0 0 0 0 0 0 0 0 0 0 0 0 0 0 0 0 0 0 127 0" result="hardAlpha"/>
<feOffset dy="1"/>
<feColorMatrix type="matrix" values="0 0 0 0 0 0 0 0 0 0 0 0 0 0 0 0 0 0 0.3 0"/>
<feBlend mode="normal" in2="BackgroundImageFix" result="effect1_dropShadow_1642_3718"/>
<feBlend mode="normal" in="SourceGraphic" in2="effect1_dropShadow_1642_3718" result="shape"/>
</filter>
<filter id="filter4_d_1642_3718" x="134" y="635" width="32" height="44" filterUnits="userSpaceOnUse" color-interpolation-filters="sRGB">
<feFlood flood-opacity="0" result="BackgroundImageFix"/>
<feColorMatrix in="SourceAlpha" type="matrix" values="0 0 0 0 0 0 0 0 0 0 0 0 0 0 0 0 0 0 127 0" result="hardAlpha"/>
<feOffset dy="1"/>
<feColorMatrix type="matrix" values="0 0 0 0 0 0 0 0 0 0 0 0 0 0 0 0 0 0 0.3 0"/>
<feBlend mode="normal" in2="BackgroundImageFix" result="effect1_dropShadow_1642_3718"/>
<feBlend mode="normal" in="SourceGraphic" in2="effect1_dropShadow_1642_3718" result="shape"/>
</filter>
<filter id="filter5_d_1642_3718" x="172" y="635" width="32" height="44" filterUnits="userSpaceOnUse" color-interpolation-filters="sRGB">
<feFlood flood-opacity="0" result="BackgroundImageFix"/>
<feColorMatrix in="SourceAlpha" type="matrix" values="0 0 0 0 0 0 0 0 0 0 0 0 0 0 0 0 0 0 127 0" result="hardAlpha"/>
<feOffset dy="1"/>
<feColorMatrix type="matrix" values="0 0 0 0 0 0 0 0 0 0 0 0 0 0 0 0 0 0 0.3 0"/>
<feBlend mode="normal" in2="BackgroundImageFix" result="effect1_dropShadow_1642_3718"/>
<feBlend mode="normal" in="SourceGraphic" in2="effect1_dropShadow_1642_3718" result="shape"/>
</filter>
<filter id="filter6_d_1642_3718" x="210" y="635" width="32" height="44" filterUnits="userSpaceOnUse" color-interpolation-filters="sRGB">
<feFlood flood-opacity="0" result="BackgroundImageFix"/>
<feColorMatrix in="SourceAlpha" type="matrix" values="0 0 0 0 0 0 0 0 0 0 0 0 0 0 0 0 0 0 127 0" result="hardAlpha"/>
<feOffset dy="1"/>
<feColorMatrix type="matrix" values="0 0 0 0 0 0 0 0 0 0 0 0 0 0 0 0 0 0 0.3 0"/>
<feBlend mode="normal" in2="BackgroundImageFix" result="effect1_dropShadow_1642_3718"/>
<feBlend mode="normal" in="SourceGraphic" in2="effect1_dropShadow_1642_3718" result="shape"/>
</filter>
<filter id="filter7_d_1642_3718" x="248" y="635" width="32" height="44" filterUnits="userSpaceOnUse" color-interpolation-filters="sRGB">
<feFlood flood-opacity="0" result="BackgroundImageFix"/>
<feColorMatrix in="SourceAlpha" type="matrix" values="0 0 0 0 0 0 0 0 0 0 0 0 0 0 0 0 0 0 127 0" result="hardAlpha"/>
<feOffset dy="1"/>
<feColorMatrix type="matrix" values="0 0 0 0 0 0 0 0 0 0 0 0 0 0 0 0 0 0 0.3 0"/>
<feBlend mode="normal" in2="BackgroundImageFix" result="effect1_dropShadow_1642_3718"/>
<feBlend mode="normal" in="SourceGraphic" in2="effect1_dropShadow_1642_3718" result="shape"/>
</filter>
<filter id="filter8_d_1642_3718" x="286" y="635" width="32" height="44" filterUnits="userSpaceOnUse" color-interpolation-filters="sRGB">
<feFlood flood-opacity="0" result="BackgroundImageFix"/>
<feColorMatrix in="SourceAlpha" type="matrix" values="0 0 0 0 0 0 0 0 0 0 0 0 0 0 0 0 0 0 127 0" result="hardAlpha"/>
<feOffset dy="1"/>
<feColorMatrix type="matrix" values="0 0 0 0 0 0 0 0 0 0 0 0 0 0 0 0 0 0 0.3 0"/>
<feBlend mode="normal" in2="BackgroundImageFix" result="effect1_dropShadow_1642_3718"/>
<feBlend mode="normal" in="SourceGraphic" in2="effect1_dropShadow_1642_3718" result="shape"/>
</filter>
<filter id="filter9_d_1642_3718" x="21.75" y="581" width="32" height="44" filterUnits="userSpaceOnUse" color-interpolation-filters="sRGB">
<feFlood flood-opacity="0" result="BackgroundImageFix"/>
<feColorMatrix in="SourceAlpha" type="matrix" values="0 0 0 0 0 0 0 0 0 0 0 0 0 0 0 0 0 0 127 0" result="hardAlpha"/>
<feOffset dy="1"/>
<feColorMatrix type="matrix" values="0 0 0 0 0 0 0 0 0 0 0 0 0 0 0 0 0 0 0.3 0"/>
<feBlend mode="normal" in2="BackgroundImageFix" result="effect1_dropShadow_1642_3718"/>
<feBlend mode="normal" in="SourceGraphic" in2="effect1_dropShadow_1642_3718" result="shape"/>
</filter>
<filter id="filter10_d_1642_3718" x="59.75" y="581" width="32" height="44" filterUnits="userSpaceOnUse" color-interpolation-filters="sRGB">
<feFlood flood-opacity="0" result="BackgroundImageFix"/>
<feColorMatrix in="SourceAlpha" type="matrix" values="0 0 0 0 0 0 0 0 0 0 0 0 0 0 0 0 0 0 127 0" result="hardAlpha"/>
<feOffset dy="1"/>
<feColorMatrix type="matrix" values="0 0 0 0 0 0 0 0 0 0 0 0 0 0 0 0 0 0 0.3 0"/>
<feBlend mode="normal" in2="BackgroundImageFix" result="effect1_dropShadow_1642_3718"/>
<feBlend mode="normal" in="SourceGraphic" in2="effect1_dropShadow_1642_3718" result="shape"/>
</filter>
<filter id="filter11_d_1642_3718" x="97.75" y="581" width="32" height="44" filterUnits="userSpaceOnUse" color-interpolation-filters="sRGB">
<feFlood flood-opacity="0" result="BackgroundImageFix"/>
<feColorMatrix in="SourceAlpha" type="matrix" values="0 0 0 0 0 0 0 0 0 0 0 0 0 0 0 0 0 0 127 0" result="hardAlpha"/>
<feOffset dy="1"/>
<feColorMatrix type="matrix" values="0 0 0 0 0 0 0 0 0 0 0 0 0 0 0 0 0 0 0.3 0"/>
<feBlend mode="normal" in2="BackgroundImageFix" result="effect1_dropShadow_1642_3718"/>
<feBlend mode="normal" in="SourceGraphic" in2="effect1_dropShadow_1642_3718" result="shape"/>
</filter>
<filter id="filter12_d_1642_3718" x="135.75" y="581" width="32" height="44" filterUnits="userSpaceOnUse" color-interpolation-filters="sRGB">
<feFlood flood-opacity="0" result="BackgroundImageFix"/>
<feColorMatrix in="SourceAlpha" type="matrix" values="0 0 0 0 0 0 0 0 0 0 0 0 0 0 0 0 0 0 127 0" result="hardAlpha"/>
<feOffset dy="1"/>
<feColorMatrix type="matrix" values="0 0 0 0 0 0 0 0 0 0 0 0 0 0 0 0 0 0 0.3 0"/>
<feBlend mode="normal" in2="BackgroundImageFix" result="effect1_dropShadow_1642_3718"/>
<feBlend mode="normal" in="SourceGraphic" in2="effect1_dropShadow_1642_3718" result="shape"/>
</filter>
<filter id="filter13_d_1642_3718" x="173.75" y="581" width="32" height="44" filterUnits="userSpaceOnUse" color-interpolation-filters="sRGB">
<feFlood flood-opacity="0" result="BackgroundImageFix"/>
<feColorMatrix in="SourceAlpha" type="matrix" values="0 0 0 0 0 0 0 0 0 0 0 0 0 0 0 0 0 0 127 0" result="hardAlpha"/>
<feOffset dy="1"/>
<feColorMatrix type="matrix" values="0 0 0 0 0 0 0 0 0 0 0 0 0 0 0 0 0 0 0.3 0"/>
<feBlend mode="normal" in2="BackgroundImageFix" result="effect1_dropShadow_1642_3718"/>
<feBlend mode="normal" in="SourceGraphic" in2="effect1_dropShadow_1642_3718" result="shape"/>
</filter>
<filter id="filter14_d_1642_3718" x="211.75" y="581" width="32" height="44" filterUnits="userSpaceOnUse" color-interpolation-filters="sRGB">
<feFlood flood-opacity="0" result="BackgroundImageFix"/>
<feColorMatrix in="SourceAlpha" type="matrix" values="0 0 0 0 0 0 0 0 0 0 0 0 0 0 0 0 0 0 127 0" result="hardAlpha"/>
<feOffset dy="1"/>
<feColorMatrix type="matrix" values="0 0 0 0 0 0 0 0 0 0 0 0 0 0 0 0 0 0 0.3 0"/>
<feBlend mode="normal" in2="BackgroundImageFix" result="effect1_dropShadow_1642_3718"/>
<feBlend mode="normal" in="SourceGraphic" in2="effect1_dropShadow_1642_3718" result="shape"/>
</filter>
<filter id="filter15_d_1642_3718" x="249.75" y="581" width="32" height="44" filterUnits="userSpaceOnUse" color-interpolation-filters="sRGB">
<feFlood flood-opacity="0" result="BackgroundImageFix"/>
<feColorMatrix in="SourceAlpha" type="matrix" values="0 0 0 0 0 0 0 0 0 0 0 0 0 0 0 0 0 0 127 0" result="hardAlpha"/>
<feOffset dy="1"/>
<feColorMatrix type="matrix" values="0 0 0 0 0 0 0 0 0 0 0 0 0 0 0 0 0 0 0.3 0"/>
<feBlend mode="normal" in2="BackgroundImageFix" result="effect1_dropShadow_1642_3718"/>
<feBlend mode="normal" in="SourceGraphic" in2="effect1_dropShadow_1642_3718" result="shape"/>
</filter>
<filter id="filter16_d_1642_3718" x="287.75" y="581" width="32" height="44" filterUnits="userSpaceOnUse" color-interpolation-filters="sRGB">
<feFlood flood-opacity="0" result="BackgroundImageFix"/>
<feColorMatrix in="SourceAlpha" type="matrix" values="0 0 0 0 0 0 0 0 0 0 0 0 0 0 0 0 0 0 127 0" result="hardAlpha"/>
<feOffset dy="1"/>
<feColorMatrix type="matrix" values="0 0 0 0 0 0 0 0 0 0 0 0 0 0 0 0 0 0 0.3 0"/>
<feBlend mode="normal" in2="BackgroundImageFix" result="effect1_dropShadow_1642_3718"/>
<feBlend mode="normal" in="SourceGraphic" in2="effect1_dropShadow_1642_3718" result="shape"/>
</filter>
<filter id="filter17_d_1642_3718" x="325.75" y="581" width="32" height="44" filterUnits="userSpaceOnUse" color-interpolation-filters="sRGB">
<feFlood flood-opacity="0" result="BackgroundImageFix"/>
<feColorMatrix in="SourceAlpha" type="matrix" values="0 0 0 0 0 0 0 0 0 0 0 0 0 0 0 0 0 0 127 0" result="hardAlpha"/>
<feOffset dy="1"/>
<feColorMatrix type="matrix" values="0 0 0 0 0 0 0 0 0 0 0 0 0 0 0 0 0 0 0.3 0"/>
<feBlend mode="normal" in2="BackgroundImageFix" result="effect1_dropShadow_1642_3718"/>
<feBlend mode="normal" in="SourceGraphic" in2="effect1_dropShadow_1642_3718" result="shape"/>
</filter>
<filter id="filter18_d_1642_3718" x="5" y="527" width="31" height="44" filterUnits="userSpaceOnUse" color-interpolation-filters="sRGB">
<feFlood flood-opacity="0" result="BackgroundImageFix"/>
<feColorMatrix in="SourceAlpha" type="matrix" values="0 0 0 0 0 0 0 0 0 0 0 0 0 0 0 0 0 0 127 0" result="hardAlpha"/>
<feOffset dy="1"/>
<feColorMatrix type="matrix" values="0 0 0 0 0 0 0 0 0 0 0 0 0 0 0 0 0 0 0.3 0"/>
<feBlend mode="normal" in2="BackgroundImageFix" result="effect1_dropShadow_1642_3718"/>
<feBlend mode="normal" in="SourceGraphic" in2="effect1_dropShadow_1642_3718" result="shape"/>
</filter>
<filter id="filter19_d_1642_3718" x="42" y="527" width="31" height="44" filterUnits="userSpaceOnUse" color-interpolation-filters="sRGB">
<feFlood flood-opacity="0" result="BackgroundImageFix"/>
<feColorMatrix in="SourceAlpha" type="matrix" values="0 0 0 0 0 0 0 0 0 0 0 0 0 0 0 0 0 0 127 0" result="hardAlpha"/>
<feOffset dy="1"/>
<feColorMatrix type="matrix" values="0 0 0 0 0 0 0 0 0 0 0 0 0 0 0 0 0 0 0.3 0"/>
<feBlend mode="normal" in2="BackgroundImageFix" result="effect1_dropShadow_1642_3718"/>
<feBlend mode="normal" in="SourceGraphic" in2="effect1_dropShadow_1642_3718" result="shape"/>
</filter>
<filter id="filter20_d_1642_3718" x="79" y="527" width="31" height="44" filterUnits="userSpaceOnUse" color-interpolation-filters="sRGB">
<feFlood flood-opacity="0" result="BackgroundImageFix"/>
<feColorMatrix in="SourceAlpha" type="matrix" values="0 0 0 0 0 0 0 0 0 0 0 0 0 0 0 0 0 0 127 0" result="hardAlpha"/>
<feOffset dy="1"/>
<feColorMatrix type="matrix" values="0 0 0 0 0 0 0 0 0 0 0 0 0 0 0 0 0 0 0.3 0"/>
<feBlend mode="normal" in2="BackgroundImageFix" result="effect1_dropShadow_1642_3718"/>
<feBlend mode="normal" in="SourceGraphic" in2="effect1_dropShadow_1642_3718" result="shape"/>
</filter>
<filter id="filter21_d_1642_3718" x="116" y="527" width="31" height="44" filterUnits="userSpaceOnUse" color-interpolation-filters="sRGB">
<feFlood flood-opacity="0" result="BackgroundImageFix"/>
<feColorMatrix in="SourceAlpha" type="matrix" values="0 0 0 0 0 0 0 0 0 0 0 0 0 0 0 0 0 0 127 0" result="hardAlpha"/>
<feOffset dy="1"/>
<feColorMatrix type="matrix" values="0 0 0 0 0 0 0 0 0 0 0 0 0 0 0 0 0 0 0.3 0"/>
<feBlend mode="normal" in2="BackgroundImageFix" result="effect1_dropShadow_1642_3718"/>
<feBlend mode="normal" in="SourceGraphic" in2="effect1_dropShadow_1642_3718" result="shape"/>
</filter>
<filter id="filter22_d_1642_3718" x="153" y="527" width="31" height="44" filterUnits="userSpaceOnUse" color-interpolation-filters="sRGB">
<feFlood flood-opacity="0" result="BackgroundImageFix"/>
<feColorMatrix in="SourceAlpha" type="matrix" values="0 0 0 0 0 0 0 0 0 0 0 0 0 0 0 0 0 0 127 0" result="hardAlpha"/>
<feOffset dy="1"/>
<feColorMatrix type="matrix" values="0 0 0 0 0 0 0 0 0 0 0 0 0 0 0 0 0 0 0.3 0"/>
<feBlend mode="normal" in2="BackgroundImageFix" result="effect1_dropShadow_1642_3718"/>
<feBlend mode="normal" in="SourceGraphic" in2="effect1_dropShadow_1642_3718" result="shape"/>
</filter>
<filter id="filter23_d_1642_3718" x="190" y="527" width="31" height="44" filterUnits="userSpaceOnUse" color-interpolation-filters="sRGB">
<feFlood flood-opacity="0" result="BackgroundImageFix"/>
<feColorMatrix in="SourceAlpha" type="matrix" values="0 0 0 0 0 0 0 0 0 0 0 0 0 0 0 0 0 0 127 0" result="hardAlpha"/>
<feOffset dy="1"/>
<feColorMatrix type="matrix" values="0 0 0 0 0 0 0 0 0 0 0 0 0 0 0 0 0 0 0.3 0"/>
<feBlend mode="normal" in2="BackgroundImageFix" result="effect1_dropShadow_1642_3718"/>
<feBlend mode="normal" in="SourceGraphic" in2="effect1_dropShadow_1642_3718" result="shape"/>
</filter>
<filter id="filter24_d_1642_3718" x="227" y="527" width="31" height="44" filterUnits="userSpaceOnUse" color-interpolation-filters="sRGB">
<feFlood flood-opacity="0" result="BackgroundImageFix"/>
<feColorMatrix in="SourceAlpha" type="matrix" values="0 0 0 0 0 0 0 0 0 0 0 0 0 0 0 0 0 0 127 0" result="hardAlpha"/>
<feOffset dy="1"/>
<feColorMatrix type="matrix" values="0 0 0 0 0 0 0 0 0 0 0 0 0 0 0 0 0 0 0.3 0"/>
<feBlend mode="normal" in2="BackgroundImageFix" result="effect1_dropShadow_1642_3718"/>
<feBlend mode="normal" in="SourceGraphic" in2="effect1_dropShadow_1642_3718" result="shape"/>
</filter>
<filter id="filter25_d_1642_3718" x="264" y="527" width="31" height="44" filterUnits="userSpaceOnUse" color-interpolation-filters="sRGB">
<feFlood flood-opacity="0" result="BackgroundImageFix"/>
<feColorMatrix in="SourceAlpha" type="matrix" values="0 0 0 0 0 0 0 0 0 0 0 0 0 0 0 0 0 0 127 0" result="hardAlpha"/>
<feOffset dy="1"/>
<feColorMatrix type="matrix" values="0 0 0 0 0 0 0 0 0 0 0 0 0 0 0 0 0 0 0.3 0"/>
<feBlend mode="normal" in2="BackgroundImageFix" result="effect1_dropShadow_1642_3718"/>
<feBlend mode="normal" in="SourceGraphic" in2="effect1_dropShadow_1642_3718" result="shape"/>
</filter>
<filter id="filter26_d_1642_3718" x="301" y="527" width="31" height="44" filterUnits="userSpaceOnUse" color-interpolation-filters="sRGB">
<feFlood flood-opacity="0" result="BackgroundImageFix"/>
<feColorMatrix in="SourceAlpha" type="matrix" values="0 0 0 0 0 0 0 0 0 0 0 0 0 0 0 0 0 0 127 0" result="hardAlpha"/>
<feOffset dy="1"/>
<feColorMatrix type="matrix" values="0 0 0 0 0 0 0 0 0 0 0 0 0 0 0 0 0 0 0.3 0"/>
<feBlend mode="normal" in2="BackgroundImageFix" result="effect1_dropShadow_1642_3718"/>
<feBlend mode="normal" in="SourceGraphic" in2="effect1_dropShadow_1642_3718" result="shape"/>
</filter>
<filter id="filter27_d_1642_3718" x="338" y="527" width="31" height="44" filterUnits="userSpaceOnUse" color-interpolation-filters="sRGB">
<feFlood flood-opacity="0" result="BackgroundImageFix"/>
<feColorMatrix in="SourceAlpha" type="matrix" values="0 0 0 0 0 0 0 0 0 0 0 0 0 0 0 0 0 0 127 0" result="hardAlpha"/>
<feOffset dy="1"/>
<feColorMatrix type="matrix" values="0 0 0 0 0 0 0 0 0 0 0 0 0 0 0 0 0 0 0.3 0"/>
<feBlend mode="normal" in2="BackgroundImageFix" result="effect1_dropShadow_1642_3718"/>
<feBlend mode="normal" in="SourceGraphic" in2="effect1_dropShadow_1642_3718" result="shape"/>
</filter>
<filter id="filter28_d_1642_3718" x="3" y="635" width="42" height="44" filterUnits="userSpaceOnUse" color-interpolation-filters="sRGB">
<feFlood flood-opacity="0" result="BackgroundImageFix"/>
<feColorMatrix in="SourceAlpha" type="matrix" values="0 0 0 0 0 0 0 0 0 0 0 0 0 0 0 0 0 0 127 0" result="hardAlpha"/>
<feOffset dy="1"/>
<feColorMatrix type="matrix" values="0 0 0 0 0 0 0 0 0 0 0 0 0 0 0 0 0 0 0.3 0"/>
<feBlend mode="normal" in2="BackgroundImageFix" result="effect1_dropShadow_1642_3718"/>
<feBlend mode="normal" in="SourceGraphic" in2="effect1_dropShadow_1642_3718" result="shape"/>
</filter>
<filter id="filter29_d_1642_3718" x="330" y="635" width="42" height="43" filterUnits="userSpaceOnUse" color-interpolation-filters="sRGB">
<feFlood flood-opacity="0" result="BackgroundImageFix"/>
<feColorMatrix in="SourceAlpha" type="matrix" values="0 0 0 0 0 0 0 0 0 0 0 0 0 0 0 0 0 0 127 0" result="hardAlpha"/>
<feOffset dy="1"/>
<feColorMatrix type="matrix" values="0 0 0 0 0 0 0 0 0 0 0 0 0 0 0 0 0 0 0.3 0"/>
<feBlend mode="normal" in2="BackgroundImageFix" result="effect1_dropShadow_1642_3718"/>
<feBlend mode="normal" in="SourceGraphic" in2="effect1_dropShadow_1642_3718" result="shape"/>
</filter>
<filter id="filter30_d_1642_3718" x="96" y="691" width="182" height="44" filterUnits="userSpaceOnUse" color-interpolation-filters="sRGB">
<feFlood flood-opacity="0" result="BackgroundImageFix"/>
<feColorMatrix in="SourceAlpha" type="matrix" values="0 0 0 0 0 0 0 0 0 0 0 0 0 0 0 0 0 0 127 0" result="hardAlpha"/>
<feOffset dy="1"/>
<feColorMatrix type="matrix" values="0 0 0 0 0 0 0 0 0 0 0 0 0 0 0 0 0 0 0.3 0"/>
<feBlend mode="normal" in2="BackgroundImageFix" result="effect1_dropShadow_1642_3718"/>
<feBlend mode="normal" in="SourceGraphic" in2="effect1_dropShadow_1642_3718" result="shape"/>
</filter>
<filter id="filter31_d_1642_3718" x="285" y="691" width="87" height="44" filterUnits="userSpaceOnUse" color-interpolation-filters="sRGB">
<feFlood flood-opacity="0" result="BackgroundImageFix"/>
<feColorMatrix in="SourceAlpha" type="matrix" values="0 0 0 0 0 0 0 0 0 0 0 0 0 0 0 0 0 0 127 0" result="hardAlpha"/>
<feOffset dy="1"/>
<feColorMatrix type="matrix" values="0 0 0 0 0 0 0 0 0 0 0 0 0 0 0 0 0 0 0.3 0"/>
<feBlend mode="normal" in2="BackgroundImageFix" result="effect1_dropShadow_1642_3718"/>
<feBlend mode="normal" in="SourceGraphic" in2="effect1_dropShadow_1642_3718" result="shape"/>
</filter>
<filter id="filter32_d_1642_3718" x="3" y="691" width="87" height="44" filterUnits="userSpaceOnUse" color-interpolation-filters="sRGB">
<feFlood flood-opacity="0" result="BackgroundImageFix"/>
<feColorMatrix in="SourceAlpha" type="matrix" values="0 0 0 0 0 0 0 0 0 0 0 0 0 0 0 0 0 0 127 0" result="hardAlpha"/>
<feOffset dy="1"/>
<feColorMatrix type="matrix" values="0 0 0 0 0 0 0 0 0 0 0 0 0 0 0 0 0 0 0.3 0"/>
<feBlend mode="normal" in2="BackgroundImageFix" result="effect1_dropShadow_1642_3718"/>
<feBlend mode="normal" in="SourceGraphic" in2="effect1_dropShadow_1642_3718" result="shape"/>
</filter>
<filter id="filter33_b_1642_3718" x="-40" y="-40" width="455" height="124" filterUnits="userSpaceOnUse" color-interpolation-filters="sRGB">
<feFlood flood-opacity="0" result="BackgroundImageFix"/>
<feGaussianBlur in="BackgroundImageFix" stdDeviation="20"/>
<feComposite in2="SourceAlpha" operator="in" result="effect1_backgroundBlur_1642_3718"/>
<feBlend mode="normal" in="SourceGraphic" in2="effect1_backgroundBlur_1642_3718" result="shape"/>
</filter>
<clipPath id="clip0_1642_3718">
<rect width="375" height="812" fill="white"/>
</clipPath>
<clipPath id="clip1_1642_3718">
<rect width="12" height="11.9998" fill="white" transform="translate(331 176)"/>
</clipPath>
<clipPath id="clip2_1642_3718">
<rect width="12" height="11.9998" fill="white" transform="translate(331 228)"/>
</clipPath>
<clipPath id="clip3_1642_3718">
<rect width="12" height="11.9998" fill="white" transform="translate(331 280)"/>
</clipPath>
<clipPath id="clip4_1642_3718">
<rect width="375" height="293" fill="white" transform="translate(0 519)"/>
</clipPath>
<clipPath id="clip5_1642_3718">
<rect width="53.7135" height="18" fill="white" transform="translate(19.8906 14)"/>
</clipPath>
<clipPath id="clip6_1642_3718">
<rect width="68" height="14" fill="white" transform="translate(293 16)"/>
</clipPath>
</defs>
</svg>
